<svg width="882" height="884" viewBox="0 0 882 884" fill="none" xmlns="http://www.w3.org/2000/svg">
<g clip-path="url(#clip0_140_164)">
<mask id="mask0_140_164" style="mask-type:luminance" maskUnits="userSpaceOnUse" x="0" y="0" width="882" height="884">
<path d="M882 0H0V884H882V0Z" fill="white"/>
</mask>
<g mask="url(#mask0_140_164)">
<path d="M882 -1.8457H0V884H882V-1.8457Z" fill="#7036CC"/>
<path d="M500.046 492.382V493.489V494.966C500.046 495.459 500.046 495.949 500.046 496.442C500.292 496.935 500.292 497.426 500.046 497.919V501.979C499.801 502.717 499.677 503.824 499.677 505.301V507.884V511.206C499.185 513.175 498.816 515.39 498.57 517.85C498.57 520.065 498.325 522.403 497.832 524.863C497.094 528.309 496.356 531.507 495.618 534.46C495.125 537.167 494.634 539.873 494.142 542.58C493.896 543.811 493.649 544.918 493.404 545.902C493.158 546.886 492.911 547.993 492.665 549.224C492.173 549.962 491.804 550.824 491.558 551.808C491.558 552.791 491.435 553.777 491.189 554.76C490.451 557.468 489.713 560.297 488.975 563.25C488.482 565.957 487.992 568.786 487.499 571.739C487.006 573.708 486.637 575.676 486.392 577.645C486.392 579.614 486.146 581.581 485.654 583.55C485.654 585.027 485.53 586.258 485.285 587.241C485.039 588.472 484.916 589.701 484.916 590.932C484.916 592.163 484.792 593.516 484.547 594.992C484.547 595.238 484.547 595.485 484.547 595.731C484.792 595.976 484.916 596.223 484.916 596.469C485.161 598.191 484.916 599.422 484.178 600.16C483.932 600.653 483.071 600.898 481.594 600.898H481.225H477.904H475.69H473.106C472.614 600.898 472.123 600.774 471.63 600.529C471.385 600.529 471.016 600.529 470.523 600.529H462.773H459.821H457.607H452.071C451.333 600.529 450.595 600.529 449.857 600.529C449.119 600.774 448.381 600.898 447.643 600.898H441.369C438.662 600.898 436.695 600.774 435.465 600.529H433.619C432.881 600.284 432.143 600.16 431.405 600.16C430.667 600.16 430.053 600.036 429.56 599.791C429.067 599.791 428.577 599.545 428.084 599.053C428.084 599.053 427.96 598.929 427.715 598.683C427.469 598.683 427.346 598.438 427.346 597.945V597.576C427.838 597.083 428.084 596.838 428.084 596.838H431.774C430.791 595.607 430.544 594.009 431.036 592.04C431.036 591.547 430.913 591.178 430.667 590.932C430.422 590.687 430.298 590.194 430.298 589.456C430.053 588.718 429.929 587.61 429.929 586.134V583.55C429.929 583.058 429.805 582.812 429.56 582.812C429.56 582.567 429.56 582.198 429.56 581.705C429.315 581.212 429.191 580.598 429.191 579.859V573.954C429.191 573.461 429.315 573.215 429.56 573.215C429.067 572.232 428.946 571.615 429.191 571.37C429.436 570.877 429.436 570.508 429.191 570.263C428.453 570.017 428.084 569.279 428.084 568.048C428.084 567.555 428.208 567.186 428.453 566.941V566.202C428.453 565.71 428.329 565.219 428.084 564.726C428.084 563.988 428.084 563.373 428.084 562.881C427.838 562.388 427.715 562.019 427.715 561.773C427.715 561.281 427.591 560.79 427.346 560.297C427.1 559.559 426.853 558.82 426.608 558.082C426.608 557.099 426.484 556.237 426.239 555.499C425.993 554.022 425.87 552.546 425.87 551.069C425.87 549.593 425.87 548.117 425.87 546.64C425.624 545.902 425.501 544.549 425.501 542.58V539.258V537.782C425.501 537.289 425.377 537.043 425.132 537.043C425.132 536.798 425.132 536.429 425.132 535.936C425.132 535.443 425.132 535.074 425.132 534.829C425.377 534.336 425.501 533.845 425.501 533.352V530.769V528.185V524.863V521.91C425.746 520.927 425.87 519.45 425.87 517.481V514.528C426.115 513.544 426.115 512.437 425.87 511.206C425.377 509.237 425.377 507.27 425.87 505.301C425.87 504.808 425.87 504.439 425.87 504.193C426.115 503.948 426.239 503.579 426.239 503.086V501.24C426.484 499.764 426.608 498.288 426.608 496.811C426.608 495.335 426.853 493.858 427.346 492.382C427.346 490.413 427.591 488.198 428.084 485.738C428.577 483.769 428.822 482.293 428.822 481.309C429.067 480.816 429.191 480.078 429.191 479.094C429.191 477.863 429.315 476.88 429.56 476.142C430.053 474.665 430.298 473.189 430.298 471.712C430.544 470.236 430.913 468.759 431.405 467.283L432.512 462.854C432.512 462.608 432.512 462.485 432.512 462.485C432.758 462.239 432.881 461.87 432.881 461.377C433.374 459.901 433.619 458.794 433.619 458.056C433.619 456.825 433.619 455.595 433.619 454.364C433.865 452.888 434.112 451.535 434.358 450.304L435.465 444.768C435.465 444.275 435.465 443.784 435.465 443.291C435.71 442.553 435.834 441.939 435.834 441.446C436.079 440.953 436.203 440.093 436.203 438.862V437.386V436.648V436.278V435.54C436.203 434.802 436.326 434.188 436.572 433.695C436.572 433.202 436.572 432.711 436.572 432.218C436.817 431.48 436.941 430.866 436.941 430.373C437.186 429.389 437.31 428.404 437.31 427.42C437.31 426.436 437.31 425.451 437.31 424.467C437.555 423.729 437.555 422.991 437.31 422.253C437.31 421.514 437.31 420.653 437.31 419.669V415.609V411.18V407.119C437.31 405.643 437.186 404.536 436.941 403.797V402.321V401.952L437.31 398.63C437.31 397.399 437.31 396.17 437.31 394.939C437.31 393.708 437.433 392.479 437.679 391.248C437.679 389.526 437.555 388.295 437.31 387.557C437.064 385.835 436.941 384.235 436.941 382.759C436.941 381.282 436.941 379.929 436.941 378.699C436.941 378.206 436.941 377.837 436.941 377.591C437.186 377.346 437.31 376.977 437.31 376.484C437.803 374.515 437.679 372.793 436.941 371.316C436.695 371.071 436.572 370.824 436.572 370.578C436.817 370.086 436.941 369.716 436.941 369.471C437.433 368.487 437.679 367.011 437.679 365.042V361.72V359.136L435.465 361.351C434.481 362.582 433.496 363.689 432.512 364.673C431.774 365.411 430.791 366.025 429.56 366.518L429.191 367.625C428.698 368.118 428.329 368.609 428.084 369.102C428.084 369.347 427.838 369.716 427.346 370.209L426.977 370.947C426.484 371.686 425.993 372.424 425.501 373.162C425.008 373.655 424.517 374.269 424.024 375.008C423.041 375.991 422.425 376.853 422.179 377.591C421.441 378.084 420.827 378.699 420.334 379.437C420.089 379.929 419.596 380.544 418.858 381.282C418.613 381.528 418.243 382.144 417.751 383.128C417.258 383.621 416.767 384.111 416.275 384.604C416.029 385.097 415.66 385.588 415.168 386.081C414.675 386.573 414.184 387.064 413.691 387.557C413.446 388.05 413.077 388.541 412.584 389.033C411.108 391.003 410.125 392.355 409.632 393.094C409.139 393.586 408.77 393.955 408.525 394.201C408.525 394.446 408.279 394.815 407.787 395.308C407.787 395.308 407.541 395.801 407.049 396.785C406.311 397.277 405.449 398.261 404.465 399.737C403.973 400.23 403.727 400.845 403.727 401.583C403.235 403.059 402.128 403.797 400.406 403.797H399.668C398.192 403.797 396.716 403.797 395.24 403.797C393.763 403.552 392.287 403.305 390.811 403.059C389.335 402.567 387.735 402.321 386.014 402.321C384.537 402.076 383.061 401.707 381.585 401.214C381.092 400.968 380.602 400.845 380.109 400.845C379.864 400.845 379.495 400.721 379.002 400.476C378.509 400.476 378.018 400.23 377.526 399.737H377.157C377.157 399.492 377.033 399.368 376.788 399.368C376.788 399.123 376.664 398.999 376.419 398.999C373.466 398.261 370.759 396.661 368.3 394.201C367.807 393.955 367.316 393.708 366.824 393.463C366.578 393.217 366.209 392.97 365.717 392.724C364.733 392.232 363.871 391.617 363.133 390.879C361.903 390.386 361.288 389.402 361.288 387.926C361.781 386.695 362.641 385.711 363.871 384.973C364.609 384.728 365.593 383.99 366.824 382.759C367.316 381.775 368.423 380.668 370.145 379.437C370.39 379.191 370.514 378.944 370.514 378.699C370.759 378.453 371.128 378.206 371.621 377.96C372.114 377.715 372.359 377.468 372.359 377.222C372.605 376.977 372.974 376.608 373.466 376.115C374.942 374.638 376.173 373.531 377.157 372.793C377.649 372.3 378.018 371.931 378.264 371.686C378.756 371.193 379.247 370.702 379.74 370.209C380.233 369.716 380.847 369.102 381.585 368.364C382.323 367.625 383.061 367.011 383.799 366.518C384.537 366.273 385.276 365.534 386.014 364.304L387.121 363.196L388.597 362.089C389.335 361.105 390.442 359.874 391.918 358.398C392.164 358.152 392.287 358.029 392.287 358.029C392.287 357.783 392.411 357.536 392.656 357.291L393.763 356.183C394.256 355.691 394.501 355.321 394.501 355.076C394.994 354.583 395.363 354.214 395.609 353.969C396.101 353.476 396.716 353.107 397.454 352.861C397.699 352.861 397.823 352.738 397.823 352.492C398.068 352.247 398.192 352 398.192 351.754C398.437 351.261 398.806 350.77 399.299 350.278C399.792 349.294 400.282 348.432 400.775 347.694C401.513 346.956 402.497 346.341 403.727 345.848C403.727 345.848 403.973 345.603 404.465 345.11V344.741L405.573 343.634C406.065 342.65 406.556 342.034 407.049 341.788C408.28 340.312 409.632 338.712 411.108 336.99C412.83 335.268 414.675 333.544 416.644 331.823C418.365 329.853 420.21 327.886 422.179 325.917C424.394 323.948 426.484 321.98 428.453 320.011C430.174 318.289 431.774 316.566 433.25 314.844C434.972 313.122 436.817 311.153 438.786 308.938C441.246 306.231 442.476 303.402 442.476 300.449C442.476 300.203 442.353 299.956 442.107 299.711C441.862 298.48 441.738 297.741 441.738 297.496C441.984 297.003 442.6 296.512 443.583 296.02C443.583 296.02 443.829 295.896 444.322 295.651C445.552 295.158 446.659 294.789 447.643 294.543C448.626 294.298 449.612 294.05 450.595 293.805C451.579 293.805 453.055 293.56 455.024 293.067C455.516 292.821 456.376 292.698 457.607 292.698H459.083H459.452C460.928 292.452 462.404 292.329 463.881 292.329C465.357 292.083 466.833 291.714 468.309 291.221C469.047 290.976 470.4 290.607 472.368 290.114C473.352 289.621 474.337 289.376 475.321 289.376L484.178 287.161C486.637 286.668 488.237 287.776 488.975 290.483C488.975 290.976 488.975 291.467 488.975 291.959C489.221 292.452 489.344 292.943 489.344 293.436L490.451 296.758C490.697 297.989 490.82 299.096 490.82 300.08C490.82 301.063 490.944 302.171 491.189 303.402V304.878C491.682 307.585 491.927 310.291 491.927 312.998C492.173 315.458 492.542 318.042 493.035 320.749C493.035 321.733 493.035 322.595 493.035 323.333C493.28 324.071 493.404 324.933 493.404 325.917C493.404 327.639 493.649 329.732 494.142 332.192C494.142 333.423 494.142 334.53 494.142 335.514C494.387 336.252 494.634 337.114 494.88 338.097C494.88 338.59 494.88 339.081 494.88 339.574C495.125 340.066 495.249 340.557 495.249 341.05V341.419C495.249 341.912 495.249 342.281 495.249 342.527C495.494 342.772 495.618 343.019 495.618 343.265C495.372 345.479 495.372 347.818 495.618 350.278C496.11 352.738 496.601 355.321 497.094 358.029C497.339 358.522 497.463 359.136 497.463 359.874V360.613V362.089V366.887V369.102V370.578V372.055V377.591V381.651C497.463 382.144 497.463 382.635 497.463 383.128C497.708 383.373 497.832 383.742 497.832 384.235V386.081V387.557V393.463C497.832 395.432 497.832 397.399 497.832 399.368C497.832 401.09 497.956 402.936 498.201 404.905C498.201 406.136 498.201 407.243 498.201 408.227C498.201 409.21 498.077 410.318 497.832 411.549V418.931C498.077 421.145 498.201 423.36 498.201 425.575C498.201 427.789 498.325 430.127 498.57 432.587C498.57 435.295 498.694 437.262 498.939 438.493V444.399C499.185 445.63 499.308 446.737 499.308 447.721C499.308 448.459 499.308 449.321 499.308 450.304C499.308 451.535 499.308 452.764 499.308 453.995C499.308 454.979 499.432 456.086 499.677 457.317C499.677 458.548 499.677 459.656 499.677 460.639C499.677 461.623 499.801 462.608 500.046 463.592C500.292 464.823 500.415 466.052 500.415 467.283C500.415 468.514 500.415 469.743 500.415 470.974C500.661 472.205 500.661 473.312 500.415 474.296C500.415 475.034 500.415 476.018 500.415 477.249V480.94V483.524V486.845C500.415 488.567 500.292 489.798 500.046 490.536V492.382ZM495.987 489.429C496.232 488.446 496.356 487.46 496.356 486.476C496.356 485.493 496.356 484.385 496.356 483.154C496.601 482.171 496.725 480.816 496.725 479.094V476.511C496.725 475.772 496.601 475.158 496.356 474.665C496.356 473.434 496.232 472.451 495.987 471.712V468.759V465.807C495.987 464.823 495.863 463.838 495.618 462.854C495.618 461.87 495.618 460.885 495.618 459.901C495.372 458.67 495.249 457.317 495.249 455.841C495.249 454.364 495.125 452.888 494.88 451.412C494.88 449.69 495.003 448.459 495.249 447.721V444.768C495.249 442.308 495.125 440.584 494.88 439.6V438.862V437.755C494.634 437.262 494.511 436.524 494.511 435.54C495.003 434.802 495.125 434.064 494.88 433.326C494.88 432.587 494.88 431.726 494.88 430.742C494.88 430.249 494.756 430.004 494.511 430.004C494.511 429.758 494.511 429.389 494.511 428.896V421.145V417.454V417.085V416.716L494.142 415.609V412.656V408.965V407.119V406.75V401.952V392.724V385.711V379.437C493.649 378.944 493.649 378.329 494.142 377.591C494.142 376.608 494.018 375.746 493.773 375.008V373.531V371.686V369.471V366.149C493.773 364.427 493.649 362.827 493.404 361.351C493.404 359.629 493.28 358.029 493.035 356.552C492.789 355.569 492.665 354.583 492.665 353.6C492.665 352.616 492.542 351.63 492.296 350.647C492.051 349.909 491.927 348.678 491.927 346.956C491.435 344.496 491.189 342.65 491.189 341.419V340.681V339.574C490.697 337.852 490.328 336.252 490.082 334.775C490.082 333.053 490.082 331.453 490.082 329.977V329.608C490.082 328.87 490.082 328.132 490.082 327.393C490.082 326.41 489.959 325.548 489.713 324.81C489.713 324.317 489.59 323.826 489.344 323.333C489.344 322.84 489.344 322.35 489.344 321.857C489.099 321.364 488.975 320.873 488.975 320.38C488.975 319.642 488.851 319.028 488.606 318.535C488.361 317.304 488.237 316.075 488.237 314.844C488.237 313.613 488.113 312.136 487.868 310.415C487.868 309.922 487.744 309.431 487.499 308.938C487.499 308.445 487.499 307.955 487.499 307.462C487.499 305.493 487.375 304.016 487.13 303.033C486.885 301.802 486.637 300.694 486.392 299.711C486.392 298.48 486.268 297.251 486.023 296.02C486.023 295.527 485.899 295.036 485.654 294.543C485.654 293.805 485.654 293.19 485.654 292.698C485.654 291.96 485.408 291.59 484.916 291.59L484.178 291.959C482.947 291.959 482.087 292.083 481.594 292.329L476.059 293.436C473.845 293.929 471.63 294.42 469.416 294.912C467.202 295.405 464.864 295.896 462.404 296.389C460.436 296.634 458.345 296.881 456.131 297.127C454.162 297.372 452.195 297.741 450.226 298.234L449.119 298.603C447.643 298.603 446.905 299.096 446.905 300.08C446.659 301.311 446.412 302.663 446.167 304.14C446.167 305.616 446.043 306.969 445.798 308.2C445.798 309.431 445.552 311.029 445.06 312.998C445.06 314.72 444.936 316.075 444.691 317.058C444.691 318.289 444.567 319.397 444.322 320.38C444.322 321.364 444.198 322.471 443.953 323.702C443.46 326.162 443.091 328.624 442.845 331.084C442.845 333.544 442.722 336.128 442.476 338.835V341.05C442.476 342.281 442.6 343.265 442.845 344.003V345.848V348.063H443.953H444.322C444.814 348.063 445.06 348.187 445.06 348.432C445.305 348.432 445.429 348.556 445.429 348.801C445.429 349.047 445.305 349.17 445.06 349.17V350.647C444.567 351.385 444.198 351.754 443.953 351.754C442.969 352.247 442.353 353.354 442.107 355.076V361.351V363.934V387.557V394.57V396.046V403.428C442.107 404.659 442.107 405.888 442.107 407.119C442.107 408.35 442.231 409.579 442.476 410.81V419.669V420.407V425.944C442.476 426.682 442.353 427.42 442.107 428.158C442.107 428.896 442.107 429.635 442.107 430.373C441.862 431.604 441.615 432.833 441.369 434.064C441.369 435.048 441.369 436.155 441.369 437.386C441.369 440.339 440.877 443.291 439.893 446.244V446.982V449.566C439.648 450.304 439.524 451.166 439.524 452.15C439.524 452.888 439.4 453.626 439.155 454.364C438.91 456.334 438.662 458.301 438.417 460.27C438.172 461.992 437.803 463.837 437.31 465.807L436.203 471.343C435.957 472.081 435.834 472.82 435.834 473.558C435.834 474.051 435.71 474.665 435.465 475.403C435.219 476.387 434.972 477.249 434.727 477.987C434.727 478.725 434.603 479.587 434.358 480.571C434.358 481.554 434.112 483.031 433.619 485C433.374 486.231 433.127 487.584 432.881 489.06C432.636 490.291 432.389 491.52 432.143 492.751C431.898 494.473 431.774 496.197 431.774 497.919C431.774 499.395 431.651 500.871 431.405 502.348V505.67V509.361C431.405 510.837 431.282 511.821 431.036 512.314V518.219C430.791 519.45 430.667 520.557 430.667 521.541C430.667 522.279 430.667 523.141 430.667 524.125V526.709V529.292C430.667 530.276 430.544 530.892 430.298 531.138V535.198C430.544 536.429 430.667 537.658 430.667 538.889C430.667 539.873 430.791 540.98 431.036 542.211C431.036 543.442 431.036 544.549 431.036 545.533C431.036 546.516 431.16 547.502 431.405 548.486V552.177C431.405 552.915 431.405 553.777 431.405 554.76C431.405 555.499 431.529 556.237 431.774 556.975C431.774 557.22 431.774 557.468 431.774 557.713C432.02 557.713 432.143 557.837 432.143 558.082C432.636 558.575 432.881 559.19 432.881 559.928C432.881 561.404 433.005 562.512 433.25 563.25C433.743 564.726 433.988 566.079 433.988 567.31C433.743 568.293 433.619 569.279 433.619 570.263C433.865 571.001 433.988 571.739 433.988 572.477V575.43C433.496 577.152 433.619 578.507 434.358 579.49V580.598C434.112 581.09 433.988 581.705 433.988 582.443C434.234 582.936 434.358 583.55 434.358 584.289C434.358 584.534 434.358 584.658 434.358 584.658C434.603 584.903 434.727 585.272 434.727 585.765C434.972 586.996 435.096 588.349 435.096 589.825C435.096 591.301 435.096 592.654 435.096 593.885V597.207H480.487V596.838V594.254V592.778V589.456C480.487 588.963 480.487 588.472 480.487 587.98C480.733 587.487 480.856 586.996 480.856 586.503C480.856 586.258 480.856 586.01 480.856 585.765C481.102 585.519 481.225 585.15 481.225 584.658C481.225 584.165 481.225 583.55 481.225 582.812C481.471 582.074 481.594 581.336 481.594 580.598C481.84 579.614 481.963 578.752 481.963 578.014C481.963 577.03 482.087 576.045 482.332 575.061C482.578 574.568 482.701 574.077 482.701 573.585C482.701 572.846 482.825 572.232 483.07 571.739C483.07 571.494 483.07 571.37 483.07 571.37C483.316 571.37 483.44 571.246 483.44 571.001C483.44 570.508 483.44 570.263 483.44 570.263C483.685 570.017 483.809 569.648 483.809 569.155C484.054 568.663 484.178 568.293 484.178 568.048C484.178 567.555 484.301 567.064 484.547 566.572C484.547 566.079 484.547 565.71 484.547 565.464C484.792 564.972 484.916 564.481 484.916 563.988C484.916 563.742 484.916 563.495 484.916 563.25C485.161 563.004 485.285 562.635 485.285 562.142C485.53 561.404 485.654 560.542 485.654 559.559C485.899 558.575 486.146 557.59 486.392 556.606C486.392 556.36 486.392 556.237 486.392 556.237C486.637 555.991 486.761 555.622 486.761 555.129C487.006 554.884 487.13 554.515 487.13 554.022C487.375 553.529 487.499 553.16 487.499 552.915C487.499 552.669 487.623 552.422 487.868 552.177C488.361 550.7 488.73 549.224 488.975 547.747C489.221 546.271 489.468 544.795 489.713 543.318C489.713 542.58 489.959 541.473 490.451 539.996C490.944 538.027 491.066 536.429 490.82 535.198C490.82 534.952 491.066 534.336 491.558 533.352C491.558 533.352 491.682 533.229 491.927 532.983C492.173 532.738 492.296 532.491 492.296 532.245C492.542 531.507 492.665 530.03 492.665 527.816C492.665 525.847 493.035 523.879 493.773 521.91C494.018 520.679 494.142 519.572 494.142 518.588C494.387 517.605 494.511 516.619 494.511 515.635C494.265 514.405 494.142 513.175 494.142 511.944C494.387 510.468 494.634 509.115 494.88 507.884C495.125 507.146 495.249 506.039 495.249 504.562L495.618 502.717C495.618 501.486 495.618 500.502 495.618 499.764C495.863 498.78 495.987 497.673 495.987 496.442V493.12V489.429ZM437.679 342.896C437.433 342.157 437.31 341.174 437.31 339.943C437.555 338.959 437.679 338.097 437.679 337.359C437.679 336.621 437.802 335.759 438.048 334.775C438.048 333.544 438.172 332.684 438.417 332.192C438.417 330.961 438.417 329.853 438.417 328.87C438.662 327.639 438.91 326.41 439.155 325.179L439.524 321.119V320.749C439.769 320.504 439.893 320.011 439.893 319.273L441 314.844C441 313.86 440.877 313.122 440.631 312.629L439.893 313.367C439.155 314.598 438.293 315.706 437.31 316.689C436.572 317.673 435.588 318.78 434.358 320.011C433.865 320.504 433.374 320.873 432.881 321.119C432.143 322.102 430.913 323.457 429.191 325.179C428.453 325.917 427.715 326.655 426.977 327.393C426.239 327.886 425.624 328.501 425.132 329.239C424.394 329.977 423.655 330.715 422.917 331.453C422.179 332.192 421.441 332.806 420.703 333.299C419.472 334.53 418.244 335.759 417.013 336.99C415.782 338.221 414.553 339.45 413.322 340.681C412.092 341.912 410.985 343.141 410.001 344.372C409.018 345.603 407.91 346.832 406.68 348.063C405.942 348.801 405.204 349.663 404.465 350.647C403.727 351.385 402.989 352.247 402.251 353.23C401.759 353.723 401.268 354.214 400.775 354.707C400.282 355.2 399.792 355.691 399.299 356.183L397.085 358.398C396.101 359.382 395.24 360.243 394.501 360.982C393.763 361.72 393.025 362.582 392.287 363.565L387.859 367.995L386.752 369.102C386.259 369.347 385.768 369.716 385.276 370.209L381.954 373.531C381.216 374.515 380.354 375.377 379.371 376.115L377.895 377.591L376.05 379.437C375.557 379.929 375.066 380.42 374.573 380.913C374.328 381.159 373.959 381.528 373.466 382.02L369.038 386.45C368.792 386.942 368.054 387.557 366.824 388.295L366.455 388.664H366.824C367.562 389.157 368.423 389.648 369.407 390.141C370.883 391.124 371.867 391.741 372.359 391.986C373.343 392.724 374.819 393.586 376.788 394.57C381.462 397.523 387.613 399.245 395.24 399.737C396.223 399.737 396.961 399.861 397.454 400.106C398.437 400.352 399.175 399.861 399.668 398.63C400.651 397.154 401.39 396.17 401.882 395.677L402.251 394.939L403.358 393.832C403.358 393.339 403.604 393.094 404.096 393.094C404.589 392.601 404.958 392.11 405.204 391.617C405.449 391.124 405.818 390.633 406.311 390.141C406.803 389.402 407.787 388.05 409.263 386.081L411.477 383.866C411.97 383.373 412.339 382.882 412.584 382.39C412.83 381.897 413.199 381.406 413.691 380.913C414.429 380.175 414.922 379.56 415.168 379.068C415.66 378.575 416.029 378.084 416.275 377.591C416.767 376.853 417.258 376.238 417.751 375.746L418.12 375.377V374.638L418.858 373.9C419.103 372.917 419.596 372.055 420.334 371.316C420.58 370.824 420.827 370.578 421.072 370.578C421.318 370.333 421.565 369.964 421.81 369.471C423.286 368.487 424.394 367.133 425.132 365.411C426.362 363.934 427.591 362.582 428.822 361.351C430.298 360.12 431.774 358.891 433.25 357.66C434.234 356.676 434.85 355.938 435.096 355.445C435.341 355.2 435.465 355.076 435.465 355.076C435.465 354.831 435.588 354.583 435.834 354.338V353.969C435.834 353.969 436.079 353.723 436.572 353.23C437.803 351.509 438.172 350.154 437.679 349.17V348.432V347.325V344.372V342.896Z" fill="white"/>
</g>
</g>
<defs>
<clipPath id="clip0_140_164">
<rect width="882" height="884" fill="white"/>
</clipPath>
</defs>
</svg>
