<svg width="886" height="886" viewBox="0 0 886 886" fill="none" xmlns="http://www.w3.org/2000/svg">
<g clip-path="url(#clip0_173_419)">
<rect width="886" height="886" fill="white"/>
<rect width="886" height="886" fill="#7036CC"/>
<path d="M511.601 491.335V492.442V493.918C511.601 494.411 511.601 494.902 511.601 495.395C511.846 495.888 511.846 496.378 511.601 496.871V500.931C511.356 501.67 511.232 502.777 511.232 504.253V506.837V510.159C510.74 512.128 510.372 514.343 510.126 516.803C510.126 519.017 509.881 521.356 509.389 523.816C508.652 527.261 507.915 530.46 507.177 533.412C506.685 536.12 506.195 538.825 505.703 541.533C505.458 542.764 505.211 543.871 504.966 544.854C504.721 545.838 504.474 546.945 504.228 548.176C503.736 548.915 503.368 549.776 503.123 550.76C503.123 551.744 502.999 552.729 502.754 553.713C502.017 556.42 501.279 559.25 500.542 562.202C500.05 564.91 499.56 567.739 499.068 570.692C498.576 572.661 498.207 574.628 497.962 576.597C497.962 578.566 497.717 580.534 497.225 582.503C497.225 583.979 497.101 585.21 496.856 586.194C496.611 587.425 496.487 588.654 496.487 589.885C496.487 591.116 496.364 592.469 496.119 593.945C496.119 594.191 496.119 594.438 496.119 594.683C496.364 594.929 496.487 595.176 496.487 595.422C496.733 597.143 496.487 598.374 495.75 599.113C495.505 599.605 494.644 599.851 493.17 599.851H492.801H489.484H487.272H484.692C484.2 599.851 483.709 599.727 483.217 599.482C482.972 599.482 482.603 599.482 482.111 599.482H474.37H471.421H469.21H463.68C462.943 599.482 462.206 599.482 461.469 599.482C460.731 599.727 459.994 599.851 459.257 599.851H452.99C450.287 599.851 448.322 599.727 447.092 599.482H445.249C444.512 599.236 443.775 599.113 443.038 599.113C442.3 599.113 441.687 598.989 441.195 598.743C440.702 598.743 440.212 598.498 439.72 598.005C439.72 598.005 439.597 597.882 439.351 597.636C439.106 597.636 438.983 597.391 438.983 596.898V596.529C439.475 596.036 439.72 595.791 439.72 595.791H443.406C442.424 594.56 442.177 592.961 442.669 590.992C442.669 590.5 442.546 590.13 442.3 589.885C442.055 589.64 441.932 589.147 441.932 588.409C441.687 587.67 441.563 586.563 441.563 585.087V582.503C441.563 582.01 441.44 581.765 441.195 581.765C441.195 581.519 441.195 581.15 441.195 580.657C440.949 580.165 440.826 579.55 440.826 578.812V572.906C440.826 572.414 440.949 572.168 441.195 572.168C440.702 571.184 440.581 570.568 440.826 570.323C441.071 569.83 441.071 569.461 440.826 569.215C440.089 568.97 439.72 568.232 439.72 567.001C439.72 566.508 439.844 566.139 440.089 565.893V565.155C440.089 564.662 439.965 564.171 439.72 563.679C439.72 562.941 439.72 562.326 439.72 561.833C439.475 561.34 439.351 560.971 439.351 560.726C439.351 560.233 439.228 559.742 438.983 559.25C438.738 558.511 438.491 557.773 438.246 557.035C438.246 556.051 438.122 555.189 437.877 554.451C437.632 552.975 437.508 551.498 437.508 550.022C437.508 548.546 437.508 547.069 437.508 545.593C437.263 544.855 437.14 543.502 437.14 541.533V538.211V536.734C437.14 536.242 437.016 535.996 436.771 535.996C436.771 535.751 436.771 535.381 436.771 534.889C436.771 534.396 436.771 534.027 436.771 533.781C437.016 533.289 437.14 532.798 437.14 532.305V529.721V527.138V523.816V520.863C437.385 519.879 437.508 518.403 437.508 516.434V513.481C437.754 512.497 437.754 511.39 437.508 510.159C437.016 508.19 437.016 506.222 437.508 504.253C437.508 503.76 437.508 503.391 437.508 503.146C437.754 502.901 437.877 502.531 437.877 502.039V500.193C438.122 498.717 438.246 497.24 438.246 495.764C438.246 494.288 438.491 492.811 438.983 491.335C438.983 489.365 439.228 487.151 439.72 484.691C440.212 482.722 440.457 481.245 440.457 480.262C440.702 479.769 440.826 479.031 440.826 478.047C440.826 476.816 440.949 475.832 441.195 475.094C441.687 473.618 441.932 472.141 441.932 470.665C442.177 469.189 442.546 467.712 443.038 466.236L444.143 461.806C444.143 461.561 444.143 461.437 444.143 461.437C444.389 461.192 444.512 460.823 444.512 460.33C445.004 458.854 445.249 457.746 445.249 457.008C445.249 455.777 445.249 454.548 445.249 453.317C445.494 451.841 445.741 450.488 445.987 449.257L447.092 443.72C447.092 443.228 447.092 442.737 447.092 442.244C447.338 441.506 447.461 440.891 447.461 440.399C447.706 439.906 447.83 439.046 447.83 437.815V436.338V435.6V435.231V434.493C447.83 433.755 447.953 433.14 448.198 432.647C448.198 432.155 448.198 431.664 448.198 431.171C448.443 430.433 448.567 429.818 448.567 429.325C448.812 428.342 448.936 427.356 448.936 426.373C448.936 425.389 448.936 424.404 448.936 423.42C449.181 422.682 449.181 421.943 448.936 421.205C448.936 420.467 448.936 419.605 448.936 418.622V414.561V410.132V406.072C448.936 404.596 448.812 403.488 448.567 402.75V401.274V400.905L448.936 397.583C448.936 396.352 448.936 395.123 448.936 393.892C448.936 392.661 449.059 391.432 449.304 390.201C449.304 388.479 449.181 387.248 448.936 386.51C448.69 384.788 448.567 383.188 448.567 381.711C448.567 380.235 448.567 378.882 448.567 377.651C448.567 377.158 448.567 376.789 448.567 376.544C448.812 376.298 448.936 375.929 448.936 375.437C449.428 373.467 449.304 371.746 448.567 370.269C448.322 370.024 448.198 369.776 448.198 369.531C448.443 369.038 448.567 368.669 448.567 368.424C449.059 367.44 449.304 365.964 449.304 363.994V360.672V358.089L447.092 360.303C446.11 361.534 445.126 362.642 444.143 363.625C443.406 364.363 442.424 364.978 441.195 365.471L440.826 366.578C440.334 367.071 439.965 367.562 439.72 368.055C439.72 368.3 439.475 368.669 438.983 369.162L438.614 369.9C438.122 370.638 437.632 371.376 437.14 372.115C436.648 372.607 436.157 373.222 435.665 373.96C434.683 374.944 434.067 375.806 433.822 376.544C433.085 377.037 432.471 377.651 431.979 378.389C431.734 378.882 431.242 379.497 430.505 380.235C430.259 380.48 429.891 381.097 429.399 382.08C428.907 382.573 428.416 383.064 427.924 383.557C427.679 384.05 427.311 384.54 426.818 385.033C426.326 385.526 425.836 386.017 425.344 386.51C425.099 387.002 424.73 387.493 424.238 387.986C422.764 389.955 421.781 391.308 421.289 392.046C420.797 392.539 420.428 392.908 420.183 393.153C420.183 393.399 419.938 393.768 419.446 394.261C419.446 394.261 419.201 394.754 418.709 395.737C417.972 396.23 417.111 397.214 416.128 398.69C415.636 399.183 415.391 399.797 415.391 400.536C414.899 402.012 413.793 402.75 412.074 402.75H411.336C409.862 402.75 408.387 402.75 406.913 402.75C405.438 402.505 403.964 402.257 402.49 402.012C401.015 401.519 399.417 401.274 397.697 401.274C396.223 401.028 394.749 400.659 393.274 400.166C392.782 399.921 392.292 399.797 391.8 399.797C391.554 399.797 391.186 399.674 390.694 399.428C390.202 399.428 389.711 399.183 389.219 398.69H388.851C388.851 398.445 388.727 398.321 388.482 398.321C388.482 398.075 388.359 397.952 388.113 397.952C385.164 397.214 382.461 395.614 380.004 393.153C379.512 392.908 379.021 392.661 378.529 392.415C378.284 392.17 377.916 391.923 377.423 391.677C376.441 391.184 375.58 390.57 374.843 389.832C373.614 389.339 373 388.355 373 386.879C373.492 385.648 374.351 384.664 375.58 383.926C376.318 383.68 377.3 382.942 378.529 381.711C379.021 380.728 380.127 379.62 381.847 378.389C382.092 378.144 382.215 377.897 382.215 377.651C382.461 377.406 382.829 377.158 383.321 376.913C383.813 376.668 384.059 376.42 384.059 376.175C384.304 375.929 384.672 375.56 385.164 375.067C386.639 373.591 387.868 372.484 388.851 371.746C389.343 371.253 389.711 370.884 389.956 370.638C390.449 370.145 390.939 369.655 391.431 369.162C391.923 368.669 392.537 368.055 393.274 367.316C394.011 366.578 394.749 365.964 395.486 365.471C396.223 365.225 396.96 364.487 397.697 363.256L398.803 362.149L400.278 361.042C401.015 360.058 402.121 358.827 403.595 357.351C403.841 357.105 403.964 356.981 403.964 356.981C403.964 356.736 404.088 356.489 404.333 356.243L405.438 355.136C405.931 354.643 406.176 354.274 406.176 354.029C406.668 353.536 407.036 353.167 407.282 352.921C407.774 352.429 408.387 352.059 409.125 351.814C409.37 351.814 409.493 351.69 409.493 351.445C409.738 351.199 409.862 350.952 409.862 350.707C410.107 350.214 410.476 349.723 410.968 349.23C411.46 348.247 411.95 347.385 412.442 346.647C413.179 345.908 414.162 345.294 415.391 344.801C415.391 344.801 415.636 344.556 416.128 344.063V343.694L417.234 342.586C417.726 341.603 418.217 340.986 418.709 340.741C419.938 339.265 421.289 337.664 422.764 335.943C424.483 334.221 426.326 332.497 428.293 330.775C430.012 328.806 431.856 326.839 433.822 324.87C436.034 322.9 438.122 320.933 440.089 318.964C441.808 317.242 443.406 315.518 444.881 313.796C446.6 312.075 448.443 310.105 450.41 307.891C452.867 305.183 454.096 302.354 454.096 299.401C454.096 299.156 453.973 298.909 453.728 298.663C453.482 297.432 453.359 296.694 453.359 296.449C453.604 295.956 454.22 295.465 455.202 294.972C455.202 294.972 455.447 294.849 455.939 294.603C457.169 294.11 458.275 293.741 459.257 293.496C460.239 293.25 461.223 293.003 462.206 292.758C463.188 292.758 464.663 292.512 466.629 292.019C467.121 291.774 467.98 291.65 469.21 291.65H470.684H471.053C472.527 291.405 474.002 291.281 475.476 291.281C476.951 291.036 478.425 290.667 479.9 290.174C480.637 289.928 481.988 289.559 483.954 289.067C484.937 288.574 485.921 288.328 486.903 288.328L495.75 286.114C498.207 285.621 499.805 286.728 500.542 289.436C500.542 289.928 500.542 290.419 500.542 290.912C500.787 291.405 500.911 291.896 500.911 292.389L502.017 295.71C502.262 296.941 502.385 298.049 502.385 299.032C502.385 300.016 502.509 301.123 502.754 302.354V303.831C503.246 306.538 503.491 309.244 503.491 311.951C503.736 314.411 504.105 316.995 504.597 319.702C504.597 320.686 504.597 321.548 504.597 322.286C504.842 323.024 504.966 323.886 504.966 324.87C504.966 326.591 505.211 328.684 505.703 331.144C505.703 332.375 505.703 333.483 505.703 334.466C505.948 335.204 506.195 336.066 506.44 337.05C506.44 337.543 506.44 338.034 506.44 338.526C506.685 339.019 506.809 339.51 506.809 340.003V340.372C506.809 340.865 506.809 341.234 506.809 341.479C507.054 341.725 507.177 341.972 507.177 342.217C506.932 344.432 506.932 346.77 507.177 349.23C507.67 351.69 508.16 354.274 508.652 356.981C508.897 357.474 509.021 358.089 509.021 358.827V359.565V361.042V365.84V368.055V369.531V371.007V376.544V380.604C509.021 381.097 509.021 381.588 509.021 382.08C509.266 382.326 509.389 382.695 509.389 383.188V385.033V386.51V392.415C509.389 394.384 509.389 396.352 509.389 398.321C509.389 400.043 509.513 401.888 509.758 403.857C509.758 405.088 509.758 406.196 509.758 407.179C509.758 408.163 509.634 409.27 509.389 410.501V417.883C509.634 420.098 509.758 422.313 509.758 424.527C509.758 426.742 509.881 429.08 510.126 431.54C510.126 434.247 510.25 436.215 510.495 437.446V443.351C510.74 444.582 510.864 445.69 510.864 446.673C510.864 447.412 510.864 448.273 510.864 449.257C510.864 450.488 510.864 451.717 510.864 452.948C510.864 453.932 510.987 455.039 511.232 456.27C511.232 457.501 511.232 458.608 511.232 459.592C511.232 460.576 511.356 461.561 511.601 462.545C511.846 463.776 511.969 465.005 511.969 466.236C511.969 467.467 511.969 468.696 511.969 469.927C512.215 471.158 512.215 472.265 511.969 473.249C511.969 473.987 511.969 474.971 511.969 476.201V479.893V482.476V485.798C511.969 487.52 511.846 488.751 511.601 489.489V491.335ZM507.546 488.382C507.791 487.398 507.915 486.413 507.915 485.429C507.915 484.445 507.915 483.338 507.915 482.107C508.16 481.123 508.283 479.769 508.283 478.047V475.463C508.283 474.725 508.16 474.111 507.915 473.618C507.915 472.387 507.791 471.403 507.546 470.665V467.712V464.759C507.546 463.776 507.423 462.79 507.177 461.806C507.177 460.823 507.177 459.837 507.177 458.854C506.932 457.623 506.809 456.27 506.809 454.794C506.809 453.317 506.685 451.841 506.44 450.364C506.44 448.642 506.564 447.412 506.809 446.673V443.72C506.809 441.26 506.685 439.537 506.44 438.553V437.815V436.708C506.195 436.215 506.072 435.477 506.072 434.493C506.564 433.755 506.685 433.017 506.44 432.278C506.44 431.54 506.44 430.678 506.44 429.695C506.44 429.202 506.317 428.956 506.072 428.956C506.072 428.711 506.072 428.342 506.072 427.849V420.098V416.407V416.038V415.669L505.703 414.561V411.609V407.918V406.072V405.703V400.905V391.677V384.664V378.389C505.211 377.897 505.211 377.282 505.703 376.544C505.703 375.56 505.579 374.698 505.334 373.96V372.484V370.638V368.424V365.102C505.334 363.38 505.211 361.78 504.966 360.303C504.966 358.582 504.842 356.981 504.597 355.505C504.352 354.521 504.228 353.536 504.228 352.552C504.228 351.569 504.105 350.583 503.86 349.599C503.615 348.861 503.491 347.63 503.491 345.908C502.999 343.448 502.754 341.603 502.754 340.372V339.634V338.526C502.262 336.804 501.893 335.204 501.648 333.728C501.648 332.006 501.648 330.406 501.648 328.93V328.561C501.648 327.822 501.648 327.084 501.648 326.346C501.648 325.362 501.525 324.5 501.279 323.762C501.279 323.269 501.156 322.779 500.911 322.286C500.911 321.793 500.911 321.302 500.911 320.809C500.666 320.317 500.542 319.826 500.542 319.333C500.542 318.595 500.419 317.98 500.174 317.488C499.928 316.257 499.805 315.027 499.805 313.796C499.805 312.566 499.682 311.089 499.436 309.367C499.436 308.874 499.313 308.384 499.068 307.891C499.068 307.398 499.068 306.907 499.068 306.414C499.068 304.445 498.944 302.969 498.699 301.985C498.454 300.754 498.207 299.647 497.962 298.663C497.962 297.432 497.838 296.203 497.593 294.972C497.593 294.479 497.47 293.989 497.225 293.496C497.225 292.758 497.225 292.143 497.225 291.65C497.225 290.912 496.98 290.543 496.487 290.543L495.75 290.912C494.521 290.912 493.662 291.036 493.17 291.281L487.641 292.389C485.429 292.881 483.217 293.372 481.005 293.865C478.794 294.358 476.459 294.849 474.002 295.341C472.035 295.587 469.947 295.834 467.735 296.08C465.769 296.325 463.804 296.694 461.837 297.187L460.731 297.556C459.257 297.556 458.52 298.049 458.52 299.032C458.275 300.263 458.028 301.616 457.782 303.093C457.782 304.569 457.659 305.922 457.414 307.153C457.414 308.384 457.169 309.982 456.677 311.951C456.677 313.673 456.553 315.027 456.308 316.011C456.308 317.242 456.184 318.349 455.939 319.333C455.939 320.317 455.816 321.424 455.571 322.655C455.079 325.115 454.71 327.577 454.465 330.037C454.465 332.497 454.341 335.081 454.096 337.788V340.003C454.096 341.234 454.22 342.217 454.465 342.956V344.801V347.016H455.571H455.939C456.431 347.016 456.677 347.139 456.677 347.385C456.922 347.385 457.045 347.508 457.045 347.754C457.045 347.999 456.922 348.123 456.677 348.123V349.599C456.184 350.338 455.816 350.707 455.571 350.707C454.588 351.199 453.973 352.307 453.728 354.029V360.303V362.887V386.51V393.523V394.999V402.381C453.728 403.612 453.728 404.841 453.728 406.072C453.728 407.303 453.851 408.532 454.096 409.763V418.622V419.36V424.896C454.096 425.634 453.973 426.373 453.728 427.111C453.728 427.849 453.728 428.587 453.728 429.325C453.482 430.556 453.235 431.786 452.99 433.017C452.99 434 452.99 435.107 452.99 436.338C452.99 439.291 452.498 442.244 451.516 445.197V445.935V448.519C451.271 449.257 451.147 450.119 451.147 451.103C451.147 451.841 451.024 452.579 450.779 453.317C450.534 455.286 450.287 457.254 450.041 459.223C449.796 460.945 449.428 462.79 448.936 464.759L447.83 470.296C447.585 471.034 447.461 471.772 447.461 472.51C447.461 473.003 447.338 473.618 447.092 474.356C446.847 475.34 446.6 476.201 446.355 476.94C446.355 477.678 446.232 478.54 445.987 479.523C445.987 480.507 445.741 481.983 445.249 483.953C445.004 485.184 444.757 486.536 444.512 488.013C444.267 489.244 444.02 490.473 443.775 491.704C443.53 493.426 443.406 495.149 443.406 496.871C443.406 498.348 443.283 499.824 443.038 501.3V504.622V508.313C443.038 509.79 442.914 510.773 442.669 511.266V517.172C442.424 518.403 442.3 519.51 442.3 520.494C442.3 521.232 442.3 522.094 442.3 523.077V525.661V528.245C442.3 529.229 442.177 529.845 441.932 530.09V534.151C442.177 535.382 442.3 536.611 442.3 537.842C442.3 538.825 442.424 539.933 442.669 541.163C442.669 542.394 442.669 543.502 442.669 544.485C442.669 545.469 442.793 546.455 443.038 547.438V551.129C443.038 551.867 443.038 552.729 443.038 553.713C443.038 554.451 443.161 555.189 443.406 555.928C443.406 556.173 443.406 556.42 443.406 556.666C443.651 556.666 443.775 556.789 443.775 557.035C444.267 557.528 444.512 558.142 444.512 558.88C444.512 560.357 444.636 561.464 444.881 562.202C445.373 563.679 445.618 565.031 445.618 566.262C445.373 567.246 445.249 568.232 445.249 569.215C445.494 569.953 445.618 570.692 445.618 571.43V574.383C445.126 576.105 445.249 577.459 445.987 578.443V579.55C445.741 580.043 445.618 580.657 445.618 581.396C445.863 581.888 445.987 582.503 445.987 583.241C445.987 583.487 445.987 583.61 445.987 583.61C446.232 583.856 446.355 584.225 446.355 584.718C446.6 585.949 446.724 587.301 446.724 588.778C446.724 590.254 446.724 591.607 446.724 592.838V596.16H492.064V595.791V593.207V591.731V588.409C492.064 587.916 492.064 587.425 492.064 586.932C492.309 586.439 492.433 585.948 492.433 585.456C492.433 585.21 492.433 584.963 492.433 584.718C492.678 584.472 492.801 584.103 492.801 583.61C492.801 583.117 492.801 582.503 492.801 581.765C493.046 581.027 493.17 580.288 493.17 579.55C493.415 578.566 493.539 577.705 493.539 576.966C493.539 575.983 493.662 574.997 493.907 574.014C494.152 573.521 494.276 573.03 494.276 572.537C494.276 571.799 494.399 571.184 494.644 570.692C494.644 570.446 494.644 570.323 494.644 570.323C494.889 570.323 495.013 570.199 495.013 569.953C495.013 569.461 495.013 569.215 495.013 569.215C495.258 568.97 495.382 568.601 495.382 568.108C495.627 567.615 495.75 567.246 495.75 567.001C495.75 566.508 495.874 566.017 496.119 565.524C496.119 565.031 496.119 564.662 496.119 564.417C496.364 563.924 496.487 563.433 496.487 562.941C496.487 562.695 496.487 562.448 496.487 562.202C496.733 561.957 496.856 561.588 496.856 561.095C497.101 560.357 497.225 559.495 497.225 558.511C497.47 557.528 497.717 556.542 497.962 555.558C497.962 555.313 497.962 555.189 497.962 555.189C498.207 554.944 498.331 554.575 498.331 554.082C498.576 553.837 498.699 553.468 498.699 552.975C498.944 552.482 499.068 552.113 499.068 551.867C499.068 551.622 499.191 551.375 499.436 551.129C499.928 549.653 500.297 548.176 500.542 546.7C500.787 545.224 501.034 543.747 501.279 542.271C501.279 541.533 501.525 540.425 502.017 538.949C502.509 536.98 502.63 535.382 502.385 534.151C502.385 533.905 502.63 533.289 503.123 532.305C503.123 532.305 503.246 532.181 503.491 531.936C503.736 531.69 503.86 531.443 503.86 531.198C504.105 530.46 504.228 528.983 504.228 526.769C504.228 524.799 504.597 522.832 505.334 520.863C505.579 519.632 505.703 518.525 505.703 517.541C505.948 516.557 506.072 515.572 506.072 514.588C505.826 513.357 505.703 512.128 505.703 510.897C505.948 509.421 506.195 508.068 506.44 506.837C506.685 506.099 506.809 504.991 506.809 503.515L507.177 501.67C507.177 500.439 507.177 499.455 507.177 498.717C507.423 497.733 507.546 496.626 507.546 495.395V492.073V488.382ZM449.304 341.848C449.059 341.11 448.936 340.126 448.936 338.895C449.181 337.912 449.304 337.05 449.304 336.312C449.304 335.574 449.428 334.712 449.673 333.728C449.673 332.497 449.796 331.637 450.041 331.144C450.041 329.913 450.041 328.806 450.041 327.822C450.287 326.591 450.534 325.362 450.779 324.131L451.147 320.071V319.702C451.392 319.457 451.516 318.964 451.516 318.226L452.622 313.796C452.622 312.813 452.498 312.075 452.253 311.582L451.516 312.32C450.779 313.551 449.918 314.658 448.936 315.642C448.198 316.626 447.216 317.733 445.987 318.964C445.494 319.457 445.004 319.826 444.512 320.071C443.775 321.055 442.546 322.409 440.826 324.131C440.089 324.87 439.351 325.608 438.614 326.346C437.877 326.839 437.263 327.453 436.771 328.191C436.034 328.93 435.297 329.668 434.559 330.406C433.822 331.144 433.085 331.759 432.348 332.252C431.118 333.483 429.891 334.712 428.662 335.943C427.432 337.174 426.205 338.403 424.975 339.634C423.746 340.865 422.64 342.094 421.658 343.325C420.675 344.556 419.569 345.785 418.34 347.016C417.603 347.754 416.866 348.616 416.128 349.599C415.391 350.338 414.654 351.199 413.917 352.183C413.425 352.676 412.934 353.167 412.442 353.66C411.95 354.152 411.46 354.643 410.968 355.136L408.756 357.351C407.774 358.334 406.913 359.196 406.176 359.934C405.438 360.672 404.701 361.534 403.964 362.518L399.541 366.947L398.435 368.055C397.943 368.3 397.452 368.669 396.96 369.162L393.643 372.484C392.905 373.467 392.045 374.329 391.062 375.067L389.588 376.544L387.745 378.389C387.253 378.882 386.762 379.373 386.27 379.866C386.025 380.111 385.657 380.48 385.164 380.973L380.741 385.402C380.496 385.895 379.759 386.51 378.529 387.248L378.161 387.617H378.529C379.267 388.11 380.127 388.601 381.11 389.093C382.584 390.077 383.566 390.693 384.059 390.939C385.041 391.677 386.515 392.539 388.482 393.523C393.151 396.475 399.295 398.197 406.913 398.69C407.895 398.69 408.633 398.814 409.125 399.059C410.107 399.305 410.844 398.814 411.336 397.583C412.319 396.106 413.056 395.123 413.548 394.63L413.917 393.892L415.023 392.784C415.023 392.292 415.268 392.046 415.76 392.046C416.252 391.553 416.621 391.062 416.866 390.57C417.111 390.077 417.479 389.586 417.972 389.093C418.464 388.355 419.446 387.002 420.921 385.033L423.132 382.819C423.624 382.326 423.993 381.835 424.238 381.342C424.483 380.849 424.852 380.359 425.344 379.866C426.081 379.128 426.573 378.513 426.818 378.02C427.311 377.528 427.679 377.037 427.924 376.544C428.416 375.806 428.907 375.191 429.399 374.698L429.767 374.329V373.591L430.505 372.853C430.75 371.869 431.242 371.007 431.979 370.269C432.224 369.776 432.471 369.531 432.716 369.531C432.961 369.285 433.208 368.916 433.454 368.424C434.928 367.44 436.034 366.085 436.771 364.363C438 362.887 439.228 361.534 440.457 360.303C441.932 359.072 443.406 357.843 444.881 356.612C445.863 355.629 446.479 354.89 446.724 354.398C446.969 354.152 447.092 354.029 447.092 354.029C447.092 353.783 447.216 353.536 447.461 353.29V352.921C447.461 352.921 447.706 352.676 448.198 352.183C449.428 350.461 449.796 349.107 449.304 348.123V347.385V346.277V343.325V341.848Z" fill="white"/>
</g>
<defs>
<clipPath id="clip0_173_419">
<rect width="886" height="886" fill="white"/>
</clipPath>
</defs>
</svg>
