<svg width="884" height="877" viewBox="0 0 884 877" fill="none" xmlns="http://www.w3.org/2000/svg">
<g clip-path="url(#clip0_140_231)">
<mask id="mask0_140_231" style="mask-type:luminance" maskUnits="userSpaceOnUse" x="0" y="0" width="884" height="877">
<path d="M884 0H0V877H884V0Z" fill="white"/>
</mask>
<g mask="url(#mask0_140_231)">
<path d="M884 -7.38574H1.8457V878.846H884V-7.38574Z" fill="#7036CC"/>
<path d="M430.374 456.778C430.374 455.301 430.128 453.578 429.636 451.608C429.39 448.161 429.143 444.716 428.898 441.269C428.652 437.822 428.405 434.377 428.159 430.929C427.667 426.744 427.297 422.806 427.052 419.113C427.052 415.175 426.928 411.235 426.683 407.297C426.437 405.327 426.19 403.235 425.945 401.019C425.945 398.804 425.699 396.712 425.206 394.742C424.961 392.772 424.714 390.804 424.468 388.834C424.223 386.863 423.854 384.895 423.361 382.925C423.116 381.694 422.868 380.34 422.623 378.863C422.623 377.386 422.377 376.033 421.885 374.801C421.392 372.093 420.901 369.508 420.408 367.047C420.163 364.338 419.794 361.632 419.301 358.923C419.055 358.43 418.932 358.061 418.932 357.815C419.177 357.57 419.301 357.201 419.301 356.708C419.301 355.969 419.177 355.231 418.932 354.492C418.932 353.753 418.932 352.891 418.932 351.907C418.932 351.662 418.808 351.538 418.563 351.538C418.563 351.292 418.563 351.045 418.563 350.799C418.563 348.829 418.439 347.107 418.194 345.63C418.194 343.907 418.194 342.061 418.194 340.091V323.843V318.674C418.194 316.703 418.07 314.857 417.824 313.135C417.824 311.165 417.701 309.196 417.455 307.226C417.455 304.518 416.594 301.564 414.872 298.364C414.379 300.825 413.888 303.164 413.395 305.38C412.902 307.35 412.781 309.442 413.026 311.657V312.396C412.533 313.873 412.042 315.35 411.55 316.827C411.304 318.304 410.935 319.905 410.442 321.628C410.197 322.859 409.95 323.967 409.704 324.951C409.459 325.935 409.211 327.043 408.966 328.274C408.721 329.997 408.473 331.721 408.228 333.444C407.982 335.167 407.613 336.891 407.121 338.614C407.121 339.845 407.121 341.075 407.121 342.306C407.121 343.538 406.997 344.767 406.751 345.999C406.259 347.722 405.89 349.446 405.644 351.169C405.644 352.646 405.399 354.246 404.906 355.969C404.413 357.939 404.044 360.031 403.799 362.247C403.799 364.462 403.553 366.554 403.06 368.524L401.953 372.955C401.46 375.664 400.846 378.249 400.108 380.71C399.615 383.171 399.124 385.634 398.631 388.095C398.386 390.065 398.138 391.911 397.893 393.634C397.893 395.111 397.769 396.834 397.524 398.804L396.417 405.45C395.924 407.42 395.678 409.267 395.678 410.989C395.678 412.712 395.433 414.436 394.94 416.159C394.695 417.39 394.326 418.498 393.833 419.482C393.587 420.466 393.34 421.574 393.095 422.806C392.356 425.267 391.618 427.606 390.88 429.822C390.387 432.037 389.896 434.253 389.404 436.468C388.665 439.177 387.313 442.253 385.343 445.7C384.605 446.932 384.236 447.792 384.236 448.285C384.236 448.53 384.605 449.269 385.343 450.5C384.605 450.993 383.374 451.115 381.652 450.87C380.176 450.377 379.438 449.762 379.438 449.023C379.192 448.53 379.314 447.67 379.807 446.439C380.3 445.454 380.545 444.716 380.545 444.223C381.283 442.5 381.898 440.9 382.391 439.423C383.129 437.7 383.743 435.975 384.236 434.253C384.729 432.776 385.22 431.299 385.713 429.822C386.451 428.099 387.065 426.375 387.558 424.652C388.051 422.929 388.42 421.205 388.665 419.482C388.911 417.76 389.28 415.913 389.773 413.943C390.018 413.205 390.142 412.466 390.142 411.728C390.142 410.744 390.265 409.882 390.511 409.143V408.035C391.004 406.804 391.373 405.696 391.618 404.712C391.864 403.48 392.233 402.251 392.726 401.019C392.726 400.035 392.971 398.804 393.464 397.327C393.464 396.588 393.34 395.849 393.095 395.111C393.095 394.372 393.218 393.758 393.464 393.265C393.956 391.049 394.202 388.833 394.202 386.618C394.202 384.402 394.326 382.187 394.571 379.971C394.571 378.987 394.816 378.001 395.309 377.017C395.802 376.033 396.171 375.047 396.417 374.063C396.909 372.586 397.155 371.478 397.155 370.74C397.4 369.508 397.647 368.4 397.893 367.416C398.138 366.432 398.386 365.324 398.631 364.093C398.877 362.861 399 361.632 399 360.4C399 359.169 399.124 357.939 399.369 356.708L400.477 351.169C400.722 350.676 400.846 349.692 400.846 348.215C401.091 347.476 401.091 346.737 400.846 345.999C400.6 345.015 400.969 344.276 401.953 343.783C401.953 343.783 401.953 343.29 401.953 342.306C401.46 340.336 401.339 338.49 401.584 336.767C402.077 335.045 402.691 333.32 403.429 331.598C403.675 330.859 403.799 330.244 403.799 329.751C404.044 329.013 404.291 328.274 404.537 327.536C404.782 325.566 405.03 323.598 405.275 321.628C405.52 319.658 405.768 317.689 406.013 315.719L407.121 310.18C407.613 308.458 407.982 306.857 408.228 305.38C408.721 303.657 409.211 302.057 409.704 300.58L410.812 296.148L411.919 289.502C412.164 288.025 413.15 287.286 414.872 287.286C417.579 287.779 419.301 289.256 420.039 291.717C420.532 294.178 421.023 296.518 421.515 298.733C422.254 300.949 422.746 303.288 422.992 305.749C423.485 309.196 423.976 312.765 424.468 316.458C424.961 319.905 424.961 323.474 424.468 327.167C424.223 328.644 424.223 330.121 424.468 331.598C424.714 333.075 424.837 334.552 424.837 336.029V344.891C425.083 347.6 425.206 350.185 425.206 352.646C425.452 354.861 425.699 357.322 425.945 360.031C426.19 362.247 426.437 364.462 426.683 366.678C426.928 368.893 427.297 371.109 427.79 373.324C428.036 375.294 428.283 377.141 428.528 378.863C429.021 380.34 429.512 382.063 430.005 384.033C430.498 387.233 430.867 390.311 431.112 393.265C431.358 396.219 431.727 399.297 432.219 402.496C432.465 403.973 432.589 405.45 432.589 406.927C432.834 408.404 433.203 409.758 433.696 410.989V413.205V423.544C433.696 424.776 433.696 426.129 433.696 427.606C433.941 429.083 434.065 430.437 434.065 431.668C434.065 433.638 434.31 435.606 434.803 437.576C435.296 439.546 435.296 441.514 434.803 443.484C434.558 444.716 434.558 446.069 434.803 447.546C435.296 449.023 435.665 450.377 435.91 451.608C436.156 452.347 436.28 453.331 436.28 454.562C436.28 457.271 437.632 458.624 440.34 458.624C441.323 458.379 442.8 458.255 444.769 458.255C446.738 458.501 448.829 458.624 451.044 458.624C453.258 458.624 455.349 458.748 457.318 458.994C458.302 458.994 459.164 459.117 459.902 459.363C460.886 459.363 461.871 459.363 462.855 459.363H465.439C465.439 457.886 465.439 456.532 465.439 455.301C465.684 453.824 465.808 452.47 465.808 451.239C466.3 449.269 466.546 447.423 466.546 445.7C466.791 443.977 467.039 442.131 467.284 440.161V438.315C467.53 437.576 467.653 436.961 467.653 436.468C467.653 435.73 467.777 434.991 468.022 434.253C468.268 433.76 468.391 433.514 468.391 433.514C468.146 431.299 468.268 429.083 468.761 426.868C469.499 424.652 469.992 422.56 470.237 420.59C470.73 417.882 471.221 415.175 471.713 412.466C472.452 409.758 473.066 407.051 473.559 404.343C473.804 402.865 474.052 401.512 474.297 400.281C474.79 398.804 475.159 397.327 475.404 395.849C475.897 393.879 476.143 391.911 476.143 389.941C476.388 387.971 476.757 386.003 477.25 384.033C477.495 381.817 477.743 379.602 477.988 377.386C478.234 375.171 478.603 372.831 479.095 370.37C479.588 367.909 479.834 365.57 479.834 363.354C480.079 360.893 480.448 358.43 480.941 355.969C481.434 353.261 481.803 350.554 482.048 347.845C482.541 345.137 483.032 342.43 483.525 339.721C484.017 337.26 484.387 334.921 484.632 332.705C485.125 330.244 485.616 327.781 486.108 325.32C486.601 323.35 486.97 321.382 487.216 319.412C487.461 317.442 487.954 315.474 488.692 313.504C489.43 310.795 490.045 308.089 490.538 305.38C491.03 302.671 492.138 300.087 493.86 297.625C494.105 297.38 494.229 297.133 494.229 296.887C494.474 296.641 494.721 296.394 494.967 296.148C495.46 294.426 496.443 293.564 497.92 293.564C500.134 293.564 501.734 294.302 502.718 295.779C503.949 298.24 505.178 301.318 506.409 305.011C506.902 306.242 507.271 307.472 507.516 308.703C508.009 309.935 508.131 311.165 507.885 312.396C507.64 313.873 507.762 315.226 508.255 316.458C508.993 317.689 509.485 319.043 509.731 320.52C509.731 323.228 509.855 325.935 510.1 328.644C510.345 331.352 510.715 334.059 511.207 336.767C511.207 337.999 511.207 339.352 511.207 340.829C511.453 342.306 511.7 343.66 511.946 344.891L513.053 361.508C513.298 364.708 513.422 367.909 513.422 371.109C513.667 374.063 514.036 377.141 514.529 380.34C515.022 383.788 515.513 386.863 516.006 389.572C516.006 389.818 515.882 390.065 515.637 390.311C515.637 390.311 515.637 390.556 515.637 391.049C515.391 393.019 515.267 394.987 515.267 396.957C515.267 398.927 515.144 400.895 514.898 402.865C514.898 404.343 514.775 405.82 514.529 407.297C514.529 408.528 514.406 409.758 514.16 410.989C514.16 412.221 514.16 412.836 514.16 412.836C514.16 414.806 514.16 416.774 514.16 418.744C514.406 420.714 514.653 422.682 514.898 424.652C515.144 426.622 515.144 428.838 514.898 431.299C514.406 432.53 514.16 433.884 514.16 435.361C514.406 436.592 514.406 437.822 514.16 439.053C513.422 439.792 512.807 440.285 512.315 440.53C511.822 441.023 511.207 441.269 510.469 441.269C509.731 441.023 509.362 440.407 509.362 439.423V430.56C509.116 428.838 508.993 427.113 508.993 425.391C508.993 423.668 508.993 421.943 508.993 420.221C508.993 417.267 508.993 414.436 508.993 411.728C509.238 408.774 509.362 405.82 509.362 402.865C509.362 399.666 509.362 396.588 509.362 393.634C509.362 390.434 509.238 387.233 508.993 384.033C508.5 378.863 508.009 373.694 507.516 368.524C507.024 363.109 506.533 357.815 506.04 352.646C505.794 350.676 505.671 348.708 505.671 346.737C505.916 344.522 505.916 342.43 505.671 340.46C505.425 338.49 505.178 336.644 504.933 334.921C504.687 332.951 504.318 330.983 503.825 329.013C503.825 327.29 503.702 325.69 503.456 324.212C503.456 322.735 503.333 321.258 503.087 319.781C502.594 317.073 502.103 314.488 501.611 312.027C501.365 309.318 500.996 306.612 500.503 303.903C500.258 302.919 499.642 301.687 498.658 300.21H497.92C497.674 300.949 497.427 301.687 497.181 302.426C496.936 303.164 496.689 303.903 496.443 304.641C496.198 305.38 495.951 306.242 495.705 307.226C495.705 307.965 495.581 308.703 495.336 309.442C494.843 311.412 494.352 313.258 493.86 314.981C493.614 316.458 493.245 318.181 492.752 320.151C492.259 321.873 491.769 323.474 491.276 324.951C491.03 326.428 490.783 327.905 490.538 329.382C490.292 330.614 490.169 331.721 490.169 332.705C490.169 333.69 490.045 334.676 489.799 335.66C489.307 337.63 488.816 339.721 488.323 341.937C487.83 343.907 487.339 345.875 486.847 347.845C487.585 349.077 487.83 350.306 487.585 351.538C487.585 352.522 487.339 353.63 486.847 354.861C486.601 355.354 486.477 355.969 486.477 356.708C486.477 357.201 486.354 357.692 486.108 358.185C486.108 358.678 485.985 359.047 485.739 359.292C485.739 359.292 485.739 359.538 485.739 360.031C485.247 362.985 484.877 365.939 484.632 368.893C484.387 371.602 484.017 374.432 483.525 377.386C483.279 379.109 483.032 380.71 482.786 382.187C482.786 383.664 482.663 385.141 482.417 386.618V387.726C481.434 389.203 480.941 390.804 480.941 392.526C480.941 394.003 480.696 395.604 480.203 397.327C479.219 400.526 478.603 403.358 478.357 405.82C478.112 406.313 477.988 406.804 477.988 407.297C478.234 407.79 478.234 408.281 477.988 408.774C477.988 410.005 477.743 411.604 477.25 413.574C477.004 415.544 476.388 417.882 475.404 420.59C474.421 423.299 473.804 425.76 473.559 427.975C473.313 429.207 473.066 430.437 472.821 431.668C472.821 432.9 473.066 434.129 473.559 435.361C473.804 436.592 473.804 437.7 473.559 438.684C473.313 439.423 473.066 440.285 472.821 441.269C472.328 443.239 471.837 445.331 471.344 447.546C470.852 449.516 470.482 451.485 470.237 453.455C469.992 454.193 469.992 455.055 470.237 456.039C470.482 456.778 470.73 457.762 470.975 458.994C472.206 458.994 473.435 459.117 474.666 459.363C475.897 459.363 477.25 459.239 478.726 458.994C479.957 458.994 480.572 458.379 480.572 457.147C481.065 455.67 481.434 454.317 481.679 453.085C481.925 451.608 481.679 450.007 480.941 448.285C480.203 445.331 480.326 442.377 481.31 439.423C481.803 436.961 482.294 434.622 482.786 432.407C483.525 430.191 484.017 427.852 484.263 425.391C484.508 423.668 484.756 422.067 485.001 420.59C485.494 418.868 485.985 417.021 486.477 415.051C486.97 414.067 487.216 413.205 487.216 412.466C486.97 410.496 487.092 408.774 487.585 407.297C488.078 405.574 488.568 403.728 489.061 401.758C489.307 400.526 489.43 399.418 489.43 398.434C489.43 397.203 489.43 395.973 489.43 394.742C489.676 394.003 489.799 393.388 489.799 392.895C490.045 392.157 490.661 391.664 491.645 391.418C491.645 389.941 491.769 388.957 492.014 388.464C492.507 386.987 492.876 385.756 493.121 384.772C493.614 383.049 494.352 382.187 495.336 382.187C496.567 382.432 497.551 382.556 498.289 382.556C499.272 382.556 500.134 383.049 500.872 384.033C502.103 385.756 502.718 387.48 502.718 389.203C502.963 390.68 503.211 392.402 503.456 394.372C503.702 396.588 503.825 398.804 503.825 401.019C504.071 403.235 504.318 405.574 504.563 408.035C504.563 409.758 504.563 411.482 504.563 413.205C504.809 414.927 504.809 416.774 504.563 418.744C504.071 420.466 503.949 422.067 504.194 423.544C504.687 425.021 504.687 426.622 504.194 428.345V430.929C504.44 433.884 504.563 436.838 504.563 439.792C504.809 442.5 505.056 445.331 505.302 448.285C505.302 450.007 504.564 450.993 503.087 451.239C501.365 451.239 500.38 450.5 500.134 449.023C499.642 447.053 499.151 444.962 498.658 442.746C498.165 440.53 498.165 438.315 498.658 436.099C499.151 434.868 499.151 433.638 498.658 432.407C498.412 430.929 498.165 429.452 497.92 427.975V426.868C497.92 424.159 497.92 421.452 497.92 418.744C497.92 416.035 498.165 413.329 498.658 410.62C499.151 408.159 499.027 405.82 498.289 403.604C497.796 401.143 497.551 398.68 497.551 396.219C497.551 395.48 497.551 394.742 497.551 394.003C497.551 393.019 497.427 392.033 497.181 391.049H496.812C496.32 393.019 495.829 394.987 495.336 396.957C494.843 398.927 494.352 400.895 493.86 402.865C493.121 405.574 492.752 408.281 492.752 410.989C492.752 413.45 492.507 416.035 492.014 418.744C492.014 419.237 491.89 419.482 491.645 419.482C490.168 421.943 489.307 424.528 489.061 427.237C488.816 429.945 488.447 432.652 487.954 435.361C487.461 437.083 487.216 438.93 487.216 440.9C487.461 442.622 487.585 444.347 487.585 446.069C487.092 449.516 486.601 452.223 486.108 454.193C486.108 454.686 485.985 455.301 485.739 456.039C485.739 456.778 485.739 457.393 485.739 457.886C485.739 458.87 485.985 459.363 486.477 459.363C486.97 459.363 487.461 459.363 487.954 459.363C489.923 459.363 491.769 459.363 493.49 459.363C495.46 459.363 497.427 459.486 499.396 459.732C502.349 459.732 505.547 460.101 508.993 460.84C510.224 461.085 511.576 461.209 513.053 461.209C514.529 461.209 516.006 461.455 517.482 461.948C519.451 462.441 519.82 463.67 518.589 465.64L513.053 474.503C511.822 476.718 510.469 478.934 508.993 481.149C507.762 483.119 506.533 485.211 505.302 487.427C504.809 488.165 504.44 488.904 504.194 489.642C504.194 490.381 503.949 491.243 503.456 492.227H505.302C505.794 492.72 506.164 493.211 506.409 493.704C505.671 494.443 505.302 494.812 505.302 494.812C503.087 495.551 501.98 496.904 501.98 498.874C501.98 500.844 501.856 502.812 501.611 504.782C501.365 506.505 501.242 508.351 501.242 510.321C500.996 512.782 500.749 515.122 500.503 517.337C500.503 519.553 500.38 521.892 500.134 524.353C499.889 527.8 499.765 531.124 499.765 534.323C499.765 537.277 499.642 540.477 499.396 543.924C499.396 546.385 499.396 548.848 499.396 551.309C499.642 553.77 499.642 556.233 499.396 558.695C499.396 561.403 499.272 563.988 499.027 566.449C498.781 568.665 498.412 571.126 497.92 573.834C497.674 575.804 497.427 577.773 497.181 579.743C496.936 581.713 496.567 583.804 496.074 586.02C499.52 586.513 502.103 587.004 503.825 587.497C504.318 587.743 504.687 587.99 504.933 588.236C505.425 588.481 505.916 588.729 506.409 588.974C505.916 589.22 505.425 589.467 504.933 589.713C504.687 590.206 504.318 590.451 503.825 590.451C502.349 590.451 500.627 590.206 498.658 589.713C497.427 589.22 496.689 589.098 496.443 589.343C496.198 589.589 496.074 590.327 496.074 591.559C496.074 592.79 496.074 594.02 496.074 595.252C496.074 596.483 496.198 597.713 496.443 598.944C496.443 600.421 495.951 601.16 494.967 601.16C492.507 601.653 491.276 601.16 491.276 599.683V590.082C491.276 588.605 490.783 587.621 489.799 587.128C485.616 585.896 482.048 584.297 479.095 582.327C476.143 581.096 474.543 578.88 474.297 575.681C474.297 575.435 474.052 574.573 473.559 573.096C472.328 570.142 471.468 566.573 470.975 562.387C470.237 558.695 470.113 554.509 470.606 549.832C470.852 548.355 470.852 546.878 470.606 545.401C470.361 543.924 470.237 542.447 470.237 540.97V538.385C470.237 537.154 470.237 536.046 470.237 535.062C470.237 533.83 470.361 532.601 470.606 531.369C470.606 530.138 470.482 529.03 470.237 528.046C469.992 527.062 469.868 526.076 469.868 525.092C469.622 523.86 469.744 522.014 470.237 519.553C470.482 518.321 470.482 517.337 470.237 516.599C469.992 515.614 469.992 514.507 470.237 513.275C470.73 510.814 470.975 508.351 470.975 505.89C471.221 503.429 471.959 500.966 473.19 498.505C473.928 497.273 473.435 496.658 471.713 496.658H462.855C461.624 496.658 460.271 496.658 458.795 496.658C457.564 496.413 456.335 496.165 455.104 495.92C453.873 495.92 452.52 495.92 451.044 495.92C449.813 495.92 448.584 495.796 447.353 495.551C445.876 495.305 444.4 495.181 442.923 495.181C441.447 494.936 439.971 494.812 438.494 494.812C436.034 494.319 433.696 494.074 431.481 494.074C429.267 493.828 427.052 493.459 424.837 492.966C421.392 492.473 417.948 491.982 414.503 491.489C411.057 490.75 407.613 490.135 404.168 489.642C401.215 489.149 398.262 488.535 395.309 487.796C392.602 487.058 389.896 486.443 387.189 485.95C386.205 485.704 385.22 485.704 384.236 485.95C383.498 485.95 382.514 485.95 381.283 485.95C376.854 485.95 374.885 483.734 375.378 479.303C375.623 478.071 375.747 476.718 375.747 475.241C375.747 473.764 375.747 472.287 375.747 470.81L376.854 460.84V454.932C376.854 452.962 377.716 451.978 379.438 451.978C380.669 451.732 381.776 451.732 382.76 451.978C383.743 451.978 384.851 451.854 386.082 451.608C389.773 451.115 393.464 451.115 397.155 451.608C400.846 451.854 404.537 452.223 408.228 452.716C410.442 452.962 412.533 453.209 414.503 453.455C416.717 453.7 418.808 454.193 420.777 454.932C422.254 455.67 423.73 456.039 425.206 456.039C426.928 455.794 428.528 456.163 430.005 457.147C430.25 457.147 430.374 457.023 430.374 456.778ZM513.053 464.163C511.084 463.918 509.116 463.67 507.147 463.425C505.425 463.179 503.58 462.932 501.611 462.686C500.38 462.441 499.027 462.317 497.551 462.317C496.32 462.071 495.09 461.948 493.86 461.948C491.89 461.948 490.045 462.071 488.323 462.317C486.601 462.317 484.756 462.441 482.786 462.686H481.31C479.095 461.948 476.881 461.702 474.666 461.948C472.697 462.193 470.606 462.193 468.391 461.948C466.67 461.702 464.946 461.702 463.224 461.948C461.748 461.948 460.148 461.948 458.426 461.948C455.718 461.948 453.013 461.948 450.305 461.948C447.598 461.702 444.893 461.455 442.185 461.209C440.216 460.964 438.371 460.84 436.649 460.84C434.927 460.84 433.203 460.594 431.481 460.101C428.774 459.608 426.19 459.117 423.73 458.624C421.515 458.131 419.055 457.64 416.348 457.147C413.641 456.654 410.812 456.285 407.859 456.039C405.151 455.794 402.446 455.546 399.738 455.301C396.786 454.808 393.833 454.562 390.88 454.562C388.173 454.562 385.343 454.808 382.391 455.301C381.407 455.546 380.914 456.163 380.914 457.147C380.914 458.131 380.791 459.117 380.545 460.101C380.545 460.84 380.545 461.702 380.545 462.686C380.3 464.163 380.052 465.64 379.807 467.117C379.561 468.349 379.438 469.578 379.438 470.81C379.192 472.287 379.069 473.888 379.069 475.61C379.314 477.087 379.561 478.564 379.807 480.041C379.807 481.764 380.669 482.626 382.391 482.626C384.605 482.626 386.205 482.75 387.189 482.996C389.158 483.489 390.88 483.98 392.356 484.473C394.078 484.718 395.802 485.087 397.524 485.58C399.493 486.073 401.338 486.443 403.06 486.688C404.782 486.934 406.506 487.303 408.228 487.796C409.704 488.042 411.181 488.411 412.657 488.904C414.133 489.149 415.733 489.397 417.455 489.642C420.163 490.135 422.992 490.505 425.945 490.75C428.898 490.996 431.727 491.243 434.434 491.489C436.156 491.734 437.88 491.982 439.601 492.227C441.323 492.227 443.047 492.351 444.769 492.596C447.229 492.842 449.567 493.089 451.782 493.335C453.996 493.335 456.335 493.335 458.795 493.335C461.009 493.581 463.224 493.704 465.439 493.704C467.653 493.704 469.744 493.704 471.713 493.704C473.435 494.197 474.297 493.581 474.297 491.858L475.404 484.103C475.404 482.381 476.143 481.519 477.619 481.519C478.85 481.519 479.834 481.519 480.572 481.519C481.555 481.273 482.663 481.149 483.894 481.149C485.616 481.149 487.216 481.273 488.692 481.519C490.168 481.519 491.769 481.519 493.49 481.519H501.242C503.211 481.519 504.318 480.78 504.563 479.303C504.809 478.81 505.056 478.441 505.302 478.195C505.547 477.702 505.794 477.211 506.04 476.718C506.778 475.734 507.516 474.748 508.255 473.764C508.993 472.78 509.731 471.672 510.469 470.441C510.962 469.457 511.331 468.471 511.576 467.487C512.069 466.502 512.56 465.395 513.053 464.163ZM491.645 584.174C491.89 583.19 492.014 582.327 492.014 581.589C492.014 580.605 492.138 579.743 492.383 579.004C492.876 577.034 493.121 575.188 493.121 573.465C493.367 571.495 493.614 569.527 493.86 567.557C494.105 564.848 494.352 562.264 494.598 559.802C494.843 557.094 494.721 554.387 494.229 551.679V551.309C494.474 547.617 494.721 543.924 494.967 540.231C495.212 536.539 495.46 532.846 495.705 529.154C495.951 525.706 496.074 522.261 496.074 518.814C496.074 515.121 496.32 511.553 496.812 508.106C497.058 507.121 496.689 506.259 495.705 505.521C494.967 505.275 494.598 504.537 494.598 503.305C495.09 500.844 495.581 498.998 496.074 497.766C496.812 496.289 496.443 495.551 494.967 495.551H493.121C490.907 495.551 488.692 495.674 486.477 495.92C484.508 495.92 482.541 495.92 480.572 495.92C478.357 496.165 477.126 497.151 476.881 498.874C476.388 501.09 476.019 503.305 475.773 505.521C475.528 507.736 475.281 509.952 475.035 512.167C474.79 514.137 474.666 515.984 474.666 517.706C474.666 519.429 474.666 521.275 474.666 523.245C474.666 524.968 474.666 526.692 474.666 528.415C474.912 529.892 475.035 531.369 475.035 532.846C475.035 537.032 475.035 541.094 475.035 545.032C475.035 548.97 475.159 553.032 475.404 557.217C475.65 559.679 475.897 562.142 476.143 564.603C476.388 566.818 476.757 569.158 477.25 571.619C478.234 575.066 479.957 578.02 482.417 580.481C485.125 582.697 488.199 583.928 491.645 584.174ZM499.027 484.473C498.781 484.227 498.534 484.103 498.289 484.103H482.048C481.556 484.103 480.941 484.473 480.203 485.211C479.71 486.443 479.341 487.796 479.095 489.273C479.095 490.505 478.85 491.858 478.357 493.335H480.941C483.648 493.089 486.232 492.966 488.692 492.966C491.399 492.966 494.105 492.842 496.812 492.596C497.796 492.596 498.534 492.103 499.027 491.119V484.473ZM396.417 429.452C396.662 428.221 396.662 427.113 396.417 426.129C396.171 425.145 396.293 424.037 396.786 422.806C397.278 421.822 397.769 420.959 398.262 420.221C398.755 419.237 398.755 418.129 398.262 416.898C398.017 415.913 398.138 414.927 398.631 413.943C399.124 412.959 399.615 411.852 400.108 410.62C400.6 409.143 401.091 407.79 401.584 406.558C402.322 405.081 402.937 403.604 403.429 402.127C403.675 401.634 403.675 401.143 403.429 400.65C403.429 400.157 403.429 399.666 403.429 399.173C402.691 397.203 403.184 395.48 404.906 394.003C403.675 392.772 403.306 391.788 403.799 391.049C404.537 390.065 405.151 389.203 405.644 388.464C406.137 386.742 406.382 385.141 406.382 383.664C406.628 382.187 406.875 380.586 407.121 378.863C407.121 377.879 406.997 377.017 406.751 376.279C406.506 375.54 406.382 374.678 406.382 373.694C406.137 373.201 406.013 372.462 406.013 371.478C406.751 371.478 407.366 371.478 407.859 371.478C408.597 371.233 409.335 371.109 410.073 371.109C411.304 371.354 411.919 371.971 411.919 372.955C412.164 373.694 412.412 374.432 412.657 375.171C412.902 378.618 413.026 381.941 413.026 385.141C413.026 388.341 413.15 391.542 413.395 394.742C413.395 404.343 413.764 413.698 414.503 422.806C414.503 424.776 414.748 426.744 415.241 428.714C415.733 430.437 416.103 432.283 416.348 434.253C416.594 435.73 416.717 437.207 416.717 438.684C416.717 440.161 416.841 441.638 417.086 443.115C417.086 443.854 417.21 444.592 417.455 445.331C417.701 445.824 417.824 446.439 417.824 447.177C417.824 448.654 417.701 449.516 417.455 449.762C415.733 450.255 414.503 450.377 413.764 450.131C413.519 449.886 413.395 449.516 413.395 449.023C413.395 448.53 413.272 448.039 413.026 447.546C412.042 445.576 411.426 443.977 411.181 442.746C410.935 441.514 410.688 440.285 410.442 439.053C410.197 437.576 410.073 436.223 410.073 434.991C409.828 433.021 409.704 431.299 409.704 429.822C409.704 428.099 409.459 426.253 408.966 424.283C407.735 420.345 407.244 416.774 407.49 413.574C407.982 411.852 408.228 410.251 408.228 408.774C408.228 407.051 408.228 405.327 408.228 403.604C408.228 403.358 408.104 403.111 407.859 402.865C407.859 402.62 407.859 402.373 407.859 402.127C407.366 401.881 407.121 401.758 407.121 401.758C407.121 402.251 406.997 402.62 406.751 402.865L402.322 421.698C401.584 424.406 400.846 426.991 400.108 429.452C399.369 431.914 398.755 434.498 398.262 437.207C397.031 440.9 397.031 444.592 398.262 448.285C398.507 448.778 398.507 449.147 398.262 449.393C398.017 449.638 397.893 449.886 397.893 450.131C396.171 450.131 395.309 449.886 395.309 449.393C394.816 448.161 394.326 447.053 393.833 446.069C393.34 444.838 393.34 443.361 393.833 441.638C394.326 440.407 394.447 439.053 394.202 437.576C394.202 435.854 394.326 434.253 394.571 432.776C394.816 432.037 395.433 430.93 396.417 429.452Z" fill="white"/>
</g>
</g>
<defs>
<clipPath id="clip0_140_231">
<rect width="884" height="877" fill="white"/>
</clipPath>
</defs>
</svg>
