<svg width="880" height="886" viewBox="0 0 880 886" fill="none" xmlns="http://www.w3.org/2000/svg">
<g clip-path="url(#clip0_140_247)">
<mask id="mask0_140_247" style="mask-type:luminance" maskUnits="userSpaceOnUse" x="0" y="0" width="880" height="886">
<path d="M880 0H0V886H880V0Z" fill="white"/>
</mask>
<g mask="url(#mask0_140_247)">
<path d="M879.84 0H-1.84473V547.009H879.84V0Z" fill="#7036CC"/>
<path d="M879.84 547.009H-1.84473V886H879.84V547.009Z" fill="#3D1F6D"/>
<path d="M482.986 757.826V758.601V759.635C482.986 759.98 482.986 760.323 482.986 760.668C483.157 761.014 483.157 761.357 482.986 761.702V764.545C482.814 765.062 482.727 765.837 482.727 766.87V768.679V771.005C482.382 772.384 482.124 773.934 481.953 775.657C481.953 777.207 481.781 778.844 481.436 780.566C480.919 782.979 480.403 785.218 479.886 787.285C479.541 789.181 479.198 791.075 478.853 792.97C478.682 793.832 478.508 794.608 478.337 795.296C478.165 795.985 477.992 796.76 477.82 797.622C477.475 798.139 477.217 798.742 477.045 799.431C477.045 800.119 476.959 800.81 476.787 801.498C476.27 803.394 475.754 805.374 475.237 807.442C474.892 809.337 474.549 811.318 474.204 813.385C473.859 814.764 473.601 816.141 473.429 817.52C473.429 818.899 473.258 820.276 472.913 821.655C472.913 822.688 472.826 823.55 472.654 824.239C472.483 825.101 472.396 825.961 472.396 826.823C472.396 827.685 472.309 828.632 472.138 829.666C472.138 829.837 472.138 830.011 472.138 830.183C472.309 830.354 472.396 830.528 472.396 830.699C472.568 831.905 472.396 832.767 471.88 833.283C471.708 833.629 471.105 833.8 470.072 833.8H469.813H467.489H465.939H464.131C463.786 833.8 463.443 833.714 463.098 833.542C462.926 833.542 462.668 833.542 462.323 833.542H456.899H454.833H453.283H449.409C448.893 833.542 448.376 833.542 447.859 833.542C447.343 833.714 446.826 833.8 446.31 833.8H441.919C440.024 833.8 438.648 833.714 437.787 833.542H436.495C435.979 833.37 435.462 833.283 434.945 833.283C434.429 833.283 433.999 833.197 433.654 833.025C433.309 833.025 432.966 832.853 432.621 832.508C432.621 832.508 432.534 832.421 432.363 832.25C432.191 832.25 432.104 832.078 432.104 831.733V831.475C432.449 831.129 432.621 830.958 432.621 830.958H435.204C434.516 830.096 434.342 828.977 434.687 827.598C434.687 827.253 434.6 826.995 434.429 826.823C434.257 826.651 434.171 826.306 434.171 825.789C433.999 825.273 433.912 824.497 433.912 823.464V821.655C433.912 821.31 433.826 821.138 433.654 821.138C433.654 820.966 433.654 820.708 433.654 820.363C433.482 820.017 433.396 819.587 433.396 819.071V814.936C433.396 814.591 433.482 814.419 433.654 814.419C433.309 813.731 433.224 813.299 433.396 813.127C433.567 812.782 433.567 812.523 433.396 812.352C432.879 812.18 432.621 811.663 432.621 810.801C432.621 810.456 432.708 810.198 432.879 810.026V809.509C432.879 809.164 432.792 808.821 432.621 808.475C432.621 807.959 432.621 807.529 432.621 807.183C432.449 806.838 432.363 806.58 432.363 806.408C432.363 806.063 432.276 805.72 432.104 805.374C431.933 804.858 431.759 804.341 431.588 803.824C431.588 803.136 431.501 802.532 431.33 802.015C431.158 800.981 431.071 799.948 431.071 798.914C431.071 797.88 431.071 796.847 431.071 795.813C430.9 795.296 430.813 794.349 430.813 792.97V790.645V789.611C430.813 789.266 430.726 789.094 430.555 789.094C430.555 788.923 430.555 788.664 430.555 788.319C430.555 787.974 430.555 787.715 430.555 787.544C430.726 787.199 430.813 786.855 430.813 786.51V784.701V782.892V780.566V778.499C430.985 777.811 431.071 776.777 431.071 775.398V773.331C431.243 772.642 431.243 771.867 431.071 771.005C430.726 769.626 430.726 768.249 431.071 766.87C431.071 766.525 431.071 766.267 431.071 766.095C431.243 765.924 431.33 765.665 431.33 765.32V764.028C431.501 762.994 431.588 761.96 431.588 760.927C431.588 759.893 431.759 758.859 432.104 757.826C432.104 756.447 432.276 754.896 432.621 753.174C432.966 751.795 433.137 750.762 433.137 750.073C433.309 749.728 433.396 749.211 433.396 748.523C433.396 747.661 433.482 746.972 433.654 746.455C433.999 745.422 434.171 744.388 434.171 743.354C434.342 742.321 434.6 741.287 434.945 740.254L435.72 737.152C435.72 736.981 435.72 736.894 435.72 736.894C435.892 736.722 435.979 736.464 435.979 736.119C436.324 735.085 436.495 734.31 436.495 733.793C436.495 732.931 436.495 732.071 436.495 731.209C436.667 730.175 436.84 729.228 437.012 728.366L437.787 724.49C437.787 724.145 437.787 723.802 437.787 723.456C437.958 722.94 438.045 722.509 438.045 722.164C438.216 721.819 438.303 721.217 438.303 720.355V719.322V718.805V718.546V718.03C438.303 717.513 438.39 717.083 438.561 716.738C438.561 716.392 438.561 716.049 438.561 715.704C438.733 715.187 438.82 714.757 438.82 714.412C438.991 713.723 439.078 713.033 439.078 712.345C439.078 711.656 439.078 710.966 439.078 710.277C439.25 709.76 439.25 709.243 439.078 708.727C439.078 708.21 439.078 707.606 439.078 706.918V704.075V700.974V698.132C439.078 697.098 438.991 696.323 438.82 695.806V694.772V694.514L439.078 692.188C439.078 691.326 439.078 690.466 439.078 689.604C439.078 688.742 439.165 687.882 439.336 687.02C439.336 685.814 439.25 684.952 439.078 684.435C438.906 683.23 438.82 682.11 438.82 681.076C438.82 680.042 438.82 679.095 438.82 678.233C438.82 677.888 438.82 677.63 438.82 677.458C438.991 677.287 439.078 677.028 439.078 676.683C439.423 675.304 439.336 674.099 438.82 673.065C438.648 672.894 438.561 672.72 438.561 672.548C438.733 672.203 438.82 671.945 438.82 671.773C439.165 671.085 439.336 670.051 439.336 668.672V666.346V664.537L437.787 666.088C437.098 666.95 436.408 667.725 435.72 668.414C435.204 668.93 434.516 669.361 433.654 669.706L433.396 670.481C433.051 670.826 432.792 671.169 432.621 671.515C432.621 671.686 432.449 671.945 432.104 672.29L431.846 672.807C431.501 673.324 431.158 673.84 430.813 674.357C430.468 674.702 430.125 675.133 429.78 675.649C429.092 676.338 428.66 676.941 428.488 677.458C427.972 677.803 427.542 678.233 427.197 678.75C427.025 679.095 426.68 679.526 426.164 680.042C425.992 680.214 425.734 680.646 425.389 681.334C425.044 681.68 424.701 682.023 424.356 682.368C424.184 682.713 423.926 683.057 423.581 683.402C423.236 683.747 422.893 684.09 422.548 684.435C422.376 684.781 422.118 685.124 421.773 685.469C420.74 686.848 420.052 687.795 419.707 688.312C419.362 688.657 419.104 688.915 418.932 689.087C418.932 689.259 418.76 689.517 418.415 689.862C418.415 689.862 418.244 690.207 417.899 690.896C417.382 691.241 416.779 691.93 416.091 692.963C415.746 693.308 415.574 693.738 415.574 694.255C415.229 695.289 414.455 695.806 413.25 695.806H412.733C411.7 695.806 410.667 695.806 409.634 695.806C408.601 695.634 407.568 695.461 406.535 695.289C405.501 694.944 404.382 694.772 403.177 694.772C402.144 694.6 401.111 694.342 400.078 693.997C399.733 693.825 399.389 693.738 399.044 693.738C398.873 693.738 398.615 693.652 398.27 693.48C397.925 693.48 397.581 693.308 397.236 692.963H396.978C396.978 692.792 396.891 692.705 396.72 692.705C396.72 692.533 396.633 692.446 396.462 692.446C394.395 691.93 392.501 690.809 390.779 689.087C390.434 688.915 390.091 688.742 389.746 688.57C389.575 688.399 389.316 688.225 388.971 688.053C388.283 687.708 387.68 687.278 387.163 686.761C386.302 686.416 385.872 685.728 385.872 684.694C386.217 683.832 386.818 683.143 387.68 682.627C388.197 682.455 388.885 681.938 389.746 681.076C390.091 680.388 390.866 679.612 392.071 678.75C392.242 678.579 392.329 678.405 392.329 678.233C392.501 678.062 392.759 677.888 393.104 677.717C393.449 677.545 393.62 677.371 393.62 677.2C393.792 677.028 394.05 676.77 394.395 676.425C395.428 675.391 396.29 674.616 396.978 674.099C397.323 673.754 397.581 673.495 397.753 673.324C398.098 672.978 398.441 672.635 398.786 672.29C399.131 671.945 399.561 671.515 400.078 670.998C400.594 670.481 401.111 670.051 401.627 669.706C402.144 669.534 402.66 669.017 403.177 668.155L403.952 667.38L404.985 666.605C405.501 665.916 406.276 665.054 407.309 664.021C407.481 663.849 407.568 663.762 407.568 663.762C407.568 663.591 407.654 663.417 407.826 663.245L408.601 662.47C408.946 662.125 409.117 661.867 409.117 661.695C409.462 661.35 409.721 661.091 409.892 660.92C410.237 660.574 410.667 660.316 411.184 660.144C411.355 660.144 411.442 660.058 411.442 659.886C411.613 659.714 411.7 659.541 411.7 659.369C411.872 659.024 412.13 658.681 412.475 658.335C412.82 657.647 413.163 657.043 413.508 656.526C414.025 656.01 414.713 655.58 415.574 655.234C415.574 655.234 415.746 655.063 416.091 654.718V654.459L416.866 653.684C417.211 652.995 417.554 652.563 417.899 652.392C418.76 651.358 419.707 650.238 420.74 649.032C421.945 647.827 423.236 646.62 424.614 645.415C425.819 644.036 427.11 642.659 428.488 641.28C430.038 639.901 431.501 638.524 432.879 637.145C434.084 635.94 435.204 634.733 436.237 633.527C437.442 632.322 438.733 630.943 440.111 629.393C441.832 627.497 442.694 625.517 442.694 623.449C442.694 623.278 442.607 623.104 442.436 622.932C442.264 622.07 442.177 621.554 442.177 621.382C442.349 621.037 442.781 620.693 443.469 620.348C443.469 620.348 443.64 620.261 443.985 620.09C444.847 619.745 445.622 619.486 446.31 619.314C446.998 619.143 447.688 618.969 448.376 618.798C449.064 618.798 450.097 618.626 451.475 618.281C451.82 618.109 452.422 618.022 453.283 618.022H454.316H454.575C455.608 617.851 456.641 617.764 457.674 617.764C458.707 617.592 459.74 617.334 460.774 616.989C461.29 616.817 462.237 616.559 463.615 616.213C464.303 615.868 464.993 615.697 465.681 615.697L471.88 614.146C473.601 613.801 474.721 614.576 475.237 616.472C475.237 616.817 475.237 617.16 475.237 617.506C475.409 617.851 475.496 618.194 475.496 618.539L476.27 620.865C476.442 621.727 476.529 622.502 476.529 623.191C476.529 623.879 476.615 624.654 476.787 625.516V626.55C477.132 628.446 477.304 630.34 477.304 632.235C477.475 633.957 477.733 635.766 478.078 637.662C478.078 638.351 478.078 638.954 478.078 639.471C478.25 639.988 478.337 640.591 478.337 641.28C478.337 642.485 478.508 643.951 478.853 645.673C478.853 646.535 478.853 647.31 478.853 647.999C479.025 648.516 479.198 649.119 479.37 649.808C479.37 650.153 479.37 650.496 479.37 650.841C479.541 651.187 479.628 651.53 479.628 651.875V652.133C479.628 652.479 479.628 652.737 479.628 652.909C479.8 653.08 479.886 653.254 479.886 653.425C479.715 654.976 479.715 656.613 479.886 658.335C480.231 660.058 480.574 661.866 480.919 663.762C481.091 664.107 481.178 664.537 481.178 665.054V665.571V666.605V669.964V671.515V672.548V673.582V677.458V680.301C481.178 680.646 481.178 680.989 481.178 681.334C481.349 681.506 481.436 681.765 481.436 682.11V683.402V684.435V688.57C481.436 689.949 481.436 691.326 481.436 692.705C481.436 693.91 481.523 695.202 481.694 696.581C481.694 697.443 481.694 698.218 481.694 698.907C481.694 699.595 481.608 700.371 481.436 701.233V706.401C481.608 707.951 481.694 709.502 481.694 711.052C481.694 712.603 481.781 714.24 481.953 715.962C481.953 717.858 482.039 719.235 482.211 720.097V724.232C482.382 725.094 482.469 725.869 482.469 726.557C482.469 727.074 482.469 727.678 482.469 728.366C482.469 729.228 482.469 730.088 482.469 730.95C482.469 731.639 482.556 732.414 482.727 733.276C482.727 734.138 482.727 734.913 482.727 735.602C482.727 736.29 482.814 736.981 482.986 737.669C483.157 738.531 483.244 739.391 483.244 740.254C483.244 741.116 483.244 741.976 483.244 742.838C483.416 743.7 483.416 744.475 483.244 745.163C483.244 745.68 483.244 746.369 483.244 747.231V749.815V751.624V753.95C483.244 755.155 483.157 756.017 482.986 756.534V757.826ZM480.145 755.758C480.316 755.07 480.403 754.38 480.403 753.691C480.403 753.003 480.403 752.227 480.403 751.365C480.574 750.677 480.661 749.728 480.661 748.523V746.714C480.661 746.197 480.574 745.767 480.403 745.422C480.403 744.56 480.316 743.871 480.145 743.354V741.287V739.22C480.145 738.531 480.058 737.841 479.886 737.152C479.886 736.464 479.886 735.774 479.886 735.085C479.715 734.223 479.628 733.276 479.628 732.243C479.628 731.209 479.541 730.175 479.37 729.142C479.37 727.936 479.456 727.074 479.628 726.557V724.49C479.628 722.768 479.541 721.561 479.37 720.872V720.355V719.58C479.198 719.235 479.112 718.718 479.112 718.03C479.456 717.513 479.541 716.996 479.37 716.479C479.37 715.962 479.37 715.359 479.37 714.67C479.37 714.325 479.283 714.153 479.112 714.153C479.112 713.982 479.112 713.723 479.112 713.378V707.951V705.367V705.109V704.85L478.853 704.075V702.008V699.424V698.132V697.873V694.514V688.053V683.143V678.75C478.508 678.405 478.508 677.975 478.853 677.458C478.853 676.77 478.767 676.166 478.595 675.649V674.616V673.324V671.773V669.447C478.595 668.242 478.508 667.122 478.337 666.088C478.337 664.883 478.25 663.762 478.078 662.729C477.907 662.04 477.82 661.35 477.82 660.661C477.82 659.973 477.733 659.282 477.562 658.594C477.39 658.077 477.304 657.215 477.304 656.01C476.959 654.287 476.787 652.995 476.787 652.133V651.617V650.841C476.442 649.636 476.184 648.516 476.012 647.482C476.012 646.277 476.012 645.156 476.012 644.122V643.864C476.012 643.347 476.012 642.83 476.012 642.314C476.012 641.625 475.925 641.021 475.754 640.505C475.754 640.159 475.667 639.816 475.496 639.471C475.496 639.126 475.496 638.783 475.496 638.437C475.324 638.092 475.237 637.749 475.237 637.404C475.237 636.887 475.151 636.457 474.979 636.112C474.807 635.25 474.721 634.389 474.721 633.527C474.721 632.665 474.634 631.632 474.462 630.426C474.462 630.081 474.376 629.738 474.204 629.393C474.204 629.048 474.204 628.704 474.204 628.359C474.204 626.98 474.117 625.947 473.946 625.258C473.774 624.396 473.601 623.621 473.429 622.932C473.429 622.07 473.343 621.21 473.171 620.348C473.171 620.003 473.084 619.66 472.913 619.314C472.913 618.798 472.913 618.368 472.913 618.022C472.913 617.506 472.741 617.247 472.396 617.247L471.88 617.506C471.018 617.506 470.417 617.592 470.072 617.764L466.197 618.539C464.648 618.884 463.098 619.228 461.548 619.573C459.999 619.918 458.362 620.261 456.641 620.607C455.263 620.778 453.8 620.952 452.25 621.123C450.872 621.295 449.496 621.554 448.118 621.899L447.343 622.157C446.31 622.157 445.793 622.502 445.793 623.191C445.622 624.053 445.448 625 445.277 626.033C445.277 627.067 445.19 628.014 445.018 628.876C445.018 629.738 444.847 630.856 444.502 632.235C444.502 633.441 444.415 634.389 444.244 635.078C444.244 635.94 444.157 636.715 443.985 637.404C443.985 638.092 443.899 638.867 443.727 639.729C443.382 641.452 443.124 643.176 442.952 644.898C442.952 646.62 442.865 648.429 442.694 650.325V651.875C442.694 652.737 442.781 653.425 442.952 653.942V655.234V656.785H443.727H443.985C444.33 656.785 444.502 656.872 444.502 657.043C444.673 657.043 444.76 657.13 444.76 657.302C444.76 657.473 444.673 657.56 444.502 657.56V658.594C444.157 659.111 443.899 659.369 443.727 659.369C443.039 659.714 442.607 660.49 442.436 661.695V666.088V667.897V684.435V689.345V690.379V695.547C442.436 696.409 442.436 697.27 442.436 698.132C442.436 698.994 442.522 699.854 442.694 700.716V706.918V707.435V711.311C442.694 711.828 442.607 712.345 442.436 712.861C442.436 713.378 442.436 713.895 442.436 714.412C442.264 715.274 442.091 716.134 441.919 716.996C441.919 717.684 441.919 718.46 441.919 719.322C441.919 721.389 441.574 723.456 440.886 725.524V726.041V727.849C440.714 728.366 440.628 728.97 440.628 729.658C440.628 730.175 440.541 730.692 440.369 731.209C440.198 732.588 440.024 733.965 439.853 735.344C439.681 736.549 439.423 737.841 439.078 739.22L438.303 743.096C438.132 743.613 438.045 744.13 438.045 744.647C438.045 744.992 437.958 745.422 437.787 745.939C437.615 746.627 437.442 747.231 437.27 747.748C437.27 748.264 437.183 748.868 437.012 749.556C437.012 750.245 436.84 751.279 436.495 752.658C436.324 753.52 436.15 754.466 435.979 755.5C435.807 756.362 435.634 757.222 435.462 758.084C435.29 759.29 435.204 760.497 435.204 761.702C435.204 762.736 435.117 763.769 434.945 764.803V767.129V769.713C434.945 770.747 434.859 771.435 434.687 771.78V775.915C434.516 776.777 434.429 777.552 434.429 778.241C434.429 778.758 434.429 779.361 434.429 780.05V781.859V783.667C434.429 784.356 434.342 784.788 434.171 784.96V787.802C434.342 788.664 434.429 789.524 434.429 790.386C434.429 791.075 434.516 791.85 434.687 792.712C434.687 793.574 434.687 794.349 434.687 795.038C434.687 795.726 434.774 796.417 434.945 797.105V799.689C434.945 800.206 434.945 800.81 434.945 801.498C434.945 802.015 435.032 802.532 435.204 803.049C435.204 803.22 435.204 803.394 435.204 803.566C435.375 803.566 435.462 803.652 435.462 803.824C435.807 804.169 435.979 804.599 435.979 805.116C435.979 806.15 436.065 806.925 436.237 807.442C436.582 808.475 436.753 809.422 436.753 810.284C436.582 810.973 436.495 811.663 436.495 812.352C436.667 812.869 436.753 813.385 436.753 813.902V815.97C436.408 817.175 436.495 818.124 437.012 818.812V819.587C436.84 819.933 436.753 820.363 436.753 820.879C436.925 821.225 437.012 821.655 437.012 822.172C437.012 822.343 437.012 822.43 437.012 822.43C437.183 822.602 437.27 822.86 437.27 823.205C437.442 824.067 437.528 825.014 437.528 826.048C437.528 827.081 437.528 828.028 437.528 828.89V831.216H469.297V830.958V829.149V828.115V825.789C469.297 825.444 469.297 825.101 469.297 824.756C469.468 824.411 469.555 824.067 469.555 823.722C469.555 823.55 469.555 823.377 469.555 823.205C469.727 823.034 469.813 822.775 469.813 822.43C469.813 822.085 469.813 821.655 469.813 821.138C469.985 820.621 470.072 820.104 470.072 819.587C470.243 818.899 470.33 818.295 470.33 817.778C470.33 817.09 470.417 816.4 470.588 815.711C470.76 815.366 470.846 815.023 470.846 814.677C470.846 814.161 470.933 813.731 471.105 813.385C471.105 813.214 471.105 813.127 471.105 813.127C471.276 813.127 471.363 813.04 471.363 812.869C471.363 812.523 471.363 812.352 471.363 812.352C471.535 812.18 471.621 811.922 471.621 811.576C471.793 811.231 471.88 810.973 471.88 810.801C471.88 810.456 471.966 810.113 472.138 809.768C472.138 809.422 472.138 809.164 472.138 808.992C472.309 808.647 472.396 808.304 472.396 807.959C472.396 807.787 472.396 807.613 472.396 807.442C472.568 807.27 472.654 807.012 472.654 806.667C472.826 806.15 472.913 805.546 472.913 804.858C473.084 804.169 473.258 803.479 473.429 802.79C473.429 802.619 473.429 802.532 473.429 802.532C473.601 802.36 473.688 802.102 473.688 801.757C473.859 801.585 473.946 801.327 473.946 800.981C474.117 800.636 474.204 800.378 474.204 800.206C474.204 800.034 474.291 799.861 474.462 799.689C474.807 798.656 475.066 797.622 475.237 796.588C475.409 795.555 475.582 794.521 475.754 793.487C475.754 792.97 475.925 792.195 476.27 791.162C476.615 789.783 476.7 788.664 476.529 787.802C476.529 787.63 476.7 787.199 477.045 786.51C477.045 786.51 477.132 786.423 477.304 786.252C477.475 786.08 477.562 785.906 477.562 785.735C477.733 785.218 477.82 784.184 477.82 782.634C477.82 781.255 478.078 779.878 478.595 778.499C478.767 777.637 478.853 776.862 478.853 776.173C479.025 775.485 479.112 774.795 479.112 774.106C478.94 773.244 478.853 772.384 478.853 771.522C479.025 770.488 479.198 769.541 479.37 768.679C479.541 768.162 479.628 767.387 479.628 766.354L479.886 765.062C479.886 764.2 479.886 763.511 479.886 762.994C480.058 762.306 480.145 761.53 480.145 760.668V758.343V755.758ZM439.336 653.167C439.165 652.65 439.078 651.962 439.078 651.1C439.25 650.411 439.336 649.808 439.336 649.291C439.336 648.774 439.423 648.17 439.594 647.482C439.594 646.62 439.681 646.018 439.853 645.673C439.853 644.811 439.853 644.036 439.853 643.347C440.024 642.485 440.198 641.625 440.369 640.763L440.628 637.92V637.662C440.799 637.49 440.886 637.145 440.886 636.628L441.661 633.527C441.661 632.839 441.574 632.322 441.402 631.977L440.886 632.494C440.369 633.356 439.766 634.131 439.078 634.82C438.561 635.508 437.873 636.283 437.012 637.145C436.667 637.49 436.324 637.749 435.979 637.92C435.462 638.609 434.6 639.558 433.396 640.763C432.879 641.28 432.363 641.797 431.846 642.314C431.33 642.659 430.9 643.089 430.555 643.606C430.038 644.122 429.522 644.639 429.005 645.156C428.488 645.673 427.972 646.103 427.455 646.448C426.594 647.31 425.734 648.17 424.872 649.032C424.011 649.894 423.151 650.755 422.29 651.617C421.428 652.479 420.653 653.339 419.965 654.201C419.277 655.063 418.502 655.923 417.641 656.785C417.124 657.302 416.607 657.905 416.091 658.594C415.574 659.111 415.058 659.714 414.541 660.403C414.196 660.748 413.853 661.091 413.508 661.436C413.163 661.782 412.82 662.125 412.475 662.47L410.925 664.021C410.237 664.709 409.634 665.313 409.117 665.829C408.601 666.346 408.084 666.95 407.568 667.638L404.468 670.739L403.693 671.515C403.348 671.686 403.005 671.945 402.66 672.29L400.336 674.616C399.819 675.304 399.216 675.908 398.528 676.425L397.495 677.458L396.203 678.75C395.858 679.095 395.515 679.439 395.17 679.784C394.999 679.956 394.74 680.214 394.395 680.559L391.296 683.66C391.124 684.005 390.608 684.435 389.746 684.952L389.488 685.211H389.746C390.263 685.556 390.866 685.899 391.554 686.244C392.587 686.933 393.276 687.365 393.62 687.537C394.309 688.053 395.342 688.657 396.72 689.345C399.991 691.413 404.297 692.618 409.634 692.963C410.322 692.963 410.839 693.05 411.184 693.222C411.872 693.393 412.388 693.05 412.733 692.188C413.421 691.154 413.938 690.466 414.283 690.121L414.541 689.604L415.316 688.829C415.316 688.483 415.488 688.312 415.833 688.312C416.178 687.967 416.436 687.623 416.608 687.278C416.779 686.933 417.037 686.59 417.382 686.244C417.727 685.728 418.415 684.781 419.449 683.402L420.998 681.851C421.343 681.506 421.602 681.163 421.773 680.818C421.945 680.472 422.203 680.129 422.548 679.784C423.065 679.267 423.41 678.837 423.581 678.492C423.926 678.147 424.184 677.803 424.356 677.458C424.701 676.941 425.044 676.511 425.389 676.166L425.647 675.908V675.391L426.164 674.874C426.335 674.186 426.68 673.582 427.197 673.065C427.369 672.72 427.542 672.548 427.714 672.548C427.885 672.377 428.059 672.118 428.23 671.773C429.263 671.085 430.038 670.136 430.555 668.93C431.416 667.897 432.276 666.95 433.137 666.088C434.171 665.226 435.204 664.366 436.237 663.504C436.925 662.815 437.357 662.298 437.528 661.953C437.7 661.782 437.787 661.695 437.787 661.695C437.787 661.523 437.873 661.35 438.045 661.178V660.92C438.045 660.92 438.216 660.748 438.561 660.403C439.423 659.197 439.681 658.249 439.336 657.56V657.043V656.268V654.201V653.167Z" fill="white"/>
<path d="M428.673 271.928C428.673 270.747 428.475 269.368 428.082 267.793C427.885 265.038 427.689 262.28 427.492 259.524C427.295 256.768 427.099 254.011 426.902 251.255C426.509 247.908 426.214 244.757 426.016 241.804C426.016 238.653 425.918 235.504 425.721 232.353C425.524 230.779 425.328 229.105 425.131 227.333C425.131 225.561 424.933 223.887 424.54 222.312C424.343 220.738 424.147 219.161 423.95 217.587C423.753 216.012 423.457 214.436 423.064 212.861C422.867 211.878 422.671 210.794 422.474 209.613C422.474 208.431 422.277 207.348 421.884 206.364C421.491 204.199 421.096 202.132 420.703 200.162C420.506 197.997 420.21 195.83 419.817 193.665C419.62 193.272 419.522 192.976 419.522 192.779C419.72 192.581 419.817 192.286 419.817 191.893C419.817 191.302 419.72 190.711 419.522 190.121C419.522 189.53 419.522 188.842 419.522 188.053C419.522 187.856 419.424 187.758 419.227 187.758C419.227 187.561 419.227 187.365 419.227 187.167C419.227 185.593 419.129 184.214 418.932 183.033C418.932 181.655 418.932 180.178 418.932 178.603V165.608V161.473C418.932 159.898 418.834 158.422 418.637 157.043C418.637 155.468 418.539 153.893 418.342 152.318C418.342 150.152 417.653 147.79 416.275 145.23C415.882 147.199 415.488 149.069 415.095 150.841C414.702 152.417 414.602 154.09 414.799 155.862V156.453C414.406 157.634 414.012 158.815 413.619 159.997C413.421 161.178 413.126 162.458 412.733 163.836C412.536 164.821 412.34 165.707 412.143 166.494C411.945 167.282 411.75 168.168 411.552 169.152C411.355 170.53 411.159 171.909 410.962 173.287C410.765 174.665 410.469 176.043 410.077 177.421C410.077 178.406 410.077 179.39 410.077 180.375C410.077 181.359 409.979 182.344 409.781 183.328C409.388 184.707 409.093 186.084 408.896 187.463C408.896 188.644 408.698 189.923 408.305 191.302C407.913 192.877 407.617 194.551 407.42 196.323C407.42 198.095 407.223 199.769 406.83 201.343L405.944 204.887C405.551 207.053 405.059 209.12 404.468 211.089C404.075 213.059 403.68 215.027 403.287 216.996C403.09 218.571 402.894 220.047 402.697 221.426C402.697 222.607 402.599 223.986 402.402 225.561L401.516 230.877C401.123 232.451 400.926 233.928 400.926 235.307C400.926 236.686 400.729 238.063 400.336 239.441C400.138 240.425 399.843 241.311 399.45 242.099C399.253 242.888 399.057 243.774 398.86 244.757C398.269 246.727 397.679 248.597 397.089 250.369C396.696 252.141 396.301 253.913 395.908 255.685C395.318 257.85 394.235 260.312 392.661 263.068C392.071 264.052 391.775 264.742 391.775 265.135C391.775 265.333 392.071 265.924 392.661 266.907C392.071 267.301 391.087 267.4 389.709 267.203C388.529 266.81 387.938 266.317 387.938 265.726C387.741 265.333 387.84 264.643 388.233 263.659C388.626 262.871 388.824 262.28 388.824 261.887C389.414 260.508 389.907 259.229 390.3 258.047C390.89 256.669 391.383 255.292 391.775 253.913C392.168 252.731 392.563 251.55 392.956 250.369C393.547 248.99 394.039 247.613 394.432 246.234C394.825 244.855 395.12 243.478 395.318 242.099C395.515 240.721 395.81 239.244 396.203 237.669C396.401 237.079 396.498 236.488 396.498 235.897C396.498 235.109 396.596 234.421 396.794 233.83V232.944C397.186 231.96 397.482 231.074 397.679 230.286C397.876 229.302 398.172 228.317 398.565 227.333C398.565 226.545 398.762 225.561 399.155 224.379C399.155 223.789 399.057 223.198 398.86 222.607C398.86 222.017 398.958 221.524 399.155 221.131C399.548 219.359 399.745 217.587 399.745 215.815C399.745 214.043 399.843 212.271 400.04 210.499C400.04 209.711 400.238 208.924 400.631 208.136C401.024 207.348 401.319 206.562 401.516 205.773C401.909 204.592 402.107 203.706 402.107 203.115C402.304 202.132 402.5 201.246 402.697 200.457C402.894 199.669 403.09 198.783 403.287 197.799C403.485 196.816 403.583 195.83 403.583 194.846C403.583 193.862 403.68 192.877 403.878 191.893L404.763 187.463C404.961 187.07 405.058 186.281 405.058 185.1C405.256 184.509 405.256 183.919 405.058 183.328C404.861 182.541 405.156 181.95 405.944 181.556C405.944 181.556 405.944 181.162 405.944 180.375C405.551 178.8 405.451 177.323 405.649 175.945C406.042 174.567 406.534 173.188 407.125 171.81C407.322 171.219 407.42 170.727 407.42 170.333C407.617 169.743 407.813 169.152 408.01 168.561C408.208 166.986 408.403 165.411 408.601 163.836C408.798 162.261 408.994 160.686 409.191 159.111L410.077 154.681C410.469 153.303 410.765 152.023 410.962 150.841C411.355 149.463 411.75 148.183 412.143 147.002L413.028 143.458L413.914 138.142C414.111 136.961 414.897 136.37 416.275 136.37C418.439 136.764 419.817 137.945 420.408 139.914C420.801 141.883 421.196 143.753 421.588 145.525C422.179 147.297 422.572 149.168 422.769 151.137C423.162 153.893 423.557 156.748 423.95 159.701C424.343 162.458 424.343 165.313 423.95 168.266C423.753 169.447 423.753 170.629 423.95 171.81C424.147 172.991 424.245 174.173 424.245 175.354V182.442C424.442 184.607 424.54 186.675 424.54 188.644C424.738 190.416 424.933 192.386 425.131 194.551C425.328 196.323 425.524 198.095 425.721 199.867C425.918 201.639 426.214 203.411 426.607 205.183C426.804 206.757 426.999 208.234 427.197 209.613C427.59 210.794 427.985 212.173 428.378 213.747C428.771 216.308 429.066 218.768 429.263 221.131C429.46 223.493 429.756 225.954 430.149 228.514C430.346 229.695 430.444 230.877 430.444 232.058C430.641 233.239 430.936 234.323 431.329 235.307V237.079V245.348C431.329 246.332 431.329 247.415 431.329 248.597C431.527 249.778 431.625 250.862 431.625 251.845C431.625 253.42 431.822 254.996 432.215 256.571C432.608 258.145 432.608 259.722 432.215 261.296C432.017 262.28 432.017 263.363 432.215 264.545C432.608 265.726 432.903 266.81 433.1 267.793C433.298 268.384 433.396 269.172 433.396 270.156C433.396 272.321 434.479 273.405 436.643 273.405C437.43 273.207 438.611 273.109 440.185 273.109C441.758 273.307 443.432 273.405 445.203 273.405C446.974 273.405 448.647 273.503 450.221 273.7C451.009 273.7 451.697 273.798 452.287 273.995C453.075 273.995 453.861 273.995 454.648 273.995H456.715C456.715 272.814 456.715 271.731 456.715 270.747C456.912 269.565 457.01 268.482 457.01 267.498C457.403 265.924 457.6 264.447 457.6 263.068C457.798 261.689 457.993 260.213 458.191 258.638V257.161C458.388 256.571 458.486 256.078 458.486 255.685C458.486 255.094 458.584 254.503 458.781 253.913C458.978 253.52 459.076 253.322 459.076 253.322C458.879 251.55 458.978 249.778 459.371 248.006C459.962 246.234 460.355 244.56 460.552 242.985C460.945 240.82 461.34 238.653 461.733 236.488C462.323 234.323 462.816 232.156 463.209 229.991C463.406 228.809 463.602 227.726 463.799 226.742C464.192 225.561 464.487 224.379 464.684 223.198C465.077 221.624 465.275 220.047 465.275 218.473C465.472 216.898 465.767 215.322 466.16 213.747C466.358 211.975 466.553 210.203 466.751 208.431C466.948 206.659 467.243 204.79 467.636 202.82C468.029 200.851 468.227 198.981 468.227 197.209C468.424 195.239 468.719 193.272 469.112 191.302C469.505 189.137 469.8 186.97 469.998 184.805C470.391 182.639 470.785 180.473 471.178 178.307C471.571 176.339 471.867 174.468 472.064 172.696C472.457 170.727 472.852 168.758 473.245 166.789C473.638 165.214 473.933 163.639 474.13 162.064C474.328 160.489 474.721 158.914 475.311 157.339C475.901 155.173 476.394 153.007 476.787 150.841C477.18 148.676 478.065 146.608 479.443 144.639C479.641 144.443 479.739 144.246 479.739 144.049C479.936 143.852 480.132 143.655 480.329 143.458C480.722 142.08 481.51 141.391 482.69 141.391C484.461 141.391 485.74 141.981 486.528 143.163C487.511 145.132 488.496 147.593 489.479 150.546C489.872 151.531 490.168 152.515 490.365 153.499C490.758 154.484 490.858 155.468 490.66 156.453C490.463 157.634 490.562 158.717 490.955 159.701C491.546 160.686 491.939 161.769 492.136 162.95C492.136 165.116 492.234 167.282 492.431 169.447C492.629 171.613 492.924 173.779 493.317 175.945C493.317 176.929 493.317 178.012 493.317 179.193C493.514 180.375 493.71 181.458 493.907 182.442L494.793 195.732C494.99 198.292 495.088 200.851 495.088 203.411C495.285 205.773 495.58 208.234 495.973 210.794C496.366 213.55 496.761 216.012 497.154 218.177C497.154 218.375 497.056 218.571 496.859 218.768C496.859 218.768 496.859 218.966 496.859 219.359C496.662 220.933 496.564 222.51 496.564 224.084C496.564 225.659 496.466 227.235 496.269 228.809C496.269 229.991 496.171 231.172 495.973 232.353C495.973 233.337 495.876 234.323 495.678 235.307C495.678 236.291 495.678 236.783 495.678 236.783C495.678 238.358 495.678 239.934 495.678 241.509C495.876 243.083 496.071 244.66 496.269 246.234C496.466 247.809 496.466 249.581 496.269 251.55C495.876 252.534 495.678 253.617 495.678 254.799C495.876 255.783 495.876 256.768 495.678 257.752C495.088 258.343 494.595 258.736 494.202 258.933C493.809 259.327 493.317 259.524 492.726 259.524C492.136 259.327 491.841 258.836 491.841 258.047V250.959C491.643 249.581 491.546 248.204 491.546 246.825C491.546 245.446 491.546 244.069 491.546 242.69C491.546 240.327 491.546 238.063 491.546 235.897C491.743 233.535 491.841 231.172 491.841 228.809C491.841 226.249 491.841 223.789 491.841 221.426C491.841 218.866 491.743 216.308 491.546 213.747C491.153 209.613 490.758 205.478 490.365 201.343C489.972 197.011 489.577 192.779 489.184 188.644C488.987 187.07 488.889 185.493 488.889 183.919C489.086 182.147 489.086 180.473 488.889 178.898C488.692 177.323 488.496 175.846 488.299 174.468C488.101 172.893 487.806 171.318 487.413 169.743C487.413 168.365 487.315 167.085 487.118 165.903C487.118 164.722 487.02 163.541 486.823 162.359C486.43 160.194 486.035 158.126 485.642 156.157C485.445 153.992 485.15 151.826 484.757 149.66C484.559 148.873 484.068 147.888 483.281 146.707H482.69C482.493 147.297 482.297 147.888 482.1 148.479C481.903 149.069 481.707 149.66 481.51 150.251C481.312 150.841 481.117 151.53 480.919 152.318C480.919 152.909 480.821 153.499 480.624 154.09C480.231 155.665 479.836 157.142 479.443 158.52C479.246 159.701 478.951 161.08 478.558 162.655C478.165 164.033 477.77 165.313 477.377 166.494C477.18 167.675 476.984 168.857 476.787 170.038C476.589 171.023 476.492 171.909 476.492 172.696C476.492 173.484 476.394 174.271 476.196 175.059C475.803 176.634 475.409 178.307 475.016 180.079C474.623 181.655 474.228 183.23 473.835 184.805C474.425 185.789 474.623 186.774 474.425 187.758C474.425 188.546 474.228 189.432 473.835 190.416C473.638 190.809 473.54 191.302 473.54 191.893C473.54 192.286 473.442 192.681 473.245 193.074C473.245 193.467 473.147 193.763 472.949 193.96C472.949 193.96 472.949 194.158 472.949 194.551C472.556 196.913 472.261 199.276 472.064 201.639C471.867 203.804 471.571 206.069 471.178 208.431C470.981 209.81 470.785 211.089 470.588 212.271C470.588 213.452 470.49 214.633 470.293 215.815V216.701C469.505 217.882 469.112 219.161 469.112 220.54C469.112 221.721 468.915 223.001 468.522 224.379C467.734 226.94 467.243 229.203 467.046 231.172C466.849 231.565 466.751 231.96 466.751 232.353C466.948 232.747 466.948 233.142 466.751 233.535C466.751 234.519 466.553 235.8 466.16 237.374C465.963 238.949 465.472 240.82 464.684 242.985C463.897 245.151 463.406 247.12 463.209 248.892C463.011 249.876 462.816 250.862 462.618 251.845C462.618 252.829 462.816 253.815 463.209 254.799C463.406 255.783 463.406 256.669 463.209 257.457C463.011 258.047 462.816 258.736 462.618 259.524C462.225 261.099 461.83 262.773 461.438 264.545C461.045 266.119 460.749 267.696 460.552 269.27C460.355 269.861 460.355 270.549 460.552 271.337C460.749 271.928 460.945 272.716 461.142 273.7C462.126 273.7 463.111 273.798 464.094 273.995C465.077 273.995 466.16 273.898 467.341 273.7C468.324 273.7 468.817 273.207 468.817 272.223C469.21 271.042 469.505 269.959 469.703 268.975C469.9 267.793 469.703 266.514 469.112 265.135C468.522 262.773 468.62 260.41 469.407 258.047C469.8 256.078 470.195 254.208 470.588 252.436C471.178 250.664 471.571 248.794 471.769 246.825C471.966 245.446 472.162 244.167 472.359 242.985C472.752 241.607 473.147 240.13 473.54 238.555C473.933 237.767 474.13 237.079 474.13 236.488C473.933 234.914 474.032 233.535 474.425 232.353C474.818 230.975 475.213 229.498 475.606 227.923C475.803 226.94 475.901 226.054 475.901 225.265C475.901 224.282 475.901 223.296 475.901 222.312C476.099 221.721 476.196 221.229 476.196 220.835C476.394 220.245 476.885 219.852 477.672 219.654C477.672 218.473 477.77 217.685 477.967 217.291C478.36 216.11 478.656 215.126 478.853 214.338C479.246 212.959 479.836 212.271 480.624 212.271C481.607 212.468 482.395 212.566 482.986 212.566C483.773 212.566 484.461 212.959 485.052 213.747C486.035 215.126 486.528 216.503 486.528 217.882C486.725 219.063 486.921 220.442 487.118 222.017C487.315 223.789 487.413 225.561 487.413 227.333C487.611 229.105 487.806 230.975 488.004 232.944C488.004 234.323 488.004 235.7 488.004 237.079C488.201 238.458 488.201 239.934 488.004 241.509C487.611 242.888 487.511 244.167 487.708 245.348C488.101 246.529 488.101 247.809 487.708 249.187V251.255C487.906 253.617 488.004 255.98 488.004 258.343C488.201 260.508 488.397 262.773 488.594 265.135C488.594 266.514 488.004 267.301 486.823 267.498C485.445 267.498 484.659 266.907 484.461 265.726C484.068 264.152 483.674 262.477 483.281 260.705C482.888 258.933 482.888 257.161 483.281 255.389C483.674 254.406 483.674 253.42 483.281 252.436C483.083 251.255 482.888 250.073 482.69 248.892V248.006C482.69 245.841 482.69 243.674 482.69 241.509C482.69 239.344 482.888 237.177 483.281 235.011C483.674 233.042 483.576 231.172 482.986 229.4C482.593 227.431 482.395 225.463 482.395 223.493C482.395 222.903 482.395 222.312 482.395 221.721C482.395 220.933 482.297 220.147 482.1 219.359H481.805C481.412 220.933 481.017 222.51 480.624 224.084C480.231 225.659 479.836 227.235 479.443 228.809C478.853 230.975 478.558 233.142 478.558 235.307C478.558 237.276 478.36 239.344 477.967 241.509C477.967 241.902 477.87 242.099 477.672 242.099C476.492 244.069 475.803 246.136 475.606 248.301C475.409 250.467 475.114 252.634 474.721 254.799C474.328 256.178 474.13 257.654 474.13 259.229C474.328 260.608 474.425 261.985 474.425 263.363C474.032 266.119 473.638 268.286 473.245 269.861C473.245 270.254 473.147 270.747 472.949 271.337C472.949 271.928 472.949 272.421 472.949 272.814C472.949 273.602 473.147 273.995 473.54 273.995C473.933 273.995 474.328 273.995 474.721 273.995C476.294 273.995 477.77 273.995 479.148 273.995C480.722 273.995 482.297 274.093 483.871 274.291C486.232 274.291 488.791 274.586 491.546 275.177C492.529 275.374 493.612 275.472 494.793 275.472C495.973 275.472 497.154 275.67 498.335 276.063C499.908 276.456 500.204 277.442 499.22 279.016L494.793 286.104C493.809 287.876 492.726 289.648 491.546 291.42C490.562 292.995 489.577 294.669 488.594 296.441C488.201 297.031 487.906 297.622 487.708 298.213C487.708 298.803 487.511 299.492 487.118 300.28H488.594C488.987 300.673 489.282 301.068 489.479 301.461C488.889 302.052 488.594 302.347 488.594 302.347C486.823 302.938 485.937 304.022 485.937 305.596C485.937 307.171 485.84 308.747 485.642 310.321C485.445 311.7 485.347 313.177 485.347 314.751C485.15 316.721 484.954 318.591 484.757 320.363C484.757 322.135 484.659 324.005 484.461 325.974C484.264 328.73 484.166 331.388 484.166 333.948C484.166 336.311 484.068 338.871 483.871 341.627C483.871 343.596 483.871 345.564 483.871 347.533C484.068 349.503 484.068 351.471 483.871 353.44C483.871 355.605 483.773 357.673 483.576 359.642C483.378 361.414 483.083 363.384 482.69 365.549C482.493 367.123 482.297 368.7 482.1 370.274C481.903 371.849 481.607 373.523 481.214 375.295C483.969 375.688 486.035 376.083 487.413 376.476C487.806 376.674 488.101 376.869 488.299 377.067C488.692 377.264 489.087 377.46 489.479 377.657C489.087 377.855 488.692 378.051 488.299 378.248C488.101 378.641 487.806 378.839 487.413 378.839C486.233 378.839 484.854 378.641 483.281 378.248C482.297 377.855 481.707 377.755 481.51 377.953C481.312 378.15 481.214 378.741 481.214 379.725C481.214 380.709 481.214 381.694 481.214 382.678C481.214 383.662 481.312 384.648 481.51 385.631C481.51 386.813 481.117 387.403 480.329 387.403C478.36 387.797 477.377 387.403 477.377 386.222V378.543C477.377 377.362 476.984 376.574 476.196 376.181C472.852 375.197 469.998 373.916 467.636 372.341C465.275 371.358 463.996 369.586 463.799 367.025C463.799 366.828 463.602 366.139 463.209 364.958C462.225 362.595 461.535 359.74 461.142 356.393C460.552 353.44 460.454 350.094 460.847 346.352C461.045 345.171 461.045 343.989 460.847 342.808C460.65 341.627 460.552 340.445 460.552 339.264V337.197C460.552 336.213 460.552 335.327 460.552 334.539C460.552 333.555 460.65 332.569 460.847 331.585C460.847 330.602 460.749 329.716 460.552 328.927C460.355 328.139 460.257 327.353 460.257 326.565C460.059 325.581 460.159 324.104 460.552 322.135C460.749 321.151 460.749 320.363 460.552 319.772C460.355 318.984 460.355 318.098 460.552 317.114C460.945 315.145 461.142 313.177 461.142 311.207C461.34 309.238 461.93 307.27 462.913 305.301C463.504 304.317 463.111 303.824 461.733 303.824H454.648C453.665 303.824 452.582 303.824 451.401 303.824C450.418 303.627 449.433 303.431 448.45 303.233C447.466 303.233 446.383 303.233 445.203 303.233C444.219 303.233 443.234 303.136 442.251 302.938C441.07 302.741 439.89 302.643 438.709 302.643C437.528 302.445 436.347 302.347 435.167 302.347C433.198 301.954 431.329 301.757 429.558 301.757C427.787 301.559 426.016 301.264 424.245 300.871C421.491 300.478 418.734 300.083 415.98 299.689C413.226 299.099 410.469 298.606 407.715 298.213C405.354 297.82 402.992 297.327 400.631 296.736C398.467 296.145 396.301 295.653 394.137 295.259C393.349 295.062 392.563 295.062 391.775 295.259C391.185 295.259 390.397 295.259 389.414 295.259C385.872 295.259 384.298 293.487 384.691 289.943C384.889 288.96 384.986 287.876 384.986 286.695C384.986 285.513 384.986 284.332 384.986 283.151L385.872 275.177V270.451C385.872 268.877 386.56 268.089 387.938 268.089C388.921 267.891 389.807 267.891 390.595 268.089C391.383 268.089 392.268 267.991 393.251 267.793C396.203 267.4 399.155 267.4 402.107 267.793C405.059 267.991 408.01 268.286 410.962 268.679C412.733 268.877 414.406 269.073 415.98 269.27C417.751 269.468 419.424 269.861 420.998 270.451C422.179 271.042 423.36 271.337 424.54 271.337C425.918 271.14 427.197 271.435 428.378 272.223C428.575 272.223 428.673 272.126 428.673 271.928ZM494.793 277.835C493.219 277.637 491.644 277.442 490.07 277.244C488.692 277.047 487.216 276.851 485.642 276.653C484.659 276.456 483.576 276.358 482.395 276.358C481.412 276.161 480.427 276.063 479.443 276.063C477.87 276.063 476.394 276.161 475.016 276.358C473.638 276.358 472.162 276.456 470.588 276.653H469.407C467.636 276.063 465.865 275.865 464.094 276.063C462.52 276.26 460.847 276.26 459.076 276.063C457.698 275.865 456.322 275.865 454.944 276.063C453.763 276.063 452.484 276.063 451.106 276.063C448.942 276.063 446.776 276.063 444.612 276.063C442.448 275.865 440.282 275.67 438.118 275.472C436.545 275.275 435.069 275.177 433.691 275.177C432.313 275.177 430.936 274.979 429.558 274.586C427.394 274.193 425.328 273.798 423.36 273.405C421.588 273.012 419.62 272.617 417.456 272.223C415.292 271.83 413.028 271.535 410.667 271.337C408.503 271.14 406.337 270.944 404.173 270.747C401.812 270.354 399.45 270.156 397.089 270.156C394.925 270.156 392.661 270.354 390.3 270.747C389.512 270.944 389.119 271.435 389.119 272.223C389.119 273.012 389.021 273.798 388.824 274.586C388.824 275.177 388.824 275.865 388.824 276.653C388.626 277.835 388.431 279.016 388.233 280.197C388.036 281.181 387.938 282.167 387.938 283.151C387.741 284.332 387.643 285.611 387.643 286.99C387.84 288.171 388.036 289.353 388.233 290.534C388.233 291.913 388.921 292.601 390.3 292.601C392.071 292.601 393.349 292.699 394.137 292.897C395.711 293.29 397.089 293.685 398.269 294.078C399.648 294.276 401.024 294.571 402.402 294.964C403.976 295.357 405.451 295.653 406.83 295.85C408.208 296.048 409.584 296.343 410.962 296.736C412.143 296.934 413.323 297.229 414.504 297.622C415.685 297.82 416.963 298.015 418.342 298.213C420.506 298.606 422.769 298.901 425.131 299.099C427.492 299.296 429.756 299.492 431.92 299.689C433.298 299.887 434.674 300.083 436.052 300.28C437.43 300.28 438.807 300.378 440.185 300.575C442.153 300.773 444.022 300.969 445.793 301.166C447.564 301.166 449.433 301.166 451.401 301.166C453.173 301.364 454.944 301.461 456.715 301.461C458.486 301.461 460.159 301.461 461.733 301.461C463.111 301.855 463.799 301.364 463.799 299.985L464.684 293.783C464.684 292.404 465.275 291.715 466.456 291.715C467.439 291.715 468.227 291.715 468.817 291.715C469.605 291.518 470.49 291.42 471.474 291.42C472.852 291.42 474.13 291.518 475.311 291.715C476.492 291.715 477.77 291.715 479.148 291.715H485.347C486.921 291.715 487.806 291.125 488.004 289.943C488.201 289.55 488.397 289.255 488.594 289.057C488.791 288.664 488.987 288.269 489.184 287.876C489.775 287.088 490.365 286.302 490.955 285.513C491.546 284.725 492.136 283.839 492.726 282.855C493.119 282.067 493.415 281.281 493.612 280.493C494.005 279.705 494.4 278.819 494.793 277.835ZM477.672 373.818C477.87 373.03 477.967 372.341 477.967 371.751C477.967 370.963 478.065 370.274 478.263 369.683C478.656 368.109 478.853 366.632 478.853 365.253C479.05 363.679 479.246 362.103 479.443 360.528C479.641 358.363 479.836 356.296 480.034 354.326C480.231 352.161 480.132 349.994 479.739 347.829V347.533C479.936 344.58 480.132 341.627 480.329 338.673C480.526 335.72 480.722 332.767 480.919 329.813C481.117 327.058 481.214 324.3 481.214 321.544C481.214 318.591 481.412 315.735 481.805 312.979C482.002 312.191 481.707 311.503 480.919 310.912C480.329 310.715 480.034 310.124 480.034 309.14C480.427 307.171 480.822 305.694 481.214 304.71C481.805 303.529 481.51 302.938 480.329 302.938H478.853C477.082 302.938 475.311 303.036 473.54 303.233C471.966 303.233 470.391 303.233 468.817 303.233C467.046 303.431 466.063 304.217 465.865 305.596C465.472 307.368 465.177 309.14 464.98 310.912C464.782 312.684 464.587 314.456 464.389 316.228C464.192 317.803 464.094 319.279 464.094 320.658C464.094 322.037 464.094 323.514 464.094 325.088C464.094 326.467 464.094 327.844 464.094 329.223C464.292 330.404 464.389 331.585 464.389 332.767C464.389 336.113 464.389 339.362 464.389 342.513C464.389 345.664 464.487 348.912 464.684 352.259C464.882 354.228 465.077 356.196 465.275 358.165C465.472 359.937 465.767 361.807 466.16 363.777C466.948 366.533 468.324 368.895 470.293 370.865C472.457 372.637 474.918 373.621 477.672 373.818ZM483.576 294.078C483.378 293.881 483.183 293.783 482.986 293.783H469.998C469.605 293.783 469.112 294.078 468.522 294.669C468.129 295.653 467.834 296.736 467.636 297.917C467.636 298.901 467.439 299.985 467.046 301.166H469.112C471.276 300.969 473.342 300.871 475.311 300.871C477.475 300.871 479.641 300.773 481.805 300.575C482.593 300.575 483.183 300.182 483.576 299.394V294.078ZM401.516 250.073C401.714 249.09 401.714 248.204 401.516 247.415C401.319 246.627 401.419 245.741 401.812 244.757C402.204 243.969 402.599 243.281 402.992 242.69C403.385 241.902 403.385 241.016 402.992 240.032C402.795 239.244 402.894 238.458 403.287 237.669C403.68 236.881 404.075 235.995 404.468 235.011C404.861 233.83 405.256 232.747 405.649 231.763C406.239 230.581 406.732 229.4 407.125 228.219C407.322 227.826 407.322 227.431 407.125 227.037C407.125 226.644 407.125 226.249 407.125 225.856C406.534 224.282 406.927 222.903 408.305 221.721C407.322 220.738 407.027 219.949 407.42 219.359C408.01 218.571 408.503 217.882 408.896 217.291C409.289 215.913 409.486 214.633 409.486 213.452C409.684 212.271 409.879 210.992 410.077 209.613C410.077 208.825 409.979 208.136 409.781 207.545C409.584 206.955 409.486 206.266 409.486 205.478C409.289 205.085 409.191 204.494 409.191 203.706C409.781 203.706 410.274 203.706 410.667 203.706C411.257 203.509 411.848 203.411 412.438 203.411C413.421 203.608 413.914 204.099 413.914 204.887C414.111 205.478 414.307 206.069 414.504 206.659C414.702 209.415 414.799 212.073 414.799 214.633C414.799 217.194 414.897 219.752 415.095 222.312C415.095 229.991 415.39 237.472 415.98 244.757C415.98 246.332 416.177 247.908 416.57 249.483C416.963 250.862 417.259 252.338 417.456 253.913C417.653 255.094 417.751 256.275 417.751 257.457C417.751 258.638 417.849 259.819 418.046 261.001C418.046 261.591 418.144 262.182 418.342 262.773C418.539 263.166 418.637 263.659 418.637 264.249C418.637 265.431 418.539 266.119 418.342 266.317C416.963 266.71 415.98 266.81 415.39 266.612C415.192 266.415 415.095 266.119 415.095 265.726C415.095 265.333 414.997 264.938 414.799 264.545C414.012 262.97 413.521 261.689 413.323 260.705C413.126 259.722 412.931 258.736 412.733 257.752C412.536 256.571 412.438 255.487 412.438 254.503C412.241 252.929 412.143 251.55 412.143 250.369C412.143 248.99 411.945 247.513 411.552 245.939C410.569 242.788 410.174 239.934 410.372 237.374C410.765 235.995 410.962 234.716 410.962 233.535C410.962 232.156 410.962 230.779 410.962 229.4C410.962 229.203 410.864 229.007 410.667 228.809C410.667 228.612 410.667 228.416 410.667 228.219C410.274 228.021 410.077 227.923 410.077 227.923C410.077 228.317 409.979 228.612 409.781 228.809L406.239 243.871C405.649 246.037 405.059 248.104 404.468 250.073C403.878 252.043 403.385 254.11 402.992 256.275C402.009 259.229 402.009 262.182 402.992 265.135C403.19 265.529 403.19 265.824 402.992 266.021C402.795 266.219 402.697 266.415 402.697 266.612C401.319 266.612 400.631 266.415 400.631 266.021C400.238 265.038 399.843 264.152 399.45 263.363C399.057 262.38 399.057 261.198 399.45 259.819C399.843 258.836 399.943 257.752 399.745 256.571C399.745 255.192 399.843 253.913 400.04 252.731C400.238 252.141 400.729 251.255 401.516 250.073Z" fill="white"/>
</g>
</g>
<defs>
<clipPath id="clip0_140_247">
<rect width="880" height="886" fill="white"/>
</clipPath>
</defs>
</svg>
