<svg width="878" height="886" viewBox="0 0 878 886" fill="none" xmlns="http://www.w3.org/2000/svg">
<g clip-path="url(#clip0_140_256)">
<mask id="mask0_140_256" style="mask-type:luminance" maskUnits="userSpaceOnUse" x="0" y="0" width="878" height="886">
<path d="M878 0H0V886H878V0Z" fill="white"/>
</mask>
<g mask="url(#mask0_140_256)">
<path d="M878 0H-3.68896V313.792H878V0Z" fill="#7036CC"/>
<path d="M878 313.792H-3.68896V886H878V313.792Z" fill="#3D1F6D"/>
<path d="M430.737 170.259C430.737 169.373 430.589 168.34 430.294 167.158C430.146 165.091 429.999 163.024 429.851 160.956C429.704 158.889 429.556 156.822 429.408 154.754C429.113 152.244 428.892 149.881 428.744 147.666C428.744 145.304 428.671 142.941 428.523 140.578C428.376 139.397 428.228 138.142 428.08 136.813C428.08 135.484 427.933 134.229 427.638 133.047C427.49 131.866 427.343 130.685 427.195 129.503C427.047 128.322 426.826 127.141 426.531 125.959C426.383 125.221 426.236 124.409 426.088 123.523C426.088 122.637 425.941 121.825 425.646 121.086C425.35 119.462 425.055 117.911 424.76 116.435C424.613 114.81 424.391 113.186 424.096 111.562C423.949 111.266 423.875 111.045 423.875 110.897C424.022 110.75 424.096 110.528 424.096 110.233C424.096 109.79 424.022 109.347 423.875 108.904C423.875 108.461 423.875 107.944 423.875 107.353C423.875 107.206 423.801 107.132 423.653 107.132C423.653 106.984 423.653 106.836 423.653 106.689C423.653 105.507 423.58 104.474 423.432 103.588C423.432 102.554 423.432 101.447 423.432 100.265V90.5193V87.4183C423.432 86.237 423.358 85.1295 423.211 84.0958C423.211 82.9145 423.137 81.7332 422.989 80.5518C422.989 78.9275 422.473 77.1555 421.44 75.2358C421.145 76.7125 420.85 78.1153 420.555 79.4443C420.26 80.6257 420.186 81.8808 420.333 83.2098V83.6528C420.038 84.5388 419.743 85.4248 419.448 86.3108C419.3 87.1968 419.079 88.1567 418.784 89.1903C418.636 89.9287 418.489 90.5932 418.341 91.1838C418.194 91.7745 418.046 92.439 417.899 93.1773C417.751 94.211 417.603 95.2447 417.456 96.2783C417.308 97.312 417.087 98.3457 416.792 99.3793C416.792 100.118 416.792 100.856 416.792 101.594C416.792 102.333 416.718 103.071 416.57 103.809C416.275 104.843 416.054 105.877 415.906 106.91C415.906 107.796 415.759 108.756 415.464 109.79C415.169 110.971 414.947 112.226 414.8 113.555C414.8 114.884 414.652 116.139 414.357 117.321L413.693 119.979C413.398 121.603 413.029 123.154 412.586 124.63C412.291 126.107 411.996 127.584 411.701 129.06C411.553 130.242 411.406 131.349 411.258 132.383C411.258 133.269 411.184 134.302 411.037 135.484L410.373 139.471C410.078 140.652 409.93 141.76 409.93 142.793C409.93 143.827 409.783 144.861 409.487 145.894C409.34 146.633 409.119 147.297 408.823 147.888C408.676 148.478 408.528 149.143 408.381 149.881C407.938 151.358 407.495 152.761 407.053 154.09C406.758 155.419 406.462 156.748 406.167 158.077C405.725 159.701 404.913 161.547 403.732 163.614C403.29 164.353 403.068 164.869 403.068 165.165C403.068 165.312 403.29 165.755 403.732 166.494C403.29 166.789 402.552 166.863 401.519 166.715C400.634 166.42 400.191 166.051 400.191 165.608C400.043 165.312 400.117 164.796 400.412 164.057C400.707 163.467 400.855 163.024 400.855 162.728C401.298 161.695 401.667 160.735 401.962 159.849C402.404 158.815 402.773 157.781 403.068 156.748C403.364 155.862 403.659 154.976 403.954 154.09C404.397 153.056 404.765 152.022 405.061 150.989C405.356 149.955 405.577 148.921 405.725 147.888C405.872 146.854 406.094 145.747 406.389 144.565C406.536 144.122 406.61 143.679 406.61 143.236C406.61 142.646 406.684 142.129 406.831 141.686V141.021C407.126 140.283 407.348 139.618 407.495 139.028C407.643 138.289 407.864 137.551 408.159 136.813C408.159 136.222 408.307 135.484 408.602 134.598C408.602 134.155 408.528 133.712 408.381 133.269C408.381 132.826 408.455 132.457 408.602 132.161C408.897 130.832 409.045 129.503 409.045 128.174C409.045 126.845 409.119 125.516 409.266 124.187C409.266 123.597 409.414 123.006 409.709 122.415C410.004 121.825 410.225 121.234 410.373 120.643C410.668 119.757 410.816 119.093 410.816 118.65C410.963 117.911 411.111 117.247 411.258 116.656C411.406 116.066 411.553 115.401 411.701 114.663C411.848 113.924 411.922 113.186 411.922 112.448C411.922 111.709 411.996 110.971 412.144 110.233L412.808 106.91C412.955 106.615 413.029 106.024 413.029 105.138C413.177 104.695 413.177 104.252 413.029 103.809C412.881 103.219 413.103 102.776 413.693 102.48C413.693 102.48 413.693 102.185 413.693 101.594C413.398 100.413 413.324 99.3055 413.472 98.2718C413.767 97.2382 414.136 96.2045 414.578 95.1708C414.726 94.7278 414.8 94.3587 414.8 94.0633C414.947 93.6203 415.095 93.1773 415.242 92.7343C415.39 91.553 415.538 90.3717 415.685 89.1903C415.833 88.009 415.98 86.8277 416.128 85.6463L416.792 82.3238C417.087 81.2902 417.308 80.3303 417.456 79.4443C417.751 78.4107 418.046 77.4508 418.341 76.5648L419.005 73.9068L419.669 69.9198C419.817 69.0338 420.407 68.5908 421.44 68.5908C423.063 68.8862 424.096 69.7722 424.539 71.2488C424.834 72.7255 425.129 74.1283 425.424 75.4573C425.867 76.7863 426.162 78.1892 426.31 79.6658C426.605 81.7332 426.9 83.8743 427.195 86.0893C427.49 88.1567 427.49 90.2978 427.195 92.5128C427.047 93.3988 427.047 94.2848 427.195 95.1708C427.343 96.0568 427.416 96.9428 427.416 97.8288V103.145C427.564 104.769 427.638 106.32 427.638 107.796C427.785 109.125 427.933 110.602 428.08 112.226C428.228 113.555 428.376 114.884 428.523 116.213C428.671 117.542 428.892 118.871 429.187 120.2C429.335 121.382 429.482 122.489 429.63 123.523C429.925 124.409 430.22 125.442 430.515 126.624C430.81 128.543 431.032 130.389 431.179 132.161C431.327 133.933 431.548 135.779 431.843 137.699C431.991 138.585 432.065 139.471 432.065 140.357C432.212 141.243 432.434 142.055 432.729 142.793V144.122V150.324C432.729 151.063 432.729 151.875 432.729 152.761C432.876 153.647 432.95 154.459 432.95 155.197C432.95 156.379 433.098 157.56 433.393 158.741C433.688 159.923 433.688 161.104 433.393 162.285C433.245 163.024 433.245 163.836 433.393 164.722C433.688 165.608 433.909 166.42 434.057 167.158C434.204 167.601 434.278 168.192 434.278 168.93C434.278 170.555 435.09 171.367 436.713 171.367C437.303 171.219 438.188 171.145 439.369 171.145C440.549 171.293 441.804 171.367 443.132 171.367C444.46 171.367 445.714 171.441 446.895 171.588C447.485 171.588 448.001 171.662 448.444 171.81C449.034 171.81 449.625 171.81 450.215 171.81H451.764C451.764 170.924 451.764 170.112 451.764 169.373C451.912 168.487 451.986 167.675 451.986 166.937C452.281 165.755 452.428 164.648 452.428 163.614C452.576 162.581 452.723 161.473 452.871 160.292V159.184C453.019 158.741 453.092 158.372 453.092 158.077C453.092 157.634 453.166 157.191 453.314 156.748C453.461 156.452 453.535 156.305 453.535 156.305C453.387 154.976 453.461 153.647 453.756 152.318C454.199 150.989 454.494 149.734 454.642 148.552C454.937 146.928 455.232 145.304 455.527 143.679C455.97 142.055 456.339 140.431 456.634 138.806C456.781 137.92 456.929 137.108 457.077 136.37C457.372 135.484 457.593 134.598 457.741 133.712C458.036 132.53 458.183 131.349 458.183 130.168C458.331 128.986 458.552 127.805 458.847 126.624C458.995 125.295 459.142 123.966 459.29 122.637C459.438 121.308 459.659 119.905 459.954 118.428C460.249 116.952 460.397 115.549 460.397 114.22C460.544 112.743 460.766 111.266 461.061 109.79C461.356 108.165 461.577 106.541 461.725 104.917C462.02 103.292 462.315 101.668 462.61 100.044C462.905 98.5672 463.127 97.1643 463.274 95.8353C463.569 94.3587 463.864 92.882 464.16 91.4053C464.455 90.224 464.676 89.0427 464.824 87.8613C464.971 86.68 465.266 85.4987 465.709 84.3173C466.152 82.693 466.521 81.0687 466.816 79.4443C467.111 77.82 467.775 76.2695 468.808 74.7928C468.955 74.6452 469.029 74.4975 469.029 74.3498C469.177 74.2022 469.324 74.0545 469.472 73.9068C469.767 72.8732 470.357 72.3563 471.243 72.3563C472.571 72.3563 473.53 72.7993 474.12 73.6853C474.858 75.162 475.596 77.0078 476.333 79.2228C476.629 79.9612 476.85 80.6995 476.998 81.4378C477.293 82.1762 477.366 82.9145 477.219 83.6528C477.071 84.5388 477.145 85.351 477.44 86.0893C477.883 86.8277 478.178 87.6398 478.326 88.5258C478.326 90.1502 478.399 91.7745 478.547 93.3988C478.695 95.0232 478.916 96.6475 479.211 98.2718C479.211 99.0102 479.211 99.8223 479.211 100.708C479.359 101.594 479.506 102.406 479.654 103.145L480.318 113.112C480.465 115.032 480.539 116.952 480.539 118.871C480.687 120.643 480.908 122.489 481.203 124.409C481.498 126.476 481.793 128.322 482.088 129.946C482.088 130.094 482.015 130.242 481.867 130.389C481.867 130.389 481.867 130.537 481.867 130.832C481.72 132.014 481.646 133.195 481.646 134.376C481.646 135.558 481.572 136.739 481.424 137.92C481.424 138.806 481.351 139.692 481.203 140.578C481.203 141.317 481.129 142.055 480.982 142.793C480.982 143.532 480.982 143.901 480.982 143.901C480.982 145.082 480.982 146.263 480.982 147.445C481.129 148.626 481.277 149.807 481.424 150.989C481.572 152.17 481.572 153.499 481.424 154.976C481.129 155.714 480.982 156.526 480.982 157.412C481.129 158.151 481.129 158.889 480.982 159.627C480.539 160.07 480.17 160.366 479.875 160.513C479.58 160.809 479.211 160.956 478.768 160.956C478.326 160.809 478.104 160.439 478.104 159.849V154.533C477.957 153.499 477.883 152.465 477.883 151.432C477.883 150.398 477.883 149.364 477.883 148.331C477.883 146.559 477.883 144.861 477.883 143.236C478.03 141.464 478.104 139.692 478.104 137.92C478.104 136.001 478.104 134.155 478.104 132.383C478.104 130.463 478.03 128.543 477.883 126.624C477.588 123.523 477.293 120.422 476.998 117.321C476.702 114.072 476.407 110.897 476.112 107.796C475.965 106.615 475.891 105.434 475.891 104.252C476.038 102.923 476.038 101.668 475.891 100.487C475.743 99.3055 475.596 98.198 475.448 97.1643C475.301 95.983 475.079 94.8017 474.784 93.6203C474.784 92.5867 474.71 91.6268 474.563 90.7408C474.563 89.8548 474.489 88.9688 474.341 88.0828C474.046 86.4585 473.751 84.908 473.456 83.4313C473.308 81.807 473.087 80.1827 472.792 78.5583C472.644 77.9677 472.276 77.2293 471.685 76.3433H471.243C471.095 76.7863 470.947 77.2293 470.8 77.6723C470.652 78.1153 470.505 78.5583 470.357 79.0013C470.21 79.4443 470.062 79.9612 469.914 80.5518C469.914 80.9948 469.841 81.4378 469.693 81.8808C469.398 83.0622 469.103 84.1697 468.808 85.2033C468.66 86.0893 468.439 87.123 468.144 88.3043C467.849 89.338 467.554 90.2978 467.258 91.1838C467.111 92.0698 466.963 92.9558 466.816 93.8418C466.668 94.5802 466.594 95.2447 466.594 95.8353C466.594 96.426 466.521 97.0167 466.373 97.6073C466.078 98.7887 465.783 100.044 465.488 101.373C465.192 102.554 464.897 103.735 464.602 104.917C465.045 105.655 465.192 106.393 465.045 107.132C465.045 107.722 464.897 108.387 464.602 109.125C464.455 109.421 464.381 109.79 464.381 110.233C464.381 110.528 464.307 110.823 464.16 111.119C464.16 111.414 464.086 111.636 463.938 111.783C463.938 111.783 463.938 111.931 463.938 112.226C463.643 113.998 463.422 115.77 463.274 117.542C463.127 119.167 462.905 120.865 462.61 122.637C462.463 123.67 462.315 124.63 462.167 125.516C462.167 126.402 462.094 127.288 461.946 128.174V128.839C461.356 129.725 461.061 130.685 461.061 131.718C461.061 132.604 460.913 133.564 460.618 134.598C460.028 136.517 459.659 138.216 459.511 139.692C459.364 139.988 459.29 140.283 459.29 140.578C459.438 140.874 459.438 141.169 459.29 141.464C459.29 142.203 459.142 143.162 458.847 144.344C458.7 145.525 458.331 146.928 457.741 148.552C457.15 150.177 456.781 151.653 456.634 152.982C456.486 153.721 456.339 154.459 456.191 155.197C456.191 155.936 456.339 156.674 456.634 157.412C456.781 158.151 456.781 158.815 456.634 159.406C456.486 159.849 456.339 160.366 456.191 160.956C455.896 162.138 455.601 163.393 455.306 164.722C455.011 165.903 454.789 167.084 454.642 168.266C454.494 168.709 454.494 169.226 454.642 169.816C454.789 170.259 454.937 170.85 455.084 171.588C455.822 171.588 456.56 171.662 457.298 171.81C458.036 171.81 458.847 171.736 459.733 171.588C460.47 171.588 460.839 171.219 460.839 170.481C461.134 169.595 461.356 168.783 461.503 168.044C461.651 167.158 461.503 166.198 461.061 165.165C460.618 163.393 460.692 161.621 461.282 159.849C461.577 158.372 461.872 156.969 462.167 155.64C462.61 154.311 462.905 152.908 463.053 151.432C463.2 150.398 463.348 149.438 463.496 148.552C463.791 147.519 464.086 146.411 464.381 145.23C464.676 144.639 464.824 144.122 464.824 143.679C464.676 142.498 464.75 141.464 465.045 140.578C465.34 139.545 465.635 138.437 465.93 137.256C466.078 136.517 466.152 135.853 466.152 135.262C466.152 134.524 466.152 133.786 466.152 133.047C466.299 132.604 466.373 132.235 466.373 131.94C466.521 131.497 466.889 131.201 467.48 131.054C467.48 130.168 467.553 129.577 467.701 129.282C467.996 128.396 468.218 127.657 468.365 127.067C468.66 126.033 469.103 125.516 469.693 125.516C470.431 125.664 471.021 125.738 471.464 125.738C472.054 125.738 472.571 126.033 473.013 126.624C473.751 127.657 474.12 128.691 474.12 129.725C474.268 130.611 474.415 131.644 474.563 132.826C474.71 134.155 474.784 135.484 474.784 136.813C474.932 138.142 475.079 139.545 475.227 141.021C475.227 142.055 475.227 143.089 475.227 144.122C475.374 145.156 475.374 146.263 475.227 147.445C474.932 148.478 474.858 149.438 475.005 150.324C475.301 151.21 475.301 152.17 475.005 153.204V154.754C475.153 156.526 475.227 158.298 475.227 160.07C475.374 161.695 475.522 163.393 475.669 165.165C475.669 166.198 475.227 166.789 474.341 166.937C473.308 166.937 472.718 166.494 472.571 165.608C472.276 164.426 471.98 163.171 471.685 161.842C471.39 160.513 471.39 159.184 471.685 157.855C471.98 157.117 471.98 156.379 471.685 155.64C471.538 154.754 471.39 153.868 471.243 152.982V152.318C471.243 150.693 471.243 149.069 471.243 147.445C471.243 145.82 471.39 144.196 471.685 142.572C471.98 141.095 471.907 139.692 471.464 138.363C471.169 136.887 471.021 135.41 471.021 133.933C471.021 133.49 471.021 133.047 471.021 132.604C471.021 132.014 470.947 131.423 470.8 130.832H470.579C470.283 132.014 469.988 133.195 469.693 134.376C469.398 135.558 469.103 136.739 468.808 137.92C468.365 139.545 468.144 141.169 468.144 142.793C468.144 144.27 467.996 145.82 467.701 147.445C467.701 147.74 467.627 147.888 467.48 147.888C466.594 149.364 466.078 150.915 465.93 152.539C465.783 154.164 465.561 155.788 465.266 157.412C464.971 158.446 464.824 159.553 464.824 160.735C464.971 161.768 465.045 162.802 465.045 163.836C464.75 165.903 464.455 167.527 464.16 168.709C464.16 169.004 464.086 169.373 463.938 169.816C463.938 170.259 463.938 170.628 463.938 170.924C463.938 171.514 464.086 171.81 464.381 171.81C464.676 171.81 464.971 171.81 465.266 171.81C466.447 171.81 467.553 171.81 468.586 171.81C469.767 171.81 470.947 171.884 472.128 172.031C473.899 172.031 475.817 172.253 477.883 172.696C478.621 172.843 479.432 172.917 480.318 172.917C481.203 172.917 482.088 173.065 482.974 173.36C484.154 173.656 484.376 174.394 483.638 175.575L480.318 180.891C479.58 182.22 478.768 183.549 477.883 184.878C477.145 186.06 476.407 187.315 475.669 188.644C475.374 189.087 475.153 189.53 475.005 189.973C475.005 190.416 474.858 190.933 474.563 191.523H475.669C475.965 191.819 476.186 192.114 476.333 192.409C475.891 192.852 475.669 193.074 475.669 193.074C474.341 193.517 473.677 194.329 473.677 195.51C473.677 196.692 473.604 197.873 473.456 199.054C473.308 200.088 473.235 201.195 473.235 202.377C473.087 203.853 472.94 205.256 472.792 206.585C472.792 207.914 472.718 209.317 472.571 210.794C472.423 212.861 472.349 214.855 472.349 216.774C472.349 218.546 472.276 220.466 472.128 222.533C472.128 224.01 472.128 225.487 472.128 226.963C472.276 228.44 472.276 229.917 472.128 231.393C472.128 233.018 472.054 234.568 471.907 236.045C471.759 237.374 471.538 238.85 471.243 240.475C471.095 241.656 470.947 242.837 470.8 244.019C470.652 245.2 470.431 246.455 470.136 247.784C472.202 248.08 473.751 248.375 474.784 248.67C475.079 248.818 475.301 248.966 475.448 249.113C475.743 249.261 476.038 249.409 476.333 249.556C476.038 249.704 475.743 249.852 475.448 249.999C475.301 250.295 475.079 250.442 474.784 250.442C473.899 250.442 472.866 250.295 471.685 249.999C470.947 249.704 470.505 249.63 470.357 249.778C470.21 249.925 470.136 250.368 470.136 251.107C470.136 251.845 470.136 252.583 470.136 253.322C470.136 254.06 470.21 254.798 470.357 255.537C470.357 256.423 470.062 256.866 469.472 256.866C467.996 257.161 467.258 256.866 467.258 255.98V250.221C467.258 249.335 466.963 248.744 466.373 248.449C463.864 247.71 461.725 246.751 459.954 245.569C458.183 244.831 457.224 243.502 457.077 241.582C457.077 241.435 456.929 240.918 456.634 240.032C455.896 238.26 455.38 236.119 455.084 233.608C454.642 231.393 454.568 228.883 454.863 226.077C455.011 225.191 455.011 224.305 454.863 223.419C454.716 222.533 454.642 221.647 454.642 220.761V219.211C454.642 218.472 454.642 217.808 454.642 217.217C454.642 216.479 454.716 215.741 454.863 215.002C454.863 214.264 454.789 213.599 454.642 213.009C454.494 212.418 454.42 211.827 454.42 211.237C454.273 210.498 454.347 209.391 454.642 207.914C454.789 207.176 454.789 206.585 454.642 206.142C454.494 205.552 454.494 204.887 454.642 204.149C454.937 202.672 455.084 201.195 455.084 199.719C455.232 198.242 455.675 196.765 456.412 195.289C456.855 194.55 456.56 194.181 455.527 194.181H450.215C449.477 194.181 448.665 194.181 447.78 194.181C447.042 194.034 446.304 193.886 445.567 193.738C444.829 193.738 444.017 193.738 443.132 193.738C442.394 193.738 441.656 193.664 440.918 193.517C440.033 193.369 439.148 193.295 438.262 193.295C437.377 193.148 436.491 193.074 435.606 193.074C434.13 192.778 432.729 192.631 431.401 192.631C430.072 192.483 428.744 192.262 427.416 191.966C425.35 191.671 423.285 191.376 421.219 191.08C419.153 190.637 417.087 190.268 415.021 189.973C413.25 189.677 411.48 189.308 409.709 188.865C408.086 188.422 406.462 188.053 404.839 187.758C404.249 187.61 403.659 187.61 403.068 187.758C402.626 187.758 402.036 187.758 401.298 187.758C398.642 187.758 397.461 186.429 397.756 183.771C397.904 183.032 397.978 182.22 397.978 181.334C397.978 180.448 397.978 179.562 397.978 178.676L398.642 172.696V169.152C398.642 167.97 399.158 167.38 400.191 167.38C400.929 167.232 401.593 167.232 402.183 167.38C402.773 167.38 403.437 167.306 404.175 167.158C406.389 166.863 408.602 166.863 410.816 167.158C413.029 167.306 415.242 167.527 417.456 167.823C418.784 167.97 420.038 168.118 421.219 168.266C422.547 168.413 423.801 168.709 424.982 169.152C425.867 169.595 426.752 169.816 427.638 169.816C428.671 169.669 429.63 169.89 430.515 170.481C430.663 170.481 430.737 170.407 430.737 170.259ZM480.318 174.689C479.137 174.542 477.957 174.394 476.776 174.246C475.743 174.099 474.637 173.951 473.456 173.803C472.718 173.656 471.907 173.582 471.021 173.582C470.283 173.434 469.546 173.36 468.808 173.36C467.627 173.36 466.521 173.434 465.488 173.582C464.455 173.582 463.348 173.656 462.167 173.803H461.282C459.954 173.36 458.626 173.213 457.298 173.36C456.117 173.508 454.863 173.508 453.535 173.36C452.502 173.213 451.469 173.213 450.436 173.36C449.551 173.36 448.592 173.36 447.559 173.36C445.936 173.36 444.312 173.36 442.689 173.36C441.066 173.213 439.443 173.065 437.82 172.917C436.639 172.77 435.532 172.696 434.499 172.696C433.466 172.696 432.434 172.548 431.401 172.253C429.777 171.957 428.228 171.662 426.752 171.367C425.424 171.071 423.949 170.776 422.325 170.481C420.702 170.185 419.005 169.964 417.234 169.816C415.611 169.669 413.988 169.521 412.365 169.373C410.594 169.078 408.823 168.93 407.053 168.93C405.429 168.93 403.732 169.078 401.962 169.373C401.371 169.521 401.076 169.89 401.076 170.481C401.076 171.071 401.003 171.662 400.855 172.253C400.855 172.696 400.855 173.213 400.855 173.803C400.707 174.689 400.56 175.575 400.412 176.461C400.265 177.2 400.191 177.938 400.191 178.676C400.043 179.562 399.97 180.522 399.97 181.556C400.117 182.442 400.265 183.328 400.412 184.214C400.412 185.247 400.929 185.764 401.962 185.764C403.29 185.764 404.249 185.838 404.839 185.986C406.02 186.281 407.053 186.576 407.938 186.872C408.971 187.019 410.004 187.241 411.037 187.536C412.217 187.832 413.324 188.053 414.357 188.201C415.39 188.348 416.423 188.57 417.456 188.865C418.341 189.013 419.227 189.234 420.112 189.53C420.997 189.677 421.957 189.825 422.989 189.973C424.613 190.268 426.31 190.49 428.08 190.637C429.851 190.785 431.548 190.933 433.171 191.08C434.204 191.228 435.237 191.376 436.27 191.523C437.303 191.523 438.336 191.597 439.369 191.745C440.845 191.892 442.246 192.04 443.574 192.188C444.903 192.188 446.304 192.188 447.78 192.188C449.108 192.335 450.436 192.409 451.764 192.409C453.092 192.409 454.347 192.409 455.527 192.409C456.56 192.705 457.077 192.335 457.077 191.302L457.741 186.65C457.741 185.617 458.183 185.1 459.069 185.1C459.806 185.1 460.397 185.1 460.839 185.1C461.43 184.952 462.094 184.878 462.831 184.878C463.864 184.878 464.824 184.952 465.709 185.1C466.594 185.1 467.553 185.1 468.586 185.1H473.235C474.415 185.1 475.079 184.657 475.227 183.771C475.374 183.475 475.522 183.254 475.669 183.106C475.817 182.811 475.965 182.516 476.112 182.22C476.555 181.63 476.998 181.039 477.44 180.448C477.883 179.858 478.326 179.193 478.768 178.455C479.063 177.864 479.285 177.273 479.432 176.683C479.727 176.092 480.023 175.428 480.318 174.689ZM467.48 246.677C467.627 246.086 467.701 245.569 467.701 245.126C467.701 244.536 467.775 244.019 467.922 243.576C468.218 242.394 468.365 241.287 468.365 240.253C468.513 239.072 468.66 237.891 468.808 236.709C468.955 235.085 469.103 233.534 469.25 232.058C469.398 230.433 469.324 228.809 469.029 227.185V226.963C469.177 224.748 469.324 222.533 469.472 220.318C469.619 218.103 469.767 215.888 469.914 213.673C470.062 211.606 470.136 209.539 470.136 207.471C470.136 205.256 470.283 203.115 470.579 201.048C470.726 200.457 470.505 199.94 469.914 199.497C469.472 199.35 469.25 198.907 469.25 198.168C469.546 196.692 469.841 195.584 470.136 194.846C470.579 193.96 470.357 193.517 469.472 193.517H468.365C467.037 193.517 465.709 193.591 464.381 193.738C463.2 193.738 462.02 193.738 460.839 193.738C459.511 193.886 458.773 194.477 458.626 195.51C458.331 196.839 458.109 198.168 457.962 199.497C457.814 200.826 457.667 202.155 457.519 203.484C457.372 204.666 457.298 205.773 457.298 206.807C457.298 207.84 457.298 208.948 457.298 210.129C457.298 211.163 457.298 212.197 457.298 213.23C457.445 214.116 457.519 215.002 457.519 215.888C457.519 218.399 457.519 220.835 457.519 223.198C457.519 225.56 457.593 227.997 457.741 230.507C457.888 231.984 458.036 233.461 458.183 234.937C458.331 236.266 458.552 237.669 458.847 239.146C459.438 241.213 460.47 242.985 461.946 244.462C463.569 245.791 465.414 246.529 467.48 246.677ZM471.907 186.872C471.759 186.724 471.611 186.65 471.464 186.65H461.725C461.43 186.65 461.061 186.872 460.618 187.315C460.323 188.053 460.102 188.865 459.954 189.751C459.954 190.49 459.806 191.302 459.511 192.188H461.061C462.684 192.04 464.233 191.966 465.709 191.966C467.332 191.966 468.955 191.892 470.579 191.745C471.169 191.745 471.611 191.449 471.907 190.859V186.872ZM410.373 153.868C410.52 153.13 410.52 152.465 410.373 151.875C410.225 151.284 410.299 150.62 410.594 149.881C410.889 149.291 411.184 148.774 411.48 148.331C411.775 147.74 411.775 147.076 411.48 146.337C411.332 145.747 411.406 145.156 411.701 144.565C411.996 143.975 412.291 143.31 412.586 142.572C412.881 141.686 413.177 140.874 413.472 140.135C413.914 139.249 414.283 138.363 414.578 137.477C414.726 137.182 414.726 136.887 414.578 136.591C414.578 136.296 414.578 136.001 414.578 135.705C414.136 134.524 414.431 133.49 415.464 132.604C414.726 131.866 414.505 131.275 414.8 130.832C415.242 130.242 415.611 129.725 415.906 129.282C416.202 128.248 416.349 127.288 416.349 126.402C416.497 125.516 416.644 124.556 416.792 123.523C416.792 122.932 416.718 122.415 416.57 121.972C416.423 121.529 416.349 121.012 416.349 120.422C416.202 120.126 416.128 119.683 416.128 119.093C416.57 119.093 416.939 119.093 417.234 119.093C417.677 118.945 418.12 118.871 418.563 118.871C419.3 119.019 419.669 119.388 419.669 119.979C419.817 120.422 419.964 120.865 420.112 121.308C420.26 123.375 420.333 125.369 420.333 127.288C420.333 129.208 420.407 131.128 420.555 133.047C420.555 138.806 420.776 144.418 421.219 149.881C421.219 151.063 421.366 152.244 421.661 153.425C421.957 154.459 422.178 155.566 422.325 156.748C422.473 157.634 422.547 158.52 422.547 159.406C422.547 160.292 422.621 161.178 422.768 162.064C422.768 162.507 422.842 162.95 422.989 163.393C423.137 163.688 423.211 164.057 423.211 164.5C423.211 165.386 423.137 165.903 422.989 166.051C421.957 166.346 421.219 166.42 420.776 166.272C420.628 166.125 420.555 165.903 420.555 165.608C420.555 165.312 420.481 165.017 420.333 164.722C419.743 163.54 419.374 162.581 419.227 161.842C419.079 161.104 418.931 160.366 418.784 159.627C418.636 158.741 418.563 157.929 418.563 157.191C418.415 156.009 418.341 154.976 418.341 154.09C418.341 153.056 418.194 151.949 417.899 150.767C417.161 148.405 416.866 146.263 417.013 144.344C417.308 143.31 417.456 142.35 417.456 141.464C417.456 140.431 417.456 139.397 417.456 138.363C417.456 138.216 417.382 138.068 417.234 137.92C417.234 137.773 417.234 137.625 417.234 137.477C416.939 137.33 416.792 137.256 416.792 137.256C416.792 137.551 416.718 137.773 416.57 137.92L413.914 149.217C413.472 150.841 413.029 152.392 412.586 153.868C412.144 155.345 411.775 156.895 411.48 158.52C410.742 160.735 410.742 162.95 411.48 165.165C411.627 165.46 411.627 165.682 411.48 165.829C411.332 165.977 411.258 166.125 411.258 166.272C410.225 166.272 409.709 166.125 409.709 165.829C409.414 165.091 409.119 164.426 408.823 163.836C408.528 163.097 408.528 162.211 408.823 161.178C409.119 160.439 409.192 159.627 409.045 158.741C409.045 157.708 409.119 156.748 409.266 155.862C409.414 155.419 409.783 154.754 410.373 153.868Z" fill="white"/>
<path d="M489.172 656.452V657.338V658.52C489.172 658.913 489.172 659.308 489.172 659.701C489.369 660.094 489.369 660.489 489.172 660.882V664.131C488.974 664.722 488.876 665.608 488.876 666.789V668.856V671.514C488.484 673.089 488.188 674.861 487.991 676.83C487.991 678.602 487.794 680.472 487.401 682.442C486.81 685.197 486.22 687.758 485.63 690.12C485.237 692.285 484.842 694.452 484.45 696.618C484.252 697.601 484.057 698.487 483.859 699.276C483.662 700.064 483.466 700.95 483.269 701.934C482.876 702.524 482.581 703.213 482.384 704.001C482.384 704.789 482.286 705.575 482.088 706.364C481.498 708.529 480.908 710.794 480.318 713.156C479.925 715.321 479.53 717.586 479.137 719.949C478.744 721.523 478.449 723.1 478.252 724.674C478.252 726.249 478.054 727.825 477.662 729.4C477.662 730.581 477.564 731.565 477.366 732.353C477.169 733.337 477.071 734.322 477.071 735.306C477.071 736.29 476.974 737.374 476.776 738.555C476.776 738.752 476.776 738.948 476.776 739.146C476.974 739.343 477.071 739.539 477.071 739.736C477.269 741.115 477.071 742.099 476.481 742.69C476.284 743.083 475.596 743.28 474.415 743.28H474.12H471.464H469.693H467.627C467.234 743.28 466.84 743.182 466.447 742.985C466.249 742.985 465.954 742.985 465.561 742.985H459.364H457.003H455.232H450.805C450.215 742.985 449.625 742.985 449.034 742.985C448.444 743.182 447.854 743.28 447.264 743.28H442.246C440.083 743.28 438.508 743.182 437.524 742.985H436.049C435.459 742.787 434.868 742.69 434.278 742.69C433.688 742.69 433.195 742.592 432.802 742.394C432.41 742.394 432.015 742.197 431.622 741.804C431.622 741.804 431.524 741.706 431.327 741.508C431.129 741.508 431.032 741.311 431.032 740.918V740.622C431.425 740.229 431.622 740.032 431.622 740.032H434.573C433.786 739.048 433.59 737.767 433.983 736.192C433.983 735.799 433.885 735.504 433.688 735.306C433.49 735.109 433.393 734.716 433.393 734.125C433.195 733.534 433.098 732.648 433.098 731.467V729.4C433.098 729.006 433 728.809 432.802 728.809C432.802 728.611 432.802 728.316 432.802 727.923C432.605 727.53 432.507 727.037 432.507 726.446V721.721C432.507 721.328 432.605 721.13 432.802 721.13C432.41 720.342 432.31 719.851 432.507 719.654C432.705 719.26 432.705 718.965 432.507 718.768C431.917 718.57 431.622 717.979 431.622 716.996C431.622 716.602 431.72 716.307 431.917 716.11V715.519C431.917 715.126 431.819 714.731 431.622 714.338C431.622 713.747 431.622 713.254 431.622 712.861C431.425 712.468 431.327 712.172 431.327 711.975C431.327 711.582 431.229 711.187 431.032 710.794C430.834 710.203 430.639 709.612 430.441 709.022C430.441 708.233 430.344 707.545 430.146 706.954C429.949 705.773 429.851 704.592 429.851 703.41C429.851 702.229 429.851 701.048 429.851 699.866C429.654 699.276 429.556 698.192 429.556 696.618V693.96V692.778C429.556 692.385 429.458 692.188 429.261 692.188C429.261 691.99 429.261 691.695 429.261 691.302C429.261 690.908 429.261 690.613 429.261 690.416C429.458 690.022 429.556 689.627 429.556 689.234V687.167V685.1V682.442V680.079C429.753 679.291 429.851 678.109 429.851 676.535V674.172C430.049 673.384 430.049 672.498 429.851 671.514C429.458 669.94 429.458 668.363 429.851 666.789C429.851 666.396 429.851 666.1 429.851 665.903C430.049 665.705 430.146 665.41 430.146 665.017V663.54C430.344 662.359 430.441 661.178 430.441 659.996C430.441 658.815 430.639 657.634 431.032 656.452C431.032 654.878 431.229 653.106 431.622 651.136C432.015 649.562 432.212 648.38 432.212 647.592C432.41 647.199 432.507 646.608 432.507 645.82C432.507 644.836 432.605 644.048 432.802 643.458C433.195 642.276 433.393 641.095 433.393 639.914C433.59 638.732 433.885 637.551 434.278 636.37L435.163 632.826C435.163 632.628 435.163 632.53 435.163 632.53C435.361 632.333 435.459 632.037 435.459 631.644C435.851 630.463 436.049 629.577 436.049 628.986C436.049 628.002 436.049 627.017 436.049 626.033C436.246 624.852 436.442 623.768 436.639 622.784L437.524 618.354C437.524 617.961 437.524 617.566 437.524 617.173C437.722 616.582 437.82 616.089 437.82 615.696C438.017 615.303 438.115 614.613 438.115 613.629V612.448V611.857V611.562V610.971C438.115 610.38 438.212 609.887 438.41 609.494C438.41 609.101 438.41 608.706 438.41 608.313C438.607 607.722 438.705 607.229 438.705 606.836C438.902 606.048 439 605.262 439 604.474C439 603.685 439 602.899 439 602.111C439.197 601.52 439.197 600.93 439 600.339C439 599.748 439 599.06 439 598.272V595.023V591.479V588.23C439 587.049 438.902 586.163 438.705 585.572V584.391V584.096L439 581.438C439 580.454 439 579.468 439 578.484C439 577.5 439.098 576.515 439.295 575.531C439.295 574.152 439.197 573.168 439 572.578C438.803 571.199 438.705 569.92 438.705 568.738C438.705 567.557 438.705 566.473 438.705 565.49C438.705 565.096 438.705 564.801 438.705 564.604C438.902 564.406 439 564.111 439 563.718C439.393 562.143 439.295 560.764 438.705 559.583C438.508 559.385 438.41 559.19 438.41 558.992C438.607 558.599 438.705 558.304 438.705 558.106C439.098 557.318 439.295 556.137 439.295 554.562V551.904V549.837L437.524 551.609C436.737 552.593 435.951 553.479 435.163 554.267C434.573 554.858 433.786 555.35 432.802 555.744L432.507 556.63C432.114 557.023 431.819 557.418 431.622 557.811C431.622 558.008 431.425 558.304 431.032 558.697L430.737 559.288C430.344 559.878 429.949 560.469 429.556 561.06C429.163 561.453 428.768 561.946 428.376 562.536C427.588 563.324 427.097 564.013 426.9 564.604C426.31 564.997 425.817 565.49 425.424 566.08C425.227 566.473 424.834 566.966 424.244 567.557C424.046 567.754 423.751 568.245 423.358 569.034C422.966 569.427 422.571 569.822 422.178 570.215C421.981 570.608 421.685 571.003 421.293 571.396C420.9 571.789 420.505 572.184 420.112 572.578C419.915 572.971 419.62 573.366 419.227 573.759C418.046 575.333 417.259 576.417 416.866 577.008C416.473 577.401 416.178 577.696 415.98 577.894C415.98 578.091 415.783 578.386 415.39 578.78C415.39 578.78 415.193 579.173 414.8 579.961C414.21 580.354 413.521 581.142 412.734 582.324C412.341 582.717 412.144 583.21 412.144 583.8C411.751 584.982 410.865 585.572 409.487 585.572H408.897C407.717 585.572 406.536 585.572 405.356 585.572C404.175 585.375 402.995 585.179 401.814 584.982C400.634 584.588 399.355 584.391 397.978 584.391C396.797 584.193 395.617 583.898 394.436 583.505C394.043 583.307 393.648 583.21 393.256 583.21C393.058 583.21 392.763 583.112 392.37 582.914C391.977 582.914 391.583 582.717 391.19 582.324H390.895C390.895 582.126 390.797 582.028 390.599 582.028C390.599 581.831 390.502 581.733 390.304 581.733C387.943 581.142 385.78 579.863 383.812 577.894C383.419 577.696 383.024 577.5 382.631 577.303C382.434 577.105 382.139 576.91 381.746 576.712C380.958 576.319 380.27 575.826 379.68 575.236C378.697 574.842 378.204 574.054 378.204 572.873C378.597 571.889 379.287 571.101 380.27 570.51C380.86 570.313 381.648 569.722 382.631 568.738C383.024 567.95 383.909 567.064 385.287 566.08C385.485 565.883 385.582 565.687 385.582 565.49C385.78 565.292 386.075 565.096 386.468 564.899C386.861 564.701 387.058 564.506 387.058 564.308C387.255 564.111 387.55 563.815 387.943 563.422C389.124 562.241 390.107 561.355 390.895 560.764C391.287 560.371 391.583 560.076 391.78 559.878C392.173 559.485 392.568 559.09 392.96 558.697C393.353 558.304 393.846 557.811 394.436 557.22C395.026 556.63 395.617 556.137 396.207 555.744C396.797 555.546 397.387 554.955 397.978 553.972L398.863 553.086L400.043 552.2C400.634 551.411 401.519 550.428 402.7 549.246C402.897 549.049 402.995 548.951 402.995 548.951C402.995 548.753 403.092 548.558 403.29 548.36L404.175 547.474C404.568 547.081 404.765 546.786 404.765 546.588C405.158 546.195 405.453 545.9 405.651 545.702C406.044 545.309 406.536 545.014 407.126 544.816C407.324 544.816 407.422 544.718 407.422 544.521C407.619 544.323 407.717 544.128 407.717 543.93C407.914 543.537 408.209 543.142 408.602 542.749C408.995 541.961 409.39 541.272 409.783 540.682C410.373 540.091 411.16 539.598 412.144 539.205C412.144 539.205 412.341 539.007 412.734 538.614V538.319L413.619 537.433C414.012 536.645 414.407 536.154 414.8 535.956C415.783 534.775 416.866 533.496 418.046 532.117C419.424 530.738 420.9 529.361 422.473 527.982C423.851 526.408 425.327 524.831 426.9 523.257C428.671 521.682 430.344 520.106 431.917 518.532C433.295 517.153 434.573 515.776 435.754 514.397C437.132 513.018 438.607 511.444 440.181 509.672C442.149 507.506 443.132 505.242 443.132 502.879C443.132 502.681 443.034 502.486 442.837 502.288C442.639 501.304 442.542 500.714 442.542 500.516C442.739 500.123 443.23 499.728 444.017 499.335C444.017 499.335 444.215 499.237 444.607 499.04C445.591 498.646 446.476 498.351 447.264 498.154C448.051 497.956 448.837 497.76 449.625 497.563C450.412 497.563 451.593 497.365 453.166 496.972C453.559 496.775 454.249 496.677 455.232 496.677H456.413H456.708C457.888 496.479 459.069 496.382 460.249 496.382C461.43 496.184 462.61 495.889 463.791 495.496C464.381 495.298 465.464 495.003 467.037 494.61C467.825 494.216 468.61 494.019 469.398 494.019L476.481 492.247C478.449 491.854 479.727 492.74 480.318 494.905C480.318 495.298 480.318 495.693 480.318 496.086C480.515 496.479 480.613 496.874 480.613 497.268L481.498 499.926C481.696 500.909 481.793 501.795 481.793 502.584C481.793 503.372 481.891 504.258 482.088 505.242V506.423C482.481 508.588 482.679 510.755 482.679 512.92C482.876 514.89 483.171 516.957 483.564 519.122C483.564 519.91 483.564 520.599 483.564 521.19C483.761 521.78 483.859 522.469 483.859 523.257C483.859 524.636 484.057 526.308 484.45 528.278C484.45 529.261 484.45 530.147 484.45 530.936C484.647 531.526 484.842 532.215 485.04 533.003C485.04 533.396 485.04 533.791 485.04 534.184C485.237 534.577 485.335 534.972 485.335 535.366V535.661C485.335 536.054 485.335 536.349 485.335 536.547C485.532 536.744 485.63 536.94 485.63 537.138C485.433 538.91 485.433 540.779 485.63 542.749C486.023 544.718 486.418 546.786 486.811 548.951C487.008 549.344 487.106 549.837 487.106 550.428V551.018V552.2V556.039V557.811V558.992V560.174V564.604V567.852C487.106 568.245 487.106 568.64 487.106 569.034C487.303 569.231 487.401 569.526 487.401 569.92V571.396V572.578V577.303C487.401 578.877 487.401 580.454 487.401 582.028C487.401 583.407 487.499 584.884 487.696 586.458C487.696 587.442 487.696 588.328 487.696 589.116C487.696 589.904 487.598 590.79 487.401 591.774V597.681C487.598 599.453 487.696 601.225 487.696 602.997C487.696 604.769 487.794 606.639 487.991 608.608C487.991 610.773 488.089 612.35 488.286 613.334V618.059C488.484 619.043 488.581 619.929 488.581 620.717C488.581 621.308 488.581 621.996 488.581 622.784C488.581 623.768 488.581 624.754 488.581 625.738C488.581 626.526 488.679 627.412 488.876 628.396C488.876 629.379 488.876 630.265 488.876 631.054C488.876 631.842 488.974 632.628 489.172 633.416C489.369 634.4 489.467 635.386 489.467 636.37C489.467 637.353 489.467 638.339 489.467 639.323C489.664 640.307 489.664 641.193 489.467 641.981C489.467 642.572 489.467 643.36 489.467 644.344V647.297V649.364V652.022C489.467 653.401 489.369 654.385 489.172 654.976V656.452ZM485.925 654.09C486.122 653.301 486.22 652.515 486.22 651.727C486.22 650.939 486.22 650.053 486.22 649.069C486.418 648.281 486.515 647.199 486.515 645.82V643.753C486.515 643.162 486.418 642.669 486.22 642.276C486.22 641.292 486.122 640.504 485.925 639.914V637.551V635.188C485.925 634.4 485.827 633.614 485.63 632.826C485.63 632.037 485.63 631.251 485.63 630.463C485.433 629.479 485.335 628.396 485.335 627.214C485.335 626.033 485.237 624.852 485.04 623.67C485.04 622.291 485.137 621.308 485.335 620.717V618.354C485.335 616.385 485.237 615.008 485.04 614.22V613.629V612.743C484.842 612.35 484.745 611.759 484.745 610.971C485.137 610.38 485.237 609.79 485.04 609.199C485.04 608.608 485.04 607.92 485.04 607.132C485.04 606.738 484.942 606.541 484.745 606.541C484.745 606.343 484.745 606.048 484.745 605.655V599.453V596.5V596.204V595.909L484.45 595.023V592.66V589.707V588.23V587.935V584.096V576.712V571.101V566.08C484.057 565.687 484.057 565.194 484.45 564.604C484.45 563.815 484.352 563.127 484.154 562.536V561.355V559.878V558.106V555.448C484.154 554.069 484.057 552.79 483.859 551.609C483.859 550.23 483.761 548.951 483.564 547.77C483.367 546.981 483.269 546.195 483.269 545.407C483.269 544.619 483.171 543.832 482.974 543.044C482.776 542.454 482.679 541.47 482.679 540.091C482.286 538.121 482.088 536.645 482.088 535.661V535.07V534.184C481.696 532.805 481.4 531.526 481.203 530.345C481.203 528.966 481.203 527.687 481.203 526.506V526.21C481.203 525.62 481.203 525.029 481.203 524.438C481.203 523.65 481.105 522.962 480.908 522.371C480.908 521.978 480.81 521.583 480.613 521.19C480.613 520.796 480.613 520.401 480.613 520.008C480.415 519.615 480.318 519.22 480.318 518.827C480.318 518.236 480.22 517.743 480.023 517.35C479.825 516.366 479.727 515.381 479.727 514.397C479.727 513.413 479.63 512.232 479.432 510.853C479.432 510.46 479.335 510.065 479.137 509.672C479.137 509.278 479.137 508.883 479.137 508.49C479.137 506.916 479.039 505.734 478.842 504.946C478.645 503.962 478.449 503.076 478.252 502.288C478.252 501.304 478.154 500.319 477.957 499.335C477.957 498.942 477.859 498.547 477.662 498.154C477.662 497.563 477.662 497.07 477.662 496.677C477.662 496.086 477.464 495.791 477.071 495.791L476.481 496.086C475.498 496.086 474.808 496.184 474.415 496.382L469.988 497.268C468.218 497.661 466.447 498.056 464.676 498.449C462.905 498.842 461.037 499.237 459.069 499.63C457.495 499.828 455.822 500.023 454.052 500.221C452.478 500.418 450.903 500.714 449.33 501.107L448.444 501.402C447.264 501.402 446.673 501.795 446.673 502.584C446.476 503.567 446.28 504.651 446.083 505.832C446.083 507.014 445.985 508.097 445.788 509.081C445.788 510.065 445.591 511.346 445.198 512.92C445.198 514.299 445.1 515.381 444.903 516.169C444.903 517.153 444.805 518.039 444.607 518.827C444.607 519.615 444.51 520.501 444.312 521.485C443.919 523.454 443.624 525.422 443.427 527.392C443.427 529.361 443.329 531.428 443.132 533.594V535.366C443.132 536.349 443.23 537.138 443.427 537.728V539.205V540.977H444.312H444.607C445 540.977 445.198 541.075 445.198 541.272C445.395 541.272 445.493 541.37 445.493 541.568C445.493 541.765 445.395 541.863 445.198 541.863V543.044C444.805 543.635 444.51 543.93 444.312 543.93C443.525 544.323 443.034 545.209 442.837 546.588V551.609V553.676V572.578V578.189V579.37V585.277C442.837 586.261 442.837 587.246 442.837 588.23C442.837 589.214 442.934 590.2 443.132 591.184V598.272V598.862V603.292C443.132 603.883 443.034 604.474 442.837 605.064C442.837 605.655 442.837 606.246 442.837 606.836C442.639 607.82 442.444 608.806 442.246 609.79C442.246 610.578 442.246 611.464 442.246 612.448C442.246 614.81 441.854 617.173 441.066 619.536V620.126V622.194C440.869 622.784 440.771 623.473 440.771 624.261C440.771 624.852 440.673 625.442 440.476 626.033C440.278 627.607 440.083 629.184 439.885 630.758C439.688 632.137 439.393 633.614 439 635.188L438.115 639.618C437.917 640.209 437.82 640.8 437.82 641.39C437.82 641.783 437.722 642.276 437.524 642.867C437.327 643.655 437.132 644.344 436.934 644.934C436.934 645.525 436.836 646.213 436.639 647.002C436.639 647.79 436.442 648.971 436.049 650.546C435.851 651.529 435.656 652.613 435.459 653.794C435.261 654.778 435.066 655.764 434.868 656.748C434.671 658.126 434.573 659.503 434.573 660.882C434.573 662.064 434.475 663.245 434.278 664.426V667.084V670.038C434.278 671.219 434.18 672.007 433.983 672.4V677.126C433.786 678.109 433.688 678.995 433.688 679.784C433.688 680.374 433.688 681.063 433.688 681.851V683.918V685.986C433.688 686.774 433.59 687.265 433.393 687.462V690.711C433.59 691.695 433.688 692.68 433.688 693.664C433.688 694.452 433.786 695.338 433.983 696.322C433.983 697.306 433.983 698.192 433.983 698.98C433.983 699.768 434.081 700.555 434.278 701.343V704.296C434.278 704.887 434.278 705.575 434.278 706.364C434.278 706.954 434.376 707.545 434.573 708.136C434.573 708.333 434.573 708.529 434.573 708.726C434.771 708.726 434.868 708.824 434.868 709.022C435.261 709.415 435.459 709.908 435.459 710.498C435.459 711.68 435.556 712.566 435.754 713.156C436.147 714.338 436.344 715.421 436.344 716.405C436.147 717.193 436.049 717.979 436.049 718.768C436.246 719.358 436.344 719.949 436.344 720.54V722.902C435.951 724.281 436.049 725.363 436.639 726.151V727.037C436.442 727.43 436.344 727.923 436.344 728.514C436.541 728.907 436.639 729.4 436.639 729.99C436.639 730.188 436.639 730.286 436.639 730.286C436.836 730.483 436.934 730.778 436.934 731.172C437.132 732.155 437.229 733.239 437.229 734.42C437.229 735.602 437.229 736.685 437.229 737.669V740.327H473.53V740.032V737.964V736.783V734.125C473.53 733.732 473.53 733.337 473.53 732.944C473.727 732.55 473.825 732.155 473.825 731.762C473.825 731.565 473.825 731.369 473.825 731.172C474.022 730.974 474.12 730.679 474.12 730.286C474.12 729.892 474.12 729.4 474.12 728.809C474.317 728.218 474.415 727.628 474.415 727.037C474.613 726.249 474.71 725.56 474.71 724.97C474.71 724.181 474.808 723.395 475.005 722.607C475.203 722.214 475.301 721.819 475.301 721.426C475.301 720.835 475.398 720.342 475.596 719.949C475.596 719.751 475.596 719.654 475.596 719.654C475.793 719.654 475.891 719.556 475.891 719.358C475.891 718.965 475.891 718.768 475.891 718.768C476.088 718.57 476.186 718.275 476.186 717.882C476.383 717.488 476.481 717.193 476.481 716.996C476.481 716.602 476.579 716.207 476.776 715.814C476.776 715.421 476.776 715.126 476.776 714.928C476.974 714.535 477.071 714.14 477.071 713.747C477.071 713.549 477.071 713.354 477.071 713.156C477.269 712.959 477.366 712.663 477.366 712.27C477.564 711.68 477.662 710.991 477.662 710.203C477.859 709.415 478.054 708.628 478.252 707.84C478.252 707.643 478.252 707.545 478.252 707.545C478.449 707.347 478.547 707.052 478.547 706.659C478.744 706.461 478.842 706.166 478.842 705.773C479.039 705.38 479.137 705.084 479.137 704.887C479.137 704.689 479.235 704.494 479.432 704.296C479.825 703.115 480.12 701.934 480.318 700.752C480.515 699.571 480.711 698.39 480.908 697.208C480.908 696.618 481.105 695.732 481.498 694.55C481.891 692.976 481.991 691.695 481.793 690.711C481.793 690.513 481.991 690.022 482.384 689.234C482.384 689.234 482.481 689.136 482.679 688.939C482.876 688.741 482.974 688.546 482.974 688.348C483.171 687.758 483.269 686.576 483.269 684.804C483.269 683.23 483.564 681.653 484.154 680.079C484.352 679.095 484.45 678.209 484.45 677.421C484.647 676.633 484.745 675.846 484.745 675.058C484.547 674.074 484.45 673.089 484.45 672.105C484.647 670.924 484.842 669.84 485.04 668.856C485.237 668.266 485.335 667.38 485.335 666.198L485.63 664.722C485.63 663.738 485.63 662.95 485.63 662.359C485.827 661.571 485.925 660.685 485.925 659.701V657.043V654.09ZM439.295 536.842C439.098 536.252 439 535.463 439 534.48C439.197 533.691 439.295 533.003 439.295 532.412C439.295 531.822 439.393 531.133 439.59 530.345C439.59 529.361 439.688 528.671 439.885 528.278C439.885 527.294 439.885 526.408 439.885 525.62C440.083 524.636 440.278 523.65 440.476 522.666L440.771 519.418V519.122C440.968 518.925 441.066 518.532 441.066 517.941L441.951 514.397C441.951 513.609 441.854 513.018 441.656 512.625L441.066 513.216C440.476 514.199 439.788 515.085 439 515.874C438.41 516.662 437.622 517.548 436.639 518.532C436.246 518.925 435.851 519.22 435.459 519.418C434.868 520.206 433.885 521.287 432.507 522.666C431.917 523.257 431.327 523.848 430.737 524.438C430.146 524.831 429.654 525.324 429.261 525.915C428.671 526.506 428.08 527.096 427.49 527.687C426.9 528.278 426.31 528.77 425.719 529.164C424.736 530.147 423.751 531.133 422.768 532.117C421.785 533.101 420.8 534.086 419.817 535.07C418.834 536.054 417.948 537.04 417.161 538.024C416.373 539.007 415.488 539.993 414.505 540.977C413.914 541.568 413.324 542.256 412.734 543.044C412.144 543.635 411.553 544.323 410.963 545.112C410.57 545.505 410.175 545.9 409.783 546.293C409.39 546.686 408.995 547.081 408.602 547.474L406.831 549.246C406.044 550.034 405.356 550.723 404.765 551.314C404.175 551.904 403.585 552.593 402.995 553.381L399.453 556.925L398.568 557.811C398.175 558.008 397.78 558.304 397.387 558.697L394.731 561.355C394.141 562.143 393.453 562.832 392.665 563.422L391.485 564.604L390.009 566.08C389.616 566.473 389.222 566.868 388.829 567.262C388.631 567.459 388.336 567.754 387.943 568.148L384.402 571.692C384.204 572.085 383.614 572.578 382.631 573.168L382.336 573.464H382.631C383.221 573.857 383.909 574.252 384.697 574.645C385.877 575.433 386.665 575.924 387.058 576.122C387.846 576.712 389.026 577.401 390.599 578.189C394.338 580.552 399.256 581.93 405.356 582.324C406.143 582.324 406.734 582.421 407.126 582.619C407.914 582.816 408.504 582.421 408.897 581.438C409.685 580.256 410.275 579.468 410.668 579.075L410.963 578.484L411.848 577.598C411.848 577.205 412.046 577.008 412.439 577.008C412.832 576.614 413.127 576.219 413.324 575.826C413.521 575.433 413.817 575.038 414.209 574.645C414.602 574.054 415.39 572.971 416.57 571.396L418.341 569.624C418.734 569.231 419.029 568.836 419.227 568.443C419.424 568.05 419.719 567.655 420.112 567.262C420.702 566.671 421.095 566.178 421.293 565.785C421.685 565.392 421.981 564.997 422.178 564.604C422.571 564.013 422.966 563.52 423.358 563.127L423.654 562.832V562.241L424.244 561.65C424.441 560.862 424.834 560.174 425.424 559.583C425.622 559.19 425.817 558.992 426.015 558.992C426.212 558.795 426.407 558.499 426.605 558.106C427.785 557.318 428.671 556.236 429.261 554.858C430.244 553.676 431.229 552.593 432.212 551.609C433.393 550.625 434.573 549.639 435.754 548.656C436.541 547.867 437.032 547.277 437.229 546.884C437.427 546.686 437.524 546.588 437.524 546.588C437.524 546.391 437.622 546.195 437.82 545.998V545.702C437.82 545.702 438.017 545.505 438.41 545.112C439.393 543.733 439.688 542.651 439.295 541.863V541.272V540.386V538.024V536.842Z" fill="white"/>
</g>
</g>
<defs>
<clipPath id="clip0_140_256">
<rect width="878" height="886" fill="white"/>
</clipPath>
</defs>
</svg>
