<svg width="886" height="886" viewBox="0 0 886 886" fill="none" xmlns="http://www.w3.org/2000/svg">
<g clip-path="url(#clip0_173_414)">
<rect width="886" height="886" fill="white"/>
<rect width="886" height="886" fill="#7036CC"/>
<rect y="323" width="886" height="563" fill="#3D1F6D"/>
<path d="M433.025 162.668C433.025 161.782 432.877 160.749 432.582 159.567C432.434 157.5 432.287 155.433 432.139 153.365C431.992 151.298 431.844 149.231 431.697 147.163C431.401 144.653 431.18 142.29 431.033 140.075C431.033 137.713 430.959 135.35 430.811 132.988C430.664 131.806 430.516 130.551 430.368 129.222C430.368 127.893 430.221 126.638 429.926 125.457C429.778 124.275 429.631 123.094 429.483 121.913C429.336 120.731 429.114 119.55 428.819 118.368C428.672 117.63 428.524 116.818 428.376 115.932C428.376 115.046 428.229 114.234 427.934 113.495C427.639 111.871 427.343 110.321 427.048 108.844C426.901 107.22 426.679 105.595 426.384 103.971C426.237 103.676 426.163 103.454 426.163 103.307C426.31 103.159 426.384 102.937 426.384 102.642C426.384 102.199 426.31 101.756 426.163 101.313C426.163 100.87 426.163 100.353 426.163 99.7625C426.163 99.6148 426.089 99.541 425.942 99.541C425.942 99.3933 425.942 99.2457 425.942 99.098C425.942 97.9167 425.868 96.883 425.72 95.997C425.72 94.9633 425.72 93.8558 425.72 92.6745V82.9285V79.8275C425.72 78.6462 425.646 77.5387 425.499 76.505C425.499 75.3237 425.425 74.1423 425.278 72.961C425.278 71.3367 424.761 69.5647 423.728 67.645C423.433 69.1217 423.138 70.5245 422.843 71.8535C422.548 73.0348 422.474 74.29 422.621 75.619V76.062C422.326 76.948 422.031 77.834 421.736 78.72C421.588 79.606 421.367 80.5658 421.072 81.5995C420.924 82.3378 420.777 83.0023 420.629 83.593C420.482 84.1837 420.334 84.8482 420.187 85.5865C420.039 86.6202 419.892 87.6538 419.744 88.6875C419.596 89.7212 419.375 90.7548 419.08 91.7885C419.08 92.5268 419.08 93.2652 419.08 94.0035C419.08 94.7418 419.006 95.4802 418.859 96.2185C418.563 97.2522 418.342 98.2858 418.195 99.3195C418.195 100.205 418.047 101.165 417.752 102.199C417.457 103.38 417.235 104.636 417.088 105.965C417.088 107.294 416.94 108.549 416.645 109.73L415.981 112.388C415.686 114.012 415.317 115.563 414.874 117.039C414.579 118.516 414.284 119.993 413.989 121.469C413.841 122.651 413.694 123.758 413.546 124.792C413.546 125.678 413.472 126.712 413.325 127.893L412.661 131.88C412.366 133.061 412.218 134.169 412.218 135.203C412.218 136.236 412.071 137.27 411.776 138.304C411.628 139.042 411.407 139.706 411.111 140.297C410.964 140.888 410.816 141.552 410.669 142.29C410.226 143.767 409.783 145.17 409.341 146.499C409.046 147.828 408.75 149.157 408.455 150.486C408.013 152.11 407.201 153.956 406.021 156.023C405.578 156.762 405.357 157.279 405.357 157.574C405.357 157.722 405.578 158.165 406.021 158.903C405.578 159.198 404.84 159.272 403.807 159.124C402.922 158.829 402.479 158.46 402.479 158.017C402.332 157.722 402.405 157.205 402.7 156.466C402.996 155.876 403.143 155.433 403.143 155.138C403.586 154.104 403.955 153.144 404.25 152.258C404.693 151.224 405.061 150.191 405.357 149.157C405.652 148.271 405.947 147.385 406.242 146.499C406.685 145.465 407.054 144.432 407.349 143.398C407.644 142.364 407.865 141.331 408.013 140.297C408.16 139.263 408.382 138.156 408.677 136.974C408.824 136.531 408.898 136.088 408.898 135.645C408.898 135.055 408.972 134.538 409.119 134.095V133.431C409.415 132.692 409.636 132.028 409.783 131.437C409.931 130.699 410.152 129.96 410.447 129.222C410.447 128.631 410.595 127.893 410.89 127.007C410.89 126.564 410.816 126.121 410.669 125.678C410.669 125.235 410.743 124.866 410.89 124.57C411.185 123.241 411.333 121.913 411.333 120.584C411.333 119.255 411.407 117.925 411.554 116.596C411.554 116.006 411.702 115.415 411.997 114.824C412.292 114.234 412.513 113.643 412.661 113.053C412.956 112.167 413.104 111.502 413.104 111.059C413.251 110.321 413.399 109.656 413.546 109.066C413.694 108.475 413.841 107.81 413.989 107.072C414.137 106.334 414.21 105.595 414.21 104.857C414.21 104.119 414.284 103.38 414.432 102.642L415.096 99.3195C415.243 99.0242 415.317 98.4335 415.317 97.5475C415.465 97.1045 415.465 96.6615 415.317 96.2185C415.169 95.6278 415.391 95.1848 415.981 94.8895C415.981 94.8895 415.981 94.5942 415.981 94.0035C415.686 92.8222 415.612 91.7147 415.76 90.681C416.055 89.6473 416.424 88.6137 416.866 87.58C417.014 87.137 417.088 86.7678 417.088 86.4725C417.235 86.0295 417.383 85.5865 417.53 85.1435C417.678 83.9622 417.826 82.7808 417.973 81.5995C418.121 80.4182 418.268 79.2368 418.416 78.0555L419.08 74.733C419.375 73.6993 419.596 72.7395 419.744 71.8535C420.039 70.8198 420.334 69.86 420.629 68.974L421.293 66.316L421.957 62.329C422.105 61.443 422.695 61 423.728 61C425.351 61.2953 426.384 62.1813 426.827 63.658C427.122 65.1347 427.417 66.5375 427.712 67.8665C428.155 69.1955 428.45 70.5983 428.598 72.075C428.893 74.1423 429.188 76.2835 429.483 78.4985C429.778 80.5658 429.778 82.707 429.483 84.922C429.336 85.808 429.336 86.694 429.483 87.58C429.631 88.466 429.704 89.352 429.704 90.238V95.554C429.852 97.1783 429.926 98.7288 429.926 100.206C430.073 101.535 430.221 103.011 430.368 104.635C430.516 105.964 430.664 107.293 430.811 108.622C430.959 109.951 431.18 111.281 431.475 112.61C431.623 113.791 431.77 114.898 431.918 115.932C432.213 116.818 432.508 117.852 432.803 119.033C433.098 120.953 433.32 122.798 433.467 124.57C433.615 126.342 433.836 128.188 434.131 130.108C434.279 130.994 434.353 131.88 434.353 132.766C434.5 133.652 434.722 134.464 435.017 135.203V136.532V142.734C435.017 143.472 435.017 144.284 435.017 145.17C435.164 146.056 435.238 146.868 435.238 147.607C435.238 148.788 435.386 149.969 435.681 151.15C435.976 152.332 435.976 153.513 435.681 154.694C435.533 155.433 435.533 156.245 435.681 157.131C435.976 158.017 436.197 158.829 436.345 159.567C436.492 160.01 436.566 160.601 436.566 161.339C436.566 162.964 437.378 163.776 439.001 163.776C439.591 163.628 440.477 163.555 441.657 163.555C442.838 163.702 444.092 163.776 445.42 163.776C446.748 163.776 448.002 163.85 449.183 163.997C449.773 163.997 450.289 164.071 450.732 164.219C451.322 164.219 451.913 164.219 452.503 164.219H454.052C454.052 163.333 454.052 162.521 454.052 161.783C454.2 160.897 454.274 160.084 454.274 159.346C454.569 158.165 454.716 157.057 454.716 156.023C454.864 154.99 455.012 153.882 455.159 152.701V151.593C455.307 151.15 455.38 150.781 455.38 150.486C455.38 150.043 455.454 149.6 455.602 149.157C455.749 148.862 455.823 148.714 455.823 148.714C455.676 147.385 455.749 146.056 456.044 144.727C456.487 143.398 456.782 142.143 456.93 140.962C457.225 139.337 457.52 137.713 457.815 136.088C458.258 134.464 458.627 132.84 458.922 131.215C459.069 130.329 459.217 129.517 459.365 128.779C459.66 127.893 459.881 127.007 460.029 126.121C460.324 124.94 460.471 123.758 460.471 122.577C460.619 121.396 460.84 120.214 461.135 119.033C461.283 117.704 461.43 116.375 461.578 115.046C461.726 113.717 461.947 112.314 462.242 110.838C462.537 109.361 462.685 107.958 462.685 106.629C462.832 105.152 463.054 103.676 463.349 102.199C463.644 100.575 463.865 98.9503 464.013 97.326C464.308 95.7017 464.603 94.0773 464.898 92.453C465.193 90.9763 465.415 89.5735 465.562 88.2445C465.857 86.7678 466.153 85.2912 466.448 83.8145C466.743 82.6332 466.964 81.4518 467.112 80.2705C467.259 79.0892 467.554 77.9078 467.997 76.7265C468.44 75.1022 468.809 73.4778 469.104 71.8535C469.399 70.2292 470.063 68.6787 471.096 67.202C471.243 67.0543 471.317 66.9067 471.317 66.759C471.465 66.6113 471.612 66.4637 471.76 66.316C472.055 65.2823 472.645 64.7655 473.531 64.7655C474.859 64.7655 475.818 65.2085 476.408 66.0945C477.146 67.5712 477.884 69.417 478.622 71.632C478.917 72.3703 479.138 73.1087 479.286 73.847C479.581 74.5853 479.655 75.3237 479.507 76.062C479.359 76.948 479.433 77.7602 479.728 78.4985C480.171 79.2368 480.466 80.049 480.614 80.935C480.614 82.5593 480.687 84.1837 480.835 85.808C480.983 87.4323 481.204 89.0567 481.499 90.681C481.499 91.4193 481.499 92.2315 481.499 93.1175C481.647 94.0035 481.794 94.8157 481.942 95.554L482.606 105.521C482.753 107.441 482.827 109.361 482.827 111.281C482.975 113.053 483.196 114.898 483.491 116.818C483.786 118.885 484.081 120.731 484.377 122.356C484.377 122.503 484.303 122.651 484.155 122.798C484.155 122.798 484.155 122.946 484.155 123.241C484.008 124.423 483.934 125.604 483.934 126.786C483.934 127.967 483.86 129.148 483.713 130.33C483.713 131.216 483.639 132.102 483.491 132.988C483.491 133.726 483.417 134.464 483.27 135.203C483.27 135.941 483.27 136.31 483.27 136.31C483.27 137.491 483.27 138.673 483.27 139.854C483.417 141.035 483.565 142.217 483.713 143.398C483.86 144.579 483.86 145.908 483.713 147.385C483.417 148.123 483.27 148.935 483.27 149.821C483.417 150.56 483.417 151.298 483.27 152.037C482.827 152.48 482.458 152.775 482.163 152.922C481.868 153.218 481.499 153.365 481.056 153.365C480.614 153.218 480.392 152.849 480.392 152.258V146.942C480.245 145.908 480.171 144.875 480.171 143.841C480.171 142.807 480.171 141.774 480.171 140.74C480.171 138.968 480.171 137.27 480.171 135.645C480.319 133.873 480.392 132.102 480.392 130.33C480.392 128.41 480.392 126.564 480.392 124.792C480.392 122.872 480.319 120.953 480.171 119.033C479.876 115.932 479.581 112.831 479.286 109.73C478.99 106.481 478.695 103.307 478.4 100.206C478.253 99.0242 478.179 97.8428 478.179 96.6615C478.326 95.3325 478.326 94.0773 478.179 92.896C478.031 91.7147 477.884 90.6072 477.736 89.5735C477.589 88.3922 477.367 87.2108 477.072 86.0295C477.072 84.9958 476.998 84.036 476.851 83.15C476.851 82.264 476.777 81.378 476.629 80.492C476.334 78.8677 476.039 77.3172 475.744 75.8405C475.597 74.2162 475.375 72.5918 475.08 70.9675C474.933 70.3768 474.564 69.6385 473.973 68.7525H473.531C473.383 69.1955 473.236 69.6385 473.088 70.0815C472.94 70.5245 472.793 70.9675 472.645 71.4105C472.498 71.8535 472.35 72.3703 472.203 72.961C472.203 73.404 472.129 73.847 471.981 74.29C471.686 75.4713 471.391 76.5788 471.096 77.6125C470.948 78.4985 470.727 79.5322 470.432 80.7135C470.137 81.7472 469.842 82.707 469.546 83.593C469.399 84.479 469.251 85.365 469.104 86.251C468.956 86.9893 468.882 87.6538 468.882 88.2445C468.882 88.8352 468.809 89.4258 468.661 90.0165C468.366 91.1978 468.071 92.453 467.776 93.782C467.481 94.9633 467.185 96.1447 466.89 97.326C467.333 98.0643 467.481 98.8027 467.333 99.541C467.333 100.132 467.185 100.796 466.89 101.534C466.743 101.83 466.669 102.199 466.669 102.642C466.669 102.937 466.595 103.233 466.448 103.528C466.448 103.823 466.374 104.045 466.226 104.193C466.226 104.193 466.226 104.34 466.226 104.635C465.931 106.407 465.71 108.18 465.562 109.952C465.415 111.576 465.193 113.274 464.898 115.046C464.751 116.08 464.603 117.039 464.456 117.925C464.456 118.811 464.382 119.698 464.234 120.584V121.248C463.644 122.134 463.349 123.094 463.349 124.128C463.349 125.014 463.201 125.973 462.906 127.007C462.316 128.927 461.947 130.625 461.799 132.101C461.652 132.397 461.578 132.692 461.578 132.988C461.726 133.283 461.726 133.578 461.578 133.873C461.578 134.612 461.43 135.572 461.135 136.753C460.988 137.934 460.619 139.337 460.029 140.962C459.438 142.586 459.069 144.062 458.922 145.391C458.774 146.13 458.627 146.868 458.479 147.607C458.479 148.345 458.627 149.083 458.922 149.821C459.069 150.56 459.069 151.224 458.922 151.815C458.774 152.258 458.627 152.775 458.479 153.365C458.184 154.547 457.889 155.802 457.594 157.131C457.299 158.312 457.077 159.494 456.93 160.675C456.782 161.118 456.782 161.635 456.93 162.225C457.077 162.668 457.225 163.259 457.373 163.997C458.11 163.997 458.848 164.071 459.586 164.219C460.324 164.219 461.135 164.145 462.021 163.997C462.759 163.997 463.127 163.628 463.127 162.89C463.423 162.004 463.644 161.192 463.791 160.454C463.939 159.568 463.792 158.608 463.349 157.574C462.906 155.802 462.98 154.03 463.57 152.258C463.865 150.781 464.16 149.378 464.456 148.049C464.898 146.72 465.193 145.318 465.341 143.841C465.488 142.807 465.636 141.848 465.784 140.962C466.079 139.928 466.374 138.82 466.669 137.639C466.964 137.048 467.112 136.531 467.112 136.088C466.964 134.907 467.038 133.874 467.333 132.988C467.628 131.954 467.923 130.846 468.218 129.665C468.366 128.927 468.44 128.262 468.44 127.671C468.44 126.933 468.44 126.195 468.44 125.457C468.587 125.014 468.661 124.644 468.661 124.349C468.809 123.906 469.178 123.611 469.768 123.463C469.768 122.577 469.842 121.986 469.989 121.691C470.284 120.805 470.506 120.067 470.653 119.476C470.948 118.442 471.391 117.925 471.981 117.925C472.719 118.073 473.309 118.147 473.752 118.147C474.342 118.147 474.859 118.442 475.301 119.033C476.039 120.067 476.408 121.1 476.408 122.134C476.556 123.02 476.703 124.054 476.851 125.235C476.998 126.564 477.072 127.893 477.072 129.222C477.22 130.551 477.367 131.954 477.515 133.431C477.515 134.464 477.515 135.498 477.515 136.532C477.662 137.565 477.662 138.673 477.515 139.854C477.22 140.888 477.146 141.848 477.293 142.734C477.589 143.62 477.589 144.579 477.293 145.613V147.163C477.441 148.935 477.515 150.708 477.515 152.48C477.662 154.104 477.81 155.802 477.958 157.574C477.958 158.608 477.515 159.198 476.629 159.346C475.597 159.346 475.006 158.903 474.859 158.017C474.564 156.836 474.268 155.58 473.973 154.251C473.678 152.922 473.678 151.593 473.973 150.264C474.268 149.526 474.268 148.788 473.973 148.049C473.826 147.163 473.678 146.277 473.531 145.391V144.727C473.531 143.103 473.531 141.478 473.531 139.854C473.531 138.23 473.678 136.605 473.973 134.981C474.268 133.504 474.195 132.101 473.752 130.772C473.457 129.296 473.309 127.819 473.309 126.342C473.309 125.899 473.309 125.456 473.309 125.013C473.309 124.423 473.236 123.832 473.088 123.241H472.867C472.571 124.423 472.276 125.604 471.981 126.786C471.686 127.967 471.391 129.148 471.096 130.33C470.653 131.954 470.432 133.578 470.432 135.203C470.432 136.679 470.284 138.23 469.989 139.854C469.989 140.149 469.915 140.297 469.768 140.297C468.882 141.774 468.366 143.324 468.218 144.948C468.071 146.573 467.849 148.197 467.554 149.821C467.259 150.855 467.112 151.963 467.112 153.144C467.259 154.178 467.333 155.211 467.333 156.245C467.038 158.312 466.743 159.937 466.448 161.118C466.448 161.413 466.374 161.782 466.226 162.225C466.226 162.668 466.226 163.038 466.226 163.333C466.226 163.924 466.374 164.219 466.669 164.219C466.964 164.219 467.259 164.219 467.554 164.219C468.735 164.219 469.842 164.219 470.875 164.219C472.055 164.219 473.236 164.293 474.416 164.44C476.187 164.44 478.105 164.662 480.171 165.105C480.909 165.253 481.72 165.326 482.606 165.326C483.491 165.326 484.377 165.474 485.262 165.769C486.442 166.065 486.664 166.803 485.926 167.985L482.606 173.3C481.868 174.629 481.056 175.959 480.171 177.288C479.433 178.469 478.695 179.724 477.958 181.053C477.662 181.496 477.441 181.939 477.293 182.382C477.293 182.825 477.146 183.342 476.851 183.933H477.958C478.253 184.228 478.474 184.523 478.622 184.819C478.179 185.262 477.958 185.483 477.958 185.483C476.629 185.926 475.965 186.738 475.965 187.919C475.965 189.101 475.892 190.282 475.744 191.463C475.597 192.497 475.523 193.605 475.523 194.786C475.375 196.263 475.228 197.665 475.08 198.994C475.08 200.323 475.006 201.726 474.859 203.203C474.711 205.27 474.637 207.264 474.637 209.183C474.637 210.955 474.564 212.875 474.416 214.942C474.416 216.419 474.416 217.896 474.416 219.373C474.564 220.849 474.564 222.326 474.416 223.802C474.416 225.427 474.342 226.977 474.195 228.454C474.047 229.783 473.826 231.26 473.531 232.884C473.383 234.065 473.236 235.247 473.088 236.428C472.94 237.609 472.719 238.865 472.424 240.194C474.49 240.489 476.039 240.784 477.072 241.079C477.367 241.227 477.589 241.375 477.736 241.523C478.031 241.67 478.326 241.818 478.622 241.965C478.326 242.113 478.031 242.261 477.736 242.408C477.589 242.704 477.367 242.851 477.072 242.851C476.187 242.851 475.154 242.704 473.973 242.408C473.236 242.113 472.793 242.039 472.645 242.187C472.498 242.335 472.424 242.778 472.424 243.516C472.424 244.254 472.424 244.993 472.424 245.731C472.424 246.469 472.498 247.208 472.645 247.946C472.645 248.832 472.35 249.275 471.76 249.275C470.284 249.57 469.546 249.275 469.546 248.389V242.63C469.546 241.744 469.251 241.153 468.661 240.858C466.152 240.12 464.013 239.16 462.242 237.978C460.471 237.24 459.512 235.911 459.365 233.991C459.365 233.844 459.217 233.327 458.922 232.441C458.184 230.669 457.668 228.528 457.373 226.017C456.93 223.802 456.856 221.292 457.151 218.487C457.299 217.601 457.299 216.715 457.151 215.829C457.004 214.943 456.93 214.057 456.93 213.171V211.62C456.93 210.882 456.93 210.217 456.93 209.627C456.93 208.888 457.004 208.15 457.151 207.412C457.151 206.673 457.077 206.009 456.93 205.418C456.782 204.827 456.708 204.237 456.708 203.646C456.561 202.908 456.635 201.8 456.93 200.323C457.077 199.585 457.077 198.995 456.93 198.552C456.782 197.961 456.782 197.296 456.93 196.558C457.225 195.081 457.373 193.605 457.373 192.128C457.52 190.651 457.963 189.175 458.701 187.698C459.143 186.96 458.848 186.59 457.815 186.59H452.503C451.765 186.59 450.954 186.59 450.068 186.59C449.33 186.443 448.593 186.295 447.855 186.148C447.117 186.148 446.305 186.148 445.42 186.148C444.682 186.148 443.944 186.074 443.206 185.926C442.321 185.778 441.436 185.704 440.55 185.704C439.665 185.557 438.78 185.483 437.894 185.483C436.419 185.188 435.017 185.04 433.689 185.04C432.361 184.892 431.033 184.671 429.704 184.375C427.639 184.08 425.573 183.785 423.507 183.489C421.441 183.046 419.375 182.677 417.309 182.382C415.538 182.087 413.768 181.718 411.997 181.275C410.374 180.832 408.75 180.462 407.127 180.167C406.537 180.019 405.947 180.019 405.357 180.167C404.914 180.167 404.324 180.167 403.586 180.167C400.93 180.167 399.749 178.838 400.044 176.18C400.192 175.442 400.266 174.629 400.266 173.743C400.266 172.857 400.266 171.972 400.266 171.086L400.93 165.105V161.561C400.93 160.38 401.446 159.789 402.479 159.789C403.217 159.641 403.881 159.641 404.471 159.789C405.061 159.789 405.725 159.715 406.463 159.567C408.677 159.272 410.89 159.272 413.104 159.567C415.317 159.715 417.531 159.937 419.744 160.232C421.072 160.38 422.326 160.527 423.507 160.675C424.835 160.823 426.089 161.118 427.27 161.561C428.155 162.004 429.04 162.225 429.926 162.225C430.959 162.078 431.918 162.299 432.803 162.89C432.951 162.89 433.025 162.816 433.025 162.668ZM482.606 167.098C481.425 166.951 480.245 166.803 479.064 166.656C478.031 166.508 476.925 166.36 475.744 166.213C475.006 166.065 474.195 165.991 473.309 165.991C472.571 165.843 471.834 165.769 471.096 165.769C469.915 165.769 468.809 165.843 467.776 165.991C466.743 165.991 465.636 166.065 464.456 166.213H463.57C462.242 165.77 460.914 165.622 459.586 165.769C458.405 165.917 457.151 165.917 455.823 165.769C454.79 165.622 453.757 165.622 452.724 165.769C451.839 165.769 450.88 165.769 449.847 165.769C448.224 165.769 446.6 165.769 444.977 165.769C443.354 165.622 441.731 165.474 440.108 165.326C438.927 165.179 437.82 165.105 436.787 165.105C435.755 165.105 434.722 164.957 433.689 164.662C432.065 164.367 430.516 164.071 429.04 163.776C427.712 163.481 426.237 163.185 424.614 162.89C422.99 162.595 421.293 162.373 419.523 162.225C417.899 162.078 416.276 161.93 414.653 161.783C412.882 161.487 411.111 161.339 409.341 161.339C407.718 161.339 406.021 161.487 404.25 161.783C403.66 161.93 403.364 162.299 403.364 162.89C403.364 163.481 403.291 164.071 403.143 164.662C403.143 165.105 403.143 165.622 403.143 166.213C402.996 167.099 402.848 167.984 402.7 168.87C402.553 169.609 402.479 170.347 402.479 171.086C402.332 171.972 402.258 172.931 402.258 173.965C402.405 174.851 402.553 175.737 402.7 176.623C402.7 177.657 403.217 178.173 404.25 178.173C405.578 178.173 406.537 178.247 407.127 178.395C408.308 178.69 409.341 178.986 410.226 179.281C411.259 179.429 412.292 179.65 413.325 179.946C414.505 180.241 415.612 180.462 416.645 180.61C417.678 180.758 418.711 180.979 419.744 181.275C420.629 181.422 421.515 181.644 422.4 181.939C423.285 182.087 424.245 182.234 425.278 182.382C426.901 182.677 428.598 182.899 430.368 183.046C432.139 183.194 433.836 183.342 435.459 183.489C436.492 183.637 437.525 183.785 438.558 183.933C439.591 183.933 440.624 184.006 441.657 184.154C443.133 184.302 444.535 184.449 445.863 184.597C447.191 184.597 448.592 184.597 450.068 184.597C451.396 184.745 452.724 184.819 454.052 184.819C455.38 184.819 456.635 184.819 457.815 184.819C458.848 185.114 459.365 184.745 459.365 183.711L460.029 179.06C460.029 178.026 460.471 177.509 461.357 177.509C462.095 177.509 462.685 177.509 463.127 177.509C463.718 177.361 464.382 177.288 465.12 177.288C466.153 177.288 467.112 177.361 467.997 177.509C468.882 177.509 469.842 177.509 470.875 177.509H475.523C476.703 177.509 477.367 177.066 477.515 176.18C477.662 175.885 477.81 175.663 477.958 175.515C478.105 175.22 478.253 174.925 478.4 174.63C478.843 174.039 479.286 173.448 479.728 172.858C480.171 172.267 480.614 171.602 481.056 170.864C481.351 170.273 481.573 169.683 481.72 169.092C482.016 168.501 482.311 167.837 482.606 167.098ZM469.768 239.086C469.915 238.495 469.989 237.978 469.989 237.535C469.989 236.945 470.063 236.428 470.21 235.985C470.506 234.804 470.653 233.696 470.653 232.662C470.801 231.481 470.948 230.3 471.096 229.119C471.243 227.494 471.391 225.944 471.539 224.467C471.686 222.843 471.612 221.218 471.317 219.594V219.373C471.465 217.158 471.612 214.942 471.76 212.727C471.907 210.512 472.055 208.298 472.203 206.083C472.35 204.015 472.424 201.948 472.424 199.881C472.424 197.666 472.571 195.524 472.867 193.457C473.014 192.866 472.793 192.349 472.203 191.906C471.76 191.759 471.539 191.316 471.539 190.577C471.834 189.101 472.129 187.993 472.424 187.255C472.867 186.369 472.645 185.926 471.76 185.926H470.653C469.325 185.926 467.997 186 466.669 186.148C465.488 186.148 464.308 186.148 463.127 186.148C461.799 186.295 461.062 186.886 460.914 187.919C460.619 189.248 460.398 190.577 460.25 191.906C460.102 193.235 459.955 194.565 459.807 195.894C459.66 197.075 459.586 198.182 459.586 199.216C459.586 200.25 459.586 201.357 459.586 202.538C459.586 203.572 459.586 204.606 459.586 205.639C459.734 206.525 459.807 207.412 459.807 208.298C459.807 210.808 459.807 213.244 459.807 215.607C459.807 217.97 459.881 220.406 460.029 222.916C460.176 224.393 460.324 225.87 460.471 227.346C460.619 228.675 460.84 230.078 461.135 231.555C461.726 233.622 462.759 235.394 464.234 236.871C465.857 238.2 467.702 238.938 469.768 239.086ZM474.195 179.281C474.047 179.133 473.9 179.06 473.752 179.06H464.013C463.718 179.06 463.349 179.281 462.906 179.724C462.611 180.462 462.39 181.274 462.242 182.16C462.242 182.899 462.095 183.711 461.799 184.597H463.349C464.972 184.449 466.521 184.375 467.997 184.375C469.62 184.375 471.243 184.302 472.867 184.154C473.457 184.154 473.9 183.859 474.195 183.268V179.281ZM412.661 146.277C412.808 145.539 412.808 144.875 412.661 144.284C412.513 143.693 412.587 143.029 412.882 142.29C413.177 141.7 413.473 141.183 413.768 140.74C414.063 140.149 414.063 139.485 413.768 138.746C413.62 138.156 413.694 137.565 413.989 136.974C414.284 136.384 414.579 135.719 414.874 134.981C415.169 134.095 415.465 133.283 415.76 132.544C416.202 131.658 416.571 130.773 416.866 129.887C417.014 129.591 417.014 129.296 416.866 129C416.866 128.705 416.866 128.41 416.866 128.114C416.424 126.933 416.719 125.899 417.752 125.013C417.014 124.275 416.793 123.684 417.088 123.241C417.53 122.651 417.899 122.134 418.195 121.691C418.49 120.657 418.637 119.698 418.637 118.812C418.785 117.926 418.932 116.966 419.08 115.932C419.08 115.341 419.006 114.825 418.859 114.382C418.711 113.939 418.637 113.422 418.637 112.831C418.49 112.536 418.416 112.093 418.416 111.502C418.859 111.502 419.227 111.502 419.523 111.502C419.965 111.354 420.408 111.281 420.851 111.281C421.588 111.428 421.957 111.797 421.957 112.388C422.105 112.831 422.252 113.274 422.4 113.717C422.548 115.784 422.621 117.778 422.621 119.697C422.621 121.617 422.695 123.537 422.843 125.457C422.843 131.216 423.064 136.827 423.507 142.29C423.507 143.472 423.654 144.653 423.949 145.835C424.245 146.868 424.466 147.976 424.614 149.157C424.761 150.043 424.835 150.929 424.835 151.815C424.835 152.701 424.909 153.587 425.056 154.473C425.056 154.916 425.13 155.359 425.278 155.802C425.425 156.097 425.499 156.467 425.499 156.91C425.499 157.796 425.425 158.312 425.278 158.46C424.245 158.755 423.507 158.829 423.064 158.682C422.917 158.534 422.843 158.312 422.843 158.017C422.843 157.722 422.769 157.426 422.621 157.131C422.031 155.95 421.662 154.99 421.515 154.251C421.367 153.513 421.22 152.775 421.072 152.037C420.924 151.151 420.851 150.338 420.851 149.6C420.703 148.419 420.629 147.385 420.629 146.499C420.629 145.465 420.482 144.358 420.187 143.176C419.449 140.814 419.154 138.673 419.301 136.753C419.596 135.719 419.744 134.759 419.744 133.873C419.744 132.84 419.744 131.806 419.744 130.772C419.744 130.625 419.67 130.477 419.523 130.33C419.523 130.182 419.523 130.034 419.523 129.887C419.227 129.739 419.08 129.665 419.08 129.665C419.08 129.96 419.006 130.182 418.859 130.33L416.202 141.626C415.76 143.25 415.317 144.801 414.874 146.277C414.432 147.754 414.063 149.305 413.768 150.929C413.03 153.144 413.03 155.359 413.768 157.574C413.915 157.869 413.915 158.091 413.768 158.238C413.62 158.386 413.546 158.534 413.546 158.682C412.513 158.682 411.997 158.534 411.997 158.238C411.702 157.5 411.407 156.836 411.111 156.245C410.816 155.507 410.816 154.621 411.111 153.587C411.407 152.849 411.48 152.036 411.333 151.15C411.333 150.117 411.407 149.157 411.554 148.271C411.702 147.828 412.071 147.163 412.661 146.277Z" fill="white"/>
<path d="M497.967 688.296V689.182V690.363C497.967 690.756 497.967 691.151 497.967 691.545C498.165 691.938 498.165 692.333 497.967 692.726V695.975C497.77 696.565 497.672 697.451 497.672 698.633V700.7V703.358C497.279 704.932 496.984 706.704 496.787 708.674C496.787 710.446 496.59 712.316 496.197 714.285C495.606 717.041 495.016 719.601 494.426 721.964C494.033 724.129 493.638 726.296 493.245 728.461C493.048 729.445 492.853 730.331 492.655 731.119C492.458 731.907 492.262 732.793 492.065 733.777C491.672 734.368 491.377 735.056 491.179 735.845C491.179 736.633 491.082 737.419 490.884 738.207C490.294 740.372 489.704 742.637 489.114 745C488.721 747.165 488.326 749.43 487.933 751.793C487.54 753.367 487.245 754.943 487.048 756.518C487.048 758.092 486.85 759.669 486.457 761.243C486.457 762.425 486.36 763.408 486.162 764.197C485.965 765.18 485.867 766.166 485.867 767.15C485.867 768.134 485.77 769.217 485.572 770.399C485.572 770.596 485.572 770.792 485.572 770.989C485.77 771.187 485.867 771.382 485.867 771.58C486.065 772.959 485.867 773.943 485.277 774.533C485.08 774.926 484.392 775.124 483.211 775.124H482.916H480.26H478.489H476.423C476.03 775.124 475.636 775.026 475.243 774.829C475.045 774.829 474.75 774.829 474.357 774.829H468.16H465.799H464.028H459.601C459.011 774.829 458.421 774.829 457.83 774.829C457.24 775.026 456.65 775.124 456.06 775.124H451.042C448.879 775.124 447.303 775.026 446.32 774.829H444.845C444.254 774.631 443.664 774.533 443.074 774.533C442.484 774.533 441.991 774.436 441.598 774.238C441.205 774.238 440.811 774.04 440.418 773.647C440.418 773.647 440.32 773.549 440.123 773.352C439.925 773.352 439.828 773.154 439.828 772.761V772.466C440.22 772.073 440.418 771.875 440.418 771.875H443.369C442.581 770.892 442.386 769.61 442.779 768.036C442.779 767.643 442.681 767.347 442.484 767.15C442.286 766.952 442.189 766.559 442.189 765.969C441.991 765.378 441.893 764.492 441.893 763.311V761.243C441.893 760.85 441.796 760.653 441.598 760.653C441.598 760.455 441.598 760.16 441.598 759.767C441.401 759.373 441.303 758.881 441.303 758.29V753.565C441.303 753.171 441.401 752.974 441.598 752.974C441.205 752.186 441.106 751.695 441.303 751.497C441.501 751.104 441.501 750.809 441.303 750.611C440.713 750.414 440.418 749.823 440.418 748.839C440.418 748.446 440.516 748.151 440.713 747.953V747.363C440.713 746.97 440.615 746.574 440.418 746.181C440.418 745.591 440.418 745.098 440.418 744.705C440.22 744.312 440.123 744.016 440.123 743.819C440.123 743.425 440.025 743.03 439.828 742.637C439.63 742.047 439.435 741.456 439.237 740.865C439.237 740.077 439.14 739.389 438.942 738.798C438.745 737.617 438.647 736.435 438.647 735.254C438.647 734.073 438.647 732.891 438.647 731.71C438.45 731.119 438.352 730.036 438.352 728.461V725.803V724.622C438.352 724.229 438.254 724.031 438.057 724.031C438.057 723.834 438.057 723.538 438.057 723.145C438.057 722.752 438.057 722.457 438.057 722.259C438.254 721.866 438.352 721.471 438.352 721.078V719.011V716.943V714.285V711.923C438.549 711.134 438.647 709.953 438.647 708.379V706.016C438.844 705.228 438.844 704.342 438.647 703.358C438.254 701.783 438.254 700.207 438.647 698.633C438.647 698.239 438.647 697.944 438.647 697.747C438.844 697.549 438.942 697.254 438.942 696.861V695.384C439.14 694.203 439.237 693.021 439.237 691.84C439.237 690.659 439.435 689.477 439.828 688.296C439.828 686.722 440.025 684.95 440.418 682.98C440.811 681.406 441.008 680.224 441.008 679.436C441.205 679.043 441.303 678.452 441.303 677.664C441.303 676.68 441.401 675.892 441.598 675.301C441.991 674.12 442.189 672.939 442.189 671.757C442.386 670.576 442.681 669.395 443.074 668.213L443.959 664.669C443.959 664.472 443.959 664.374 443.959 664.374C444.157 664.176 444.254 663.881 444.254 663.488C444.647 662.307 444.845 661.421 444.845 660.83C444.845 659.846 444.845 658.86 444.845 657.877C445.042 656.695 445.238 655.612 445.435 654.628L446.32 650.198C446.32 649.805 446.32 649.41 446.32 649.017C446.518 648.426 446.615 647.933 446.615 647.54C446.813 647.147 446.911 646.456 446.911 645.473V644.291V643.701V643.405V642.815C446.911 642.224 447.008 641.731 447.206 641.338C447.206 640.945 447.206 640.55 447.206 640.157C447.403 639.566 447.501 639.073 447.501 638.68C447.698 637.892 447.796 637.105 447.796 636.317C447.796 635.529 447.796 634.743 447.796 633.955C447.993 633.364 447.993 632.773 447.796 632.183C447.796 631.592 447.796 630.903 447.796 630.115V626.867V623.323V620.074C447.796 618.893 447.698 618.007 447.501 617.416V616.235V615.939L447.796 613.281C447.796 612.297 447.796 611.312 447.796 610.328C447.796 609.344 447.894 608.358 448.091 607.375C448.091 605.996 447.993 605.012 447.796 604.421C447.599 603.042 447.501 601.763 447.501 600.582C447.501 599.401 447.501 598.317 447.501 597.333C447.501 596.94 447.501 596.645 447.501 596.447C447.698 596.25 447.796 595.954 447.796 595.561C448.189 593.987 448.091 592.608 447.501 591.427C447.303 591.229 447.206 591.033 447.206 590.836C447.403 590.443 447.501 590.147 447.501 589.95C447.894 589.162 448.091 587.98 448.091 586.406V583.748V581.681L446.32 583.453C445.533 584.436 444.747 585.322 443.959 586.111C443.369 586.701 442.581 587.194 441.598 587.587L441.303 588.473C440.91 588.866 440.615 589.262 440.418 589.655C440.418 589.852 440.22 590.147 439.828 590.541L439.532 591.131C439.14 591.722 438.745 592.313 438.352 592.903C437.959 593.296 437.564 593.789 437.171 594.38C436.384 595.168 435.893 595.857 435.696 596.447C435.106 596.84 434.613 597.333 434.22 597.924C434.023 598.317 433.63 598.81 433.04 599.401C432.842 599.598 432.547 600.089 432.154 600.877C431.761 601.27 431.367 601.666 430.974 602.059C430.776 602.452 430.481 602.847 430.088 603.24C429.696 603.633 429.301 604.028 428.908 604.421C428.711 604.814 428.415 605.209 428.023 605.603C426.842 607.177 426.054 608.261 425.662 608.851C425.269 609.244 424.974 609.54 424.776 609.737C424.776 609.935 424.579 610.23 424.186 610.623C424.186 610.623 423.989 611.016 423.596 611.805C423.005 612.198 422.317 612.986 421.53 614.167C421.137 614.56 420.94 615.053 420.94 615.644C420.547 616.825 419.661 617.416 418.283 617.416H417.693C416.513 617.416 415.332 617.416 414.152 617.416C412.971 617.218 411.791 617.023 410.61 616.825C409.43 616.432 408.151 616.235 406.773 616.235C405.593 616.037 404.412 615.742 403.232 615.349C402.839 615.151 402.444 615.053 402.051 615.053C401.854 615.053 401.559 614.955 401.166 614.758C400.773 614.758 400.378 614.56 399.986 614.167H399.69C399.69 613.97 399.593 613.872 399.395 613.872C399.395 613.674 399.298 613.577 399.1 613.577C396.739 612.986 394.576 611.707 392.607 609.737C392.215 609.54 391.82 609.344 391.427 609.147C391.23 608.949 390.934 608.753 390.542 608.556C389.754 608.163 389.066 607.67 388.476 607.079C387.492 606.686 387 605.898 387 604.717C387.393 603.733 388.083 602.945 389.066 602.354C389.656 602.156 390.444 601.566 391.427 600.582C391.82 599.794 392.705 598.908 394.083 597.924C394.28 597.726 394.378 597.531 394.378 597.333C394.576 597.136 394.871 596.94 395.264 596.743C395.656 596.545 395.854 596.349 395.854 596.152C396.051 595.954 396.346 595.659 396.739 595.266C397.92 594.085 398.903 593.199 399.69 592.608C400.083 592.215 400.378 591.919 400.576 591.722C400.969 591.329 401.363 590.934 401.756 590.541C402.149 590.147 402.642 589.655 403.232 589.064C403.822 588.473 404.412 587.98 405.003 587.587C405.593 587.39 406.183 586.799 406.773 585.815L407.659 584.929L408.839 584.043C409.43 583.255 410.315 582.271 411.495 581.09C411.693 580.892 411.791 580.795 411.791 580.795C411.791 580.597 411.888 580.401 412.086 580.204L412.971 579.318C413.364 578.925 413.561 578.629 413.561 578.432C413.954 578.039 414.249 577.744 414.447 577.546C414.84 577.153 415.332 576.857 415.922 576.66C416.12 576.66 416.218 576.562 416.218 576.365C416.415 576.167 416.513 575.971 416.513 575.774C416.71 575.381 417.005 574.986 417.398 574.593C417.791 573.804 418.186 573.116 418.579 572.525C419.169 571.935 419.956 571.442 420.94 571.049C420.94 571.049 421.137 570.851 421.53 570.458V570.163L422.415 569.277C422.808 568.488 423.203 567.997 423.596 567.8C424.579 566.619 425.662 565.339 426.842 563.961C428.22 562.582 429.696 561.205 431.269 559.826C432.647 558.251 434.122 556.675 435.696 555.101C437.467 553.526 439.14 551.95 440.713 550.375C442.091 548.996 443.369 547.619 444.55 546.241C445.927 544.862 447.403 543.287 448.976 541.515C450.945 539.35 451.928 537.085 451.928 534.723C451.928 534.525 451.83 534.329 451.633 534.132C451.435 533.148 451.337 532.557 451.337 532.36C451.535 531.967 452.026 531.572 452.813 531.179C452.813 531.179 453.01 531.081 453.403 530.883C454.387 530.49 455.272 530.195 456.06 529.997C456.847 529.8 457.633 529.604 458.421 529.407C459.208 529.407 460.389 529.209 461.962 528.816C462.355 528.618 463.045 528.521 464.028 528.521H465.208H465.504C466.684 528.323 467.865 528.225 469.045 528.225C470.226 528.028 471.406 527.732 472.587 527.339C473.177 527.142 474.26 526.846 475.833 526.453C476.621 526.06 477.406 525.863 478.194 525.863L485.277 524.091C487.245 523.697 488.523 524.583 489.114 526.749C489.114 527.142 489.114 527.537 489.114 527.93C489.311 528.323 489.409 528.718 489.409 529.111L490.294 531.769C490.492 532.753 490.589 533.639 490.589 534.427C490.589 535.215 490.687 536.101 490.884 537.085V538.267C491.277 540.432 491.475 542.599 491.475 544.764C491.672 546.733 491.967 548.801 492.36 550.966C492.36 551.754 492.36 552.443 492.36 553.033C492.557 553.624 492.655 554.312 492.655 555.101C492.655 556.48 492.853 558.152 493.245 560.121C493.245 561.105 493.245 561.991 493.245 562.779C493.443 563.37 493.638 564.058 493.836 564.847C493.836 565.24 493.836 565.635 493.836 566.028C494.033 566.421 494.131 566.816 494.131 567.209V567.505C494.131 567.898 494.131 568.193 494.131 568.391C494.328 568.588 494.426 568.784 494.426 568.981C494.229 570.753 494.229 572.623 494.426 574.593C494.819 576.562 495.214 578.629 495.606 580.795C495.804 581.188 495.902 581.681 495.902 582.271V582.862V584.043V587.883V589.655V590.836V592.017V596.447V599.696C495.902 600.089 495.902 600.484 495.902 600.877C496.099 601.075 496.197 601.37 496.197 601.763V603.24V604.421V609.147C496.197 610.721 496.197 612.297 496.197 613.872C496.197 615.251 496.294 616.727 496.492 618.302C496.492 619.286 496.492 620.172 496.492 620.96C496.492 621.748 496.394 622.634 496.197 623.618V629.525C496.394 631.297 496.492 633.069 496.492 634.841C496.492 636.613 496.59 638.482 496.787 640.452C496.787 642.617 496.885 644.193 497.082 645.177V649.903C497.279 650.886 497.377 651.772 497.377 652.561C497.377 653.151 497.377 653.84 497.377 654.628C497.377 655.612 497.377 656.597 497.377 657.581C497.377 658.369 497.475 659.255 497.672 660.239C497.672 661.223 497.672 662.109 497.672 662.897C497.672 663.685 497.77 664.472 497.967 665.26C498.165 666.244 498.263 667.23 498.263 668.213C498.263 669.197 498.263 670.183 498.263 671.167C498.46 672.15 498.46 673.036 498.263 673.825C498.263 674.415 498.263 675.203 498.263 676.187V679.141V681.208V683.866C498.263 685.245 498.165 686.229 497.967 686.819V688.296ZM494.721 685.933C494.918 685.145 495.016 684.359 495.016 683.571C495.016 682.782 495.016 681.897 495.016 680.913C495.214 680.125 495.311 679.043 495.311 677.664V675.597C495.311 675.006 495.214 674.513 495.016 674.12C495.016 673.136 494.918 672.348 494.721 671.757V669.395V667.032C494.721 666.244 494.623 665.457 494.426 664.669C494.426 663.881 494.426 663.095 494.426 662.307C494.229 661.323 494.131 660.239 494.131 659.058C494.131 657.877 494.033 656.695 493.836 655.514C493.836 654.135 493.933 653.151 494.131 652.561V650.198C494.131 648.228 494.033 646.852 493.836 646.063V645.473V644.587C493.638 644.193 493.54 643.603 493.54 642.815C493.933 642.224 494.033 641.633 493.836 641.043C493.836 640.452 493.836 639.764 493.836 638.975C493.836 638.582 493.738 638.385 493.54 638.385C493.54 638.187 493.54 637.892 493.54 637.499V631.297V628.343V628.048V627.753L493.245 626.867V624.504V621.551V620.074V619.779V615.939V608.556V602.945V597.924C492.853 597.531 492.853 597.038 493.245 596.447C493.245 595.659 493.148 594.971 492.95 594.38V593.199V591.722V589.95V587.292C492.95 585.913 492.853 584.634 492.655 583.453C492.655 582.074 492.557 580.795 492.36 579.613C492.163 578.825 492.065 578.039 492.065 577.251C492.065 576.462 491.967 575.676 491.77 574.888C491.572 574.297 491.475 573.313 491.475 571.935C491.082 569.965 490.884 568.488 490.884 567.505V566.914V566.028C490.491 564.649 490.196 563.37 489.999 562.189C489.999 560.81 489.999 559.531 489.999 558.349V558.054C489.999 557.463 489.999 556.873 489.999 556.282C489.999 555.494 489.901 554.805 489.704 554.215C489.704 553.821 489.606 553.426 489.409 553.033C489.409 552.64 489.409 552.245 489.409 551.852C489.211 551.459 489.114 551.064 489.114 550.671C489.114 550.08 489.016 549.587 488.818 549.194C488.621 548.21 488.523 547.224 488.523 546.241C488.523 545.257 488.426 544.076 488.228 542.697C488.228 542.304 488.131 541.908 487.933 541.515C487.933 541.122 487.933 540.727 487.933 540.334C487.933 538.76 487.835 537.578 487.638 536.79C487.441 535.806 487.245 534.92 487.048 534.132C487.048 533.148 486.95 532.162 486.753 531.179C486.753 530.785 486.655 530.39 486.457 529.997C486.457 529.407 486.457 528.914 486.457 528.521C486.457 527.93 486.26 527.635 485.867 527.635L485.277 527.93C484.294 527.93 483.604 528.028 483.211 528.225L478.784 529.111C477.013 529.504 475.243 529.899 473.472 530.293C471.701 530.686 469.833 531.081 467.865 531.474C466.291 531.671 464.618 531.867 462.847 532.065C461.274 532.262 459.699 532.558 458.125 532.951L457.24 533.246C456.06 533.246 455.469 533.639 455.469 534.427C455.272 535.411 455.076 536.495 454.879 537.676C454.879 538.857 454.781 539.941 454.584 540.925C454.584 541.908 454.387 543.189 453.994 544.764C453.994 546.143 453.896 547.225 453.698 548.013C453.698 548.997 453.601 549.882 453.403 550.671C453.403 551.459 453.306 552.345 453.108 553.329C452.715 555.298 452.42 557.266 452.223 559.235C452.223 561.205 452.125 563.272 451.928 565.437V567.209C451.928 568.193 452.025 568.981 452.223 569.572V571.049V572.821H453.108H453.403C453.796 572.821 453.994 572.918 453.994 573.116C454.191 573.116 454.289 573.214 454.289 573.411C454.289 573.609 454.191 573.707 453.994 573.707V574.888C453.601 575.479 453.306 575.774 453.108 575.774C452.321 576.167 451.83 577.053 451.633 578.432V583.453V585.52V604.421V610.033V611.214V617.121C451.633 618.104 451.633 619.09 451.633 620.074C451.633 621.058 451.73 622.043 451.928 623.027V630.115V630.706V635.136C451.928 635.727 451.83 636.317 451.633 636.908C451.633 637.499 451.633 638.089 451.633 638.68C451.435 639.664 451.24 640.649 451.042 641.633C451.042 642.421 451.042 643.307 451.042 644.291C451.042 646.654 450.649 649.017 449.862 651.379V651.97V654.037C449.664 654.628 449.567 655.316 449.567 656.105C449.567 656.695 449.469 657.286 449.272 657.877C449.074 659.451 448.879 661.027 448.681 662.602C448.484 663.981 448.189 665.457 447.796 667.032L446.911 671.462C446.713 672.053 446.615 672.643 446.615 673.234C446.615 673.627 446.518 674.12 446.32 674.711C446.123 675.499 445.927 676.187 445.73 676.778C445.73 677.369 445.632 678.057 445.435 678.845C445.435 679.633 445.238 680.815 444.845 682.389C444.647 683.373 444.452 684.457 444.254 685.638C444.057 686.622 443.862 687.607 443.664 688.591C443.467 689.97 443.369 691.347 443.369 692.726C443.369 693.907 443.271 695.089 443.074 696.27V698.928V701.881C443.074 703.063 442.976 703.851 442.779 704.244V708.969C442.581 709.953 442.484 710.839 442.484 711.627C442.484 712.218 442.484 712.906 442.484 713.695V715.762V717.829C442.484 718.618 442.386 719.108 442.189 719.306V722.555C442.386 723.538 442.484 724.524 442.484 725.508C442.484 726.296 442.581 727.182 442.779 728.166C442.779 729.15 442.779 730.036 442.779 730.824C442.779 731.612 442.877 732.398 443.074 733.187V736.14C443.074 736.731 443.074 737.419 443.074 738.207C443.074 738.798 443.172 739.389 443.369 739.979C443.369 740.177 443.369 740.372 443.369 740.57C443.566 740.57 443.664 740.668 443.664 740.865C444.057 741.258 444.254 741.751 444.254 742.342C444.254 743.523 444.352 744.409 444.55 745C444.942 746.181 445.14 747.265 445.14 748.249C444.942 749.037 444.845 749.823 444.845 750.611C445.042 751.202 445.14 751.793 445.14 752.383V754.746C444.747 756.125 444.845 757.206 445.435 757.995V758.881C445.238 759.274 445.14 759.767 445.14 760.357C445.337 760.75 445.435 761.243 445.435 761.834C445.435 762.032 445.435 762.129 445.435 762.129C445.632 762.327 445.73 762.622 445.73 763.015C445.927 763.999 446.025 765.083 446.025 766.264C446.025 767.445 446.025 768.529 446.025 769.513V772.171H482.326V771.875V769.808V768.627V765.969C482.326 765.575 482.326 765.18 482.326 764.787C482.523 764.394 482.621 763.999 482.621 763.606C482.621 763.408 482.621 763.213 482.621 763.015C482.818 762.818 482.916 762.523 482.916 762.129C482.916 761.736 482.916 761.243 482.916 760.653C483.113 760.062 483.211 759.471 483.211 758.881C483.408 758.092 483.506 757.404 483.506 756.813C483.506 756.025 483.604 755.239 483.801 754.451C483.999 754.058 484.096 753.662 484.096 753.269C484.096 752.679 484.194 752.186 484.392 751.793C484.392 751.595 484.392 751.497 484.392 751.497C484.589 751.497 484.687 751.399 484.687 751.202C484.687 750.809 484.687 750.611 484.687 750.611C484.884 750.414 484.982 750.118 484.982 749.725C485.179 749.332 485.277 749.037 485.277 748.839C485.277 748.446 485.375 748.051 485.572 747.658C485.572 747.265 485.572 746.969 485.572 746.772C485.77 746.379 485.867 745.984 485.867 745.591C485.867 745.393 485.867 745.197 485.867 745C486.065 744.802 486.162 744.507 486.162 744.114C486.36 743.523 486.457 742.835 486.457 742.047C486.655 741.258 486.85 740.472 487.048 739.684C487.048 739.486 487.048 739.389 487.048 739.389C487.245 739.191 487.343 738.896 487.343 738.503C487.54 738.305 487.638 738.01 487.638 737.617C487.835 737.223 487.933 736.928 487.933 736.731C487.933 736.533 488.031 736.337 488.228 736.14C488.621 734.959 488.916 733.777 489.114 732.596C489.311 731.415 489.507 730.233 489.704 729.052C489.704 728.461 489.901 727.575 490.294 726.394C490.687 724.819 490.787 723.538 490.589 722.555C490.589 722.357 490.787 721.866 491.179 721.078C491.179 721.078 491.277 720.98 491.475 720.783C491.672 720.585 491.77 720.39 491.77 720.192C491.967 719.601 492.065 718.42 492.065 716.648C492.065 715.073 492.36 713.497 492.95 711.923C493.148 710.939 493.245 710.053 493.245 709.265C493.443 708.476 493.54 707.69 493.54 706.902C493.343 705.918 493.245 704.932 493.245 703.949C493.443 702.767 493.638 701.684 493.836 700.7C494.033 700.109 494.131 699.223 494.131 698.042L494.426 696.565C494.426 695.581 494.426 694.793 494.426 694.203C494.623 693.414 494.721 692.528 494.721 691.545V688.887V685.933ZM448.091 568.686C447.894 568.095 447.796 567.307 447.796 566.323C447.993 565.535 448.091 564.847 448.091 564.256C448.091 563.665 448.189 562.977 448.386 562.189C448.386 561.205 448.484 560.514 448.681 560.121C448.681 559.138 448.681 558.252 448.681 557.463C448.879 556.48 449.074 555.494 449.272 554.51L449.567 551.261V550.966C449.764 550.768 449.862 550.375 449.862 549.785L450.747 546.241C450.747 545.452 450.649 544.862 450.452 544.469L449.862 545.059C449.272 546.043 448.584 546.929 447.796 547.717C447.206 548.506 446.418 549.392 445.435 550.375C445.042 550.768 444.647 551.064 444.254 551.261C443.664 552.049 442.681 553.131 441.303 554.51C440.713 555.101 440.123 555.691 439.532 556.282C438.942 556.675 438.45 557.168 438.057 557.759C437.467 558.349 436.876 558.94 436.286 559.531C435.696 560.121 435.106 560.614 434.515 561.007C433.532 561.991 432.547 562.977 431.564 563.961C430.581 564.944 429.596 565.93 428.613 566.914C427.63 567.898 426.744 568.884 425.957 569.867C425.169 570.851 424.284 571.837 423.301 572.821C422.71 573.411 422.12 574.1 421.53 574.888C420.939 575.479 420.349 576.167 419.759 576.955C419.366 577.348 418.971 577.743 418.579 578.137C418.186 578.53 417.791 578.925 417.398 579.318L415.627 581.09C414.84 581.878 414.152 582.567 413.561 583.157C412.971 583.748 412.381 584.436 411.791 585.225L408.249 588.769L407.364 589.655C406.971 589.852 406.576 590.147 406.183 590.541L403.527 593.199C402.937 593.987 402.249 594.675 401.461 595.266L400.281 596.447L398.805 597.924C398.412 598.317 398.017 598.712 397.625 599.105C397.427 599.303 397.132 599.598 396.739 599.991L393.198 603.535C393 603.928 392.41 604.421 391.427 605.012L391.132 605.307H391.427C392.017 605.7 392.705 606.095 393.493 606.489C394.673 607.277 395.461 607.768 395.854 607.965C396.641 608.556 397.822 609.244 399.395 610.033C403.134 612.395 408.052 613.774 414.152 614.167C414.939 614.167 415.529 614.265 415.922 614.463C416.71 614.66 417.3 614.265 417.693 613.281C418.481 612.1 419.071 611.312 419.464 610.919L419.759 610.328L420.644 609.442C420.644 609.049 420.842 608.851 421.235 608.851C421.628 608.458 421.923 608.063 422.12 607.67C422.317 607.277 422.613 606.882 423.005 606.489C423.398 605.898 424.186 604.814 425.366 603.24L427.137 601.468C427.53 601.075 427.825 600.68 428.023 600.287C428.22 599.893 428.515 599.498 428.908 599.105C429.498 598.515 429.891 598.022 430.088 597.629C430.481 597.235 430.776 596.84 430.974 596.447C431.367 595.857 431.761 595.364 432.154 594.971L432.449 594.675V594.085L433.04 593.494C433.237 592.706 433.63 592.017 434.22 591.427C434.418 591.033 434.613 590.836 434.81 590.836C435.008 590.638 435.203 590.343 435.401 589.95C436.581 589.162 437.467 588.08 438.057 586.701C439.04 585.52 440.025 584.436 441.008 583.453C442.189 582.469 443.369 581.483 444.55 580.499C445.337 579.711 445.828 579.12 446.025 578.727C446.223 578.53 446.32 578.432 446.32 578.432C446.32 578.234 446.418 578.039 446.615 577.841V577.546C446.615 577.546 446.813 577.348 447.206 576.955C448.189 575.576 448.484 574.495 448.091 573.707V573.116V572.23V569.867V568.686Z" fill="white"/>
</g>
<defs>
<clipPath id="clip0_173_414">
<rect width="886" height="886" fill="white"/>
</clipPath>
</defs>
</svg>
