<svg width="880" height="886" viewBox="0 0 880 886" fill="none" xmlns="http://www.w3.org/2000/svg">
<g clip-path="url(#clip0_140_171)">
<mask id="mask0_140_171" style="mask-type:luminance" maskUnits="userSpaceOnUse" x="0" y="0" width="880" height="886">
<path d="M880 0H0V886H880V0Z" fill="white"/>
</mask>
<g mask="url(#mask0_140_171)">
<path d="M879.84 0H-1.84473V547.009H879.84V0Z" fill="#7036CC"/>
<path d="M879.84 547.009H-1.84473V886H879.84V547.009Z" fill="#3D1F6D"/>
<path d="M492.284 691.154C492.629 692.016 492.629 692.963 492.284 693.997C492.112 694.685 492.025 695.719 492.025 697.098V697.873C492.025 699.078 491.939 699.94 491.767 700.457C491.767 700.802 491.68 701.061 491.509 701.232C491.509 701.404 491.509 701.662 491.509 702.008V703.816C491.509 704.85 491.422 705.625 491.25 706.142C491.25 707.004 491.079 708.123 490.734 709.502L490.476 710.535V710.794V711.052V711.569C490.476 712.257 490.389 712.689 490.217 712.861C490.217 713.033 490.131 713.206 489.959 713.378C489.959 713.378 489.959 713.465 489.959 713.636V714.153C489.614 714.842 489.356 715.532 489.184 716.22C489.013 716.737 488.839 717.426 488.668 718.288C488.151 719.667 487.548 721.044 486.86 722.422C486.172 723.628 485.482 724.92 484.793 726.299C484.793 726.47 484.707 726.557 484.535 726.557C484.535 726.557 484.535 726.644 484.535 726.816C483.847 727.849 483.502 728.624 483.502 729.141C483.33 729.83 483.157 730.433 482.985 730.95C482.814 731.467 482.556 732.071 482.211 732.759C482.211 733.104 482.039 733.448 481.694 733.793C481.349 734.826 481.091 735.515 480.919 735.86L480.144 736.635C480.144 736.807 479.973 737.065 479.628 737.411C479.628 737.582 479.541 737.756 479.37 737.927C479.37 737.927 479.37 738.099 479.37 738.444C479.198 738.616 479.111 738.789 479.111 738.961C479.111 739.133 479.025 739.306 478.853 739.478C477.991 741.028 477.217 742.321 476.528 743.354L476.27 743.613C475.925 744.301 475.582 744.818 475.237 745.163C475.066 745.335 474.892 745.422 474.721 745.422C474.721 745.422 474.634 745.508 474.462 745.68L474.204 745.938V746.197C474.032 746.542 473.946 746.885 473.946 747.23C473.774 747.576 473.601 747.834 473.429 748.006C473.258 748.006 473.084 748.092 472.913 748.264L472.396 748.781C472.051 749.126 471.793 749.385 471.621 749.556C471.621 749.728 471.45 749.986 471.105 750.331C470.76 751.02 470.416 751.452 470.071 751.624C469.726 752.14 469.383 752.657 469.038 753.174C468.693 753.519 468.35 753.949 468.005 754.466C466.456 756.362 464.819 758.171 463.098 759.893C461.548 761.615 459.912 763.424 458.191 765.32C456.469 767.042 454.833 768.851 453.283 770.746C451.734 772.642 450.184 774.536 448.634 776.432C448.118 776.948 447.343 777.895 446.31 779.274C439.078 788.405 429.866 795.554 418.674 800.723H418.415C417.037 801.411 415.919 801.928 415.058 802.273C414.886 802.273 414.713 802.36 414.541 802.532C414.369 802.532 414.196 802.532 414.025 802.532C413.68 802.703 413.421 802.79 413.25 802.79C413.078 802.79 412.82 802.877 412.475 803.048C413.336 803.22 414.111 803.394 414.799 803.565C415.661 803.565 416.521 803.652 417.382 803.824C419.277 804.169 421.17 804.512 423.064 804.857C425.131 805.029 427.11 805.287 429.005 805.633C430.209 805.804 431.329 805.978 432.362 806.149C433.567 806.149 434.774 806.149 435.978 806.149C437.873 806.321 439.681 806.495 441.402 806.666C443.297 806.666 445.19 806.838 447.084 807.183C448.634 807.528 450.097 807.872 451.475 808.217C453.025 808.388 454.403 808.647 455.608 808.992C455.953 809.164 456.469 809.25 457.157 809.25C458.362 809.596 459.569 810.026 460.773 810.543C462.151 810.888 463.011 811.576 463.356 812.61C463.701 813.127 463.701 813.73 463.356 814.419C463.185 815.107 462.926 815.711 462.581 816.228V816.745C461.893 817.95 461.377 819.157 461.032 820.362V821.654L460.257 823.98V824.239C459.74 825.101 459.74 825.702 460.257 826.048L460.773 826.564L460.257 826.823C459.912 826.994 459.482 827.168 458.965 827.34C458.62 827.511 458.277 827.598 457.932 827.598C457.587 827.598 457.244 827.511 456.899 827.34L456.124 826.564C456.124 826.393 456.038 826.306 455.866 826.306C455.866 826.134 455.436 825.876 454.575 825.531H454.316C453.628 825.359 452.938 825.186 452.25 825.014C451.734 825.014 451.045 824.842 450.184 824.497C449.322 824.325 448.376 824.152 447.343 823.98C446.31 823.809 445.277 823.55 444.243 823.205C442.522 822.688 440.886 822.343 439.336 822.171C437.786 822.171 436.065 822.085 434.17 821.913C433.309 821.913 432.534 821.913 431.846 821.913C431.158 821.913 430.383 821.826 429.521 821.654C428.66 821.654 427.713 821.654 426.68 821.654C425.647 821.654 424.701 821.568 423.839 821.396C422.118 821.396 420.395 821.396 418.674 821.396C417.124 821.568 415.487 821.654 413.766 821.654C411.872 821.826 409.892 821.913 407.826 821.913C405.76 822.085 403.78 822.085 401.885 821.913C401.024 821.913 400.164 821.826 399.303 821.654C398.441 821.654 397.581 821.654 396.72 821.654H395.17C393.275 821.654 391.984 821.568 391.296 821.396C390.434 821.051 389.918 820.621 389.746 820.104C389.746 819.587 389.833 819.157 390.004 818.812C390.004 818.295 390.004 817.778 390.004 817.261C390.176 816.745 390.263 816.228 390.263 815.711V813.902C390.434 813.04 390.521 812.265 390.521 811.576C390.693 810.714 390.866 809.854 391.038 808.992L391.812 803.565V803.048C391.812 802.703 391.812 802.273 391.812 801.756C391.984 801.24 392.242 800.809 392.587 800.464C393.104 800.293 394.05 800.378 395.428 800.723H396.461C397.323 800.894 398.614 800.981 400.336 800.981C401.369 801.153 402.402 801.24 403.435 801.24C404.64 801.24 405.76 801.24 406.793 801.24C408.687 801.068 410.409 800.723 411.958 800.206C413.508 799.689 414.971 799.085 416.349 798.397C417.727 797.708 419.103 797.018 420.482 796.33C421.86 795.641 423.323 794.779 424.872 793.745L427.197 792.195C429.092 791.333 430.984 790.041 432.879 788.319C437.356 784.356 441.919 779.704 446.568 774.364C447.084 773.676 447.601 772.985 448.118 772.297C448.634 771.608 449.151 770.918 449.667 770.23L451.992 767.129C452.853 766.095 453.8 765.148 454.833 764.286C455.349 763.769 455.866 763.339 456.383 762.994C456.899 762.477 457.329 761.96 457.674 761.443C459.569 758.859 461.806 756.275 464.389 753.691C465.422 752.486 466.456 751.365 467.489 750.331C468.522 749.126 469.555 747.834 470.588 746.455C471.276 745.593 471.879 744.646 472.396 743.613C472.913 742.579 473.516 741.545 474.204 740.512C474.892 739.478 475.324 738.703 475.495 738.186C477.045 735.773 478.595 732.846 480.144 729.4C480.489 728.538 480.748 727.849 480.919 727.332C481.264 726.816 481.607 726.212 481.952 725.523C482.297 724.661 482.641 723.973 482.985 723.456C483.33 722.768 483.674 721.992 484.019 721.13C485.568 717.341 486.688 713.981 487.376 711.052C488.064 708.296 488.581 705.367 488.926 702.266C489.443 699.165 489.529 696.064 489.184 692.963C489.013 691.929 488.926 690.896 488.926 689.862C488.926 688.657 488.926 687.536 488.926 686.503C489.271 685.124 489.271 683.747 488.926 682.368V676.941C488.926 676.596 488.839 676.253 488.668 675.907C488.668 675.391 488.668 674.874 488.668 674.357C488.668 674.012 488.581 673.668 488.409 673.323C488.409 672.806 488.409 672.376 488.409 672.031C488.409 668.413 488.064 665.226 487.376 662.47C487.031 661.781 486.86 661.264 486.86 660.919C486.688 660.574 486.515 660.144 486.343 659.627C486.343 659.11 486.256 658.68 486.085 658.335C485.913 657.99 485.827 657.647 485.827 657.301C485.827 656.956 485.74 656.613 485.568 656.268C485.568 655.579 485.397 654.717 485.052 653.684C484.019 650.583 482.814 647.482 481.436 644.381C480.231 641.28 478.94 638.265 477.562 635.336C476.7 633.957 475.84 632.58 474.979 631.201C474.117 629.823 473.171 628.446 472.138 627.067C469.9 624.137 467.66 621.898 465.422 620.348C462.668 618.452 459.827 616.73 456.899 615.18C453.971 613.457 450.787 612.25 447.343 611.562C446.655 611.562 446.138 611.475 445.793 611.303C444.415 610.958 443.382 610.786 442.694 610.786C441.832 610.615 440.972 610.615 440.111 610.786C439.249 610.786 438.39 610.873 437.528 611.045C436.15 611.39 434.945 611.562 433.912 611.562C432.879 611.733 431.846 611.907 430.813 612.079C429.78 612.079 428.833 612.25 427.972 612.595C421.085 614.491 415.661 617.592 411.7 621.898C406.534 627.238 403.348 632.665 402.144 638.179C401.627 640.418 401.11 642.658 400.594 644.897C400.249 647.136 399.819 649.291 399.303 651.358C399.131 652.392 398.958 653.425 398.786 654.459C398.786 655.493 398.614 656.526 398.269 657.56C398.098 657.905 398.011 658.335 398.011 658.852C398.011 659.197 397.924 659.54 397.753 659.886C397.753 659.886 397.666 660.057 397.495 660.402C397.495 660.574 397.408 660.748 397.236 660.919C397.236 661.091 397.236 661.264 397.236 661.436C397.408 661.781 397.753 662.04 398.269 662.211C398.958 662.383 399.474 662.557 399.819 662.728C399.991 662.728 400.164 662.815 400.336 662.987C401.885 663.503 403.348 663.762 404.726 663.762H405.243C405.931 663.762 406.448 663.849 406.793 664.02H407.051H407.826H408.084V663.762V663.503C408.256 662.987 408.342 662.47 408.342 661.953C408.514 661.264 408.687 660.661 408.859 660.144C409.204 659.11 409.462 658.077 409.634 657.043C409.979 655.838 410.322 654.717 410.667 653.684C410.838 653.167 411.012 652.65 411.183 652.133C411.355 651.445 411.528 650.754 411.7 650.066C412.562 647.827 413.25 645.844 413.766 644.122C413.938 643.26 414.369 642.142 415.058 640.763L415.316 640.504C415.487 640.159 415.574 639.901 415.574 639.729C415.574 639.557 415.661 639.299 415.832 638.954C415.832 638.265 416.091 637.49 416.607 636.628C416.952 636.283 417.295 635.94 417.64 635.594C418.157 635.249 418.587 634.906 418.932 634.561C419.277 634.389 419.707 634.044 420.223 633.527C420.395 633.355 420.568 633.269 420.74 633.269C420.911 633.097 421.085 632.924 421.256 632.752C421.601 632.235 422.031 631.805 422.548 631.46C423.064 630.943 423.494 630.513 423.839 630.168C425.044 629.306 426.164 628.704 427.197 628.359C428.402 628.014 429.608 627.67 430.813 627.325C431.158 627.153 431.416 627.067 431.588 627.067C431.759 627.067 432.017 626.98 432.362 626.808C435.807 625.775 438.819 625.688 441.402 626.55C442.09 626.895 442.952 627.412 443.985 628.1C444.33 628.272 444.502 628.446 444.502 628.617C444.673 628.617 444.932 628.704 445.277 628.876C445.793 629.221 446.568 629.564 447.601 629.909C447.946 630.081 448.204 630.254 448.376 630.426C448.721 630.426 449.064 630.513 449.409 630.685C450.787 631.201 452.163 631.89 453.541 632.752C453.886 632.752 454.145 632.839 454.316 633.01C455.866 633.527 456.986 634.302 457.674 635.336C458.191 636.025 458.62 637.145 458.965 638.695V638.954C459.31 640.333 459.482 641.193 459.482 641.538C459.654 642.055 459.74 642.572 459.74 643.089C459.912 643.434 460.085 643.864 460.257 644.381C460.257 644.897 460.343 645.243 460.515 645.414C460.687 645.931 460.773 646.448 460.773 646.965C460.773 647.31 460.86 647.74 461.032 648.257C461.032 648.602 461.032 648.86 461.032 649.032C461.203 649.204 461.118 649.462 460.773 649.807C460.773 649.979 460.687 650.153 460.515 650.324H460.257C460.257 650.496 460.343 650.669 460.515 650.841V651.616C460.515 652.305 460.17 653.167 459.482 654.2C459.482 654.2 459.31 654.546 458.965 655.234C458.62 656.096 458.191 656.956 457.674 657.818C457.329 658.68 456.986 659.456 456.641 660.144C456.469 660.489 456.296 660.833 456.124 661.178C455.953 661.523 455.694 661.866 455.349 662.211C454.833 662.728 454.488 663.158 454.316 663.503C453.971 664.192 453.541 664.882 453.025 665.571C452.508 666.259 451.905 666.95 451.217 667.638C450.872 667.983 450.614 668.327 450.442 668.672C450.271 668.843 450.012 669.102 449.667 669.447C449.322 669.792 448.979 670.051 448.634 670.222C448.634 670.222 448.463 670.309 448.118 670.481C447.946 670.652 447.859 670.826 447.859 670.998V671.514C447.514 672.376 447.171 672.978 446.826 673.323L446.31 673.582C445.793 674.099 445.277 674.874 444.76 675.907V676.424C444.588 676.769 444.502 677.028 444.502 677.2C444.502 677.371 444.33 677.63 443.985 677.975C443.814 678.146 443.469 678.233 442.952 678.233H442.694C442.694 678.405 442.607 678.578 442.435 678.75C442.435 678.922 442.435 679.095 442.435 679.267C442.435 679.439 442.349 679.612 442.177 679.784L441.402 681.334L440.627 682.109C439.939 683.315 439.249 684.09 438.561 684.435C438.216 684.78 437.873 685.039 437.528 685.21C437.357 685.21 437.098 685.297 436.753 685.469C435.892 685.814 435.29 686.157 434.945 686.503C434.6 686.848 434.257 687.365 433.912 688.053C433.567 688.742 433.224 689.258 432.879 689.604C432.017 690.637 431.158 691.671 430.296 692.705C429.435 693.567 428.575 694.427 427.713 695.289L425.905 697.098C425.734 697.443 425.56 697.701 425.389 697.873C425.217 697.873 424.959 698.045 424.614 698.39C423.926 698.735 423.494 699.078 423.323 699.423C422.978 699.769 422.634 700.199 422.289 700.715C421.944 701.061 421.601 701.404 421.256 701.749C421.256 701.921 421.085 702.179 420.74 702.524C419.878 703.73 419.019 704.937 418.157 706.142C417.295 707.348 416.436 708.555 415.574 709.76C415.058 710.277 414.799 710.707 414.799 711.052C414.454 711.741 414.196 712.173 414.025 712.344C413.853 712.516 413.766 712.689 413.766 712.861C413.595 712.861 413.508 712.948 413.508 713.119V713.378C413.336 713.55 413.25 713.723 413.25 713.895C412.388 717.858 410.838 721.217 408.601 723.973C408.256 724.318 407.997 724.748 407.826 725.265C407.826 725.782 407.654 726.385 407.309 727.074L406.534 729.4C406.189 730.088 405.846 730.605 405.501 730.95C405.33 731.467 405.156 731.984 404.985 732.501C404.813 732.846 404.555 733.276 404.21 733.793C404.038 734.138 403.952 734.481 403.952 734.826C403.952 734.998 403.865 735.257 403.693 735.602C403.693 735.947 403.522 736.807 403.177 738.186C402.832 739.048 402.573 740.082 402.402 741.287C402.23 742.321 402.057 743.354 401.885 744.388C401.885 744.905 401.799 745.422 401.627 745.938C401.627 746.455 401.627 746.885 401.627 747.23L401.11 749.556C400.939 750.935 400.765 752.312 400.594 753.691C400.422 754.896 400.249 756.188 400.077 757.567C399.906 758.429 399.732 759.289 399.561 760.151C399.561 760.84 399.561 761.615 399.561 762.477C399.732 763.166 399.732 763.856 399.561 764.544C399.389 765.061 399.216 765.665 399.044 766.353C399.044 766.698 398.958 767.042 398.786 767.387C398.786 767.732 398.699 768.162 398.528 768.679C398.528 769.024 398.528 769.454 398.528 769.971C398.356 770.316 398.269 770.66 398.269 771.005C398.269 771.176 398.183 771.435 398.011 771.78C397.666 773.502 397.408 774.709 397.236 775.398C397.065 775.743 396.978 776.001 396.978 776.173C396.978 776.345 396.891 776.518 396.72 776.69C396.548 777.035 396.461 777.465 396.461 777.982C396.461 778.327 396.375 778.671 396.203 779.016C396.203 779.878 396.116 780.566 395.945 781.083C395.945 781.428 395.773 781.945 395.428 782.634C395.083 783.667 394.912 784.442 394.912 784.959V786.768C394.912 787.802 394.825 788.664 394.653 789.352V791.161V793.745C394.308 794.951 393.965 795.641 393.62 795.813V796.071V796.33H393.362C393.362 796.501 393.19 796.588 392.845 796.588C392.845 796.416 392.759 796.33 392.587 796.33C392.416 796.33 392.242 796.243 392.071 796.071C391.899 796.071 391.812 795.984 391.812 795.813C390.951 795.124 390.608 794.004 390.779 792.453C390.779 792.108 390.779 791.85 390.779 791.678C390.951 791.506 391.038 791.248 391.038 790.903C391.383 789.524 391.554 788.577 391.554 788.06V786.251C391.383 785.563 391.296 784.614 391.296 783.409C391.812 781.341 392.242 779.533 392.587 777.982C393.104 776.26 393.707 774.709 394.395 773.331C394.74 772.125 395.083 770.66 395.428 768.937C395.428 768.592 395.428 768.249 395.428 767.904C395.6 767.387 395.687 766.87 395.687 766.353C395.858 766.008 395.945 765.665 395.945 765.32C395.945 764.974 396.032 764.631 396.203 764.286C396.203 762.735 396.116 761.615 395.945 760.927V759.634C395.945 758.772 395.945 758.084 395.945 757.567C396.116 757.05 396.375 756.447 396.72 755.758C396.891 755.241 396.978 754.466 396.978 753.432V752.14C397.323 751.278 397.753 750.848 398.269 750.848C398.098 750.331 398.011 749.901 398.011 749.556C398.183 749.211 398.269 748.868 398.269 748.523C398.441 748.177 398.528 747.661 398.528 746.972C398.699 746.8 398.786 746.368 398.786 745.68C398.786 743.958 398.873 742.666 399.044 741.804C399.044 741.287 399.216 740.857 399.561 740.512C399.906 739.823 400.077 739.478 400.077 739.478V738.703C399.906 738.358 399.819 737.927 399.819 737.411C399.819 736.722 399.991 735.86 400.336 734.826C400.681 734.138 400.852 733.448 400.852 732.759C401.197 731.897 401.714 730.95 402.402 729.917C402.747 729.228 402.918 728.796 402.918 728.624C403.263 728.108 403.522 727.591 403.693 727.074C403.865 726.557 404.123 726.04 404.468 725.523C404.64 724.49 404.985 723.543 405.501 722.681C405.846 721.992 406.363 721.13 407.051 720.097C407.739 719.235 408.171 718.288 408.342 717.254C408.687 716.737 408.946 716.22 409.117 715.704C409.289 715.015 409.547 714.412 409.892 713.895C410.237 712.861 410.495 712.173 410.667 711.827C411.012 710.965 411.355 710.277 411.7 709.76C412.045 709.243 412.388 708.64 412.733 707.951L413.508 707.176C413.853 706.831 414.025 706.572 414.025 706.401C414.196 706.055 414.369 705.712 414.541 705.367C414.886 704.85 415.316 704.333 415.832 703.816C416.349 703.128 416.779 702.524 417.124 702.008C417.985 701.146 418.76 700.37 419.448 699.682C420.137 698.82 420.827 697.96 421.515 697.098C421.686 696.752 422.118 696.409 422.806 696.064C422.806 695.892 422.806 695.806 422.806 695.806C422.978 695.806 423.064 695.719 423.064 695.547C423.581 695.375 423.926 695.03 424.097 694.513C424.269 694.342 424.356 694.255 424.356 694.255C424.356 694.083 424.442 693.91 424.614 693.738C425.131 693.05 425.734 692.446 426.422 691.929C426.767 691.584 427.025 691.412 427.197 691.412C427.368 691.241 427.542 690.982 427.713 690.637L428.23 689.862C428.918 689.173 429.521 688.57 430.038 688.053C430.554 687.365 431.158 686.674 431.846 685.986L432.879 685.21L435.978 682.109C436.495 681.593 436.925 681.247 437.27 681.076C437.615 680.559 438.045 680.042 438.561 679.525C439.078 679.008 439.508 678.492 439.853 677.975V677.716C440.024 677.545 440.111 677.458 440.111 677.458C440.111 677.286 440.198 677.113 440.369 676.941C440.369 676.941 440.541 676.769 440.886 676.424C441.057 676.424 441.144 676.338 441.144 676.166C441.316 675.994 441.402 675.821 441.402 675.649C441.574 675.649 441.661 675.477 441.661 675.132C442.006 674.27 442.435 673.495 442.952 672.806C443.64 671.944 444.157 671.343 444.502 670.998C444.673 670.998 444.76 670.911 444.76 670.739C444.932 670.739 445.105 670.652 445.277 670.481V670.222L445.535 669.964V669.447C445.706 669.275 445.793 669.102 445.793 668.93C445.793 668.759 445.88 668.585 446.051 668.413C447.084 666.863 448.204 665.742 449.409 665.054C449.754 664.882 450.012 664.624 450.184 664.279V664.02C450.355 663.503 450.787 662.728 451.475 661.695C451.647 661.523 451.734 661.349 451.734 661.178C451.905 661.006 452.079 660.833 452.25 660.661C452.595 660.144 452.938 659.627 453.283 659.11C453.8 658.594 454.145 657.905 454.316 657.043L454.575 656.785C454.575 656.268 454.833 655.751 455.349 655.234C455.694 654.889 455.953 654.546 456.124 654.2C456.296 653.855 456.469 653.512 456.641 653.167C456.641 652.995 456.728 652.822 456.899 652.65C457.244 651.961 457.416 651.445 457.416 651.099C457.416 650.411 457.329 649.894 457.157 649.549V648.774C456.986 648.085 456.899 647.482 456.899 646.965C456.899 646.276 456.812 645.586 456.641 644.897C456.641 643.692 456.554 642.83 456.383 642.313C456.383 641.108 456.211 640.246 455.866 639.729C455.866 639.729 455.779 639.642 455.608 639.471C455.608 639.299 455.521 639.212 455.349 639.212C455.349 639.041 455.349 638.867 455.349 638.695C455.349 638.695 455.349 638.437 455.349 637.92V637.403C455.004 636.887 454.488 636.37 453.8 635.853C453.628 635.853 453.455 635.766 453.283 635.594C452.422 635.249 451.647 634.906 450.959 634.561C450.442 634.216 449.754 633.872 448.892 633.527C448.204 633.182 447.773 633.01 447.601 633.01L446.31 632.235C445.621 631.89 444.932 631.631 444.243 631.46C443.555 631.115 442.865 630.771 442.177 630.426C440.972 629.909 440.024 629.564 439.336 629.392C438.648 629.221 437.786 629.221 436.753 629.392L435.462 629.651C433.741 629.996 432.017 630.426 430.296 630.943C428.747 631.288 427.284 632.063 425.905 633.269C424.011 634.991 422.376 636.715 420.998 638.437C419.62 639.988 418.502 641.625 417.64 643.347C416.952 644.552 416.349 646.19 415.832 648.257C415.832 648.602 415.746 648.86 415.574 649.032C415.574 649.032 415.574 649.204 415.574 649.549C415.229 650.928 414.886 652.22 414.541 653.425C414.196 654.459 413.853 655.664 413.508 657.043C413.336 657.388 413.078 658.077 412.733 659.11C412.045 661.006 411.613 662.728 411.442 664.279V664.796C411.787 665.829 411.7 666.604 411.183 667.121C410.667 667.638 409.805 667.725 408.601 667.38H408.342C407.481 667.38 406.879 667.293 406.534 667.121C404.64 667.121 402.66 666.863 400.594 666.346C400.249 666.174 399.991 666.088 399.819 666.088C399.647 666.088 399.389 666.001 399.044 665.829C398.011 665.484 397.408 665.312 397.236 665.312C397.065 665.141 396.891 665.054 396.72 665.054C396.548 665.226 396.461 665.484 396.461 665.829C396.461 666.001 396.375 666.174 396.203 666.346V666.604L395.945 667.638L395.428 666.863C395.257 666.691 395.17 666.518 395.17 666.346C394.653 666.174 394.395 665.742 394.395 665.054C394.224 664.709 394.137 664.537 394.137 664.537C394.308 664.365 394.395 664.192 394.395 664.02C394.395 663.849 394.482 663.675 394.653 663.503C394.653 663.158 394.567 662.815 394.395 662.47C394.224 662.125 394.05 661.781 393.879 661.436C393.707 661.436 393.62 661.349 393.62 661.178L393.104 660.402H393.879H394.653C394.653 660.231 394.567 660.144 394.395 660.144C394.395 659.972 394.395 659.799 394.395 659.627C394.395 658.422 394.567 656.956 394.912 655.234C395.428 654.029 395.687 652.737 395.687 651.358L396.461 647.482C396.633 646.793 396.806 646.19 396.978 645.673C397.15 644.984 397.323 644.294 397.495 643.605C397.84 642.743 398.011 641.968 398.011 641.28C398.183 640.418 398.441 639.557 398.786 638.695C398.958 638.35 399.044 638.007 399.044 637.662C399.044 637.317 399.131 636.973 399.303 636.628C399.647 635.423 399.906 634.302 400.077 633.269C400.422 632.235 400.852 631.201 401.369 630.168C401.885 629.134 402.489 628.1 403.177 627.067C403.865 626.033 404.64 624.999 405.501 623.966L406.276 622.932C407.138 621.727 407.997 620.693 408.859 619.831C409.892 618.797 411.012 617.85 412.217 616.988C413.595 616.126 414.799 615.351 415.832 614.663C416.866 613.801 417.985 613.025 419.19 612.337L419.707 612.079C421.085 611.39 422.118 610.958 422.806 610.786C423.323 610.786 423.752 610.7 424.097 610.528C424.786 610.528 425.302 610.441 425.647 610.27C425.647 610.27 425.734 610.183 425.905 610.011C426.077 610.011 426.164 610.011 426.164 610.011C426.335 609.84 426.594 609.753 426.939 609.753H427.713H428.23C428.402 609.753 428.488 609.753 428.488 609.753C428.66 609.581 428.833 609.494 429.005 609.494C429.176 609.323 429.435 609.236 429.78 609.236C430.468 608.891 431.158 608.719 431.846 608.719C432.362 608.719 432.879 608.719 433.396 608.719C434.084 608.547 434.687 608.461 435.204 608.461C436.065 608.289 436.84 608.202 437.528 608.202C438.216 608.031 438.991 607.944 439.853 607.944C442.607 607.944 445.793 608.461 449.409 609.494C449.754 609.666 450.012 609.84 450.184 610.011C450.529 610.011 450.872 610.098 451.217 610.27C453.628 610.786 455.866 611.562 457.932 612.595C458.62 612.941 459.224 613.371 459.74 613.887C460.428 614.233 461.032 614.576 461.548 614.921C462.065 615.266 462.495 615.61 462.84 615.955C463.356 616.3 463.873 616.643 464.389 616.988L464.906 617.247C465.939 617.935 466.972 618.626 468.005 619.314C469.21 620.003 470.243 620.778 471.105 621.64C471.621 622.157 472.051 622.674 472.396 623.19C472.913 623.707 473.342 624.137 473.687 624.483L473.946 624.741C474.117 624.913 474.204 625.086 474.204 625.258C474.204 625.258 474.291 625.345 474.462 625.516C475.495 626.378 476.183 627.325 476.528 628.359C476.528 628.53 476.528 628.617 476.528 628.617C476.7 628.617 476.787 628.704 476.787 628.876V629.134C476.787 629.651 476.873 629.996 477.045 630.168L477.562 630.685C478.078 631.201 478.508 631.718 478.853 632.235L479.628 633.786C479.799 633.957 479.886 634.131 479.886 634.302C480.058 634.474 480.231 634.648 480.403 634.819C480.748 635.336 481.091 636.111 481.436 637.145C481.781 637.833 482.039 638.265 482.211 638.437C482.211 638.609 482.382 639.041 482.727 639.729C483.415 640.418 483.76 641.021 483.76 641.538C483.932 641.71 484.019 642.055 484.019 642.572C483.674 642.917 483.674 643.175 484.019 643.347C484.019 643.692 484.19 644.209 484.535 644.897L484.793 645.673C485.482 647.052 485.913 648.17 486.085 649.032C486.256 649.377 486.343 649.721 486.343 650.066C486.515 650.411 486.688 650.754 486.86 651.099L487.635 652.65C487.635 652.995 487.635 653.254 487.635 653.425C487.806 653.425 487.893 653.597 487.893 653.942C488.064 654.459 488.238 654.976 488.409 655.493C488.581 655.838 488.754 656.268 488.926 656.785C488.926 657.647 489.013 658.248 489.184 658.594C489.184 658.939 489.184 659.369 489.184 659.886C489.356 660.231 489.443 660.574 489.443 660.919C490.304 664.02 490.734 666.95 490.734 669.705C490.906 670.222 490.992 670.826 490.992 671.514C490.992 672.031 491.164 672.635 491.509 673.323C491.854 674.185 491.939 674.874 491.767 675.391C491.767 675.736 491.68 676.253 491.509 676.941V677.458C491.509 678.663 491.595 679.525 491.767 680.042V681.334C491.939 681.851 492.025 682.713 492.025 683.918V685.469V687.278V689.862C492.025 690.379 492.112 690.809 492.284 691.154ZM394.912 803.565H394.653C394.482 803.91 394.395 804.771 394.395 806.149V807.442C394.224 807.787 394.137 808.217 394.137 808.734C394.137 809.079 394.05 809.422 393.879 809.767C393.707 810.801 393.534 811.835 393.362 812.868C393.362 813.902 393.362 814.936 393.362 815.969L393.104 816.486V818.812C393.275 819.157 393.62 819.415 394.137 819.587H399.303H402.66H404.468C406.879 819.759 409.117 819.846 411.183 819.846C413.25 819.846 415.403 819.674 417.64 819.329C420.052 819.157 422.376 819.157 424.614 819.329C426.852 819.329 429.176 819.415 431.588 819.587H433.912C436.84 819.759 439.681 820.104 442.435 820.621C445.363 821.138 448.463 821.826 451.734 822.688C452.079 822.688 452.595 822.86 453.283 823.205C453.628 823.377 454.058 823.55 454.575 823.722C455.263 823.893 455.779 823.893 456.124 823.722L456.383 823.98L459.74 812.351C459.395 812.18 458.965 812.093 458.449 812.093C458.104 812.093 457.761 812.006 457.416 811.835C456.554 811.489 455.779 811.231 455.091 811.059C454.403 810.888 453.628 810.714 452.767 810.543C451.389 810.197 450.097 810.026 448.892 810.026C447.688 809.854 446.396 809.681 445.018 809.509H444.502L438.303 808.734C436.582 808.562 434.859 808.475 433.137 808.475C431.588 808.304 429.866 808.045 427.972 807.7C426.594 807.355 425.131 807.183 423.581 807.183C422.031 807.011 420.568 806.753 419.19 806.408C415.746 805.891 412.13 805.374 408.342 804.857C404.726 804.341 401.11 803.91 397.495 803.565L394.912 803.307V803.565Z" fill="white"/>
<path d="M487.413 302.052V302.938V304.119C487.413 304.513 487.413 304.908 487.413 305.301C487.61 305.694 487.61 306.089 487.413 306.482V309.731C487.215 310.321 487.118 311.207 487.118 312.389V314.456V317.114C486.725 318.689 486.429 320.461 486.232 322.43C486.232 324.202 486.035 326.072 485.642 328.041C485.051 330.797 484.461 333.357 483.871 335.72C483.478 337.885 483.083 340.052 482.69 342.217C482.493 343.201 482.297 344.087 482.1 344.875C481.902 345.664 481.707 346.55 481.509 347.533C481.116 348.124 480.821 348.813 480.624 349.601C480.624 350.389 480.526 351.175 480.328 351.963C479.738 354.129 479.148 356.393 478.557 358.756C478.164 360.921 477.77 363.186 477.377 365.549C476.984 367.123 476.689 368.7 476.491 370.274C476.491 371.849 476.294 373.425 475.901 374.999C475.901 376.181 475.803 377.165 475.606 377.953C475.408 378.937 475.311 379.922 475.311 380.906C475.311 381.89 475.213 382.973 475.015 384.155C475.015 384.352 475.015 384.548 475.015 384.745C475.213 384.943 475.311 385.139 475.311 385.336C475.508 386.715 475.31 387.699 474.72 388.289C474.523 388.683 473.835 388.88 472.654 388.88H472.359H469.702H467.931H465.865C465.472 388.88 465.077 388.782 464.684 388.585C464.487 388.585 464.191 388.585 463.799 388.585H457.6H455.238H453.467H449.04C448.449 388.585 447.859 388.585 447.269 388.585C446.678 388.782 446.088 388.88 445.497 388.88H440.479C438.315 388.88 436.74 388.782 435.757 388.585H434.281C433.69 388.387 433.1 388.289 432.51 388.289C431.919 388.289 431.427 388.192 431.034 387.994C430.641 387.994 430.246 387.797 429.853 387.403C429.853 387.403 429.755 387.306 429.558 387.108C429.36 387.108 429.263 386.911 429.263 386.517V386.222C429.656 385.829 429.853 385.631 429.853 385.631H432.805C432.017 384.648 431.822 383.367 432.214 381.792C432.214 381.399 432.117 381.104 431.919 380.906C431.722 380.709 431.624 380.315 431.624 379.725C431.427 379.134 431.329 378.248 431.329 377.067V374.999C431.329 374.606 431.231 374.409 431.034 374.409C431.034 374.211 431.034 373.916 431.034 373.523C430.836 373.13 430.739 372.637 430.739 372.046V367.321C430.739 366.928 430.836 366.73 431.034 366.73C430.641 365.942 430.541 365.451 430.739 365.253C430.936 364.86 430.936 364.565 430.739 364.367C430.148 364.17 429.853 363.579 429.853 362.595C429.853 362.202 429.951 361.907 430.148 361.709V361.119C430.148 360.726 430.05 360.331 429.853 359.937C429.853 359.347 429.853 358.854 429.853 358.461C429.656 358.068 429.558 357.772 429.558 357.575C429.558 357.182 429.46 356.787 429.263 356.393C429.065 355.803 428.87 355.212 428.672 354.621C428.672 353.833 428.575 353.145 428.377 352.554C428.18 351.373 428.082 350.191 428.082 349.01C428.082 347.829 428.082 346.647 428.082 345.466C427.885 344.875 427.787 343.792 427.787 342.217V339.559V338.378C427.787 337.985 427.689 337.787 427.492 337.787C427.492 337.59 427.492 337.295 427.492 336.901C427.492 336.508 427.492 336.213 427.492 336.015C427.689 335.622 427.787 335.227 427.787 334.834V332.767V330.699V328.041V325.679C427.984 324.891 428.082 323.709 428.082 322.135V319.772C428.279 318.984 428.279 318.098 428.082 317.114C427.689 315.54 427.689 313.963 428.082 312.389C428.082 311.996 428.082 311.7 428.082 311.503C428.279 311.305 428.377 311.01 428.377 310.617V309.14C428.575 307.959 428.672 306.777 428.672 305.596C428.672 304.415 428.87 303.233 429.263 302.052C429.263 300.478 429.46 298.706 429.853 296.736C430.246 295.162 430.443 293.98 430.443 293.192C430.641 292.799 430.739 292.208 430.739 291.42C430.739 290.436 430.836 289.648 431.034 289.057C431.427 287.876 431.624 286.695 431.624 285.513C431.822 284.332 432.117 283.151 432.51 281.969L433.395 278.425C433.395 278.228 433.395 278.13 433.395 278.13C433.593 277.933 433.69 277.637 433.69 277.244C434.083 276.063 434.281 275.177 434.281 274.586C434.281 273.602 434.281 272.617 434.281 271.633C434.478 270.451 434.674 269.368 434.871 268.384L435.757 263.954C435.757 263.561 435.757 263.166 435.757 262.773C435.954 262.182 436.052 261.689 436.052 261.296C436.249 260.903 436.347 260.213 436.347 259.229V258.047V257.457V257.161V256.571C436.347 255.98 436.445 255.487 436.642 255.094C436.642 254.701 436.642 254.306 436.642 253.913C436.84 253.322 436.937 252.829 436.937 252.436C437.135 251.648 437.232 250.862 437.232 250.073C437.232 249.285 437.232 248.499 437.232 247.711C437.43 247.12 437.43 246.529 437.232 245.939C437.232 245.348 437.232 244.66 437.232 243.871V240.623V237.079V233.83C437.232 232.649 437.135 231.763 436.937 231.172V229.991V229.695L437.232 227.037C437.232 226.054 437.232 225.068 437.232 224.084C437.232 223.1 437.33 222.115 437.528 221.131C437.528 219.752 437.43 218.768 437.232 218.177C437.035 216.799 436.937 215.519 436.937 214.338C436.937 213.157 436.937 212.073 436.937 211.089C436.937 210.696 436.937 210.401 436.937 210.203C437.135 210.006 437.232 209.711 437.232 209.317C437.625 207.743 437.528 206.364 436.937 205.183C436.74 204.985 436.642 204.79 436.642 204.592C436.84 204.199 436.937 203.904 436.937 203.706C437.33 202.918 437.528 201.737 437.528 200.162V197.504V195.437L435.757 197.209C434.969 198.193 434.183 199.079 433.395 199.867C432.805 200.457 432.017 200.95 431.034 201.343L430.739 202.229C430.346 202.623 430.05 203.018 429.853 203.411C429.853 203.608 429.656 203.904 429.263 204.297L428.968 204.887C428.575 205.478 428.18 206.069 427.787 206.659C427.394 207.053 426.999 207.545 426.606 208.136C425.818 208.924 425.328 209.613 425.13 210.203C424.54 210.597 424.047 211.089 423.654 211.68C423.457 212.073 423.064 212.566 422.474 213.157C422.276 213.354 421.981 213.845 421.588 214.633C421.195 215.027 420.8 215.422 420.407 215.815C420.21 216.208 419.915 216.603 419.522 216.996C419.129 217.389 418.734 217.784 418.341 218.177C418.144 218.571 417.849 218.966 417.456 219.359C416.275 220.933 415.487 222.017 415.094 222.607C414.701 223.001 414.406 223.296 414.209 223.493C414.209 223.691 414.011 223.986 413.618 224.379C413.618 224.379 413.421 224.773 413.028 225.561C412.438 225.954 411.749 226.742 410.962 227.923C410.569 228.317 410.371 228.809 410.371 229.4C409.978 230.581 409.093 231.172 407.715 231.172H407.124C405.944 231.172 404.763 231.172 403.582 231.172C402.401 230.975 401.221 230.779 400.04 230.581C398.859 230.188 397.581 229.991 396.203 229.991C395.022 229.793 393.841 229.498 392.661 229.105C392.268 228.907 391.873 228.809 391.48 228.809C391.282 228.809 390.987 228.712 390.594 228.514C390.201 228.514 389.807 228.317 389.414 227.923H389.118C389.118 227.726 389.021 227.628 388.823 227.628C388.823 227.431 388.726 227.333 388.528 227.333C386.167 226.742 384.003 225.463 382.034 223.493C381.641 223.296 381.246 223.1 380.853 222.903C380.656 222.705 380.361 222.51 379.968 222.312C379.18 221.919 378.492 221.426 377.902 220.835C376.918 220.442 376.426 219.654 376.426 218.473C376.819 217.489 377.509 216.701 378.492 216.11C379.082 215.913 379.87 215.322 380.853 214.338C381.246 213.55 382.132 212.664 383.51 211.68C383.707 211.483 383.805 211.287 383.805 211.089C384.003 210.892 384.298 210.696 384.691 210.499C385.084 210.301 385.281 210.106 385.281 209.908C385.479 209.711 385.774 209.415 386.167 209.022C387.347 207.841 388.331 206.955 389.118 206.364C389.511 205.971 389.807 205.676 390.004 205.478C390.397 205.085 390.792 204.69 391.185 204.297C391.578 203.904 392.07 203.411 392.661 202.82C393.251 202.229 393.841 201.737 394.432 201.343C395.022 201.146 395.612 200.555 396.203 199.571L397.088 198.685L398.269 197.799C398.859 197.011 399.745 196.027 400.926 194.846C401.123 194.649 401.221 194.551 401.221 194.551C401.221 194.353 401.319 194.158 401.516 193.96L402.401 193.074C402.794 192.681 402.992 192.386 402.992 192.188C403.385 191.795 403.68 191.5 403.877 191.302C404.27 190.909 404.763 190.614 405.353 190.416C405.551 190.416 405.648 190.318 405.648 190.121C405.846 189.923 405.944 189.728 405.944 189.53C406.141 189.137 406.436 188.742 406.829 188.349C407.222 187.561 407.617 186.872 408.01 186.281C408.6 185.691 409.388 185.198 410.371 184.805C410.371 184.805 410.569 184.607 410.962 184.214V183.919L411.847 183.033C412.24 182.245 412.635 181.753 413.028 181.556C414.011 180.375 415.094 179.095 416.275 177.717C417.653 176.338 419.129 174.96 420.703 173.582C422.081 172.007 423.557 170.432 425.13 168.857C426.901 167.282 428.575 165.706 430.148 164.131C431.526 162.753 432.805 161.375 433.986 159.997C435.364 158.618 436.84 157.043 438.413 155.271C440.382 153.106 441.365 150.841 441.365 148.479C441.365 148.282 441.267 148.085 441.07 147.888C440.872 146.904 440.775 146.313 440.775 146.116C440.972 145.722 441.463 145.328 442.251 144.935C442.251 144.935 442.448 144.836 442.841 144.639C443.824 144.246 444.71 143.95 445.497 143.753C446.285 143.556 447.071 143.36 447.859 143.163C448.647 143.163 449.827 142.966 451.401 142.572C451.794 142.375 452.484 142.277 453.467 142.277H454.648H454.943C456.124 142.08 457.305 141.981 458.485 141.981C459.666 141.784 460.847 141.489 462.027 141.095C462.618 140.898 463.701 140.603 465.274 140.209C466.062 139.816 466.848 139.619 467.636 139.619L474.72 137.847C476.689 137.453 477.967 138.339 478.557 140.505C478.557 140.898 478.557 141.292 478.557 141.686C478.755 142.08 478.853 142.474 478.853 142.867L479.738 145.525C479.936 146.51 480.033 147.396 480.033 148.183C480.033 148.971 480.131 149.857 480.328 150.841V152.023C480.721 154.188 480.919 156.354 480.919 158.52C481.116 160.489 481.411 162.556 481.804 164.722C481.804 165.51 481.804 166.199 481.804 166.789C482.002 167.38 482.1 168.069 482.1 168.857C482.1 170.235 482.297 171.908 482.69 173.877C482.69 174.862 482.69 175.748 482.69 176.535C482.887 177.126 483.083 177.815 483.28 178.603C483.28 178.996 483.28 179.39 483.28 179.784C483.478 180.178 483.575 180.572 483.575 180.965V181.261C483.575 181.654 483.575 181.95 483.575 182.147C483.773 182.344 483.871 182.54 483.871 182.737C483.673 184.509 483.673 186.379 483.871 188.349C484.264 190.318 484.658 192.386 485.051 194.551C485.249 194.944 485.347 195.437 485.347 196.027V196.618V197.799V201.639V203.411V204.592V205.773V210.203V213.452C485.347 213.845 485.347 214.24 485.347 214.633C485.544 214.831 485.642 215.126 485.642 215.519V216.996V218.177V222.903C485.642 224.477 485.642 226.054 485.642 227.628C485.642 229.007 485.739 230.484 485.937 232.058C485.937 233.042 485.937 233.928 485.937 234.716C485.937 235.504 485.839 236.39 485.642 237.374V243.281C485.839 245.053 485.937 246.825 485.937 248.597C485.937 250.369 486.035 252.239 486.232 254.208C486.232 256.373 486.33 257.95 486.527 258.933V263.659C486.725 264.643 486.822 265.529 486.822 266.317C486.822 266.907 486.822 267.596 486.822 268.384C486.822 269.368 486.822 270.354 486.822 271.337C486.822 272.126 486.92 273.012 487.118 273.995C487.118 274.979 487.118 275.865 487.118 276.653C487.118 277.442 487.215 278.228 487.413 279.016C487.61 280 487.708 280.986 487.708 281.969C487.708 282.953 487.708 283.939 487.708 284.923C487.905 285.907 487.905 286.793 487.708 287.581C487.708 288.171 487.708 288.96 487.708 289.943V292.897V294.964V297.622C487.708 299.001 487.61 299.985 487.413 300.575V302.052ZM484.166 299.689C484.363 298.901 484.461 298.115 484.461 297.327C484.461 296.539 484.461 295.653 484.461 294.669C484.658 293.881 484.756 292.799 484.756 291.42V289.353C484.756 288.762 484.658 288.269 484.461 287.876C484.461 286.892 484.363 286.104 484.166 285.513V283.151V280.788C484.166 280 484.068 279.214 483.871 278.425C483.871 277.637 483.871 276.851 483.871 276.063C483.673 275.079 483.575 273.995 483.575 272.814C483.575 271.633 483.478 270.451 483.28 269.27C483.28 267.891 483.378 266.907 483.575 266.317V263.954C483.575 261.985 483.478 260.608 483.28 259.819V259.229V258.343C483.083 257.95 482.985 257.359 482.985 256.571C483.378 255.98 483.478 255.389 483.28 254.799C483.28 254.208 483.28 253.52 483.28 252.731C483.28 252.338 483.182 252.141 482.985 252.141C482.985 251.943 482.985 251.648 482.985 251.255V245.053V242.099V241.804V241.509L482.69 240.623V238.26V235.307V233.83V233.535V229.695V222.312V216.701V211.68C482.297 211.287 482.297 210.794 482.69 210.203C482.69 209.415 482.592 208.727 482.395 208.136V206.955V205.478V203.706V201.048C482.395 199.669 482.297 198.39 482.1 197.209C482.1 195.83 482.002 194.551 481.804 193.369C481.607 192.581 481.509 191.795 481.509 191.007C481.509 190.219 481.411 189.432 481.214 188.644C481.017 188.053 480.919 187.07 480.919 185.691C480.526 183.722 480.328 182.245 480.328 181.261V180.67V179.784C479.936 178.406 479.64 177.126 479.443 175.945C479.443 174.566 479.443 173.287 479.443 172.105V171.81C479.443 171.219 479.443 170.629 479.443 170.038C479.443 169.25 479.345 168.561 479.148 167.971C479.148 167.577 479.05 167.183 478.853 166.789C478.853 166.396 478.853 166.002 478.853 165.608C478.655 165.214 478.557 164.82 478.557 164.427C478.557 163.836 478.46 163.344 478.262 162.95C478.065 161.966 477.967 160.981 477.967 159.997C477.967 159.012 477.869 157.831 477.672 156.453C477.672 156.059 477.574 155.665 477.377 155.271C477.377 154.878 477.377 154.484 477.377 154.09C477.377 152.515 477.279 151.334 477.082 150.546C476.884 149.562 476.689 148.676 476.491 147.888C476.491 146.904 476.393 145.919 476.196 144.935C476.196 144.541 476.098 144.147 475.901 143.753C475.901 143.163 475.901 142.67 475.901 142.277C475.901 141.686 475.703 141.391 475.311 141.391L474.72 141.686C473.737 141.686 473.047 141.784 472.654 141.981L468.226 142.867C466.455 143.261 464.684 143.655 462.913 144.049C461.142 144.442 459.273 144.836 457.305 145.23C455.731 145.427 454.058 145.624 452.287 145.821C450.713 146.018 449.137 146.313 447.564 146.707L446.678 147.002C445.497 147.002 444.907 147.396 444.907 148.183C444.71 149.168 444.514 150.251 444.317 151.432C444.317 152.613 444.219 153.696 444.022 154.681C444.022 155.665 443.824 156.945 443.431 158.52C443.431 159.898 443.333 160.981 443.136 161.769C443.136 162.753 443.038 163.639 442.841 164.427C442.841 165.214 442.743 166.1 442.546 167.085C442.153 169.054 441.858 171.022 441.66 172.991C441.66 174.96 441.562 177.028 441.365 179.193V180.965C441.365 181.95 441.463 182.737 441.66 183.328V184.805V186.577H442.546H442.841C443.234 186.577 443.431 186.675 443.431 186.872C443.629 186.872 443.726 186.97 443.726 187.167C443.726 187.365 443.629 187.463 443.431 187.463V188.644C443.038 189.235 442.743 189.53 442.546 189.53C441.758 189.923 441.267 190.809 441.07 192.188V197.209V199.276V218.177V223.789V224.97V230.877C441.07 231.861 441.07 232.846 441.07 233.83C441.07 234.814 441.168 235.8 441.365 236.783V243.871V244.462V248.892C441.365 249.483 441.267 250.073 441.07 250.664C441.07 251.255 441.07 251.845 441.07 252.436C440.872 253.42 440.677 254.406 440.479 255.389C440.479 256.178 440.479 257.064 440.479 258.047C440.479 260.41 440.086 262.773 439.299 265.135V265.726V267.793C439.101 268.384 439.004 269.073 439.004 269.861C439.004 270.451 438.906 271.042 438.708 271.633C438.511 273.207 438.315 274.784 438.118 276.358C437.921 277.737 437.625 279.214 437.232 280.788L436.347 285.218C436.15 285.809 436.052 286.399 436.052 286.99C436.052 287.383 435.954 287.876 435.757 288.467C435.559 289.255 435.364 289.943 435.166 290.534C435.166 291.125 435.068 291.813 434.871 292.601C434.871 293.39 434.674 294.571 434.281 296.145C434.083 297.129 433.888 298.213 433.69 299.394C433.493 300.378 433.297 301.364 433.1 302.347C432.903 303.726 432.805 305.103 432.805 306.482C432.805 307.663 432.707 308.845 432.51 310.026V312.684V315.637C432.51 316.819 432.412 317.607 432.214 318V322.725C432.017 323.709 431.919 324.595 431.919 325.383C431.919 325.974 431.919 326.663 431.919 327.451V329.518V331.585C431.919 332.374 431.822 332.865 431.624 333.062V336.311C431.822 337.295 431.919 338.28 431.919 339.264C431.919 340.052 432.017 340.938 432.214 341.922C432.214 342.906 432.214 343.792 432.214 344.58C432.214 345.368 432.312 346.155 432.51 346.943V349.896C432.51 350.487 432.51 351.175 432.51 351.963C432.51 352.554 432.607 353.145 432.805 353.735C432.805 353.933 432.805 354.129 432.805 354.326C433.002 354.326 433.1 354.424 433.1 354.621C433.493 355.015 433.69 355.507 433.69 356.098C433.69 357.279 433.788 358.165 433.986 358.756C434.379 359.937 434.576 361.021 434.576 362.005C434.378 362.793 434.281 363.579 434.281 364.367C434.478 364.958 434.576 365.549 434.576 366.139V368.502C434.183 369.881 434.281 370.963 434.871 371.751V372.637C434.674 373.03 434.576 373.523 434.576 374.113C434.773 374.507 434.871 374.999 434.871 375.59C434.871 375.788 434.871 375.885 434.871 375.885C435.068 376.083 435.166 376.378 435.166 376.771C435.364 377.755 435.461 378.839 435.461 380.02C435.461 381.201 435.461 382.285 435.461 383.269V385.927H471.768V385.631V383.564V382.383V379.725C471.768 379.332 471.768 378.937 471.768 378.543C471.966 378.15 472.064 377.755 472.064 377.362C472.064 377.165 472.064 376.969 472.064 376.771C472.261 376.574 472.359 376.279 472.359 375.885C472.359 375.492 472.359 374.999 472.359 374.409C472.556 373.818 472.654 373.227 472.654 372.637C472.851 371.849 472.949 371.16 472.949 370.569C472.949 369.781 473.047 368.995 473.244 368.207C473.442 367.814 473.539 367.419 473.539 367.025C473.539 366.435 473.637 365.942 473.835 365.549C473.835 365.351 473.835 365.253 473.835 365.253C474.032 365.253 474.13 365.156 474.13 364.958C474.13 364.565 474.13 364.367 474.13 364.367C474.327 364.17 474.425 363.875 474.425 363.481C474.622 363.088 474.72 362.793 474.72 362.595C474.72 362.202 474.818 361.807 475.015 361.414C475.015 361.021 475.015 360.726 475.015 360.528C475.213 360.135 475.311 359.74 475.311 359.347C475.311 359.149 475.311 358.954 475.311 358.756C475.508 358.559 475.606 358.263 475.606 357.87C475.803 357.279 475.901 356.591 475.901 355.803C476.098 355.015 476.294 354.228 476.491 353.44C476.491 353.243 476.491 353.145 476.491 353.145C476.689 352.947 476.786 352.652 476.786 352.259C476.984 352.061 477.082 351.766 477.082 351.373C477.279 350.98 477.377 350.684 477.377 350.487C477.377 350.289 477.475 350.094 477.672 349.896C478.065 348.715 478.36 347.533 478.557 346.352C478.755 345.171 478.95 343.989 479.148 342.808C479.148 342.217 479.345 341.331 479.738 340.15C480.131 338.576 480.231 337.295 480.033 336.311C480.033 336.113 480.231 335.622 480.624 334.834C480.624 334.834 480.721 334.736 480.919 334.539C481.116 334.341 481.214 334.146 481.214 333.948C481.411 333.357 481.509 332.176 481.509 330.404C481.509 328.83 481.804 327.253 482.395 325.679C482.592 324.695 482.69 323.809 482.69 323.021C482.887 322.233 482.985 321.446 482.985 320.658C482.788 319.674 482.69 318.689 482.69 317.705C482.887 316.523 483.083 315.44 483.28 314.456C483.478 313.865 483.575 312.979 483.575 311.798L483.871 310.321C483.871 309.338 483.871 308.549 483.871 307.959C484.068 307.171 484.166 306.285 484.166 305.301V302.643V299.689ZM437.528 182.442C437.33 181.851 437.232 181.064 437.232 180.079C437.43 179.292 437.528 178.603 437.528 178.012C437.528 177.421 437.625 176.732 437.823 175.945C437.823 174.96 437.921 174.271 438.118 173.877C438.118 172.893 438.118 172.007 438.118 171.219C438.315 170.235 438.511 169.25 438.708 168.266L439.004 165.017V164.722C439.201 164.525 439.299 164.131 439.299 163.541L440.184 159.997C440.184 159.209 440.087 158.618 439.889 158.225L439.299 158.815C438.708 159.8 438.02 160.686 437.232 161.473C436.642 162.261 435.854 163.147 434.871 164.131C434.478 164.525 434.083 164.82 433.69 165.017C433.1 165.805 432.117 166.888 430.739 168.266C430.148 168.857 429.558 169.447 428.968 170.038C428.377 170.432 427.885 170.924 427.492 171.515C426.901 172.105 426.311 172.696 425.721 173.287C425.13 173.877 424.54 174.37 423.949 174.763C422.966 175.748 421.981 176.732 420.998 177.717C420.014 178.701 419.029 179.686 418.046 180.67C417.063 181.654 416.177 182.639 415.389 183.623C414.602 184.607 413.716 185.593 412.733 186.577C412.142 187.167 411.552 187.856 410.962 188.644C410.371 189.235 409.781 189.923 409.191 190.711C408.798 191.105 408.403 191.5 408.01 191.893C407.617 192.286 407.222 192.681 406.829 193.074L405.058 194.846C404.27 195.634 403.582 196.323 402.992 196.913C402.401 197.504 401.811 198.193 401.221 198.981L397.679 202.525L396.793 203.411C396.4 203.608 396.005 203.904 395.612 204.297L392.956 206.955C392.365 207.743 391.677 208.431 390.89 209.022L389.709 210.203L388.233 211.68C387.84 212.073 387.445 212.468 387.052 212.861C386.855 213.059 386.56 213.354 386.167 213.747L382.625 217.291C382.427 217.685 381.837 218.177 380.853 218.768L380.558 219.063H380.853C381.444 219.457 382.132 219.852 382.92 220.245C384.1 221.033 384.888 221.524 385.281 221.721C386.069 222.312 387.25 223.001 388.823 223.789C392.563 226.151 397.481 227.53 403.582 227.923C404.37 227.923 404.96 228.021 405.353 228.219C406.141 228.416 406.731 228.021 407.124 227.037C407.912 225.856 408.502 225.068 408.895 224.675L409.191 224.084L410.076 223.198C410.076 222.805 410.274 222.607 410.666 222.607C411.059 222.214 411.355 221.819 411.552 221.426C411.749 221.033 412.045 220.638 412.438 220.245C412.83 219.654 413.618 218.571 414.799 216.996L416.57 215.224C416.963 214.831 417.258 214.436 417.456 214.043C417.653 213.65 417.948 213.255 418.341 212.861C418.931 212.271 419.324 211.778 419.522 211.385C419.915 210.992 420.21 210.597 420.407 210.203C420.8 209.613 421.195 209.12 421.588 208.727L421.883 208.431V207.841L422.474 207.25C422.671 206.462 423.064 205.773 423.654 205.183C423.852 204.79 424.047 204.592 424.245 204.592C424.442 204.395 424.638 204.099 424.835 203.706C426.016 202.918 426.901 201.836 427.492 200.457C428.475 199.276 429.46 198.193 430.443 197.209C431.624 196.225 432.805 195.239 433.986 194.255C434.773 193.467 435.264 192.877 435.461 192.483C435.659 192.286 435.757 192.188 435.757 192.188C435.757 191.991 435.854 191.795 436.052 191.597V191.302C436.052 191.302 436.249 191.105 436.642 190.711C437.625 189.333 437.921 188.251 437.528 187.463V186.872V185.986V183.623V182.442Z" fill="white"/>
</g>
</g>
<defs>
<clipPath id="clip0_140_171">
<rect width="880" height="886" fill="white"/>
</clipPath>
</defs>
</svg>
