<svg width="886" height="886" viewBox="0 0 886 886" fill="none" xmlns="http://www.w3.org/2000/svg">
<g clip-path="url(#clip0_173_431)">
<rect width="886" height="886" fill="white"/>
<rect width="886" height="886" fill="#7036CC"/>
<rect y="569" width="886" height="317" fill="#3D1F6D"/>
<path d="M494.538 710.398C494.883 711.26 494.883 712.207 494.538 713.24C494.366 713.929 494.279 714.962 494.279 716.341V717.117C494.279 718.322 494.193 719.184 494.021 719.701C494.021 720.046 493.934 720.304 493.763 720.476C493.763 720.648 493.763 720.906 493.763 721.251V723.06C493.763 724.094 493.676 724.869 493.504 725.386C493.504 726.248 493.333 727.366 492.988 728.745L492.73 729.779V730.037V730.296V730.813C492.73 731.501 492.643 731.933 492.471 732.105C492.471 732.276 492.385 732.45 492.213 732.622C492.213 732.622 492.213 732.708 492.213 732.88V733.397C491.868 734.085 491.61 734.776 491.438 735.464C491.267 735.981 491.093 736.669 490.922 737.531C490.405 738.91 489.802 740.287 489.114 741.666C488.425 742.871 487.736 744.164 487.047 745.542C487.047 745.714 486.961 745.801 486.789 745.801C486.789 745.801 486.789 745.888 486.789 746.059C486.101 747.093 485.756 747.868 485.756 748.385C485.584 749.073 485.411 749.677 485.239 750.194C485.068 750.711 484.81 751.314 484.465 752.003C484.465 752.348 484.293 752.691 483.948 753.036C483.603 754.07 483.345 754.759 483.173 755.104L482.398 755.879C482.398 756.051 482.227 756.309 481.882 756.654C481.882 756.826 481.795 756.999 481.623 757.171C481.623 757.171 481.623 757.343 481.623 757.688C481.452 757.86 481.365 758.033 481.365 758.205C481.365 758.376 481.278 758.55 481.107 758.722C480.245 760.272 479.471 761.564 478.782 762.598L478.524 762.856C478.179 763.545 477.836 764.062 477.491 764.407C477.319 764.578 477.146 764.665 476.974 764.665C476.974 764.665 476.888 764.752 476.716 764.924L476.458 765.182V765.44C476.286 765.786 476.2 766.129 476.2 766.474C476.028 766.819 475.855 767.078 475.683 767.249C475.511 767.249 475.338 767.336 475.166 767.508L474.65 768.025C474.305 768.37 474.047 768.628 473.875 768.8C473.875 768.971 473.703 769.23 473.358 769.575C473.014 770.264 472.67 770.696 472.325 770.867C471.98 771.384 471.637 771.901 471.292 772.418C470.947 772.763 470.604 773.193 470.259 773.71C468.709 775.605 467.073 777.414 465.352 779.137C463.802 780.859 462.166 782.668 460.444 784.563C458.723 786.285 457.087 788.094 455.537 789.99C453.987 791.886 452.438 793.78 450.888 795.675C450.371 796.192 449.597 797.139 448.564 798.518C441.332 807.649 432.12 814.798 420.927 819.966H420.669C419.291 820.655 418.173 821.172 417.312 821.517C417.14 821.517 416.967 821.604 416.795 821.775C416.623 821.775 416.45 821.775 416.278 821.775C415.933 821.947 415.675 822.034 415.504 822.034C415.332 822.034 415.074 822.12 414.729 822.292C415.59 822.464 416.365 822.637 417.053 822.809C417.915 822.809 418.775 822.896 419.636 823.067C421.531 823.413 423.424 823.756 425.318 824.101C427.385 824.273 429.364 824.531 431.259 824.876C432.463 825.048 433.583 825.221 434.616 825.393C435.821 825.393 437.028 825.393 438.232 825.393C440.127 825.565 441.935 825.738 443.656 825.91C445.551 825.91 447.444 826.082 449.338 826.427C450.888 826.772 452.351 827.115 453.729 827.46C455.279 827.632 456.657 827.891 457.862 828.236C458.207 828.407 458.723 828.494 459.411 828.494C460.616 828.839 461.823 829.269 463.027 829.786C464.405 830.131 465.265 830.82 465.61 831.854C465.955 832.37 465.955 832.974 465.61 833.662C465.439 834.351 465.18 834.955 464.835 835.471V835.988C464.147 837.194 463.631 838.401 463.286 839.606V840.898L462.511 843.224V843.482C461.994 844.344 461.994 844.946 462.511 845.291L463.027 845.808L462.511 846.066C462.166 846.238 461.736 846.412 461.219 846.583C460.874 846.755 460.531 846.842 460.186 846.842C459.841 846.842 459.498 846.755 459.153 846.583L458.378 845.808C458.378 845.636 458.292 845.55 458.12 845.55C458.12 845.378 457.69 845.12 456.829 844.774H456.57C455.882 844.603 455.192 844.429 454.504 844.258C453.987 844.258 453.299 844.086 452.438 843.741C451.576 843.569 450.63 843.396 449.597 843.224C448.564 843.052 447.53 842.794 446.497 842.449C444.776 841.932 443.14 841.587 441.59 841.415C440.04 841.415 438.319 841.328 436.424 841.157C435.563 841.157 434.788 841.157 434.1 841.157C433.412 841.157 432.637 841.07 431.775 840.898C430.914 840.898 429.967 840.898 428.934 840.898C427.901 840.898 426.955 840.811 426.093 840.64C424.372 840.64 422.649 840.64 420.927 840.64C419.378 840.811 417.741 840.898 416.02 840.898C414.125 841.07 412.146 841.157 410.08 841.157C408.013 841.328 406.034 841.328 404.139 841.157C403.278 841.157 402.418 841.07 401.556 840.898C400.695 840.898 399.835 840.898 398.974 840.898H397.424C395.529 840.898 394.238 840.811 393.55 840.64C392.688 840.295 392.172 839.864 392 839.348C392 838.831 392.087 838.401 392.258 838.056C392.258 837.539 392.258 837.022 392.258 836.505C392.43 835.988 392.517 835.471 392.517 834.955V833.146C392.688 832.284 392.775 831.508 392.775 830.82C392.946 829.958 393.12 829.098 393.291 828.236L394.066 822.809V822.292C394.066 821.947 394.066 821.517 394.066 821C394.238 820.483 394.496 820.053 394.841 819.708C395.358 819.536 396.304 819.621 397.682 819.966H398.715C399.577 820.138 400.868 820.225 402.59 820.225C403.623 820.396 404.656 820.483 405.689 820.483C406.894 820.483 408.013 820.483 409.047 820.483C410.941 820.312 412.662 819.966 414.212 819.45C415.762 818.933 417.225 818.329 418.603 817.641C419.981 816.952 421.357 816.262 422.735 815.573C424.114 814.885 425.577 814.023 427.126 812.989L429.451 811.439C431.345 810.577 433.238 809.284 435.133 807.562C439.61 803.599 444.173 798.948 448.822 793.608C449.338 792.919 449.855 792.229 450.371 791.541C450.888 790.852 451.405 790.162 451.921 789.473L454.246 786.372C455.107 785.339 456.054 784.392 457.087 783.53C457.603 783.013 458.12 782.583 458.636 782.237C459.153 781.721 459.583 781.204 459.928 780.687C461.823 778.103 464.06 775.519 466.643 772.935C467.676 771.729 468.709 770.609 469.743 769.575C470.776 768.37 471.809 767.078 472.842 765.699C473.53 764.837 474.133 763.89 474.65 762.856C475.166 761.823 475.77 760.789 476.458 759.755C477.146 758.722 477.578 757.946 477.749 757.43C479.299 755.017 480.849 752.09 482.398 748.643C482.743 747.781 483.002 747.093 483.173 746.576C483.518 746.059 483.861 745.456 484.206 744.767C484.551 743.905 484.894 743.217 485.239 742.7C485.584 742.011 485.928 741.236 486.273 740.374C487.822 736.585 488.942 733.225 489.63 730.296C490.318 727.54 490.835 724.611 491.18 721.51C491.696 718.409 491.783 715.308 491.438 712.207C491.267 711.173 491.18 710.139 491.18 709.106C491.18 707.9 491.18 706.78 491.18 705.746C491.525 704.367 491.525 702.99 491.18 701.612V696.185C491.18 695.84 491.093 695.496 490.922 695.151C490.922 694.634 490.922 694.117 490.922 693.601C490.922 693.255 490.835 692.912 490.663 692.567C490.663 692.05 490.663 691.62 490.663 691.275C490.663 687.657 490.318 684.469 489.63 681.713C489.285 681.025 489.114 680.508 489.114 680.163C488.942 679.818 488.769 679.388 488.597 678.871C488.597 678.354 488.51 677.924 488.339 677.579C488.167 677.234 488.081 676.89 488.081 676.545C488.081 676.2 487.994 675.857 487.822 675.511C487.822 674.823 487.651 673.961 487.306 672.927C486.273 669.826 485.068 666.725 483.69 663.624C482.485 660.523 481.194 657.509 479.815 654.58C478.954 653.201 478.094 651.824 477.233 650.445C476.371 649.066 475.425 647.689 474.392 646.31C472.154 643.381 469.914 641.142 467.676 639.592C464.922 637.696 462.081 635.974 459.153 634.423C456.225 632.701 453.041 631.494 449.597 630.805C448.909 630.805 448.392 630.719 448.047 630.547C446.669 630.202 445.636 630.03 444.948 630.03C444.086 629.858 443.226 629.858 442.365 630.03C441.503 630.03 440.644 630.117 439.782 630.289C438.404 630.634 437.199 630.805 436.166 630.805C435.133 630.977 434.1 631.151 433.067 631.322C432.034 631.322 431.087 631.494 430.226 631.839C423.339 633.735 417.915 636.836 413.954 641.142C408.788 646.482 405.602 651.909 404.397 657.422C403.881 659.661 403.364 661.902 402.848 664.141C402.503 666.38 402.073 668.534 401.556 670.602C401.385 671.635 401.211 672.669 401.04 673.703C401.04 674.736 400.868 675.77 400.523 676.804C400.352 677.149 400.265 677.579 400.265 678.096C400.265 678.441 400.178 678.784 400.007 679.129C400.007 679.129 399.92 679.301 399.748 679.646C399.748 679.818 399.662 679.991 399.49 680.163C399.49 680.335 399.49 680.508 399.49 680.68C399.662 681.025 400.007 681.283 400.523 681.455C401.211 681.627 401.728 681.8 402.073 681.972C402.245 681.972 402.418 682.059 402.59 682.23C404.139 682.747 405.602 683.006 406.98 683.006H407.497C408.185 683.006 408.702 683.092 409.047 683.264H409.305H410.08H410.338V683.006V682.747C410.51 682.23 410.596 681.713 410.596 681.197C410.768 680.508 410.941 679.905 411.113 679.388C411.458 678.354 411.716 677.32 411.888 676.287C412.233 675.081 412.576 673.961 412.921 672.927C413.092 672.41 413.266 671.894 413.437 671.377C413.609 670.688 413.782 669.998 413.954 669.309C414.815 667.07 415.504 665.088 416.02 663.366C416.192 662.504 416.623 661.385 417.312 660.006L417.57 659.748C417.741 659.403 417.828 659.144 417.828 658.973C417.828 658.801 417.915 658.543 418.086 658.198C418.086 657.509 418.345 656.734 418.861 655.872C419.206 655.527 419.549 655.183 419.894 654.838C420.411 654.493 420.841 654.15 421.186 653.804C421.531 653.633 421.961 653.288 422.477 652.771C422.649 652.599 422.822 652.512 422.994 652.512C423.165 652.341 423.339 652.167 423.51 651.996C423.855 651.479 424.285 651.049 424.802 650.703C425.318 650.187 425.748 649.757 426.093 649.411C427.298 648.549 428.418 647.948 429.451 647.602C430.655 647.257 431.862 646.914 433.067 646.569C433.412 646.397 433.67 646.31 433.842 646.31C434.013 646.31 434.271 646.224 434.616 646.052C438.061 645.018 441.073 644.932 443.656 645.794C444.344 646.139 445.206 646.656 446.239 647.344C446.584 647.516 446.756 647.689 446.756 647.861C446.927 647.861 447.185 647.948 447.53 648.119C448.047 648.464 448.822 648.808 449.855 649.153C450.2 649.325 450.458 649.498 450.63 649.67C450.975 649.67 451.318 649.757 451.663 649.928C453.041 650.445 454.417 651.133 455.795 651.996C456.14 651.996 456.399 652.082 456.57 652.254C458.12 652.771 459.24 653.546 459.928 654.58C460.444 655.268 460.874 656.389 461.219 657.939V658.198C461.564 659.576 461.736 660.437 461.736 660.782C461.907 661.299 461.994 661.815 461.994 662.332C462.166 662.677 462.339 663.107 462.511 663.624C462.511 664.141 462.597 664.486 462.769 664.658C462.941 665.175 463.027 665.692 463.027 666.208C463.027 666.554 463.114 666.984 463.286 667.501C463.286 667.846 463.286 668.104 463.286 668.276C463.457 668.447 463.372 668.706 463.027 669.051C463.027 669.223 462.941 669.396 462.769 669.568H462.511C462.511 669.74 462.597 669.913 462.769 670.085V670.86C462.769 671.548 462.424 672.41 461.736 673.444C461.736 673.444 461.564 673.789 461.219 674.478C460.874 675.34 460.444 676.2 459.928 677.062C459.583 677.924 459.24 678.699 458.895 679.388C458.723 679.733 458.55 680.076 458.378 680.421C458.207 680.767 457.948 681.11 457.603 681.455C457.087 681.972 456.742 682.402 456.57 682.747C456.225 683.436 455.795 684.126 455.279 684.814C454.762 685.503 454.159 686.193 453.471 686.882C453.126 687.227 452.868 687.57 452.696 687.915C452.524 688.087 452.266 688.346 451.921 688.691C451.576 689.036 451.233 689.294 450.888 689.466C450.888 689.466 450.716 689.553 450.371 689.724C450.2 689.896 450.113 690.07 450.113 690.241V690.758C449.768 691.62 449.425 692.222 449.08 692.567L448.564 692.825C448.047 693.342 447.53 694.117 447.014 695.151V695.668C446.842 696.013 446.756 696.272 446.756 696.443C446.756 696.615 446.584 696.873 446.239 697.218C446.067 697.39 445.722 697.477 445.206 697.477H444.948C444.948 697.649 444.861 697.822 444.689 697.994C444.689 698.165 444.689 698.339 444.689 698.511C444.689 698.682 444.603 698.856 444.431 699.027L443.656 700.578L442.881 701.353C442.193 702.558 441.503 703.334 440.815 703.679C440.47 704.024 440.127 704.282 439.782 704.454C439.61 704.454 439.352 704.541 439.007 704.712C438.146 705.058 437.544 705.401 437.199 705.746C436.854 706.091 436.511 706.608 436.166 707.297C435.821 707.985 435.478 708.502 435.133 708.847C434.271 709.881 433.412 710.915 432.55 711.948C431.689 712.81 430.829 713.67 429.967 714.532L428.159 716.341C427.988 716.686 427.814 716.945 427.643 717.117C427.471 717.117 427.213 717.288 426.868 717.633C426.18 717.979 425.748 718.322 425.577 718.667C425.232 719.012 424.888 719.442 424.543 719.959C424.198 720.304 423.855 720.648 423.51 720.993C423.51 721.164 423.339 721.423 422.994 721.768C422.132 722.973 421.272 724.181 420.411 725.386C419.549 726.591 418.69 727.798 417.828 729.004C417.312 729.521 417.053 729.951 417.053 730.296C416.708 730.984 416.45 731.416 416.278 731.588C416.107 731.76 416.02 731.933 416.02 732.105C415.849 732.105 415.762 732.191 415.762 732.363V732.622C415.59 732.793 415.504 732.967 415.504 733.138C414.642 737.101 413.092 740.461 410.855 743.217C410.51 743.562 410.251 743.992 410.08 744.509C410.08 745.026 409.908 745.629 409.563 746.318L408.788 748.643C408.443 749.332 408.1 749.849 407.755 750.194C407.584 750.711 407.41 751.228 407.239 751.744C407.067 752.09 406.809 752.52 406.464 753.036C406.292 753.382 406.205 753.725 406.205 754.07C406.205 754.242 406.119 754.5 405.947 754.845C405.947 755.191 405.776 756.051 405.431 757.43C405.086 758.292 404.827 759.325 404.656 760.531C404.484 761.564 404.311 762.598 404.139 763.632C404.139 764.148 404.052 764.665 403.881 765.182C403.881 765.699 403.881 766.129 403.881 766.474L403.364 768.8C403.193 770.179 403.019 771.556 402.848 772.935C402.676 774.14 402.503 775.432 402.331 776.811C402.16 777.673 401.986 778.533 401.815 779.395C401.815 780.083 401.815 780.859 401.815 781.721C401.986 782.409 401.986 783.1 401.815 783.788C401.643 784.305 401.47 784.908 401.298 785.597C401.298 785.942 401.211 786.285 401.04 786.631C401.04 786.976 400.953 787.406 400.782 787.923C400.782 788.268 400.782 788.698 400.782 789.215C400.61 789.56 400.523 789.903 400.523 790.248C400.523 790.42 400.437 790.679 400.265 791.024C399.92 792.746 399.662 793.953 399.49 794.641C399.319 794.987 399.232 795.245 399.232 795.417C399.232 795.588 399.145 795.762 398.974 795.934C398.802 796.279 398.715 796.709 398.715 797.226C398.715 797.571 398.629 797.914 398.457 798.259C398.457 799.121 398.37 799.81 398.199 800.327C398.199 800.672 398.027 801.189 397.682 801.877C397.337 802.911 397.166 803.686 397.166 804.203V806.012C397.166 807.046 397.079 807.908 396.907 808.596V810.405V812.989C396.562 814.194 396.219 814.885 395.874 815.056V815.315V815.573H395.616C395.616 815.745 395.444 815.832 395.099 815.832C395.099 815.66 395.013 815.573 394.841 815.573C394.67 815.573 394.496 815.487 394.325 815.315C394.153 815.315 394.066 815.228 394.066 815.056C393.205 814.368 392.862 813.248 393.033 811.697C393.033 811.352 393.033 811.093 393.033 810.922C393.205 810.75 393.291 810.492 393.291 810.147C393.636 808.768 393.808 807.821 393.808 807.304V805.495C393.636 804.807 393.55 803.858 393.55 802.652C394.066 800.585 394.496 798.776 394.841 797.226C395.358 795.504 395.961 793.953 396.649 792.574C396.994 791.369 397.337 789.903 397.682 788.181C397.682 787.836 397.682 787.493 397.682 787.147C397.854 786.631 397.94 786.114 397.94 785.597C398.112 785.252 398.199 784.908 398.199 784.563C398.199 784.218 398.285 783.875 398.457 783.53C398.457 781.979 398.37 780.859 398.199 780.17V778.878C398.199 778.016 398.199 777.328 398.199 776.811C398.37 776.294 398.629 775.69 398.974 775.002C399.145 774.485 399.232 773.71 399.232 772.676V771.384C399.577 770.522 400.007 770.092 400.523 770.092C400.352 769.575 400.265 769.145 400.265 768.8C400.437 768.455 400.523 768.111 400.523 767.766C400.695 767.421 400.782 766.904 400.782 766.216C400.953 766.044 401.04 765.612 401.04 764.924C401.04 763.201 401.127 761.909 401.298 761.047C401.298 760.531 401.47 760.1 401.815 759.755C402.16 759.067 402.331 758.722 402.331 758.722V757.946C402.16 757.601 402.073 757.171 402.073 756.654C402.073 755.966 402.245 755.104 402.59 754.07C402.935 753.382 403.106 752.691 403.106 752.003C403.451 751.141 403.968 750.194 404.656 749.16C405.001 748.472 405.172 748.04 405.172 747.868C405.517 747.351 405.776 746.834 405.947 746.318C406.119 745.801 406.377 745.284 406.722 744.767C406.894 743.733 407.239 742.787 407.755 741.925C408.1 741.236 408.617 740.374 409.305 739.34C409.993 738.478 410.425 737.531 410.596 736.498C410.941 735.981 411.199 735.464 411.371 734.947C411.543 734.259 411.801 733.655 412.146 733.138C412.491 732.105 412.749 731.416 412.921 731.071C413.266 730.209 413.609 729.521 413.954 729.004C414.299 728.487 414.642 727.883 414.987 727.195L415.762 726.42C416.107 726.074 416.278 725.816 416.278 725.644C416.45 725.299 416.623 724.956 416.795 724.611C417.14 724.094 417.57 723.577 418.086 723.06C418.603 722.372 419.033 721.768 419.378 721.251C420.239 720.389 421.014 719.614 421.702 718.925C422.39 718.063 423.08 717.203 423.769 716.341C423.94 715.996 424.372 715.653 425.06 715.308C425.06 715.136 425.06 715.049 425.06 715.049C425.232 715.049 425.318 714.962 425.318 714.791C425.835 714.619 426.18 714.274 426.351 713.757C426.523 713.585 426.61 713.499 426.61 713.499C426.61 713.327 426.696 713.154 426.868 712.982C427.385 712.293 427.988 711.69 428.676 711.173C429.021 710.828 429.279 710.656 429.451 710.656C429.622 710.484 429.796 710.226 429.967 709.881L430.484 709.106C431.172 708.417 431.775 707.814 432.292 707.297C432.808 706.608 433.412 705.918 434.1 705.229L435.133 704.454L438.232 701.353C438.749 700.836 439.179 700.491 439.524 700.319C439.869 699.803 440.299 699.286 440.815 698.769C441.332 698.252 441.762 697.735 442.107 697.218V696.96C442.278 696.788 442.365 696.702 442.365 696.702C442.365 696.53 442.451 696.356 442.623 696.185C442.623 696.185 442.795 696.013 443.14 695.668C443.311 695.668 443.398 695.581 443.398 695.41C443.569 695.238 443.656 695.064 443.656 694.893C443.828 694.893 443.914 694.721 443.914 694.376C444.259 693.514 444.689 692.739 445.206 692.05C445.894 691.188 446.411 690.586 446.756 690.241C446.927 690.241 447.014 690.154 447.014 689.983C447.185 689.983 447.359 689.896 447.53 689.724V689.466L447.789 689.208V688.691C447.96 688.519 448.047 688.346 448.047 688.174C448.047 688.002 448.134 687.829 448.305 687.657C449.338 686.107 450.458 684.986 451.663 684.298C452.008 684.126 452.266 683.868 452.438 683.522V683.264C452.609 682.747 453.041 681.972 453.729 680.938C453.901 680.767 453.987 680.593 453.987 680.421C454.159 680.25 454.332 680.076 454.504 679.905C454.849 679.388 455.192 678.871 455.537 678.354C456.054 677.837 456.399 677.149 456.57 676.287L456.829 676.028C456.829 675.511 457.087 674.995 457.603 674.478C457.948 674.133 458.207 673.789 458.378 673.444C458.55 673.099 458.723 672.756 458.895 672.41C458.895 672.239 458.981 672.065 459.153 671.894C459.498 671.205 459.67 670.688 459.67 670.343C459.67 669.655 459.583 669.138 459.411 668.793V668.017C459.24 667.329 459.153 666.725 459.153 666.208C459.153 665.52 459.066 664.83 458.895 664.141C458.895 662.936 458.808 662.074 458.636 661.557C458.636 660.352 458.465 659.49 458.12 658.973C458.12 658.973 458.033 658.886 457.862 658.714C457.862 658.543 457.775 658.456 457.603 658.456C457.603 658.284 457.603 658.111 457.603 657.939C457.603 657.939 457.603 657.681 457.603 657.164V656.647C457.258 656.13 456.742 655.613 456.054 655.097C455.882 655.097 455.709 655.01 455.537 654.838C454.676 654.493 453.901 654.15 453.213 653.804C452.696 653.459 452.008 653.116 451.146 652.771C450.458 652.426 450.026 652.254 449.855 652.254L448.564 651.479C447.875 651.134 447.185 650.875 446.497 650.703C445.809 650.358 445.119 650.015 444.431 649.67C443.226 649.153 442.278 648.808 441.59 648.636C440.902 648.464 440.04 648.464 439.007 648.636L437.716 648.895C435.994 649.24 434.271 649.67 432.55 650.187C431 650.532 429.537 651.307 428.159 652.512C426.265 654.234 424.63 655.959 423.252 657.681C421.874 659.231 420.756 660.868 419.894 662.591C419.206 663.796 418.603 665.433 418.086 667.501C418.086 667.846 418 668.104 417.828 668.276C417.828 668.276 417.828 668.447 417.828 668.793C417.483 670.171 417.14 671.464 416.795 672.669C416.45 673.703 416.107 674.908 415.762 676.287C415.59 676.632 415.332 677.32 414.987 678.354C414.299 680.25 413.867 681.972 413.696 683.522V684.039C414.041 685.073 413.954 685.848 413.437 686.365C412.921 686.882 412.059 686.969 410.855 686.623H410.596C409.735 686.623 409.133 686.537 408.788 686.365C406.894 686.365 404.914 686.107 402.848 685.59C402.503 685.418 402.245 685.331 402.073 685.331C401.901 685.331 401.643 685.245 401.298 685.073C400.265 684.728 399.662 684.556 399.49 684.556C399.319 684.384 399.145 684.298 398.974 684.298C398.802 684.469 398.715 684.728 398.715 685.073C398.715 685.245 398.629 685.418 398.457 685.59V685.848L398.199 686.882L397.682 686.107C397.511 685.935 397.424 685.761 397.424 685.59C396.907 685.418 396.649 684.986 396.649 684.298C396.477 683.952 396.391 683.781 396.391 683.781C396.562 683.609 396.649 683.436 396.649 683.264C396.649 683.092 396.736 682.919 396.907 682.747C396.907 682.402 396.821 682.059 396.649 681.713C396.477 681.368 396.304 681.025 396.133 680.68C395.961 680.68 395.874 680.593 395.874 680.421L395.358 679.646H396.133H396.907C396.907 679.474 396.821 679.388 396.649 679.388C396.649 679.216 396.649 679.042 396.649 678.871C396.649 677.666 396.821 676.2 397.166 674.478C397.682 673.272 397.94 671.98 397.94 670.602L398.715 666.725C398.887 666.037 399.06 665.433 399.232 664.916C399.403 664.228 399.577 663.538 399.748 662.849C400.093 661.987 400.265 661.212 400.265 660.523C400.437 659.661 400.695 658.801 401.04 657.939C401.211 657.594 401.298 657.251 401.298 656.905C401.298 656.56 401.385 656.217 401.556 655.872C401.901 654.666 402.16 653.546 402.331 652.512C402.676 651.479 403.106 650.445 403.623 649.411C404.139 648.378 404.742 647.344 405.431 646.31C406.119 645.277 406.894 644.243 407.755 643.209L408.53 642.176C409.392 640.97 410.251 639.937 411.113 639.075C412.146 638.041 413.266 637.094 414.47 636.232C415.849 635.37 417.053 634.595 418.086 633.906C419.119 633.044 420.239 632.269 421.444 631.581L421.961 631.322C423.339 630.634 424.372 630.202 425.06 630.03C425.577 630.03 426.006 629.943 426.351 629.772C427.04 629.772 427.556 629.685 427.901 629.513C427.901 629.513 427.988 629.427 428.159 629.255C428.331 629.255 428.418 629.255 428.418 629.255C428.589 629.083 428.847 628.996 429.192 628.996H429.967H430.484C430.655 628.996 430.742 628.996 430.742 628.996C430.914 628.825 431.087 628.738 431.259 628.738C431.43 628.566 431.689 628.48 432.034 628.48C432.722 628.134 433.412 627.963 434.1 627.963C434.616 627.963 435.133 627.963 435.649 627.963C436.338 627.791 436.941 627.704 437.457 627.704C438.319 627.533 439.094 627.446 439.782 627.446C440.47 627.274 441.245 627.188 442.107 627.188C444.861 627.188 448.047 627.704 451.663 628.738C452.008 628.91 452.266 629.083 452.438 629.255C452.783 629.255 453.126 629.342 453.471 629.513C455.882 630.03 458.12 630.805 460.186 631.839C460.874 632.184 461.478 632.614 461.994 633.131C462.682 633.476 463.286 633.82 463.802 634.165C464.319 634.51 464.749 634.853 465.094 635.198C465.61 635.544 466.127 635.887 466.643 636.232L467.16 636.491C468.193 637.179 469.226 637.869 470.259 638.558C471.464 639.246 472.497 640.022 473.358 640.884C473.875 641.4 474.305 641.917 474.65 642.434C475.166 642.951 475.596 643.381 475.941 643.726L476.2 643.985C476.371 644.156 476.458 644.33 476.458 644.501C476.458 644.501 476.545 644.588 476.716 644.76C477.749 645.622 478.437 646.569 478.782 647.602C478.782 647.774 478.782 647.861 478.782 647.861C478.954 647.861 479.041 647.948 479.041 648.119V648.378C479.041 648.895 479.127 649.24 479.299 649.411L479.815 649.928C480.332 650.445 480.762 650.962 481.107 651.479L481.882 653.029C482.053 653.201 482.14 653.374 482.14 653.546C482.312 653.718 482.485 653.891 482.657 654.063C483.002 654.58 483.345 655.355 483.69 656.389C484.035 657.077 484.293 657.509 484.465 657.681C484.465 657.852 484.636 658.284 484.981 658.973C485.669 659.661 486.014 660.265 486.014 660.782C486.186 660.953 486.273 661.299 486.273 661.815C485.928 662.161 485.928 662.419 486.273 662.591C486.273 662.936 486.444 663.453 486.789 664.141L487.047 664.916C487.736 666.295 488.167 667.414 488.339 668.276C488.51 668.621 488.597 668.964 488.597 669.309C488.769 669.655 488.942 669.998 489.114 670.343L489.888 671.894C489.888 672.239 489.888 672.497 489.888 672.669C490.06 672.669 490.147 672.841 490.147 673.186C490.318 673.703 490.492 674.219 490.663 674.736C490.835 675.081 491.008 675.511 491.18 676.028C491.18 676.89 491.267 677.492 491.438 677.837C491.438 678.182 491.438 678.612 491.438 679.129C491.61 679.474 491.696 679.818 491.696 680.163C492.558 683.264 492.988 686.193 492.988 688.949C493.159 689.466 493.246 690.07 493.246 690.758C493.246 691.275 493.418 691.878 493.763 692.567C494.108 693.429 494.193 694.117 494.021 694.634C494.021 694.979 493.934 695.496 493.763 696.185V696.702C493.763 697.907 493.849 698.769 494.021 699.286V700.578C494.193 701.095 494.279 701.957 494.279 703.162V704.712V706.521V709.106C494.279 709.622 494.366 710.053 494.538 710.398ZM397.166 822.809H396.907C396.736 823.154 396.649 824.014 396.649 825.393V826.685C396.477 827.03 396.391 827.46 396.391 827.977C396.391 828.322 396.304 828.666 396.133 829.011C395.961 830.045 395.788 831.078 395.616 832.112C395.616 833.146 395.616 834.179 395.616 835.213L395.358 835.73V838.056C395.529 838.401 395.874 838.659 396.391 838.831H401.556H404.914H406.722C409.133 839.002 411.371 839.089 413.437 839.089C415.504 839.089 417.657 838.918 419.894 838.572C422.306 838.401 424.63 838.401 426.868 838.572C429.106 838.572 431.43 838.659 433.842 838.831H436.166C439.094 839.002 441.935 839.348 444.689 839.864C447.617 840.381 450.716 841.07 453.987 841.932C454.332 841.932 454.849 842.103 455.537 842.449C455.882 842.62 456.312 842.794 456.829 842.965C457.517 843.137 458.033 843.137 458.378 842.965L458.636 843.224L461.994 831.595C461.649 831.423 461.219 831.337 460.703 831.337C460.358 831.337 460.015 831.25 459.67 831.078C458.808 830.733 458.033 830.475 457.345 830.303C456.657 830.131 455.882 829.958 455.021 829.786C453.642 829.441 452.351 829.269 451.146 829.269C449.942 829.098 448.65 828.924 447.272 828.753H446.756L440.557 827.977C438.836 827.806 437.112 827.719 435.391 827.719C433.842 827.547 432.12 827.289 430.226 826.944C428.847 826.598 427.385 826.427 425.835 826.427C424.285 826.255 422.822 825.997 421.444 825.652C418 825.135 414.384 824.618 410.596 824.101C406.98 823.584 403.364 823.154 399.748 822.809L397.166 822.551V822.809Z" fill="white"/>
<path d="M497.987 321.296V322.182V323.363C497.987 323.757 497.987 324.152 497.987 324.545C498.184 324.938 498.184 325.333 497.987 325.726V328.975C497.79 329.566 497.692 330.452 497.692 331.633V333.7V336.358C497.299 337.933 497.004 339.705 496.806 341.674C496.806 343.446 496.609 345.316 496.216 347.286C495.626 350.041 495.035 352.602 494.445 354.964C494.052 357.129 493.657 359.296 493.264 361.461C493.067 362.445 492.871 363.331 492.674 364.12C492.476 364.908 492.281 365.794 492.083 366.778C491.69 367.368 491.395 368.057 491.198 368.845C491.198 369.633 491.1 370.419 490.903 371.207C490.312 373.373 489.722 375.638 489.132 378C488.739 380.165 488.344 382.43 487.951 384.793C487.558 386.367 487.263 387.944 487.065 389.518C487.065 391.093 486.868 392.669 486.475 394.244C486.475 395.425 486.377 396.409 486.18 397.197C485.982 398.181 485.885 399.166 485.885 400.15C485.885 401.134 485.787 402.217 485.59 403.399C485.59 403.596 485.59 403.792 485.59 403.99C485.787 404.187 485.885 404.383 485.885 404.58C486.082 405.959 485.885 406.943 485.294 407.534C485.097 407.927 484.409 408.124 483.228 408.124H482.933H480.276H478.505H476.439C476.046 408.124 475.651 408.026 475.258 407.829C475.061 407.829 474.766 407.829 474.373 407.829H468.174H465.813H464.042H459.614C459.023 407.829 458.433 407.829 457.843 407.829C457.252 408.026 456.662 408.124 456.072 408.124H451.054C448.89 408.124 447.314 408.026 446.331 407.829H444.855C444.265 407.631 443.674 407.534 443.084 407.534C442.494 407.534 442.001 407.436 441.608 407.238C441.215 407.238 440.82 407.041 440.427 406.648C440.427 406.648 440.329 406.55 440.132 406.352C439.935 406.352 439.837 406.155 439.837 405.761V405.466C440.23 405.073 440.427 404.876 440.427 404.876H443.379C442.591 403.892 442.396 402.611 442.789 401.036C442.789 400.643 442.691 400.348 442.494 400.15C442.296 399.953 442.198 399.56 442.198 398.969C442.001 398.378 441.903 397.492 441.903 396.311V394.244C441.903 393.85 441.805 393.653 441.608 393.653C441.608 393.455 441.608 393.16 441.608 392.767C441.411 392.374 441.313 391.881 441.313 391.29V386.565C441.313 386.172 441.411 385.974 441.608 385.974C441.215 385.186 441.115 384.695 441.313 384.498C441.51 384.104 441.51 383.809 441.313 383.611C440.722 383.414 440.427 382.823 440.427 381.84C440.427 381.446 440.525 381.151 440.722 380.954V380.363C440.722 379.97 440.625 379.575 440.427 379.182C440.427 378.591 440.427 378.098 440.427 377.705C440.23 377.312 440.132 377.016 440.132 376.819C440.132 376.426 440.034 376.031 439.837 375.638C439.639 375.047 439.444 374.456 439.247 373.866C439.247 373.077 439.149 372.389 438.951 371.798C438.754 370.617 438.656 369.436 438.656 368.254C438.656 367.073 438.656 365.892 438.656 364.71C438.459 364.12 438.361 363.036 438.361 361.461V358.804V357.622C438.361 357.229 438.263 357.032 438.066 357.032C438.066 356.834 438.066 356.539 438.066 356.146C438.066 355.752 438.066 355.457 438.066 355.259C438.263 354.866 438.361 354.471 438.361 354.078V352.011V349.944V347.286V344.923C438.558 344.135 438.656 342.953 438.656 341.379V339.016C438.854 338.228 438.854 337.342 438.656 336.358C438.263 334.784 438.263 333.207 438.656 331.633C438.656 331.24 438.656 330.944 438.656 330.747C438.854 330.549 438.951 330.254 438.951 329.861V328.384C439.149 327.203 439.247 326.022 439.247 324.84C439.247 323.659 439.444 322.478 439.837 321.296C439.837 319.722 440.034 317.95 440.427 315.98C440.82 314.406 441.018 313.224 441.018 312.436C441.215 312.043 441.313 311.452 441.313 310.664C441.313 309.68 441.411 308.892 441.608 308.302C442.001 307.12 442.198 305.939 442.198 304.757C442.396 303.576 442.691 302.395 443.084 301.214L443.969 297.67C443.969 297.472 443.969 297.374 443.969 297.374C444.167 297.177 444.265 296.881 444.265 296.488C444.658 295.307 444.855 294.421 444.855 293.83C444.855 292.846 444.855 291.861 444.855 290.877C445.052 289.696 445.248 288.612 445.445 287.628L446.331 283.198C446.331 282.805 446.331 282.41 446.331 282.017C446.528 281.426 446.626 280.933 446.626 280.54C446.823 280.147 446.921 279.457 446.921 278.473V277.292V276.701V276.406V275.815C446.921 275.224 447.019 274.731 447.216 274.338C447.216 273.945 447.216 273.55 447.216 273.157C447.414 272.566 447.512 272.073 447.512 271.68C447.709 270.892 447.807 270.106 447.807 269.318C447.807 268.529 447.807 267.743 447.807 266.955C448.004 266.364 448.004 265.774 447.807 265.183C447.807 264.592 447.807 263.904 447.807 263.116V259.867V256.323V253.074C447.807 251.893 447.709 251.007 447.512 250.416V249.235V248.94L447.807 246.282C447.807 245.298 447.807 244.312 447.807 243.328C447.807 242.344 447.905 241.359 448.102 240.375C448.102 238.996 448.004 238.012 447.807 237.422C447.609 236.043 447.512 234.764 447.512 233.582C447.512 232.401 447.512 231.317 447.512 230.334C447.512 229.94 447.512 229.645 447.512 229.448C447.709 229.25 447.807 228.955 447.807 228.562C448.2 226.987 448.102 225.608 447.512 224.427C447.314 224.229 447.216 224.034 447.216 223.836C447.414 223.443 447.512 223.148 447.512 222.95C447.904 222.162 448.102 220.981 448.102 219.406V216.748V214.681L446.331 216.453C445.543 217.437 444.757 218.323 443.969 219.111C443.379 219.702 442.591 220.194 441.608 220.588L441.313 221.474C440.92 221.867 440.625 222.262 440.427 222.655C440.427 222.852 440.23 223.148 439.837 223.541L439.542 224.132C439.149 224.722 438.754 225.313 438.361 225.904C437.968 226.297 437.573 226.79 437.18 227.38C436.393 228.168 435.902 228.857 435.704 229.448C435.114 229.841 434.621 230.334 434.229 230.924C434.031 231.317 433.638 231.81 433.048 232.401C432.85 232.598 432.555 233.089 432.162 233.878C431.769 234.271 431.375 234.666 430.982 235.059C430.784 235.452 430.489 235.847 430.096 236.24C429.703 236.633 429.308 237.028 428.915 237.422C428.718 237.815 428.423 238.21 428.03 238.603C426.849 240.177 426.061 241.261 425.668 241.852C425.275 242.245 424.98 242.54 424.783 242.738C424.783 242.935 424.585 243.23 424.192 243.624C424.192 243.624 423.995 244.017 423.602 244.805C423.012 245.198 422.324 245.986 421.536 247.168C421.143 247.561 420.946 248.054 420.946 248.644C420.553 249.826 419.667 250.416 418.289 250.416H417.699C416.518 250.416 415.337 250.416 414.156 250.416C412.976 250.219 411.795 250.023 410.614 249.826C409.434 249.432 408.155 249.235 406.777 249.235C405.596 249.037 404.416 248.742 403.235 248.349C402.842 248.151 402.447 248.054 402.054 248.054C401.857 248.054 401.562 247.956 401.169 247.758C400.776 247.758 400.381 247.561 399.988 247.168H399.693C399.693 246.97 399.595 246.872 399.397 246.872C399.397 246.675 399.3 246.577 399.102 246.577C396.741 245.986 394.577 244.707 392.608 242.738C392.215 242.54 391.821 242.344 391.428 242.147C391.23 241.949 390.935 241.754 390.542 241.556C389.754 241.163 389.066 240.67 388.476 240.08C387.493 239.686 387 238.898 387 237.717C387.393 236.733 388.083 235.945 389.066 235.354C389.657 235.157 390.444 234.566 391.428 233.582C391.821 232.794 392.706 231.908 394.084 230.924C394.282 230.727 394.379 230.531 394.379 230.334C394.577 230.136 394.872 229.94 395.265 229.743C395.658 229.545 395.855 229.35 395.855 229.152C396.053 228.955 396.348 228.659 396.741 228.266C397.922 227.085 398.905 226.199 399.693 225.608C400.086 225.215 400.381 224.92 400.578 224.722C400.971 224.329 401.366 223.934 401.759 223.541C402.152 223.148 402.644 222.655 403.235 222.064C403.825 221.474 404.416 220.981 405.006 220.588C405.596 220.39 406.187 219.799 406.777 218.816L407.662 217.93L408.843 217.044C409.434 216.255 410.319 215.272 411.5 214.09C411.697 213.893 411.795 213.795 411.795 213.795C411.795 213.597 411.893 213.402 412.09 213.204L412.976 212.318C413.369 211.925 413.566 211.63 413.566 211.432C413.959 211.039 414.254 210.744 414.452 210.546C414.845 210.153 415.337 209.858 415.927 209.66C416.125 209.66 416.223 209.562 416.223 209.365C416.42 209.167 416.518 208.972 416.518 208.774C416.715 208.381 417.01 207.986 417.403 207.593C417.796 206.805 418.191 206.116 418.584 205.526C419.174 204.935 419.962 204.442 420.946 204.049C420.946 204.049 421.143 203.851 421.536 203.458V203.163L422.421 202.277C422.814 201.489 423.209 200.997 423.602 200.8C424.585 199.619 425.668 198.339 426.849 196.961C428.227 195.583 429.703 194.204 431.277 192.826C432.655 191.251 434.131 189.676 435.704 188.101C437.475 186.526 439.149 184.951 440.722 183.376C442.101 181.997 443.379 180.619 444.56 179.241C445.938 177.863 447.414 176.288 448.987 174.516C450.956 172.35 451.939 170.086 451.939 167.723C451.939 167.526 451.841 167.329 451.644 167.132C451.447 166.148 451.349 165.557 451.349 165.36C451.546 164.966 452.037 164.573 452.825 164.179C452.825 164.179 453.022 164.08 453.415 163.884C454.398 163.49 455.284 163.194 456.072 162.998C456.859 162.801 457.645 162.604 458.433 162.407C459.221 162.407 460.402 162.21 461.975 161.816C462.368 161.619 463.058 161.521 464.042 161.521H465.222H465.517C466.698 161.324 467.879 161.226 469.06 161.226C470.24 161.029 471.421 160.733 472.602 160.34C473.192 160.143 474.275 159.847 475.849 159.454C476.636 159.06 477.422 158.863 478.21 158.863L485.294 157.091C487.263 156.697 488.541 157.583 489.132 159.749C489.132 160.143 489.132 160.536 489.132 160.93C489.329 161.324 489.427 161.718 489.427 162.112L490.312 164.77C490.51 165.754 490.608 166.64 490.608 167.428C490.608 168.215 490.705 169.101 490.903 170.086V171.267C491.296 173.433 491.493 175.598 491.493 177.764C491.69 179.733 491.986 181.8 492.379 183.966C492.379 184.754 492.379 185.443 492.379 186.034C492.576 186.624 492.674 187.313 492.674 188.101C492.674 189.479 492.871 191.153 493.264 193.122C493.264 194.106 493.264 194.992 493.264 195.78C493.462 196.37 493.657 197.059 493.854 197.847C493.854 198.241 493.854 198.634 493.854 199.028C494.052 199.422 494.15 199.816 494.15 200.21V200.505C494.15 200.899 494.15 201.194 494.15 201.391C494.347 201.588 494.445 201.785 494.445 201.982C494.247 203.754 494.247 205.623 494.445 207.593C494.838 209.562 495.233 211.63 495.626 213.795C495.823 214.188 495.921 214.681 495.921 215.272V215.862V217.044V220.883V222.655V223.836V225.018V229.448V232.696C495.921 233.089 495.921 233.484 495.921 233.878C496.118 234.075 496.216 234.37 496.216 234.764V236.24V237.422V242.147C496.216 243.721 496.216 245.298 496.216 246.872C496.216 248.251 496.314 249.728 496.511 251.302C496.511 252.286 496.511 253.172 496.511 253.96C496.511 254.748 496.413 255.634 496.216 256.618V262.525C496.413 264.297 496.511 266.069 496.511 267.841C496.511 269.613 496.609 271.483 496.806 273.452C496.806 275.617 496.904 277.194 497.101 278.178V282.903C497.299 283.887 497.397 284.773 497.397 285.561C497.397 286.152 497.397 286.84 497.397 287.628C497.397 288.612 497.397 289.598 497.397 290.582C497.397 291.37 497.494 292.256 497.692 293.24C497.692 294.223 497.692 295.109 497.692 295.898C497.692 296.686 497.79 297.472 497.987 298.26C498.184 299.244 498.282 300.23 498.282 301.214C498.282 302.197 498.282 303.183 498.282 304.167C498.48 305.151 498.48 306.037 498.282 306.825C498.282 307.416 498.282 308.204 498.282 309.188V312.141V314.208V316.866C498.282 318.245 498.184 319.229 497.987 319.82V321.296ZM494.74 318.934C494.937 318.145 495.035 317.359 495.035 316.571C495.035 315.783 495.035 314.897 495.035 313.913C495.233 313.125 495.33 312.043 495.33 310.664V308.597C495.33 308.006 495.233 307.513 495.035 307.12C495.035 306.136 494.937 305.348 494.74 304.757V302.395V300.032C494.74 299.244 494.642 298.458 494.445 297.67C494.445 296.881 494.445 296.095 494.445 295.307C494.247 294.323 494.15 293.24 494.15 292.058C494.15 290.877 494.052 289.696 493.854 288.514C493.854 287.135 493.952 286.152 494.15 285.561V283.198C494.15 281.229 494.052 279.852 493.854 279.064V278.473V277.587C493.657 277.194 493.559 276.603 493.559 275.815C493.952 275.224 494.052 274.633 493.854 274.043C493.854 273.452 493.854 272.764 493.854 271.976C493.854 271.582 493.757 271.385 493.559 271.385C493.559 271.187 493.559 270.892 493.559 270.499V264.297V261.344V261.048V260.753L493.264 259.867V257.504V254.551V253.074V252.779V248.94V241.556V235.945V230.924C492.871 230.531 492.871 230.038 493.264 229.448C493.264 228.659 493.166 227.971 492.969 227.38V226.199V224.722V222.95V220.292C492.969 218.913 492.871 217.634 492.674 216.453C492.674 215.074 492.576 213.795 492.379 212.614C492.181 211.825 492.083 211.039 492.083 210.251C492.083 209.463 491.986 208.676 491.788 207.888C491.591 207.298 491.493 206.314 491.493 204.935C491.1 202.966 490.903 201.489 490.903 200.505V199.914V199.028C490.51 197.65 490.215 196.37 490.017 195.189C490.017 193.811 490.017 192.531 490.017 191.35V191.054C490.017 190.464 490.017 189.873 490.017 189.282C490.017 188.495 489.919 187.806 489.722 187.215C489.722 186.821 489.624 186.427 489.427 186.034C489.427 185.64 489.427 185.246 489.427 184.852C489.229 184.458 489.132 184.065 489.132 183.671C489.132 183.08 489.034 182.588 488.836 182.194C488.639 181.21 488.541 180.225 488.541 179.241C488.541 178.256 488.444 177.075 488.246 175.697C488.246 175.303 488.148 174.909 487.951 174.516C487.951 174.122 487.951 173.728 487.951 173.334C487.951 171.759 487.853 170.578 487.656 169.79C487.458 168.806 487.263 167.92 487.065 167.132C487.065 166.148 486.968 165.163 486.77 164.179C486.77 163.785 486.672 163.391 486.475 162.998C486.475 162.407 486.475 161.915 486.475 161.521C486.475 160.93 486.278 160.635 485.885 160.635L485.294 160.93C484.311 160.93 483.621 161.029 483.228 161.226L478.8 162.112C477.029 162.505 475.258 162.899 473.487 163.293C471.716 163.687 469.847 164.08 467.879 164.474C466.305 164.671 464.632 164.868 462.861 165.065C461.287 165.262 459.712 165.557 458.138 165.951L457.252 166.246C456.072 166.246 455.481 166.64 455.481 167.428C455.284 168.412 455.088 169.495 454.891 170.676C454.891 171.858 454.793 172.94 454.596 173.925C454.596 174.909 454.398 176.189 454.005 177.764C454.005 179.142 453.908 180.225 453.71 181.013C453.71 181.997 453.612 182.883 453.415 183.671C453.415 184.458 453.317 185.344 453.12 186.329C452.727 188.298 452.432 190.267 452.234 192.236C452.234 194.204 452.137 196.272 451.939 198.438V200.21C451.939 201.194 452.037 201.982 452.234 202.572V204.049V205.821H453.12H453.415C453.808 205.821 454.005 205.919 454.005 206.116C454.203 206.116 454.301 206.214 454.301 206.412C454.301 206.609 454.203 206.707 454.005 206.707V207.888C453.613 208.479 453.317 208.774 453.12 208.774C452.332 209.167 451.841 210.053 451.644 211.432V216.453V218.52V237.422V243.033V244.214V250.121C451.644 251.105 451.644 252.09 451.644 253.074C451.644 254.058 451.742 255.044 451.939 256.028V263.116V263.706V268.136C451.939 268.727 451.841 269.318 451.644 269.908C451.644 270.499 451.644 271.09 451.644 271.68C451.447 272.664 451.251 273.65 451.054 274.634C451.054 275.422 451.054 276.308 451.054 277.292C451.054 279.654 450.661 282.017 449.873 284.38V284.97V287.038C449.676 287.628 449.578 288.317 449.578 289.105C449.578 289.696 449.48 290.286 449.283 290.877C449.085 292.451 448.89 294.028 448.692 295.602C448.495 296.981 448.2 298.458 447.807 300.032L446.921 304.462C446.724 305.053 446.626 305.644 446.626 306.234C446.626 306.627 446.528 307.12 446.331 307.711C446.133 308.499 445.938 309.187 445.74 309.778C445.74 310.369 445.643 311.057 445.445 311.846C445.445 312.634 445.248 313.815 444.855 315.39C444.658 316.373 444.462 317.457 444.265 318.638C444.067 319.622 443.872 320.608 443.674 321.592C443.477 322.97 443.379 324.347 443.379 325.726C443.379 326.907 443.281 328.089 443.084 329.27V331.928V334.882C443.084 336.063 442.986 336.851 442.789 337.244V341.97C442.591 342.953 442.494 343.839 442.494 344.628C442.494 345.218 442.494 345.907 442.494 346.695V348.762V350.83C442.494 351.618 442.396 352.109 442.198 352.306V355.555C442.396 356.539 442.494 357.524 442.494 358.508C442.494 359.296 442.591 360.182 442.789 361.166C442.789 362.15 442.789 363.036 442.789 363.824C442.789 364.612 442.886 365.399 443.084 366.187V369.14C443.084 369.731 443.084 370.419 443.084 371.207C443.084 371.798 443.182 372.389 443.379 372.98C443.379 373.177 443.379 373.373 443.379 373.57C443.576 373.57 443.674 373.668 443.674 373.866C444.067 374.259 444.265 374.752 444.265 375.342C444.265 376.524 444.362 377.41 444.56 378C444.953 379.182 445.15 380.265 445.15 381.249C444.953 382.037 444.855 382.823 444.855 383.611C445.052 384.202 445.15 384.793 445.15 385.384V387.746C444.757 389.125 444.855 390.207 445.445 390.995V391.881C445.248 392.274 445.15 392.767 445.15 393.357C445.348 393.751 445.445 394.244 445.445 394.834C445.445 395.032 445.445 395.13 445.445 395.13C445.643 395.327 445.74 395.622 445.74 396.015C445.938 396.999 446.036 398.083 446.036 399.264C446.036 400.446 446.036 401.529 446.036 402.513V405.171H482.343V404.876V402.808V401.627V398.969C482.343 398.576 482.343 398.181 482.343 397.788C482.54 397.394 482.638 396.999 482.638 396.606C482.638 396.409 482.638 396.213 482.638 396.015C482.835 395.818 482.933 395.523 482.933 395.13C482.933 394.736 482.933 394.244 482.933 393.653C483.13 393.062 483.228 392.472 483.228 391.881C483.426 391.093 483.523 390.404 483.523 389.813C483.523 389.025 483.621 388.239 483.818 387.451C484.016 387.058 484.114 386.663 484.114 386.27C484.114 385.679 484.211 385.186 484.409 384.793C484.409 384.595 484.409 384.498 484.409 384.498C484.606 384.498 484.704 384.4 484.704 384.202C484.704 383.809 484.704 383.611 484.704 383.611C484.901 383.414 484.999 383.119 484.999 382.726C485.197 382.332 485.294 382.037 485.294 381.84C485.294 381.446 485.392 381.051 485.59 380.658C485.59 380.265 485.59 379.97 485.59 379.772C485.787 379.379 485.885 378.984 485.885 378.591C485.885 378.393 485.885 378.198 485.885 378C486.082 377.803 486.18 377.507 486.18 377.114C486.377 376.524 486.475 375.835 486.475 375.047C486.672 374.259 486.868 373.472 487.065 372.684C487.065 372.487 487.065 372.389 487.065 372.389C487.263 372.191 487.361 371.896 487.361 371.503C487.558 371.305 487.656 371.01 487.656 370.617C487.853 370.224 487.951 369.928 487.951 369.731C487.951 369.533 488.049 369.338 488.246 369.14C488.639 367.959 488.934 366.778 489.132 365.596C489.329 364.415 489.525 363.234 489.722 362.052C489.722 361.462 489.919 360.576 490.312 359.394C490.705 357.82 490.805 356.539 490.608 355.555C490.608 355.357 490.805 354.866 491.198 354.078C491.198 354.078 491.296 353.98 491.493 353.783C491.69 353.585 491.788 353.39 491.788 353.192C491.986 352.602 492.083 351.42 492.083 349.648C492.083 348.074 492.379 346.497 492.969 344.923C493.166 343.939 493.264 343.053 493.264 342.265C493.462 341.477 493.559 340.69 493.559 339.902C493.362 338.918 493.264 337.933 493.264 336.949C493.462 335.768 493.657 334.684 493.854 333.7C494.052 333.11 494.15 332.224 494.15 331.042L494.445 329.566C494.445 328.582 494.445 327.794 494.445 327.203C494.642 326.415 494.74 325.529 494.74 324.545V321.887V318.934ZM448.102 201.686C447.905 201.096 447.807 200.308 447.807 199.324C448.004 198.536 448.102 197.847 448.102 197.256C448.102 196.666 448.2 195.976 448.397 195.189C448.397 194.204 448.495 193.515 448.692 193.122C448.692 192.137 448.692 191.251 448.692 190.464C448.89 189.479 449.085 188.495 449.283 187.51L449.578 184.262V183.966C449.775 183.769 449.873 183.376 449.873 182.785L450.759 179.241C450.759 178.453 450.661 177.863 450.463 177.469L449.873 178.06C449.283 179.044 448.594 179.93 447.807 180.718C447.216 181.505 446.429 182.391 445.445 183.376C445.052 183.769 444.658 184.065 444.265 184.262C443.674 185.049 442.691 186.132 441.313 187.51C440.722 188.101 440.132 188.692 439.542 189.282C438.951 189.676 438.459 190.168 438.066 190.759C437.475 191.35 436.885 191.94 436.295 192.531C435.704 193.122 435.114 193.614 434.524 194.008C433.54 194.992 432.555 195.976 431.572 196.961C430.589 197.945 429.603 198.93 428.62 199.914C427.637 200.899 426.751 201.883 425.964 202.868C425.176 203.851 424.29 204.837 423.307 205.821C422.717 206.412 422.126 207.1 421.536 207.888C420.945 208.479 420.355 209.167 419.765 209.956C419.372 210.349 418.977 210.744 418.584 211.137C418.191 211.53 417.796 211.925 417.403 212.318L415.632 214.09C414.845 214.878 414.156 215.567 413.566 216.158C412.976 216.748 412.385 217.437 411.795 218.225L408.253 221.769L407.367 222.655C406.974 222.852 406.58 223.148 406.187 223.541L403.53 226.199C402.94 226.987 402.252 227.676 401.464 228.266L400.283 229.448L398.807 230.924C398.414 231.317 398.019 231.712 397.626 232.106C397.429 232.303 397.134 232.598 396.741 232.992L393.199 236.536C393.001 236.929 392.411 237.422 391.428 238.012L391.133 238.308H391.428C392.018 238.701 392.706 239.096 393.494 239.489C394.675 240.277 395.462 240.768 395.855 240.966C396.643 241.556 397.824 242.245 399.397 243.033C403.137 245.396 408.055 246.774 414.156 247.168C414.944 247.168 415.535 247.265 415.927 247.463C416.715 247.66 417.306 247.265 417.699 246.282C418.486 245.1 419.077 244.312 419.47 243.919L419.765 243.328L420.65 242.442C420.65 242.049 420.848 241.852 421.241 241.852C421.634 241.458 421.929 241.063 422.126 240.67C422.324 240.277 422.619 239.882 423.012 239.489C423.405 238.898 424.192 237.815 425.373 236.24L427.144 234.468C427.537 234.075 427.832 233.68 428.03 233.287C428.227 232.894 428.522 232.499 428.915 232.106C429.506 231.515 429.899 231.022 430.096 230.629C430.489 230.236 430.784 229.841 430.982 229.448C431.375 228.857 431.769 228.364 432.162 227.971L432.457 227.676V227.085L433.048 226.494C433.245 225.706 433.638 225.018 434.229 224.427C434.426 224.034 434.621 223.836 434.819 223.836C435.016 223.639 435.212 223.343 435.409 222.95C436.59 222.162 437.475 221.08 438.066 219.702C439.049 218.52 440.034 217.437 441.018 216.453C442.198 215.469 443.379 214.483 444.56 213.5C445.348 212.711 445.838 212.121 446.036 211.728C446.233 211.53 446.331 211.432 446.331 211.432C446.331 211.235 446.429 211.039 446.626 210.842V210.546C446.626 210.546 446.823 210.349 447.216 209.956C448.2 208.577 448.495 207.495 448.102 206.707V206.116V205.23V202.868V201.686Z" fill="white"/>
</g>
<defs>
<clipPath id="clip0_173_431">
<rect width="886" height="886" fill="white"/>
</clipPath>
</defs>
</svg>
