<svg width="886" height="886" viewBox="0 0 886 886" fill="none" xmlns="http://www.w3.org/2000/svg">
<g clip-path="url(#clip0_173_451)">
<rect width="886" height="886" fill="white"/>
<rect width="886" height="886" fill="#7036CC"/>
<rect y="323" width="886" height="563" fill="#3D1F6D"/>
<path d="M484.226 195.222V195.887V196.773C484.226 197.068 484.226 197.363 484.226 197.659C484.373 197.954 484.373 198.249 484.226 198.545V200.981C484.078 201.424 484.004 202.089 484.004 202.975V204.525V206.519C483.709 207.7 483.488 209.029 483.34 210.506C483.34 211.835 483.193 213.237 482.897 214.714C482.455 216.781 482.012 218.701 481.569 220.473C481.274 222.097 480.979 223.722 480.684 225.346C480.536 226.084 480.389 226.749 480.241 227.34C480.094 227.93 479.946 228.595 479.799 229.333C479.504 229.776 479.282 230.293 479.135 230.884C479.135 231.474 479.061 232.065 478.913 232.656C478.471 234.28 478.028 235.978 477.585 237.75C477.29 239.374 476.995 241.073 476.7 242.845C476.405 244.026 476.183 245.207 476.036 246.389C476.036 247.57 475.888 248.751 475.593 249.933C475.593 250.819 475.519 251.557 475.372 252.148C475.224 252.886 475.15 253.624 475.15 254.363C475.15 255.101 475.077 255.913 474.929 256.799C474.929 256.947 474.929 257.094 474.929 257.242C475.077 257.39 475.15 257.537 475.15 257.685C475.298 258.719 475.15 259.457 474.708 259.9C474.56 260.195 474.044 260.343 473.158 260.343H472.937H470.945H469.617H468.067C467.772 260.343 467.477 260.269 467.182 260.122C467.034 260.122 466.813 260.122 466.518 260.122H461.87H460.099H458.771H455.451C455.008 260.122 454.565 260.122 454.123 260.122C453.68 260.269 453.237 260.343 452.795 260.343H449.032C447.409 260.343 446.228 260.269 445.49 260.122H444.384C443.941 259.974 443.498 259.9 443.055 259.9C442.613 259.9 442.244 259.826 441.949 259.679C441.654 259.679 441.358 259.531 441.063 259.236C441.063 259.236 440.99 259.162 440.842 259.014C440.694 259.014 440.621 258.866 440.621 258.571V258.35C440.916 258.054 441.063 257.907 441.063 257.907H443.277C442.687 257.168 442.539 256.208 442.834 255.027C442.834 254.732 442.76 254.51 442.613 254.363C442.465 254.215 442.391 253.92 442.391 253.477C442.244 253.034 442.17 252.369 442.17 251.483V249.933C442.17 249.637 442.096 249.49 441.949 249.49C441.949 249.342 441.949 249.12 441.949 248.825C441.801 248.53 441.727 248.161 441.727 247.718V244.174C441.727 243.878 441.801 243.731 441.949 243.731C441.654 243.14 441.58 242.771 441.727 242.623C441.875 242.328 441.875 242.106 441.727 241.959C441.285 241.811 441.063 241.368 441.063 240.63C441.063 240.334 441.137 240.113 441.285 239.965V239.522C441.285 239.227 441.211 238.931 441.063 238.636C441.063 238.193 441.063 237.824 441.063 237.529C440.916 237.233 440.842 237.012 440.842 236.864C440.842 236.569 440.768 236.273 440.621 235.978C440.473 235.535 440.326 235.092 440.178 234.649C440.178 234.058 440.104 233.542 439.957 233.099C439.809 232.213 439.735 231.327 439.735 230.441C439.735 229.555 439.735 228.669 439.735 227.783C439.588 227.34 439.514 226.527 439.514 225.346V223.353V222.467C439.514 222.171 439.44 222.024 439.293 222.024C439.293 221.876 439.293 221.654 439.293 221.359C439.293 221.064 439.293 220.842 439.293 220.695C439.44 220.399 439.514 220.104 439.514 219.809V218.258V216.708V214.714V212.942C439.662 212.351 439.735 211.465 439.735 210.284V208.512C439.883 207.921 439.883 207.257 439.735 206.519C439.44 205.337 439.44 204.156 439.735 202.975C439.735 202.679 439.735 202.458 439.735 202.31C439.883 202.162 439.957 201.941 439.957 201.646V200.538C440.104 199.652 440.178 198.766 440.178 197.88C440.178 196.994 440.326 196.108 440.621 195.222C440.621 194.041 440.768 192.712 441.063 191.235C441.358 190.054 441.506 189.168 441.506 188.577C441.654 188.282 441.727 187.839 441.727 187.248C441.727 186.51 441.801 185.919 441.949 185.476C442.244 184.59 442.391 183.704 442.391 182.818C442.539 181.932 442.76 181.046 443.055 180.16L443.719 177.502C443.719 177.354 443.719 177.281 443.719 177.281C443.867 177.133 443.941 176.911 443.941 176.616C444.236 175.73 444.384 175.066 444.384 174.623C444.384 173.884 444.384 173.146 444.384 172.408C444.531 171.522 444.679 170.709 444.826 169.971L445.49 166.649C445.49 166.353 445.49 166.058 445.49 165.763C445.638 165.32 445.712 164.95 445.712 164.655C445.859 164.36 445.933 163.843 445.933 163.105V162.219V161.776V161.554V161.111C445.933 160.668 446.007 160.299 446.154 160.004C446.154 159.708 446.154 159.413 446.154 159.118C446.302 158.675 446.376 158.305 446.376 158.01C446.523 157.419 446.597 156.829 446.597 156.238C446.597 155.647 446.597 155.057 446.597 154.466C446.745 154.023 446.745 153.58 446.597 153.137C446.597 152.694 446.597 152.177 446.597 151.587V149.15V146.492V144.056C446.597 143.17 446.523 142.505 446.376 142.062V141.176V140.955L446.597 138.961C446.597 138.223 446.597 137.484 446.597 136.746C446.597 136.008 446.671 135.269 446.818 134.531C446.818 133.497 446.745 132.759 446.597 132.316C446.449 131.282 446.376 130.323 446.376 129.437C446.376 128.551 446.376 127.738 446.376 127C446.376 126.705 446.376 126.483 446.376 126.336C446.523 126.188 446.597 125.966 446.597 125.671C446.892 124.49 446.818 123.456 446.376 122.57C446.228 122.422 446.154 122.275 446.154 122.127C446.302 121.832 446.376 121.61 446.376 121.463C446.671 120.872 446.818 119.986 446.818 118.805V116.811V115.261L445.49 116.59C444.9 117.328 444.31 117.992 443.719 118.583C443.277 119.026 442.687 119.395 441.949 119.691L441.727 120.355C441.432 120.65 441.211 120.946 441.063 121.241C441.063 121.389 440.916 121.61 440.621 121.906L440.399 122.349C440.104 122.792 439.809 123.235 439.514 123.678C439.219 123.973 438.924 124.342 438.629 124.785C438.038 125.376 437.669 125.893 437.522 126.336C437.079 126.631 436.71 127 436.415 127.443C436.268 127.738 435.972 128.108 435.53 128.551C435.382 128.698 435.161 129.067 434.866 129.658C434.571 129.953 434.275 130.249 433.98 130.544C433.833 130.839 433.611 131.135 433.316 131.43C433.021 131.725 432.726 132.021 432.431 132.316C432.283 132.611 432.062 132.907 431.767 133.202C430.882 134.383 430.291 135.196 429.996 135.639C429.701 135.934 429.48 136.155 429.332 136.303C429.332 136.451 429.185 136.672 428.889 136.968C428.889 136.968 428.742 137.263 428.447 137.854C428.004 138.149 427.488 138.74 426.897 139.626C426.602 139.921 426.455 140.29 426.455 140.733C426.159 141.619 425.495 142.062 424.463 142.062H424.02C423.134 142.062 422.249 142.062 421.364 142.062C420.478 141.914 419.593 141.767 418.708 141.619C417.822 141.324 416.863 141.176 415.83 141.176C414.945 141.028 414.059 140.807 413.174 140.512C412.879 140.364 412.584 140.29 412.289 140.29C412.141 140.29 411.92 140.216 411.625 140.069C411.329 140.069 411.034 139.921 410.739 139.626H410.518C410.518 139.478 410.444 139.404 410.296 139.404C410.296 139.256 410.223 139.183 410.075 139.183C408.304 138.74 406.681 137.78 405.206 136.303C404.91 136.155 404.615 136.008 404.32 135.86C404.173 135.712 403.951 135.565 403.656 135.417C403.066 135.122 402.549 134.753 402.107 134.31C401.369 134.014 401 133.424 401 132.538C401.295 131.799 401.812 131.209 402.549 130.766C402.992 130.618 403.582 130.175 404.32 129.437C404.615 128.846 405.279 128.181 406.312 127.443C406.46 127.295 406.534 127.148 406.534 127C406.681 126.852 406.903 126.705 407.198 126.557C407.493 126.409 407.64 126.262 407.64 126.114C407.788 125.966 408.009 125.745 408.304 125.45C409.19 124.564 409.928 123.899 410.518 123.456C410.813 123.161 411.034 122.939 411.182 122.792C411.477 122.496 411.772 122.201 412.067 121.906C412.362 121.61 412.731 121.241 413.174 120.798C413.617 120.355 414.059 119.986 414.502 119.691C414.945 119.543 415.387 119.1 415.83 118.362L416.494 117.697L417.38 117.033C417.822 116.442 418.486 115.704 419.372 114.818C419.519 114.67 419.593 114.596 419.593 114.596C419.593 114.448 419.667 114.301 419.814 114.153L420.478 113.489C420.773 113.193 420.921 112.972 420.921 112.824C421.216 112.529 421.437 112.307 421.585 112.16C421.88 111.864 422.249 111.643 422.692 111.495C422.839 111.495 422.913 111.421 422.913 111.274C423.061 111.126 423.134 110.978 423.134 110.831C423.282 110.535 423.503 110.24 423.798 109.945C424.094 109.354 424.389 108.837 424.684 108.394C425.127 107.951 425.717 107.582 426.455 107.287C426.455 107.287 426.602 107.139 426.897 106.844V106.622L427.561 105.958C427.856 105.367 428.152 104.998 428.447 104.85C429.185 103.964 429.996 103.004 430.882 101.971C431.914 100.937 433.021 99.9033 434.202 98.8697C435.235 97.6883 436.341 96.507 437.522 95.3257C438.85 94.1443 440.104 92.963 441.285 91.7817C442.318 90.748 443.277 89.7143 444.162 88.6807C445.195 87.647 446.302 86.4657 447.482 85.1367C448.958 83.5123 449.696 81.8142 449.696 80.0422C449.696 79.8945 449.622 79.7468 449.474 79.5992C449.327 78.8608 449.253 78.4178 449.253 78.2702C449.401 77.9748 449.77 77.6795 450.36 77.3842C450.36 77.3842 450.507 77.3103 450.803 77.1627C451.54 76.8673 452.204 76.6458 452.795 76.4982C453.385 76.3505 453.975 76.2028 454.565 76.0552C455.156 76.0552 456.041 75.9075 457.221 75.6122C457.517 75.4645 458.033 75.3907 458.771 75.3907H459.656H459.878C460.763 75.243 461.648 75.1692 462.534 75.1692C463.419 75.0215 464.305 74.8 465.19 74.5047C465.633 74.357 466.444 74.1355 467.625 73.8402C468.215 73.5448 468.805 73.3972 469.395 73.3972L474.708 72.0682C476.183 71.7728 477.143 72.4373 477.585 74.0617C477.585 74.357 477.585 74.6523 477.585 74.9477C477.733 75.243 477.807 75.5383 477.807 75.8337L478.471 77.8272C478.618 78.5655 478.692 79.23 478.692 79.8207C478.692 80.4113 478.766 81.0758 478.913 81.8142V82.7002C479.208 84.3245 479.356 85.9488 479.356 87.5732C479.504 89.0498 479.725 90.6003 480.02 92.2247C480.02 92.8153 480.02 93.3322 480.02 93.7752C480.168 94.2182 480.241 94.735 480.241 95.3257C480.241 96.3593 480.389 97.6145 480.684 99.0912C480.684 99.8295 480.684 100.494 480.684 101.085C480.832 101.528 480.979 102.044 481.127 102.635C481.127 102.93 481.127 103.226 481.127 103.521C481.274 103.816 481.348 104.112 481.348 104.407V104.629C481.348 104.924 481.348 105.145 481.348 105.293C481.496 105.441 481.569 105.588 481.569 105.736C481.422 107.065 481.422 108.468 481.569 109.945C481.865 111.421 482.16 112.972 482.455 114.596C482.602 114.891 482.676 115.261 482.676 115.704V116.147V117.033V119.912V121.241V122.127V123.013V126.336V128.772C482.676 129.067 482.676 129.363 482.676 129.658C482.824 129.806 482.897 130.027 482.897 130.323V131.43V132.316V135.86C482.897 137.041 482.897 138.223 482.897 139.404C482.897 140.438 482.971 141.545 483.119 142.727C483.119 143.465 483.119 144.129 483.119 144.72C483.119 145.311 483.045 145.975 482.897 146.714V151.144C483.045 152.473 483.119 153.802 483.119 155.131C483.119 156.46 483.193 157.862 483.34 159.339C483.34 160.963 483.414 162.145 483.562 162.883V166.427C483.709 167.165 483.783 167.83 483.783 168.421C483.783 168.864 483.783 169.38 483.783 169.971C483.783 170.709 483.783 171.448 483.783 172.186C483.783 172.777 483.857 173.441 484.004 174.18C484.004 174.918 484.004 175.582 484.004 176.173C484.004 176.764 484.078 177.354 484.226 177.945C484.373 178.683 484.447 179.422 484.447 180.16C484.447 180.898 484.447 181.637 484.447 182.375C484.594 183.113 484.594 183.778 484.447 184.369C484.447 184.812 484.447 185.402 484.447 186.141V188.356V189.906V191.9C484.447 192.933 484.373 193.672 484.226 194.115V195.222ZM481.791 193.45C481.938 192.859 482.012 192.269 482.012 191.678C482.012 191.087 482.012 190.423 482.012 189.685C482.16 189.094 482.233 188.282 482.233 187.248V185.698C482.233 185.255 482.16 184.885 482.012 184.59C482.012 183.852 481.938 183.261 481.791 182.818V181.046V179.274C481.791 178.683 481.717 178.093 481.569 177.502C481.569 176.911 481.569 176.321 481.569 175.73C481.422 174.992 481.348 174.18 481.348 173.294C481.348 172.408 481.274 171.522 481.127 170.636C481.127 169.602 481.2 168.864 481.348 168.421V166.649C481.348 165.172 481.274 164.138 481.127 163.548V163.105V162.44C480.979 162.145 480.905 161.702 480.905 161.111C481.201 160.668 481.274 160.225 481.127 159.782C481.127 159.339 481.127 158.822 481.127 158.232C481.127 157.936 481.053 157.789 480.905 157.789C480.905 157.641 480.905 157.419 480.905 157.124V152.473V150.258V150.036V149.815L480.684 149.15V147.378V145.163V144.056V143.834V140.955V135.417V131.209V127.443C480.389 127.148 480.389 126.779 480.684 126.336C480.684 125.745 480.61 125.228 480.463 124.785V123.899V122.792V121.463V119.469C480.463 118.435 480.389 117.476 480.241 116.59C480.241 115.556 480.168 114.596 480.02 113.71C479.872 113.119 479.799 112.529 479.799 111.938C479.799 111.347 479.725 110.757 479.577 110.166C479.43 109.723 479.356 108.985 479.356 107.951C479.061 106.474 478.913 105.367 478.913 104.629V104.186V103.521C478.618 102.487 478.397 101.528 478.249 100.642C478.249 99.608 478.249 98.6482 478.249 97.7622V97.5407C478.249 97.0977 478.249 96.6547 478.249 96.2117C478.249 95.621 478.175 95.1042 478.028 94.6612C478.028 94.3658 477.954 94.0705 477.807 93.7752C477.807 93.4798 477.807 93.1845 477.807 92.8892C477.659 92.5938 477.585 92.2985 477.585 92.0032C477.585 91.5602 477.511 91.191 477.364 90.8957C477.216 90.1573 477.143 89.419 477.143 88.6807C477.143 87.9423 477.069 87.0563 476.921 86.0227C476.921 85.7273 476.847 85.432 476.7 85.1367C476.7 84.8413 476.7 84.546 476.7 84.2507C476.7 83.0693 476.626 82.1833 476.478 81.5927C476.331 80.8543 476.183 80.1898 476.036 79.5992C476.036 78.8608 475.962 78.1225 475.814 77.3842C475.814 77.0888 475.741 76.7935 475.593 76.4982C475.593 76.0552 475.593 75.686 475.593 75.3907C475.593 74.9477 475.446 74.7262 475.15 74.7262L474.708 74.9477C473.97 74.9477 473.453 75.0215 473.158 75.1692L469.838 75.8337C468.51 76.129 467.182 76.4243 465.854 76.7197C464.526 77.015 463.124 77.3103 461.648 77.6057C460.468 77.7533 459.214 77.901 457.886 78.0487C456.705 78.1963 455.525 78.4178 454.344 78.7132L453.68 78.9347C452.795 78.9347 452.352 79.23 452.352 79.8207C452.204 80.559 452.057 81.3712 451.909 82.2572C451.909 83.1432 451.835 83.9553 451.688 84.6937C451.688 85.432 451.54 86.3918 451.245 87.5732C451.245 88.6068 451.171 89.419 451.024 90.0097C451.024 90.748 450.95 91.4125 450.803 92.0032C450.803 92.5938 450.729 93.2583 450.581 93.9967C450.286 95.4733 450.065 96.95 449.917 98.4267C449.917 99.9033 449.843 101.454 449.696 103.078V104.407C449.696 105.145 449.77 105.736 449.917 106.179V107.287V108.616H450.581H450.803C451.098 108.616 451.245 108.689 451.245 108.837C451.393 108.837 451.467 108.911 451.467 109.059C451.467 109.206 451.393 109.28 451.245 109.28V110.166C450.95 110.609 450.729 110.831 450.581 110.831C449.991 111.126 449.622 111.79 449.474 112.824V116.59V118.14V132.316V136.525V137.411V141.841C449.474 142.579 449.474 143.317 449.474 144.056C449.474 144.794 449.548 145.532 449.696 146.271V151.587V152.03V155.352C449.696 155.795 449.622 156.238 449.474 156.681C449.474 157.124 449.474 157.567 449.474 158.01C449.327 158.748 449.179 159.487 449.032 160.225C449.032 160.816 449.032 161.48 449.032 162.219C449.032 163.991 448.737 165.763 448.146 167.535V167.978V169.528C447.999 169.971 447.925 170.488 447.925 171.079C447.925 171.522 447.851 171.965 447.704 172.408C447.556 173.589 447.409 174.77 447.261 175.952C447.113 176.985 446.892 178.093 446.597 179.274L445.933 182.597C445.785 183.04 445.712 183.483 445.712 183.926C445.712 184.221 445.638 184.59 445.49 185.033C445.343 185.624 445.195 186.141 445.048 186.584C445.048 187.027 444.974 187.543 444.826 188.134C444.826 188.725 444.679 189.611 444.384 190.792C444.236 191.53 444.088 192.343 443.941 193.229C443.793 193.967 443.646 194.705 443.498 195.444C443.351 196.477 443.277 197.511 443.277 198.545C443.277 199.431 443.203 200.317 443.055 201.203V203.196V205.411C443.055 206.297 442.982 206.888 442.834 207.183V210.727C442.687 211.465 442.613 212.13 442.613 212.721C442.613 213.164 442.613 213.68 442.613 214.271V215.822V217.372C442.613 217.963 442.539 218.332 442.391 218.48V220.916C442.539 221.654 442.613 222.393 442.613 223.131C442.613 223.722 442.687 224.386 442.834 225.125C442.834 225.863 442.834 226.527 442.834 227.118C442.834 227.709 442.908 228.299 443.055 228.89V231.105C443.055 231.548 443.055 232.065 443.055 232.656C443.055 233.099 443.129 233.542 443.277 233.985C443.277 234.132 443.277 234.28 443.277 234.428C443.424 234.428 443.498 234.501 443.498 234.649C443.793 234.944 443.941 235.314 443.941 235.757C443.941 236.643 444.015 237.307 444.162 237.75C444.457 238.636 444.605 239.448 444.605 240.187C444.457 240.777 444.384 241.368 444.384 241.959C444.531 242.402 444.605 242.845 444.605 243.288V245.06C444.31 246.093 444.384 246.905 444.826 247.496V248.161C444.679 248.456 444.605 248.825 444.605 249.268C444.752 249.563 444.826 249.933 444.826 250.376C444.826 250.523 444.826 250.597 444.826 250.597C444.974 250.745 445.048 250.966 445.048 251.262C445.195 252 445.269 252.812 445.269 253.698C445.269 254.584 445.269 255.396 445.269 256.135V258.128H472.494V257.907V256.356V255.47V253.477C472.494 253.181 472.494 252.886 472.494 252.591C472.642 252.295 472.716 252 472.716 251.705C472.716 251.557 472.716 251.409 472.716 251.262C472.863 251.114 472.937 250.892 472.937 250.597C472.937 250.302 472.937 249.933 472.937 249.49C473.085 249.047 473.158 248.604 473.158 248.161C473.306 247.57 473.38 247.053 473.38 246.61C473.38 246.019 473.453 245.429 473.601 244.838C473.749 244.543 473.822 244.247 473.822 243.952C473.822 243.509 473.896 243.14 474.044 242.845C474.044 242.697 474.044 242.623 474.044 242.623C474.191 242.623 474.265 242.549 474.265 242.402C474.265 242.106 474.265 241.959 474.265 241.959C474.413 241.811 474.486 241.589 474.486 241.294C474.634 240.999 474.708 240.777 474.708 240.63C474.708 240.334 474.782 240.039 474.929 239.744C474.929 239.448 474.929 239.227 474.929 239.079C475.077 238.784 475.15 238.488 475.15 238.193C475.15 238.045 475.15 237.898 475.15 237.75C475.298 237.602 475.372 237.381 475.372 237.086C475.519 236.643 475.593 236.126 475.593 235.535C475.741 234.944 475.888 234.354 476.036 233.763C476.036 233.615 476.036 233.542 476.036 233.542C476.183 233.394 476.257 233.172 476.257 232.877C476.405 232.729 476.478 232.508 476.478 232.213C476.626 231.917 476.7 231.696 476.7 231.548C476.7 231.4 476.774 231.253 476.921 231.105C477.216 230.219 477.438 229.333 477.585 228.447C477.733 227.561 477.88 226.675 478.028 225.789C478.028 225.346 478.175 224.682 478.471 223.796C478.766 222.614 478.839 221.654 478.692 220.916C478.692 220.768 478.839 220.399 479.135 219.809C479.135 219.809 479.208 219.735 479.356 219.587C479.504 219.439 479.577 219.292 479.577 219.144C479.725 218.701 479.799 217.815 479.799 216.486C479.799 215.305 480.02 214.123 480.463 212.942C480.61 212.204 480.684 211.539 480.684 210.949C480.832 210.358 480.905 209.767 480.905 209.177C480.758 208.438 480.684 207.7 480.684 206.962C480.832 206.076 480.979 205.263 481.127 204.525C481.274 204.082 481.348 203.418 481.348 202.532L481.569 201.424C481.569 200.686 481.569 200.095 481.569 199.652C481.717 199.061 481.791 198.397 481.791 197.659V195.665V193.45ZM446.818 105.515C446.671 105.072 446.597 104.481 446.597 103.743C446.745 103.152 446.818 102.635 446.818 102.192C446.818 101.749 446.892 101.232 447.04 100.642C447.04 99.9033 447.113 99.3865 447.261 99.0912C447.261 98.3528 447.261 97.6883 447.261 97.0977C447.409 96.3593 447.556 95.621 447.704 94.8827L447.925 92.4462V92.2247C448.073 92.077 448.146 91.7817 448.146 91.3387L448.81 88.6807C448.81 88.09 448.737 87.647 448.589 87.3517L448.146 87.7947C447.704 88.533 447.187 89.1975 446.597 89.7882C446.154 90.3788 445.564 91.0433 444.826 91.7817C444.531 92.077 444.236 92.2985 443.941 92.4462C443.498 93.0368 442.76 93.849 441.727 94.8827C441.285 95.3257 440.842 95.7687 440.399 96.2117C439.957 96.507 439.588 96.8762 439.293 97.3192C438.85 97.7622 438.407 98.2052 437.965 98.6482C437.522 99.0912 437.079 99.4603 436.636 99.7557C435.899 100.494 435.161 101.232 434.423 101.971C433.685 102.709 432.947 103.447 432.21 104.186C431.472 104.924 430.808 105.662 430.217 106.401C429.627 107.139 428.963 107.877 428.225 108.616C427.783 109.059 427.34 109.575 426.897 110.166C426.455 110.609 426.012 111.126 425.569 111.717C425.274 112.012 424.979 112.307 424.684 112.603C424.389 112.898 424.094 113.193 423.798 113.489L422.47 114.818C421.88 115.408 421.364 115.925 420.921 116.368C420.478 116.811 420.036 117.328 419.593 117.919L416.937 120.577L416.273 121.241C415.978 121.389 415.683 121.61 415.387 121.906L413.395 123.899C412.953 124.49 412.436 125.007 411.846 125.45L410.96 126.336L409.854 127.443C409.559 127.738 409.264 128.034 408.968 128.329C408.821 128.477 408.6 128.698 408.304 128.994L405.648 131.652C405.501 131.947 405.058 132.316 404.32 132.759L404.099 132.981H404.32C404.763 133.276 405.279 133.571 405.87 133.867C406.755 134.457 407.345 134.826 407.64 134.974C408.231 135.417 409.116 135.934 410.296 136.525C413.1 138.297 416.789 139.33 421.364 139.626C421.954 139.626 422.397 139.699 422.692 139.847C423.282 139.995 423.725 139.699 424.02 138.961C424.61 138.075 425.053 137.484 425.348 137.189L425.569 136.746L426.233 136.082C426.233 135.786 426.381 135.639 426.676 135.639C426.971 135.343 427.192 135.048 427.34 134.753C427.488 134.457 427.709 134.162 428.004 133.867C428.299 133.424 428.889 132.611 429.775 131.43L431.103 130.101C431.398 129.806 431.619 129.51 431.767 129.215C431.914 128.92 432.136 128.624 432.431 128.329C432.874 127.886 433.169 127.517 433.316 127.222C433.611 126.926 433.833 126.631 433.98 126.336C434.275 125.893 434.571 125.523 434.866 125.228L435.087 125.007V124.564L435.53 124.121C435.677 123.53 435.972 123.013 436.415 122.57C436.563 122.275 436.71 122.127 436.858 122.127C437.005 121.979 437.153 121.758 437.301 121.463C438.186 120.872 438.85 120.06 439.293 119.026C440.03 118.14 440.768 117.328 441.506 116.59C442.391 115.851 443.277 115.113 444.162 114.375C444.752 113.784 445.121 113.341 445.269 113.046C445.416 112.898 445.49 112.824 445.49 112.824C445.49 112.676 445.564 112.529 445.712 112.381V112.16C445.712 112.16 445.859 112.012 446.154 111.717C446.892 110.683 447.113 109.871 446.818 109.28V108.837V108.173V106.401V105.515Z" fill="white"/>
<path d="M501.165 613.626C501.558 614.609 501.558 615.693 501.165 616.874C500.968 617.662 500.87 618.844 500.87 620.418V621.304C500.87 622.683 500.772 623.667 500.575 624.258C500.575 624.651 500.477 624.946 500.28 625.144C500.28 625.341 500.28 625.636 500.28 626.03V628.097C500.28 629.278 500.182 630.164 499.985 630.755C499.985 631.739 499.787 633.02 499.394 634.594L499.099 635.776V636.071V636.366V636.957C499.099 637.745 499.001 638.236 498.804 638.434C498.804 638.631 498.706 638.827 498.509 639.024C498.509 639.024 498.509 639.122 498.509 639.32V639.91C498.116 640.699 497.821 641.485 497.624 642.273C497.426 642.864 497.231 643.652 497.033 644.636C496.443 646.21 495.755 647.787 494.967 649.361C494.18 650.74 493.394 652.216 492.606 653.791C492.606 653.988 492.509 654.086 492.311 654.086C492.311 654.086 492.311 654.184 492.311 654.382C491.524 655.563 491.131 656.449 491.131 657.04C490.933 657.828 490.738 658.516 490.541 659.107C490.343 659.698 490.048 660.386 489.655 661.174C489.655 661.567 489.458 661.963 489.065 662.356C488.672 663.537 488.377 664.325 488.18 664.718L487.294 665.604C487.294 665.802 487.097 666.097 486.704 666.49C486.704 666.688 486.606 666.884 486.409 667.081C486.409 667.081 486.409 667.279 486.409 667.672C486.211 667.869 486.114 668.065 486.114 668.262C486.114 668.46 486.016 668.655 485.819 668.853C484.835 670.625 483.95 672.102 483.162 673.283L482.867 673.578C482.474 674.366 482.08 674.957 481.687 675.35C481.489 675.548 481.294 675.646 481.096 675.646C481.096 675.646 480.999 675.743 480.801 675.941L480.506 676.236V676.532C480.309 676.925 480.211 677.32 480.211 677.713C480.014 678.106 479.818 678.401 479.621 678.599C479.423 678.599 479.228 678.697 479.031 678.894L478.44 679.485C478.047 679.878 477.752 680.173 477.555 680.371C477.555 680.568 477.358 680.864 476.965 681.257C476.572 682.045 476.177 682.536 475.784 682.734C475.391 683.324 474.997 683.915 474.604 684.506C474.211 684.899 473.816 685.392 473.423 685.982C471.652 688.147 469.784 690.215 467.816 692.184C466.045 694.154 464.177 696.221 462.208 698.386C460.24 700.356 458.372 702.423 456.601 704.588C454.83 706.754 453.059 708.921 451.289 711.086C450.698 711.676 449.813 712.76 448.633 714.334C440.369 724.769 429.842 732.94 417.054 738.847H416.759C415.186 739.635 413.905 740.226 412.922 740.619C412.725 740.619 412.529 740.717 412.332 740.914C412.135 740.914 411.939 740.914 411.742 740.914C411.349 741.112 411.054 741.21 410.856 741.21C410.659 741.21 410.364 741.308 409.971 741.505C410.954 741.703 411.84 741.898 412.627 742.096C413.61 742.096 414.595 742.193 415.578 742.391C417.742 742.784 419.908 743.179 422.071 743.572C424.432 743.77 426.696 744.065 428.859 744.458C430.237 744.656 431.515 744.851 432.696 745.049C434.074 745.049 435.45 745.049 436.828 745.049C438.991 745.247 441.057 745.442 443.025 745.64C445.189 745.64 447.354 745.837 449.518 746.23C451.289 746.624 452.962 747.019 454.535 747.412C456.306 747.609 457.879 747.905 459.257 748.298C459.65 748.495 460.24 748.593 461.028 748.593C462.406 748.986 463.782 749.479 465.16 750.07C466.733 750.463 467.718 751.251 468.111 752.432C468.504 753.023 468.504 753.711 468.111 754.5C467.914 755.288 467.618 755.976 467.226 756.567V757.158C466.438 758.537 465.848 759.913 465.455 761.292V762.769L464.569 765.427V765.722C463.979 766.706 463.979 767.397 464.569 767.79L465.16 768.38L464.569 768.676C464.177 768.873 463.684 769.069 463.094 769.266C462.701 769.464 462.306 769.562 461.913 769.562C461.52 769.562 461.126 769.464 460.733 769.266L459.847 768.38C459.847 768.183 459.75 768.085 459.552 768.085C459.552 767.888 459.06 767.592 458.077 767.199H457.782C456.994 767.001 456.208 766.806 455.421 766.608C454.83 766.608 454.043 766.411 453.06 766.018C452.076 765.82 450.994 765.625 449.813 765.427C448.633 765.23 447.452 764.934 446.272 764.541C444.303 763.95 442.435 763.557 440.664 763.36C438.893 763.36 436.925 763.262 434.762 763.064C433.779 763.064 432.893 763.064 432.106 763.064C431.318 763.064 430.433 762.967 429.449 762.769C428.466 762.769 427.384 762.769 426.203 762.769C425.023 762.769 423.94 762.671 422.957 762.474C420.989 762.474 419.022 762.474 417.054 762.474C415.283 762.671 413.415 762.769 411.447 762.769C409.283 762.967 407.02 763.064 404.659 763.064C402.298 763.262 400.035 763.262 397.871 763.064C396.888 763.064 395.903 762.967 394.92 762.769C393.937 762.769 392.952 762.769 391.968 762.769H390.198C388.034 762.769 386.558 762.671 385.771 762.474C384.788 762.081 384.197 761.588 384 760.997C384 760.406 384.098 759.913 384.295 759.52C384.295 758.93 384.295 758.339 384.295 757.748C384.492 757.158 384.59 756.567 384.59 755.976V753.909C384.788 752.925 384.885 752.039 384.885 751.251C385.083 750.267 385.278 749.282 385.476 748.298L386.361 742.096V741.505C386.361 741.112 386.361 740.619 386.361 740.028C386.558 739.438 386.853 738.945 387.246 738.552C387.837 738.354 388.919 738.454 390.493 738.847H391.673C392.656 739.045 394.132 739.142 396.1 739.142C397.281 739.34 398.461 739.438 399.642 739.438C401.02 739.438 402.298 739.438 403.478 739.438C405.642 739.24 407.61 738.847 409.381 738.256C411.152 737.666 412.825 736.977 414.398 736.189C415.971 735.401 417.547 734.615 419.12 733.826C420.693 733.038 422.366 732.054 424.137 730.873L426.793 729.101C428.957 728.117 431.122 726.64 433.286 724.671C438.401 720.143 443.615 714.827 448.928 708.723C449.518 707.935 450.108 707.149 450.698 706.36C451.289 705.572 451.879 704.786 452.469 703.998L455.125 700.454C456.109 699.272 457.191 698.189 458.372 697.205C458.962 696.614 459.552 696.121 460.143 695.728C460.733 695.138 461.225 694.547 461.618 693.956C463.782 691.003 466.34 688.05 469.291 685.096C470.472 683.717 471.652 682.438 472.833 681.257C474.013 679.878 475.194 678.402 476.374 676.827C477.162 675.843 477.85 674.76 478.44 673.578C479.031 672.397 479.719 671.216 480.506 670.034C481.294 668.853 481.784 667.967 481.982 667.376C483.753 664.621 485.523 661.272 487.294 657.335C487.687 656.351 487.982 655.563 488.18 654.972C488.572 654.382 488.967 653.693 489.36 652.905C489.753 651.921 490.148 651.133 490.541 650.542C490.933 649.754 491.328 648.868 491.721 647.884C493.492 643.552 494.77 639.713 495.558 636.366C496.345 633.215 496.936 629.869 497.328 626.325C497.919 622.781 498.016 619.237 497.624 615.693C497.426 614.512 497.328 613.33 497.328 612.149C497.328 610.77 497.328 609.491 497.328 608.31C497.721 606.735 497.721 605.159 497.328 603.584V597.382C497.328 596.989 497.231 596.594 497.033 596.201C497.033 595.61 497.033 595.02 497.033 594.429C497.033 594.036 496.936 593.641 496.738 593.248C496.738 592.657 496.738 592.164 496.738 591.771C496.738 587.636 496.345 583.995 495.558 580.844C495.165 580.056 494.967 579.465 494.967 579.072C494.77 578.679 494.575 578.186 494.377 577.595C494.377 577.004 494.279 576.512 494.082 576.118C493.885 575.725 493.787 575.33 493.787 574.937C493.787 574.544 493.689 574.149 493.492 573.756C493.492 572.968 493.294 571.984 492.902 570.802C491.721 567.258 490.343 563.714 488.77 560.17C487.392 556.626 485.916 553.18 484.343 549.834C483.36 548.259 482.375 546.683 481.392 545.108C480.408 543.534 479.326 541.957 478.145 540.383C475.587 537.036 473.03 534.476 470.472 532.704C467.323 530.539 464.077 528.57 460.733 526.798C457.389 524.828 453.747 523.451 449.813 522.663C449.025 522.663 448.435 522.565 448.042 522.368C446.469 521.975 445.288 521.777 444.501 521.777C443.518 521.58 442.533 521.58 441.55 521.777C440.566 521.777 439.581 521.875 438.598 522.072C437.025 522.466 435.647 522.663 434.467 522.663C433.286 522.86 432.106 523.056 430.925 523.254C429.745 523.254 428.662 523.451 427.679 523.844C419.808 526.009 413.61 529.554 409.086 534.476C403.183 540.581 399.544 546.782 398.166 553.082C397.576 555.642 396.986 558.201 396.395 560.761C396.002 563.321 395.51 565.782 394.92 568.144C394.722 569.326 394.527 570.507 394.329 571.688C394.329 572.87 394.132 574.051 393.739 575.232C393.542 575.625 393.444 576.118 393.444 576.709C393.444 577.102 393.346 577.497 393.149 577.89C393.149 577.89 393.051 578.088 392.854 578.481C392.854 578.679 392.756 578.874 392.559 579.072C392.559 579.269 392.559 579.465 392.559 579.662C392.756 580.055 393.149 580.351 393.739 580.548C394.527 580.746 395.117 580.942 395.51 581.139C395.707 581.139 395.903 581.237 396.1 581.434C397.871 582.025 399.544 582.32 401.117 582.32H401.708C402.495 582.32 403.085 582.418 403.478 582.616H403.773H404.659H404.954V582.32V582.025C405.151 581.434 405.249 580.844 405.249 580.253C405.446 579.465 405.642 578.776 405.839 578.186C406.232 577.004 406.527 575.823 406.725 574.642C407.118 573.263 407.512 571.984 407.905 570.802C408.103 570.212 408.298 569.621 408.495 569.03C408.693 568.242 408.888 567.456 409.086 566.668C410.069 564.108 410.856 561.844 411.447 559.875C411.644 558.891 412.135 557.61 412.922 556.036L413.217 555.74C413.415 555.347 413.513 555.052 413.513 554.854C413.513 554.657 413.61 554.362 413.808 553.968C413.808 553.18 414.103 552.294 414.693 551.31C415.086 550.917 415.481 550.522 415.874 550.129C416.464 549.736 416.956 549.341 417.349 548.948C417.742 548.75 418.235 548.357 418.825 547.766C419.022 547.569 419.218 547.471 419.415 547.471C419.612 547.273 419.808 547.078 420.005 546.88C420.398 546.29 420.891 545.797 421.481 545.404C422.071 544.813 422.564 544.32 422.957 543.927C424.335 542.943 425.613 542.253 426.793 541.86C428.171 541.467 429.547 541.071 430.925 540.678C431.318 540.481 431.613 540.383 431.81 540.383C432.008 540.383 432.303 540.285 432.696 540.088C436.63 538.906 440.074 538.808 443.025 539.792C443.813 540.185 444.796 540.776 445.976 541.564C446.369 541.762 446.567 541.958 446.567 542.155C446.764 542.155 447.059 542.253 447.452 542.45C448.042 542.843 448.928 543.239 450.108 543.632C450.501 543.829 450.796 544.025 450.994 544.222C451.386 544.222 451.781 544.32 452.174 544.518C453.747 545.108 455.323 545.897 456.896 546.88C457.289 546.88 457.584 546.978 457.782 547.176C459.552 547.766 460.831 548.652 461.618 549.834C462.208 550.622 462.701 551.901 463.094 553.673V553.968C463.487 555.543 463.684 556.529 463.684 556.922C463.881 557.512 463.979 558.103 463.979 558.694C464.177 559.087 464.372 559.58 464.569 560.17C464.569 560.761 464.667 561.154 464.865 561.352C465.062 561.942 465.16 562.533 465.16 563.124C465.16 563.517 465.257 564.01 465.455 564.6C465.455 564.993 465.455 565.289 465.455 565.486C465.652 565.684 465.553 565.979 465.16 566.372C465.16 566.57 465.062 566.765 464.865 566.963H464.569C464.569 567.16 464.667 567.356 464.865 567.554V568.44C464.865 569.228 464.472 570.212 463.684 571.393C463.684 571.393 463.487 571.786 463.094 572.574C462.701 573.558 462.208 574.544 461.618 575.528C461.225 576.511 460.831 577.397 460.438 578.186C460.24 578.579 460.045 578.974 459.847 579.367C459.65 579.76 459.355 580.155 458.962 580.548C458.372 581.139 457.979 581.632 457.782 582.025C457.389 582.813 456.896 583.599 456.306 584.388C455.716 585.176 455.028 585.962 454.24 586.75C453.847 587.143 453.552 587.539 453.355 587.932C453.157 588.129 452.862 588.425 452.469 588.818C452.076 589.211 451.682 589.506 451.289 589.704C451.289 589.704 451.091 589.801 450.698 589.999C450.501 590.196 450.403 590.392 450.403 590.59V591.18C450.01 592.164 449.616 592.855 449.223 593.248L448.633 593.543C448.042 594.134 447.452 595.02 446.862 596.201V596.792C446.664 597.185 446.567 597.48 446.567 597.678C446.567 597.875 446.369 598.171 445.976 598.564C445.779 598.761 445.386 598.859 444.796 598.859H444.501C444.501 599.056 444.403 599.252 444.206 599.45C444.206 599.647 444.206 599.843 444.206 600.04C444.206 600.238 444.108 600.434 443.911 600.631L443.025 602.403L442.14 603.289C441.352 604.668 440.566 605.554 439.779 605.947C439.386 606.34 438.991 606.635 438.598 606.833C438.401 606.833 438.106 606.931 437.713 607.128C436.73 607.521 436.04 607.917 435.647 608.31C435.254 608.703 434.859 609.293 434.467 610.082C434.074 610.87 433.679 611.46 433.286 611.854C432.303 613.035 431.318 614.216 430.335 615.398C429.352 616.382 428.367 617.367 427.384 618.351L425.318 620.418C425.12 620.812 424.925 621.107 424.727 621.304C424.53 621.304 424.235 621.502 423.842 621.895C423.054 622.288 422.564 622.683 422.366 623.076C421.974 623.47 421.579 623.962 421.186 624.553C420.793 624.946 420.398 625.341 420.005 625.734C420.005 625.932 419.808 626.227 419.415 626.62C418.432 627.999 417.447 629.376 416.464 630.755C415.481 632.134 414.496 633.511 413.513 634.89C412.922 635.48 412.627 635.973 412.627 636.366C412.234 637.154 411.939 637.646 411.742 637.843C411.544 638.041 411.447 638.236 411.447 638.434C411.249 638.434 411.152 638.531 411.152 638.729V639.024C410.954 639.222 410.856 639.417 410.856 639.615C409.873 644.143 408.103 647.982 405.544 651.133C405.151 651.526 404.856 652.019 404.659 652.61C404.659 653.2 404.461 653.889 404.069 654.677L403.183 657.335C402.79 658.123 402.396 658.714 402.003 659.107C401.805 659.698 401.61 660.288 401.412 660.879C401.215 661.272 400.92 661.765 400.527 662.356C400.33 662.749 400.232 663.144 400.232 663.537C400.232 663.734 400.134 664.03 399.937 664.423C399.937 664.816 399.739 665.802 399.347 667.376C398.954 668.36 398.659 669.541 398.461 670.92C398.264 672.102 398.068 673.283 397.871 674.464C397.871 675.055 397.773 675.646 397.576 676.236C397.576 676.827 397.576 677.32 397.576 677.713L396.986 680.371C396.788 681.945 396.593 683.522 396.395 685.096C396.198 686.475 396.002 687.952 395.805 689.526C395.608 690.51 395.412 691.496 395.215 692.48C395.215 693.268 395.215 694.154 395.215 695.138C395.412 695.926 395.412 696.712 395.215 697.5C395.017 698.091 394.822 698.78 394.625 699.568C394.625 699.961 394.527 700.356 394.329 700.749C394.329 701.142 394.232 701.635 394.034 702.226C394.034 702.619 394.034 703.112 394.034 703.702C393.837 704.096 393.739 704.49 393.739 704.884C393.739 705.081 393.641 705.377 393.444 705.77C393.051 707.739 392.756 709.116 392.559 709.904C392.361 710.297 392.264 710.593 392.264 710.79C392.264 710.988 392.166 711.184 391.968 711.381C391.771 711.774 391.673 712.267 391.673 712.858C391.673 713.251 391.576 713.646 391.378 714.039C391.378 715.023 391.28 715.811 391.083 716.402C391.083 716.795 390.886 717.385 390.493 718.174C390.1 719.355 389.903 720.241 389.903 720.832V722.899C389.903 724.08 389.805 725.064 389.607 725.852V727.92V730.873C389.214 732.252 388.82 733.038 388.427 733.236V733.531V733.826H388.132C388.132 734.024 387.934 734.122 387.542 734.122C387.542 733.924 387.444 733.826 387.246 733.826C387.049 733.826 386.854 733.729 386.656 733.531C386.459 733.531 386.361 733.433 386.361 733.236C385.378 732.448 384.983 731.168 385.181 729.396C385.181 729.003 385.181 728.708 385.181 728.51C385.378 728.313 385.476 728.017 385.476 727.624C385.869 726.05 386.066 724.966 386.066 724.376V722.308C385.869 721.52 385.771 720.439 385.771 719.06C386.361 716.697 386.853 714.63 387.246 712.858C387.837 710.888 388.525 709.116 389.312 707.542C389.705 706.163 390.1 704.49 390.493 702.521C390.493 702.128 390.493 701.733 390.493 701.34C390.69 700.749 390.788 700.158 390.788 699.568C390.985 699.175 391.083 698.779 391.083 698.386C391.083 697.993 391.181 697.598 391.378 697.205C391.378 695.433 391.28 694.154 391.083 693.366V691.889C391.083 690.905 391.083 690.117 391.083 689.526C391.28 688.936 391.576 688.247 391.968 687.459C392.166 686.868 392.264 685.982 392.264 684.801V683.324C392.656 682.34 393.149 681.848 393.739 681.848C393.542 681.257 393.444 680.764 393.444 680.371C393.641 679.978 393.739 679.583 393.739 679.19C393.937 678.797 394.034 678.206 394.034 677.418C394.232 677.22 394.329 676.729 394.329 675.941C394.329 673.971 394.427 672.495 394.625 671.511C394.625 670.92 394.822 670.428 395.215 670.034C395.608 669.246 395.805 668.853 395.805 668.853V667.967C395.608 667.574 395.51 667.081 395.51 666.49C395.51 665.702 395.707 664.718 396.1 663.537C396.493 662.749 396.69 661.962 396.69 661.174C397.083 660.19 397.674 659.107 398.461 657.926C398.854 657.137 399.051 656.646 399.051 656.449C399.444 655.858 399.739 655.268 399.937 654.677C400.134 654.086 400.429 653.496 400.822 652.905C401.02 651.724 401.412 650.64 402.003 649.656C402.396 648.868 402.986 647.884 403.773 646.703C404.561 645.719 405.052 644.636 405.249 643.454C405.642 642.864 405.937 642.273 406.134 641.682C406.332 640.894 406.627 640.206 407.02 639.615C407.413 638.434 407.708 637.646 407.905 637.252C408.298 636.269 408.693 635.48 409.086 634.89C409.479 634.299 409.873 633.611 410.266 632.822L411.152 631.936C411.544 631.543 411.742 631.248 411.742 631.05C411.939 630.657 412.135 630.262 412.332 629.869C412.725 629.278 413.217 628.688 413.808 628.097C414.398 627.309 414.89 626.62 415.283 626.03C416.266 625.046 417.152 624.16 417.939 623.372C418.727 622.388 419.513 621.402 420.3 620.418C420.498 620.025 420.989 619.63 421.776 619.237C421.776 619.039 421.776 618.942 421.776 618.942C421.973 618.942 422.071 618.844 422.071 618.646C422.662 618.449 423.054 618.056 423.252 617.465C423.449 617.267 423.547 617.17 423.547 617.17C423.547 616.972 423.645 616.776 423.842 616.579C424.432 615.791 425.12 615.102 425.908 614.512C426.301 614.118 426.596 613.921 426.793 613.921C426.991 613.723 427.186 613.428 427.384 613.035L427.974 612.149C428.761 611.361 429.449 610.672 430.04 610.082C430.63 609.293 431.318 608.507 432.106 607.719L433.286 606.833L436.828 603.289C437.418 602.698 437.91 602.305 438.303 602.108C438.696 601.517 439.189 600.926 439.779 600.336C440.369 599.745 440.862 599.154 441.254 598.564V598.268C441.452 598.071 441.55 597.973 441.55 597.973C441.55 597.776 441.647 597.58 441.845 597.382C441.845 597.382 442.042 597.185 442.435 596.792C442.632 596.792 442.73 596.694 442.73 596.496C442.927 596.299 443.025 596.103 443.025 595.906C443.223 595.906 443.32 595.708 443.32 595.315C443.713 594.331 444.206 593.445 444.796 592.657C445.584 591.673 446.174 590.983 446.567 590.59C446.764 590.59 446.862 590.492 446.862 590.294C447.059 590.294 447.255 590.196 447.452 589.999V589.704L447.747 589.408V588.818C447.945 588.62 448.042 588.425 448.042 588.227C448.042 588.03 448.14 587.834 448.337 587.636C449.518 585.864 450.796 584.585 452.174 583.797C452.567 583.6 452.862 583.304 453.06 582.911V582.616C453.257 582.025 453.747 581.139 454.535 579.958C454.732 579.76 454.83 579.564 454.83 579.367C455.028 579.169 455.223 578.974 455.421 578.776C455.813 578.186 456.208 577.595 456.601 577.004C457.191 576.414 457.584 575.625 457.782 574.642L458.077 574.346C458.077 573.756 458.372 573.165 458.962 572.574C459.355 572.181 459.65 571.786 459.847 571.393C460.045 571 460.24 570.605 460.438 570.212C460.438 570.014 460.535 569.818 460.733 569.621C461.126 568.833 461.323 568.242 461.323 567.849C461.323 567.061 461.225 566.47 461.028 566.077V565.191C460.831 564.403 460.733 563.714 460.733 563.124C460.733 562.335 460.635 561.549 460.438 560.761C460.438 559.382 460.34 558.398 460.143 557.808C460.143 556.429 459.945 555.445 459.552 554.854C459.552 554.854 459.455 554.756 459.257 554.559C459.257 554.361 459.159 554.264 458.962 554.264C458.962 554.066 458.962 553.871 458.962 553.673C458.962 553.673 458.962 553.378 458.962 552.787V552.196C458.569 551.606 457.979 551.015 457.191 550.424C456.994 550.424 456.798 550.326 456.601 550.129C455.618 549.736 454.732 549.341 453.945 548.948C453.355 548.555 452.567 548.159 451.584 547.766C450.796 547.373 450.306 547.176 450.108 547.176L448.633 546.29C447.845 545.897 447.059 545.601 446.272 545.404C445.484 545.01 444.698 544.616 443.911 544.222C442.533 543.632 441.452 543.238 440.664 543.041C439.877 542.843 438.893 542.843 437.713 543.041L436.237 543.336C434.269 543.729 432.303 544.222 430.335 544.813C428.564 545.206 426.891 546.092 425.318 547.471C423.154 549.44 421.284 551.408 419.71 553.378C418.137 555.15 416.857 557.02 415.874 558.989C415.086 560.368 414.398 562.238 413.808 564.6C413.808 564.993 413.71 565.289 413.513 565.486C413.513 565.486 413.513 565.684 413.513 566.077C413.12 567.652 412.725 569.128 412.332 570.507C411.939 571.688 411.544 573.067 411.152 574.642C410.954 575.035 410.659 575.823 410.266 577.004C409.479 579.169 408.988 581.139 408.791 582.911V583.502C409.183 584.683 409.086 585.569 408.495 586.16C407.905 586.75 406.922 586.848 405.544 586.455H405.249C404.266 586.455 403.576 586.357 403.183 586.16C401.02 586.16 398.756 585.864 396.395 585.274C396.002 585.076 395.707 584.978 395.51 584.978C395.313 584.978 395.017 584.88 394.625 584.683C393.444 584.29 392.756 584.092 392.559 584.092C392.361 583.895 392.166 583.797 391.968 583.797C391.771 583.995 391.673 584.29 391.673 584.683C391.673 584.88 391.576 585.076 391.378 585.274V585.569L391.083 586.75L390.493 585.864C390.295 585.667 390.198 585.471 390.198 585.274C389.607 585.076 389.312 584.585 389.312 583.797C389.115 583.404 389.017 583.206 389.017 583.206C389.215 583.009 389.312 582.813 389.312 582.616C389.312 582.418 389.41 582.222 389.607 582.025C389.607 581.632 389.51 581.237 389.312 580.844C389.115 580.451 388.919 580.055 388.722 579.662C388.525 579.662 388.427 579.564 388.427 579.367L387.837 578.481H388.722H389.607C389.607 578.284 389.51 578.186 389.312 578.186C389.312 577.988 389.312 577.792 389.312 577.595C389.312 576.216 389.51 574.544 389.903 572.574C390.493 571.195 390.788 569.719 390.788 568.144L391.673 563.714C391.871 562.926 392.066 562.238 392.264 561.647C392.461 560.859 392.656 560.073 392.854 559.284C393.247 558.301 393.444 557.415 393.444 556.626C393.641 555.643 393.937 554.657 394.329 553.673C394.527 553.28 394.625 552.885 394.625 552.492C394.625 552.098 394.722 551.704 394.92 551.31C395.313 549.932 395.608 548.652 395.805 547.471C396.198 546.29 396.69 545.108 397.281 543.927C397.871 542.746 398.559 541.564 399.347 540.383C400.134 539.202 401.02 538.02 402.003 536.839L402.888 535.658C403.871 534.279 404.856 533.098 405.839 532.114C407.02 530.932 408.298 529.849 409.676 528.865C411.249 527.881 412.627 526.995 413.808 526.207C414.988 525.223 416.266 524.337 417.644 523.549L418.235 523.254C419.808 522.465 420.989 521.975 421.776 521.777C422.366 521.777 422.859 521.679 423.252 521.482C424.039 521.482 424.63 521.384 425.023 521.186C425.023 521.186 425.12 521.088 425.318 520.891C425.515 520.891 425.613 520.891 425.613 520.891C425.81 520.693 426.105 520.596 426.498 520.596H427.384H427.974C428.171 520.596 428.269 520.596 428.269 520.596C428.466 520.398 428.662 520.3 428.859 520.3C429.057 520.103 429.352 520.005 429.745 520.005C430.532 519.612 431.318 519.414 432.106 519.414C432.696 519.414 433.286 519.414 433.876 519.414C434.664 519.217 435.352 519.119 435.942 519.119C436.925 518.921 437.811 518.824 438.598 518.824C439.386 518.626 440.271 518.528 441.254 518.528C444.403 518.528 448.042 519.119 452.174 520.3C452.567 520.498 452.862 520.693 453.06 520.891C453.452 520.891 453.847 520.989 454.24 521.186C456.994 521.777 459.552 522.663 461.913 523.844C462.701 524.237 463.389 524.73 463.979 525.321C464.767 525.714 465.455 526.109 466.045 526.502C466.635 526.895 467.128 527.29 467.521 527.684C468.111 528.077 468.701 528.472 469.291 528.865L469.882 529.16C471.062 529.949 472.243 530.735 473.423 531.523C474.801 532.311 475.982 533.197 476.965 534.181C477.555 534.772 478.047 535.362 478.44 535.953C479.031 536.544 479.523 537.036 479.916 537.43L480.211 537.725C480.408 537.922 480.506 538.118 480.506 538.316C480.506 538.316 480.604 538.413 480.801 538.611C481.982 539.595 482.769 540.678 483.162 541.86C483.162 542.057 483.162 542.155 483.162 542.155C483.36 542.155 483.457 542.253 483.457 542.45V542.746C483.457 543.336 483.555 543.73 483.753 543.927L484.343 544.518C484.933 545.108 485.426 545.699 485.819 546.29L486.704 548.062C486.901 548.259 486.999 548.455 486.999 548.652C487.196 548.85 487.392 549.046 487.589 549.243C487.982 549.834 488.377 550.72 488.77 551.901C489.163 552.689 489.458 553.18 489.655 553.378C489.655 553.575 489.853 554.066 490.245 554.854C491.033 555.642 491.426 556.331 491.426 556.922C491.623 557.119 491.721 557.512 491.721 558.103C491.328 558.496 491.328 558.792 491.721 558.989C491.721 559.382 491.918 559.973 492.311 560.761L492.606 561.647C493.394 563.222 493.885 564.502 494.082 565.486C494.279 565.879 494.377 566.275 494.377 566.668C494.575 567.061 494.77 567.456 494.967 567.849L495.853 569.621C495.853 570.014 495.853 570.309 495.853 570.507C496.05 570.507 496.148 570.705 496.148 571.098C496.345 571.688 496.541 572.279 496.738 572.87C496.936 573.263 497.131 573.756 497.328 574.346C497.328 575.33 497.426 576.021 497.624 576.414C497.624 576.807 497.624 577.3 497.624 577.89C497.821 578.283 497.919 578.679 497.919 579.072C498.902 582.616 499.394 585.962 499.394 589.113C499.592 589.704 499.689 590.392 499.689 591.18C499.689 591.771 499.887 592.46 500.28 593.248C500.673 594.232 500.772 595.02 500.575 595.61C500.575 596.004 500.477 596.594 500.28 597.382V597.973C500.28 599.352 500.377 600.336 500.575 600.926V602.403C500.772 602.994 500.87 603.978 500.87 605.356V607.128V609.196V612.149C500.87 612.74 500.968 613.232 501.165 613.626ZM389.903 742.096H389.607C389.41 742.489 389.312 743.475 389.312 745.049V746.526C389.115 746.919 389.017 747.412 389.017 748.002C389.017 748.396 388.919 748.79 388.722 749.184C388.525 750.365 388.329 751.546 388.132 752.728C388.132 753.909 388.132 755.09 388.132 756.272L387.837 756.862V759.52C388.034 759.913 388.427 760.209 389.017 760.406H394.92H398.756H400.822C403.576 760.604 406.134 760.702 408.495 760.702C410.856 760.702 413.315 760.504 415.874 760.111C418.628 759.914 421.284 759.914 423.842 760.111C426.4 760.111 429.057 760.209 431.81 760.406H434.467C437.811 760.604 441.057 760.997 444.206 761.588C447.55 762.178 451.091 762.966 454.83 763.95C455.223 763.95 455.813 764.148 456.601 764.541C456.994 764.739 457.486 764.934 458.077 765.132C458.864 765.329 459.455 765.329 459.847 765.132L460.143 765.427L463.979 752.137C463.586 751.939 463.094 751.842 462.504 751.842C462.111 751.842 461.716 751.744 461.323 751.546C460.34 751.153 459.455 750.858 458.667 750.66C457.879 750.463 456.994 750.267 456.011 750.07C454.437 749.677 452.962 749.479 451.584 749.479C450.206 749.281 448.73 749.086 447.157 748.888H446.567L439.484 748.002C437.516 747.805 435.549 747.707 433.581 747.707C431.81 747.51 429.842 747.214 427.679 746.821C426.105 746.428 424.432 746.23 422.661 746.23C420.891 746.033 419.218 745.738 417.644 745.344C413.71 744.754 409.578 744.163 405.249 743.572C401.117 742.982 396.986 742.489 392.854 742.096L389.903 741.8V742.096Z" fill="white"/>
</g>
<defs>
<clipPath id="clip0_173_451">
<rect width="886" height="886" fill="white"/>
</clipPath>
</defs>
</svg>
