<svg width="878" height="886" viewBox="0 0 878 886" fill="none" xmlns="http://www.w3.org/2000/svg">
<g clip-path="url(#clip0_140_203)">
<mask id="mask0_140_203" style="mask-type:luminance" maskUnits="userSpaceOnUse" x="0" y="0" width="878" height="886">
<path d="M878 0H0V886H878V0Z" fill="white"/>
</mask>
<g mask="url(#mask0_140_203)">
<path d="M878 0H-3.68945V313.792H878V0Z" fill="#7036CC"/>
<path d="M878 313.792H-3.68945V886H878V313.792Z" fill="#3D1F6D"/>
<path d="M474.784 192.853V193.517V194.403C474.784 194.698 474.784 194.994 474.784 195.289C474.931 195.584 474.931 195.88 474.784 196.175V198.612C474.636 199.055 474.562 199.719 474.562 200.605V202.156V204.149C474.267 205.33 474.046 206.659 473.898 208.136C473.898 209.465 473.751 210.868 473.456 212.345C473.013 214.412 472.57 216.332 472.128 218.104C471.832 219.728 471.537 221.352 471.242 222.977C471.095 223.715 470.947 224.379 470.799 224.97C470.652 225.561 470.504 226.225 470.357 226.964C470.062 227.407 469.84 227.923 469.693 228.514C469.693 229.105 469.619 229.695 469.471 230.286C469.029 231.91 468.586 233.609 468.143 235.381C467.848 237.005 467.553 238.703 467.258 240.475C466.963 241.656 466.741 242.838 466.594 244.019C466.594 245.2 466.446 246.382 466.151 247.563C466.151 248.449 466.077 249.187 465.93 249.778C465.782 250.516 465.709 251.255 465.709 251.993C465.709 252.731 465.635 253.544 465.487 254.43C465.487 254.577 465.487 254.725 465.487 254.873C465.635 255.02 465.709 255.168 465.709 255.316C465.856 256.349 465.709 257.088 465.266 257.531C465.118 257.826 464.602 257.974 463.716 257.974H463.495H461.503H460.175H458.626C458.33 257.974 458.035 257.9 457.74 257.752C457.593 257.752 457.371 257.752 457.076 257.752H452.428H450.657H449.329H446.009C445.566 257.752 445.123 257.752 444.681 257.752C444.238 257.9 443.795 257.974 443.353 257.974H439.59C437.967 257.974 436.786 257.9 436.048 257.752H434.942C434.499 257.604 434.056 257.531 433.614 257.531C433.171 257.531 432.802 257.457 432.507 257.309C432.212 257.309 431.917 257.161 431.621 256.866C431.621 256.866 431.548 256.792 431.4 256.645C431.253 256.645 431.179 256.497 431.179 256.202V255.98C431.474 255.685 431.621 255.537 431.621 255.537H433.835C433.245 254.799 433.097 253.839 433.392 252.658C433.392 252.362 433.318 252.141 433.171 251.993C433.023 251.845 432.95 251.55 432.95 251.107C432.802 250.664 432.728 250 432.728 249.114V247.563C432.728 247.268 432.654 247.12 432.507 247.12C432.507 246.972 432.507 246.751 432.507 246.456C432.359 246.16 432.286 245.791 432.286 245.348V241.804C432.286 241.509 432.359 241.361 432.507 241.361C432.212 240.77 432.138 240.401 432.286 240.254C432.433 239.958 432.433 239.737 432.286 239.589C431.843 239.441 431.621 238.998 431.621 238.26C431.621 237.965 431.695 237.743 431.843 237.596V237.153C431.843 236.857 431.769 236.562 431.621 236.267C431.621 235.824 431.621 235.454 431.621 235.159C431.474 234.864 431.4 234.642 431.4 234.495C431.4 234.199 431.326 233.904 431.179 233.609C431.031 233.166 430.884 232.723 430.736 232.28C430.736 231.689 430.662 231.172 430.515 230.729C430.367 229.843 430.293 228.957 430.293 228.071C430.293 227.185 430.293 226.299 430.293 225.413C430.146 224.97 430.072 224.158 430.072 222.977V220.983V220.097C430.072 219.802 429.998 219.654 429.851 219.654C429.851 219.506 429.851 219.285 429.851 218.99C429.851 218.694 429.851 218.473 429.851 218.325C429.998 218.03 430.072 217.734 430.072 217.439V215.889V214.338V212.345V210.573C430.22 209.982 430.293 209.096 430.293 207.915V206.143C430.441 205.552 430.441 204.887 430.293 204.149C429.998 202.968 429.998 201.786 430.293 200.605C430.293 200.31 430.293 200.088 430.293 199.941C430.441 199.793 430.515 199.571 430.515 199.276V198.169C430.662 197.283 430.736 196.397 430.736 195.511C430.736 194.625 430.884 193.739 431.179 192.853C431.179 191.671 431.326 190.342 431.621 188.866C431.917 187.684 432.064 186.798 432.064 186.208C432.212 185.912 432.286 185.469 432.286 184.879C432.286 184.14 432.359 183.55 432.507 183.107C432.802 182.221 432.95 181.335 432.95 180.449C433.097 179.563 433.318 178.677 433.614 177.791L434.278 175.133C434.278 174.985 434.278 174.911 434.278 174.911C434.425 174.763 434.499 174.542 434.499 174.247C434.794 173.361 434.942 172.696 434.942 172.253C434.942 171.515 434.942 170.776 434.942 170.038C435.089 169.152 435.237 168.34 435.384 167.602L436.048 164.279C436.048 163.984 436.048 163.688 436.048 163.393C436.196 162.95 436.27 162.581 436.27 162.286C436.417 161.99 436.491 161.473 436.491 160.735V159.849V159.406V159.185V158.742C436.491 158.299 436.565 157.929 436.712 157.634C436.712 157.339 436.712 157.043 436.712 156.748C436.86 156.305 436.934 155.936 436.934 155.641C437.081 155.05 437.155 154.459 437.155 153.869C437.155 153.278 437.155 152.687 437.155 152.097C437.303 151.654 437.303 151.211 437.155 150.768C437.155 150.325 437.155 149.808 437.155 149.217V146.781V144.123V141.686C437.155 140.8 437.081 140.136 436.934 139.693V138.807V138.585L437.155 136.592C437.155 135.853 437.155 135.115 437.155 134.377C437.155 133.638 437.229 132.9 437.376 132.162C437.376 131.128 437.303 130.39 437.155 129.947C437.008 128.913 436.934 127.953 436.934 127.067C436.934 126.181 436.934 125.369 436.934 124.631C436.934 124.335 436.934 124.114 436.934 123.966C437.081 123.818 437.155 123.597 437.155 123.302C437.45 122.12 437.376 121.087 436.934 120.201C436.786 120.053 436.712 119.905 436.712 119.758C436.86 119.462 436.934 119.241 436.934 119.093C437.229 118.502 437.376 117.616 437.376 116.435V114.442V112.891L436.048 114.22C435.458 114.958 434.868 115.623 434.278 116.214C433.835 116.657 433.245 117.026 432.507 117.321L432.286 117.986C431.99 118.281 431.769 118.576 431.621 118.872C431.621 119.019 431.474 119.241 431.179 119.536L430.957 119.979C430.662 120.422 430.367 120.865 430.072 121.308C429.777 121.603 429.482 121.973 429.187 122.416C428.596 123.006 428.228 123.523 428.08 123.966C427.637 124.261 427.268 124.631 426.973 125.074C426.826 125.369 426.531 125.738 426.088 126.181C425.94 126.329 425.719 126.698 425.424 127.289C425.129 127.584 424.834 127.879 424.538 128.175C424.391 128.47 424.17 128.765 423.874 129.061C423.579 129.356 423.284 129.651 422.989 129.947C422.841 130.242 422.62 130.537 422.325 130.833C421.44 132.014 420.849 132.826 420.554 133.269C420.259 133.564 420.038 133.786 419.89 133.934C419.89 134.081 419.743 134.303 419.448 134.598C419.448 134.598 419.3 134.893 419.005 135.484C418.562 135.779 418.046 136.37 417.455 137.256C417.16 137.551 417.013 137.921 417.013 138.364C416.718 139.25 416.054 139.693 415.021 139.693H414.578C413.693 139.693 412.807 139.693 411.922 139.693C411.036 139.545 410.151 139.397 409.266 139.25C408.38 138.954 407.421 138.807 406.388 138.807C405.503 138.659 404.617 138.437 403.732 138.142C403.437 137.994 403.142 137.921 402.847 137.921C402.699 137.921 402.478 137.847 402.183 137.699C401.888 137.699 401.592 137.551 401.297 137.256H401.076C401.076 137.108 401.002 137.035 400.855 137.035C400.855 136.887 400.781 136.813 400.633 136.813C398.862 136.37 397.239 135.41 395.764 133.934C395.469 133.786 395.173 133.638 394.878 133.491C394.731 133.343 394.509 133.195 394.214 133.048C393.624 132.752 393.108 132.383 392.665 131.94C391.927 131.645 391.558 131.054 391.558 130.168C391.853 129.43 392.37 128.839 393.108 128.396C393.55 128.248 394.14 127.805 394.878 127.067C395.173 126.476 395.837 125.812 396.87 125.074C397.018 124.926 397.092 124.778 397.092 124.631C397.239 124.483 397.461 124.335 397.756 124.188C398.051 124.04 398.198 123.892 398.198 123.745C398.346 123.597 398.567 123.375 398.862 123.08C399.748 122.194 400.486 121.53 401.076 121.087C401.371 120.791 401.592 120.57 401.74 120.422C402.035 120.127 402.33 119.831 402.625 119.536C402.92 119.241 403.289 118.872 403.732 118.429C404.175 117.986 404.617 117.616 405.06 117.321C405.503 117.173 405.946 116.73 406.388 115.992L407.052 115.328L407.938 114.663C408.38 114.072 409.044 113.334 409.93 112.448C410.077 112.3 410.151 112.227 410.151 112.227C410.151 112.079 410.225 111.931 410.372 111.784L411.036 111.119C411.332 110.824 411.479 110.602 411.479 110.455C411.774 110.159 411.996 109.938 412.143 109.79C412.438 109.495 412.807 109.273 413.25 109.126C413.397 109.126 413.471 109.052 413.471 108.904C413.619 108.756 413.693 108.609 413.693 108.461C413.84 108.166 414.061 107.87 414.357 107.575C414.652 106.984 414.947 106.468 415.242 106.025C415.685 105.582 416.275 105.212 417.013 104.917C417.013 104.917 417.16 104.769 417.455 104.474V104.253L418.119 103.588C418.415 102.997 418.71 102.628 419.005 102.481C419.743 101.595 420.554 100.635 421.44 99.601C422.473 98.5674 423.579 97.5337 424.76 96.5C425.793 95.3187 426.899 94.1374 428.08 92.956C429.408 91.7747 430.662 90.5934 431.843 89.412C432.876 88.3784 433.835 87.3447 434.72 86.311C435.753 85.2774 436.86 84.096 438.04 82.767C439.516 81.1427 440.254 79.4445 440.254 77.6725C440.254 77.5249 440.18 77.3772 440.033 77.2295C439.885 76.4912 439.811 76.0482 439.811 75.9005C439.959 75.6052 440.328 75.3099 440.918 75.0145C440.918 75.0145 441.066 74.9407 441.361 74.793C442.098 74.4977 442.762 74.2762 443.353 74.1285C443.943 73.9809 444.533 73.8332 445.124 73.6855C445.714 73.6855 446.599 73.5379 447.78 73.2425C448.075 73.0949 448.591 73.021 449.329 73.021H450.214H450.436C451.321 72.8734 452.207 72.7995 453.092 72.7995C453.977 72.6519 454.863 72.4304 455.748 72.135C456.191 71.9874 457.002 71.7659 458.183 71.4705C458.773 71.1752 459.363 71.0275 459.954 71.0275L465.266 69.6985C466.741 69.4032 467.701 70.0677 468.143 71.692C468.143 71.9874 468.143 72.2827 468.143 72.578C468.291 72.8734 468.365 73.1687 468.365 73.464L469.029 75.4575C469.176 76.1959 469.25 76.8604 469.25 77.451C469.25 78.0417 469.324 78.7062 469.471 79.4445V80.3305C469.767 81.9549 469.914 83.5792 469.914 85.2035C470.062 86.6802 470.283 88.2307 470.578 89.855C470.578 90.4457 470.578 90.9625 470.578 91.4055C470.726 91.8485 470.799 92.3654 470.799 92.956C470.799 93.9897 470.947 95.2449 471.242 96.7215C471.242 97.4599 471.242 98.1244 471.242 98.715C471.39 99.158 471.537 99.6749 471.685 100.266C471.685 100.561 471.685 100.856 471.685 101.152C471.832 101.447 471.906 101.742 471.906 102.038V102.259C471.906 102.554 471.906 102.776 471.906 102.924C472.054 103.071 472.128 103.219 472.128 103.367C471.98 104.696 471.98 106.098 472.128 107.575C472.423 109.052 472.718 110.602 473.013 112.227C473.16 112.522 473.234 112.891 473.234 113.334V113.777V114.663V117.543V118.872V119.758V120.644V123.966V126.403C473.234 126.698 473.234 126.993 473.234 127.289C473.382 127.436 473.456 127.658 473.456 127.953V129.061V129.947V133.491C473.456 134.672 473.456 135.853 473.456 137.035C473.456 138.068 473.529 139.176 473.677 140.357C473.677 141.095 473.677 141.76 473.677 142.351C473.677 142.941 473.603 143.606 473.456 144.344V148.774C473.603 150.103 473.677 151.432 473.677 152.761C473.677 154.09 473.751 155.493 473.898 156.97C473.898 158.594 473.972 159.775 474.12 160.514V164.058C474.267 164.796 474.341 165.46 474.341 166.051C474.341 166.494 474.341 167.011 474.341 167.602C474.341 168.34 474.341 169.078 474.341 169.817C474.341 170.407 474.415 171.072 474.562 171.81C474.562 172.548 474.562 173.213 474.562 173.804C474.562 174.394 474.636 174.985 474.784 175.576C474.931 176.314 475.005 177.052 475.005 177.791C475.005 178.529 475.005 179.267 475.005 180.006C475.153 180.744 475.153 181.408 475.005 181.999C475.005 182.442 475.005 183.033 475.005 183.771V185.986V187.537V189.53C475.005 190.564 474.931 191.302 474.784 191.745V192.853ZM472.349 191.081C472.496 190.49 472.57 189.899 472.57 189.309C472.57 188.718 472.57 188.053 472.57 187.315C472.718 186.724 472.792 185.912 472.792 184.879V183.328C472.792 182.885 472.718 182.516 472.57 182.221C472.57 181.482 472.496 180.892 472.349 180.449V178.677V176.905C472.349 176.314 472.275 175.723 472.128 175.133C472.128 174.542 472.128 173.951 472.128 173.361C471.98 172.622 471.906 171.81 471.906 170.924C471.906 170.038 471.832 169.152 471.685 168.266C471.685 167.232 471.759 166.494 471.906 166.051V164.279C471.906 162.802 471.832 161.769 471.685 161.178V160.735V160.071C471.537 159.775 471.463 159.332 471.463 158.742C471.759 158.299 471.832 157.856 471.685 157.413C471.685 156.97 471.685 156.453 471.685 155.862C471.685 155.567 471.611 155.419 471.463 155.419C471.463 155.271 471.463 155.05 471.463 154.755V150.103V147.888V147.667V147.445L471.242 146.781V145.009V142.794V141.686V141.465V138.585V133.048V128.839V125.074C470.947 124.778 470.947 124.409 471.242 123.966C471.242 123.375 471.168 122.859 471.021 122.416V121.53V120.422V119.093V117.1C471.021 116.066 470.947 115.106 470.799 114.22C470.799 113.186 470.726 112.227 470.578 111.341C470.431 110.75 470.357 110.159 470.357 109.569C470.357 108.978 470.283 108.387 470.135 107.797C469.988 107.354 469.914 106.615 469.914 105.582C469.619 104.105 469.471 102.997 469.471 102.259V101.816V101.152C469.176 100.118 468.955 99.158 468.807 98.272C468.807 97.2384 468.807 96.2785 468.807 95.3925V95.171C468.807 94.728 468.807 94.285 468.807 93.842C468.807 93.2514 468.734 92.7345 468.586 92.2915C468.586 91.9962 468.512 91.7009 468.365 91.4055C468.365 91.1102 468.365 90.8149 468.365 90.5195C468.217 90.2242 468.143 89.9289 468.143 89.6335C468.143 89.1905 468.07 88.8214 467.922 88.526C467.774 87.7877 467.701 87.0494 467.701 86.311C467.701 85.5727 467.627 84.6867 467.479 83.653C467.479 83.3577 467.406 83.0624 467.258 82.767C467.258 82.4717 467.258 82.1764 467.258 81.881C467.258 80.6997 467.184 79.8137 467.037 79.223C466.889 78.4847 466.741 77.8202 466.594 77.2295C466.594 76.4912 466.52 75.7529 466.373 75.0145C466.373 74.7192 466.299 74.4239 466.151 74.1285C466.151 73.6855 466.151 73.3164 466.151 73.021C466.151 72.578 466.004 72.3565 465.709 72.3565L465.266 72.578C464.528 72.578 464.012 72.6519 463.716 72.7995L460.396 73.464C459.068 73.7594 457.74 74.0547 456.412 74.35C455.084 74.6454 453.682 74.9407 452.207 75.236C451.026 75.3837 449.772 75.5314 448.444 75.679C447.263 75.8267 446.083 76.0482 444.902 76.3435L444.238 76.565C443.353 76.565 442.91 76.8604 442.91 77.451C442.762 78.1894 442.615 79.0015 442.467 79.8875C442.467 80.7735 442.394 81.5857 442.246 82.324C442.246 83.0624 442.098 84.0222 441.803 85.2035C441.803 86.2372 441.73 87.0494 441.582 87.64C441.582 88.3784 441.508 89.0429 441.361 89.6335C441.361 90.2242 441.287 90.8887 441.139 91.627C440.844 93.1037 440.623 94.5804 440.475 96.057C440.475 97.5337 440.401 99.0842 440.254 100.709V102.038C440.254 102.776 440.328 103.367 440.475 103.81V104.917V106.246H441.139H441.361C441.656 106.246 441.803 106.32 441.803 106.468C441.951 106.468 442.025 106.541 442.025 106.689C442.025 106.837 441.951 106.911 441.803 106.911V107.797C441.508 108.24 441.287 108.461 441.139 108.461C440.549 108.756 440.18 109.421 440.033 110.455V114.22V115.771V129.947V134.155V135.041V139.471C440.033 140.209 440.033 140.948 440.033 141.686C440.033 142.424 440.106 143.163 440.254 143.901V149.217V149.66V152.983C440.254 153.426 440.18 153.869 440.033 154.312C440.033 154.755 440.033 155.198 440.033 155.641C439.885 156.379 439.737 157.117 439.59 157.856C439.59 158.446 439.59 159.111 439.59 159.849C439.59 161.621 439.295 163.393 438.704 165.165V165.608V167.159C438.557 167.602 438.483 168.118 438.483 168.709C438.483 169.152 438.409 169.595 438.262 170.038C438.114 171.219 437.967 172.401 437.819 173.582C437.672 174.616 437.45 175.723 437.155 176.905L436.491 180.227C436.343 180.67 436.27 181.113 436.27 181.556C436.27 181.851 436.196 182.221 436.048 182.664C435.901 183.254 435.753 183.771 435.606 184.214C435.606 184.657 435.532 185.174 435.384 185.765C435.384 186.355 435.237 187.241 434.942 188.423C434.794 189.161 434.647 189.973 434.499 190.859C434.351 191.597 434.204 192.336 434.056 193.074C433.909 194.108 433.835 195.141 433.835 196.175C433.835 197.061 433.761 197.947 433.614 198.833V200.827V203.042C433.614 203.928 433.54 204.518 433.392 204.814V208.358C433.245 209.096 433.171 209.76 433.171 210.351C433.171 210.794 433.171 211.311 433.171 211.902V213.452V215.003C433.171 215.593 433.097 215.962 432.95 216.11V218.547C433.097 219.285 433.171 220.023 433.171 220.762C433.171 221.352 433.245 222.017 433.392 222.755C433.392 223.493 433.392 224.158 433.392 224.749C433.392 225.339 433.466 225.93 433.614 226.521V228.736C433.614 229.179 433.614 229.695 433.614 230.286C433.614 230.729 433.687 231.172 433.835 231.615C433.835 231.763 433.835 231.91 433.835 232.058C433.982 232.058 434.056 232.132 434.056 232.28C434.351 232.575 434.499 232.944 434.499 233.387C434.499 234.273 434.573 234.938 434.72 235.381C435.015 236.267 435.163 237.079 435.163 237.817C435.015 238.408 434.942 238.998 434.942 239.589C435.089 240.032 435.163 240.475 435.163 240.918V242.69C434.868 243.724 434.942 244.536 435.384 245.127V245.791C435.237 246.086 435.163 246.456 435.163 246.899C435.311 247.194 435.384 247.563 435.384 248.006C435.384 248.154 435.384 248.228 435.384 248.228C435.532 248.375 435.606 248.597 435.606 248.892C435.753 249.63 435.827 250.443 435.827 251.329C435.827 252.215 435.827 253.027 435.827 253.765V255.759H463.052V255.537V253.987V253.101V251.107C463.052 250.812 463.052 250.516 463.052 250.221C463.2 249.926 463.274 249.63 463.274 249.335C463.274 249.187 463.274 249.04 463.274 248.892C463.421 248.744 463.495 248.523 463.495 248.228C463.495 247.932 463.495 247.563 463.495 247.12C463.643 246.677 463.716 246.234 463.716 245.791C463.864 245.2 463.938 244.684 463.938 244.241C463.938 243.65 464.012 243.059 464.159 242.469C464.307 242.173 464.38 241.878 464.38 241.583C464.38 241.14 464.454 240.77 464.602 240.475C464.602 240.327 464.602 240.254 464.602 240.254C464.749 240.254 464.823 240.18 464.823 240.032C464.823 239.737 464.823 239.589 464.823 239.589C464.971 239.441 465.044 239.22 465.044 238.925C465.192 238.629 465.266 238.408 465.266 238.26C465.266 237.965 465.34 237.669 465.487 237.374C465.487 237.079 465.487 236.857 465.487 236.71C465.635 236.414 465.709 236.119 465.709 235.824C465.709 235.676 465.709 235.528 465.709 235.381C465.856 235.233 465.93 235.011 465.93 234.716C466.077 234.273 466.151 233.756 466.151 233.166C466.299 232.575 466.446 231.984 466.594 231.394C466.594 231.246 466.594 231.172 466.594 231.172C466.741 231.024 466.815 230.803 466.815 230.508C466.963 230.36 467.037 230.138 467.037 229.843C467.184 229.548 467.258 229.326 467.258 229.179C467.258 229.031 467.332 228.883 467.479 228.736C467.774 227.85 467.996 226.964 468.143 226.078C468.291 225.192 468.438 224.306 468.586 223.42C468.586 222.977 468.734 222.312 469.029 221.426C469.324 220.245 469.398 219.285 469.25 218.547C469.25 218.399 469.398 218.03 469.693 217.439C469.693 217.439 469.767 217.365 469.914 217.218C470.062 217.07 470.135 216.922 470.135 216.775C470.283 216.332 470.357 215.446 470.357 214.117C470.357 212.935 470.578 211.754 471.021 210.573C471.168 209.834 471.242 209.17 471.242 208.579C471.39 207.988 471.463 207.398 471.463 206.807C471.316 206.069 471.242 205.33 471.242 204.592C471.39 203.706 471.537 202.894 471.685 202.156C471.832 201.713 471.906 201.048 471.906 200.162L472.128 199.055C472.128 198.316 472.128 197.726 472.128 197.283C472.275 196.692 472.349 196.027 472.349 195.289V193.296V191.081ZM437.376 103.145C437.229 102.702 437.155 102.111 437.155 101.373C437.303 100.782 437.376 100.266 437.376 99.8225C437.376 99.3795 437.45 98.8627 437.598 98.272C437.598 97.5337 437.672 97.0169 437.819 96.7215C437.819 95.9832 437.819 95.3187 437.819 94.728C437.967 93.9897 438.114 93.2514 438.262 92.513L438.483 90.0765V89.855C438.631 89.7074 438.704 89.412 438.704 88.969L439.369 86.311C439.369 85.7204 439.295 85.2774 439.147 84.982L438.704 85.425C438.262 86.1634 437.745 86.8279 437.155 87.4185C436.712 88.0092 436.122 88.6737 435.384 89.412C435.089 89.7074 434.794 89.9289 434.499 90.0765C434.056 90.6672 433.318 91.4794 432.286 92.513C431.843 92.956 431.4 93.399 430.957 93.842C430.515 94.1374 430.146 94.5065 429.851 94.9495C429.408 95.3925 428.965 95.8355 428.523 96.2785C428.08 96.7215 427.637 97.0907 427.195 97.386C426.457 98.1244 425.719 98.8627 424.981 99.601C424.243 100.339 423.505 101.078 422.768 101.816C422.03 102.554 421.366 103.293 420.776 104.031C420.185 104.769 419.521 105.508 418.783 106.246C418.341 106.689 417.898 107.206 417.455 107.797C417.013 108.24 416.57 108.756 416.127 109.347C415.832 109.642 415.537 109.938 415.242 110.233C414.947 110.528 414.652 110.824 414.357 111.119L413.029 112.448C412.438 113.039 411.922 113.556 411.479 113.999C411.036 114.442 410.594 114.958 410.151 115.549L407.495 118.207L406.831 118.872C406.536 119.019 406.241 119.241 405.946 119.536L403.953 121.53C403.511 122.12 402.994 122.637 402.404 123.08L401.519 123.966L400.412 125.074C400.117 125.369 399.822 125.664 399.527 125.96C399.379 126.107 399.158 126.329 398.862 126.624L396.206 129.282C396.059 129.577 395.616 129.947 394.878 130.39L394.657 130.611H394.878C395.321 130.906 395.837 131.202 396.428 131.497C397.313 132.088 397.903 132.457 398.198 132.605C398.789 133.048 399.674 133.564 400.855 134.155C403.658 135.927 407.347 136.961 411.922 137.256C412.512 137.256 412.955 137.33 413.25 137.478C413.84 137.625 414.283 137.33 414.578 136.592C415.168 135.706 415.611 135.115 415.906 134.82L416.127 134.377L416.791 133.712C416.791 133.417 416.939 133.269 417.234 133.269C417.529 132.974 417.751 132.678 417.898 132.383C418.046 132.088 418.267 131.792 418.562 131.497C418.857 131.054 419.448 130.242 420.333 129.061L421.661 127.732C421.956 127.436 422.177 127.141 422.325 126.846C422.473 126.55 422.694 126.255 422.989 125.96C423.432 125.517 423.727 125.147 423.874 124.852C424.17 124.557 424.391 124.261 424.538 123.966C424.834 123.523 425.129 123.154 425.424 122.859L425.645 122.637V122.194L426.088 121.751C426.235 121.16 426.531 120.644 426.973 120.201C427.121 119.905 427.268 119.758 427.416 119.758C427.563 119.61 427.711 119.388 427.859 119.093C428.744 118.502 429.408 117.69 429.851 116.657C430.589 115.771 431.326 114.958 432.064 114.22C432.95 113.482 433.835 112.743 434.72 112.005C435.311 111.414 435.679 110.971 435.827 110.676C435.975 110.528 436.048 110.455 436.048 110.455C436.048 110.307 436.122 110.159 436.27 110.012V109.79C436.27 109.79 436.417 109.642 436.712 109.347C437.45 108.313 437.672 107.501 437.376 106.911V106.468V105.803V104.031V103.145Z" fill="white"/>
<path d="M499.795 580.256C500.188 581.24 500.188 582.323 499.795 583.505C499.598 584.293 499.5 585.474 499.5 587.049V587.935C499.5 589.314 499.403 590.297 499.205 590.888C499.205 591.281 499.107 591.577 498.91 591.774C498.91 591.972 498.91 592.267 498.91 592.66V594.727C498.91 595.909 498.812 596.795 498.615 597.385C498.615 598.369 498.418 599.65 498.025 601.225L497.73 602.406V602.701V602.997V603.587C497.73 604.376 497.632 604.867 497.434 605.064C497.434 605.262 497.337 605.457 497.139 605.655C497.139 605.655 497.139 605.753 497.139 605.95V606.541C496.746 607.329 496.451 608.115 496.254 608.903C496.057 609.494 495.861 610.282 495.664 611.266C495.073 612.841 494.385 614.417 493.598 615.991C492.81 617.37 492.024 618.847 491.237 620.421C491.237 620.619 491.139 620.717 490.942 620.717C490.942 620.717 490.942 620.815 490.942 621.012C490.154 622.193 489.761 623.079 489.761 623.67C489.564 624.458 489.368 625.147 489.171 625.737C488.974 626.328 488.678 627.017 488.285 627.805C488.285 628.198 488.088 628.593 487.695 628.986C487.302 630.167 487.007 630.956 486.81 631.349L485.924 632.235C485.924 632.432 485.727 632.728 485.334 633.121C485.334 633.318 485.236 633.514 485.039 633.711C485.039 633.711 485.039 633.909 485.039 634.302C484.842 634.5 484.744 634.695 484.744 634.893C484.744 635.09 484.646 635.286 484.449 635.483C483.466 637.255 482.58 638.732 481.793 639.913L481.498 640.209C481.105 640.997 480.71 641.588 480.317 641.981C480.12 642.178 479.924 642.276 479.727 642.276C479.727 642.276 479.629 642.374 479.432 642.571L479.137 642.867V643.162C478.939 643.555 478.841 643.95 478.841 644.343C478.644 644.737 478.449 645.032 478.251 645.229C478.054 645.229 477.858 645.327 477.661 645.525L477.071 646.115C476.678 646.509 476.383 646.804 476.185 647.001C476.185 647.199 475.988 647.494 475.595 647.887C475.202 648.676 474.807 649.167 474.415 649.364C474.022 649.955 473.627 650.545 473.234 651.136C472.841 651.529 472.446 652.022 472.054 652.613C470.283 654.778 468.414 656.845 466.446 658.815C464.675 660.784 462.807 662.852 460.839 665.017C458.871 666.986 457.002 669.054 455.231 671.219C453.461 673.384 451.69 675.551 449.919 677.716C449.329 678.307 448.443 679.39 447.263 680.965C438.999 691.399 428.473 699.571 415.684 705.477H415.389C413.816 706.266 412.536 706.856 411.553 707.249C411.355 707.249 411.16 707.347 410.962 707.545C410.765 707.545 410.57 707.545 410.372 707.545C409.979 707.742 409.684 707.84 409.487 707.84C409.289 707.84 408.994 707.938 408.601 708.135C409.585 708.333 410.47 708.529 411.258 708.726C412.241 708.726 413.226 708.824 414.209 709.021C416.372 709.415 418.538 709.81 420.702 710.203C423.063 710.4 425.326 710.696 427.49 711.089C428.867 711.286 430.146 711.482 431.326 711.679C432.704 711.679 434.08 711.679 435.458 711.679C437.622 711.877 439.687 712.073 441.656 712.27C443.819 712.27 445.985 712.468 448.148 712.861C449.919 713.254 451.592 713.649 453.165 714.042C454.936 714.24 456.51 714.535 457.888 714.928C458.28 715.126 458.871 715.223 459.658 715.223C461.036 715.617 462.412 716.109 463.79 716.7C465.363 717.093 466.348 717.881 466.741 719.063C467.134 719.653 467.134 720.342 466.741 721.13C466.544 721.918 466.249 722.607 465.856 723.197V723.788C465.068 725.167 464.478 726.544 464.085 727.923V729.399L463.2 732.057V732.353C462.61 733.337 462.61 734.027 463.2 734.42L463.79 735.011L463.2 735.306C462.807 735.504 462.314 735.699 461.724 735.897C461.331 736.094 460.937 736.192 460.544 736.192C460.151 736.192 459.756 736.094 459.363 735.897L458.478 735.011C458.478 734.813 458.38 734.715 458.183 734.715C458.183 734.518 457.69 734.223 456.707 733.829H456.412C455.624 733.632 454.838 733.436 454.051 733.239C453.461 733.239 452.673 733.041 451.69 732.648C450.707 732.451 449.624 732.255 448.443 732.057C447.263 731.86 446.082 731.565 444.902 731.171C442.934 730.581 441.065 730.188 439.295 729.99C437.524 729.99 435.556 729.892 433.392 729.695C432.409 729.695 431.524 729.695 430.736 729.695C429.948 729.695 429.063 729.597 428.08 729.399C427.097 729.399 426.014 729.399 424.833 729.399C423.653 729.399 422.57 729.302 421.587 729.104C419.619 729.104 417.653 729.104 415.684 729.104C413.914 729.302 412.045 729.399 410.077 729.399C407.913 729.597 405.65 729.695 403.289 729.695C400.928 729.892 398.665 729.892 396.501 729.695C395.518 729.695 394.533 729.597 393.55 729.399C392.567 729.399 391.582 729.399 390.599 729.399H388.828C386.664 729.399 385.189 729.302 384.401 729.104C383.418 728.711 382.828 728.218 382.63 727.627C382.63 727.037 382.728 726.544 382.926 726.151C382.926 725.56 382.926 724.969 382.926 724.379C383.123 723.788 383.221 723.197 383.221 722.607V720.539C383.418 719.556 383.516 718.67 383.516 717.881C383.713 716.898 383.909 715.912 384.106 714.928L384.991 708.726V708.135C384.991 707.742 384.991 707.249 384.991 706.659C385.189 706.068 385.484 705.575 385.877 705.182C386.467 704.985 387.55 705.084 389.123 705.477H390.304C391.287 705.675 392.762 705.773 394.731 705.773C395.911 705.97 397.092 706.068 398.272 706.068C399.65 706.068 400.928 706.068 402.109 706.068C404.272 705.871 406.24 705.477 408.011 704.887C409.782 704.296 411.455 703.608 413.028 702.819C414.602 702.031 416.177 701.245 417.75 700.457C419.324 699.669 420.997 698.685 422.768 697.503L425.424 695.731C427.587 694.748 429.753 693.271 431.916 691.301C437.031 686.774 442.246 681.458 447.558 675.353C448.148 674.565 448.739 673.779 449.329 672.991C449.919 672.203 450.509 671.416 451.1 670.628L453.756 667.084C454.739 665.903 455.822 664.819 457.002 663.835C457.592 663.245 458.183 662.752 458.773 662.359C459.363 661.768 459.856 661.177 460.249 660.587C462.412 657.633 464.971 654.68 467.922 651.727C469.102 650.348 470.283 649.069 471.463 647.887C472.644 646.509 473.824 645.032 475.005 643.457C475.792 642.474 476.48 641.39 477.071 640.209C477.661 639.027 478.349 637.846 479.137 636.665C479.924 635.483 480.415 634.597 480.612 634.007C482.383 631.251 484.154 627.903 485.924 623.965C486.317 622.982 486.613 622.193 486.81 621.603C487.203 621.012 487.597 620.324 487.99 619.535C488.383 618.552 488.778 617.763 489.171 617.173C489.564 616.385 489.958 615.499 490.351 614.515C492.122 610.183 493.4 606.343 494.188 602.997C494.976 599.846 495.566 596.499 495.959 592.955C496.549 589.411 496.647 585.867 496.254 582.323C496.057 581.142 495.959 579.961 495.959 578.779C495.959 577.401 495.959 576.121 495.959 574.94C496.352 573.366 496.352 571.789 495.959 570.215V564.013C495.959 563.62 495.861 563.225 495.664 562.831C495.664 562.241 495.664 561.65 495.664 561.059C495.664 560.666 495.566 560.271 495.369 559.878C495.369 559.287 495.369 558.795 495.369 558.401C495.369 554.267 494.976 550.625 494.188 547.474C493.795 546.686 493.598 546.095 493.598 545.702C493.4 545.309 493.205 544.816 493.008 544.225C493.008 543.635 492.91 543.142 492.712 542.749C492.515 542.356 492.417 541.961 492.417 541.567C492.417 541.174 492.319 540.779 492.122 540.386C492.122 539.598 491.925 538.614 491.532 537.433C490.351 533.889 488.973 530.345 487.4 526.801C486.022 523.257 484.547 519.811 482.973 516.464C481.99 514.89 481.005 513.313 480.022 511.739C479.039 510.164 477.956 508.588 476.776 507.013C474.217 503.667 471.661 501.107 469.102 499.335C465.954 497.17 462.707 495.2 459.363 493.428C456.019 491.459 452.378 490.082 448.443 489.293C447.656 489.293 447.066 489.196 446.673 488.998C445.099 488.605 443.919 488.407 443.131 488.407C442.148 488.21 441.163 488.21 440.18 488.407C439.197 488.407 438.212 488.505 437.229 488.703C435.655 489.096 434.277 489.293 433.097 489.293C431.916 489.491 430.736 489.687 429.555 489.884C428.375 489.884 427.292 490.082 426.309 490.475C418.438 492.64 412.241 496.184 407.716 501.107C401.814 507.211 398.174 513.413 396.796 519.713C396.206 522.273 395.616 524.831 395.026 527.391C394.633 529.952 394.14 532.412 393.55 534.775C393.353 535.956 393.157 537.137 392.96 538.319C392.96 539.5 392.762 540.681 392.37 541.863C392.172 542.256 392.074 542.749 392.074 543.339C392.074 543.733 391.977 544.128 391.779 544.521C391.779 544.521 391.682 544.718 391.484 545.111C391.484 545.309 391.386 545.505 391.189 545.702C391.189 545.9 391.189 546.095 391.189 546.293C391.386 546.686 391.779 546.981 392.37 547.179C393.157 547.376 393.747 547.572 394.14 547.769C394.338 547.769 394.533 547.867 394.731 548.065C396.501 548.655 398.174 548.951 399.748 548.951H400.338C401.126 548.951 401.716 549.049 402.109 549.246H402.404H403.289H403.584V548.951V548.655C403.782 548.065 403.879 547.474 403.879 546.883C404.077 546.095 404.272 545.407 404.47 544.816C404.863 543.635 405.158 542.453 405.355 541.272C405.748 539.893 406.143 538.614 406.536 537.433C406.733 536.842 406.928 536.251 407.126 535.661C407.323 534.873 407.519 534.086 407.716 533.298C408.699 530.738 409.487 528.475 410.077 526.505C410.274 525.522 410.765 524.241 411.553 522.666L411.848 522.371C412.045 521.978 412.143 521.682 412.143 521.485C412.143 521.287 412.241 520.992 412.438 520.599C412.438 519.811 412.733 518.925 413.323 517.941C413.716 517.548 414.111 517.153 414.504 516.759C415.094 516.366 415.587 515.971 415.98 515.578C416.373 515.381 416.865 514.987 417.455 514.397C417.653 514.199 417.848 514.101 418.045 514.101C418.243 513.904 418.438 513.708 418.636 513.511C419.029 512.92 419.521 512.427 420.111 512.034C420.702 511.443 421.194 510.951 421.587 510.557C422.965 509.574 424.243 508.883 425.424 508.49C426.802 508.097 428.178 507.702 429.555 507.309C429.948 507.111 430.243 507.013 430.441 507.013C430.638 507.013 430.933 506.916 431.326 506.718C435.261 505.537 438.704 505.439 441.656 506.423C442.443 506.816 443.426 507.407 444.607 508.195C445 508.392 445.197 508.588 445.197 508.785C445.394 508.785 445.69 508.883 446.082 509.081C446.673 509.474 447.558 509.869 448.739 510.262C449.131 510.46 449.427 510.655 449.624 510.853C450.017 510.853 450.412 510.951 450.804 511.148C452.378 511.739 453.953 512.527 455.527 513.511C455.919 513.511 456.215 513.609 456.412 513.806C458.183 514.397 459.461 515.283 460.249 516.464C460.839 517.252 461.331 518.531 461.724 520.303V520.599C462.117 522.173 462.314 523.159 462.314 523.552C462.512 524.143 462.61 524.733 462.61 525.324C462.807 525.717 463.002 526.21 463.2 526.801C463.2 527.391 463.298 527.785 463.495 527.982C463.692 528.573 463.79 529.163 463.79 529.754C463.79 530.147 463.888 530.64 464.085 531.231C464.085 531.624 464.085 531.919 464.085 532.117C464.283 532.314 464.183 532.61 463.79 533.003C463.79 533.2 463.692 533.396 463.495 533.593H463.2C463.2 533.791 463.298 533.987 463.495 534.184V535.07C463.495 535.858 463.102 536.842 462.314 538.023C462.314 538.023 462.117 538.417 461.724 539.205C461.331 540.189 460.839 541.174 460.249 542.158C459.856 543.142 459.461 544.028 459.068 544.816C458.871 545.209 458.675 545.604 458.478 545.997C458.28 546.391 457.985 546.786 457.592 547.179C457.002 547.769 456.609 548.262 456.412 548.655C456.019 549.444 455.527 550.23 454.936 551.018C454.346 551.806 453.658 552.593 452.87 553.381C452.477 553.774 452.182 554.169 451.985 554.562C451.788 554.76 451.492 555.055 451.1 555.448C450.707 555.841 450.312 556.137 449.919 556.334C449.919 556.334 449.722 556.432 449.329 556.629C449.132 556.827 449.034 557.023 449.034 557.22V557.811C448.641 558.795 448.246 559.485 447.853 559.878L447.263 560.173C446.673 560.764 446.082 561.65 445.492 562.831V563.422C445.295 563.815 445.197 564.111 445.197 564.308C445.197 564.506 445 564.801 444.607 565.194C444.409 565.392 444.017 565.489 443.426 565.489H443.131C443.131 565.687 443.033 565.883 442.836 566.08C442.836 566.278 442.836 566.473 442.836 566.671C442.836 566.868 442.738 567.064 442.541 567.261L441.656 569.033L440.77 569.919C439.983 571.298 439.197 572.184 438.409 572.577C438.016 572.971 437.622 573.266 437.229 573.463C437.031 573.463 436.736 573.561 436.343 573.759C435.36 574.152 434.67 574.547 434.277 574.94C433.885 575.333 433.49 575.924 433.097 576.712C432.704 577.5 432.309 578.091 431.916 578.484C430.933 579.665 429.948 580.847 428.965 582.028C427.982 583.012 426.997 583.998 426.014 584.981L423.948 587.049C423.751 587.442 423.555 587.737 423.358 587.935C423.16 587.935 422.865 588.132 422.472 588.525C421.685 588.919 421.194 589.314 420.997 589.707C420.604 590.1 420.209 590.593 419.816 591.183C419.423 591.577 419.029 591.972 418.636 592.365C418.636 592.562 418.438 592.858 418.045 593.251C417.062 594.63 416.077 596.007 415.094 597.385C414.111 598.764 413.126 600.141 412.143 601.52C411.553 602.111 411.258 602.604 411.258 602.997C410.865 603.785 410.57 604.276 410.372 604.473C410.175 604.671 410.077 604.867 410.077 605.064C409.88 605.064 409.782 605.162 409.782 605.359V605.655C409.585 605.852 409.487 606.048 409.487 606.245C408.504 610.773 406.733 614.613 404.175 617.763C403.782 618.157 403.487 618.649 403.289 619.24C403.289 619.831 403.092 620.519 402.699 621.307L401.814 623.965C401.421 624.754 401.026 625.344 400.633 625.737C400.436 626.328 400.24 626.919 400.043 627.509C399.845 627.903 399.55 628.395 399.157 628.986C398.96 629.379 398.862 629.774 398.862 630.167C398.862 630.365 398.765 630.66 398.567 631.053C398.567 631.447 398.37 632.432 397.977 634.007C397.584 634.991 397.289 636.172 397.092 637.551C396.894 638.732 396.699 639.913 396.501 641.095C396.501 641.685 396.404 642.276 396.206 642.867C396.206 643.457 396.206 643.95 396.206 644.343L395.616 647.001C395.419 648.576 395.223 650.152 395.026 651.727C394.828 653.106 394.633 654.582 394.435 656.157C394.238 657.141 394.043 658.126 393.845 659.11C393.845 659.898 393.845 660.784 393.845 661.768C394.043 662.556 394.043 663.343 393.845 664.131C393.648 664.721 393.452 665.41 393.255 666.198C393.255 666.591 393.157 666.986 392.96 667.379C392.96 667.773 392.862 668.265 392.665 668.856C392.665 669.249 392.665 669.742 392.665 670.333C392.467 670.726 392.37 671.121 392.37 671.514C392.37 671.712 392.272 672.007 392.074 672.4C391.682 674.37 391.386 675.747 391.189 676.535C390.992 676.928 390.894 677.223 390.894 677.421C390.894 677.618 390.796 677.814 390.599 678.011C390.401 678.405 390.304 678.897 390.304 679.488C390.304 679.881 390.206 680.276 390.009 680.669C390.009 681.653 389.911 682.441 389.713 683.032C389.713 683.425 389.516 684.016 389.123 684.804C388.73 685.985 388.533 686.871 388.533 687.462V689.529C388.533 690.711 388.435 691.695 388.238 692.483V694.55V697.503C387.845 698.882 387.45 699.669 387.057 699.866V700.161V700.457H386.762C386.762 700.654 386.565 700.752 386.172 700.752C386.172 700.555 386.074 700.457 385.877 700.457C385.679 700.457 385.484 700.359 385.287 700.161C385.089 700.161 384.991 700.064 384.991 699.866C384.008 699.078 383.614 697.799 383.811 696.027C383.811 695.634 383.811 695.338 383.811 695.141C384.008 694.943 384.106 694.648 384.106 694.255C384.499 692.68 384.696 691.597 384.696 691.006V688.939C384.499 688.151 384.401 687.069 384.401 685.69C384.991 683.327 385.484 681.26 385.877 679.488C386.467 677.519 387.155 675.747 387.943 674.172C388.336 672.793 388.73 671.121 389.123 669.151C389.123 668.758 389.123 668.363 389.123 667.97C389.321 667.379 389.418 666.789 389.418 666.198C389.616 665.805 389.713 665.41 389.713 665.017C389.713 664.624 389.811 664.229 390.009 663.835C390.009 662.063 389.911 660.784 389.713 659.996V658.519C389.713 657.536 389.713 656.747 389.713 656.157C389.911 655.566 390.206 654.878 390.599 654.089C390.796 653.499 390.894 652.613 390.894 651.431V649.955C391.287 648.971 391.779 648.478 392.37 648.478C392.172 647.887 392.074 647.395 392.074 647.001C392.272 646.608 392.37 646.213 392.37 645.82C392.567 645.427 392.665 644.836 392.665 644.048C392.862 643.851 392.96 643.36 392.96 642.571C392.96 640.602 393.058 639.125 393.255 638.141C393.255 637.551 393.452 637.058 393.845 636.665C394.238 635.877 394.435 635.483 394.435 635.483V634.597C394.238 634.204 394.14 633.711 394.14 633.121C394.14 632.333 394.338 631.349 394.731 630.167C395.123 629.379 395.321 628.593 395.321 627.805C395.714 626.821 396.304 625.737 397.092 624.556C397.484 623.768 397.682 623.277 397.682 623.079C398.075 622.489 398.37 621.898 398.567 621.307C398.765 620.717 399.06 620.126 399.453 619.535C399.65 618.354 400.043 617.271 400.633 616.287C401.026 615.499 401.616 614.515 402.404 613.333C403.191 612.35 403.682 611.266 403.879 610.085C404.272 609.494 404.567 608.903 404.765 608.313C404.962 607.525 405.257 606.836 405.65 606.245C406.043 605.064 406.338 604.276 406.536 603.883C406.928 602.899 407.323 602.111 407.716 601.52C408.109 600.929 408.504 600.241 408.897 599.453L409.782 598.567C410.175 598.174 410.372 597.878 410.372 597.681C410.57 597.288 410.765 596.893 410.962 596.499C411.355 595.909 411.848 595.318 412.438 594.727C413.028 593.939 413.521 593.251 413.914 592.66C414.897 591.676 415.782 590.79 416.57 590.002C417.357 589.018 418.143 588.033 418.931 587.049C419.128 586.656 419.619 586.261 420.406 585.867C420.406 585.67 420.406 585.572 420.406 585.572C420.604 585.572 420.702 585.474 420.702 585.277C421.292 585.079 421.685 584.686 421.882 584.095C422.079 583.898 422.177 583.8 422.177 583.8C422.177 583.603 422.275 583.407 422.472 583.209C423.063 582.421 423.751 581.733 424.538 581.142C424.931 580.749 425.226 580.551 425.424 580.551C425.621 580.354 425.817 580.059 426.014 579.665L426.604 578.779C427.392 577.991 428.08 577.303 428.67 576.712C429.26 575.924 429.948 575.138 430.736 574.349L431.916 573.463L435.458 569.919C436.048 569.329 436.541 568.936 436.934 568.738C437.326 568.147 437.819 567.557 438.409 566.966C438.999 566.375 439.492 565.785 439.885 565.194V564.899C440.082 564.701 440.18 564.603 440.18 564.603C440.18 564.406 440.278 564.21 440.475 564.013C440.475 564.013 440.672 563.815 441.065 563.422C441.263 563.422 441.36 563.324 441.36 563.127C441.558 562.929 441.656 562.734 441.656 562.536C441.853 562.536 441.951 562.339 441.951 561.945C442.344 560.962 442.836 560.076 443.426 559.287C444.214 558.304 444.804 557.613 445.197 557.22C445.394 557.22 445.492 557.122 445.492 556.925C445.69 556.925 445.885 556.827 446.082 556.629V556.334L446.378 556.039V555.448C446.575 555.251 446.673 555.055 446.673 554.857C446.673 554.66 446.77 554.464 446.968 554.267C448.148 552.495 449.427 551.216 450.804 550.427C451.197 550.23 451.493 549.935 451.69 549.541V549.246C451.887 548.655 452.378 547.769 453.165 546.588C453.363 546.391 453.461 546.195 453.461 545.997C453.658 545.8 453.854 545.604 454.051 545.407C454.444 544.816 454.838 544.225 455.231 543.635C455.822 543.044 456.215 542.256 456.412 541.272L456.707 540.977C456.707 540.386 457.002 539.795 457.592 539.205C457.985 538.812 458.28 538.417 458.478 538.023C458.675 537.63 458.871 537.235 459.068 536.842C459.068 536.645 459.166 536.449 459.363 536.251C459.756 535.463 459.953 534.873 459.953 534.479C459.953 533.691 459.856 533.101 459.658 532.707V531.821C459.461 531.033 459.363 530.345 459.363 529.754C459.363 528.966 459.265 528.18 459.068 527.391C459.068 526.013 458.97 525.029 458.773 524.438C458.773 523.059 458.576 522.075 458.183 521.485C458.183 521.485 458.085 521.387 457.888 521.189C457.888 520.992 457.79 520.894 457.592 520.894C457.592 520.697 457.592 520.501 457.592 520.303C457.592 520.303 457.592 520.008 457.592 519.417V518.827C457.2 518.236 456.609 517.645 455.822 517.055C455.624 517.055 455.429 516.957 455.231 516.759C454.248 516.366 453.363 515.971 452.575 515.578C451.985 515.185 451.197 514.79 450.214 514.397C449.427 514.004 448.936 513.806 448.739 513.806L447.263 512.92C446.475 512.527 445.69 512.232 444.902 512.034C444.114 511.641 443.329 511.246 442.541 510.853C441.163 510.262 440.082 509.869 439.295 509.671C438.507 509.474 437.524 509.474 436.343 509.671L434.868 509.967C432.9 510.36 430.933 510.853 428.965 511.443C427.194 511.837 425.521 512.723 423.948 514.101C421.784 516.071 419.914 518.039 418.341 520.008C416.767 521.78 415.487 523.65 414.504 525.619C413.716 526.998 413.028 528.868 412.438 531.231C412.438 531.624 412.34 531.919 412.143 532.117C412.143 532.117 412.143 532.314 412.143 532.707C411.75 534.282 411.355 535.759 410.962 537.137C410.57 538.319 410.175 539.698 409.782 541.272C409.585 541.665 409.289 542.453 408.897 543.635C408.109 545.8 407.618 547.769 407.421 549.541V550.132C407.814 551.313 407.716 552.199 407.126 552.79C406.536 553.381 405.552 553.479 404.175 553.085H403.879C402.896 553.085 402.206 552.988 401.814 552.79C399.65 552.79 397.387 552.495 395.026 551.904C394.633 551.707 394.338 551.609 394.14 551.609C393.943 551.609 393.648 551.511 393.255 551.313C392.074 550.92 391.386 550.723 391.189 550.723C390.992 550.525 390.796 550.427 390.599 550.427C390.401 550.625 390.304 550.92 390.304 551.313C390.304 551.511 390.206 551.707 390.009 551.904V552.199L389.713 553.381L389.123 552.495C388.926 552.297 388.828 552.102 388.828 551.904C388.238 551.707 387.943 551.216 387.943 550.427C387.745 550.034 387.648 549.837 387.648 549.837C387.845 549.639 387.943 549.444 387.943 549.246C387.943 549.049 388.04 548.853 388.238 548.655C388.238 548.262 388.14 547.867 387.943 547.474C387.745 547.081 387.55 546.686 387.352 546.293C387.155 546.293 387.057 546.195 387.057 545.997L386.467 545.111H387.352H388.238C388.238 544.914 388.14 544.816 387.943 544.816C387.943 544.619 387.943 544.423 387.943 544.225C387.943 542.847 388.14 541.174 388.533 539.205C389.123 537.826 389.418 536.349 389.418 534.775L390.304 530.345C390.501 529.557 390.697 528.868 390.894 528.277C391.091 527.489 391.287 526.703 391.484 525.915C391.877 524.931 392.074 524.045 392.074 523.257C392.272 522.273 392.567 521.287 392.96 520.303C393.157 519.91 393.255 519.515 393.255 519.122C393.255 518.729 393.353 518.334 393.55 517.941C393.943 516.562 394.238 515.283 394.435 514.101C394.828 512.92 395.321 511.739 395.911 510.557C396.501 509.376 397.189 508.195 397.977 507.013C398.765 505.832 399.65 504.651 400.633 503.469L401.518 502.288C402.502 500.909 403.487 499.728 404.47 498.744C405.65 497.563 406.928 496.479 408.306 495.495C409.88 494.512 411.258 493.626 412.438 492.837C413.619 491.854 414.897 490.968 416.275 490.179L416.865 489.884C418.438 489.096 419.619 488.605 420.406 488.407C420.997 488.407 421.489 488.31 421.882 488.112C422.67 488.112 423.26 488.014 423.653 487.817C423.653 487.817 423.751 487.719 423.948 487.521C424.145 487.521 424.243 487.521 424.243 487.521C424.441 487.324 424.736 487.226 425.129 487.226H426.014H426.604C426.802 487.226 426.899 487.226 426.899 487.226C427.097 487.029 427.292 486.931 427.49 486.931C427.687 486.733 427.982 486.635 428.375 486.635C429.163 486.242 429.948 486.045 430.736 486.045C431.326 486.045 431.916 486.045 432.507 486.045C433.294 485.847 433.982 485.749 434.573 485.749C435.556 485.552 436.441 485.454 437.229 485.454C438.016 485.257 438.902 485.159 439.885 485.159C443.033 485.159 446.673 485.749 450.804 486.931C451.197 487.128 451.493 487.324 451.69 487.521C452.083 487.521 452.477 487.619 452.87 487.817C455.624 488.407 458.183 489.293 460.544 490.475C461.331 490.868 462.019 491.361 462.61 491.951C463.397 492.345 464.085 492.74 464.675 493.133C465.266 493.526 465.758 493.921 466.151 494.314C466.741 494.707 467.332 495.102 467.922 495.495L468.512 495.791C469.693 496.579 470.873 497.365 472.054 498.153C473.431 498.942 474.612 499.828 475.595 500.811C476.185 501.402 476.678 501.993 477.071 502.583C477.661 503.174 478.153 503.667 478.546 504.06L478.841 504.355C479.039 504.553 479.137 504.749 479.137 504.946C479.137 504.946 479.234 505.044 479.432 505.241C480.612 506.225 481.4 507.309 481.793 508.49C481.793 508.688 481.793 508.785 481.793 508.785C481.99 508.785 482.088 508.883 482.088 509.081V509.376C482.088 509.967 482.186 510.36 482.383 510.557L482.973 511.148C483.563 511.739 484.056 512.329 484.449 512.92L485.334 514.692C485.532 514.89 485.629 515.085 485.629 515.283C485.827 515.48 486.022 515.676 486.22 515.873C486.613 516.464 487.007 517.35 487.4 518.531C487.793 519.32 488.088 519.811 488.285 520.008C488.285 520.206 488.483 520.697 488.876 521.485C489.663 522.273 490.056 522.961 490.056 523.552C490.254 523.75 490.351 524.143 490.351 524.733C489.958 525.127 489.958 525.422 490.351 525.619C490.351 526.013 490.549 526.603 490.942 527.391L491.237 528.277C492.024 529.852 492.515 531.133 492.712 532.117C492.91 532.51 493.008 532.905 493.008 533.298C493.205 533.691 493.4 534.086 493.598 534.479L494.483 536.251C494.483 536.645 494.483 536.94 494.483 537.137C494.68 537.137 494.778 537.335 494.778 537.728C494.976 538.319 495.171 538.909 495.369 539.5C495.566 539.893 495.761 540.386 495.959 540.977C495.959 541.961 496.057 542.651 496.254 543.044C496.254 543.437 496.254 543.93 496.254 544.521C496.451 544.914 496.549 545.309 496.549 545.702C497.532 549.246 498.025 552.593 498.025 555.743C498.222 556.334 498.32 557.023 498.32 557.811C498.32 558.401 498.517 559.09 498.91 559.878C499.303 560.862 499.403 561.65 499.205 562.241C499.205 562.634 499.107 563.225 498.91 564.013V564.603C498.91 565.982 499.008 566.966 499.205 567.557V569.033C499.403 569.624 499.5 570.608 499.5 571.987V573.759V575.826V578.779C499.5 579.37 499.598 579.863 499.795 580.256ZM388.533 708.726H388.238C388.04 709.119 387.943 710.105 387.943 711.679V713.156C387.745 713.549 387.648 714.042 387.648 714.633C387.648 715.026 387.55 715.421 387.352 715.814C387.155 716.995 386.959 718.177 386.762 719.358C386.762 720.539 386.762 721.721 386.762 722.902L386.467 723.493V726.151C386.664 726.544 387.057 726.839 387.648 727.037H393.55H397.387H399.453C402.206 727.234 404.765 727.332 407.126 727.332C409.487 727.332 411.946 727.135 414.504 726.741C417.258 726.544 419.914 726.544 422.472 726.741C425.031 726.741 427.687 726.839 430.441 727.037H433.097C436.441 727.234 439.687 727.627 442.836 728.218C446.18 728.809 449.722 729.597 453.461 730.581C453.853 730.581 454.444 730.778 455.231 731.171C455.624 731.369 456.117 731.565 456.707 731.762C457.495 731.96 458.085 731.96 458.478 731.762L458.773 732.057L462.61 718.767C462.217 718.57 461.724 718.472 461.134 718.472C460.741 718.472 460.346 718.374 459.953 718.177C458.97 717.784 458.085 717.488 457.297 717.291C456.51 717.093 455.624 716.898 454.641 716.7C453.068 716.307 451.592 716.109 450.214 716.109C448.836 715.912 447.361 715.716 445.787 715.519H445.197L438.114 714.633C436.146 714.435 434.18 714.337 432.212 714.337C430.441 714.14 428.473 713.845 426.309 713.451C424.736 713.058 423.063 712.861 421.292 712.861C419.521 712.663 417.848 712.368 416.275 711.975C412.34 711.384 408.209 710.793 403.879 710.203C399.748 709.612 395.616 709.119 391.484 708.726L388.533 708.431V708.726Z" fill="white"/>
<path d="M499.795 580.256C500.188 581.24 500.188 582.323 499.795 583.505C499.598 584.293 499.5 585.474 499.5 587.049V587.935C499.5 589.314 499.403 590.297 499.205 590.888C499.205 591.281 499.107 591.577 498.91 591.774C498.91 591.972 498.91 592.267 498.91 592.66V594.727C498.91 595.909 498.812 596.795 498.615 597.385C498.615 598.369 498.418 599.65 498.025 601.225L497.73 602.406V602.701V602.997V603.587C497.73 604.376 497.632 604.867 497.434 605.064C497.434 605.262 497.337 605.457 497.139 605.655C497.139 605.655 497.139 605.753 497.139 605.95V606.541C496.746 607.329 496.451 608.115 496.254 608.903C496.057 609.494 495.861 610.282 495.664 611.266C495.073 612.841 494.385 614.417 493.598 615.991C492.81 617.37 492.024 618.847 491.237 620.421C491.237 620.619 491.139 620.717 490.942 620.717C490.942 620.717 490.942 620.815 490.942 621.012C490.154 622.193 489.761 623.079 489.761 623.67C489.564 624.458 489.368 625.147 489.171 625.737C488.974 626.328 488.678 627.017 488.285 627.805C488.285 628.198 488.088 628.593 487.695 628.986C487.302 630.167 487.007 630.956 486.81 631.349L485.924 632.235C485.924 632.432 485.727 632.728 485.334 633.121C485.334 633.318 485.236 633.514 485.039 633.711C485.039 633.711 485.039 633.909 485.039 634.302C484.842 634.5 484.744 634.695 484.744 634.893C484.744 635.09 484.646 635.286 484.449 635.483C483.466 637.255 482.58 638.732 481.793 639.913L481.498 640.209C481.105 640.997 480.71 641.588 480.317 641.981C480.12 642.178 479.924 642.276 479.727 642.276C479.727 642.276 479.629 642.374 479.432 642.571L479.137 642.867V643.162C478.939 643.555 478.841 643.95 478.841 644.343C478.644 644.737 478.449 645.032 478.251 645.229C478.054 645.229 477.858 645.327 477.661 645.525L477.071 646.115C476.678 646.509 476.383 646.804 476.185 647.001C476.185 647.199 475.988 647.494 475.595 647.887C475.202 648.676 474.807 649.167 474.415 649.364C474.022 649.955 473.627 650.545 473.234 651.136C472.841 651.529 472.446 652.022 472.054 652.613C470.283 654.778 468.414 656.845 466.446 658.815C464.675 660.784 462.807 662.852 460.839 665.017C458.871 666.986 457.002 669.054 455.231 671.219C453.461 673.384 451.69 675.551 449.919 677.716C449.329 678.307 448.443 679.39 447.263 680.965C438.999 691.399 428.473 699.571 415.684 705.477H415.389C413.816 706.266 412.536 706.856 411.553 707.249C411.355 707.249 411.16 707.347 410.962 707.545C410.765 707.545 410.57 707.545 410.372 707.545C409.979 707.742 409.684 707.84 409.487 707.84C409.289 707.84 408.994 707.938 408.601 708.135C409.585 708.333 410.47 708.529 411.258 708.726C412.241 708.726 413.226 708.824 414.209 709.021C416.372 709.415 418.538 709.81 420.702 710.203C423.063 710.4 425.326 710.696 427.49 711.089C428.867 711.286 430.146 711.482 431.326 711.679C432.704 711.679 434.08 711.679 435.458 711.679C437.622 711.877 439.687 712.073 441.656 712.27C443.819 712.27 445.985 712.468 448.148 712.861C449.919 713.254 451.592 713.649 453.165 714.042C454.936 714.24 456.51 714.535 457.888 714.928C458.28 715.126 458.871 715.223 459.658 715.223C461.036 715.617 462.412 716.109 463.79 716.7C465.363 717.093 466.348 717.881 466.741 719.063C467.134 719.653 467.134 720.342 466.741 721.13C466.544 721.918 466.249 722.607 465.856 723.197V723.788C465.068 725.167 464.478 726.544 464.085 727.923V729.399L463.2 732.057V732.353C462.61 733.337 462.61 734.027 463.2 734.42L463.79 735.011L463.2 735.306C462.807 735.504 462.314 735.699 461.724 735.897C461.331 736.094 460.937 736.192 460.544 736.192C460.151 736.192 459.756 736.094 459.363 735.897L458.478 735.011C458.478 734.813 458.38 734.715 458.183 734.715C458.183 734.518 457.69 734.223 456.707 733.829H456.412C455.624 733.632 454.838 733.436 454.051 733.239C453.461 733.239 452.673 733.041 451.69 732.648C450.707 732.451 449.624 732.255 448.443 732.057C447.263 731.86 446.082 731.565 444.902 731.171C442.934 730.581 441.065 730.188 439.295 729.99C437.524 729.99 435.556 729.892 433.392 729.695C432.409 729.695 431.524 729.695 430.736 729.695C429.948 729.695 429.063 729.597 428.08 729.399C427.097 729.399 426.014 729.399 424.833 729.399C423.653 729.399 422.57 729.302 421.587 729.104C419.619 729.104 417.653 729.104 415.684 729.104C413.914 729.302 412.045 729.399 410.077 729.399C407.913 729.597 405.65 729.695 403.289 729.695C400.928 729.892 398.665 729.892 396.501 729.695C395.518 729.695 394.533 729.597 393.55 729.399C392.567 729.399 391.582 729.399 390.599 729.399H388.828C386.664 729.399 385.189 729.302 384.401 729.104C383.418 728.711 382.828 728.218 382.63 727.627C382.63 727.037 382.728 726.544 382.926 726.151C382.926 725.56 382.926 724.969 382.926 724.379C383.123 723.788 383.221 723.197 383.221 722.607V720.539C383.418 719.556 383.516 718.67 383.516 717.881C383.713 716.898 383.909 715.912 384.106 714.928L384.991 708.726V708.135C384.991 707.742 384.991 707.249 384.991 706.659C385.189 706.068 385.484 705.575 385.877 705.182C386.467 704.985 387.55 705.084 389.123 705.477H390.304C391.287 705.675 392.762 705.773 394.731 705.773C395.911 705.97 397.092 706.068 398.272 706.068C399.65 706.068 400.928 706.068 402.109 706.068C404.272 705.871 406.24 705.477 408.011 704.887C409.782 704.296 411.455 703.608 413.028 702.819C414.602 702.031 416.177 701.245 417.75 700.457C419.324 699.669 420.997 698.685 422.768 697.503L425.424 695.731C427.587 694.748 429.753 693.271 431.916 691.301C437.031 686.774 442.246 681.458 447.558 675.353C448.148 674.565 448.739 673.779 449.329 672.991C449.919 672.203 450.509 671.416 451.1 670.628L453.756 667.084C454.739 665.903 455.822 664.819 457.002 663.835C457.592 663.245 458.183 662.752 458.773 662.359C459.363 661.768 459.856 661.177 460.249 660.587C462.412 657.633 464.971 654.68 467.922 651.727C469.102 650.348 470.283 649.069 471.463 647.887C472.644 646.509 473.824 645.032 475.005 643.457C475.792 642.474 476.48 641.39 477.071 640.209C477.661 639.027 478.349 637.846 479.137 636.665C479.924 635.483 480.415 634.597 480.612 634.007C482.383 631.251 484.154 627.903 485.924 623.965C486.317 622.982 486.613 622.193 486.81 621.603C487.203 621.012 487.597 620.324 487.99 619.535C488.383 618.552 488.778 617.763 489.171 617.173C489.564 616.385 489.958 615.499 490.351 614.515C492.122 610.183 493.4 606.343 494.188 602.997C494.976 599.846 495.566 596.499 495.959 592.955C496.549 589.411 496.647 585.867 496.254 582.323C496.057 581.142 495.959 579.961 495.959 578.779C495.959 577.401 495.959 576.121 495.959 574.94C496.352 573.366 496.352 571.789 495.959 570.215V564.013C495.959 563.62 495.861 563.225 495.664 562.831C495.664 562.241 495.664 561.65 495.664 561.059C495.664 560.666 495.566 560.271 495.369 559.878C495.369 559.287 495.369 558.795 495.369 558.401C495.369 554.267 494.976 550.625 494.188 547.474C493.795 546.686 493.598 546.095 493.598 545.702C493.4 545.309 493.205 544.816 493.008 544.225C493.008 543.635 492.91 543.142 492.712 542.749C492.515 542.356 492.417 541.961 492.417 541.567C492.417 541.174 492.319 540.779 492.122 540.386C492.122 539.598 491.925 538.614 491.532 537.433C490.351 533.889 488.973 530.345 487.4 526.801C486.022 523.257 484.547 519.811 482.973 516.464C481.99 514.89 481.005 513.313 480.022 511.739C479.039 510.164 477.956 508.588 476.776 507.013C474.217 503.667 471.661 501.107 469.102 499.335C465.954 497.17 462.707 495.2 459.363 493.428C456.019 491.459 452.378 490.082 448.443 489.293C447.656 489.293 447.066 489.196 446.673 488.998C445.099 488.605 443.919 488.407 443.131 488.407C442.148 488.21 441.163 488.21 440.18 488.407C439.197 488.407 438.212 488.505 437.229 488.703C435.655 489.096 434.277 489.293 433.097 489.293C431.916 489.491 430.736 489.687 429.555 489.884C428.375 489.884 427.292 490.082 426.309 490.475C418.438 492.64 412.241 496.184 407.716 501.107C401.814 507.211 398.174 513.413 396.796 519.713C396.206 522.273 395.616 524.831 395.026 527.391C394.633 529.952 394.14 532.412 393.55 534.775C393.353 535.956 393.157 537.137 392.96 538.319C392.96 539.5 392.762 540.681 392.37 541.863C392.172 542.256 392.074 542.749 392.074 543.339C392.074 543.733 391.977 544.128 391.779 544.521C391.779 544.521 391.682 544.718 391.484 545.111C391.484 545.309 391.386 545.505 391.189 545.702C391.189 545.9 391.189 546.095 391.189 546.293C391.386 546.686 391.779 546.981 392.37 547.179C393.157 547.376 393.747 547.572 394.14 547.769C394.338 547.769 394.533 547.867 394.731 548.065C396.501 548.655 398.174 548.951 399.748 548.951H400.338C401.126 548.951 401.716 549.049 402.109 549.246H402.404H403.289H403.584V548.951V548.655C403.782 548.065 403.879 547.474 403.879 546.883C404.077 546.095 404.272 545.407 404.47 544.816C404.863 543.635 405.158 542.453 405.355 541.272C405.748 539.893 406.143 538.614 406.536 537.433C406.733 536.842 406.928 536.251 407.126 535.661C407.323 534.873 407.519 534.086 407.716 533.298C408.699 530.738 409.487 528.475 410.077 526.505C410.274 525.522 410.765 524.241 411.553 522.666L411.848 522.371C412.045 521.978 412.143 521.682 412.143 521.485C412.143 521.287 412.241 520.992 412.438 520.599C412.438 519.811 412.733 518.925 413.323 517.941C413.716 517.548 414.111 517.153 414.504 516.759C415.094 516.366 415.587 515.971 415.98 515.578C416.373 515.381 416.865 514.987 417.455 514.397C417.653 514.199 417.848 514.101 418.045 514.101C418.243 513.904 418.438 513.708 418.636 513.511C419.029 512.92 419.521 512.427 420.111 512.034C420.702 511.443 421.194 510.951 421.587 510.557C422.965 509.574 424.243 508.883 425.424 508.49C426.802 508.097 428.178 507.702 429.555 507.309C429.948 507.111 430.243 507.013 430.441 507.013C430.638 507.013 430.933 506.916 431.326 506.718C435.261 505.537 438.704 505.439 441.656 506.423C442.443 506.816 443.426 507.407 444.607 508.195C445 508.392 445.197 508.588 445.197 508.785C445.394 508.785 445.69 508.883 446.082 509.081C446.673 509.474 447.558 509.869 448.739 510.262C449.131 510.46 449.427 510.655 449.624 510.853C450.017 510.853 450.412 510.951 450.804 511.148C452.378 511.739 453.953 512.527 455.527 513.511C455.919 513.511 456.215 513.609 456.412 513.806C458.183 514.397 459.461 515.283 460.249 516.464C460.839 517.252 461.331 518.531 461.724 520.303V520.599C462.117 522.173 462.314 523.159 462.314 523.552C462.512 524.143 462.61 524.733 462.61 525.324C462.807 525.717 463.002 526.21 463.2 526.801C463.2 527.391 463.298 527.785 463.495 527.982C463.692 528.573 463.79 529.163 463.79 529.754C463.79 530.147 463.888 530.64 464.085 531.231C464.085 531.624 464.085 531.919 464.085 532.117C464.283 532.314 464.183 532.61 463.79 533.003C463.79 533.2 463.692 533.396 463.495 533.593H463.2C463.2 533.791 463.298 533.987 463.495 534.184V535.07C463.495 535.858 463.102 536.842 462.314 538.023C462.314 538.023 462.117 538.417 461.724 539.205C461.331 540.189 460.839 541.174 460.249 542.158C459.856 543.142 459.461 544.028 459.068 544.816C458.871 545.209 458.675 545.604 458.478 545.997C458.28 546.391 457.985 546.786 457.592 547.179C457.002 547.769 456.609 548.262 456.412 548.655C456.019 549.444 455.527 550.23 454.936 551.018C454.346 551.806 453.658 552.593 452.87 553.381C452.477 553.774 452.182 554.169 451.985 554.562C451.788 554.76 451.492 555.055 451.1 555.448C450.707 555.841 450.312 556.137 449.919 556.334C449.919 556.334 449.722 556.432 449.329 556.629C449.132 556.827 449.034 557.023 449.034 557.22V557.811C448.641 558.795 448.246 559.485 447.853 559.878L447.263 560.173C446.673 560.764 446.082 561.65 445.492 562.831V563.422C445.295 563.815 445.197 564.111 445.197 564.308C445.197 564.506 445 564.801 444.607 565.194C444.409 565.392 444.017 565.489 443.426 565.489H443.131C443.131 565.687 443.033 565.883 442.836 566.08C442.836 566.278 442.836 566.473 442.836 566.671C442.836 566.868 442.738 567.064 442.541 567.261L441.656 569.033L440.77 569.919C439.983 571.298 439.197 572.184 438.409 572.577C438.016 572.971 437.622 573.266 437.229 573.463C437.031 573.463 436.736 573.561 436.343 573.759C435.36 574.152 434.67 574.547 434.277 574.94C433.885 575.333 433.49 575.924 433.097 576.712C432.704 577.5 432.309 578.091 431.916 578.484C430.933 579.665 429.948 580.847 428.965 582.028C427.982 583.012 426.997 583.998 426.014 584.981L423.948 587.049C423.751 587.442 423.555 587.737 423.358 587.935C423.16 587.935 422.865 588.132 422.472 588.525C421.685 588.919 421.194 589.314 420.997 589.707C420.604 590.1 420.209 590.593 419.816 591.183C419.423 591.577 419.029 591.972 418.636 592.365C418.636 592.562 418.438 592.858 418.045 593.251C417.062 594.63 416.077 596.007 415.094 597.385C414.111 598.764 413.126 600.141 412.143 601.52C411.553 602.111 411.258 602.604 411.258 602.997C410.865 603.785 410.57 604.276 410.372 604.473C410.175 604.671 410.077 604.867 410.077 605.064C409.88 605.064 409.782 605.162 409.782 605.359V605.655C409.585 605.852 409.487 606.048 409.487 606.245C408.504 610.773 406.733 614.613 404.175 617.763C403.782 618.157 403.487 618.649 403.289 619.24C403.289 619.831 403.092 620.519 402.699 621.307L401.814 623.965C401.421 624.754 401.026 625.344 400.633 625.737C400.436 626.328 400.24 626.919 400.043 627.509C399.845 627.903 399.55 628.395 399.157 628.986C398.96 629.379 398.862 629.774 398.862 630.167C398.862 630.365 398.765 630.66 398.567 631.053C398.567 631.447 398.37 632.432 397.977 634.007C397.584 634.991 397.289 636.172 397.092 637.551C396.894 638.732 396.699 639.913 396.501 641.095C396.501 641.685 396.404 642.276 396.206 642.867C396.206 643.457 396.206 643.95 396.206 644.343L395.616 647.001C395.419 648.576 395.223 650.152 395.026 651.727C394.828 653.106 394.633 654.582 394.435 656.157C394.238 657.141 394.043 658.126 393.845 659.11C393.845 659.898 393.845 660.784 393.845 661.768C394.043 662.556 394.043 663.343 393.845 664.131C393.648 664.721 393.452 665.41 393.255 666.198C393.255 666.591 393.157 666.986 392.96 667.379C392.96 667.773 392.862 668.265 392.665 668.856C392.665 669.249 392.665 669.742 392.665 670.333C392.467 670.726 392.37 671.121 392.37 671.514C392.37 671.712 392.272 672.007 392.074 672.4C391.682 674.37 391.386 675.747 391.189 676.535C390.992 676.928 390.894 677.223 390.894 677.421C390.894 677.618 390.796 677.814 390.599 678.011C390.401 678.405 390.304 678.897 390.304 679.488C390.304 679.881 390.206 680.276 390.009 680.669C390.009 681.653 389.911 682.441 389.713 683.032C389.713 683.425 389.516 684.016 389.123 684.804C388.73 685.985 388.533 686.871 388.533 687.462V689.529C388.533 690.711 388.435 691.695 388.238 692.483V694.55V697.503C387.845 698.882 387.45 699.669 387.057 699.866V700.161V700.457H386.762C386.762 700.654 386.565 700.752 386.172 700.752C386.172 700.555 386.074 700.457 385.877 700.457C385.679 700.457 385.484 700.359 385.287 700.161C385.089 700.161 384.991 700.064 384.991 699.866C384.008 699.078 383.614 697.799 383.811 696.027C383.811 695.634 383.811 695.338 383.811 695.141C384.008 694.943 384.106 694.648 384.106 694.255C384.499 692.68 384.696 691.597 384.696 691.006V688.939C384.499 688.151 384.401 687.069 384.401 685.69C384.991 683.327 385.484 681.26 385.877 679.488C386.467 677.519 387.155 675.747 387.943 674.172C388.336 672.793 388.73 671.121 389.123 669.151C389.123 668.758 389.123 668.363 389.123 667.97C389.321 667.379 389.418 666.789 389.418 666.198C389.616 665.805 389.713 665.41 389.713 665.017C389.713 664.624 389.811 664.229 390.009 663.835C390.009 662.063 389.911 660.784 389.713 659.996V658.519C389.713 657.536 389.713 656.747 389.713 656.157C389.911 655.566 390.206 654.878 390.599 654.089C390.796 653.499 390.894 652.613 390.894 651.431V649.955C391.287 648.971 391.779 648.478 392.37 648.478C392.172 647.887 392.074 647.395 392.074 647.001C392.272 646.608 392.37 646.213 392.37 645.82C392.567 645.427 392.665 644.836 392.665 644.048C392.862 643.851 392.96 643.36 392.96 642.571C392.96 640.602 393.058 639.125 393.255 638.141C393.255 637.551 393.452 637.058 393.845 636.665C394.238 635.877 394.435 635.483 394.435 635.483V634.597C394.238 634.204 394.14 633.711 394.14 633.121C394.14 632.333 394.338 631.349 394.731 630.167C395.123 629.379 395.321 628.593 395.321 627.805C395.714 626.821 396.304 625.737 397.092 624.556C397.484 623.768 397.682 623.277 397.682 623.079C398.075 622.489 398.37 621.898 398.567 621.307C398.765 620.717 399.06 620.126 399.453 619.535C399.65 618.354 400.043 617.271 400.633 616.287C401.026 615.499 401.616 614.515 402.404 613.333C403.191 612.35 403.682 611.266 403.879 610.085C404.272 609.494 404.567 608.903 404.765 608.313C404.962 607.525 405.257 606.836 405.65 606.245C406.043 605.064 406.338 604.276 406.536 603.883C406.928 602.899 407.323 602.111 407.716 601.52C408.109 600.929 408.504 600.241 408.897 599.453L409.782 598.567C410.175 598.174 410.372 597.878 410.372 597.681C410.57 597.288 410.765 596.893 410.962 596.499C411.355 595.909 411.848 595.318 412.438 594.727C413.028 593.939 413.521 593.251 413.914 592.66C414.897 591.676 415.782 590.79 416.57 590.002C417.357 589.018 418.143 588.033 418.931 587.049C419.128 586.656 419.619 586.261 420.406 585.867C420.406 585.67 420.406 585.572 420.406 585.572C420.604 585.572 420.702 585.474 420.702 585.277C421.292 585.079 421.685 584.686 421.882 584.095C422.079 583.898 422.177 583.8 422.177 583.8C422.177 583.603 422.275 583.407 422.472 583.209C423.063 582.421 423.751 581.733 424.538 581.142C424.931 580.749 425.226 580.551 425.424 580.551C425.621 580.354 425.817 580.059 426.014 579.665L426.604 578.779C427.392 577.991 428.08 577.303 428.67 576.712C429.26 575.924 429.948 575.138 430.736 574.349L431.916 573.463L435.458 569.919C436.048 569.329 436.541 568.936 436.934 568.738C437.326 568.147 437.819 567.557 438.409 566.966C438.999 566.375 439.492 565.785 439.885 565.194V564.899C440.082 564.701 440.18 564.603 440.18 564.603C440.18 564.406 440.278 564.21 440.475 564.013C440.475 564.013 440.672 563.815 441.065 563.422C441.263 563.422 441.36 563.324 441.36 563.127C441.558 562.929 441.656 562.734 441.656 562.536C441.853 562.536 441.951 562.339 441.951 561.945C442.344 560.962 442.836 560.076 443.426 559.287C444.214 558.304 444.804 557.613 445.197 557.22C445.394 557.22 445.492 557.122 445.492 556.925C445.69 556.925 445.885 556.827 446.082 556.629V556.334L446.378 556.039V555.448C446.575 555.251 446.673 555.055 446.673 554.857C446.673 554.66 446.77 554.464 446.968 554.267C448.148 552.495 449.427 551.216 450.804 550.427C451.197 550.23 451.493 549.935 451.69 549.541V549.246C451.887 548.655 452.378 547.769 453.165 546.588C453.363 546.391 453.461 546.195 453.461 545.997C453.658 545.8 453.854 545.604 454.051 545.407C454.444 544.816 454.838 544.225 455.231 543.635C455.822 543.044 456.215 542.256 456.412 541.272L456.707 540.977C456.707 540.386 457.002 539.795 457.592 539.205C457.985 538.812 458.28 538.417 458.478 538.023C458.675 537.63 458.871 537.235 459.068 536.842C459.068 536.645 459.166 536.449 459.363 536.251C459.756 535.463 459.953 534.873 459.953 534.479C459.953 533.691 459.856 533.101 459.658 532.707V531.821C459.461 531.033 459.363 530.345 459.363 529.754C459.363 528.966 459.265 528.18 459.068 527.391C459.068 526.013 458.97 525.029 458.773 524.438C458.773 523.059 458.576 522.075 458.183 521.485C458.183 521.485 458.085 521.387 457.888 521.189C457.888 520.992 457.79 520.894 457.592 520.894C457.592 520.697 457.592 520.501 457.592 520.303C457.592 520.303 457.592 520.008 457.592 519.417V518.827C457.2 518.236 456.609 517.645 455.822 517.055C455.624 517.055 455.429 516.957 455.231 516.759C454.248 516.366 453.363 515.971 452.575 515.578C451.985 515.185 451.197 514.79 450.214 514.397C449.427 514.004 448.936 513.806 448.739 513.806L447.263 512.92C446.475 512.527 445.69 512.232 444.902 512.034C444.114 511.641 443.329 511.246 442.541 510.853C441.163 510.262 440.082 509.869 439.295 509.671C438.507 509.474 437.524 509.474 436.343 509.671L434.868 509.967C432.9 510.36 430.933 510.853 428.965 511.443C427.194 511.837 425.521 512.723 423.948 514.101C421.784 516.071 419.914 518.039 418.341 520.008C416.767 521.78 415.487 523.65 414.504 525.619C413.716 526.998 413.028 528.868 412.438 531.231C412.438 531.624 412.34 531.919 412.143 532.117C412.143 532.117 412.143 532.314 412.143 532.707C411.75 534.282 411.355 535.759 410.962 537.137C410.57 538.319 410.175 539.698 409.782 541.272C409.585 541.665 409.289 542.453 408.897 543.635C408.109 545.8 407.618 547.769 407.421 549.541V550.132C407.814 551.313 407.716 552.199 407.126 552.79C406.536 553.381 405.552 553.479 404.175 553.085H403.879C402.896 553.085 402.206 552.988 401.814 552.79C399.65 552.79 397.387 552.495 395.026 551.904C394.633 551.707 394.338 551.609 394.14 551.609C393.943 551.609 393.648 551.511 393.255 551.313C392.074 550.92 391.386 550.723 391.189 550.723C390.992 550.525 390.796 550.427 390.599 550.427C390.401 550.625 390.304 550.92 390.304 551.313C390.304 551.511 390.206 551.707 390.009 551.904V552.199L389.713 553.381L389.123 552.495C388.926 552.297 388.828 552.102 388.828 551.904C388.238 551.707 387.943 551.216 387.943 550.427C387.745 550.034 387.648 549.837 387.648 549.837C387.845 549.639 387.943 549.444 387.943 549.246C387.943 549.049 388.04 548.853 388.238 548.655C388.238 548.262 388.14 547.867 387.943 547.474C387.745 547.081 387.55 546.686 387.352 546.293C387.155 546.293 387.057 546.195 387.057 545.997L386.467 545.111H387.352H388.238C388.238 544.914 388.14 544.816 387.943 544.816C387.943 544.619 387.943 544.423 387.943 544.225C387.943 542.847 388.14 541.174 388.533 539.205C389.123 537.826 389.418 536.349 389.418 534.775L390.304 530.345C390.501 529.557 390.697 528.868 390.894 528.277C391.091 527.489 391.287 526.703 391.484 525.915C391.877 524.931 392.074 524.045 392.074 523.257C392.272 522.273 392.567 521.287 392.96 520.303C393.157 519.91 393.255 519.515 393.255 519.122C393.255 518.729 393.353 518.334 393.55 517.941C393.943 516.562 394.238 515.283 394.435 514.101C394.828 512.92 395.321 511.739 395.911 510.557C396.501 509.376 397.189 508.195 397.977 507.013C398.765 505.832 399.65 504.651 400.633 503.469L401.518 502.288C402.502 500.909 403.487 499.728 404.47 498.744C405.65 497.563 406.928 496.479 408.306 495.495C409.88 494.512 411.258 493.626 412.438 492.837C413.619 491.854 414.897 490.968 416.275 490.179L416.865 489.884C418.438 489.096 419.619 488.605 420.406 488.407C420.997 488.407 421.489 488.31 421.882 488.112C422.67 488.112 423.26 488.014 423.653 487.817C423.653 487.817 423.751 487.719 423.948 487.521C424.145 487.521 424.243 487.521 424.243 487.521C424.441 487.324 424.736 487.226 425.129 487.226H426.014H426.604C426.802 487.226 426.899 487.226 426.899 487.226C427.097 487.029 427.292 486.931 427.49 486.931C427.687 486.733 427.982 486.635 428.375 486.635C429.163 486.242 429.948 486.045 430.736 486.045C431.326 486.045 431.916 486.045 432.507 486.045C433.294 485.847 433.982 485.749 434.573 485.749C435.556 485.552 436.441 485.454 437.229 485.454C438.016 485.257 438.902 485.159 439.885 485.159C443.033 485.159 446.673 485.749 450.804 486.931C451.197 487.128 451.493 487.324 451.69 487.521C452.083 487.521 452.477 487.619 452.87 487.817C455.624 488.407 458.183 489.293 460.544 490.475C461.331 490.868 462.019 491.361 462.61 491.951C463.397 492.345 464.085 492.74 464.675 493.133C465.266 493.526 465.758 493.921 466.151 494.314C466.741 494.707 467.332 495.102 467.922 495.495L468.512 495.791C469.693 496.579 470.873 497.365 472.054 498.153C473.431 498.942 474.612 499.828 475.595 500.811C476.185 501.402 476.678 501.993 477.071 502.583C477.661 503.174 478.153 503.667 478.546 504.06L478.841 504.355C479.039 504.553 479.137 504.749 479.137 504.946C479.137 504.946 479.234 505.044 479.432 505.241C480.612 506.225 481.4 507.309 481.793 508.49C481.793 508.688 481.793 508.785 481.793 508.785C481.99 508.785 482.088 508.883 482.088 509.081V509.376C482.088 509.967 482.186 510.36 482.383 510.557L482.973 511.148C483.563 511.739 484.056 512.329 484.449 512.92L485.334 514.692C485.532 514.89 485.629 515.085 485.629 515.283C485.827 515.48 486.022 515.676 486.22 515.873C486.613 516.464 487.007 517.35 487.4 518.531C487.793 519.32 488.088 519.811 488.285 520.008C488.285 520.206 488.483 520.697 488.876 521.485C489.663 522.273 490.056 522.961 490.056 523.552C490.254 523.75 490.351 524.143 490.351 524.733C489.958 525.127 489.958 525.422 490.351 525.619C490.351 526.013 490.549 526.603 490.942 527.391L491.237 528.277C492.024 529.852 492.515 531.133 492.712 532.117C492.91 532.51 493.008 532.905 493.008 533.298C493.205 533.691 493.4 534.086 493.598 534.479L494.483 536.251C494.483 536.645 494.483 536.94 494.483 537.137C494.68 537.137 494.778 537.335 494.778 537.728C494.976 538.319 495.171 538.909 495.369 539.5C495.566 539.893 495.761 540.386 495.959 540.977C495.959 541.961 496.057 542.651 496.254 543.044C496.254 543.437 496.254 543.93 496.254 544.521C496.451 544.914 496.549 545.309 496.549 545.702C497.532 549.246 498.025 552.593 498.025 555.743C498.222 556.334 498.32 557.023 498.32 557.811C498.32 558.401 498.517 559.09 498.91 559.878C499.303 560.862 499.403 561.65 499.205 562.241C499.205 562.634 499.107 563.225 498.91 564.013V564.603C498.91 565.982 499.008 566.966 499.205 567.557V569.033C499.403 569.624 499.5 570.608 499.5 571.987V573.759V575.826V578.779C499.5 579.37 499.598 579.863 499.795 580.256ZM388.533 708.726H388.238C388.04 709.119 387.943 710.105 387.943 711.679V713.156C387.745 713.549 387.648 714.042 387.648 714.633C387.648 715.026 387.55 715.421 387.352 715.814C387.155 716.995 386.959 718.177 386.762 719.358C386.762 720.539 386.762 721.721 386.762 722.902L386.467 723.493V726.151C386.664 726.544 387.057 726.839 387.648 727.037H393.55H397.387H399.453C402.206 727.234 404.765 727.332 407.126 727.332C409.487 727.332 411.946 727.135 414.504 726.741C417.258 726.544 419.914 726.544 422.472 726.741C425.031 726.741 427.687 726.839 430.441 727.037H433.097C436.441 727.234 439.687 727.627 442.836 728.218C446.18 728.809 449.722 729.597 453.461 730.581C453.853 730.581 454.444 730.778 455.231 731.171C455.624 731.369 456.117 731.565 456.707 731.762C457.495 731.96 458.085 731.96 458.478 731.762L458.773 732.057L462.61 718.767C462.217 718.57 461.724 718.472 461.134 718.472C460.741 718.472 460.346 718.374 459.953 718.177C458.97 717.784 458.085 717.488 457.297 717.291C456.51 717.093 455.624 716.898 454.641 716.7C453.068 716.307 451.592 716.109 450.214 716.109C448.836 715.912 447.361 715.716 445.787 715.519H445.197L438.114 714.633C436.146 714.435 434.18 714.337 432.212 714.337C430.441 714.14 428.473 713.845 426.309 713.451C424.736 713.058 423.063 712.861 421.292 712.861C419.521 712.663 417.848 712.368 416.275 711.975C412.34 711.384 408.209 710.793 403.879 710.203C399.748 709.612 395.616 709.119 391.484 708.726L388.533 708.431V708.726Z" fill="white"/>
</g>
</g>
<defs>
<clipPath id="clip0_140_203">
<rect width="878" height="886" fill="white"/>
</clipPath>
</defs>
</svg>
