<svg width="884" height="877" viewBox="0 0 884 877" fill="none" xmlns="http://www.w3.org/2000/svg">
<g clip-path="url(#clip0_140_180)">
<mask id="mask0_140_180" style="mask-type:luminance" maskUnits="userSpaceOnUse" x="0" y="0" width="884" height="877">
<path d="M884 0H0V877H884V0Z" fill="white"/>
</mask>
<g mask="url(#mask0_140_180)">
<path d="M884 -7.38525H1.8457V878.846H884V-7.38525Z" fill="#7036CC"/>
<path d="M517.113 399.173C517.605 400.405 517.605 401.758 517.113 403.235C516.867 404.219 516.744 405.696 516.744 407.666V408.774C516.744 410.497 516.62 411.728 516.374 412.467C516.374 412.96 516.251 413.329 516.005 413.574C516.005 413.82 516.005 414.189 516.005 414.682V417.267C516.005 418.744 515.882 419.852 515.636 420.591C515.636 421.822 515.391 423.421 514.898 425.391L514.529 426.868V427.237V427.607V428.345C514.529 429.329 514.405 429.946 514.16 430.191C514.16 430.437 514.036 430.684 513.791 430.93C513.791 430.93 513.791 431.054 513.791 431.299V432.038C513.298 433.022 512.929 434.008 512.683 434.992C512.438 435.73 512.191 436.714 511.945 437.946C511.207 439.916 510.345 441.884 509.362 443.854C508.378 445.577 507.392 447.423 506.409 449.393C506.409 449.639 506.285 449.762 506.04 449.762C506.04 449.762 506.04 449.886 506.04 450.132C505.056 451.609 504.563 452.716 504.563 453.455C504.318 454.439 504.07 455.301 503.825 456.04C503.58 456.778 503.21 457.641 502.718 458.625C502.718 459.118 502.472 459.609 501.98 460.102C501.487 461.579 501.118 462.563 500.872 463.056L499.765 464.164C499.765 464.409 499.519 464.778 499.027 465.271C499.027 465.517 498.903 465.764 498.658 466.01C498.658 466.01 498.658 466.255 498.658 466.748C498.412 466.994 498.288 467.241 498.288 467.487C498.288 467.732 498.165 467.98 497.919 468.225C496.688 470.441 495.581 472.287 494.597 473.764L494.228 474.134C493.736 475.118 493.245 475.856 492.752 476.349C492.507 476.595 492.259 476.719 492.014 476.719C492.014 476.719 491.89 476.842 491.645 477.088L491.276 477.457V477.826C491.03 478.319 490.906 478.81 490.906 479.303C490.661 479.796 490.414 480.166 490.168 480.411C489.923 480.411 489.676 480.535 489.43 480.78L488.692 481.519C488.199 482.012 487.83 482.381 487.585 482.627C487.585 482.872 487.339 483.242 486.846 483.734C486.354 484.719 485.863 485.335 485.37 485.581C484.877 486.319 484.386 487.058 483.894 487.796C483.401 488.289 482.91 488.904 482.417 489.643C480.202 492.351 477.864 494.936 475.404 497.397C473.19 499.858 470.851 502.443 468.391 505.152C465.931 507.613 463.593 510.198 461.378 512.906C459.164 515.615 456.949 518.322 454.734 521.03C453.996 521.769 452.889 523.122 451.413 525.092C441.078 538.14 427.914 548.356 411.919 555.741H411.549C409.58 556.725 407.982 557.463 406.751 557.956C406.506 557.956 406.258 558.08 406.013 558.326C405.767 558.326 405.52 558.326 405.275 558.326C404.782 558.571 404.413 558.695 404.167 558.695C403.922 558.695 403.553 558.819 403.06 559.064C404.291 559.31 405.398 559.557 406.382 559.803C407.613 559.803 408.842 559.926 410.073 560.172C412.78 560.665 415.486 561.156 418.193 561.649C421.146 561.895 423.975 562.264 426.683 562.757C428.405 563.002 430.005 563.25 431.481 563.495C433.203 563.495 434.927 563.495 436.648 563.495C439.356 563.741 441.939 563.988 444.4 564.234C447.107 564.234 449.812 564.479 452.52 564.972C454.734 565.465 456.825 565.956 458.795 566.449C461.009 566.695 462.978 567.064 464.7 567.557C465.193 567.803 465.931 567.927 466.915 567.927C468.637 568.419 470.36 569.034 472.082 569.773C474.051 570.266 475.28 571.25 475.773 572.727C476.266 573.465 476.266 574.328 475.773 575.312C475.528 576.296 475.159 577.158 474.666 577.897V578.635C473.682 580.358 472.944 582.082 472.451 583.805V585.651L471.344 588.974V589.344C470.606 590.575 470.606 591.436 471.344 591.929L472.082 592.667L471.344 593.036C470.851 593.282 470.237 593.529 469.498 593.775C469.006 594.02 468.515 594.144 468.022 594.144C467.529 594.144 467.038 594.02 466.546 593.775L465.438 592.667C465.438 592.422 465.315 592.298 465.069 592.298C465.069 592.052 464.455 591.683 463.224 591.19H462.855C461.871 590.945 460.886 590.697 459.902 590.452C459.164 590.452 458.18 590.206 456.949 589.713C455.718 589.467 454.365 589.22 452.889 588.974C451.412 588.729 449.936 588.36 448.46 587.867C446 587.128 443.661 586.635 441.447 586.39C439.232 586.39 436.772 586.266 434.065 586.02C432.834 586.02 431.726 586.02 430.743 586.02C429.759 586.02 428.652 585.897 427.421 585.651C426.19 585.651 424.837 585.651 423.361 585.651C421.884 585.651 420.532 585.527 419.301 585.282C416.841 585.282 414.379 585.282 411.919 585.282C409.704 585.527 407.366 585.651 404.906 585.651C402.198 585.897 399.369 586.02 396.416 586.02C393.463 586.266 390.634 586.266 387.927 586.02C386.696 586.02 385.467 585.897 384.236 585.651C383.005 585.651 381.776 585.651 380.545 585.651H378.33C375.623 585.651 373.777 585.527 372.794 585.282C371.563 584.789 370.825 584.174 370.579 583.436C370.579 582.697 370.703 582.082 370.948 581.589C370.948 580.851 370.948 580.112 370.948 579.374C371.194 578.635 371.317 577.897 371.317 577.158V574.573C371.563 573.342 371.686 572.234 371.686 571.25C371.932 570.018 372.179 568.789 372.425 567.557L373.532 559.803V559.064C373.532 558.571 373.532 557.956 373.532 557.218C373.777 556.479 374.146 555.864 374.639 555.372C375.377 555.126 376.73 555.248 378.699 555.741H380.176C381.407 555.986 383.252 556.11 385.712 556.11C387.189 556.356 388.665 556.479 390.142 556.479C391.863 556.479 393.463 556.479 394.94 556.479C397.647 556.234 400.107 555.741 402.322 555.002C404.537 554.264 406.627 553.402 408.597 552.417C410.566 551.433 412.533 550.447 414.502 549.463C416.471 548.479 418.562 547.248 420.777 545.771L424.099 543.555C426.806 542.324 429.512 540.477 432.219 538.016C438.618 532.354 445.138 525.707 451.782 518.076C452.52 517.092 453.258 516.106 453.996 515.122C454.734 514.138 455.473 513.152 456.211 512.168L459.533 507.737C460.764 506.26 462.116 504.906 463.593 503.675C464.331 502.936 465.069 502.321 465.807 501.828C466.546 501.09 467.16 500.351 467.653 499.613C470.36 495.92 473.559 492.228 477.25 488.535C478.726 486.812 480.202 485.212 481.679 483.734C483.155 482.012 484.632 480.166 486.108 478.196C487.092 476.964 487.954 475.611 488.692 474.134C489.43 472.657 490.292 471.18 491.276 469.702C492.259 468.225 492.876 467.118 493.121 466.379C495.336 462.932 497.55 458.748 499.765 453.824C500.258 452.593 500.627 451.609 500.872 450.87C501.365 450.132 501.856 449.269 502.349 448.285C502.841 447.054 503.332 446.07 503.825 445.331C504.318 444.347 504.809 443.239 505.301 442.008C507.516 436.593 509.116 431.792 510.1 427.607C511.083 423.668 511.822 419.483 512.314 415.052C513.053 410.62 513.176 406.189 512.683 401.758C512.438 400.281 512.314 398.804 512.314 397.327C512.314 395.604 512.314 394.004 512.314 392.527C512.807 390.556 512.807 388.588 512.314 386.618V378.864C512.314 378.371 512.191 377.88 511.945 377.387C511.945 376.648 511.945 375.91 511.945 375.171C511.945 374.678 511.822 374.187 511.576 373.694C511.576 372.956 511.576 372.341 511.576 371.848C511.576 366.678 511.083 362.123 510.1 358.185C509.607 357.201 509.362 356.462 509.362 355.969C509.116 355.476 508.869 354.862 508.623 354.123C508.623 353.385 508.5 352.77 508.254 352.277C508.009 351.784 507.885 351.293 507.885 350.8C507.885 350.307 507.761 349.816 507.516 349.323C507.516 348.339 507.271 347.107 506.778 345.63C505.301 341.199 503.58 336.768 501.61 332.337C499.889 327.905 498.043 323.598 496.074 319.412C494.843 317.442 493.614 315.474 492.383 313.504C491.152 311.534 489.799 309.566 488.323 307.596C485.124 303.41 481.924 300.211 478.726 297.995C474.79 295.287 470.729 292.825 466.546 290.61C462.362 288.149 457.811 286.424 452.889 285.44C451.905 285.44 451.167 285.316 450.674 285.071C448.705 284.578 447.229 284.332 446.245 284.332C445.014 284.087 443.785 284.087 442.554 284.332C441.323 284.332 440.094 284.456 438.863 284.702C436.894 285.195 435.172 285.44 433.696 285.44C432.219 285.686 430.743 285.933 429.266 286.179C427.79 286.179 426.437 286.424 425.206 286.917C415.364 289.626 407.613 294.057 401.953 300.211C394.571 307.842 390.018 315.596 388.296 323.474C387.558 326.674 386.82 329.875 386.081 333.075C385.589 336.275 384.974 339.353 384.236 342.307C383.99 343.784 383.743 345.261 383.498 346.738C383.498 348.215 383.252 349.692 382.759 351.169C382.514 351.662 382.39 352.277 382.39 353.015C382.39 353.508 382.267 353.999 382.021 354.492C382.021 354.492 381.898 354.738 381.652 355.231C381.652 355.476 381.529 355.724 381.283 355.969C381.283 356.215 381.283 356.462 381.283 356.708C381.529 357.201 382.021 357.57 382.759 357.816C383.743 358.061 384.481 358.309 384.974 358.554C385.22 358.554 385.467 358.678 385.712 358.924C387.927 359.662 390.018 360.031 391.987 360.031H392.725C393.709 360.031 394.447 360.155 394.94 360.401H395.309H396.416H396.785V360.031V359.662C397.031 358.924 397.154 358.185 397.154 357.447C397.4 356.462 397.647 355.6 397.893 354.862C398.385 353.385 398.755 351.908 399 350.431C399.493 348.708 399.984 347.107 400.476 345.63C400.722 344.892 400.969 344.153 401.215 343.415C401.46 342.43 401.707 341.444 401.953 340.46C403.184 337.261 404.167 334.428 404.906 331.967C405.151 330.736 405.767 329.137 406.751 327.167L407.12 326.798C407.366 326.305 407.489 325.935 407.489 325.69C407.489 325.444 407.613 325.075 407.858 324.582C407.858 323.598 408.228 322.49 408.966 321.259C409.458 320.766 409.949 320.275 410.442 319.782C411.18 319.289 411.795 318.798 412.288 318.305C412.78 318.059 413.395 317.566 414.133 316.828C414.379 316.582 414.626 316.458 414.871 316.458C415.117 316.213 415.364 315.965 415.61 315.72C416.102 314.981 416.717 314.366 417.455 313.873C418.193 313.135 418.808 312.52 419.301 312.027C421.022 310.796 422.623 309.935 424.099 309.442C425.821 308.949 427.545 308.458 429.266 307.965C429.759 307.72 430.128 307.596 430.374 307.596C430.619 307.596 430.988 307.472 431.481 307.227C436.403 305.75 440.709 305.626 444.4 306.857C445.383 307.35 446.614 308.089 448.091 309.073C448.583 309.319 448.829 309.566 448.829 309.812C449.074 309.812 449.443 309.935 449.936 310.181C450.674 310.674 451.782 311.165 453.258 311.658C453.751 311.903 454.12 312.151 454.365 312.396C454.858 312.396 455.349 312.52 455.842 312.766C457.811 313.504 459.778 314.488 461.747 315.72C462.24 315.72 462.609 315.843 462.855 316.089C465.069 316.828 466.669 317.935 467.653 319.412C468.391 320.396 469.006 321.997 469.498 324.213V324.582C469.991 326.552 470.237 327.782 470.237 328.275C470.482 329.013 470.606 329.752 470.606 330.49C470.851 330.983 471.099 331.598 471.344 332.337C471.344 333.075 471.468 333.568 471.713 333.814C471.959 334.552 472.082 335.291 472.082 336.029C472.082 336.522 472.206 337.137 472.451 337.876C472.451 338.369 472.451 338.738 472.451 338.983C472.697 339.229 472.575 339.598 472.082 340.091C472.082 340.337 471.959 340.584 471.713 340.83H471.344C471.344 341.075 471.468 341.323 471.713 341.568V342.676C471.713 343.66 471.22 344.892 470.237 346.369C470.237 346.369 469.991 346.862 469.498 347.846C469.006 349.077 468.391 350.307 467.653 351.538C467.16 352.77 466.669 353.878 466.177 354.862C465.931 355.355 465.684 355.846 465.438 356.339C465.193 356.832 464.824 357.323 464.331 357.816C463.593 358.554 463.1 359.169 462.855 359.662C462.362 360.646 461.747 361.632 461.009 362.616C460.271 363.6 459.409 364.586 458.425 365.57C457.933 366.063 457.564 366.554 457.318 367.047C457.073 367.293 456.704 367.662 456.211 368.155C455.718 368.648 455.227 369.017 454.734 369.263C454.734 369.263 454.489 369.387 453.996 369.632C453.751 369.878 453.627 370.125 453.627 370.371V371.109C453.134 372.341 452.643 373.201 452.151 373.694L451.413 374.063C450.674 374.802 449.936 375.91 449.198 377.387V378.125C448.952 378.618 448.829 378.987 448.829 379.233C448.829 379.479 448.583 379.848 448.091 380.341C447.845 380.586 447.352 380.71 446.614 380.71H446.245C446.245 380.956 446.121 381.203 445.876 381.449C445.876 381.694 445.876 381.942 445.876 382.187C445.876 382.433 445.752 382.68 445.507 382.926L444.4 385.141L443.292 386.249C442.309 387.972 441.323 389.079 440.339 389.572C439.847 390.065 439.356 390.435 438.863 390.68C438.618 390.68 438.248 390.804 437.756 391.049C436.525 391.542 435.665 392.034 435.172 392.527C434.679 393.019 434.188 393.758 433.696 394.742C433.203 395.726 432.712 396.465 432.219 396.958C430.988 398.435 429.759 399.912 428.528 401.389C427.297 402.62 426.068 403.85 424.837 405.081L422.253 407.666C422.008 408.159 421.761 408.529 421.515 408.774C421.27 408.774 420.901 409.02 420.408 409.513C419.424 410.006 418.808 410.497 418.562 410.99C418.07 411.483 417.579 412.097 417.086 412.836C416.593 413.329 416.102 413.82 415.61 414.313C415.61 414.559 415.364 414.928 414.871 415.421C413.64 417.143 412.411 418.868 411.18 420.591C409.949 422.313 408.72 424.038 407.489 425.76C406.751 426.499 406.382 427.114 406.382 427.607C405.889 428.591 405.52 429.207 405.275 429.453C405.029 429.698 404.906 429.946 404.906 430.191C404.66 430.191 404.537 430.315 404.537 430.561V430.93C404.291 431.175 404.167 431.423 404.167 431.668C402.936 437.331 400.722 442.131 397.524 446.07C397.031 446.563 396.662 447.177 396.416 447.916C396.416 448.655 396.171 449.517 395.678 450.501L394.571 453.824C394.078 454.808 393.587 455.547 393.094 456.04C392.849 456.778 392.602 457.517 392.356 458.255C392.111 458.748 391.742 459.363 391.249 460.102C391.003 460.595 390.88 461.086 390.88 461.579C390.88 461.824 390.756 462.194 390.511 462.687C390.511 463.179 390.265 464.409 389.772 466.379C389.28 467.611 388.911 469.088 388.665 470.81C388.42 472.287 388.172 473.764 387.927 475.241C387.927 475.98 387.803 476.719 387.558 477.457C387.558 478.196 387.558 478.81 387.558 479.303L386.82 482.627C386.574 484.597 386.327 486.565 386.081 488.535C385.836 490.258 385.589 492.104 385.343 494.074C385.098 495.305 384.85 496.535 384.605 497.767C384.605 498.751 384.605 499.858 384.605 501.09C384.85 502.074 384.85 503.06 384.605 504.044C384.36 504.782 384.112 505.645 383.867 506.629C383.867 507.122 383.743 507.613 383.498 508.106C383.498 508.599 383.374 509.214 383.129 509.952C383.129 510.445 383.129 511.06 383.129 511.799C382.883 512.291 382.759 512.783 382.759 513.276C382.759 513.521 382.636 513.89 382.39 514.383C381.898 516.844 381.529 518.569 381.283 519.553C381.038 520.046 380.914 520.415 380.914 520.661C380.914 520.906 380.79 521.154 380.545 521.399C380.299 521.892 380.176 522.507 380.176 523.246C380.176 523.739 380.052 524.23 379.807 524.723C379.807 525.954 379.683 526.938 379.438 527.677C379.438 528.17 379.192 528.908 378.699 529.892C378.207 531.369 377.961 532.477 377.961 533.216V535.801C377.961 537.278 377.838 538.509 377.592 539.493V542.078V545.771C377.099 547.493 376.608 548.479 376.116 548.725V549.094V549.463H375.747C375.747 549.709 375.501 549.833 375.008 549.833C375.008 549.587 374.885 549.463 374.639 549.463C374.394 549.463 374.146 549.34 373.901 549.094C373.656 549.094 373.532 548.97 373.532 548.725C372.301 547.741 371.81 546.14 372.056 543.924C372.056 543.431 372.056 543.062 372.056 542.817C372.301 542.571 372.425 542.202 372.425 541.709C372.917 539.739 373.163 538.385 373.163 537.647V535.062C372.917 534.078 372.794 532.723 372.794 531C373.532 528.046 374.146 525.461 374.639 523.246C375.377 520.785 376.239 518.569 377.223 516.599C377.716 514.876 378.207 512.783 378.699 510.321C378.699 509.828 378.699 509.337 378.699 508.844C378.945 508.106 379.068 507.367 379.068 506.629C379.314 506.136 379.438 505.645 379.438 505.152C379.438 504.659 379.561 504.168 379.807 503.675C379.807 501.459 379.683 499.858 379.438 498.874V497.028C379.438 495.797 379.438 494.812 379.438 494.074C379.683 493.335 380.052 492.473 380.545 491.489C380.79 490.751 380.914 489.643 380.914 488.166V486.319C381.407 485.088 382.021 484.473 382.759 484.473C382.514 483.734 382.39 483.12 382.39 482.627C382.636 482.134 382.759 481.643 382.759 481.15C383.005 480.657 383.129 479.918 383.129 478.934C383.374 478.689 383.498 478.072 383.498 477.088C383.498 474.627 383.621 472.78 383.867 471.549C383.867 470.81 384.112 470.195 384.605 469.702C385.098 468.718 385.343 468.225 385.343 468.225V467.118C385.098 466.625 384.974 466.01 384.974 465.271C384.974 464.287 385.22 463.056 385.712 461.579C386.205 460.595 386.45 459.609 386.45 458.625C386.943 457.393 387.681 456.04 388.665 454.563C389.158 453.579 389.403 452.962 389.403 452.716C389.896 451.978 390.265 451.239 390.511 450.501C390.756 449.762 391.125 449.024 391.618 448.285C391.863 446.808 392.356 445.455 393.094 444.223C393.587 443.239 394.325 442.008 395.309 440.531C396.293 439.299 396.909 437.946 397.154 436.469C397.647 435.73 398.016 434.992 398.262 434.253C398.507 433.269 398.876 432.407 399.369 431.668C399.862 430.191 400.231 429.207 400.476 428.714C400.969 427.483 401.46 426.499 401.953 425.76C402.446 425.022 402.936 424.159 403.429 423.175L404.537 422.068C405.029 421.575 405.275 421.205 405.275 420.96C405.52 420.467 405.767 419.976 406.013 419.483C406.506 418.744 407.12 418.006 407.858 417.267C408.597 416.283 409.211 415.421 409.704 414.682C410.935 413.451 412.042 412.343 413.026 411.359C414.01 410.127 414.995 408.898 415.979 407.666C416.224 407.173 416.841 406.682 417.824 406.189C417.824 405.944 417.824 405.82 417.824 405.82C418.07 405.82 418.193 405.696 418.193 405.451C418.932 405.205 419.424 404.712 419.67 403.974C419.915 403.728 420.039 403.604 420.039 403.604C420.039 403.359 420.162 403.111 420.408 402.866C421.146 401.882 422.008 401.02 422.992 400.281C423.484 399.788 423.853 399.542 424.099 399.542C424.344 399.297 424.592 398.928 424.837 398.435L425.575 397.327C426.559 396.343 427.421 395.481 428.159 394.742C428.897 393.758 429.759 392.772 430.743 391.788L432.219 390.68L436.648 386.249C437.387 385.51 438.001 385.018 438.494 384.772C438.987 384.033 439.601 383.295 440.339 382.556C441.078 381.818 441.692 381.079 442.185 380.341V379.972C442.43 379.726 442.554 379.602 442.554 379.602C442.554 379.357 442.678 379.109 442.923 378.864C442.923 378.864 443.169 378.618 443.661 378.125C443.907 378.125 444.03 378.002 444.03 377.756C444.276 377.51 444.4 377.263 444.4 377.017C444.645 377.017 444.769 376.772 444.769 376.279C445.261 375.047 445.876 373.94 446.614 372.956C447.598 371.724 448.336 370.864 448.829 370.371C449.074 370.371 449.198 370.247 449.198 370.001C449.443 370.001 449.691 369.878 449.936 369.632V369.263L450.305 368.894V368.155C450.551 367.91 450.674 367.662 450.674 367.417C450.674 367.171 450.798 366.924 451.043 366.678C452.52 364.463 454.12 362.862 455.842 361.878C456.334 361.632 456.704 361.263 456.949 360.77V360.401C457.194 359.662 457.811 358.554 458.795 357.077C459.04 356.832 459.164 356.584 459.164 356.339C459.409 356.093 459.656 355.846 459.902 355.6C460.395 354.862 460.886 354.123 461.378 353.385C462.116 352.646 462.609 351.662 462.855 350.431L463.224 350.061C463.224 349.323 463.593 348.584 464.331 347.846C464.824 347.353 465.193 346.862 465.438 346.369C465.684 345.876 465.931 345.385 466.177 344.892C466.177 344.646 466.3 344.399 466.546 344.153C467.038 343.169 467.284 342.43 467.284 341.937C467.284 340.953 467.16 340.215 466.915 339.722V338.614C466.669 337.63 466.546 336.768 466.546 336.029C466.546 335.045 466.422 334.059 466.177 333.075C466.177 331.353 466.053 330.121 465.807 329.382C465.807 327.66 465.562 326.428 465.069 325.69C465.069 325.69 464.946 325.566 464.7 325.321C464.7 325.075 464.577 324.951 464.331 324.951C464.331 324.706 464.331 324.458 464.331 324.213C464.331 324.213 464.331 323.844 464.331 323.105V322.367C463.838 321.628 463.1 320.889 462.116 320.151C461.871 320.151 461.624 320.027 461.378 319.782C460.147 319.289 459.04 318.798 458.056 318.305C457.318 317.812 456.334 317.321 455.104 316.828C454.12 316.335 453.503 316.089 453.258 316.089L451.413 314.981C450.429 314.488 449.443 314.119 448.46 313.873C447.476 313.38 446.491 312.889 445.507 312.396C443.785 311.658 442.43 311.165 441.447 310.919C440.463 310.674 439.232 310.674 437.756 310.919L435.91 311.289C433.45 311.782 430.988 312.396 428.528 313.135C426.314 313.628 424.223 314.736 422.253 316.458C419.546 318.919 417.21 321.382 415.24 323.844C413.271 326.059 411.673 328.398 410.442 330.86C409.458 332.582 408.597 334.921 407.858 337.876C407.858 338.369 407.735 338.738 407.489 338.983C407.489 338.983 407.489 339.229 407.489 339.722C406.997 341.692 406.506 343.538 406.013 345.261C405.52 346.738 405.029 348.46 404.537 350.431C404.291 350.923 403.922 351.908 403.429 353.385C402.446 356.093 401.829 358.554 401.584 360.77V361.508C402.076 362.985 401.953 364.093 401.215 364.832C400.476 365.57 399.245 365.694 397.524 365.201H397.154C395.923 365.201 395.064 365.077 394.571 364.832C391.863 364.832 389.034 364.463 386.081 363.724C385.589 363.478 385.22 363.355 384.974 363.355C384.729 363.355 384.36 363.231 383.867 362.985C382.39 362.492 381.529 362.247 381.283 362.247C381.038 362.001 380.79 361.878 380.545 361.878C380.299 362.123 380.176 362.492 380.176 362.985C380.176 363.231 380.052 363.478 379.807 363.724V364.093L379.438 365.57L378.699 364.462C378.454 364.217 378.33 363.97 378.33 363.724C377.592 363.478 377.223 362.862 377.223 361.878C376.977 361.385 376.854 361.139 376.854 361.139C377.099 360.894 377.223 360.646 377.223 360.401C377.223 360.155 377.347 359.908 377.592 359.662C377.592 359.169 377.468 358.678 377.223 358.185C376.977 357.692 376.73 357.201 376.485 356.708C376.239 356.708 376.116 356.584 376.116 356.339L375.377 355.231H376.485H377.592C377.592 354.985 377.468 354.862 377.223 354.862C377.223 354.616 377.223 354.369 377.223 354.123C377.223 352.401 377.468 350.307 377.961 347.846C378.699 346.123 379.068 344.277 379.068 342.307L380.176 336.768C380.421 335.784 380.668 334.921 380.914 334.183C381.159 333.199 381.407 332.213 381.652 331.229C382.145 329.997 382.39 328.89 382.39 327.905C382.636 326.674 383.005 325.444 383.498 324.213C383.743 323.72 383.867 323.229 383.867 322.736C383.867 322.243 383.99 321.752 384.236 321.259C384.729 319.536 385.098 317.935 385.343 316.458C385.836 314.981 386.45 313.504 387.189 312.027C387.927 310.55 388.789 309.073 389.772 307.596C390.756 306.119 391.863 304.642 393.094 303.165L394.202 301.688C395.433 299.965 396.662 298.488 397.893 297.257C399.369 295.78 400.969 294.426 402.691 293.195C404.66 291.963 406.382 290.855 407.858 289.871C409.335 288.64 410.935 287.532 412.657 286.548L413.395 286.179C415.364 285.195 416.841 284.578 417.824 284.332C418.562 284.332 419.177 284.209 419.67 283.963C420.653 283.963 421.392 283.839 421.884 283.594C421.884 283.594 422.008 283.47 422.253 283.225C422.499 283.225 422.623 283.225 422.623 283.225C422.868 282.979 423.237 282.855 423.73 282.855H424.837H425.575C425.821 282.855 425.944 282.855 425.944 282.855C426.19 282.61 426.437 282.486 426.683 282.486C426.928 282.241 427.297 282.117 427.79 282.117C428.774 281.624 429.759 281.378 430.743 281.378C431.481 281.378 432.219 281.378 432.957 281.378C433.941 281.133 434.803 281.009 435.541 281.009C436.772 280.763 437.879 280.64 438.863 280.64C439.847 280.394 440.954 280.271 442.185 280.271C446.121 280.271 450.674 281.009 455.842 282.486C456.334 282.732 456.704 282.979 456.949 283.225C457.442 283.225 457.933 283.348 458.425 283.594C461.871 284.332 465.069 285.44 468.022 286.917C469.006 287.41 469.868 288.025 470.606 288.764C471.589 289.257 472.451 289.748 473.19 290.241C473.928 290.734 474.542 291.225 475.035 291.718C475.773 292.211 476.511 292.702 477.25 293.195L477.988 293.564C479.464 294.548 480.941 295.534 482.417 296.518C484.139 297.502 485.615 298.61 486.846 299.841C487.584 300.58 488.199 301.319 488.692 302.057C489.43 302.796 490.045 303.41 490.537 303.903L490.906 304.273C491.152 304.518 491.276 304.766 491.276 305.011C491.276 305.011 491.399 305.135 491.645 305.38C493.121 306.612 494.105 307.965 494.597 309.442C494.597 309.688 494.597 309.812 494.597 309.812C494.843 309.812 494.967 309.935 494.967 310.181V310.55C494.967 311.289 495.09 311.782 495.336 312.027L496.074 312.766C496.812 313.504 497.427 314.243 497.919 314.981L499.027 317.197C499.272 317.442 499.396 317.69 499.396 317.935C499.641 318.181 499.889 318.428 500.134 318.674C500.627 319.412 501.118 320.52 501.61 321.997C502.103 322.981 502.472 323.598 502.718 323.844C502.718 324.089 502.963 324.706 503.456 325.69C504.44 326.674 504.932 327.536 504.932 328.275C505.178 328.52 505.301 329.013 505.301 329.752C504.809 330.245 504.809 330.614 505.301 330.86C505.301 331.353 505.547 332.091 506.04 333.075L506.409 334.183C507.392 336.153 508.009 337.752 508.254 338.983C508.5 339.476 508.623 339.967 508.623 340.46C508.869 340.953 509.116 341.444 509.362 341.937L510.469 344.153C510.469 344.646 510.469 345.015 510.469 345.261C510.714 345.261 510.838 345.506 510.838 345.999C511.083 346.738 511.331 347.476 511.576 348.215C511.822 348.708 512.069 349.323 512.314 350.061C512.314 351.293 512.438 352.153 512.683 352.646C512.683 353.139 512.683 353.754 512.683 354.492C512.929 354.985 513.053 355.476 513.053 355.969C514.284 360.401 514.898 364.586 514.898 368.524C515.144 369.263 515.267 370.125 515.267 371.109C515.267 371.848 515.513 372.71 516.005 373.694C516.498 374.926 516.62 375.91 516.374 376.648C516.374 377.141 516.251 377.88 516.005 378.864V379.602C516.005 381.325 516.129 382.556 516.374 383.295V385.141C516.62 385.88 516.744 387.111 516.744 388.834V391.049V393.634V397.327C516.744 398.065 516.867 398.68 517.113 399.173ZM377.961 559.803H377.592C377.347 560.296 377.223 561.525 377.223 563.495V565.342C376.977 565.835 376.854 566.449 376.854 567.188C376.854 567.681 376.73 568.172 376.485 568.665C376.239 570.142 375.992 571.619 375.747 573.096C375.747 574.573 375.747 576.05 375.747 577.527L375.377 578.266V581.589C375.623 582.082 376.116 582.451 376.854 582.697H384.236H389.034H391.618C395.063 582.943 398.262 583.066 401.215 583.066C404.167 583.066 407.244 582.821 410.442 582.328C413.888 582.082 417.21 582.082 420.408 582.328C423.606 582.328 426.928 582.451 430.374 582.697H433.696C437.879 582.943 441.939 583.436 445.876 584.174C450.06 584.913 454.489 585.897 459.164 587.128C459.656 587.128 460.395 587.374 461.378 587.867C461.871 588.112 462.486 588.36 463.224 588.605C464.207 588.851 464.946 588.851 465.438 588.605L465.807 588.974L470.606 572.358C470.113 572.112 469.499 571.988 468.76 571.988C468.268 571.988 467.777 571.865 467.284 571.619C466.053 571.126 464.946 570.757 463.962 570.511C462.978 570.266 461.871 570.018 460.64 569.773C458.671 569.28 456.825 569.034 455.104 569.034C453.382 568.789 451.536 568.541 449.567 568.296H448.829L439.97 567.188C437.51 566.942 435.048 566.819 432.588 566.819C430.374 566.573 427.914 566.204 425.206 565.711C423.237 565.218 421.146 564.972 418.931 564.972C416.717 564.727 414.626 564.358 412.657 563.865C407.735 563.126 402.567 562.388 397.154 561.649C391.987 560.911 386.82 560.296 381.652 559.803L377.961 559.433V559.803Z" fill="white"/>
</g>
</g>
<defs>
<clipPath id="clip0_140_180">
<rect width="884" height="877" fill="white"/>
</clipPath>
</defs>
</svg>
