<svg width="886" height="886" viewBox="0 0 886 886" fill="none" xmlns="http://www.w3.org/2000/svg">
<g clip-path="url(#clip0_173_422)">
<rect width="886" height="886" fill="white"/>
<rect width="886" height="886" fill="#7036CC"/>
<path d="M516.368 404.767C516.86 405.997 516.86 407.349 516.368 408.824C516.123 409.807 515.999 411.283 515.999 413.251V414.357C515.999 416.078 515.876 417.308 515.63 418.045C515.63 418.538 515.507 418.907 515.262 419.152C515.262 419.397 515.262 419.766 515.262 420.259V422.84C515.262 424.316 515.138 425.422 514.893 426.16C514.893 427.39 514.648 428.987 514.156 430.955L513.787 432.43V432.799V433.168V433.906C513.787 434.889 513.664 435.505 513.418 435.75C513.418 435.995 513.295 436.242 513.05 436.488C513.05 436.488 513.05 436.611 513.05 436.856V437.594C512.557 438.577 512.189 439.562 511.944 440.545C511.698 441.283 511.451 442.265 511.206 443.496C510.469 445.463 509.608 447.429 508.625 449.397C507.643 451.118 506.659 452.962 505.676 454.93C505.676 455.175 505.553 455.299 505.307 455.299C505.307 455.299 505.307 455.422 505.307 455.667C504.325 457.143 503.833 458.249 503.833 458.987C503.587 459.97 503.34 460.831 503.095 461.569C502.85 462.307 502.481 463.168 501.989 464.151C501.989 464.643 501.744 465.134 501.252 465.626C500.76 467.101 500.391 468.084 500.146 468.577L499.04 469.683C499.04 469.929 498.794 470.297 498.302 470.79C498.302 471.035 498.179 471.282 497.934 471.528C497.934 471.528 497.934 471.773 497.934 472.265C497.688 472.511 497.565 472.758 497.565 473.003C497.565 473.248 497.441 473.495 497.196 473.741C495.967 475.954 494.861 477.798 493.878 479.273L493.509 479.642C493.017 480.625 492.527 481.363 492.035 481.855C491.789 482.1 491.542 482.224 491.297 482.224C491.297 482.224 491.174 482.348 490.929 482.593L490.56 482.962V483.33C490.315 483.823 490.191 484.313 490.191 484.806C489.946 485.298 489.699 485.667 489.454 485.912C489.209 485.912 488.962 486.036 488.717 486.281L487.979 487.019C487.487 487.511 487.118 487.88 486.873 488.125C486.873 488.371 486.628 488.74 486.136 489.232C485.643 490.215 485.153 490.831 484.661 491.076C484.169 491.814 483.678 492.552 483.186 493.289C482.694 493.782 482.204 494.396 481.711 495.133C479.499 497.839 477.164 500.421 474.706 502.879C472.494 505.337 470.159 507.919 467.701 510.625C465.244 513.083 462.909 515.665 460.696 518.37C458.484 521.076 456.272 523.78 454.06 526.485C453.323 527.223 452.217 528.575 450.742 530.542C440.419 543.575 427.27 553.779 411.293 561.156H410.924C408.957 562.139 407.361 562.877 406.131 563.369C405.886 563.369 405.639 563.493 405.394 563.738C405.149 563.738 404.902 563.738 404.656 563.738C404.164 563.983 403.795 564.107 403.55 564.107C403.305 564.107 402.936 564.23 402.444 564.476C403.674 564.721 404.78 564.968 405.762 565.213C406.992 565.213 408.22 565.337 409.449 565.582C412.154 566.075 414.856 566.565 417.56 567.058C420.51 567.303 423.336 567.672 426.04 568.164C427.76 568.409 429.358 568.657 430.833 568.902C432.553 568.902 434.275 568.902 435.995 568.902C438.699 569.147 441.28 569.394 443.737 569.64C446.441 569.64 449.144 569.885 451.848 570.377C454.06 570.87 456.149 571.36 458.116 571.853C460.328 572.098 462.295 572.467 464.015 572.959C464.507 573.204 465.244 573.328 466.227 573.328C467.947 573.82 469.668 574.435 471.388 575.172C473.355 575.665 474.583 576.648 475.075 578.123C475.567 578.861 475.567 579.722 475.075 580.705C474.83 581.688 474.461 582.549 473.969 583.287V584.024C472.987 585.745 472.249 587.468 471.757 589.188V591.032L470.651 594.352V594.721C469.914 595.951 469.914 596.81 470.651 597.303L471.388 598.04L470.651 598.409C470.159 598.655 469.545 598.902 468.808 599.147C468.315 599.392 467.825 599.516 467.333 599.516C466.841 599.516 466.35 599.392 465.858 599.147L464.752 598.04C464.752 597.795 464.628 597.672 464.383 597.672C464.383 597.426 463.769 597.057 462.54 596.565H462.171C461.189 596.32 460.204 596.073 459.222 595.827C458.484 595.827 457.502 595.582 456.272 595.09C455.043 594.844 453.691 594.597 452.217 594.352C450.742 594.107 449.267 593.738 447.792 593.245C445.335 592.508 443 592.015 440.787 591.77C438.575 591.77 436.118 591.647 433.414 591.401C432.184 591.401 431.078 591.401 430.096 591.401C429.113 591.401 428.007 591.278 426.777 591.032C425.548 591.032 424.197 591.032 422.722 591.032C421.247 591.032 419.896 590.909 418.666 590.664C416.209 590.664 413.75 590.664 411.293 590.664C409.081 590.909 406.745 591.032 404.288 591.032C401.583 591.278 398.757 591.401 395.808 591.401C392.858 591.647 390.032 591.647 387.328 591.401C386.099 591.401 384.871 591.278 383.641 591.032C382.412 591.032 381.184 591.032 379.954 591.032H377.742C375.038 591.032 373.195 590.909 372.212 590.664C370.983 590.171 370.245 589.557 370 588.819C370 588.082 370.124 587.468 370.369 586.975C370.369 586.237 370.369 585.5 370.369 584.762C370.614 584.024 370.737 583.287 370.737 582.549V579.967C370.983 578.737 371.106 577.631 371.106 576.648C371.351 575.417 371.598 574.189 371.843 572.959L372.949 565.213V564.476C372.949 563.983 372.949 563.369 372.949 562.632C373.195 561.894 373.563 561.28 374.056 560.787C374.793 560.542 376.144 560.664 378.111 561.156H379.586C380.815 561.401 382.659 561.525 385.116 561.525C386.591 561.77 388.066 561.894 389.54 561.894C391.26 561.894 392.858 561.894 394.333 561.894C397.037 561.649 399.495 561.156 401.707 560.419C403.919 559.681 406.008 558.82 407.975 557.837C409.941 556.854 411.907 555.869 413.873 554.886C415.84 553.903 417.929 552.673 420.141 551.197L423.459 548.984C426.164 547.754 428.866 545.91 431.57 543.452C437.961 537.796 444.474 531.156 451.111 523.534C451.848 522.551 452.585 521.567 453.323 520.584C454.06 519.601 454.797 518.616 455.535 517.633L458.853 513.207C460.083 511.731 461.434 510.38 462.909 509.149C463.646 508.412 464.383 507.798 465.121 507.305C465.858 506.568 466.472 505.83 466.964 505.092C469.668 501.404 472.863 497.715 476.55 494.027C478.025 492.306 479.499 490.707 480.974 489.232C482.449 487.511 483.924 485.667 485.398 483.699C486.381 482.469 487.242 481.117 487.979 479.642C488.716 478.167 489.577 476.691 490.56 475.216C491.542 473.741 492.158 472.634 492.403 471.896C494.615 468.453 496.828 464.274 499.04 459.356C499.532 458.126 499.901 457.143 500.146 456.405C500.638 455.667 501.128 454.806 501.62 453.823C502.113 452.593 502.603 451.61 503.095 450.872C503.587 449.889 504.078 448.783 504.57 447.553C506.782 442.144 508.38 437.349 509.363 433.168C510.345 429.234 511.083 425.053 511.575 420.627C512.312 416.201 512.436 411.775 511.944 407.349C511.698 405.874 511.575 404.398 511.575 402.923C511.575 401.202 511.575 399.603 511.575 398.128C512.067 396.16 512.067 394.194 511.575 392.227V384.481C511.575 383.988 511.451 383.498 511.206 383.005C511.206 382.268 511.206 381.53 511.206 380.792C511.206 380.3 511.083 379.809 510.838 379.317C510.838 378.579 510.838 377.965 510.838 377.473C510.838 372.309 510.345 367.759 509.363 363.826C508.871 362.843 508.625 362.105 508.625 361.613C508.38 361.12 508.133 360.506 507.888 359.768C507.888 359.031 507.765 358.417 507.519 357.924C507.274 357.432 507.151 356.941 507.151 356.449C507.151 355.956 507.027 355.466 506.782 354.973C506.782 353.99 506.537 352.76 506.045 351.285C504.57 346.859 502.85 342.433 500.883 338.007C499.163 333.581 497.32 329.278 495.353 325.097C494.123 323.129 492.896 321.164 491.666 319.196C490.436 317.228 489.085 315.262 487.61 313.294C484.416 309.113 481.219 305.917 478.025 303.704C474.093 300.999 470.037 298.541 465.858 296.328C461.679 293.869 457.133 292.147 452.217 291.164C451.234 291.164 450.497 291.04 450.005 290.795C448.038 290.303 446.563 290.057 445.58 290.057C444.351 289.812 443.123 289.812 441.894 290.057C440.664 290.057 439.436 290.181 438.207 290.426C436.24 290.918 434.52 291.164 433.045 291.164C431.57 291.409 430.096 291.656 428.621 291.901C427.146 291.901 425.795 292.147 424.565 292.639C414.734 295.345 406.992 299.771 401.338 305.917C393.965 313.54 389.417 321.285 387.697 329.155C386.959 332.351 386.222 335.548 385.485 338.744C384.993 341.94 384.379 345.015 383.641 347.965C383.396 349.441 383.149 350.916 382.904 352.392C382.904 353.867 382.659 355.342 382.167 356.818C381.921 357.31 381.798 357.924 381.798 358.662C381.798 359.154 381.674 359.645 381.429 360.137C381.429 360.137 381.306 360.383 381.061 360.875C381.061 361.12 380.937 361.367 380.692 361.613C380.692 361.858 380.692 362.105 380.692 362.35C380.937 362.843 381.429 363.212 382.167 363.457C383.149 363.702 383.887 363.949 384.379 364.195C384.624 364.195 384.871 364.318 385.116 364.563C387.328 365.301 389.417 365.67 391.384 365.67H392.121C393.104 365.67 393.841 365.793 394.333 366.039H394.702H395.808H396.177V365.67V365.301C396.422 364.563 396.545 363.826 396.545 363.088C396.79 362.105 397.038 361.244 397.283 360.506C397.775 359.031 398.144 357.555 398.389 356.08C398.881 354.359 399.371 352.76 399.863 351.285C400.109 350.547 400.356 349.81 400.601 349.072C400.846 348.089 401.093 347.104 401.338 346.121C402.568 342.925 403.55 340.096 404.288 337.638C404.533 336.408 405.149 334.811 406.131 332.843L406.5 332.474C406.745 331.982 406.868 331.613 406.868 331.368C406.868 331.122 406.992 330.753 407.237 330.261C407.237 329.278 407.606 328.172 408.343 326.941C408.835 326.449 409.326 325.958 409.818 325.466C410.555 324.974 411.169 324.483 411.661 323.991C412.154 323.745 412.767 323.253 413.505 322.515C413.75 322.27 413.997 322.147 414.242 322.147C414.487 321.901 414.734 321.654 414.98 321.409C415.472 320.671 416.086 320.057 416.823 319.565C417.56 318.827 418.174 318.213 418.666 317.72C420.386 316.49 421.985 315.631 423.459 315.139C425.179 314.646 426.901 314.156 428.621 313.663C429.113 313.418 429.482 313.294 429.727 313.294C429.972 313.294 430.341 313.171 430.833 312.925C435.749 311.45 440.05 311.327 443.737 312.557C444.719 313.049 445.949 313.787 447.424 314.77C447.916 315.015 448.161 315.262 448.161 315.507C448.406 315.507 448.775 315.631 449.267 315.876C450.005 316.369 451.111 316.859 452.585 317.352C453.078 317.597 453.446 317.844 453.691 318.089C454.184 318.089 454.674 318.213 455.166 318.458C457.133 319.196 459.098 320.179 461.065 321.409C461.557 321.409 461.926 321.532 462.171 321.778C464.383 322.515 465.982 323.622 466.964 325.097C467.701 326.08 468.315 327.679 468.808 329.892V330.261C469.3 332.229 469.545 333.457 469.545 333.949C469.79 334.687 469.914 335.425 469.914 336.163C470.159 336.655 470.406 337.269 470.651 338.007C470.651 338.744 470.774 339.237 471.02 339.482C471.265 340.22 471.388 340.957 471.388 341.695C471.388 342.188 471.512 342.802 471.757 343.539C471.757 344.032 471.757 344.401 471.757 344.646C472.002 344.891 471.881 345.26 471.388 345.752C471.388 345.998 471.265 346.245 471.02 346.49H470.651C470.651 346.735 470.774 346.982 471.02 347.228V348.334C471.02 349.317 470.527 350.547 469.545 352.023C469.545 352.023 469.3 352.515 468.808 353.498C468.315 354.728 467.701 355.956 466.964 357.187C466.472 358.417 465.982 359.523 465.489 360.506C465.244 360.998 464.997 361.489 464.752 361.981C464.507 362.474 464.138 362.964 463.646 363.457C462.909 364.195 462.416 364.809 462.171 365.301C461.679 366.284 461.065 367.269 460.328 368.252C459.59 369.235 458.73 370.22 457.747 371.203C457.255 371.695 456.886 372.185 456.641 372.678C456.396 372.923 456.027 373.292 455.535 373.784C455.043 374.277 454.552 374.646 454.06 374.891C454.06 374.891 453.815 375.014 453.323 375.26C453.078 375.505 452.954 375.752 452.954 375.997V376.735C452.462 377.965 451.972 378.825 451.479 379.317L450.742 379.686C450.005 380.424 449.267 381.53 448.53 383.005V383.743C448.285 384.236 448.161 384.604 448.161 384.85C448.161 385.095 447.916 385.464 447.424 385.956C447.179 386.201 446.686 386.325 445.949 386.325H445.58C445.58 386.57 445.457 386.817 445.212 387.063C445.212 387.308 445.212 387.555 445.212 387.8C445.212 388.046 445.088 388.293 444.843 388.538L443.737 390.751L442.631 391.858C441.648 393.578 440.664 394.685 439.681 395.177C439.189 395.67 438.699 396.039 438.207 396.284C437.962 396.284 437.593 396.407 437.101 396.653C435.871 397.145 435.012 397.636 434.52 398.128C434.028 398.62 433.537 399.358 433.045 400.341C432.553 401.324 432.063 402.062 431.57 402.554C430.341 404.029 429.113 405.505 427.883 406.98C426.654 408.21 425.426 409.439 424.197 410.669L421.616 413.251C421.371 413.743 421.124 414.112 420.878 414.357C420.633 414.357 420.265 414.602 419.772 415.095C418.79 415.587 418.174 416.078 417.929 416.57C417.437 417.063 416.946 417.677 416.454 418.414C415.962 418.907 415.472 419.397 414.98 419.89C414.98 420.135 414.734 420.504 414.242 420.996C413.013 422.717 411.785 424.439 410.555 426.16C409.326 427.881 408.098 429.603 406.868 431.324C406.131 432.061 405.762 432.676 405.762 433.168C405.27 434.151 404.902 434.767 404.656 435.012C404.411 435.257 404.288 435.505 404.288 435.75C404.042 435.75 403.919 435.873 403.919 436.119V436.488C403.674 436.733 403.55 436.98 403.55 437.225C402.321 442.881 400.109 447.676 396.914 451.61C396.422 452.103 396.053 452.717 395.808 453.454C395.808 454.192 395.563 455.053 395.071 456.036L393.965 459.356C393.472 460.339 392.982 461.076 392.49 461.569C392.245 462.307 391.998 463.044 391.752 463.782C391.507 464.274 391.139 464.888 390.646 465.626C390.401 466.118 390.278 466.609 390.278 467.101C390.278 467.347 390.154 467.716 389.909 468.208C389.909 468.7 389.664 469.929 389.172 471.896C388.679 473.127 388.311 474.602 388.066 476.323C387.82 477.798 387.573 479.273 387.328 480.749C387.328 481.486 387.205 482.224 386.959 482.962C386.959 483.699 386.959 484.313 386.959 484.806L386.222 488.125C385.977 490.093 385.73 492.059 385.485 494.027C385.24 495.748 384.993 497.592 384.747 499.56C384.502 500.79 384.255 502.018 384.01 503.248C384.01 504.231 384.01 505.337 384.01 506.568C384.255 507.551 384.255 508.535 384.01 509.518C383.765 510.256 383.518 511.117 383.273 512.1C383.273 512.593 383.149 513.083 382.904 513.576C382.904 514.068 382.78 514.682 382.535 515.42C382.535 515.912 382.535 516.526 382.535 517.264C382.29 517.756 382.167 518.247 382.167 518.739C382.167 518.985 382.043 519.353 381.798 519.846C381.306 522.304 380.937 524.027 380.692 525.01C380.447 525.502 380.323 525.871 380.323 526.116C380.323 526.361 380.2 526.609 379.954 526.854C379.709 527.346 379.586 527.96 379.586 528.698C379.586 529.19 379.462 529.681 379.217 530.173C379.217 531.404 379.094 532.386 378.848 533.124C378.848 533.617 378.603 534.354 378.111 535.337C377.619 536.813 377.374 537.919 377.374 538.657V541.239C377.374 542.714 377.25 543.944 377.005 544.927V547.509V551.197C376.513 552.918 376.022 553.903 375.53 554.148V554.517V554.886H375.162C375.162 555.131 374.916 555.255 374.424 555.255C374.424 555.009 374.301 554.886 374.056 554.886C373.81 554.886 373.563 554.762 373.318 554.517C373.073 554.517 372.949 554.393 372.949 554.148C371.72 553.165 371.23 551.566 371.475 549.353C371.475 548.861 371.475 548.492 371.475 548.247C371.72 548.001 371.843 547.633 371.843 547.14C372.336 545.172 372.581 543.821 372.581 543.083V540.501C372.336 539.518 372.212 538.164 372.212 536.444C372.949 533.493 373.563 530.911 374.056 528.698C374.793 526.24 375.654 524.027 376.636 522.059C377.129 520.338 377.619 518.247 378.111 515.789C378.111 515.296 378.111 514.806 378.111 514.313C378.356 513.576 378.48 512.838 378.48 512.1C378.725 511.608 378.848 511.117 378.848 510.625C378.848 510.132 378.972 509.642 379.217 509.149C379.217 506.936 379.094 505.337 378.848 504.355V502.51C378.848 501.28 378.848 500.297 378.848 499.56C379.094 498.822 379.462 497.961 379.954 496.978C380.2 496.24 380.323 495.133 380.323 493.658V491.814C380.815 490.584 381.429 489.97 382.167 489.97C381.921 489.232 381.798 488.618 381.798 488.125C382.043 487.633 382.167 487.142 382.167 486.65C382.412 486.158 382.535 485.42 382.535 484.437C382.78 484.192 382.904 483.576 382.904 482.593C382.904 480.134 383.027 478.29 383.273 477.06C383.273 476.322 383.518 475.708 384.01 475.216C384.502 474.233 384.747 473.741 384.747 473.741V472.634C384.502 472.142 384.379 471.528 384.379 470.79C384.379 469.807 384.624 468.577 385.116 467.101C385.608 466.118 385.853 465.134 385.853 464.151C386.346 462.921 387.083 461.569 388.066 460.093C388.558 459.11 388.803 458.495 388.803 458.249C389.295 457.512 389.664 456.774 389.909 456.036C390.154 455.299 390.523 454.561 391.015 453.823C391.26 452.348 391.752 450.996 392.49 449.766C392.982 448.783 393.719 447.553 394.702 446.077C395.684 444.847 396.3 443.496 396.545 442.02C397.037 441.282 397.406 440.545 397.651 439.807C397.897 438.824 398.265 437.963 398.757 437.225C399.25 435.75 399.618 434.767 399.863 434.275C400.356 433.044 400.846 432.061 401.338 431.324C401.83 430.586 402.321 429.725 402.813 428.742L403.919 427.635C404.411 427.143 404.656 426.774 404.656 426.529C404.902 426.036 405.149 425.546 405.394 425.053C405.886 424.316 406.5 423.578 407.237 422.84C407.975 421.857 408.588 420.996 409.081 420.259C410.31 419.028 411.416 417.922 412.399 416.939C413.381 415.709 414.366 414.481 415.348 413.251C415.593 412.758 416.209 412.268 417.192 411.775C417.192 411.53 417.192 411.406 417.192 411.406C417.437 411.406 417.56 411.283 417.56 411.037C418.298 410.792 418.79 410.3 419.035 409.562C419.28 409.317 419.404 409.193 419.404 409.193C419.404 408.948 419.527 408.701 419.772 408.456C420.51 407.473 421.371 406.611 422.353 405.874C422.845 405.381 423.214 405.136 423.459 405.136C423.704 404.891 423.951 404.522 424.197 404.029L424.934 402.923C425.917 401.94 426.777 401.079 427.515 400.341C428.252 399.358 429.113 398.373 430.096 397.39L431.57 396.284L435.995 391.858C436.732 391.12 437.346 390.628 437.838 390.382C438.33 389.645 438.944 388.907 439.681 388.169C440.419 387.432 441.033 386.694 441.525 385.956V385.587C441.77 385.342 441.894 385.219 441.894 385.219C441.894 384.973 442.017 384.726 442.262 384.481C442.262 384.481 442.507 384.236 443 383.743C443.245 383.743 443.368 383.62 443.368 383.374C443.613 383.129 443.737 382.882 443.737 382.637C443.982 382.637 444.106 382.391 444.106 381.899C444.598 380.669 445.212 379.562 445.949 378.579C446.932 377.349 447.669 376.49 448.161 375.997C448.406 375.997 448.53 375.874 448.53 375.629C448.775 375.629 449.022 375.505 449.267 375.26V374.891L449.636 374.522V373.784C449.881 373.539 450.005 373.292 450.005 373.047C450.005 372.801 450.128 372.554 450.373 372.309C451.848 370.096 453.446 368.497 455.166 367.514C455.658 367.269 456.027 366.9 456.272 366.408V366.039C456.517 365.301 457.133 364.195 458.116 362.719C458.361 362.474 458.484 362.227 458.484 361.981C458.73 361.736 458.977 361.489 459.222 361.244C459.714 360.506 460.204 359.768 460.696 359.031C461.434 358.293 461.926 357.31 462.171 356.08L462.54 355.711C462.54 354.973 462.909 354.236 463.646 353.498C464.138 353.006 464.507 352.515 464.752 352.023C464.997 351.53 465.244 351.04 465.489 350.547C465.489 350.302 465.613 350.055 465.858 349.81C466.35 348.827 466.595 348.089 466.595 347.597C466.595 346.614 466.472 345.876 466.227 345.384V344.277C465.982 343.294 465.858 342.433 465.858 341.695C465.858 340.712 465.735 339.727 465.489 338.744C465.489 337.024 465.366 335.794 465.121 335.056C465.121 333.335 464.875 332.105 464.383 331.368C464.383 331.368 464.26 331.244 464.015 330.999C464.015 330.753 463.891 330.63 463.646 330.63C463.646 330.385 463.646 330.137 463.646 329.892C463.646 329.892 463.646 329.523 463.646 328.786V328.048C463.154 327.31 462.416 326.573 461.434 325.835C461.189 325.835 460.942 325.711 460.696 325.466C459.467 324.974 458.361 324.483 457.378 323.991C456.641 323.498 455.658 323.008 454.429 322.515C453.446 322.023 452.831 321.778 452.585 321.778L450.742 320.671C449.759 320.179 448.775 319.81 447.792 319.565C446.81 319.072 445.826 318.582 444.843 318.089C443.123 317.352 441.77 316.859 440.787 316.614C439.805 316.369 438.575 316.369 437.101 316.614L435.257 316.983C432.8 317.475 430.341 318.089 427.883 318.827C425.671 319.319 423.583 320.426 421.616 322.147C418.912 324.605 416.578 327.065 414.611 329.523C412.644 331.736 411.048 334.073 409.818 336.531C408.835 338.252 407.975 340.589 407.237 343.539C407.237 344.032 407.114 344.401 406.868 344.646C406.868 344.646 406.868 344.891 406.868 345.384C406.376 347.351 405.886 349.196 405.394 350.916C404.902 352.392 404.411 354.112 403.919 356.08C403.674 356.572 403.305 357.555 402.813 359.031C401.83 361.736 401.215 364.195 400.97 366.408V367.145C401.462 368.621 401.338 369.727 400.601 370.465C399.863 371.203 398.634 371.326 396.914 370.834H396.545C395.316 370.834 394.457 370.71 393.965 370.465C391.26 370.465 388.434 370.096 385.485 369.358C384.993 369.113 384.624 368.989 384.379 368.989C384.134 368.989 383.765 368.866 383.273 368.621C381.798 368.128 380.937 367.883 380.692 367.883C380.447 367.638 380.2 367.514 379.954 367.514C379.709 367.759 379.586 368.128 379.586 368.621C379.586 368.866 379.462 369.113 379.217 369.358V369.727L378.848 371.203L378.111 370.096C377.866 369.851 377.742 369.604 377.742 369.358C377.005 369.113 376.636 368.497 376.636 367.514C376.391 367.022 376.268 366.776 376.268 366.776C376.513 366.531 376.636 366.284 376.636 366.039C376.636 365.793 376.76 365.546 377.005 365.301C377.005 364.809 376.881 364.318 376.636 363.826C376.391 363.333 376.144 362.843 375.899 362.35C375.654 362.35 375.53 362.227 375.53 361.981L374.793 360.875H375.899H377.005C377.005 360.63 376.881 360.506 376.636 360.506C376.636 360.261 376.636 360.014 376.636 359.768C376.636 358.048 376.882 355.956 377.374 353.498C378.111 351.777 378.48 349.933 378.48 347.965L379.586 342.433C379.831 341.45 380.078 340.589 380.323 339.851C380.568 338.868 380.815 337.883 381.061 336.9C381.553 335.67 381.798 334.564 381.798 333.581C382.043 332.351 382.412 331.122 382.904 329.892C383.149 329.4 383.273 328.909 383.273 328.417C383.273 327.924 383.396 327.434 383.641 326.941C384.134 325.221 384.502 323.622 384.747 322.147C385.24 320.671 385.853 319.196 386.591 317.72C387.328 316.245 388.189 314.77 389.172 313.294C390.154 311.819 391.26 310.344 392.49 308.868L393.596 307.393C394.825 305.672 396.053 304.197 397.283 302.967C398.757 301.491 400.356 300.14 402.076 298.909C404.042 297.679 405.762 296.573 407.237 295.59C408.712 294.36 410.31 293.253 412.03 292.27L412.767 291.901C414.734 290.919 416.209 290.303 417.192 290.057C417.929 290.057 418.543 289.934 419.035 289.688C420.018 289.688 420.755 289.565 421.247 289.32C421.247 289.32 421.371 289.196 421.616 288.951C421.861 288.951 421.985 288.951 421.985 288.951C422.23 288.705 422.598 288.582 423.091 288.582H424.197H424.934C425.179 288.582 425.303 288.582 425.303 288.582C425.548 288.337 425.795 288.213 426.04 288.213C426.285 287.968 426.654 287.844 427.146 287.844C428.129 287.352 429.113 287.107 430.096 287.107C430.833 287.107 431.57 287.107 432.308 287.107C433.29 286.861 434.151 286.738 434.889 286.738C436.118 286.492 437.224 286.369 438.207 286.369C439.189 286.124 440.295 286 441.525 286C445.457 286 450.005 286.738 455.166 288.213C455.658 288.458 456.027 288.705 456.272 288.951C456.764 288.951 457.255 289.074 457.747 289.32C461.189 290.057 464.383 291.164 467.333 292.639C468.315 293.132 469.176 293.746 469.914 294.483C470.896 294.976 471.757 295.466 472.494 295.959C473.232 296.451 473.846 296.942 474.338 297.434C475.075 297.927 475.813 298.417 476.55 298.909L477.287 299.278C478.762 300.261 480.237 301.246 481.711 302.229C483.431 303.212 484.906 304.319 486.136 305.549C486.873 306.286 487.487 307.024 487.979 307.762C488.716 308.499 489.33 309.113 489.823 309.606L490.191 309.975C490.436 310.22 490.56 310.467 490.56 310.712C490.56 310.712 490.683 310.836 490.929 311.081C492.403 312.311 493.386 313.663 493.878 315.139C493.878 315.384 493.878 315.507 493.878 315.507C494.123 315.507 494.247 315.631 494.247 315.876V316.245C494.247 316.983 494.37 317.475 494.615 317.72L495.353 318.458C496.09 319.196 496.704 319.933 497.196 320.671L498.302 322.884C498.547 323.129 498.671 323.377 498.671 323.622C498.916 323.867 499.163 324.114 499.408 324.36C499.901 325.097 500.391 326.204 500.883 327.679C501.375 328.662 501.744 329.278 501.989 329.523C501.989 329.769 502.234 330.385 502.726 331.368C503.709 332.351 504.201 333.212 504.201 333.949C504.446 334.195 504.57 334.687 504.57 335.425C504.078 335.917 504.078 336.286 504.57 336.531C504.57 337.024 504.815 337.761 505.307 338.744L505.676 339.851C506.659 341.819 507.274 343.416 507.519 344.646C507.765 345.138 507.888 345.629 507.888 346.121C508.133 346.614 508.38 347.104 508.625 347.597L509.732 349.81C509.732 350.302 509.732 350.671 509.732 350.916C509.977 350.916 510.1 351.161 510.1 351.654C510.345 352.392 510.592 353.129 510.838 353.867C511.083 354.359 511.33 354.973 511.575 355.711C511.575 356.941 511.698 357.801 511.944 358.293C511.944 358.785 511.944 359.4 511.944 360.137C512.189 360.63 512.312 361.12 512.312 361.613C513.542 366.039 514.156 370.22 514.156 374.153C514.401 374.891 514.524 375.752 514.524 376.735C514.524 377.473 514.77 378.334 515.262 379.317C515.754 380.547 515.876 381.53 515.63 382.268C515.63 382.76 515.507 383.498 515.262 384.481V385.219C515.262 386.939 515.385 388.169 515.63 388.907V390.751C515.876 391.489 515.999 392.719 515.999 394.44V396.653V399.235V402.923C515.999 403.661 516.123 404.275 516.368 404.767ZM377.374 565.213H377.005C376.76 565.706 376.636 566.934 376.636 568.902V570.746C376.391 571.239 376.268 571.853 376.268 572.59C376.268 573.083 376.144 573.573 375.899 574.066C375.654 575.541 375.407 577.016 375.162 578.492C375.162 579.967 375.162 581.442 375.162 582.918L374.793 583.656V586.975C375.038 587.468 375.53 587.836 376.268 588.082H383.641H388.434H391.015C394.457 588.327 397.651 588.45 400.601 588.45C403.55 588.45 406.623 588.205 409.818 587.713C413.26 587.468 416.578 587.468 419.772 587.713C422.967 587.713 426.285 587.836 429.727 588.082H433.045C437.224 588.327 441.28 588.819 445.212 589.557C449.391 590.295 453.815 591.278 458.484 592.508C458.977 592.508 459.714 592.753 460.696 593.245C461.189 593.491 461.803 593.738 462.54 593.983C463.522 594.228 464.26 594.228 464.752 593.983L465.121 594.352L469.914 577.754C469.421 577.509 468.808 577.385 468.07 577.385C467.578 577.385 467.088 577.262 466.595 577.016C465.366 576.524 464.26 576.155 463.277 575.91C462.295 575.665 461.189 575.417 459.959 575.172C457.992 574.68 456.149 574.435 454.429 574.435C452.709 574.189 450.865 573.942 448.899 573.697H448.161L439.313 572.59C436.855 572.345 434.396 572.221 431.939 572.221C429.727 571.976 427.27 571.607 424.565 571.115C422.598 570.623 420.51 570.377 418.298 570.377C416.086 570.132 413.997 569.763 412.03 569.271C407.114 568.533 401.952 567.795 396.545 567.058C391.384 566.32 386.222 565.706 381.061 565.213L377.374 564.845V565.213Z" fill="white"/>
</g>
<defs>
<clipPath id="clip0_173_422">
<rect width="886" height="886" fill="white"/>
</clipPath>
</defs>
</svg>
