<svg width="880" height="885" viewBox="0 0 880 885" fill="none" xmlns="http://www.w3.org/2000/svg">
<g clip-path="url(#clip0_140_187)">
<mask id="mask0_140_187" style="mask-type:luminance" maskUnits="userSpaceOnUse" x="0" y="0" width="880" height="885">
<path d="M880 0H0V885H880V0Z" fill="white"/>
</mask>
<g mask="url(#mask0_140_187)">
<path d="M879.84 0H-1.84473V546.392H879.84V0Z" fill="#7036CC"/>
<path d="M879.84 546.392H-1.84473V885H879.84V546.392Z" fill="#3D1F6D"/>
<path d="M410.408 739.159C409.547 737.955 409.289 736.406 409.634 734.513C409.979 732.619 410.322 731.071 410.667 729.867C410.667 729.522 410.753 729.264 410.925 729.092C411.097 728.748 411.012 728.489 410.667 728.318C410.495 728.146 410.063 728.06 409.375 728.06C408.687 727.715 408.255 727.372 408.084 727.027C407.567 726.166 407.309 725.134 407.309 723.93C407.481 722.553 407.567 721.435 407.567 720.574C407.567 719.713 407.481 719.025 407.309 718.509C407.137 717.821 406.964 717.132 406.793 716.444C406.621 715.756 406.534 715.154 406.534 714.637C406.534 713.95 406.448 713.175 406.276 712.314C406.276 711.798 406.189 711.282 406.018 710.765C405.846 710.249 405.673 709.733 405.501 709.217C405.33 708.529 405.243 707.926 405.243 707.41C405.414 706.722 405.501 706.033 405.501 705.345C405.673 703.796 405.673 702.334 405.501 700.957C405.501 699.579 405.673 698.117 406.018 696.569C406.363 695.02 406.534 693.558 406.534 692.18C406.706 690.632 406.879 689.083 407.051 687.534C407.051 686.673 407.051 685.899 407.051 685.211C407.051 684.523 407.137 683.749 407.309 682.888C407.309 682.027 407.739 681.339 408.6 680.823C409.289 680.651 409.979 680.565 410.667 680.565C411.355 680.565 411.958 680.565 412.475 680.565C413.336 680.393 414.111 680.307 414.799 680.307C415.661 680.307 416.52 680.22 417.382 680.049C420.31 679.704 423.151 679.446 425.905 679.274C428.833 679.103 431.759 678.758 434.687 678.242C437.615 677.725 440.541 677.296 443.468 676.951C446.568 676.606 449.58 676.263 452.508 675.919C453.886 675.747 455.349 675.574 456.899 675.402C458.449 675.231 459.912 675.058 461.29 674.886C462.668 674.715 464.044 674.628 465.422 674.628C466.972 674.628 468.35 674.37 469.555 673.854C470.759 673.337 471.966 672.821 473.171 672.305C474.375 671.789 475.582 671.186 476.787 670.498C479.198 668.949 481.006 667.056 482.211 664.819C483.072 663.615 483.76 662.496 484.277 661.464C484.793 660.26 485.31 658.969 485.826 657.592C486.515 656.388 486.601 655.44 486.085 654.752C485.74 654.236 485.223 653.72 484.535 653.204C484.019 652.687 483.502 652.258 482.985 651.913C481.952 651.052 480.832 650.364 479.628 649.848C478.423 649.16 477.132 648.557 475.754 648.041C474.375 647.525 472.999 647.095 471.621 646.75C470.243 646.234 468.867 645.805 467.489 645.46C466.11 645.115 464.734 644.857 463.356 644.685C461.978 644.514 460.602 644.514 459.224 644.685C457.845 644.857 456.469 644.857 455.091 644.685C453.713 644.341 452.337 644.169 450.959 644.169H441.919C440.369 644.341 438.819 644.514 437.27 644.685C435.72 644.857 434.257 645.03 432.879 645.202C429.951 645.546 426.938 646.063 423.839 646.75C420.911 647.267 417.985 647.696 415.057 648.041C413.679 648.386 412.216 648.644 410.667 648.815C409.117 648.987 407.567 649.245 406.018 649.59C405.156 649.761 403.951 650.019 402.402 650.364C401.024 650.536 399.906 650.364 399.044 649.848C398.011 649.332 397.581 648.471 397.753 647.267C397.924 645.889 397.924 644.772 397.753 643.911C397.581 643.223 397.323 642.707 396.978 642.362C396.806 641.846 396.633 641.33 396.461 640.814C396.116 639.093 395.945 637.803 395.945 636.942C395.257 633.673 395.17 630.833 395.686 628.424C395.686 627.736 395.773 627.133 395.945 626.617C396.116 625.929 396.29 625.239 396.461 624.552C396.633 624.38 396.72 624.207 396.72 624.035C396.548 623.864 396.461 623.691 396.461 623.519C396.461 623.174 396.461 622.916 396.461 622.745C396.633 622.573 396.72 622.315 396.72 621.97C396.891 621.283 396.891 620.68 396.72 620.164C396.548 619.647 396.461 619.131 396.461 618.615C396.806 617.927 397.236 617.669 397.753 617.84C398.269 617.84 398.786 617.84 399.302 617.84H408.084C409.462 617.669 410.838 617.669 412.216 617.84C413.595 617.84 414.971 617.84 416.349 617.84C417.037 617.669 417.64 617.669 418.157 617.84C418.845 617.84 419.62 617.754 420.481 617.582C421.17 617.582 421.773 617.496 422.289 617.324C422.977 617.153 423.667 616.979 424.356 616.808C425.905 616.636 427.455 616.636 429.005 616.808C430.554 616.979 432.104 617.066 433.654 617.066C435.032 616.895 436.495 616.808 438.044 616.808C439.594 616.636 441.144 616.55 442.694 616.55C445.621 616.55 448.547 616.463 451.475 616.292C454.574 616.12 457.587 616.12 460.515 616.292C461.893 616.292 463.269 616.463 464.647 616.808C466.026 616.979 467.402 617.066 468.78 617.066C470.501 617.066 471.793 617.153 472.654 617.324C473.516 617.496 474.204 617.669 474.72 617.84C475.409 618.012 476.183 618.185 477.045 618.357C479.973 618.873 482.899 619.218 485.826 619.389C488.926 619.561 491.938 619.905 494.866 620.422C496.244 620.766 497.536 621.196 498.741 621.712C500.119 622.057 501.495 622.487 502.873 623.003C505.627 623.864 508.125 624.723 510.363 625.584C510.88 625.929 511.396 626.187 511.913 626.359C512.429 626.53 512.859 626.788 513.204 627.133C513.721 627.478 514.151 627.907 514.496 628.424C515.012 628.768 515.529 629.111 516.045 629.456C516.733 629.801 517.337 630.144 517.853 630.489C518.37 630.66 518.8 631.005 519.145 631.521C520.523 632.898 521.382 634.016 521.727 634.877C522.244 636.081 522.589 637.371 522.761 638.749C523.106 639.953 523.364 641.158 523.535 642.362C523.707 643.223 523.88 643.998 524.052 644.685C524.224 645.373 524.397 646.063 524.569 646.75C524.914 647.438 525.172 648.041 525.343 648.557C525.688 649.074 525.947 649.676 526.118 650.364V653.978C525.947 655.527 525.947 656.989 526.118 658.366C526.118 659.227 526.032 660.001 525.86 660.689C525.86 661.205 525.773 661.808 525.602 662.496C525.43 663.357 525.257 664.216 525.085 665.077C525.085 665.938 524.998 666.798 524.827 667.659C524.482 669.036 524.139 670.411 523.794 671.789C523.449 673.166 523.106 674.541 522.761 675.919C522.589 676.606 522.416 677.296 522.244 677.984C522.244 678.671 522.072 679.361 521.727 680.049C521.382 680.736 520.953 681.426 520.436 682.114C519.92 682.63 519.49 683.233 519.145 683.92C517.595 686.33 516.045 688.653 514.496 690.89C513.118 692.955 511.225 694.762 508.813 696.31C507.609 697.171 506.489 698.031 505.456 698.892C504.423 699.579 503.218 700.269 501.84 700.957C500.462 701.301 499.515 701.731 498.999 702.247C498.311 702.592 497.794 702.85 497.449 703.022C497.104 703.193 496.588 703.451 495.899 703.796C492.972 704.657 490.046 705.345 487.118 705.861C484.364 706.377 481.522 706.894 478.595 707.41C475.667 707.926 472.654 708.271 469.555 708.442C466.627 708.614 463.701 708.442 460.773 707.926C457.845 707.581 454.919 707.152 451.992 706.635C449.064 705.948 446.138 705.258 443.21 704.57C440.282 703.883 437.356 703.193 434.429 702.505C431.674 701.818 428.833 700.957 425.905 699.924C422.977 698.547 420.31 697.601 417.899 697.085C416.177 696.74 414.799 696.569 413.766 696.569C413.421 696.569 412.82 696.569 411.958 696.569C411.27 696.397 410.753 696.482 410.408 696.827C410.063 697.171 409.979 697.688 410.15 698.375C410.322 699.063 410.495 699.579 410.667 699.924C410.838 700.612 410.925 701.301 410.925 701.989C411.097 702.677 411.27 703.366 411.442 704.054C411.787 704.742 412.045 705.431 412.216 706.119C412.388 706.635 412.561 707.323 412.733 708.184C412.905 708.872 412.991 709.561 412.991 710.249C412.991 710.765 413.163 711.368 413.508 712.056C413.853 713.433 414.196 714.895 414.541 716.444C414.886 717.821 415.057 719.284 415.057 720.832C415.057 722.381 414.971 723.585 414.799 724.446C414.799 725.823 415.229 726.511 416.091 726.511C417.469 726.683 418.932 726.769 420.481 726.769C422.031 726.598 423.494 726.424 424.872 726.253C426.25 726.253 427.542 726.253 428.746 726.253C430.124 726.253 431.501 726.166 432.879 725.995C433.567 725.995 434.17 726.081 434.687 726.253C435.375 726.253 436.065 726.253 436.753 726.253C437.615 726.253 438.303 726.166 438.819 725.995C439.336 725.823 440.024 725.823 440.886 725.995C443.64 726.511 446.568 726.769 449.667 726.769C450.355 726.941 450.959 726.941 451.475 726.769C451.992 726.598 452.595 726.424 453.283 726.253C454.145 726.253 454.833 726.34 455.349 726.511C456.037 726.683 456.812 726.856 457.674 727.027C459.052 727.199 460.428 727.285 461.806 727.285C463.356 727.285 464.819 727.457 466.197 727.802C468.951 727.973 471.708 728.663 474.462 729.867C475.15 730.211 475.754 730.554 476.27 730.899C476.787 731.071 477.39 731.244 478.078 731.415C478.595 731.587 479.024 731.76 479.369 731.932C479.714 731.932 479.973 732.276 480.144 732.964C480.832 732.619 481.349 732.535 481.694 732.706C481.866 732.878 481.952 733.051 481.952 733.222C482.124 733.394 482.297 733.567 482.469 733.739C482.814 733.91 483.072 733.997 483.244 733.997C483.415 733.997 483.673 734.083 484.018 734.255C484.363 734.426 484.535 734.6 484.535 734.771C484.707 734.771 484.965 734.858 485.31 735.029C485.655 735.374 485.998 735.717 486.343 736.062C486.688 736.406 487.031 736.749 487.376 737.094C487.721 737.266 487.979 737.439 488.151 737.61C488.323 737.782 488.581 737.955 488.926 738.127C489.614 738.471 489.787 738.901 489.442 739.417C489.787 739.762 490.131 739.934 490.475 739.934C490.82 739.762 491.164 739.847 491.509 740.192C491.854 740.536 492.197 740.966 492.542 741.482C493.058 741.999 493.488 742.428 493.833 742.773C494.695 743.634 495.383 744.58 495.899 745.612C496.416 746.473 497.019 747.419 497.707 748.452C498.741 750.345 499.945 752.152 501.323 753.872C502.701 755.421 503.819 757.141 504.681 759.035C505.026 759.896 505.198 760.584 505.198 761.1C505.198 761.616 505.456 762.219 505.972 762.907C506.489 763.078 506.747 763.251 506.747 763.423L507.522 764.972C507.867 765.316 508.125 765.746 508.297 766.262C508.642 766.607 508.985 766.95 509.33 767.295C509.847 768.327 510.105 769.446 510.105 770.65C510.276 771.683 510.535 772.715 510.88 773.748C511.051 774.093 511.225 774.522 511.396 775.039C511.568 775.383 511.655 775.813 511.655 776.329C511.655 777.017 511.568 777.62 511.396 778.136C511.396 778.652 511.396 779.34 511.396 780.201C511.568 780.889 511.568 781.75 511.396 782.782C511.396 783.815 511.568 784.676 511.913 785.364C512.258 785.708 512.429 785.793 512.429 785.622C512.429 785.45 512.516 785.622 512.688 786.138V787.945C512.688 789.494 512.516 790.613 512.171 791.3C511.483 793.71 510.793 796.118 510.105 798.528C509.417 800.764 508.727 803.088 508.039 805.497C507.867 806.014 507.78 806.616 507.78 807.304C507.78 807.82 507.694 808.337 507.522 808.853C507.35 809.369 507.177 809.799 507.006 810.144C506.834 810.488 506.747 810.918 506.747 811.434C506.576 812.811 506.231 813.929 505.714 814.79C505.198 815.651 504.594 816.683 503.906 817.887C503.218 818.748 502.528 819.694 501.84 820.727C501.152 821.759 500.462 822.705 499.774 823.566C498.912 824.427 498.137 825.286 497.449 826.147C496.761 827.18 495.899 827.954 494.866 828.47C493.833 828.987 492.713 829.331 491.509 829.503C490.304 829.848 489.184 830.191 488.151 830.535C486.773 830.88 485.31 831.223 483.76 831.568C482.382 831.913 481.006 832.256 479.628 832.6C474.462 833.978 469.296 834.752 464.131 834.924C458.794 835.268 453.37 835.526 447.859 835.698C442.522 835.869 437.183 835.698 431.846 835.182C429.091 834.837 426.422 834.407 423.839 833.891C421.256 833.375 418.587 832.945 415.832 832.6C413.25 832.256 410.667 831.826 408.084 831.31C405.673 830.965 403.177 830.622 400.594 830.277C399.732 830.106 398.699 830.019 397.494 830.019C396.461 830.019 395.686 829.674 395.17 828.987C394.482 828.126 394.223 827.093 394.395 825.889C394.74 824.685 394.74 823.566 394.395 822.534C394.05 821.33 393.965 820.21 394.137 819.178C394.308 817.974 394.395 816.768 394.395 815.564C394.395 814.36 394.308 813.154 394.137 811.95C394.137 810.746 394.223 809.627 394.395 808.595C394.567 807.734 394.653 806.788 394.653 805.755C394.482 805.239 394.482 804.723 394.653 804.207C394.825 803.69 394.912 803.174 394.912 802.658C395.083 800.077 395.083 797.495 394.912 794.914C394.912 793.194 395.17 791.387 395.686 789.494C396.031 788.29 396.031 787.17 395.686 786.138C395.515 785.105 395.6 783.986 395.945 782.782C396.29 781.578 396.548 780.546 396.72 779.685C397.065 778.652 397.236 777.533 397.236 776.329C397.236 775.984 397.236 775.555 397.236 775.039C397.236 774.351 397.408 773.835 397.753 773.49C398.098 773.145 398.441 773.06 398.786 773.232C399.302 773.403 399.647 773.661 399.819 774.006C400.164 774.351 400.249 774.867 400.077 775.555C399.906 776.243 399.819 776.845 399.819 777.362C399.647 778.049 399.561 778.739 399.561 779.427C399.561 779.943 399.474 780.546 399.302 781.234C399.131 782.611 398.957 783.901 398.786 785.105C398.786 786.309 398.786 787.6 398.786 788.977C398.786 790.181 398.699 791.387 398.528 792.591C398.528 793.624 398.528 794.743 398.528 795.947C398.356 797.324 398.269 798.699 398.269 800.077C398.269 801.454 398.183 802.829 398.011 804.207C397.839 806.788 397.666 809.456 397.494 812.209C397.494 814.79 397.581 817.371 397.753 819.952C397.753 820.64 397.753 821.243 397.753 821.759C397.924 822.447 398.011 823.221 398.011 824.082C398.011 824.427 398.011 824.943 398.011 825.631C398.011 826.492 398.183 827.093 398.528 827.438C398.873 827.783 399.647 827.954 400.852 827.954C401.714 828.126 402.402 828.212 402.918 828.212C403.606 828.212 404.381 828.299 405.243 828.47C406.448 828.815 407.567 829.073 408.6 829.245C409.805 829.59 411.012 829.933 412.216 830.277C413.595 830.622 414.886 830.794 416.091 830.794C417.295 830.794 418.587 830.965 419.965 831.31C422.719 831.826 425.389 832.256 427.972 832.6C430.554 833.117 433.224 833.546 435.978 833.891C438.389 834.236 440.886 834.236 443.468 833.891C444.847 833.72 446.223 833.633 447.601 833.633C449.151 833.804 450.7 833.891 452.25 833.891C453.455 833.891 454.661 833.804 455.866 833.633C457.071 833.633 458.362 833.633 459.74 833.633C461.118 833.633 462.41 833.633 463.614 833.633C464.819 833.633 466.11 833.546 467.489 833.375C468.693 833.203 469.813 832.859 470.846 832.342C472.051 831.826 473.171 831.568 474.204 831.568C474.72 831.568 475.15 831.655 475.495 831.826C476.012 831.998 476.442 832.084 476.787 832.084C477.991 831.913 479.198 831.481 480.403 830.794C480.919 830.622 481.349 830.449 481.694 830.277C482.211 830.277 482.727 830.277 483.244 830.277C483.589 830.277 483.932 830.191 484.277 830.019C484.277 830.019 484.535 829.761 485.052 829.245C485.397 829.073 485.826 829.073 486.343 829.245C487.031 829.416 487.548 829.503 487.893 829.503C488.409 829.331 488.926 829.158 489.442 828.987C490.131 828.987 490.734 828.815 491.25 828.47C492.283 827.954 493.145 827.266 493.833 826.405C494.521 825.544 495.296 824.685 496.158 823.824C497.019 822.792 497.794 821.759 498.482 820.727C499.344 819.866 500.203 818.92 501.065 817.887C501.753 816.683 502.443 815.135 503.131 813.241C503.476 812.725 503.648 812.209 503.648 811.692C503.648 811.176 503.735 810.66 503.906 810.144C504.078 809.456 504.251 808.853 504.423 808.337C504.768 807.82 505.111 807.218 505.456 806.53C505.627 806.014 505.714 805.584 505.714 805.239C505.714 804.723 505.801 804.293 505.972 803.949C505.972 803.261 506.059 802.658 506.231 802.142C506.402 801.625 506.661 801.022 507.006 800.335C507.351 799.131 507.609 798.012 507.78 796.979C508.125 795.775 508.468 794.485 508.813 793.107C509.33 790.698 509.502 788.203 509.33 785.622C509.33 783.04 509.158 780.546 508.813 778.136C508.642 777.104 508.468 775.9 508.297 774.522C508.125 773.145 507.867 771.941 507.522 770.909C507.177 770.392 506.834 769.963 506.489 769.618C506.317 769.102 506.059 768.585 505.714 768.069C505.026 766.349 504.509 765.143 504.164 764.455C501.753 759.464 499.086 754.733 496.158 750.259C495.641 749.398 495.038 748.452 494.35 747.419C493.833 746.387 493.145 745.441 492.283 744.58C491.422 743.547 490.475 742.601 489.442 741.74C488.409 740.879 487.463 739.934 486.601 738.901C485.74 738.213 484.88 737.524 484.018 736.836C483.33 735.975 482.469 735.374 481.436 735.029C480.403 734.684 479.369 734.255 478.336 733.739C477.303 733.051 476.27 732.535 475.237 732.19C472.826 731.157 470.33 730.47 467.747 730.125C465.164 729.609 462.668 729.179 460.257 728.834C457.845 728.489 455.349 728.318 452.767 728.318C450.184 728.318 447.601 728.146 445.018 727.802C443.64 727.802 442.349 727.802 441.144 727.802C439.939 727.63 438.733 727.544 437.528 727.544C436.15 727.715 434.774 727.802 433.395 727.802C432.017 727.802 430.641 727.802 429.263 727.802C426.68 727.973 424.097 728.06 421.515 728.06C419.103 727.888 416.607 727.973 414.024 728.318C414.369 729.179 414.454 729.953 414.283 730.641C414.283 731.329 414.196 732.103 414.024 732.964C413.679 733.825 413.508 734.684 413.508 735.545C413.508 736.233 413.421 737.008 413.25 737.869C413.25 739.417 413.25 741.053 413.25 742.773C413.25 744.493 412.82 746.042 411.958 747.419C412.82 747.419 414.111 747.248 415.832 746.903C416.694 746.731 417.469 746.645 418.157 746.645C419.018 746.645 419.878 746.645 420.74 746.645C422.461 746.645 424.184 746.645 425.905 746.645C427.627 746.473 429.35 746.558 431.071 746.903C432.792 747.074 434.429 747.419 435.978 747.935C437.528 748.28 439.164 748.71 440.886 749.226C442.435 749.571 443.985 749.914 445.535 750.259C447.084 750.43 448.634 750.775 450.184 751.291C456.554 752.84 462.668 755.508 468.522 759.293C469.9 760.154 471.191 761.013 472.396 761.874C473.601 762.735 474.807 763.768 476.012 764.972C477.045 766.176 477.733 767.466 478.078 768.844C478.423 770.048 478.766 771.425 479.111 772.974C479.799 775.9 480.144 779.169 480.144 782.782C480.144 784.503 480.144 786.138 480.144 787.687C480.144 789.064 479.799 790.526 479.111 792.075C478.25 794.485 476.787 796.376 474.72 797.754C473.516 798.615 472.224 799.389 470.846 800.077C469.468 800.764 468.092 801.539 466.714 802.4C466.197 802.745 465.767 803.174 465.422 803.69C465.077 804.207 464.561 804.636 463.873 804.981C463.184 805.326 462.581 805.755 462.065 806.272C461.548 806.616 460.945 806.959 460.257 807.304C457.674 808.681 454.488 809.541 450.7 809.885C449.839 810.057 449.064 810.144 448.376 810.144C447.688 810.144 446.913 810.144 446.051 810.144C445.19 810.315 444.33 810.488 443.468 810.66C442.607 810.831 441.747 810.918 440.886 810.918C439.852 810.918 438.474 810.573 436.753 809.885C435.892 809.541 434.945 809.369 433.912 809.369C433.05 809.198 432.191 809.024 431.329 808.853C430.468 808.681 429.693 808.595 429.005 808.595C428.317 808.423 427.542 808.165 426.68 807.82C425.819 807.476 425.044 807.133 424.356 806.788C423.839 806.443 423.236 806.1 422.548 805.755C421.17 804.894 419.707 804.378 418.157 804.207C416.607 803.862 415.057 803.519 413.508 803.174C412.646 803.003 411.787 802.916 410.925 802.916C410.237 802.745 409.462 802.571 408.6 802.4C407.739 802.055 406.879 801.97 406.018 802.142C405.33 802.142 404.555 802.055 403.693 801.884C403.005 801.539 402.402 801.367 401.885 801.367C401.54 801.196 401.282 801.196 401.11 801.367C400.939 801.367 400.68 801.281 400.335 801.109C399.819 800.938 399.561 800.506 399.561 799.819C399.561 799.474 400.077 799.302 401.11 799.302C402.66 799.131 404.21 799.302 405.759 799.819C407.309 800.163 408.945 800.335 410.667 800.335C411.7 800.335 413.078 800.68 414.799 801.367C415.661 801.712 416.436 801.97 417.124 802.142C417.985 802.313 418.845 802.486 419.707 802.658C421.085 802.829 422.376 803.174 423.581 803.69C424.959 804.207 426.25 804.81 427.455 805.497C428.143 805.842 428.746 806.1 429.263 806.272C429.951 806.443 430.726 806.616 431.587 806.788L433.912 807.562C434.6 807.907 435.117 808.079 435.462 808.079C435.807 808.25 436.065 808.25 436.237 808.079C436.582 807.907 436.925 807.907 437.27 808.079C437.615 808.079 437.873 808.165 438.044 808.337C438.389 808.337 438.733 808.337 439.078 808.337C439.939 808.508 440.714 808.508 441.402 808.337C442.264 808.165 443.123 808.079 443.985 808.079C445.535 807.907 447.084 807.82 448.634 807.82C450.355 807.649 452.078 807.391 453.8 807.046C457.071 806.53 459.912 805.239 462.323 803.174C464.906 800.938 467.66 799.131 470.588 797.754C471.793 797.066 472.826 796.463 473.687 795.947C474.549 795.259 475.324 794.311 476.012 793.107C476.7 791.73 477.045 790.268 477.045 788.719C477.216 786.999 477.303 785.364 477.303 783.815V779.427C477.132 778.566 476.873 777.791 476.528 777.104C476.357 776.243 476.183 775.383 476.012 774.522C475.84 773.835 475.754 773.232 475.754 772.715C475.925 772.028 476.012 771.338 476.012 770.65C475.84 769.789 475.15 768.757 473.946 767.553C473.257 767.037 472.396 766.091 471.363 764.714C471.018 764.026 470.588 763.681 470.071 763.681C469.726 763.51 469.125 763.251 468.263 762.907C467.575 762.562 466.972 762.132 466.455 761.616C465.939 761.1 465.336 760.67 464.647 760.325L460.773 758.002C457.845 756.625 454.833 755.25 451.733 753.872C450.184 753.356 448.634 752.926 447.084 752.582C445.535 752.237 443.985 751.894 442.435 751.549C440.714 751.204 439.078 750.861 437.528 750.517C435.978 750 434.342 749.571 432.621 749.226C431.759 749.055 430.984 748.968 430.296 748.968C429.78 748.796 429.091 748.71 428.23 748.71C427.542 748.881 426.852 748.968 426.164 748.968C425.475 748.796 424.701 748.796 423.839 748.968C422.978 748.968 422.203 749.055 421.515 749.226C420.826 749.226 420.052 749.226 419.19 749.226C418.328 749.397 417.469 749.484 416.607 749.484C415.919 749.313 415.144 749.313 414.283 749.484C413.25 749.829 412.216 750.087 411.183 750.259C410.15 750.259 409.462 749.571 409.117 748.194C409.117 747.332 409.117 746.558 409.117 745.87C409.289 745.183 409.462 744.408 409.634 743.547C409.634 742.686 409.634 741.912 409.634 741.224C409.805 740.536 410.063 739.847 410.408 739.159ZM409.892 694.504C411.097 694.675 412.216 694.762 413.25 694.762C414.283 694.59 415.402 694.504 416.607 694.504C417.812 694.504 418.932 694.675 419.965 695.02C421.17 695.365 422.376 695.707 423.581 696.052C424.442 696.397 425.302 696.827 426.164 697.343C427.025 697.859 427.885 698.204 428.746 698.375C429.951 698.547 430.984 698.805 431.846 699.15C432.879 699.495 433.912 699.838 434.945 700.182C437.356 701.043 439.766 701.731 442.177 702.247C444.588 702.764 447.084 703.28 449.667 703.796C452.078 704.141 454.403 704.57 456.641 705.087C458.879 705.603 461.203 705.861 463.614 705.861C466.026 705.861 468.435 705.861 470.846 705.861C473.257 705.69 475.667 705.516 478.078 705.345C479.283 705.345 480.403 705.258 481.436 705.087C482.469 704.742 483.589 704.399 484.793 704.054C485.826 703.709 486.86 703.538 487.893 703.538C489.097 703.366 490.217 703.108 491.25 702.764C492.112 702.419 492.887 702.076 493.575 701.731C494.436 701.386 495.296 701.043 496.158 700.699C497.191 700.182 498.224 699.753 499.257 699.408C500.29 698.892 501.323 698.289 502.356 697.601C503.906 696.74 505.543 695.449 507.264 693.729C508.125 693.041 508.9 692.439 509.588 691.922C510.276 691.235 511.051 690.46 511.913 689.599C512.601 688.738 513.204 687.879 513.721 687.018C514.237 685.985 514.841 685.04 515.529 684.179C516.045 683.146 516.649 682.114 517.337 681.081C518.025 679.877 518.541 678.758 518.886 677.725C519.231 676.693 519.403 675.66 519.403 674.628C519.575 673.595 519.833 672.563 520.178 671.53C520.523 670.153 520.866 669.121 521.211 668.433C521.383 667.917 521.469 667.487 521.469 667.142C521.469 666.626 521.556 666.11 521.727 665.594C521.727 664.39 521.899 663.27 522.244 662.238C522.589 661.034 522.761 659.828 522.761 658.624C523.106 656.043 523.019 653.548 522.502 651.139C522.331 649.935 522.157 648.815 521.986 647.783C521.814 646.579 521.556 645.373 521.211 644.169C520.866 642.792 520.523 641.501 520.178 640.297C520.006 639.093 519.661 637.888 519.145 636.684C518.283 634.619 516.992 632.898 515.27 631.521C513.721 630.144 512 629.026 510.105 628.165C505.456 625.756 500.893 624.035 496.416 623.003C494.005 622.487 491.595 622.057 489.184 621.712C486.773 621.368 484.363 621.025 481.952 620.68C480.748 620.335 479.541 620.164 478.336 620.164C477.303 620.164 476.099 620.164 474.72 620.164C473.516 619.992 472.309 619.819 471.104 619.647C469.9 619.476 468.693 619.302 467.489 619.131C461.978 618.615 456.382 618.443 450.7 618.615C445.19 618.786 439.681 619.044 434.17 619.389C431.242 619.389 428.317 619.389 425.389 619.389C422.634 619.389 419.793 619.561 416.865 619.905C415.487 619.905 414.111 619.905 412.733 619.905C411.355 619.734 409.979 619.647 408.6 619.647C407.222 619.819 405.846 619.905 404.468 619.905C403.09 619.905 401.714 619.905 400.335 619.905C400.335 621.799 400.164 623.691 399.819 625.584C399.474 627.304 399.389 629.111 399.561 631.005C399.732 632.898 399.906 634.79 400.077 636.684C400.249 638.404 400.507 640.211 400.852 642.104C401.024 642.792 401.11 643.824 401.11 645.202C401.11 645.546 401.11 645.889 401.11 646.234C401.11 646.579 401.197 646.837 401.369 647.009C401.714 647.525 402.402 647.696 403.435 647.525C404.468 647.18 405.243 647.009 405.759 647.009C407.654 646.664 409.634 646.406 411.7 646.234C413.766 646.063 415.746 645.805 417.64 645.46C419.535 645.115 421.428 644.685 423.322 644.169C425.217 643.653 427.11 643.308 429.005 643.137C430.899 642.965 432.792 642.792 434.687 642.62C436.582 642.449 438.474 642.276 440.369 642.104H446.309C447.171 642.104 448.117 642.018 449.151 641.846C450.184 641.675 451.217 641.675 452.25 641.846C454.145 642.191 456.037 642.362 457.932 642.362C459.827 642.362 461.72 642.534 463.614 642.879C467.23 643.223 470.846 643.998 474.462 645.202C476.183 645.889 477.82 646.492 479.369 647.009C480.919 647.525 482.469 648.213 484.018 649.074C485.223 649.935 486.43 650.88 487.634 651.913C487.979 652.258 488.409 652.774 488.926 653.462C489.614 653.978 490.046 654.581 490.217 655.269C490.389 655.613 490.389 655.956 490.217 656.301C490.046 656.472 489.872 656.731 489.701 657.075C489.529 657.42 489.442 657.763 489.442 658.108C489.442 658.279 489.356 658.537 489.184 658.882C488.839 660.26 488.064 661.808 486.86 663.529C485.998 665.077 485.138 666.539 484.277 667.917C483.415 669.121 482.124 670.153 480.403 671.014C479.714 671.359 479.111 671.789 478.595 672.305C478.25 672.65 477.648 672.993 476.787 673.337C475.754 673.682 474.72 674.112 473.687 674.628C472.826 674.973 471.879 675.316 470.846 675.66L468.522 676.435C468.177 676.606 467.747 676.693 467.23 676.693C466.885 676.521 466.542 676.435 466.197 676.435C465.164 676.263 464.131 676.348 463.098 676.693C462.236 676.864 461.29 677.038 460.257 677.209C458.362 677.381 456.469 677.639 454.574 677.984C452.853 678.155 451.045 678.328 449.151 678.5C446.739 678.845 444.415 679.103 442.177 679.274C440.111 679.446 437.958 679.619 435.72 679.79C434.515 679.962 433.395 680.135 432.362 680.307C431.329 680.307 430.209 680.478 429.005 680.823C426.938 681.339 425.044 681.597 423.322 681.597C421.085 681.597 418.932 681.855 416.865 682.372C416.349 682.372 415.832 682.458 415.316 682.63C414.799 682.63 414.283 682.63 413.766 682.63C413.421 682.63 412.991 682.63 412.475 682.63C412.13 682.458 411.787 682.543 411.442 682.888C410.925 683.404 410.58 684.35 410.408 685.727C410.408 686.931 410.408 687.879 410.408 688.567C410.237 689.599 410.063 690.632 409.892 691.664C409.892 692.697 409.892 693.643 409.892 694.504ZM410.925 725.479C410.925 725.307 410.925 724.617 410.925 723.414C411.097 722.036 411.097 720.746 410.925 719.542C410.925 718.164 410.838 716.96 410.667 715.928C410.495 714.895 410.322 714.379 410.15 714.379C410.15 714.379 410.15 714.895 410.15 715.928C410.15 716.96 410.237 718.164 410.408 719.542C410.58 720.919 410.667 722.21 410.667 723.414C410.838 724.617 410.925 725.307 410.925 725.479Z" fill="white"/>
<path d="M498.039 225.601C498.432 226.584 498.432 227.666 498.039 228.846C497.842 229.634 497.744 230.814 497.744 232.386V233.271C497.744 234.649 497.646 235.631 497.449 236.221C497.449 236.614 497.351 236.909 497.154 237.106C497.154 237.304 497.154 237.599 497.154 237.991V240.056C497.154 241.236 497.056 242.121 496.859 242.711C496.859 243.694 496.661 244.974 496.268 246.546L495.973 247.726V248.021V248.316V248.906C495.973 249.694 495.875 250.184 495.678 250.381C495.678 250.579 495.58 250.774 495.383 250.971C495.383 250.971 495.383 251.069 495.383 251.266V251.856C494.99 252.644 494.695 253.429 494.497 254.216C494.3 254.806 494.104 255.594 493.907 256.576C493.316 258.149 492.628 259.724 491.841 261.296C491.053 262.674 490.267 264.149 489.479 265.721C489.479 265.919 489.381 266.016 489.184 266.016C489.184 266.016 489.184 266.114 489.184 266.311C488.396 267.491 488.003 268.376 488.003 268.966C487.806 269.754 487.61 270.441 487.413 271.031C487.215 271.621 486.92 272.309 486.527 273.096C486.527 273.489 486.33 273.884 485.937 274.276C485.544 275.456 485.249 276.244 485.051 276.636L484.166 277.521C484.166 277.719 483.968 278.014 483.576 278.406C483.576 278.604 483.478 278.799 483.28 278.996C483.28 278.996 483.28 279.194 483.28 279.586C483.083 279.784 482.985 279.979 482.985 280.176C482.985 280.374 482.887 280.569 482.69 280.766C481.707 282.536 480.821 284.011 480.033 285.191L479.738 285.486C479.345 286.274 478.95 286.864 478.557 287.256C478.36 287.454 478.165 287.551 477.967 287.551C477.967 287.551 477.869 287.649 477.672 287.846L477.377 288.141V288.436C477.179 288.829 477.082 289.224 477.082 289.616C476.884 290.009 476.689 290.304 476.491 290.501C476.294 290.501 476.098 290.599 475.901 290.796L475.311 291.386C474.918 291.779 474.622 292.074 474.425 292.271C474.425 292.469 474.228 292.764 473.835 293.156C473.442 293.944 473.047 294.434 472.654 294.631C472.261 295.221 471.866 295.811 471.473 296.401C471.08 296.794 470.685 297.286 470.293 297.876C468.521 300.039 466.653 302.104 464.684 304.071C462.913 306.039 461.044 308.104 459.076 310.266C457.107 312.234 455.238 314.299 453.467 316.461C451.696 318.624 449.925 320.789 448.154 322.951C447.564 323.541 446.678 324.624 445.498 326.196C437.233 336.619 426.704 344.781 413.913 350.681H413.618C412.045 351.469 410.764 352.059 409.781 352.451C409.584 352.451 409.388 352.549 409.191 352.746C408.993 352.746 408.798 352.746 408.6 352.746C408.207 352.944 407.912 353.041 407.715 353.041C407.517 353.041 407.222 353.139 406.829 353.336C407.813 353.534 408.698 353.729 409.486 353.926C410.469 353.926 411.454 354.024 412.438 354.221C414.602 354.614 416.767 355.009 418.932 355.401C421.293 355.599 423.557 355.894 425.721 356.286C427.099 356.484 428.377 356.679 429.558 356.876C430.936 356.876 432.312 356.876 433.69 356.876C435.854 357.074 437.921 357.269 439.889 357.466C442.053 357.466 444.219 357.664 446.383 358.056C448.154 358.449 449.827 358.844 451.401 359.236C453.172 359.434 454.746 359.729 456.124 360.121C456.517 360.319 457.107 360.416 457.895 360.416C459.273 360.809 460.649 361.301 462.028 361.891C463.601 362.284 464.586 363.071 464.979 364.251C465.372 364.841 465.372 365.529 464.979 366.316C464.782 367.104 464.487 367.791 464.094 368.381V368.971C463.306 370.349 462.716 371.724 462.323 373.101V374.576L461.437 377.231V377.526C460.847 378.509 460.847 379.199 461.437 379.591L462.028 380.181L461.437 380.476C461.044 380.674 460.552 380.869 459.961 381.066C459.568 381.264 459.173 381.361 458.781 381.361C458.388 381.361 457.993 381.264 457.6 381.066L456.714 380.181C456.714 379.984 456.617 379.886 456.419 379.886C456.419 379.689 455.927 379.394 454.943 379.001H454.648C453.86 378.804 453.074 378.609 452.287 378.411C451.696 378.411 450.909 378.214 449.925 377.821C448.942 377.624 447.859 377.429 446.678 377.231C445.498 377.034 444.317 376.739 443.136 376.346C441.168 375.756 439.299 375.364 437.528 375.166C435.757 375.166 433.788 375.069 431.624 374.871C430.641 374.871 429.755 374.871 428.968 374.871C428.18 374.871 427.294 374.774 426.311 374.576C425.328 374.576 424.245 374.576 423.064 374.576C421.883 374.576 420.8 374.479 419.817 374.281C417.849 374.281 415.882 374.281 413.913 374.281C412.142 374.479 410.274 374.576 408.305 374.576C406.141 374.774 403.877 374.871 401.516 374.871C399.155 375.069 396.891 375.069 394.727 374.871C393.744 374.871 392.758 374.774 391.775 374.576C390.792 374.576 389.807 374.576 388.823 374.576H387.052C384.888 374.576 383.412 374.479 382.625 374.281C381.641 373.889 381.051 373.396 380.854 372.806C380.854 372.216 380.951 371.724 381.149 371.331C381.149 370.741 381.149 370.151 381.149 369.561C381.346 368.971 381.444 368.381 381.444 367.791V365.726C381.641 364.744 381.739 363.859 381.739 363.071C381.936 362.089 382.132 361.104 382.329 360.121L383.215 353.926V353.336C383.215 352.944 383.215 352.451 383.215 351.861C383.412 351.271 383.708 350.779 384.1 350.386C384.691 350.189 385.774 350.289 387.347 350.681H388.528C389.511 350.879 390.987 350.976 392.956 350.976C394.137 351.174 395.317 351.271 396.498 351.271C397.876 351.271 399.155 351.271 400.335 351.271C402.499 351.074 404.468 350.681 406.239 350.091C408.01 349.501 409.683 348.814 411.257 348.026C412.831 347.239 414.406 346.454 415.98 345.666C417.553 344.879 419.227 343.896 420.998 342.716L423.654 340.946C425.818 339.964 427.984 338.489 430.148 336.521C435.264 331.999 440.48 326.689 445.793 320.591C446.383 319.804 446.973 319.019 447.564 318.231C448.154 317.444 448.744 316.659 449.335 315.871L451.991 312.331C452.975 311.151 454.058 310.069 455.238 309.086C455.829 308.496 456.419 308.004 457.009 307.611C457.6 307.021 458.092 306.431 458.485 305.841C460.649 302.891 463.208 299.941 466.16 296.991C467.341 295.614 468.521 294.336 469.702 293.156C470.883 291.779 472.064 290.304 473.244 288.731C474.032 287.749 474.72 286.666 475.311 285.486C475.901 284.306 476.589 283.126 477.377 281.946C478.165 280.766 478.655 279.881 478.853 279.291C480.624 276.539 482.395 273.194 484.166 269.261C484.559 268.279 484.854 267.491 485.051 266.901C485.444 266.311 485.839 265.624 486.232 264.836C486.625 263.854 487.02 263.066 487.413 262.476C487.806 261.689 488.201 260.804 488.594 259.821C490.365 255.494 491.643 251.659 492.431 248.316C493.219 245.169 493.809 241.826 494.202 238.286C494.792 234.746 494.89 231.206 494.497 227.666C494.3 226.486 494.202 225.306 494.202 224.126C494.202 222.749 494.202 221.471 494.202 220.291C494.595 218.719 494.595 217.144 494.202 215.571V209.376C494.202 208.984 494.104 208.589 493.907 208.196C493.907 207.606 493.907 207.016 493.907 206.426C493.907 206.034 493.809 205.639 493.612 205.246C493.612 204.656 493.612 204.164 493.612 203.771C493.612 199.641 493.219 196.004 492.431 192.856C492.038 192.069 491.841 191.479 491.841 191.086C491.643 190.694 491.448 190.201 491.25 189.611C491.25 189.021 491.152 188.529 490.955 188.136C490.758 187.744 490.66 187.349 490.66 186.956C490.66 186.564 490.562 186.169 490.365 185.776C490.365 184.989 490.167 184.006 489.774 182.826C488.594 179.286 487.215 175.746 485.642 172.206C484.264 168.666 482.788 165.225 481.214 161.881C480.231 160.308 479.246 158.735 478.262 157.161C477.279 155.588 476.196 154.015 475.015 152.441C472.457 149.098 469.9 146.541 467.341 144.771C464.192 142.608 460.945 140.641 457.6 138.871C454.255 136.905 450.613 135.528 446.678 134.741C445.89 134.741 445.3 134.643 444.907 134.446C443.334 134.053 442.153 133.856 441.365 133.856C440.382 133.66 439.397 133.66 438.413 133.856C437.43 133.856 436.445 133.955 435.461 134.151C433.888 134.545 432.51 134.741 431.329 134.741C430.148 134.938 428.968 135.135 427.787 135.331C426.606 135.331 425.523 135.528 424.54 135.921C416.668 138.085 410.469 141.625 405.944 146.541C400.04 152.638 396.4 158.833 395.022 165.126C394.432 167.683 393.841 170.24 393.251 172.796C392.858 175.353 392.365 177.811 391.775 180.171C391.578 181.351 391.382 182.531 391.185 183.711C391.185 184.891 390.987 186.071 390.594 187.251C390.397 187.644 390.299 188.136 390.299 188.726C390.299 189.119 390.201 189.514 390.004 189.906C390.004 189.906 389.906 190.104 389.709 190.496C389.709 190.694 389.611 190.889 389.414 191.086C389.414 191.284 389.414 191.479 389.414 191.676C389.611 192.069 390.004 192.364 390.594 192.561C391.382 192.759 391.972 192.954 392.365 193.151C392.563 193.151 392.758 193.249 392.956 193.446C394.727 194.036 396.4 194.331 397.974 194.331H398.564C399.352 194.331 399.942 194.429 400.335 194.626H400.63H401.516H401.811V194.331V194.036C402.009 193.446 402.106 192.856 402.106 192.266C402.304 191.479 402.499 190.791 402.697 190.201C403.09 189.021 403.385 187.841 403.582 186.661C403.975 185.284 404.37 184.006 404.763 182.826C404.96 182.236 405.156 181.646 405.353 181.056C405.551 180.27 405.746 179.483 405.944 178.696C406.927 176.14 407.715 173.878 408.305 171.911C408.502 170.928 408.993 169.65 409.781 168.076L410.076 167.781C410.274 167.388 410.371 167.093 410.371 166.896C410.371 166.7 410.469 166.405 410.667 166.011C410.667 165.225 410.962 164.34 411.552 163.356C411.945 162.963 412.34 162.57 412.733 162.176C413.323 161.783 413.816 161.39 414.209 160.996C414.602 160.8 415.094 160.406 415.685 159.816C415.882 159.62 416.077 159.521 416.275 159.521C416.472 159.325 416.668 159.128 416.865 158.931C417.258 158.341 417.751 157.85 418.341 157.456C418.931 156.866 419.424 156.375 419.817 155.981C421.195 154.998 422.474 154.31 423.654 153.916C425.032 153.523 426.409 153.13 427.787 152.736C428.18 152.54 428.475 152.441 428.672 152.441C428.87 152.441 429.165 152.343 429.558 152.146C433.493 150.966 436.937 150.868 439.889 151.851C440.677 152.245 441.66 152.835 442.841 153.621C443.234 153.818 443.431 154.015 443.431 154.211C443.629 154.211 443.924 154.31 444.317 154.506C444.907 154.9 445.793 155.293 446.973 155.686C447.366 155.883 447.662 156.08 447.859 156.276C448.252 156.276 448.647 156.375 449.04 156.571C450.613 157.161 452.189 157.948 453.763 158.931C454.155 158.931 454.451 159.03 454.648 159.226C456.419 159.816 457.698 160.701 458.485 161.881C459.076 162.668 459.568 163.946 459.961 165.716V166.011C460.354 167.585 460.552 168.568 460.552 168.961C460.749 169.551 460.847 170.141 460.847 170.731C461.044 171.125 461.24 171.616 461.437 172.206C461.437 172.796 461.535 173.19 461.732 173.386C461.93 173.976 462.028 174.566 462.028 175.156C462.028 175.55 462.125 176.041 462.323 176.631C462.323 177.025 462.323 177.32 462.323 177.516C462.52 177.713 462.42 178.008 462.028 178.401C462.028 178.598 461.93 178.795 461.732 178.991H461.437C461.437 179.188 461.535 179.385 461.732 179.581V180.466C461.732 181.253 461.339 182.236 460.552 183.416C460.552 183.416 460.354 183.81 459.961 184.596C459.568 185.579 459.076 186.564 458.485 187.546C458.092 188.529 457.698 189.414 457.305 190.201C457.107 190.594 456.912 190.989 456.714 191.381C456.517 191.774 456.222 192.169 455.829 192.561C455.238 193.151 454.845 193.644 454.648 194.036C454.255 194.824 453.763 195.609 453.172 196.396C452.582 197.184 451.894 197.969 451.106 198.756C450.713 199.149 450.418 199.544 450.22 199.936C450.023 200.134 449.728 200.429 449.335 200.821C448.942 201.214 448.547 201.509 448.154 201.706C448.154 201.706 447.957 201.804 447.564 202.001C447.366 202.199 447.269 202.394 447.269 202.591V203.181C446.876 204.164 446.481 204.854 446.088 205.246L445.498 205.541C444.907 206.131 444.317 207.016 443.726 208.196V208.786C443.529 209.179 443.431 209.474 443.431 209.671C443.431 209.869 443.234 210.164 442.841 210.556C442.644 210.754 442.251 210.851 441.66 210.851H441.365C441.365 211.049 441.267 211.244 441.07 211.441C441.07 211.639 441.07 211.834 441.07 212.031C441.07 212.229 440.972 212.424 440.775 212.621L439.889 214.391L439.004 215.276C438.216 216.654 437.43 217.539 436.642 217.931C436.249 218.324 435.854 218.619 435.461 218.816C435.264 218.816 434.969 218.914 434.576 219.111C433.593 219.504 432.903 219.899 432.51 220.291C432.117 220.684 431.722 221.274 431.329 222.061C430.936 222.849 430.541 223.439 430.148 223.831C429.165 225.011 428.18 226.191 427.196 227.371C426.213 228.354 425.228 229.339 424.245 230.321L422.178 232.386C421.981 232.779 421.786 233.074 421.588 233.271C421.391 233.271 421.096 233.469 420.703 233.861C419.915 234.254 419.424 234.649 419.227 235.041C418.834 235.434 418.439 235.926 418.046 236.516C417.653 236.909 417.258 237.304 416.865 237.696C416.865 237.894 416.668 238.189 416.275 238.581C415.292 239.959 414.306 241.334 413.323 242.711C412.34 244.089 411.355 245.464 410.371 246.841C409.781 247.431 409.486 247.924 409.486 248.316C409.093 249.104 408.798 249.594 408.6 249.791C408.403 249.989 408.305 250.184 408.305 250.381C408.108 250.381 408.01 250.479 408.01 250.676V250.971C407.813 251.169 407.715 251.364 407.715 251.561C406.731 256.084 404.96 259.919 402.402 263.066C402.009 263.459 401.713 263.951 401.516 264.541C401.516 265.131 401.319 265.819 400.926 266.606L400.04 269.261C399.647 270.049 399.252 270.639 398.859 271.031C398.662 271.621 398.466 272.211 398.269 272.801C398.072 273.194 397.776 273.686 397.383 274.276C397.186 274.669 397.088 275.064 397.088 275.456C397.088 275.654 396.991 275.949 396.793 276.341C396.793 276.734 396.596 277.719 396.203 279.291C395.81 280.274 395.515 281.454 395.317 282.831C395.12 284.011 394.924 285.191 394.727 286.371C394.727 286.961 394.629 287.551 394.432 288.141C394.432 288.731 394.432 289.224 394.432 289.616L393.841 292.271C393.644 293.844 393.448 295.419 393.251 296.991C393.054 298.369 392.858 299.844 392.661 301.416C392.463 302.399 392.268 303.384 392.07 304.366C392.07 305.154 392.07 306.039 392.07 307.021C392.268 307.809 392.268 308.594 392.07 309.381C391.873 309.971 391.677 310.659 391.48 311.446C391.48 311.839 391.382 312.234 391.185 312.626C391.185 313.019 391.087 313.511 390.89 314.101C390.89 314.494 390.89 314.986 390.89 315.576C390.692 315.969 390.594 316.364 390.594 316.756C390.594 316.954 390.497 317.249 390.299 317.641C389.906 319.609 389.611 320.984 389.414 321.771C389.216 322.164 389.118 322.459 389.118 322.656C389.118 322.854 389.021 323.049 388.823 323.246C388.626 323.639 388.528 324.131 388.528 324.721C388.528 325.114 388.43 325.509 388.233 325.901C388.233 326.884 388.135 327.671 387.938 328.261C387.938 328.654 387.74 329.244 387.347 330.031C386.954 331.211 386.757 332.096 386.757 332.686V334.751C386.757 335.931 386.659 336.914 386.462 337.701V339.766V342.716C386.069 344.094 385.674 344.879 385.281 345.076V345.371V345.666H384.986C384.986 345.864 384.789 345.961 384.396 345.961C384.396 345.764 384.298 345.666 384.1 345.666C383.903 345.666 383.708 345.569 383.51 345.371C383.313 345.371 383.215 345.274 383.215 345.076C382.232 344.289 381.837 343.011 382.034 341.241C382.034 340.849 382.034 340.554 382.034 340.356C382.232 340.159 382.329 339.864 382.329 339.471C382.722 337.899 382.92 336.816 382.92 336.226V334.161C382.722 333.374 382.625 332.294 382.625 330.916C383.215 328.556 383.708 326.491 384.1 324.721C384.691 322.754 385.379 320.984 386.167 319.411C386.56 318.034 386.954 316.364 387.347 314.396C387.347 314.004 387.347 313.609 387.347 313.216C387.545 312.626 387.643 312.036 387.643 311.446C387.84 311.054 387.938 310.659 387.938 310.266C387.938 309.874 388.036 309.479 388.233 309.086C388.233 307.316 388.135 306.039 387.938 305.251V303.776C387.938 302.794 387.938 302.006 387.938 301.416C388.135 300.826 388.43 300.139 388.823 299.351C389.021 298.761 389.118 297.876 389.118 296.696V295.221C389.511 294.239 390.004 293.746 390.594 293.746C390.397 293.156 390.299 292.664 390.299 292.271C390.497 291.879 390.594 291.484 390.594 291.091C390.792 290.699 390.89 290.109 390.89 289.321C391.087 289.124 391.185 288.634 391.185 287.846C391.185 285.879 391.283 284.404 391.48 283.421C391.48 282.831 391.677 282.339 392.07 281.946C392.463 281.159 392.661 280.766 392.661 280.766V279.881C392.463 279.489 392.365 278.996 392.365 278.406C392.365 277.619 392.563 276.636 392.956 275.456C393.349 274.669 393.546 273.884 393.546 273.096C393.939 272.114 394.529 271.031 395.317 269.851C395.71 269.064 395.908 268.574 395.908 268.376C396.301 267.786 396.596 267.196 396.793 266.606C396.991 266.016 397.286 265.426 397.679 264.836C397.876 263.656 398.269 262.574 398.859 261.591C399.252 260.804 399.843 259.821 400.63 258.641C401.418 257.659 401.909 256.576 402.106 255.396C402.499 254.806 402.794 254.216 402.992 253.626C403.189 252.839 403.484 252.151 403.877 251.561C404.27 250.381 404.566 249.594 404.763 249.201C405.156 248.219 405.551 247.431 405.944 246.841C406.337 246.251 406.731 245.564 407.124 244.776L408.01 243.891C408.403 243.499 408.6 243.204 408.6 243.006C408.798 242.614 408.993 242.219 409.191 241.826C409.584 241.236 410.076 240.646 410.667 240.056C411.257 239.269 411.749 238.581 412.142 237.991C413.126 237.009 414.011 236.124 414.799 235.336C415.587 234.354 416.373 233.369 417.16 232.386C417.358 231.994 417.849 231.599 418.636 231.206C418.636 231.009 418.636 230.911 418.636 230.911C418.834 230.911 418.932 230.814 418.932 230.616C419.522 230.419 419.915 230.026 420.112 229.436C420.31 229.239 420.407 229.141 420.407 229.141C420.407 228.944 420.505 228.749 420.703 228.551C421.293 227.764 421.981 227.076 422.769 226.486C423.162 226.094 423.457 225.896 423.654 225.896C423.852 225.699 424.047 225.404 424.245 225.011L424.835 224.126C425.623 223.339 426.311 222.651 426.901 222.061C427.492 221.274 428.18 220.489 428.968 219.701L430.148 218.816L433.69 215.276C434.281 214.686 434.773 214.294 435.166 214.096C435.559 213.506 436.052 212.916 436.642 212.326C437.233 211.736 437.725 211.146 438.118 210.556V210.261C438.315 210.064 438.413 209.966 438.413 209.966C438.413 209.769 438.511 209.574 438.708 209.376C438.708 209.376 438.906 209.179 439.299 208.786C439.496 208.786 439.594 208.689 439.594 208.491C439.791 208.294 439.889 208.099 439.889 207.901C440.087 207.901 440.184 207.704 440.184 207.311C440.577 206.329 441.07 205.444 441.66 204.656C442.448 203.674 443.038 202.984 443.431 202.591C443.629 202.591 443.726 202.494 443.726 202.296C443.924 202.296 444.119 202.199 444.317 202.001V201.706L444.612 201.411V200.821C444.809 200.624 444.907 200.429 444.907 200.231C444.907 200.034 445.005 199.839 445.202 199.641C446.383 197.871 447.662 196.594 449.04 195.806C449.433 195.609 449.728 195.314 449.925 194.921V194.626C450.123 194.036 450.613 193.151 451.401 191.971C451.598 191.774 451.696 191.579 451.696 191.381C451.894 191.184 452.089 190.989 452.287 190.791C452.68 190.201 453.074 189.611 453.467 189.021C454.058 188.431 454.451 187.644 454.648 186.661L454.943 186.366C454.943 185.776 455.238 185.186 455.829 184.596C456.222 184.203 456.517 183.81 456.714 183.416C456.912 183.023 457.107 182.63 457.305 182.236C457.305 182.04 457.402 181.843 457.6 181.646C457.993 180.86 458.19 180.27 458.19 179.876C458.19 179.09 458.092 178.5 457.895 178.106V177.221C457.698 176.435 457.6 175.746 457.6 175.156C457.6 174.37 457.502 173.583 457.305 172.796C457.305 171.42 457.207 170.436 457.009 169.846C457.009 168.47 456.812 167.486 456.419 166.896C456.419 166.896 456.321 166.798 456.124 166.601C456.124 166.405 456.026 166.306 455.829 166.306C455.829 166.11 455.829 165.913 455.829 165.716C455.829 165.716 455.829 165.421 455.829 164.831V164.241C455.436 163.651 454.845 163.061 454.058 162.471C453.86 162.471 453.665 162.373 453.467 162.176C452.484 161.783 451.599 161.39 450.811 160.996C450.22 160.603 449.433 160.21 448.449 159.816C447.662 159.423 447.171 159.226 446.973 159.226L445.498 158.341C444.71 157.948 443.924 157.653 443.136 157.456C442.348 157.063 441.562 156.67 440.775 156.276C439.397 155.686 438.315 155.293 437.528 155.096C436.74 154.9 435.757 154.9 434.576 155.096L433.1 155.391C431.132 155.785 429.165 156.276 427.196 156.866C425.425 157.26 423.752 158.145 422.178 159.521C420.014 161.488 418.144 163.455 416.57 165.421C414.996 167.191 413.716 169.06 412.733 171.026C411.945 172.403 411.257 174.271 410.667 176.631C410.667 177.025 410.569 177.32 410.371 177.516C410.371 177.516 410.371 177.713 410.371 178.106C409.978 179.68 409.584 181.155 409.191 182.531C408.798 183.711 408.403 185.089 408.01 186.661C407.813 187.054 407.517 187.841 407.124 189.021C406.337 191.184 405.846 193.151 405.648 194.921V195.511C406.041 196.691 405.944 197.576 405.353 198.166C404.763 198.756 403.78 198.854 402.402 198.461H402.106C401.123 198.461 400.433 198.364 400.04 198.166C397.876 198.166 395.612 197.871 393.251 197.281C392.858 197.084 392.563 196.986 392.365 196.986C392.168 196.986 391.873 196.889 391.48 196.691C390.299 196.299 389.611 196.101 389.414 196.101C389.216 195.904 389.021 195.806 388.823 195.806C388.626 196.004 388.528 196.299 388.528 196.691C388.528 196.889 388.43 197.084 388.233 197.281V197.576L387.938 198.756L387.347 197.871C387.15 197.674 387.052 197.479 387.052 197.281C386.462 197.084 386.167 196.594 386.167 195.806C385.969 195.414 385.872 195.216 385.872 195.216C386.069 195.019 386.167 194.824 386.167 194.626C386.167 194.429 386.264 194.234 386.462 194.036C386.462 193.644 386.364 193.249 386.167 192.856C385.969 192.464 385.774 192.069 385.576 191.676C385.379 191.676 385.281 191.579 385.281 191.381L384.691 190.496H385.576H386.462C386.462 190.299 386.364 190.201 386.167 190.201C386.167 190.004 386.167 189.809 386.167 189.611C386.167 188.234 386.364 186.564 386.757 184.596C387.347 183.22 387.643 181.745 387.643 180.171L388.528 175.746C388.726 174.96 388.921 174.271 389.118 173.681C389.316 172.895 389.511 172.108 389.709 171.321C390.102 170.338 390.299 169.453 390.299 168.666C390.497 167.683 390.792 166.7 391.185 165.716C391.382 165.323 391.48 164.93 391.48 164.536C391.48 164.143 391.578 163.75 391.775 163.356C392.168 161.98 392.463 160.701 392.661 159.521C393.054 158.341 393.546 157.161 394.137 155.981C394.727 154.801 395.415 153.621 396.203 152.441C396.991 151.261 397.876 150.081 398.859 148.901L399.745 147.721C400.728 146.345 401.713 145.165 402.697 144.181C403.877 143.001 405.156 141.92 406.534 140.936C408.108 139.953 409.486 139.068 410.667 138.281C411.847 137.298 413.126 136.413 414.504 135.626L415.094 135.331C416.668 134.545 417.849 134.053 418.636 133.856C419.227 133.856 419.719 133.758 420.112 133.561C420.9 133.561 421.49 133.463 421.883 133.266C421.883 133.266 421.981 133.168 422.178 132.971C422.376 132.971 422.474 132.971 422.474 132.971C422.671 132.775 422.966 132.676 423.359 132.676H424.245H424.835C425.032 132.676 425.13 132.676 425.13 132.676C425.328 132.48 425.523 132.381 425.721 132.381C425.918 132.185 426.213 132.086 426.606 132.086C427.394 131.693 428.18 131.496 428.968 131.496C429.558 131.496 430.148 131.496 430.739 131.496C431.526 131.3 432.215 131.201 432.805 131.201C433.788 131.005 434.674 130.906 435.461 130.906C436.249 130.71 437.135 130.611 438.118 130.611C441.267 130.611 444.907 131.201 449.04 132.381C449.433 132.578 449.728 132.775 449.925 132.971C450.318 132.971 450.713 133.07 451.106 133.266C453.86 133.856 456.419 134.741 458.781 135.921C459.568 136.315 460.256 136.806 460.847 137.396C461.635 137.79 462.323 138.183 462.913 138.576C463.503 138.97 463.996 139.363 464.389 139.756C464.979 140.15 465.57 140.543 466.16 140.936L466.75 141.231C467.931 142.018 469.112 142.805 470.293 143.591C471.671 144.378 472.851 145.263 473.835 146.246C474.425 146.836 474.918 147.426 475.311 148.016C475.901 148.606 476.393 149.098 476.786 149.491L477.082 149.786C477.279 149.983 477.377 150.18 477.377 150.376C477.377 150.376 477.475 150.475 477.672 150.671C478.853 151.655 479.64 152.736 480.033 153.916C480.033 154.113 480.033 154.211 480.033 154.211C480.231 154.211 480.329 154.31 480.329 154.506V154.801C480.329 155.391 480.426 155.785 480.624 155.981L481.214 156.571C481.804 157.161 482.297 157.751 482.69 158.341L483.576 160.111C483.773 160.308 483.871 160.505 483.871 160.701C484.068 160.898 484.264 161.095 484.461 161.291C484.854 161.881 485.249 162.766 485.642 163.946C486.035 164.733 486.33 165.225 486.527 165.421C486.527 165.618 486.725 166.11 487.118 166.896C487.905 167.683 488.298 168.371 488.298 168.961C488.496 169.158 488.594 169.551 488.594 170.141C488.201 170.535 488.201 170.83 488.594 171.026C488.594 171.42 488.791 172.01 489.184 172.796L489.479 173.681C490.267 175.255 490.758 176.533 490.955 177.516C491.152 177.91 491.25 178.303 491.25 178.696C491.448 179.09 491.643 179.483 491.841 179.876L492.726 181.646C492.726 182.04 492.726 182.335 492.726 182.531C492.923 182.531 493.021 182.728 493.021 183.121C493.219 183.711 493.414 184.301 493.612 184.891C493.809 185.284 494.005 185.776 494.202 186.366C494.202 187.349 494.3 188.039 494.497 188.431C494.497 188.824 494.497 189.316 494.497 189.906C494.695 190.299 494.792 190.694 494.792 191.086C495.776 194.626 496.268 197.969 496.268 201.116C496.466 201.706 496.563 202.394 496.563 203.181C496.563 203.771 496.761 204.459 497.154 205.246C497.547 206.229 497.646 207.016 497.449 207.606C497.449 207.999 497.351 208.589 497.154 209.376V209.966C497.154 211.344 497.252 212.326 497.449 212.916V214.391C497.646 214.981 497.744 215.964 497.744 217.341V219.111V221.176V224.126C497.744 224.716 497.842 225.209 498.039 225.601ZM386.757 353.926H386.462C386.264 354.319 386.167 355.304 386.167 356.876V358.351C385.969 358.744 385.872 359.236 385.872 359.826C385.872 360.219 385.774 360.614 385.576 361.006C385.379 362.186 385.183 363.366 384.986 364.546C384.986 365.726 384.986 366.906 384.986 368.086L384.691 368.676V371.331C384.888 371.724 385.281 372.019 385.872 372.216H391.775H395.612H397.679C400.433 372.414 402.992 372.511 405.353 372.511C407.715 372.511 410.174 372.314 412.733 371.921C415.487 371.724 418.144 371.724 420.703 371.921C423.261 371.921 425.918 372.019 428.672 372.216H431.329C434.674 372.414 437.921 372.806 441.07 373.396C444.415 373.986 447.957 374.774 451.696 375.756C452.089 375.756 452.68 375.954 453.467 376.346C453.86 376.544 454.353 376.739 454.943 376.936C455.731 377.134 456.321 377.134 456.714 376.936L457.009 377.231L460.847 363.956C460.454 363.759 459.961 363.661 459.371 363.661C458.978 363.661 458.583 363.564 458.19 363.366C457.207 362.974 456.321 362.679 455.534 362.481C454.746 362.284 453.86 362.089 452.877 361.891C451.303 361.499 449.827 361.301 448.449 361.301C447.071 361.104 445.595 360.909 444.022 360.711H443.431L436.347 359.826C434.379 359.629 432.412 359.531 430.443 359.531C428.672 359.334 426.704 359.039 424.54 358.646C422.966 358.254 421.293 358.056 419.522 358.056C417.751 357.859 416.077 357.564 414.504 357.171C410.569 356.581 406.436 355.991 402.106 355.401C397.974 354.811 393.841 354.319 389.709 353.926L386.757 353.631V353.926Z" fill="white"/>
</g>
</g>
<defs>
<clipPath id="clip0_140_187">
<rect width="880" height="885" fill="white"/>
</clipPath>
</defs>
</svg>
