<svg width="886" height="886" viewBox="0 0 886 886" fill="none" xmlns="http://www.w3.org/2000/svg">
<g clip-path="url(#clip0_173_436)">
<rect width="886" height="886" fill="white"/>
<rect width="886" height="886" fill="#7036CC"/>
<rect y="569" width="886" height="317" fill="#3D1F6D"/>
<path d="M393.376 747.548C392.514 746.344 392.255 744.795 392.601 742.902C392.946 741.008 393.289 739.459 393.635 738.255C393.635 737.911 393.722 737.652 393.893 737.481C394.065 737.136 393.98 736.878 393.635 736.707C393.463 736.535 393.031 736.448 392.342 736.448C391.653 736.104 391.221 735.761 391.049 735.416C390.532 734.555 390.273 733.522 390.273 732.318C390.445 730.941 390.532 729.824 390.532 728.963C390.532 728.102 390.445 727.414 390.273 726.898C390.102 726.21 389.928 725.521 389.756 724.833C389.584 724.145 389.498 723.542 389.498 723.026C389.498 722.338 389.411 721.564 389.239 720.703C389.239 720.187 389.152 719.67 388.98 719.154C388.809 718.638 388.635 718.122 388.463 717.605C388.292 716.918 388.205 716.315 388.205 715.798C388.377 715.111 388.463 714.421 388.463 713.733C388.635 712.185 388.635 710.723 388.463 709.345C388.463 707.968 388.635 706.506 388.98 704.957C389.326 703.408 389.498 701.946 389.498 700.569C389.669 699.02 389.843 697.472 390.015 695.923C390.015 695.062 390.015 694.287 390.015 693.6C390.015 692.912 390.102 692.138 390.273 691.277C390.273 690.416 390.704 689.728 391.566 689.212C392.255 689.04 392.946 688.953 393.635 688.953C394.324 688.953 394.928 688.953 395.445 688.953C396.307 688.782 397.083 688.695 397.772 688.695C398.635 688.695 399.495 688.609 400.358 688.437C403.289 688.092 406.133 687.834 408.891 687.663C411.822 687.491 414.751 687.147 417.682 686.63C420.613 686.114 423.543 685.685 426.474 685.34C429.577 684.995 432.593 684.652 435.524 684.307C436.904 684.136 438.368 683.962 439.92 683.791C441.471 683.62 442.936 683.446 444.315 683.275C445.695 683.103 447.073 683.017 448.453 683.017C450.004 683.017 451.384 682.758 452.59 682.242C453.796 681.726 455.004 681.21 456.21 680.693C457.416 680.177 458.624 679.574 459.83 678.887C462.244 677.338 464.054 675.444 465.26 673.208C466.122 672.004 466.811 670.885 467.329 669.852C467.846 668.648 468.363 667.358 468.88 665.98C469.569 664.776 469.656 663.829 469.139 663.141C468.793 662.625 468.276 662.108 467.587 661.592C467.07 661.076 466.553 660.646 466.036 660.302C465.001 659.441 463.88 658.753 462.674 658.237C461.468 657.549 460.175 656.946 458.796 656.43C457.416 655.913 456.038 655.484 454.658 655.139C453.279 654.623 451.901 654.193 450.521 653.848C449.142 653.504 447.764 653.246 446.384 653.074C445.004 652.903 443.626 652.903 442.247 653.074C440.867 653.246 439.489 653.246 438.11 653.074C436.73 652.729 435.352 652.558 433.972 652.558H424.922C423.371 652.729 421.819 652.903 420.268 653.074C418.717 653.246 417.252 653.419 415.872 653.59C412.941 653.935 409.925 654.451 406.822 655.139C403.891 655.655 400.962 656.085 398.031 656.43C396.651 656.775 395.186 657.033 393.635 657.204C392.083 657.376 390.532 657.634 388.98 657.978C388.118 658.15 386.912 658.408 385.36 658.753C383.981 658.924 382.862 658.753 381.999 658.237C380.965 657.72 380.534 656.859 380.706 655.655C380.878 654.278 380.878 653.161 380.706 652.3C380.534 651.612 380.276 651.096 379.93 650.751C379.759 650.235 379.585 649.718 379.413 649.202C379.068 647.482 378.896 646.191 378.896 645.33C378.207 642.061 378.12 639.222 378.637 636.812C378.637 636.124 378.724 635.522 378.896 635.005C379.068 634.318 379.241 633.628 379.413 632.94C379.585 632.769 379.672 632.596 379.672 632.424C379.5 632.253 379.413 632.079 379.413 631.908C379.413 631.563 379.413 631.305 379.413 631.133C379.585 630.962 379.672 630.704 379.672 630.359C379.844 629.671 379.844 629.068 379.672 628.552C379.5 628.036 379.413 627.52 379.413 627.003C379.759 626.316 380.189 626.058 380.706 626.229C381.223 626.229 381.74 626.229 382.258 626.229H391.049C392.429 626.058 393.807 626.058 395.186 626.229C396.566 626.229 397.944 626.229 399.323 626.229C400.012 626.058 400.616 626.058 401.133 626.229C401.822 626.229 402.598 626.142 403.461 625.971C404.15 625.971 404.754 625.884 405.271 625.713C405.96 625.541 406.65 625.368 407.339 625.197C408.891 625.025 410.442 625.025 411.994 625.197C413.545 625.368 415.096 625.455 416.648 625.455C418.028 625.283 419.492 625.197 421.044 625.197C422.595 625.025 424.147 624.938 425.698 624.938C428.629 624.938 431.558 624.852 434.49 624.68C437.592 624.509 440.609 624.509 443.54 624.68C444.919 624.68 446.297 624.852 447.677 625.197C449.057 625.368 450.434 625.455 451.814 625.455C453.537 625.455 454.83 625.541 455.693 625.713C456.555 625.884 457.244 626.058 457.761 626.229C458.45 626.401 459.226 626.574 460.088 626.745C463.02 627.262 465.949 627.606 468.88 627.778C471.983 627.949 474.999 628.294 477.93 628.81C479.31 629.155 480.603 629.585 481.809 630.101C483.188 630.446 484.566 630.875 485.946 631.392C488.703 632.253 491.204 633.112 493.445 633.973C493.962 634.318 494.479 634.576 494.996 634.747C495.513 634.919 495.943 635.177 496.289 635.522C496.806 635.866 497.236 636.296 497.582 636.812C498.099 637.157 498.616 637.5 499.133 637.845C499.822 638.189 500.426 638.532 500.943 638.877C501.46 639.049 501.891 639.393 502.236 639.91C503.616 641.287 504.476 642.404 504.822 643.265C505.339 644.469 505.684 645.76 505.856 647.137C506.201 648.341 506.46 649.547 506.632 650.751C506.804 651.612 506.977 652.386 507.149 653.074C507.321 653.762 507.494 654.451 507.666 655.139C508.012 655.827 508.27 656.43 508.442 656.946C508.787 657.462 509.046 658.065 509.218 658.753V662.367C509.046 663.915 509.046 665.377 509.218 666.755C509.218 667.616 509.131 668.39 508.959 669.078C508.959 669.594 508.872 670.197 508.7 670.885C508.529 671.746 508.355 672.605 508.183 673.466C508.183 674.327 508.097 675.186 507.925 676.047C507.579 677.424 507.236 678.8 506.89 680.177C506.545 681.554 506.201 682.93 505.856 684.307C505.684 684.995 505.511 685.685 505.339 686.372C505.339 687.06 505.167 687.749 504.822 688.437C504.476 689.125 504.046 689.814 503.529 690.502C503.012 691.018 502.581 691.621 502.236 692.309C500.685 694.719 499.133 697.042 497.582 699.278C496.202 701.343 494.307 703.15 491.893 704.699C490.687 705.56 489.566 706.419 488.532 707.28C487.497 707.968 486.291 708.658 484.912 709.345C483.532 709.69 482.584 710.12 482.067 710.636C481.378 710.981 480.861 711.239 480.516 711.41C480.17 711.582 479.653 711.84 478.964 712.185C476.033 713.046 473.104 713.733 470.173 714.25C467.415 714.766 464.571 715.282 461.64 715.798C458.709 716.315 455.693 716.659 452.59 716.831C449.659 717.002 446.729 716.831 443.798 716.315C440.867 715.97 437.938 715.54 435.007 715.024C432.076 714.336 429.146 713.647 426.215 712.959C423.284 712.271 420.355 711.582 417.424 710.894C414.666 710.206 411.822 709.345 408.891 708.313C405.96 706.936 403.289 705.99 400.875 705.473C399.152 705.129 397.772 704.957 396.738 704.957C396.392 704.957 395.79 704.957 394.928 704.957C394.239 704.786 393.722 704.871 393.376 705.215C393.031 705.56 392.946 706.076 393.118 706.764C393.289 707.452 393.463 707.968 393.635 708.313C393.807 709.001 393.893 709.69 393.893 710.378C394.065 711.066 394.239 711.755 394.411 712.443C394.756 713.131 395.015 713.82 395.186 714.508C395.358 715.024 395.532 715.712 395.703 716.573C395.875 717.261 395.962 717.95 395.962 718.638C395.962 719.154 396.134 719.757 396.479 720.445C396.825 721.822 397.168 723.284 397.513 724.833C397.859 726.21 398.031 727.672 398.031 729.221C398.031 730.77 397.944 731.974 397.772 732.835C397.772 734.212 398.202 734.9 399.065 734.9C400.445 735.071 401.909 735.158 403.461 735.158C405.012 734.986 406.477 734.813 407.856 734.642C409.236 734.642 410.529 734.642 411.735 734.642C413.115 734.642 414.493 734.555 415.872 734.383C416.561 734.383 417.165 734.47 417.682 734.642C418.371 734.642 419.062 734.642 419.751 734.642C420.613 734.642 421.302 734.555 421.819 734.383C422.337 734.212 423.025 734.212 423.888 734.383C426.646 734.9 429.577 735.158 432.68 735.158C433.368 735.329 433.972 735.329 434.49 735.158C435.007 734.986 435.611 734.813 436.3 734.642C437.162 734.642 437.851 734.728 438.368 734.9C439.057 735.071 439.833 735.245 440.695 735.416C442.075 735.587 443.453 735.674 444.833 735.674C446.384 735.674 447.849 735.846 449.228 736.19C451.986 736.362 454.745 737.051 457.503 738.255C458.192 738.6 458.796 738.943 459.313 739.288C459.83 739.459 460.434 739.633 461.123 739.804C461.64 739.976 462.07 740.149 462.416 740.32C462.761 740.32 463.02 740.665 463.191 741.353C463.88 741.008 464.397 740.923 464.743 741.095C464.915 741.266 465.001 741.439 465.001 741.611C465.173 741.782 465.347 741.956 465.518 742.127C465.864 742.299 466.122 742.385 466.294 742.385C466.466 742.385 466.725 742.472 467.07 742.643C467.415 742.815 467.587 742.988 467.587 743.16C467.759 743.16 468.017 743.246 468.363 743.418C468.708 743.763 469.052 744.106 469.397 744.45C469.742 744.795 470.086 745.138 470.431 745.483C470.777 745.654 471.035 745.828 471.207 745.999C471.379 746.171 471.637 746.344 471.983 746.515C472.672 746.86 472.845 747.29 472.5 747.806C472.845 748.151 473.189 748.322 473.534 748.322C473.88 748.151 474.223 748.236 474.569 748.58C474.914 748.925 475.258 749.355 475.603 749.871C476.12 750.387 476.55 750.817 476.896 751.162C477.758 752.023 478.447 752.968 478.964 754.001C479.482 754.862 480.085 755.808 480.774 756.84C481.809 758.734 483.015 760.541 484.394 762.261C485.774 763.81 486.893 765.53 487.756 767.423C488.101 768.284 488.273 768.972 488.273 769.488C488.273 770.005 488.532 770.608 489.049 771.295C489.566 771.467 489.824 771.64 489.824 771.812L490.6 773.36C490.946 773.705 491.204 774.135 491.376 774.651C491.721 774.996 492.065 775.339 492.41 775.683C492.927 776.716 493.186 777.835 493.186 779.039C493.358 780.072 493.616 781.104 493.962 782.137C494.133 782.481 494.307 782.911 494.479 783.427C494.651 783.772 494.737 784.202 494.737 784.718C494.737 785.406 494.651 786.008 494.479 786.525C494.479 787.041 494.479 787.729 494.479 788.59C494.651 789.277 494.651 790.138 494.479 791.171C494.479 792.203 494.651 793.064 494.996 793.752C495.341 794.097 495.513 794.182 495.513 794.01C495.513 793.839 495.6 794.01 495.772 794.527V796.333C495.772 797.882 495.6 799.001 495.255 799.689C494.566 802.099 493.875 804.507 493.186 806.917C492.497 809.153 491.806 811.476 491.117 813.886C490.946 814.402 490.859 815.005 490.859 815.693C490.859 816.209 490.772 816.725 490.6 817.242C490.428 817.758 490.255 818.187 490.083 818.532C489.911 818.877 489.824 819.307 489.824 819.823C489.653 821.2 489.307 822.317 488.79 823.178C488.273 824.04 487.669 825.072 486.98 826.276C486.291 827.137 485.6 828.083 484.912 829.115C484.223 830.148 483.532 831.094 482.843 831.955C481.98 832.816 481.205 833.675 480.516 834.536C479.827 835.568 478.964 836.343 477.93 836.859C476.896 837.375 475.775 837.72 474.569 837.892C473.363 838.236 472.241 838.579 471.207 838.924C469.827 839.269 468.363 839.612 466.811 839.957C465.432 840.301 464.054 840.644 462.674 840.989C457.503 842.366 452.331 843.141 447.16 843.312C441.816 843.657 436.386 843.915 430.87 844.087C425.526 844.258 420.181 844.087 414.838 843.57C412.08 843.226 409.408 842.796 406.822 842.28C404.236 841.763 401.564 841.334 398.806 840.989C396.221 840.644 393.635 840.215 391.049 839.698C388.635 839.354 386.136 839.011 383.55 838.666C382.688 838.495 381.654 838.408 380.448 838.408C379.413 838.408 378.637 838.063 378.12 837.375C377.431 836.514 377.173 835.482 377.345 834.278C377.69 833.074 377.69 831.955 377.345 830.922C376.999 829.718 376.914 828.599 377.086 827.567C377.258 826.363 377.345 825.157 377.345 823.953C377.345 822.749 377.258 821.543 377.086 820.339C377.086 819.135 377.173 818.016 377.345 816.983C377.516 816.122 377.603 815.177 377.603 814.144C377.431 813.628 377.431 813.112 377.603 812.595C377.775 812.079 377.862 811.563 377.862 811.047C378.034 808.465 378.034 805.884 377.862 803.303C377.862 801.583 378.12 799.776 378.637 797.882C378.983 796.678 378.983 795.559 378.637 794.527C378.466 793.494 378.551 792.375 378.896 791.171C379.241 789.967 379.5 788.935 379.672 788.073C380.017 787.041 380.189 785.922 380.189 784.718C380.189 784.373 380.189 783.943 380.189 783.427C380.189 782.739 380.361 782.223 380.706 781.878C381.051 781.534 381.395 781.449 381.74 781.62C382.258 781.792 382.603 782.05 382.775 782.395C383.12 782.739 383.205 783.256 383.033 783.943C382.862 784.631 382.775 785.234 382.775 785.75C382.603 786.438 382.516 787.128 382.516 787.815C382.516 788.332 382.429 788.934 382.258 789.622C382.086 790.999 381.912 792.29 381.74 793.494C381.74 794.698 381.74 795.989 381.74 797.366C381.74 798.57 381.654 799.776 381.482 800.98C381.482 802.012 381.482 803.131 381.482 804.335C381.31 805.713 381.223 807.088 381.223 808.465C381.223 809.843 381.136 811.218 380.965 812.595C380.793 815.177 380.619 817.844 380.448 820.597C380.448 823.178 380.534 825.76 380.706 828.341C380.706 829.029 380.706 829.632 380.706 830.148C380.878 830.836 380.965 831.61 380.965 832.471C380.965 832.816 380.965 833.332 380.965 834.02C380.965 834.881 381.136 835.482 381.482 835.827C381.827 836.171 382.603 836.343 383.809 836.343C384.672 836.514 385.36 836.601 385.878 836.601C386.566 836.601 387.342 836.688 388.205 836.859C389.411 837.204 390.532 837.462 391.566 837.633C392.772 837.978 393.98 838.321 395.186 838.666C396.566 839.011 397.859 839.182 399.065 839.182C400.271 839.182 401.564 839.354 402.943 839.698C405.701 840.215 408.374 840.644 410.959 840.989C413.545 841.505 416.218 841.935 418.975 842.28C421.389 842.624 423.888 842.624 426.474 842.28C427.853 842.108 429.231 842.022 430.611 842.022C432.162 842.193 433.714 842.28 435.265 842.28C436.471 842.28 437.679 842.193 438.885 842.022C440.091 842.022 441.384 842.022 442.764 842.022C444.144 842.022 445.437 842.022 446.643 842.022C447.849 842.022 449.142 841.935 450.521 841.763C451.727 841.592 452.848 841.247 453.883 840.731C455.089 840.215 456.21 839.957 457.244 839.957C457.761 839.957 458.192 840.043 458.537 840.215C459.054 840.386 459.484 840.473 459.83 840.473C461.036 840.301 462.244 839.87 463.45 839.182C463.967 839.011 464.397 838.837 464.743 838.666C465.26 838.666 465.777 838.666 466.294 838.666C466.64 838.666 466.983 838.579 467.329 838.408C467.329 838.408 467.587 838.15 468.104 837.633C468.45 837.462 468.88 837.462 469.397 837.633C470.086 837.805 470.603 837.892 470.949 837.892C471.466 837.72 471.983 837.547 472.5 837.375C473.189 837.375 473.793 837.204 474.31 836.859C475.344 836.343 476.207 835.655 476.896 834.794C477.585 833.933 478.36 833.074 479.223 832.213C480.085 831.18 480.861 830.148 481.55 829.115C482.413 828.254 483.273 827.308 484.136 826.276C484.825 825.072 485.516 823.523 486.204 821.63C486.55 821.113 486.722 820.597 486.722 820.081C486.722 819.565 486.808 819.048 486.98 818.532C487.152 817.844 487.326 817.242 487.497 816.725C487.843 816.209 488.186 815.606 488.532 814.918C488.703 814.402 488.79 813.973 488.79 813.628C488.79 813.112 488.877 812.682 489.049 812.337C489.049 811.65 489.136 811.047 489.307 810.53C489.479 810.014 489.738 809.411 490.083 808.723C490.428 807.519 490.687 806.4 490.859 805.368C491.204 804.164 491.548 802.873 491.893 801.496C492.41 799.086 492.582 796.592 492.41 794.01C492.41 791.429 492.238 788.935 491.893 786.525C491.721 785.492 491.548 784.288 491.376 782.911C491.204 781.534 490.946 780.33 490.6 779.297C490.255 778.781 489.911 778.351 489.566 778.007C489.394 777.49 489.136 776.974 488.79 776.458C488.101 774.738 487.584 773.532 487.239 772.844C484.825 767.853 482.154 763.122 479.223 758.647C478.706 757.786 478.102 756.84 477.413 755.808C476.896 754.775 476.207 753.829 475.344 752.968C474.482 751.936 473.534 750.99 472.5 750.129C471.466 749.268 470.518 748.322 469.656 747.29C468.793 746.602 467.932 745.912 467.07 745.225C466.381 744.364 465.518 743.763 464.484 743.418C463.45 743.073 462.416 742.643 461.381 742.127C460.347 741.439 459.313 740.923 458.278 740.578C455.864 739.546 453.365 738.858 450.78 738.513C448.194 737.997 445.695 737.568 443.281 737.223C440.867 736.878 438.368 736.707 435.782 736.707C433.197 736.707 430.611 736.535 428.025 736.19C426.646 736.19 425.353 736.19 424.147 736.19C422.941 736.019 421.733 735.932 420.527 735.932C419.147 736.104 417.769 736.19 416.389 736.19C415.01 736.19 413.632 736.19 412.252 736.19C409.666 736.362 407.081 736.448 404.495 736.448C402.081 736.277 399.582 736.362 396.996 736.707C397.342 737.568 397.427 738.342 397.255 739.03C397.255 739.717 397.168 740.492 396.996 741.353C396.651 742.214 396.479 743.073 396.479 743.934C396.479 744.622 396.392 745.396 396.221 746.257C396.221 747.806 396.221 749.441 396.221 751.162C396.221 752.882 395.79 754.431 394.928 755.808C395.79 755.808 397.083 755.636 398.806 755.292C399.669 755.12 400.445 755.033 401.133 755.033C401.996 755.033 402.857 755.033 403.719 755.033C405.442 755.033 407.167 755.033 408.891 755.033C410.614 754.862 412.339 754.947 414.062 755.292C415.785 755.463 417.424 755.808 418.975 756.324C420.527 756.669 422.165 757.098 423.888 757.615C425.439 757.959 426.991 758.302 428.542 758.647C430.094 758.819 431.645 759.163 433.197 759.68C439.574 761.228 445.695 763.896 451.556 767.682C452.935 768.543 454.228 769.402 455.434 770.263C456.64 771.124 457.848 772.156 459.054 773.36C460.088 774.564 460.777 775.855 461.123 777.232C461.468 778.436 461.812 779.813 462.157 781.362C462.846 784.288 463.191 787.557 463.191 791.171C463.191 792.891 463.191 794.527 463.191 796.075C463.191 797.453 462.846 798.915 462.157 800.463C461.295 802.873 459.83 804.765 457.761 806.142C456.555 807.003 455.262 807.778 453.883 808.465C452.503 809.153 451.125 809.927 449.745 810.788C449.228 811.133 448.798 811.563 448.453 812.079C448.107 812.595 447.59 813.025 446.901 813.37C446.212 813.715 445.608 814.144 445.091 814.66C444.574 815.005 443.97 815.348 443.281 815.693C440.695 817.07 437.506 817.929 433.714 818.274C432.851 818.446 432.076 818.532 431.387 818.532C430.698 818.532 429.922 818.532 429.06 818.532C428.197 818.704 427.336 818.877 426.474 819.048C425.611 819.22 424.751 819.307 423.888 819.307C422.854 819.307 421.474 818.962 419.751 818.274C418.888 817.929 417.941 817.758 416.907 817.758C416.044 817.586 415.183 817.413 414.321 817.242C413.458 817.07 412.683 816.983 411.994 816.983C411.305 816.812 410.529 816.554 409.666 816.209C408.804 815.864 408.028 815.521 407.339 815.177C406.822 814.832 406.218 814.489 405.529 814.144C404.15 813.283 402.685 812.767 401.133 812.595C399.582 812.251 398.031 811.908 396.479 811.563C395.617 811.391 394.756 811.305 393.893 811.305C393.204 811.133 392.429 810.96 391.566 810.788C390.704 810.444 389.843 810.359 388.98 810.53C388.292 810.53 387.516 810.444 386.653 810.272C385.964 809.927 385.36 809.756 384.843 809.756C384.498 809.585 384.239 809.585 384.068 809.756C383.896 809.756 383.637 809.669 383.292 809.498C382.775 809.326 382.516 808.895 382.516 808.207C382.516 807.862 383.033 807.691 384.068 807.691C385.619 807.519 387.17 807.691 388.722 808.207C390.273 808.552 391.912 808.723 393.635 808.723C394.669 808.723 396.049 809.068 397.772 809.756C398.635 810.101 399.41 810.359 400.099 810.53C400.962 810.702 401.822 810.875 402.685 811.047C404.065 811.218 405.357 811.563 406.564 812.079C407.943 812.595 409.236 813.198 410.442 813.886C411.131 814.231 411.735 814.489 412.252 814.66C412.941 814.832 413.717 815.005 414.579 815.177L416.907 815.951C417.595 816.296 418.113 816.467 418.458 816.467C418.803 816.639 419.062 816.639 419.234 816.467C419.579 816.296 419.923 816.296 420.268 816.467C420.613 816.467 420.872 816.554 421.044 816.725C421.389 816.725 421.733 816.725 422.078 816.725C422.941 816.897 423.716 816.897 424.405 816.725C425.268 816.554 426.128 816.467 426.991 816.467C428.542 816.296 430.094 816.209 431.645 816.209C433.368 816.038 435.094 815.779 436.817 815.435C440.091 814.918 442.936 813.628 445.35 811.563C447.935 809.326 450.693 807.519 453.624 806.142C454.83 805.454 455.864 804.852 456.727 804.335C457.59 803.648 458.365 802.7 459.054 801.496C459.743 800.119 460.088 798.657 460.088 797.108C460.26 795.388 460.347 793.752 460.347 792.203V787.815C460.175 786.954 459.917 786.18 459.571 785.492C459.4 784.631 459.226 783.772 459.054 782.911C458.882 782.223 458.796 781.62 458.796 781.104C458.967 780.416 459.054 779.727 459.054 779.039C458.882 778.178 458.192 777.146 456.986 775.942C456.297 775.425 455.434 774.48 454.4 773.102C454.054 772.415 453.624 772.07 453.107 772.07C452.762 771.898 452.159 771.64 451.297 771.295C450.608 770.951 450.004 770.521 449.487 770.005C448.97 769.488 448.366 769.059 447.677 768.714L443.798 766.391C440.867 765.014 437.851 763.638 434.748 762.261C433.197 761.745 431.645 761.315 430.094 760.97C428.542 760.626 426.991 760.283 425.439 759.938C423.716 759.593 422.078 759.25 420.527 758.905C418.975 758.389 417.337 757.959 415.614 757.615C414.751 757.443 413.975 757.357 413.286 757.357C412.769 757.185 412.08 757.098 411.218 757.098C410.529 757.27 409.838 757.357 409.149 757.357C408.46 757.185 407.685 757.185 406.822 757.357C405.96 757.357 405.184 757.443 404.495 757.615C403.806 757.615 403.03 757.615 402.168 757.615C401.305 757.786 400.445 757.873 399.582 757.873C398.893 757.701 398.117 757.701 397.255 757.873C396.221 758.218 395.186 758.476 394.152 758.647C393.118 758.647 392.429 757.959 392.083 756.582C392.083 755.721 392.083 754.947 392.083 754.259C392.255 753.571 392.429 752.797 392.601 751.936C392.601 751.075 392.601 750.301 392.601 749.613C392.772 748.925 393.031 748.236 393.376 747.548ZM392.859 702.892C394.065 703.064 395.186 703.15 396.221 703.15C397.255 702.979 398.376 702.892 399.582 702.892C400.788 702.892 401.909 703.064 402.943 703.408C404.15 703.753 405.357 704.096 406.564 704.441C407.426 704.786 408.287 705.215 409.149 705.732C410.012 706.248 410.872 706.593 411.735 706.764C412.941 706.936 413.975 707.194 414.838 707.538C415.872 707.883 416.907 708.226 417.941 708.571C420.355 709.432 422.767 710.12 425.181 710.636C427.595 711.152 430.094 711.668 432.68 712.185C435.094 712.53 437.421 712.959 439.661 713.475C441.901 713.992 444.229 714.25 446.643 714.25C449.057 714.25 451.469 714.25 453.883 714.25C456.297 714.078 458.709 713.905 461.123 713.733C462.329 713.733 463.45 713.647 464.484 713.475C465.518 713.131 466.64 712.788 467.846 712.443C468.88 712.098 469.914 711.927 470.949 711.927C472.155 711.755 473.276 711.497 474.31 711.152C475.173 710.807 475.948 710.465 476.637 710.12C477.5 709.775 478.36 709.432 479.223 709.087C480.257 708.571 481.292 708.141 482.326 707.797C483.36 707.28 484.394 706.677 485.429 705.99C486.98 705.129 488.618 703.838 490.342 702.118C491.204 701.43 491.98 700.827 492.669 700.311C493.358 699.623 494.133 698.849 494.996 697.988C495.685 697.127 496.289 696.268 496.806 695.407C497.323 694.374 497.927 693.428 498.616 692.567C499.133 691.535 499.737 690.502 500.426 689.47C501.115 688.266 501.632 687.147 501.978 686.114C502.323 685.082 502.495 684.049 502.495 683.017C502.666 681.984 502.925 680.952 503.27 679.919C503.616 678.542 503.959 677.509 504.305 676.822C504.476 676.305 504.563 675.876 504.563 675.531C504.563 675.015 504.65 674.498 504.822 673.982C504.822 672.778 504.994 671.659 505.339 670.627C505.684 669.423 505.856 668.217 505.856 667.013C506.201 664.432 506.115 661.937 505.598 659.527C505.426 658.323 505.252 657.204 505.08 656.172C504.909 654.968 504.65 653.762 504.305 652.558C503.959 651.181 503.616 649.89 503.27 648.686C503.099 647.482 502.753 646.276 502.236 645.072C501.374 643.007 500.081 641.287 498.357 639.91C496.806 638.532 495.083 637.415 493.186 636.554C488.532 634.144 483.964 632.424 479.482 631.392C477.068 630.875 474.655 630.446 472.241 630.101C469.827 629.756 467.415 629.413 465.001 629.068C463.795 628.724 462.587 628.552 461.381 628.552C460.347 628.552 459.141 628.552 457.761 628.552C456.555 628.381 455.347 628.207 454.141 628.036C452.935 627.864 451.727 627.691 450.521 627.52C445.004 627.003 439.402 626.832 433.714 627.003C428.197 627.175 422.682 627.433 417.165 627.778C414.234 627.778 411.305 627.778 408.374 627.778C405.616 627.778 402.772 627.949 399.841 628.294C398.461 628.294 397.083 628.294 395.703 628.294C394.324 628.123 392.946 628.036 391.566 628.036C390.187 628.207 388.809 628.294 387.429 628.294C386.049 628.294 384.672 628.294 383.292 628.294C383.292 630.188 383.12 632.079 382.775 633.973C382.429 635.693 382.344 637.5 382.516 639.393C382.688 641.287 382.862 643.179 383.033 645.072C383.205 646.792 383.464 648.599 383.809 650.493C383.981 651.181 384.068 652.213 384.068 653.59C384.068 653.935 384.068 654.278 384.068 654.623C384.068 654.968 384.154 655.226 384.326 655.397C384.672 655.913 385.36 656.085 386.395 655.913C387.429 655.569 388.205 655.397 388.722 655.397C390.619 655.052 392.601 654.794 394.669 654.623C396.738 654.451 398.72 654.193 400.616 653.848C402.513 653.504 404.408 653.074 406.305 652.558C408.202 652.042 410.097 651.697 411.994 651.525C413.89 651.354 415.785 651.181 417.682 651.009C419.579 650.838 421.474 650.664 423.371 650.493H429.318C430.181 650.493 431.128 650.406 432.162 650.235C433.197 650.063 434.231 650.063 435.265 650.235C437.162 650.579 439.057 650.751 440.954 650.751C442.851 650.751 444.746 650.922 446.643 651.267C450.263 651.612 453.883 652.386 457.503 653.59C459.226 654.278 460.864 654.881 462.416 655.397C463.967 655.913 465.518 656.601 467.07 657.462C468.276 658.323 469.484 659.269 470.69 660.302C471.035 660.646 471.466 661.163 471.983 661.85C472.672 662.367 473.104 662.969 473.276 663.657C473.448 664.002 473.448 664.345 473.276 664.69C473.104 664.861 472.93 665.119 472.759 665.464C472.587 665.809 472.5 666.152 472.5 666.497C472.5 666.668 472.413 666.926 472.241 667.271C471.896 668.648 471.12 670.197 469.914 671.917C469.052 673.466 468.191 674.928 467.329 676.305C466.466 677.509 465.173 678.542 463.45 679.403C462.761 679.748 462.157 680.177 461.64 680.693C461.295 681.038 460.692 681.381 459.83 681.726C458.796 682.071 457.761 682.5 456.727 683.017C455.864 683.361 454.917 683.704 453.883 684.049L451.556 684.823C451.21 684.995 450.78 685.082 450.263 685.082C449.917 684.91 449.574 684.823 449.228 684.823C448.194 684.652 447.16 684.737 446.125 685.082C445.263 685.253 444.315 685.426 443.281 685.598C441.384 685.769 439.489 686.027 437.592 686.372C435.869 686.544 434.059 686.717 432.162 686.888C429.748 687.233 427.421 687.491 425.181 687.663C423.112 687.834 420.957 688.008 418.717 688.179C417.51 688.351 416.389 688.524 415.355 688.695C414.321 688.695 413.2 688.867 411.994 689.212C409.925 689.728 408.028 689.986 406.305 689.986C404.065 689.986 401.909 690.244 399.841 690.76C399.323 690.76 398.806 690.847 398.289 691.018C397.772 691.018 397.255 691.018 396.738 691.018C396.392 691.018 395.962 691.018 395.445 691.018C395.099 690.847 394.756 690.932 394.411 691.277C393.893 691.793 393.548 692.739 393.376 694.116C393.376 695.32 393.376 696.268 393.376 696.955C393.204 697.988 393.031 699.02 392.859 700.053C392.859 701.085 392.859 702.031 392.859 702.892ZM393.893 733.867C393.893 733.696 393.893 733.006 393.893 731.802C394.065 730.425 394.065 729.134 393.893 727.93C393.893 726.553 393.807 725.349 393.635 724.317C393.463 723.284 393.289 722.768 393.118 722.768C393.118 722.768 393.118 723.284 393.118 724.317C393.118 725.349 393.204 726.553 393.376 727.93C393.548 729.308 393.635 730.598 393.635 731.802C393.807 733.006 393.893 733.696 393.893 733.867Z" fill="white"/>
<path d="M501.319 233.99C501.712 234.973 501.712 236.055 501.319 237.235C501.121 238.022 501.023 239.202 501.023 240.775V241.66C501.023 243.037 500.926 244.02 500.728 244.61C500.728 245.003 500.63 245.298 500.432 245.495C500.432 245.692 500.432 245.987 500.432 246.38V248.445C500.432 249.625 500.334 250.51 500.137 251.1C500.137 252.083 499.939 253.362 499.546 254.935L499.25 256.115V256.41V256.705V257.295C499.25 258.082 499.152 258.573 498.955 258.77C498.955 258.967 498.857 259.163 498.659 259.36C498.659 259.36 498.659 259.458 498.659 259.655V260.245C498.266 261.032 497.97 261.818 497.773 262.605C497.575 263.195 497.379 263.982 497.182 264.965C496.591 266.538 495.902 268.112 495.113 269.685C494.324 271.062 493.538 272.537 492.749 274.11C492.749 274.307 492.651 274.405 492.454 274.405C492.454 274.405 492.454 274.503 492.454 274.7C491.665 275.88 491.271 276.765 491.271 277.355C491.074 278.142 490.878 278.83 490.68 279.42C490.483 280.01 490.187 280.698 489.794 281.485C489.794 281.878 489.596 282.272 489.203 282.665C488.809 283.845 488.514 284.632 488.316 285.025L487.43 285.91C487.43 286.107 487.232 286.402 486.839 286.795C486.839 286.992 486.741 287.188 486.543 287.385C486.543 287.385 486.543 287.582 486.543 287.975C486.346 288.172 486.248 288.368 486.248 288.565C486.248 288.762 486.15 288.958 485.952 289.155C484.968 290.925 484.081 292.4 483.293 293.58L482.997 293.875C482.604 294.662 482.208 295.252 481.815 295.645C481.617 295.842 481.422 295.94 481.224 295.94C481.224 295.94 481.126 296.038 480.928 296.235L480.633 296.53V296.825C480.435 297.218 480.337 297.612 480.337 298.005C480.14 298.398 479.944 298.693 479.746 298.89C479.549 298.89 479.353 298.988 479.155 299.185L478.564 299.775C478.171 300.168 477.875 300.463 477.678 300.66C477.678 300.857 477.48 301.152 477.087 301.545C476.693 302.332 476.298 302.823 475.905 303.02C475.511 303.61 475.116 304.2 474.723 304.79C474.329 305.183 473.934 305.675 473.541 306.265C471.768 308.428 469.897 310.493 467.926 312.46C466.153 314.427 464.282 316.492 462.311 318.655C460.34 320.622 458.469 322.687 456.696 324.85C454.923 327.013 453.15 329.177 451.377 331.34C450.786 331.93 449.9 333.012 448.717 334.585C440.443 345.008 429.902 353.17 417.098 359.07H416.802C415.227 359.857 413.945 360.447 412.96 360.84C412.763 360.84 412.567 360.938 412.369 361.135C412.172 361.135 411.976 361.135 411.778 361.135C411.385 361.332 411.089 361.43 410.892 361.43C410.694 361.43 410.399 361.528 410.005 361.725C410.99 361.922 411.876 362.118 412.665 362.315C413.649 362.315 414.636 362.413 415.62 362.61C417.786 363.003 419.955 363.397 422.121 363.79C424.485 363.987 426.752 364.282 428.918 364.675C430.298 364.872 431.578 365.068 432.76 365.265C434.139 365.265 435.517 365.265 436.897 365.265C439.063 365.462 441.132 365.658 443.103 365.855C445.269 365.855 447.438 366.052 449.604 366.445C451.377 366.838 453.052 367.232 454.628 367.625C456.401 367.822 457.976 368.117 459.356 368.51C459.749 368.707 460.34 368.805 461.129 368.805C462.509 369.198 463.887 369.69 465.266 370.28C466.842 370.673 467.828 371.46 468.221 372.64C468.615 373.23 468.615 373.918 468.221 374.705C468.024 375.492 467.728 376.18 467.335 376.77V377.36C466.546 378.737 465.955 380.113 465.562 381.49V382.965L464.675 385.62V385.915C464.084 386.898 464.084 387.587 464.675 387.98L465.266 388.57L464.675 388.865C464.282 389.062 463.789 389.258 463.198 389.455C462.804 389.652 462.409 389.75 462.016 389.75C461.622 389.75 461.227 389.652 460.834 389.455L459.947 388.57C459.947 388.373 459.849 388.275 459.651 388.275C459.651 388.078 459.158 387.783 458.174 387.39H457.878C457.09 387.193 456.303 386.997 455.514 386.8C454.923 386.8 454.135 386.603 453.15 386.21C452.166 386.013 451.082 385.817 449.9 385.62C448.717 385.423 447.535 385.128 446.353 384.735C444.383 384.145 442.512 383.752 440.739 383.555C438.966 383.555 436.995 383.457 434.828 383.26C433.844 383.26 432.957 383.26 432.169 383.26C431.38 383.26 430.494 383.162 429.509 382.965C428.525 382.965 427.441 382.965 426.258 382.965C425.076 382.965 423.992 382.867 423.008 382.67C421.037 382.67 419.068 382.67 417.098 382.67C415.324 382.867 413.453 382.965 411.483 382.965C409.316 383.162 407.05 383.26 404.686 383.26C402.322 383.457 400.056 383.457 397.889 383.26C396.905 383.26 395.918 383.162 394.934 382.965C393.95 382.965 392.963 382.965 391.979 382.965H390.206C388.039 382.965 386.562 382.867 385.773 382.67C384.789 382.277 384.198 381.785 384 381.195C384 380.605 384.098 380.113 384.296 379.72C384.296 379.13 384.296 378.54 384.296 377.95C384.493 377.36 384.591 376.77 384.591 376.18V374.115C384.789 373.132 384.887 372.247 384.887 371.46C385.084 370.477 385.28 369.493 385.478 368.51L386.364 362.315V361.725C386.364 361.332 386.364 360.84 386.364 360.25C386.562 359.66 386.857 359.168 387.251 358.775C387.842 358.578 388.926 358.677 390.501 359.07H391.683C392.668 359.267 394.145 359.365 396.116 359.365C397.298 359.562 398.48 359.66 399.662 359.66C401.042 359.66 402.322 359.66 403.504 359.66C405.67 359.463 407.641 359.07 409.414 358.48C411.187 357.89 412.862 357.202 414.438 356.415C416.013 355.628 417.591 354.842 419.166 354.055C420.742 353.268 422.417 352.285 424.19 351.105L426.849 349.335C429.016 348.352 431.184 346.877 433.351 344.91C438.472 340.387 443.694 335.077 449.013 328.98C449.604 328.193 450.195 327.407 450.786 326.62C451.377 325.833 451.968 325.047 452.559 324.26L455.219 320.72C456.203 319.54 457.287 318.458 458.469 317.475C459.06 316.885 459.651 316.393 460.243 316C460.834 315.41 461.327 314.82 461.72 314.23C463.887 311.28 466.448 308.33 469.403 305.38C470.585 304.003 471.768 302.725 472.95 301.545C474.132 300.168 475.314 298.693 476.496 297.12C477.284 296.137 477.973 295.055 478.564 293.875C479.155 292.695 479.844 291.515 480.633 290.335C481.422 289.155 481.913 288.27 482.111 287.68C483.884 284.927 485.657 281.583 487.43 277.65C487.823 276.667 488.119 275.88 488.316 275.29C488.71 274.7 489.105 274.012 489.498 273.225C489.892 272.242 490.287 271.455 490.68 270.865C491.074 270.078 491.469 269.193 491.862 268.21C493.636 263.883 494.916 260.048 495.704 256.705C496.493 253.558 497.084 250.215 497.477 246.675C498.068 243.135 498.166 239.595 497.773 236.055C497.575 234.875 497.477 233.695 497.477 232.515C497.477 231.138 497.477 229.86 497.477 228.68C497.871 227.107 497.871 225.533 497.477 223.96V217.765C497.477 217.372 497.379 216.978 497.182 216.585C497.182 215.995 497.182 215.405 497.182 214.815C497.182 214.422 497.084 214.028 496.886 213.635C496.886 213.045 496.886 212.553 496.886 212.16C496.886 208.03 496.493 204.392 495.704 201.245C495.311 200.458 495.113 199.868 495.113 199.475C494.916 199.082 494.72 198.59 494.522 198C494.522 197.41 494.424 196.918 494.227 196.525C494.029 196.132 493.931 195.738 493.931 195.345C493.931 194.952 493.833 194.558 493.636 194.165C493.636 193.378 493.438 192.395 493.045 191.215C491.862 187.675 490.483 184.135 488.907 180.595C487.528 177.055 486.05 173.613 484.475 170.27C483.49 168.697 482.504 167.123 481.519 165.55C480.535 163.977 479.451 162.403 478.269 160.83C475.707 157.487 473.147 154.93 470.586 153.16C467.433 150.997 464.182 149.03 460.834 147.26C457.485 145.293 453.839 143.917 449.9 143.13C449.111 143.13 448.52 143.032 448.126 142.835C446.551 142.442 445.369 142.245 444.58 142.245C443.596 142.048 442.61 142.048 441.625 142.245C440.641 142.245 439.654 142.343 438.67 142.54C437.095 142.933 435.715 143.13 434.533 143.13C433.351 143.327 432.169 143.523 430.987 143.72C429.805 143.72 428.72 143.917 427.736 144.31C419.855 146.473 413.649 150.013 409.119 154.93C403.208 161.027 399.564 167.222 398.185 173.515C397.594 176.072 397.003 178.628 396.412 181.185C396.018 183.742 395.525 186.2 394.934 188.56C394.736 189.74 394.541 190.92 394.343 192.1C394.343 193.28 394.145 194.46 393.752 195.64C393.554 196.033 393.456 196.525 393.456 197.115C393.456 197.508 393.359 197.902 393.161 198.295C393.161 198.295 393.063 198.492 392.865 198.885C392.865 199.082 392.768 199.278 392.57 199.475C392.57 199.672 392.57 199.868 392.57 200.065C392.768 200.458 393.161 200.753 393.752 200.95C394.541 201.147 395.132 201.343 395.525 201.54C395.723 201.54 395.918 201.638 396.116 201.835C397.889 202.425 399.564 202.72 401.14 202.72H401.731C402.519 202.72 403.11 202.818 403.504 203.015H403.799H404.686H404.981V202.72V202.425C405.179 201.835 405.277 201.245 405.277 200.655C405.475 199.868 405.67 199.18 405.868 198.59C406.261 197.41 406.557 196.23 406.755 195.05C407.148 193.673 407.543 192.395 407.937 191.215C408.134 190.625 408.33 190.035 408.528 189.445C408.725 188.658 408.921 187.872 409.119 187.085C410.103 184.528 410.892 182.267 411.483 180.3C411.68 179.317 412.172 178.038 412.96 176.465L413.256 176.17C413.453 175.777 413.551 175.482 413.551 175.285C413.551 175.088 413.649 174.793 413.847 174.4C413.847 173.613 414.142 172.728 414.733 171.745C415.127 171.352 415.522 170.958 415.915 170.565C416.506 170.172 417 169.778 417.393 169.385C417.786 169.188 418.28 168.795 418.871 168.205C419.068 168.008 419.264 167.91 419.462 167.91C419.659 167.713 419.855 167.517 420.053 167.32C420.446 166.73 420.939 166.238 421.53 165.845C422.121 165.255 422.614 164.763 423.008 164.37C424.387 163.387 425.667 162.698 426.849 162.305C428.229 161.912 429.607 161.518 430.987 161.125C431.38 160.928 431.676 160.83 431.873 160.83C432.071 160.83 432.366 160.732 432.76 160.535C436.699 159.355 440.148 159.257 443.103 160.24C443.891 160.633 444.876 161.223 446.058 162.01C446.451 162.207 446.649 162.403 446.649 162.6C446.847 162.6 447.142 162.698 447.535 162.895C448.126 163.288 449.013 163.682 450.195 164.075C450.588 164.272 450.884 164.468 451.082 164.665C451.475 164.665 451.87 164.763 452.264 164.96C453.839 165.55 455.416 166.337 456.992 167.32C457.385 167.32 457.681 167.418 457.878 167.615C459.651 168.205 460.931 169.09 461.72 170.27C462.311 171.057 462.804 172.335 463.198 174.105V174.4C463.591 175.973 463.789 176.957 463.789 177.35C463.986 177.94 464.084 178.53 464.084 179.12C464.282 179.513 464.478 180.005 464.675 180.595C464.675 181.185 464.773 181.578 464.971 181.775C465.168 182.365 465.266 182.955 465.266 183.545C465.266 183.938 465.364 184.43 465.562 185.02C465.562 185.413 465.562 185.708 465.562 185.905C465.759 186.102 465.66 186.397 465.266 186.79C465.266 186.987 465.168 187.183 464.971 187.38H464.675C464.675 187.577 464.773 187.773 464.971 187.97V188.855C464.971 189.642 464.577 190.625 463.789 191.805C463.789 191.805 463.591 192.198 463.198 192.985C462.804 193.968 462.311 194.952 461.72 195.935C461.327 196.918 460.931 197.803 460.538 198.59C460.34 198.983 460.145 199.377 459.947 199.77C459.749 200.163 459.454 200.557 459.06 200.95C458.469 201.54 458.076 202.032 457.878 202.425C457.485 203.212 456.992 203.998 456.401 204.785C455.81 205.572 455.121 206.358 454.332 207.145C453.939 207.538 453.643 207.932 453.446 208.325C453.248 208.522 452.953 208.817 452.559 209.21C452.166 209.603 451.771 209.898 451.377 210.095C451.377 210.095 451.179 210.193 450.786 210.39C450.588 210.587 450.491 210.783 450.491 210.98V211.57C450.097 212.553 449.702 213.242 449.309 213.635L448.717 213.93C448.126 214.52 447.535 215.405 446.944 216.585V217.175C446.747 217.568 446.649 217.863 446.649 218.06C446.649 218.257 446.451 218.552 446.058 218.945C445.86 219.142 445.467 219.24 444.876 219.24H444.58C444.58 219.437 444.482 219.633 444.285 219.83C444.285 220.027 444.285 220.223 444.285 220.42C444.285 220.617 444.187 220.813 443.989 221.01L443.103 222.78L442.216 223.665C441.428 225.042 440.641 225.927 439.852 226.32C439.459 226.713 439.063 227.008 438.67 227.205C438.472 227.205 438.177 227.303 437.783 227.5C436.799 227.893 436.108 228.287 435.715 228.68C435.321 229.073 434.926 229.663 434.533 230.45C434.139 231.237 433.744 231.827 433.351 232.22C432.366 233.4 431.38 234.58 430.396 235.76C429.411 236.743 428.425 237.727 427.441 238.71L425.372 240.775C425.174 241.168 424.979 241.463 424.781 241.66C424.583 241.66 424.288 241.857 423.894 242.25C423.106 242.643 422.614 243.037 422.417 243.43C422.023 243.823 421.628 244.315 421.235 244.905C420.841 245.298 420.446 245.692 420.053 246.085C420.053 246.282 419.855 246.577 419.462 246.97C418.477 248.347 417.491 249.723 416.506 251.1C415.522 252.477 414.536 253.853 413.551 255.23C412.96 255.82 412.665 256.312 412.665 256.705C412.271 257.492 411.976 257.983 411.778 258.18C411.581 258.377 411.483 258.573 411.483 258.77C411.285 258.77 411.187 258.868 411.187 259.065V259.36C410.99 259.557 410.892 259.753 410.892 259.95C409.907 264.473 408.134 268.308 405.572 271.455C405.179 271.848 404.884 272.34 404.686 272.93C404.686 273.52 404.488 274.208 404.095 274.995L403.208 277.65C402.815 278.437 402.42 279.027 402.026 279.42C401.829 280.01 401.633 280.6 401.435 281.19C401.238 281.583 400.942 282.075 400.549 282.665C400.351 283.058 400.253 283.452 400.253 283.845C400.253 284.042 400.155 284.337 399.958 284.73C399.958 285.123 399.76 286.107 399.367 287.68C398.973 288.663 398.678 289.843 398.48 291.22C398.283 292.4 398.087 293.58 397.889 294.76C397.889 295.35 397.791 295.94 397.594 296.53C397.594 297.12 397.594 297.612 397.594 298.005L397.003 300.66C396.805 302.233 396.609 303.807 396.412 305.38C396.214 306.757 396.018 308.232 395.821 309.805C395.623 310.788 395.427 311.772 395.23 312.755C395.23 313.542 395.23 314.427 395.23 315.41C395.427 316.197 395.427 316.983 395.23 317.77C395.032 318.36 394.836 319.048 394.638 319.835C394.638 320.228 394.541 320.622 394.343 321.015C394.343 321.408 394.245 321.9 394.047 322.49C394.047 322.883 394.047 323.375 394.047 323.965C393.85 324.358 393.752 324.752 393.752 325.145C393.752 325.342 393.654 325.637 393.456 326.03C393.063 327.997 392.768 329.373 392.57 330.16C392.372 330.553 392.274 330.848 392.274 331.045C392.274 331.242 392.176 331.438 391.979 331.635C391.781 332.028 391.683 332.52 391.683 333.11C391.683 333.503 391.585 333.897 391.388 334.29C391.388 335.273 391.29 336.06 391.092 336.65C391.092 337.043 390.895 337.633 390.501 338.42C390.108 339.6 389.91 340.485 389.91 341.075V343.14C389.91 344.32 389.812 345.303 389.615 346.09V348.155V351.105C389.221 352.482 388.826 353.268 388.433 353.465V353.76V354.055H388.137C388.137 354.252 387.94 354.35 387.546 354.35C387.546 354.153 387.448 354.055 387.251 354.055C387.053 354.055 386.857 353.957 386.66 353.76C386.462 353.76 386.364 353.662 386.364 353.465C385.38 352.678 384.984 351.4 385.182 349.63C385.182 349.237 385.182 348.942 385.182 348.745C385.38 348.548 385.478 348.253 385.478 347.86C385.871 346.287 386.069 345.205 386.069 344.615V342.55C385.871 341.763 385.773 340.682 385.773 339.305C386.364 336.945 386.857 334.88 387.251 333.11C387.842 331.143 388.531 329.373 389.319 327.8C389.713 326.423 390.108 324.752 390.501 322.785C390.501 322.392 390.501 321.998 390.501 321.605C390.699 321.015 390.797 320.425 390.797 319.835C390.994 319.442 391.092 319.048 391.092 318.655C391.092 318.262 391.19 317.868 391.388 317.475C391.388 315.705 391.29 314.427 391.092 313.64V312.165C391.092 311.182 391.092 310.395 391.092 309.805C391.29 309.215 391.585 308.527 391.979 307.74C392.176 307.15 392.274 306.265 392.274 305.085V303.61C392.668 302.627 393.161 302.135 393.752 302.135C393.554 301.545 393.456 301.053 393.456 300.66C393.654 300.267 393.752 299.873 393.752 299.48C393.95 299.087 394.047 298.497 394.047 297.71C394.245 297.513 394.343 297.022 394.343 296.235C394.343 294.268 394.441 292.793 394.638 291.81C394.638 291.22 394.836 290.728 395.23 290.335C395.623 289.548 395.821 289.155 395.821 289.155V288.27C395.623 287.877 395.525 287.385 395.525 286.795C395.525 286.008 395.723 285.025 396.116 283.845C396.509 283.058 396.707 282.272 396.707 281.485C397.1 280.502 397.692 279.42 398.48 278.24C398.874 277.453 399.071 276.962 399.071 276.765C399.465 276.175 399.76 275.585 399.958 274.995C400.155 274.405 400.451 273.815 400.844 273.225C401.042 272.045 401.435 270.963 402.026 269.98C402.42 269.193 403.011 268.21 403.799 267.03C404.588 266.047 405.079 264.965 405.277 263.785C405.67 263.195 405.966 262.605 406.164 262.015C406.361 261.228 406.657 260.54 407.05 259.95C407.443 258.77 407.739 257.983 407.937 257.59C408.33 256.607 408.725 255.82 409.119 255.23C409.512 254.64 409.907 253.952 410.301 253.165L411.187 252.28C411.581 251.887 411.778 251.592 411.778 251.395C411.976 251.002 412.172 250.608 412.369 250.215C412.763 249.625 413.256 249.035 413.847 248.445C414.438 247.658 414.931 246.97 415.324 246.38C416.309 245.397 417.195 244.512 417.984 243.725C418.773 242.742 419.56 241.758 420.348 240.775C420.546 240.382 421.037 239.988 421.826 239.595C421.826 239.398 421.826 239.3 421.826 239.3C422.023 239.3 422.121 239.202 422.121 239.005C422.712 238.808 423.106 238.415 423.303 237.825C423.501 237.628 423.599 237.53 423.599 237.53C423.599 237.333 423.697 237.137 423.894 236.94C424.485 236.153 425.174 235.465 425.963 234.875C426.356 234.482 426.652 234.285 426.849 234.285C427.047 234.088 427.243 233.793 427.441 233.4L428.032 232.515C428.82 231.728 429.509 231.04 430.1 230.45C430.691 229.663 431.38 228.877 432.169 228.09L433.351 227.205L436.897 223.665C437.488 223.075 437.981 222.682 438.375 222.485C438.768 221.895 439.261 221.305 439.852 220.715C440.443 220.125 440.936 219.535 441.33 218.945V218.65C441.527 218.453 441.625 218.355 441.625 218.355C441.625 218.158 441.723 217.962 441.921 217.765C441.921 217.765 442.118 217.568 442.512 217.175C442.709 217.175 442.807 217.077 442.807 216.88C443.005 216.683 443.103 216.487 443.103 216.29C443.3 216.29 443.398 216.093 443.398 215.7C443.792 214.717 444.285 213.832 444.876 213.045C445.664 212.062 446.255 211.373 446.649 210.98C446.847 210.98 446.944 210.882 446.944 210.685C447.142 210.685 447.338 210.587 447.535 210.39V210.095L447.831 209.8V209.21C448.029 209.013 448.126 208.817 448.126 208.62C448.126 208.423 448.224 208.227 448.422 208.03C449.604 206.26 450.884 204.982 452.264 204.195C452.657 203.998 452.953 203.703 453.15 203.31V203.015C453.348 202.425 453.839 201.54 454.628 200.36C454.825 200.163 454.923 199.967 454.923 199.77C455.121 199.573 455.317 199.377 455.514 199.18C455.908 198.59 456.303 198 456.696 197.41C457.287 196.82 457.681 196.033 457.878 195.05L458.174 194.755C458.174 194.165 458.469 193.575 459.06 192.985C459.454 192.592 459.749 192.198 459.947 191.805C460.145 191.412 460.34 191.018 460.538 190.625C460.538 190.428 460.636 190.232 460.834 190.035C461.227 189.248 461.425 188.658 461.425 188.265C461.425 187.478 461.327 186.888 461.129 186.495V185.61C460.931 184.823 460.834 184.135 460.834 183.545C460.834 182.758 460.736 181.972 460.538 181.185C460.538 179.808 460.44 178.825 460.243 178.235C460.243 176.858 460.045 175.875 459.651 175.285C459.651 175.285 459.554 175.187 459.356 174.99C459.356 174.793 459.258 174.695 459.06 174.695C459.06 174.498 459.06 174.302 459.06 174.105C459.06 174.105 459.06 173.81 459.06 173.22V172.63C458.667 172.04 458.076 171.45 457.287 170.86C457.09 170.86 456.894 170.762 456.696 170.565C455.712 170.172 454.825 169.778 454.037 169.385C453.446 168.992 452.657 168.598 451.673 168.205C450.884 167.812 450.393 167.615 450.195 167.615L448.717 166.73C447.929 166.337 447.142 166.042 446.353 165.845C445.565 165.452 444.778 165.058 443.989 164.665C442.61 164.075 441.527 163.682 440.739 163.485C439.95 163.288 438.966 163.288 437.783 163.485L436.306 163.78C434.335 164.173 432.366 164.665 430.396 165.255C428.623 165.648 426.947 166.533 425.372 167.91C423.205 169.877 421.333 171.843 419.757 173.81C418.182 175.58 416.9 177.448 415.915 179.415C415.127 180.792 414.438 182.66 413.847 185.02C413.847 185.413 413.749 185.708 413.551 185.905C413.551 185.905 413.551 186.102 413.551 186.495C413.158 188.068 412.763 189.543 412.369 190.92C411.976 192.1 411.581 193.477 411.187 195.05C410.99 195.443 410.694 196.23 410.301 197.41C409.512 199.573 409.021 201.54 408.823 203.31V203.9C409.217 205.08 409.119 205.965 408.528 206.555C407.937 207.145 406.952 207.243 405.572 206.85H405.277C404.293 206.85 403.602 206.752 403.208 206.555C401.042 206.555 398.776 206.26 396.412 205.67C396.018 205.473 395.723 205.375 395.525 205.375C395.327 205.375 395.032 205.277 394.638 205.08C393.456 204.687 392.768 204.49 392.57 204.49C392.372 204.293 392.176 204.195 391.979 204.195C391.781 204.392 391.683 204.687 391.683 205.08C391.683 205.277 391.585 205.473 391.388 205.67V205.965L391.092 207.145L390.501 206.26C390.304 206.063 390.206 205.867 390.206 205.67C389.615 205.473 389.319 204.982 389.319 204.195C389.122 203.802 389.024 203.605 389.024 203.605C389.221 203.408 389.319 203.212 389.319 203.015C389.319 202.818 389.417 202.622 389.615 202.425C389.615 202.032 389.517 201.638 389.319 201.245C389.122 200.852 388.926 200.458 388.728 200.065C388.531 200.065 388.433 199.967 388.433 199.77L387.842 198.885H388.728H389.615C389.615 198.688 389.517 198.59 389.319 198.59C389.319 198.393 389.319 198.197 389.319 198C389.319 196.623 389.517 194.952 389.91 192.985C390.501 191.608 390.797 190.133 390.797 188.56L391.683 184.135C391.881 183.348 392.077 182.66 392.274 182.07C392.472 181.283 392.668 180.497 392.865 179.71C393.259 178.727 393.456 177.842 393.456 177.055C393.654 176.072 393.95 175.088 394.343 174.105C394.541 173.712 394.638 173.318 394.638 172.925C394.638 172.532 394.736 172.138 394.934 171.745C395.327 170.368 395.623 169.09 395.821 167.91C396.214 166.73 396.707 165.55 397.298 164.37C397.889 163.19 398.578 162.01 399.367 160.83C400.155 159.65 401.042 158.47 402.026 157.29L402.913 156.11C403.897 154.733 404.884 153.553 405.868 152.57C407.05 151.39 408.33 150.308 409.71 149.325C411.285 148.342 412.665 147.457 413.847 146.67C415.029 145.687 416.309 144.802 417.689 144.015L418.28 143.72C419.855 142.933 421.037 142.442 421.826 142.245C422.417 142.245 422.91 142.147 423.303 141.95C424.092 141.95 424.683 141.852 425.076 141.655C425.076 141.655 425.174 141.557 425.372 141.36C425.57 141.36 425.667 141.36 425.667 141.36C425.865 141.163 426.161 141.065 426.554 141.065H427.441H428.032C428.229 141.065 428.327 141.065 428.327 141.065C428.525 140.868 428.72 140.77 428.918 140.77C429.116 140.573 429.411 140.475 429.805 140.475C430.593 140.082 431.38 139.885 432.169 139.885C432.76 139.885 433.351 139.885 433.942 139.885C434.73 139.688 435.419 139.59 436.01 139.59C436.995 139.393 437.881 139.295 438.67 139.295C439.459 139.098 440.345 139 441.33 139C444.482 139 448.126 139.59 452.264 140.77C452.657 140.967 452.953 141.163 453.15 141.36C453.544 141.36 453.939 141.458 454.332 141.655C457.09 142.245 459.651 143.13 462.016 144.31C462.804 144.703 463.493 145.195 464.084 145.785C464.873 146.178 465.562 146.572 466.153 146.965C466.744 147.358 467.237 147.752 467.63 148.145C468.221 148.538 468.812 148.932 469.403 149.325L469.994 149.62C471.177 150.407 472.359 151.193 473.541 151.98C474.92 152.767 476.102 153.652 477.087 154.635C477.678 155.225 478.171 155.815 478.564 156.405C479.155 156.995 479.649 157.487 480.042 157.88L480.337 158.175C480.535 158.372 480.633 158.568 480.633 158.765C480.633 158.765 480.731 158.863 480.928 159.06C482.111 160.043 482.899 161.125 483.293 162.305C483.293 162.502 483.293 162.6 483.293 162.6C483.49 162.6 483.588 162.698 483.588 162.895V163.19C483.588 163.78 483.686 164.173 483.884 164.37L484.475 164.96C485.066 165.55 485.559 166.14 485.952 166.73L486.839 168.5C487.036 168.697 487.134 168.893 487.134 169.09C487.332 169.287 487.528 169.483 487.725 169.68C488.119 170.27 488.514 171.155 488.907 172.335C489.301 173.122 489.596 173.613 489.794 173.81C489.794 174.007 489.992 174.498 490.385 175.285C491.174 176.072 491.567 176.76 491.567 177.35C491.765 177.547 491.862 177.94 491.862 178.53C491.469 178.923 491.469 179.218 491.862 179.415C491.862 179.808 492.06 180.398 492.454 181.185L492.749 182.07C493.538 183.643 494.029 184.922 494.227 185.905C494.424 186.298 494.522 186.692 494.522 187.085C494.72 187.478 494.916 187.872 495.113 188.265L496 190.035C496 190.428 496 190.723 496 190.92C496.197 190.92 496.295 191.117 496.295 191.51C496.493 192.1 496.689 192.69 496.886 193.28C497.084 193.673 497.28 194.165 497.477 194.755C497.477 195.738 497.575 196.427 497.773 196.82C497.773 197.213 497.773 197.705 497.773 198.295C497.97 198.688 498.068 199.082 498.068 199.475C499.053 203.015 499.546 206.358 499.546 209.505C499.743 210.095 499.841 210.783 499.841 211.57C499.841 212.16 500.039 212.848 500.432 213.635C500.826 214.618 500.926 215.405 500.728 215.995C500.728 216.388 500.63 216.978 500.432 217.765V218.355C500.432 219.732 500.53 220.715 500.728 221.305V222.78C500.926 223.37 501.023 224.353 501.023 225.73V227.5V229.565V232.515C501.023 233.105 501.121 233.597 501.319 233.99ZM389.91 362.315H389.615C389.417 362.708 389.319 363.692 389.319 365.265V366.74C389.122 367.133 389.024 367.625 389.024 368.215C389.024 368.608 388.926 369.002 388.728 369.395C388.531 370.575 388.335 371.755 388.137 372.935C388.137 374.115 388.137 375.295 388.137 376.475L387.842 377.065V379.72C388.039 380.113 388.433 380.408 389.024 380.605H394.934H398.776H400.844C403.602 380.802 406.164 380.9 408.528 380.9C410.892 380.9 413.354 380.703 415.915 380.31C418.673 380.113 421.333 380.113 423.894 380.31C426.456 380.31 429.116 380.408 431.873 380.605H434.533C437.881 380.802 441.132 381.195 444.285 381.785C447.633 382.375 451.179 383.162 454.923 384.145C455.317 384.145 455.908 384.342 456.696 384.735C457.09 384.932 457.583 385.128 458.174 385.325C458.963 385.522 459.554 385.522 459.947 385.325L460.243 385.62L464.084 372.345C463.691 372.148 463.198 372.05 462.607 372.05C462.213 372.05 461.818 371.952 461.425 371.755C460.44 371.362 459.554 371.067 458.765 370.87C457.976 370.673 457.09 370.477 456.105 370.28C454.53 369.887 453.052 369.69 451.673 369.69C450.293 369.493 448.815 369.297 447.24 369.1H446.649L439.557 368.215C437.586 368.018 435.617 367.92 433.646 367.92C431.873 367.723 429.902 367.428 427.736 367.035C426.161 366.642 424.485 366.445 422.712 366.445C420.939 366.248 419.264 365.953 417.689 365.56C413.749 364.97 409.612 364.38 405.277 363.79C401.14 363.2 397.003 362.708 392.865 362.315L389.91 362.02V362.315Z" fill="white"/>
</g>
<defs>
<clipPath id="clip0_173_436">
<rect width="886" height="886" fill="white"/>
</clipPath>
</defs>
</svg>
