<svg width="886" height="886" viewBox="0 0 886 886" fill="none" xmlns="http://www.w3.org/2000/svg">
<g clip-path="url(#clip0_173_425)">
<rect width="886" height="886" fill="white"/>
<rect width="886" height="886" fill="#7036CC"/>
<path d="M372.35 461.753C371.12 460.032 370.752 457.819 371.244 455.114C371.736 452.408 372.226 450.195 372.719 448.474C372.719 447.982 372.842 447.613 373.087 447.368C373.332 446.876 373.211 446.507 372.719 446.261C372.473 446.016 371.858 445.893 370.875 445.893C369.893 445.4 369.277 444.91 369.032 444.417C368.294 443.187 367.926 441.712 367.926 439.991C368.171 438.023 368.294 436.426 368.294 435.196C368.294 433.966 368.171 432.983 367.926 432.245C367.681 431.262 367.433 430.278 367.188 429.295C366.943 428.312 366.82 427.45 366.82 426.713C366.82 425.73 366.696 424.623 366.451 423.393C366.451 422.656 366.327 421.918 366.082 421.18C365.837 420.442 365.59 419.705 365.345 418.967C365.1 417.984 364.976 417.123 364.976 416.385C365.221 415.402 365.345 414.417 365.345 413.434C365.59 411.221 365.59 409.132 365.345 407.164C365.345 405.196 365.59 403.107 366.082 400.894C366.574 398.681 366.82 396.591 366.82 394.624C367.065 392.41 367.312 390.197 367.557 387.984C367.557 386.754 367.557 385.648 367.557 384.665C367.557 383.682 367.681 382.575 367.926 381.345C367.926 380.115 368.54 379.132 369.769 378.394C370.752 378.149 371.736 378.026 372.719 378.026C373.701 378.026 374.562 378.026 375.299 378.026C376.529 377.78 377.635 377.657 378.618 377.657C379.847 377.657 381.075 377.533 382.304 377.288C386.483 376.796 390.539 376.427 394.471 376.181C398.65 375.936 402.827 375.444 407.006 374.706C411.185 373.968 415.363 373.354 419.542 372.862C423.966 372.369 428.266 371.879 432.446 371.386C434.412 371.141 436.501 370.894 438.713 370.649C440.925 370.404 443.014 370.156 444.981 369.911C446.948 369.666 448.913 369.542 450.88 369.542C453.092 369.542 455.059 369.173 456.779 368.436C458.499 367.698 460.22 366.96 461.94 366.223C463.66 365.485 465.382 364.624 467.102 363.641C470.544 361.428 473.124 358.722 474.844 355.526C476.074 353.806 477.056 352.207 477.794 350.731C478.531 349.011 479.269 347.166 480.006 345.199C480.988 343.478 481.112 342.124 480.375 341.141C479.882 340.404 479.145 339.666 478.162 338.928C477.425 338.191 476.688 337.577 475.95 337.084C474.476 335.854 472.877 334.871 471.157 334.133C469.438 333.15 467.594 332.289 465.627 331.552C463.66 330.814 461.695 330.2 459.728 329.707C457.761 328.97 455.796 328.356 453.829 327.863C451.862 327.371 449.897 327.002 447.93 326.757C445.963 326.511 443.998 326.511 442.031 326.757C440.064 327.002 438.099 327.002 436.132 326.757C434.165 326.264 432.2 326.019 430.233 326.019H417.329C415.117 326.264 412.905 326.511 410.693 326.757C408.481 327.002 406.392 327.249 404.425 327.494C400.246 327.987 395.946 328.724 391.522 329.707C387.342 330.445 383.165 331.059 378.986 331.552C377.019 332.044 374.931 332.413 372.719 332.658C370.506 332.903 368.294 333.272 366.082 333.765C364.853 334.01 363.133 334.379 360.921 334.871C358.954 335.116 357.357 334.871 356.128 334.133C354.653 333.396 354.039 332.166 354.284 330.445C354.53 328.477 354.53 326.88 354.284 325.65C354.039 324.667 353.67 323.929 353.178 323.437C352.933 322.699 352.686 321.962 352.441 321.224C351.949 318.766 351.704 316.921 351.704 315.691C350.721 311.02 350.597 306.963 351.335 303.52C351.335 302.537 351.458 301.675 351.704 300.938C351.949 299.955 352.196 298.97 352.441 297.987C352.686 297.742 352.81 297.495 352.81 297.249C352.564 297.004 352.441 296.757 352.441 296.512C352.441 296.019 352.441 295.65 352.441 295.405C352.686 295.16 352.81 294.791 352.81 294.298C353.055 293.316 353.055 292.454 352.81 291.717C352.564 290.979 352.441 290.241 352.441 289.504C352.933 288.521 353.547 288.152 354.284 288.397C355.022 288.397 355.759 288.397 356.496 288.397H369.032C370.999 288.152 372.964 288.152 374.931 288.397C376.898 288.397 378.863 288.397 380.83 288.397C381.812 288.152 382.673 288.152 383.41 288.397C384.393 288.397 385.499 288.273 386.729 288.028C387.711 288.028 388.572 287.905 389.309 287.659C390.292 287.414 391.276 287.167 392.259 286.922C394.471 286.676 396.683 286.676 398.895 286.922C401.107 287.167 403.319 287.29 405.532 287.29C407.498 287.045 409.587 286.922 411.799 286.922C414.011 286.676 416.223 286.553 418.436 286.553C422.615 286.553 426.792 286.429 430.971 286.184C435.395 285.939 439.696 285.939 443.875 286.184C445.842 286.184 447.807 286.429 449.774 286.922C451.741 287.167 453.706 287.29 455.673 287.29C458.13 287.29 459.973 287.414 461.203 287.659C462.432 287.905 463.415 288.152 464.152 288.397C465.135 288.642 466.241 288.889 467.471 289.135C471.65 289.872 475.827 290.365 480.006 290.61C484.43 290.855 488.731 291.348 492.91 292.085C494.877 292.578 496.72 293.192 498.44 293.93C500.407 294.422 502.372 295.036 504.339 295.774C508.271 297.004 511.836 298.232 515.031 299.462C515.768 299.955 516.506 300.324 517.243 300.569C517.98 300.814 518.594 301.183 519.086 301.675C519.824 302.168 520.438 302.782 520.93 303.52C521.667 304.012 522.405 304.502 523.142 304.995C524.125 305.487 524.985 305.978 525.723 306.47C526.46 306.716 527.074 307.208 527.566 307.946C529.533 309.913 530.761 311.51 531.253 312.741C531.99 314.461 532.483 316.305 532.728 318.273C533.22 319.994 533.589 321.716 533.834 323.437C534.079 324.667 534.326 325.774 534.571 326.757C534.816 327.74 535.063 328.724 535.309 329.707C535.801 330.69 536.169 331.552 536.415 332.289C536.907 333.027 537.276 333.888 537.521 334.871V340.035C537.276 342.248 537.276 344.337 537.521 346.305C537.521 347.535 537.397 348.642 537.152 349.625C537.152 350.362 537.028 351.224 536.783 352.207C536.538 353.437 536.291 354.665 536.046 355.895C536.046 357.125 535.922 358.353 535.677 359.584C535.185 361.551 534.695 363.517 534.203 365.485C533.71 367.453 533.22 369.419 532.728 371.386C532.483 372.369 532.236 373.354 531.99 374.337C531.99 375.32 531.745 376.305 531.253 377.288C530.761 378.271 530.147 379.256 529.41 380.239C528.672 380.976 528.058 381.838 527.566 382.821C525.354 386.264 523.142 389.583 520.93 392.779C518.963 395.73 516.26 398.312 512.819 400.525C511.099 401.755 509.501 402.983 508.026 404.213C506.551 405.196 504.831 406.181 502.864 407.164C500.897 407.657 499.546 408.271 498.809 409.008C497.826 409.501 497.089 409.87 496.597 410.115C496.105 410.36 495.367 410.729 494.385 411.221C490.206 412.452 486.028 413.434 481.849 414.172C477.917 414.91 473.862 415.648 469.683 416.385C465.504 417.123 461.203 417.615 456.779 417.861C452.6 418.106 448.422 417.861 444.243 417.123C440.064 416.631 435.887 416.016 431.708 415.279C427.529 414.296 423.352 413.311 419.173 412.328C414.994 411.345 410.817 410.36 406.638 409.377C402.706 408.394 398.65 407.164 394.471 405.689C390.292 403.721 386.483 402.369 383.042 401.632C380.584 401.139 378.618 400.894 377.143 400.894C376.651 400.894 375.792 400.894 374.562 400.894C373.579 400.649 372.842 400.77 372.35 401.263C371.858 401.755 371.736 402.493 371.981 403.476C372.226 404.459 372.473 405.196 372.719 405.689C372.964 406.672 373.087 407.657 373.087 408.64C373.332 409.622 373.579 410.607 373.825 411.59C374.317 412.573 374.686 413.558 374.931 414.541C375.176 415.279 375.423 416.262 375.668 417.492C375.913 418.475 376.037 419.46 376.037 420.442C376.037 421.18 376.282 422.041 376.774 423.024C377.266 424.992 377.757 427.082 378.249 429.295C378.741 431.262 378.986 433.352 378.986 435.565C378.986 437.778 378.863 439.499 378.618 440.729C378.618 442.697 379.231 443.68 380.461 443.68C382.428 443.925 384.517 444.048 386.729 444.048C388.941 443.803 391.029 443.556 392.996 443.311C394.963 443.311 396.807 443.311 398.527 443.311C400.493 443.311 402.459 443.187 404.425 442.942C405.408 442.942 406.269 443.065 407.006 443.311C407.989 443.311 408.973 443.311 409.956 443.311C411.185 443.311 412.168 443.187 412.905 442.942C413.643 442.697 414.625 442.697 415.855 442.942C419.787 443.68 423.966 444.048 428.39 444.048C429.373 444.294 430.233 444.294 430.971 444.048C431.708 443.803 432.569 443.556 433.552 443.311C434.781 443.311 435.764 443.434 436.501 443.68C437.484 443.925 438.59 444.172 439.819 444.417C441.786 444.663 443.751 444.786 445.718 444.786C447.93 444.786 450.019 445.031 451.986 445.524C455.918 445.769 459.852 446.754 463.784 448.474C464.766 448.967 465.627 449.457 466.364 449.95C467.102 450.195 467.963 450.442 468.945 450.688C469.683 450.933 470.297 451.18 470.789 451.425C471.281 451.425 471.65 451.918 471.895 452.901C472.877 452.408 473.615 452.286 474.107 452.532C474.352 452.777 474.476 453.024 474.476 453.269C474.721 453.515 474.968 453.762 475.213 454.007C475.705 454.252 476.074 454.376 476.319 454.376C476.564 454.376 476.933 454.5 477.425 454.745C477.917 454.99 478.162 455.237 478.162 455.482C478.408 455.482 478.776 455.606 479.268 455.851C479.761 456.344 480.251 456.834 480.743 457.327C481.235 457.819 481.726 458.31 482.218 458.802C482.71 459.047 483.079 459.294 483.324 459.54C483.569 459.785 483.938 460.032 484.43 460.277C485.413 460.77 485.66 461.384 485.167 462.122C485.66 462.614 486.15 462.859 486.642 462.859C487.134 462.614 487.625 462.736 488.117 463.228C488.609 463.721 489.099 464.335 489.592 465.072C490.329 465.81 490.943 466.424 491.435 466.917C492.665 468.147 493.647 469.498 494.385 470.974C495.122 472.204 495.983 473.556 496.965 475.031C498.44 477.737 500.16 480.318 502.127 482.777C504.094 484.99 505.69 487.448 506.92 490.154C507.412 491.384 507.657 492.367 507.657 493.104C507.657 493.842 508.026 494.703 508.763 495.686C509.501 495.932 509.869 496.179 509.869 496.424L510.975 498.637C511.468 499.129 511.836 499.744 512.081 500.481C512.574 500.974 513.064 501.464 513.556 501.957C514.294 503.432 514.662 505.031 514.662 506.752C514.907 508.227 515.276 509.702 515.768 511.178C516.013 511.67 516.26 512.284 516.506 513.022C516.751 513.514 516.874 514.128 516.874 514.866C516.874 515.849 516.751 516.71 516.506 517.448C516.506 518.186 516.506 519.169 516.506 520.399C516.751 521.382 516.751 522.612 516.506 524.087C516.506 525.562 516.751 526.793 517.243 527.776C517.735 528.268 517.98 528.39 517.98 528.144C517.98 527.899 518.104 528.144 518.349 528.882V531.464C518.349 533.677 518.104 535.276 517.612 536.259C516.629 539.702 515.645 543.143 514.662 546.586C513.68 549.783 512.695 553.102 511.713 556.545C511.468 557.283 511.344 558.144 511.344 559.127C511.344 559.865 511.221 560.602 510.975 561.34C510.73 562.078 510.483 562.692 510.238 563.184C509.993 563.677 509.869 564.291 509.869 565.029C509.624 566.996 509.132 568.593 508.395 569.824C507.657 571.054 506.796 572.529 505.814 574.25C504.831 575.48 503.847 576.832 502.864 578.307C501.882 579.782 500.897 581.134 499.915 582.364C498.685 583.594 497.579 584.822 496.597 586.053C495.614 587.528 494.385 588.635 492.91 589.372C491.435 590.11 489.837 590.602 488.117 590.848C486.397 591.34 484.799 591.83 483.324 592.323C481.357 592.815 479.269 593.306 477.056 593.798C475.089 594.291 473.124 594.781 471.157 595.274C463.784 597.241 456.41 598.348 449.036 598.593C441.417 599.086 433.675 599.454 425.809 599.7C418.19 599.945 410.57 599.7 402.951 598.962C399.019 598.47 395.208 597.856 391.522 597.118C387.835 596.38 384.024 595.766 380.092 595.274C376.405 594.781 372.719 594.167 369.032 593.429C365.59 592.937 362.027 592.446 358.34 591.954C357.11 591.709 355.636 591.585 353.916 591.585C352.441 591.585 351.335 591.093 350.598 590.11C349.615 588.88 349.246 587.404 349.491 585.684C349.984 583.963 349.984 582.364 349.491 580.889C348.999 579.168 348.878 577.569 349.123 576.094C349.368 574.373 349.491 572.651 349.491 570.93C349.491 569.209 349.368 567.487 349.123 565.766C349.123 564.046 349.246 562.447 349.491 560.971C349.737 559.741 349.86 558.389 349.86 556.914C349.615 556.176 349.615 555.439 349.86 554.701C350.105 553.963 350.229 553.226 350.229 552.488C350.474 548.8 350.474 545.111 350.229 541.423C350.229 538.964 350.597 536.382 351.335 533.677C351.827 531.956 351.827 530.357 351.335 528.882C351.09 527.407 351.211 525.808 351.704 524.087C352.196 522.366 352.564 520.891 352.81 519.661C353.302 518.186 353.547 516.587 353.547 514.866C353.547 514.374 353.547 513.76 353.547 513.022C353.547 512.039 353.792 511.301 354.284 510.809C354.777 510.316 355.267 510.195 355.759 510.44C356.496 510.685 356.989 511.054 357.234 511.546C357.726 512.039 357.848 512.777 357.603 513.76C357.357 514.743 357.234 515.604 357.234 516.341C356.989 517.324 356.865 518.309 356.865 519.292C356.865 520.03 356.742 520.891 356.496 521.874C356.251 523.842 356.004 525.686 355.759 527.407C355.759 529.127 355.759 530.972 355.759 532.939C355.759 534.66 355.636 536.382 355.39 538.103C355.39 539.578 355.39 541.177 355.39 542.898C355.145 544.866 355.022 546.832 355.022 548.8C355.022 550.767 354.898 552.733 354.653 554.701C354.408 558.389 354.161 562.201 353.916 566.135C353.916 569.824 354.039 573.512 354.284 577.2C354.284 578.183 354.284 579.045 354.284 579.782C354.53 580.765 354.653 581.872 354.653 583.102C354.653 583.594 354.653 584.332 354.653 585.315C354.653 586.545 354.898 587.404 355.39 587.897C355.883 588.389 356.989 588.634 358.709 588.634C359.938 588.88 360.921 589.003 361.658 589.003C362.641 589.003 363.747 589.127 364.976 589.372C366.696 589.865 368.294 590.233 369.769 590.479C371.489 590.971 373.211 591.462 374.931 591.954C376.898 592.446 378.741 592.692 380.461 592.692C382.181 592.692 384.024 592.937 385.991 593.429C389.923 594.167 393.734 594.781 397.42 595.274C401.107 596.011 404.918 596.625 408.85 597.118C412.291 597.61 415.855 597.61 419.542 597.118C421.508 596.873 423.474 596.749 425.441 596.749C427.653 596.994 429.865 597.118 432.077 597.118C433.797 597.118 435.519 596.994 437.238 596.749C438.958 596.749 440.802 596.749 442.769 596.749C444.736 596.749 446.579 596.749 448.299 596.749C450.019 596.749 451.862 596.625 453.829 596.38C455.549 596.135 457.147 595.643 458.622 594.905C460.342 594.167 461.94 593.798 463.415 593.798C464.152 593.798 464.766 593.922 465.258 594.167C465.996 594.412 466.61 594.536 467.102 594.536C468.822 594.291 470.544 593.675 472.263 592.692C473.001 592.446 473.615 592.199 474.107 591.954C474.844 591.954 475.582 591.954 476.319 591.954C476.811 591.954 477.302 591.83 477.794 591.585C477.794 591.585 478.162 591.216 478.9 590.479C479.392 590.233 480.006 590.233 480.743 590.479C481.726 590.724 482.463 590.848 482.955 590.848C483.693 590.602 484.43 590.355 485.167 590.11C486.15 590.11 487.011 589.865 487.748 589.372C489.223 588.635 490.453 587.652 491.435 586.421C492.418 585.191 493.524 583.963 494.753 582.733C495.983 581.258 497.089 579.782 498.071 578.307C499.301 577.077 500.529 575.725 501.758 574.25C502.741 572.529 503.725 570.316 504.708 567.61C505.2 566.873 505.445 566.135 505.445 565.397C505.445 564.66 505.569 563.922 505.814 563.184C506.059 562.201 506.306 561.34 506.551 560.603C507.043 559.865 507.534 559.004 508.026 558.021C508.271 557.283 508.395 556.669 508.395 556.176C508.395 555.439 508.518 554.825 508.763 554.332C508.763 553.349 508.887 552.488 509.132 551.75C509.377 551.013 509.746 550.151 510.238 549.168C510.73 547.448 511.099 545.849 511.344 544.373C511.836 542.653 512.327 540.809 512.819 538.841C513.556 535.398 513.801 531.833 513.556 528.144C513.556 524.456 513.311 520.891 512.819 517.448C512.574 515.973 512.327 514.252 512.081 512.284C511.836 510.316 511.468 508.596 510.975 507.12C510.483 506.383 509.993 505.769 509.501 505.276C509.255 504.538 508.887 503.801 508.395 503.063C507.412 500.605 506.675 498.882 506.182 497.899C502.741 490.768 498.932 484.007 494.753 477.613C494.016 476.383 493.155 475.031 492.172 473.556C491.435 472.08 490.453 470.729 489.223 469.499C487.993 468.023 486.642 466.671 485.167 465.441C483.693 464.211 482.341 462.859 481.112 461.384C479.882 460.401 478.655 459.416 477.425 458.433C476.443 457.203 475.213 456.344 473.738 455.851C472.263 455.359 470.789 454.745 469.314 454.007C467.839 453.024 466.365 452.286 464.89 451.794C461.448 450.319 457.885 449.336 454.198 448.843C450.511 448.106 446.948 447.492 443.506 446.999C440.064 446.507 436.501 446.261 432.814 446.261C429.127 446.261 425.441 446.016 421.754 445.524C419.787 445.524 417.943 445.524 416.223 445.524C414.503 445.278 412.782 445.155 411.062 445.155C409.095 445.4 407.13 445.524 405.163 445.524C403.196 445.524 401.231 445.524 399.264 445.524C395.577 445.769 391.89 445.893 388.203 445.893C384.762 445.647 381.198 445.769 377.512 446.261C378.004 447.492 378.125 448.598 377.88 449.581C377.88 450.564 377.757 451.67 377.512 452.901C377.019 454.131 376.774 455.359 376.774 456.589C376.774 457.572 376.651 458.679 376.405 459.909C376.405 462.122 376.405 464.458 376.405 466.917C376.405 469.375 375.792 471.588 374.562 473.556C375.792 473.556 377.635 473.31 380.092 472.818C381.322 472.573 382.428 472.449 383.41 472.449C384.64 472.449 385.868 472.449 387.097 472.449C389.555 472.449 392.014 472.449 394.471 472.449C396.928 472.204 399.387 472.326 401.845 472.818C404.302 473.063 406.638 473.556 408.85 474.293C411.062 474.786 413.397 475.4 415.855 476.138C418.067 476.63 420.279 477.121 422.491 477.613C424.703 477.858 426.915 478.351 429.127 479.088C438.221 481.301 446.948 485.113 455.304 490.522C457.271 491.753 459.114 492.981 460.834 494.211C462.554 495.441 464.276 496.916 465.996 498.637C467.471 500.358 468.453 502.202 468.945 504.17C469.438 505.89 469.928 507.858 470.42 510.071C471.403 514.252 471.895 518.923 471.895 524.087C471.895 526.545 471.895 528.882 471.895 531.095C471.895 533.063 471.403 535.152 470.42 537.365C469.19 540.809 467.102 543.512 464.152 545.48C462.433 546.71 460.589 547.817 458.622 548.8C456.655 549.783 454.69 550.889 452.723 552.119C451.986 552.612 451.372 553.226 450.88 553.963C450.388 554.701 449.65 555.315 448.668 555.808C447.685 556.3 446.824 556.914 446.087 557.652C445.349 558.144 444.489 558.635 443.506 559.127C439.819 561.095 435.271 562.323 429.865 562.816C428.635 563.061 427.529 563.184 426.547 563.184C425.564 563.184 424.458 563.184 423.228 563.184C421.999 563.43 420.771 563.677 419.542 563.922C418.312 564.167 417.084 564.291 415.855 564.291C414.38 564.291 412.413 563.798 409.956 562.816C408.726 562.323 407.375 562.078 405.9 562.078C404.671 561.833 403.443 561.585 402.213 561.34C400.984 561.095 399.878 560.971 398.895 560.971C397.913 560.726 396.807 560.357 395.577 559.865C394.347 559.372 393.241 558.882 392.259 558.389C391.522 557.897 390.661 557.406 389.678 556.914C387.711 555.684 385.623 554.946 383.41 554.701C381.198 554.209 378.986 553.718 376.774 553.226C375.545 552.98 374.317 552.857 373.087 552.857C372.105 552.612 370.999 552.364 369.769 552.119C368.54 551.627 367.312 551.505 366.082 551.75C365.1 551.75 363.994 551.627 362.764 551.381C361.782 550.889 360.921 550.644 360.183 550.644C359.691 550.398 359.322 550.398 359.077 550.644C358.832 550.644 358.463 550.52 357.971 550.275C357.234 550.03 356.865 549.414 356.865 548.431C356.865 547.938 357.603 547.693 359.077 547.693C361.289 547.448 363.501 547.693 365.714 548.431C367.926 548.923 370.261 549.168 372.719 549.168C374.193 549.168 376.16 549.661 378.618 550.644C379.847 551.136 380.953 551.505 381.936 551.75C383.165 551.996 384.393 552.243 385.623 552.488C387.589 552.733 389.433 553.226 391.153 553.963C393.12 554.701 394.963 555.562 396.683 556.545C397.666 557.038 398.527 557.406 399.264 557.652C400.246 557.897 401.352 558.144 402.582 558.389L405.9 559.496C406.883 559.988 407.62 560.234 408.112 560.234C408.605 560.479 408.973 560.479 409.218 560.234C409.711 559.988 410.201 559.988 410.693 560.234C411.185 560.234 411.554 560.357 411.799 560.603C412.291 560.603 412.782 560.603 413.274 560.603C414.503 560.848 415.61 560.848 416.592 560.603C417.822 560.357 419.049 560.234 420.279 560.234C422.491 559.988 424.703 559.865 426.915 559.865C429.373 559.62 431.832 559.251 434.289 558.758C438.958 558.021 443.014 556.176 446.456 553.226C450.142 550.03 454.074 547.448 458.253 545.48C459.973 544.497 461.448 543.636 462.678 542.898C463.907 541.915 465.013 540.561 465.996 538.841C466.978 536.873 467.471 534.784 467.471 532.57C467.716 530.112 467.839 527.776 467.839 525.562V519.292C467.594 518.062 467.225 516.956 466.733 515.973C466.488 514.742 466.241 513.514 465.996 512.284C465.751 511.301 465.627 510.44 465.627 509.702C465.872 508.719 465.996 507.734 465.996 506.752C465.751 505.521 464.766 504.046 463.046 502.325C462.064 501.588 460.834 500.236 459.36 498.268C458.867 497.285 458.253 496.793 457.516 496.793C457.024 496.548 456.165 496.179 454.935 495.686C453.953 495.194 453.092 494.58 452.355 493.842C451.617 493.104 450.756 492.49 449.774 491.998L444.243 488.678C440.064 486.711 435.764 484.745 431.339 482.777C429.127 482.039 426.915 481.425 424.703 480.933C422.491 480.44 420.279 479.95 418.067 479.457C415.61 478.965 413.274 478.474 411.062 477.982C408.85 477.244 406.514 476.63 404.057 476.138C402.827 475.892 401.721 475.769 400.739 475.769C400.001 475.524 399.019 475.4 397.789 475.4C396.807 475.645 395.822 475.769 394.84 475.769C393.857 475.524 392.751 475.524 391.522 475.769C390.292 475.769 389.186 475.892 388.203 476.138C387.221 476.138 386.115 476.138 384.885 476.138C383.656 476.383 382.428 476.506 381.198 476.506C380.216 476.261 379.11 476.261 377.88 476.506C376.405 476.999 374.931 477.368 373.456 477.613C371.981 477.613 370.999 476.63 370.506 474.662C370.506 473.432 370.506 472.326 370.506 471.343C370.752 470.36 370.999 469.253 371.244 468.023C371.244 466.793 371.244 465.687 371.244 464.704C371.489 463.721 371.858 462.736 372.35 461.753ZM371.613 397.943C373.332 398.188 374.931 398.312 376.405 398.312C377.88 398.067 379.478 397.943 381.198 397.943C382.918 397.943 384.516 398.188 385.991 398.681C387.711 399.173 389.433 399.664 391.153 400.156C392.382 400.649 393.61 401.263 394.84 402C396.069 402.738 397.297 403.23 398.527 403.476C400.246 403.721 401.721 404.09 402.951 404.582C404.425 405.075 405.9 405.565 407.375 406.058C410.817 407.288 414.256 408.271 417.698 409.008C421.14 409.746 424.703 410.484 428.39 411.221C431.832 411.714 435.15 412.328 438.344 413.066C441.539 413.803 444.857 414.172 448.299 414.172C451.741 414.172 455.18 414.172 458.622 414.172C462.064 413.927 465.504 413.68 468.945 413.434C470.665 413.434 472.263 413.311 473.738 413.066C475.213 412.573 476.811 412.083 478.531 411.59C480.006 411.098 481.481 410.853 482.955 410.853C484.675 410.607 486.273 410.238 487.748 409.746C488.978 409.254 490.084 408.763 491.066 408.271C492.296 407.778 493.524 407.288 494.753 406.795C496.228 406.058 497.703 405.444 499.177 404.951C500.652 404.213 502.127 403.352 503.602 402.369C505.814 401.139 508.149 399.295 510.607 396.837C511.836 395.854 512.942 394.992 513.925 394.255C514.907 393.272 516.013 392.165 517.243 390.935C518.226 389.705 519.086 388.477 519.824 387.247C520.561 385.771 521.422 384.42 522.405 383.189C523.142 381.714 524.003 380.239 524.985 378.763C525.968 377.043 526.705 375.444 527.197 373.968C527.69 372.493 527.935 371.018 527.935 369.542C528.18 368.067 528.549 366.592 529.041 365.116C529.533 363.148 530.023 361.673 530.516 360.69C530.761 359.952 530.884 359.338 530.884 358.846C530.884 358.108 531.008 357.37 531.253 356.633C531.253 354.912 531.498 353.313 531.99 351.838C532.483 350.117 532.728 348.395 532.728 346.674C533.22 342.986 533.096 339.421 532.359 335.978C532.114 334.257 531.867 332.658 531.622 331.183C531.377 329.462 531.008 327.74 530.516 326.019C530.023 324.051 529.533 322.207 529.041 320.486C528.796 318.766 528.304 317.043 527.566 315.322C526.337 312.372 524.493 309.913 522.036 307.946C519.824 305.978 517.367 304.381 514.662 303.151C508.026 299.708 501.513 297.249 495.122 295.774C491.68 295.036 488.24 294.422 484.799 293.93C481.357 293.437 477.917 292.947 474.476 292.454C472.756 291.962 471.034 291.717 469.314 291.717C467.839 291.717 466.119 291.717 464.152 291.717C462.433 291.471 460.711 291.224 458.991 290.979C457.271 290.734 455.549 290.486 453.829 290.241C445.963 289.504 437.976 289.258 429.865 289.504C421.999 289.749 414.135 290.118 406.269 290.61C402.09 290.61 397.913 290.61 393.734 290.61C389.802 290.61 385.746 290.855 381.567 291.348C379.6 291.348 377.635 291.348 375.668 291.348C373.701 291.102 371.736 290.979 369.769 290.979C367.802 291.224 365.837 291.348 363.87 291.348C361.903 291.348 359.938 291.348 357.971 291.348C357.971 294.053 357.726 296.757 357.234 299.462C356.742 301.921 356.62 304.502 356.865 307.208C357.11 309.913 357.357 312.617 357.603 315.322C357.848 317.781 358.216 320.363 358.709 323.068C358.954 324.051 359.077 325.526 359.077 327.494C359.077 327.987 359.077 328.477 359.077 328.97C359.077 329.462 359.201 329.831 359.446 330.076C359.938 330.814 360.921 331.059 362.395 330.814C363.87 330.321 364.976 330.076 365.714 330.076C368.418 329.584 371.244 329.215 374.193 328.97C377.143 328.724 379.969 328.356 382.673 327.863C385.377 327.371 388.08 326.757 390.784 326.019C393.488 325.281 396.191 324.789 398.895 324.544C401.6 324.298 404.302 324.051 407.006 323.806C409.711 323.561 412.413 323.313 415.117 323.068H423.597C424.827 323.068 426.178 322.945 427.653 322.699C429.127 322.454 430.602 322.454 432.077 322.699C434.781 323.192 437.484 323.437 440.188 323.437C442.892 323.437 445.595 323.682 448.299 324.175C453.461 324.667 458.622 325.774 463.784 327.494C466.241 328.477 468.577 329.338 470.789 330.076C473.001 330.814 475.213 331.797 477.425 333.027C479.145 334.257 480.867 335.609 482.587 337.084C483.079 337.577 483.693 338.314 484.43 339.297C485.413 340.035 486.028 340.896 486.274 341.879C486.519 342.372 486.519 342.862 486.274 343.354C486.028 343.6 485.781 343.969 485.536 344.461C485.291 344.953 485.167 345.444 485.167 345.936C485.167 346.182 485.044 346.551 484.799 347.043C484.307 349.011 483.201 351.224 481.481 353.682C480.251 355.895 479.023 357.985 477.794 359.952C476.564 361.673 474.721 363.148 472.263 364.378C471.281 364.871 470.42 365.485 469.683 366.223C469.191 366.715 468.331 367.206 467.102 367.698C465.627 368.19 464.152 368.805 462.678 369.542C461.448 370.035 460.097 370.525 458.622 371.018L455.304 372.124C454.812 372.369 454.198 372.493 453.461 372.493C452.968 372.248 452.478 372.124 451.986 372.124C450.511 371.879 449.036 372.001 447.562 372.493C446.332 372.738 444.981 372.985 443.506 373.231C440.802 373.476 438.099 373.845 435.395 374.337C432.938 374.583 430.357 374.83 427.653 375.075C424.211 375.567 420.893 375.936 417.698 376.181C414.749 376.427 411.676 376.674 408.481 376.919C406.761 377.164 405.163 377.412 403.688 377.657C402.213 377.657 400.615 377.902 398.895 378.394C395.946 379.132 393.241 379.501 390.784 379.501C387.589 379.501 384.517 379.87 381.567 380.608C380.83 380.608 380.092 380.731 379.355 380.976C378.618 380.976 377.88 380.976 377.143 380.976C376.651 380.976 376.037 380.976 375.299 380.976C374.807 380.731 374.317 380.853 373.825 381.345C373.087 382.083 372.595 383.435 372.35 385.402C372.35 387.123 372.35 388.477 372.35 389.46C372.105 390.935 371.858 392.41 371.613 393.886C371.613 395.361 371.613 396.713 371.613 397.943ZM373.087 442.204C373.087 441.959 373.087 440.974 373.087 439.253C373.332 437.286 373.332 435.441 373.087 433.721C373.087 431.753 372.964 430.032 372.719 428.557C372.473 427.082 372.226 426.344 371.981 426.344C371.981 426.344 371.981 427.082 371.981 428.557C371.981 430.032 372.105 431.753 372.35 433.721C372.595 435.689 372.719 437.533 372.719 439.253C372.964 440.974 373.087 441.959 373.087 442.204Z" fill="white"/>
</g>
<defs>
<clipPath id="clip0_173_425">
<rect width="886" height="886" fill="white"/>
</clipPath>
</defs>
</svg>
