<svg width="884" height="876" viewBox="0 0 884 876" fill="none" xmlns="http://www.w3.org/2000/svg">
<g clip-path="url(#clip0_140_196)">
<mask id="mask0_140_196" style="mask-type:luminance" maskUnits="userSpaceOnUse" x="0" y="0" width="884" height="876">
<path d="M884 0H0V876H884V0Z" fill="white"/>
</mask>
<g mask="url(#mask0_140_196)">
<path d="M884 -7.37695H1.8457V877.844H884V-7.37695Z" fill="#7036CC"/>
<path d="M400.107 468.43C398.876 466.709 398.507 464.496 399 461.79C399.493 459.085 399.984 456.872 400.476 455.151C400.476 454.659 400.6 454.29 400.846 454.045C401.091 453.552 400.969 453.183 400.476 452.938C400.231 452.693 399.615 452.569 398.631 452.569C397.647 452.077 397.031 451.586 396.785 451.094C396.047 449.864 395.678 448.389 395.678 446.668C395.924 444.7 396.047 443.103 396.047 441.873C396.047 440.643 395.924 439.66 395.678 438.922C395.433 437.939 395.185 436.954 394.94 435.971C394.694 434.988 394.571 434.127 394.571 433.39C394.571 432.407 394.447 431.3 394.202 430.07C394.202 429.332 394.078 428.595 393.833 427.857C393.587 427.119 393.34 426.382 393.094 425.644C392.849 424.661 392.725 423.8 392.725 423.062C392.971 422.079 393.094 421.094 393.094 420.111C393.34 417.898 393.34 415.809 393.094 413.841C393.094 411.873 393.34 409.784 393.833 407.571C394.325 405.358 394.571 403.268 394.571 401.3C394.816 399.087 395.064 396.874 395.309 394.661C395.309 393.431 395.309 392.325 395.309 391.342C395.309 390.359 395.433 389.252 395.678 388.022C395.678 386.792 396.293 385.809 397.524 385.071C398.507 384.826 399.493 384.702 400.476 384.702C401.46 384.702 402.322 384.702 403.06 384.702C404.291 384.457 405.398 384.334 406.382 384.334C407.613 384.334 408.842 384.21 410.073 383.965C414.257 383.472 418.317 383.103 422.253 382.858C426.437 382.613 430.619 382.121 434.803 381.383C438.987 380.645 443.169 380.031 447.352 379.539C451.782 379.046 456.087 378.556 460.271 378.063C462.24 377.818 464.331 377.571 466.546 377.326C468.76 377.08 470.851 376.833 472.82 376.588C474.79 376.343 476.757 376.219 478.726 376.219C480.941 376.219 482.91 375.85 484.632 375.112C486.354 374.375 488.077 373.637 489.799 372.899C491.521 372.162 493.245 371.301 494.967 370.318C498.412 368.105 500.996 365.399 502.718 362.203C503.949 360.482 504.932 358.883 505.671 357.408C506.409 355.687 507.147 353.843 507.885 351.875C508.869 350.155 508.992 348.801 508.254 347.818C507.762 347.081 507.023 346.343 506.04 345.605C505.301 344.867 504.563 344.253 503.825 343.761C502.349 342.531 500.749 341.548 499.027 340.81C497.305 339.827 495.459 338.966 493.49 338.228C491.521 337.491 489.554 336.876 487.585 336.384C485.615 335.646 483.648 335.032 481.679 334.54C479.71 334.047 477.742 333.679 475.773 333.433C473.804 333.188 471.837 333.188 469.868 333.433C467.898 333.679 465.931 333.679 463.962 333.433C461.993 332.941 460.026 332.696 458.056 332.696H445.138C442.923 332.941 440.709 333.188 438.494 333.433C436.279 333.679 434.188 333.926 432.219 334.171C428.035 334.663 423.73 335.401 419.301 336.384C415.117 337.122 410.935 337.736 406.751 338.228C404.782 338.721 402.691 339.09 400.476 339.335C398.262 339.58 396.047 339.949 393.833 340.441C392.602 340.687 390.88 341.055 388.665 341.548C386.696 341.793 385.098 341.548 383.867 340.81C382.39 340.073 381.776 338.842 382.021 337.122C382.267 335.154 382.267 333.557 382.021 332.327C381.776 331.344 381.407 330.606 380.914 330.114C380.669 329.376 380.421 328.638 380.176 327.901C379.683 325.442 379.438 323.598 379.438 322.368C378.454 317.697 378.33 313.639 379.068 310.196C379.068 309.213 379.192 308.352 379.438 307.614C379.683 306.631 379.93 305.647 380.176 304.664C380.421 304.418 380.545 304.171 380.545 303.926C380.299 303.681 380.176 303.434 380.176 303.188C380.176 302.696 380.176 302.327 380.176 302.082C380.421 301.836 380.545 301.468 380.545 300.975C380.79 299.992 380.79 299.131 380.545 298.393C380.299 297.656 380.176 296.918 380.176 296.18C380.669 295.197 381.283 294.828 382.021 295.074C382.759 295.074 383.498 295.074 384.236 295.074H396.785C398.755 294.828 400.722 294.828 402.691 295.074C404.66 295.074 406.627 295.074 408.597 295.074C409.58 294.828 410.442 294.828 411.18 295.074C412.164 295.074 413.271 294.95 414.502 294.705C415.486 294.705 416.348 294.581 417.086 294.336C418.07 294.091 419.055 293.844 420.039 293.598C422.253 293.353 424.468 293.353 426.683 293.598C428.897 293.844 431.112 293.967 433.327 293.967C435.296 293.722 437.387 293.598 439.601 293.598C441.816 293.353 444.03 293.23 446.245 293.23C450.429 293.23 454.611 293.106 458.795 292.861C463.224 292.615 467.529 292.615 471.713 292.861C473.682 292.861 475.65 293.106 477.619 293.598C479.588 293.844 481.555 293.967 483.524 293.967C485.984 293.967 487.83 294.091 489.061 294.336C490.292 294.581 491.276 294.828 492.014 295.074C492.997 295.319 494.105 295.566 495.336 295.811C499.519 296.549 503.701 297.042 507.885 297.287C512.314 297.532 516.62 298.025 520.804 298.762C522.773 299.255 524.618 299.869 526.34 300.606C528.309 301.099 530.277 301.713 532.246 302.451C536.182 303.681 539.752 304.909 542.95 306.139C543.688 306.631 544.426 307 545.165 307.246C545.903 307.491 546.517 307.86 547.01 308.352C547.748 308.844 548.363 309.459 548.856 310.196C549.594 310.689 550.332 311.179 551.07 311.672C552.054 312.164 552.916 312.655 553.654 313.147C554.392 313.392 555.007 313.885 555.499 314.622C557.469 316.59 558.698 318.187 559.19 319.417C559.929 321.138 560.421 322.982 560.667 324.95C561.16 326.671 561.529 328.393 561.774 330.114C562.02 331.344 562.267 332.45 562.512 333.433C562.758 334.416 563.005 335.401 563.251 336.384C563.743 337.367 564.112 338.228 564.358 338.966C564.851 339.704 565.22 340.565 565.465 341.548V346.712C565.22 348.925 565.22 351.014 565.465 352.982C565.465 354.212 565.342 355.319 565.096 356.302C565.096 357.039 564.972 357.901 564.727 358.883C564.481 360.114 564.234 361.342 563.989 362.572C563.989 363.802 563.865 365.03 563.62 366.26C563.127 368.228 562.636 370.194 562.143 372.162C561.65 374.13 561.16 376.095 560.667 378.063C560.421 379.046 560.174 380.031 559.929 381.014C559.929 381.997 559.683 382.982 559.19 383.965C558.698 384.948 558.083 385.932 557.345 386.915C556.607 387.653 555.992 388.514 555.499 389.497C553.285 392.94 551.07 396.26 548.856 399.456C546.886 402.407 544.181 404.989 540.735 407.202C539.013 408.432 537.413 409.66 535.937 410.89C534.461 411.873 532.739 412.858 530.77 413.841C528.8 414.333 527.448 414.947 526.709 415.685C525.726 416.178 524.988 416.546 524.495 416.792C524.002 417.037 523.264 417.406 522.28 417.898C518.096 419.128 513.914 420.111 509.731 420.849C505.794 421.587 501.734 422.324 497.55 423.062C493.367 423.8 489.061 424.292 484.632 424.537C480.448 424.783 476.266 424.537 472.082 423.8C467.898 423.307 463.717 422.693 459.533 421.955C455.349 420.972 451.167 419.988 446.983 419.005C442.8 418.022 438.618 417.037 434.434 416.054C430.497 415.071 426.437 413.841 422.253 412.366C418.07 410.398 414.257 409.046 410.811 408.308C408.351 407.816 406.382 407.571 404.906 407.571C404.413 407.571 403.553 407.571 402.322 407.571C401.338 407.325 400.6 407.447 400.107 407.939C399.615 408.432 399.493 409.17 399.738 410.152C399.984 411.135 400.231 411.873 400.476 412.366C400.722 413.349 400.846 414.333 400.846 415.316C401.091 416.299 401.338 417.284 401.584 418.267C402.076 419.25 402.446 420.235 402.691 421.218C402.936 421.955 403.184 422.938 403.429 424.169C403.675 425.151 403.798 426.136 403.798 427.119C403.798 427.857 404.044 428.718 404.537 429.701C405.029 431.669 405.52 433.758 406.013 435.971C406.506 437.939 406.751 440.029 406.751 442.242C406.751 444.455 406.627 446.175 406.382 447.406C406.382 449.373 406.997 450.356 408.228 450.356C410.197 450.602 412.288 450.725 414.502 450.725C416.717 450.48 418.808 450.233 420.777 449.987C422.746 449.987 424.592 449.987 426.314 449.987C428.283 449.987 430.25 449.864 432.219 449.619C433.203 449.619 434.065 449.742 434.803 449.987C435.787 449.987 436.772 449.987 437.756 449.987C438.987 449.987 439.97 449.864 440.709 449.619C441.447 449.373 442.43 449.373 443.661 449.619C447.598 450.356 451.782 450.725 456.211 450.725C457.195 450.97 458.056 450.97 458.795 450.725C459.533 450.48 460.395 450.233 461.378 449.987C462.609 449.987 463.593 450.111 464.331 450.356C465.315 450.602 466.422 450.849 467.653 451.094C469.622 451.339 471.59 451.463 473.559 451.463C475.773 451.463 477.864 451.708 479.833 452.2C483.77 452.446 487.708 453.431 491.645 455.151C492.628 455.644 493.49 456.134 494.228 456.627C494.967 456.872 495.828 457.119 496.812 457.364C497.55 457.61 498.165 457.857 498.658 458.102C499.15 458.102 499.519 458.594 499.765 459.577C500.749 459.085 501.487 458.963 501.98 459.209C502.225 459.454 502.349 459.701 502.349 459.946C502.594 460.191 502.841 460.439 503.087 460.684C503.58 460.929 503.949 461.053 504.194 461.053C504.44 461.053 504.809 461.176 505.301 461.422C505.794 461.667 506.04 461.914 506.04 462.159C506.285 462.159 506.654 462.283 507.147 462.528C507.64 463.02 508.131 463.511 508.623 464.003C509.116 464.496 509.607 464.986 510.1 465.479C510.593 465.724 510.962 465.971 511.207 466.217C511.453 466.462 511.822 466.709 512.314 466.954C513.298 467.447 513.545 468.061 513.053 468.798C513.545 469.291 514.036 469.536 514.529 469.536C515.022 469.291 515.513 469.413 516.005 469.905C516.498 470.397 516.989 471.011 517.482 471.749C518.22 472.487 518.835 473.101 519.327 473.593C520.558 474.823 521.542 476.175 522.28 477.651C523.018 478.881 523.88 480.233 524.864 481.708C526.34 484.413 528.062 486.995 530.031 489.454C532.001 491.667 533.599 494.125 534.83 496.83C535.322 498.06 535.568 499.043 535.568 499.781C535.568 500.519 535.937 501.38 536.675 502.363C537.413 502.608 537.782 502.855 537.782 503.101L538.89 505.314C539.383 505.806 539.752 506.42 539.997 507.158C540.49 507.65 540.981 508.141 541.473 508.633C542.212 510.109 542.581 511.708 542.581 513.428C542.826 514.904 543.195 516.379 543.688 517.854C543.934 518.347 544.181 518.961 544.426 519.699C544.672 520.191 544.795 520.805 544.795 521.543C544.795 522.526 544.672 523.387 544.426 524.125C544.426 524.862 544.426 525.845 544.426 527.075C544.672 528.058 544.672 529.288 544.426 530.764C544.426 532.239 544.672 533.469 545.165 534.452C545.657 534.945 545.903 535.066 545.903 534.821C545.903 534.576 546.026 534.821 546.272 535.559V538.141C546.272 540.354 546.026 541.953 545.534 542.936C544.55 546.379 543.564 549.82 542.581 553.263C541.597 556.459 540.612 559.779 539.628 563.222C539.383 563.96 539.259 564.821 539.259 565.804C539.259 566.542 539.135 567.279 538.89 568.017C538.644 568.755 538.397 569.369 538.152 569.861C537.906 570.354 537.782 570.968 537.782 571.705C537.537 573.673 537.044 575.27 536.306 576.5C535.568 577.73 534.706 579.206 533.722 580.926C532.739 582.156 531.753 583.508 530.77 584.984C529.786 586.459 528.8 587.811 527.817 589.041C526.586 590.271 525.478 591.499 524.495 592.729C523.511 594.205 522.28 595.311 520.804 596.049C519.327 596.787 517.727 597.279 516.005 597.524C514.284 598.017 512.684 598.507 511.207 599C509.238 599.492 507.147 599.983 504.932 600.475C502.963 600.967 500.996 601.458 499.027 601.95C491.645 603.918 484.263 605.025 476.881 605.27C469.253 605.762 461.502 606.131 453.627 606.376C446 606.622 438.37 606.377 430.743 605.639C426.806 605.146 422.992 604.532 419.301 603.795C415.61 603.057 411.795 602.443 407.858 601.95C404.167 601.458 400.476 600.844 396.785 600.106C393.34 599.614 389.772 599.123 386.081 598.631C384.85 598.386 383.374 598.262 381.652 598.262C380.176 598.262 379.068 597.77 378.33 596.787C377.347 595.557 376.977 594.081 377.223 592.361C377.716 590.64 377.716 589.041 377.223 587.566C376.73 585.845 376.608 584.246 376.854 582.771C377.099 581.05 377.223 579.327 377.223 577.607C377.223 575.886 377.099 574.164 376.854 572.443C376.854 570.722 376.977 569.123 377.223 567.648C377.468 566.418 377.592 565.066 377.592 563.591C377.347 562.853 377.347 562.115 377.592 561.378C377.838 560.64 377.961 559.902 377.961 559.165C378.207 555.476 378.207 551.788 377.961 548.099C377.961 545.641 378.33 543.059 379.068 540.354C379.561 538.633 379.561 537.034 379.068 535.559C378.823 534.083 378.945 532.485 379.438 530.764C379.93 529.043 380.299 527.568 380.545 526.338C381.038 524.862 381.283 523.263 381.283 521.543C381.283 521.05 381.283 520.436 381.283 519.699C381.283 518.716 381.529 517.978 382.021 517.486C382.514 516.993 383.005 516.871 383.498 517.117C384.236 517.362 384.729 517.731 384.974 518.223C385.467 518.716 385.589 519.453 385.343 520.436C385.098 521.419 384.974 522.281 384.974 523.018C384.729 524.001 384.605 524.986 384.605 525.969C384.605 526.707 384.481 527.568 384.236 528.551C383.99 530.519 383.743 532.363 383.498 534.083C383.498 535.804 383.498 537.648 383.498 539.616C383.498 541.337 383.374 543.059 383.129 544.78C383.129 546.255 383.129 547.854 383.129 549.575C382.883 551.543 382.759 553.509 382.759 555.476C382.759 557.444 382.636 559.41 382.39 561.378C382.145 565.066 381.898 568.878 381.652 572.812C381.652 576.5 381.776 580.189 382.021 583.877C382.021 584.86 382.021 585.721 382.021 586.459C382.267 587.442 382.39 588.549 382.39 589.779C382.39 590.271 382.39 591.009 382.39 591.992C382.39 593.222 382.636 594.081 383.129 594.574C383.621 595.066 384.729 595.311 386.451 595.311C387.681 595.557 388.665 595.68 389.403 595.68C390.387 595.68 391.494 595.804 392.725 596.049C394.447 596.541 396.047 596.91 397.524 597.155C399.245 597.648 400.969 598.138 402.691 598.631C404.66 599.123 406.506 599.369 408.228 599.369C409.949 599.369 411.795 599.614 413.764 600.106C417.701 600.844 421.515 601.458 425.206 601.95C428.897 602.688 432.712 603.302 436.648 603.795C440.094 604.287 443.661 604.287 447.352 603.795C449.322 603.549 451.289 603.426 453.258 603.426C455.473 603.671 457.687 603.795 459.902 603.795C461.624 603.795 463.347 603.671 465.069 603.426C466.791 603.426 468.637 603.426 470.606 603.426C472.575 603.426 474.421 603.426 476.142 603.426C477.864 603.426 479.71 603.302 481.679 603.057C483.401 602.812 485.001 602.319 486.477 601.582C488.199 600.844 489.799 600.475 491.276 600.475C492.014 600.475 492.628 600.599 493.121 600.844C493.859 601.089 494.474 601.213 494.967 601.213C496.688 600.967 498.412 600.351 500.134 599.369C500.872 599.123 501.487 598.876 501.98 598.631C502.718 598.631 503.456 598.631 504.194 598.631C504.687 598.631 505.178 598.507 505.671 598.262C505.671 598.262 506.04 597.893 506.778 597.155C507.271 596.91 507.885 596.91 508.623 597.155C509.607 597.401 510.345 597.524 510.838 597.524C511.576 597.279 512.314 597.032 513.053 596.787C514.036 596.787 514.898 596.541 515.636 596.049C517.113 595.311 518.344 594.328 519.327 593.098C520.311 591.868 521.418 590.64 522.649 589.41C523.88 587.934 524.988 586.459 525.971 584.984C527.202 583.754 528.431 582.402 529.662 580.926C530.646 579.206 531.631 576.993 532.615 574.287C533.108 573.55 533.353 572.812 533.353 572.074C533.353 571.337 533.477 570.599 533.722 569.861C533.968 568.878 534.215 568.017 534.461 567.279C534.953 566.542 535.444 565.68 535.937 564.697C536.182 563.96 536.306 563.346 536.306 562.853C536.306 562.115 536.43 561.501 536.675 561.009C536.675 560.026 536.799 559.165 537.044 558.427C537.29 557.689 537.659 556.828 538.152 555.845C538.644 554.124 539.013 552.526 539.259 551.05C539.752 549.33 540.243 547.485 540.735 545.518C541.473 542.074 541.719 538.51 541.473 534.821C541.473 531.133 541.228 527.568 540.735 524.125C540.49 522.649 540.243 520.929 539.997 518.961C539.752 516.993 539.383 515.273 538.89 513.797C538.397 513.059 537.906 512.445 537.413 511.953C537.168 511.215 536.799 510.478 536.306 509.74C535.322 507.282 534.584 505.559 534.091 504.576C530.646 497.445 526.833 490.684 522.649 484.29C521.911 483.06 521.049 481.708 520.066 480.232C519.327 478.757 518.344 477.405 517.113 476.175C515.882 474.7 514.529 473.348 513.053 472.118C511.576 470.888 510.223 469.536 508.992 468.061C507.762 467.078 506.532 466.093 505.301 465.11C504.318 463.88 503.087 463.02 501.61 462.528C500.134 462.036 498.658 461.422 497.181 460.684C495.705 459.701 494.228 458.963 492.752 458.471C489.306 456.995 485.739 456.012 482.048 455.52C478.357 454.782 474.79 454.168 471.344 453.676C467.898 453.183 464.331 452.938 460.64 452.938C456.949 452.938 453.258 452.693 449.567 452.2C447.598 452.2 445.752 452.2 444.03 452.2C442.309 451.955 440.585 451.832 438.863 451.832C436.894 452.077 434.927 452.2 432.957 452.2C430.988 452.2 429.021 452.2 427.052 452.2C423.361 452.446 419.67 452.569 415.979 452.569C412.533 452.324 408.966 452.446 405.275 452.938C405.768 454.168 405.889 455.275 405.644 456.258C405.644 457.241 405.52 458.347 405.275 459.577C404.782 460.807 404.537 462.036 404.537 463.266C404.537 464.249 404.413 465.355 404.167 466.585C404.167 468.798 404.167 471.135 404.167 473.593C404.167 476.052 403.553 478.265 402.322 480.232C403.553 480.232 405.398 479.987 407.858 479.495C409.089 479.25 410.197 479.126 411.18 479.126C412.411 479.126 413.64 479.126 414.871 479.126C417.331 479.126 419.793 479.126 422.253 479.126C424.714 478.881 427.175 479.002 429.635 479.495C432.096 479.74 434.434 480.232 436.648 480.97C438.863 481.463 441.201 482.077 443.661 482.814C445.876 483.307 448.091 483.797 450.305 484.29C452.52 484.535 454.734 485.027 456.949 485.765C466.053 487.978 474.79 491.79 483.155 497.199C485.124 498.429 486.97 499.658 488.692 500.888C490.414 502.118 492.137 503.593 493.859 505.314C495.336 507.034 496.319 508.879 496.812 510.846C497.305 512.567 497.796 514.535 498.289 516.748C499.272 520.929 499.765 525.6 499.765 530.764C499.765 533.222 499.765 535.559 499.765 537.772C499.765 539.74 499.272 541.829 498.289 544.042C497.058 547.485 494.967 550.189 492.014 552.157C490.292 553.387 488.446 554.493 486.477 555.476C484.508 556.459 482.541 557.566 480.572 558.796C479.833 559.288 479.219 559.902 478.726 560.64C478.233 561.378 477.495 561.992 476.512 562.484C475.528 562.977 474.666 563.591 473.928 564.329C473.19 564.821 472.328 565.311 471.344 565.804C467.653 567.772 463.1 569 457.687 569.492C456.456 569.738 455.349 569.861 454.365 569.861C453.382 569.861 452.274 569.861 451.043 569.861C449.812 570.106 448.583 570.354 447.352 570.599C446.121 570.844 444.892 570.968 443.661 570.968C442.185 570.968 440.216 570.475 437.756 569.492C436.525 569 435.172 568.755 433.696 568.755C432.465 568.509 431.236 568.262 430.005 568.017C428.774 567.772 427.666 567.648 426.683 567.648C425.699 567.403 424.592 567.034 423.361 566.542C422.13 566.049 421.023 565.559 420.039 565.066C419.301 564.574 418.439 564.083 417.455 563.591C415.486 562.361 413.395 561.623 411.18 561.378C408.966 560.885 406.751 560.395 404.537 559.902C403.306 559.657 402.076 559.534 400.846 559.534C399.862 559.288 398.755 559.041 397.524 558.796C396.293 558.303 395.064 558.182 393.833 558.427C392.849 558.427 391.742 558.303 390.511 558.058C389.527 557.566 388.665 557.321 387.927 557.321C387.434 557.075 387.065 557.075 386.82 557.321C386.574 557.321 386.205 557.197 385.712 556.952C384.974 556.706 384.605 556.09 384.605 555.107C384.605 554.615 385.343 554.37 386.82 554.37C389.034 554.125 391.249 554.37 393.463 555.107C395.678 555.6 398.016 555.845 400.476 555.845C401.953 555.845 403.922 556.338 406.382 557.321C407.613 557.813 408.72 558.182 409.704 558.427C410.935 558.672 412.164 558.919 413.395 559.165C415.364 559.41 417.21 559.902 418.932 560.64C420.901 561.378 422.746 562.239 424.468 563.222C425.452 563.714 426.314 564.083 427.052 564.329C428.035 564.574 429.143 564.821 430.374 565.066L433.696 566.173C434.679 566.665 435.417 566.91 435.91 566.91C436.403 567.156 436.772 567.156 437.018 566.91C437.51 566.665 438.001 566.665 438.494 566.91C438.987 566.91 439.356 567.034 439.601 567.279C440.094 567.279 440.585 567.279 441.078 567.279C442.309 567.525 443.416 567.525 444.4 567.279C445.631 567.034 446.86 566.91 448.091 566.91C450.305 566.665 452.52 566.542 454.734 566.542C457.195 566.296 459.656 565.927 462.116 565.435C466.791 564.697 470.851 562.853 474.297 559.902C477.988 556.706 481.924 554.124 486.108 552.157C487.83 551.174 489.306 550.313 490.537 549.575C491.768 548.592 492.876 547.238 493.859 545.518C494.843 543.55 495.336 541.46 495.336 539.247C495.581 536.789 495.705 534.452 495.705 532.239V525.969C495.459 524.739 495.09 523.632 494.597 522.649C494.352 521.419 494.105 520.191 493.859 518.961C493.614 517.978 493.49 517.117 493.49 516.379C493.736 515.396 493.859 514.411 493.859 513.428C493.614 512.198 492.628 510.723 490.906 509.002C489.923 508.265 488.692 506.913 487.215 504.945C486.723 503.962 486.108 503.47 485.37 503.47C484.877 503.224 484.017 502.855 482.786 502.363C481.803 501.871 480.941 501.256 480.203 500.519C479.464 499.781 478.602 499.167 477.619 498.675L472.082 495.355C467.898 493.387 463.593 491.421 459.164 489.454C456.949 488.716 454.734 488.102 452.52 487.609C450.305 487.117 448.091 486.626 445.876 486.134C443.416 485.642 441.078 485.151 438.863 484.659C436.648 483.921 434.31 483.307 431.85 482.814C430.619 482.569 429.512 482.446 428.528 482.446C427.79 482.2 426.806 482.077 425.575 482.077C424.592 482.322 423.606 482.446 422.623 482.446C421.639 482.2 420.532 482.2 419.301 482.446C418.07 482.446 416.962 482.569 415.979 482.814C414.995 482.814 413.888 482.814 412.657 482.814C411.426 483.06 410.197 483.183 408.966 483.183C407.982 482.938 406.875 482.938 405.644 483.183C404.167 483.676 402.691 484.045 401.215 484.29C399.738 484.29 398.755 483.307 398.262 481.339C398.262 480.109 398.262 479.002 398.262 478.019C398.507 477.037 398.755 475.93 399 474.7C399 473.47 399 472.363 399 471.38C399.245 470.397 399.615 469.413 400.107 468.43ZM399.369 404.62C401.091 404.865 402.691 404.989 404.167 404.989C405.644 404.743 407.244 404.62 408.966 404.62C410.688 404.62 412.288 404.865 413.764 405.358C415.486 405.85 417.21 406.341 418.932 406.833C420.162 407.325 421.392 407.939 422.623 408.677C423.854 409.415 425.083 409.907 426.314 410.152C428.035 410.398 429.512 410.767 430.743 411.259C432.219 411.751 433.696 412.242 435.172 412.734C438.618 413.964 442.061 414.947 445.507 415.685C448.952 416.423 452.52 417.161 456.211 417.898C459.656 418.391 462.978 419.005 466.177 419.742C469.375 420.48 472.697 420.849 476.142 420.849C479.588 420.849 483.032 420.849 486.477 420.849C489.923 420.604 493.367 420.357 496.812 420.111C498.534 420.111 500.134 419.988 501.61 419.742C503.087 419.25 504.687 418.759 506.409 418.267C507.885 417.775 509.362 417.529 510.838 417.529C512.56 417.284 514.16 416.915 515.636 416.423C516.867 415.93 517.975 415.44 518.958 414.947C520.189 414.455 521.418 413.964 522.649 413.472C524.126 412.734 525.602 412.12 527.079 411.628C528.555 410.89 530.031 410.029 531.508 409.046C533.722 407.816 536.061 405.972 538.521 403.513C539.752 402.53 540.859 401.669 541.843 400.931C542.826 399.948 543.934 398.842 545.165 397.612C546.148 396.382 547.01 395.154 547.748 393.923C548.486 392.448 549.348 391.096 550.332 389.866C551.07 388.391 551.932 386.915 552.916 385.44C553.899 383.719 554.638 382.12 555.13 380.645C555.623 379.17 555.869 377.694 555.869 376.219C556.114 374.744 556.483 373.268 556.976 371.793C557.469 369.825 557.959 368.35 558.452 367.367C558.698 366.629 558.821 366.015 558.821 365.523C558.821 364.785 558.945 364.047 559.19 363.31C559.19 361.589 559.436 359.99 559.929 358.515C560.421 356.794 560.667 355.071 560.667 353.351C561.16 349.662 561.036 346.098 560.298 342.654C560.052 340.934 559.805 339.335 559.56 337.859C559.314 336.139 558.945 334.416 558.452 332.696C557.959 330.728 557.469 328.884 556.976 327.163C556.73 325.442 556.238 323.72 555.499 321.999C554.268 319.049 552.423 316.59 549.963 314.622C547.748 312.655 545.288 311.058 542.581 309.827C535.937 306.384 529.417 303.926 523.018 302.451C519.573 301.713 516.129 301.099 512.683 300.606C509.238 300.114 505.794 299.623 502.349 299.131C500.627 298.639 498.903 298.393 497.181 298.393C495.705 298.393 493.983 298.393 492.014 298.393C490.292 298.148 488.568 297.901 486.846 297.656C485.124 297.41 483.401 297.163 481.679 296.918C473.804 296.18 465.808 295.935 457.687 296.18C449.812 296.426 441.94 296.794 434.065 297.287C429.881 297.287 425.699 297.287 421.515 297.287C417.579 297.287 413.519 297.532 409.335 298.025C407.366 298.025 405.398 298.025 403.429 298.025C401.46 297.779 399.493 297.656 397.524 297.656C395.554 297.901 393.587 298.025 391.618 298.025C389.649 298.025 387.681 298.025 385.712 298.025C385.712 300.73 385.467 303.434 384.974 306.139C384.481 308.597 384.36 311.179 384.605 313.885C384.85 316.59 385.098 319.294 385.343 321.999C385.589 324.458 385.958 327.039 386.451 329.745C386.696 330.728 386.82 332.203 386.82 334.171C386.82 334.663 386.82 335.154 386.82 335.646C386.82 336.139 386.943 336.508 387.189 336.753C387.681 337.491 388.665 337.736 390.142 337.491C391.618 336.998 392.725 336.753 393.463 336.753C396.171 336.261 399 335.892 401.953 335.646C404.906 335.401 407.735 335.032 410.442 334.54C413.15 334.047 415.855 333.433 418.562 332.696C421.27 331.958 423.975 331.466 426.683 331.22C429.39 330.975 432.096 330.728 434.803 330.483C437.51 330.237 440.216 329.99 442.923 329.745H451.413C452.643 329.745 453.996 329.621 455.473 329.376C456.949 329.131 458.425 329.131 459.902 329.376C462.609 329.868 465.315 330.114 468.022 330.114C470.73 330.114 473.435 330.359 476.142 330.851C481.31 331.344 486.477 332.45 491.645 334.171C494.105 335.154 496.443 336.015 498.658 336.753C500.872 337.491 503.087 338.474 505.301 339.704C507.023 340.934 508.747 342.286 510.469 343.761C510.962 344.253 511.576 344.991 512.314 345.974C513.298 346.712 513.914 347.573 514.16 348.556C514.405 349.048 514.405 349.539 514.16 350.031C513.914 350.277 513.667 350.645 513.422 351.138C513.176 351.63 513.053 352.121 513.053 352.613C513.053 352.858 512.929 353.227 512.683 353.72C512.191 355.687 511.083 357.9 509.362 360.359C508.131 362.572 506.902 364.661 505.671 366.629C504.44 368.35 502.594 369.825 500.134 371.055C499.15 371.548 498.289 372.162 497.55 372.899C497.058 373.392 496.198 373.882 494.967 374.375C493.49 374.867 492.014 375.481 490.537 376.219C489.306 376.711 487.954 377.202 486.477 377.694L483.155 378.801C482.663 379.046 482.048 379.17 481.31 379.17C480.817 378.925 480.326 378.801 479.833 378.801C478.357 378.556 476.881 378.677 475.404 379.17C474.173 379.415 472.82 379.662 471.344 379.907C468.637 380.153 465.931 380.522 463.224 381.014C460.764 381.259 458.18 381.506 455.473 381.752C452.027 382.244 448.705 382.613 445.507 382.858C442.554 383.103 439.478 383.351 436.279 383.596C434.557 383.841 432.957 384.088 431.481 384.334C430.005 384.334 428.405 384.579 426.683 385.071C423.73 385.809 421.022 386.178 418.562 386.178C415.364 386.178 412.288 386.547 409.335 387.284C408.597 387.284 407.858 387.408 407.12 387.653C406.382 387.653 405.644 387.653 404.906 387.653C404.413 387.653 403.798 387.653 403.06 387.653C402.567 387.408 402.076 387.53 401.584 388.022C400.846 388.76 400.353 390.111 400.107 392.079C400.107 393.8 400.107 395.154 400.107 396.137C399.862 397.612 399.615 399.087 399.369 400.563C399.369 402.038 399.369 403.39 399.369 404.62ZM400.846 448.881C400.846 448.636 400.846 447.651 400.846 445.93C401.091 443.962 401.091 442.118 400.846 440.398C400.846 438.43 400.722 436.709 400.476 435.234C400.231 433.758 399.984 433.021 399.738 433.021C399.738 433.021 399.738 433.758 399.738 435.234C399.738 436.709 399.862 438.43 400.107 440.398C400.353 442.365 400.476 444.21 400.476 445.93C400.722 447.651 400.846 448.636 400.846 448.881Z" fill="white"/>
</g>
</g>
<defs>
<clipPath id="clip0_140_196">
<rect width="884" height="876" fill="white"/>
</clipPath>
</defs>
</svg>
