<svg width="878" height="886" viewBox="0 0 878 886" fill="none" xmlns="http://www.w3.org/2000/svg">
<g clip-path="url(#clip0_140_222)">
<mask id="mask0_140_222" style="mask-type:luminance" maskUnits="userSpaceOnUse" x="0" y="0" width="878" height="886">
<path d="M878 0H0V886H878V0Z" fill="white"/>
</mask>
<g mask="url(#mask0_140_222)">
<path d="M878 0H-3.68945V313.792H878V0Z" fill="#7036CC"/>
<path d="M878 313.792H-3.68945V886H878V313.792Z" fill="#3D1F6D"/>
<path d="M412.586 177.569C411.848 176.535 411.627 175.206 411.922 173.582C412.217 171.958 412.512 170.629 412.807 169.595C412.807 169.3 412.881 169.078 413.029 168.931C413.176 168.635 413.102 168.414 412.807 168.266C412.66 168.119 412.291 168.045 411.7 168.045C411.11 167.749 410.741 167.454 410.594 167.159C410.151 166.42 409.93 165.534 409.93 164.501C410.077 163.319 410.151 162.359 410.151 161.621C410.151 160.883 410.077 160.292 409.93 159.849C409.782 159.258 409.635 158.668 409.487 158.077C409.339 157.486 409.266 156.97 409.266 156.527C409.266 155.936 409.192 155.271 409.044 154.533C409.044 154.09 408.971 153.647 408.823 153.204C408.675 152.761 408.528 152.318 408.38 151.875C408.233 151.284 408.159 150.768 408.159 150.325C408.307 149.734 408.38 149.143 408.38 148.553C408.528 147.224 408.528 145.968 408.38 144.787C408.38 143.606 408.528 142.351 408.823 141.022C409.118 139.693 409.266 138.437 409.266 137.256C409.413 135.927 409.561 134.598 409.708 133.269C409.708 132.531 409.708 131.866 409.708 131.276C409.708 130.685 409.782 130.02 409.93 129.282C409.93 128.544 410.299 127.953 411.036 127.51C411.627 127.362 412.217 127.289 412.807 127.289C413.397 127.289 413.914 127.289 414.357 127.289C415.094 127.141 415.758 127.067 416.349 127.067C417.087 127.067 417.824 126.993 418.562 126.846C421.071 126.55 423.506 126.329 425.867 126.181C428.375 126.033 430.884 125.738 433.392 125.295C435.901 124.852 438.409 124.483 440.918 124.188C443.574 123.892 446.156 123.597 448.665 123.302C449.846 123.154 451.1 123.006 452.428 122.859C453.756 122.711 455.01 122.563 456.191 122.416C457.371 122.268 458.552 122.194 459.732 122.194C461.06 122.194 462.241 121.973 463.274 121.53C464.307 121.087 465.34 120.644 466.373 120.201C467.406 119.758 468.438 119.241 469.471 118.65C471.537 117.321 473.087 115.697 474.12 113.777C474.857 112.743 475.448 111.784 475.89 110.898C476.333 109.864 476.776 108.756 477.218 107.575C477.809 106.541 477.883 105.729 477.44 105.139C477.145 104.696 476.702 104.253 476.112 103.81C475.669 103.367 475.226 102.997 474.784 102.702C473.898 101.964 472.939 101.373 471.906 100.93C470.873 100.339 469.767 99.8227 468.586 99.3797C467.406 98.9367 466.225 98.5675 465.045 98.2722C463.864 97.8292 462.684 97.46 461.503 97.1647C460.323 96.8693 459.142 96.6478 457.961 96.5002C456.781 96.3525 455.6 96.3525 454.42 96.5002C453.239 96.6478 452.059 96.6478 450.878 96.5002C449.698 96.2048 448.517 96.0572 447.337 96.0572H439.59C438.262 96.2048 436.934 96.3525 435.606 96.5002C434.278 96.6478 433.023 96.7955 431.843 96.9432C429.334 97.2385 426.752 97.6815 424.096 98.2722C421.587 98.7152 419.079 99.0843 416.57 99.3797C415.39 99.675 414.135 99.8965 412.807 100.044C411.479 100.192 410.151 100.413 408.823 100.709C408.085 100.856 407.052 101.078 405.724 101.373C404.544 101.521 403.585 101.373 402.847 100.93C401.961 100.487 401.592 99.7488 401.74 98.7152C401.888 97.5338 401.888 96.574 401.74 95.8357C401.592 95.245 401.371 94.802 401.076 94.5067C400.928 94.0637 400.781 93.6207 400.633 93.1777C400.338 91.701 400.191 90.5935 400.191 89.8552C399.6 87.0495 399.527 84.613 399.969 82.5457C399.969 81.955 400.043 81.4382 400.191 80.9952C400.338 80.4045 400.486 79.8138 400.633 79.2232C400.781 79.0755 400.855 78.9278 400.855 78.7802C400.707 78.6325 400.633 78.4848 400.633 78.3372C400.633 78.0418 400.633 77.8203 400.633 77.6727C400.781 77.525 400.855 77.3035 400.855 77.0082C401.002 76.4175 401.002 75.9007 400.855 75.4577C400.707 75.0147 400.633 74.5717 400.633 74.1287C400.928 73.538 401.297 73.3165 401.74 73.4642C402.183 73.4642 402.625 73.4642 403.068 73.4642H410.594C411.774 73.3165 412.955 73.3165 414.135 73.4642C415.316 73.4642 416.496 73.4642 417.677 73.4642C418.267 73.3165 418.784 73.3165 419.226 73.4642C419.816 73.4642 420.48 73.3903 421.218 73.2427C421.809 73.2427 422.325 73.1688 422.768 73.0212C423.358 72.8735 423.948 72.7258 424.538 72.5782C425.867 72.4305 427.195 72.4305 428.523 72.5782C429.851 72.7258 431.179 72.7997 432.507 72.7997C433.687 72.652 434.942 72.5782 436.27 72.5782C437.598 72.4305 438.926 72.3567 440.254 72.3567C442.762 72.3567 445.271 72.2828 447.78 72.1352C450.436 71.9875 453.018 71.9875 455.527 72.1352C456.707 72.1352 457.888 72.2828 459.068 72.5782C460.249 72.7258 461.429 72.7997 462.61 72.7997C464.085 72.7997 465.192 72.8735 465.93 73.0212C466.668 73.1688 467.258 73.3165 467.701 73.4642C468.291 73.6118 468.955 73.7595 469.693 73.9072C472.201 74.3502 474.71 74.6455 477.218 74.7932C479.875 74.9408 482.457 75.2362 484.966 75.6792C486.146 75.9745 487.253 76.3437 488.286 76.7867C489.466 77.082 490.647 77.4512 491.827 77.8942C494.188 78.6325 496.328 79.3708 498.246 80.1092C498.689 80.4045 499.132 80.626 499.574 80.7737C500.017 80.9213 500.386 81.1428 500.681 81.4382C501.124 81.7335 501.493 82.1027 501.788 82.5457C502.23 82.841 502.673 83.1363 503.116 83.4317C503.706 83.727 504.223 84.0223 504.665 84.3177C505.108 84.4653 505.477 84.7607 505.772 85.2037C506.952 86.385 507.69 87.3448 507.985 88.0832C508.428 89.1168 508.723 90.2243 508.871 91.4057C509.166 92.4393 509.387 93.473 509.535 94.5067C509.682 95.245 509.83 95.9095 509.977 96.5002C510.125 97.0908 510.273 97.6815 510.42 98.2722C510.715 98.8628 510.937 99.3797 511.084 99.8227C511.379 100.266 511.601 100.782 511.748 101.373V104.474C511.601 105.803 511.601 107.058 511.748 108.24C511.748 108.978 511.674 109.642 511.527 110.233C511.527 110.676 511.453 111.193 511.306 111.784C511.158 112.522 511.01 113.26 510.863 113.999C510.863 114.737 510.789 115.475 510.641 116.214C510.346 117.395 510.051 118.576 509.756 119.758C509.461 120.939 509.166 122.12 508.871 123.302C508.723 123.892 508.576 124.483 508.428 125.074C508.428 125.664 508.28 126.255 507.985 126.846C507.69 127.436 507.321 128.027 506.879 128.618C506.436 129.061 506.067 129.577 505.772 130.168C504.444 132.235 503.116 134.229 501.788 136.149C500.607 137.921 498.984 139.471 496.918 140.8C495.885 141.538 494.926 142.277 494.041 143.015C493.155 143.606 492.122 144.196 490.942 144.787C489.761 145.082 488.95 145.452 488.507 145.895C487.917 146.19 487.474 146.411 487.179 146.559C486.884 146.707 486.441 146.928 485.851 147.224C483.342 147.962 480.834 148.553 478.325 148.996C475.964 149.439 473.529 149.882 471.021 150.325C468.512 150.768 465.93 151.063 463.274 151.211C460.765 151.358 458.257 151.211 455.748 150.768C453.239 150.472 450.731 150.103 448.222 149.66C445.714 149.069 443.205 148.479 440.697 147.888C438.188 147.298 435.679 146.707 433.171 146.116C430.81 145.526 428.375 144.787 425.867 143.901C423.358 142.72 421.071 141.908 419.005 141.465C417.529 141.169 416.349 141.022 415.463 141.022C415.168 141.022 414.652 141.022 413.914 141.022C413.324 140.874 412.881 140.948 412.586 141.243C412.291 141.538 412.217 141.981 412.365 142.572C412.512 143.163 412.66 143.606 412.807 143.901C412.955 144.492 413.029 145.082 413.029 145.673C413.176 146.264 413.324 146.854 413.471 147.445C413.766 148.036 413.988 148.626 414.135 149.217C414.283 149.66 414.43 150.251 414.578 150.989C414.726 151.58 414.799 152.17 414.799 152.761C414.799 153.204 414.947 153.721 415.242 154.312C415.537 155.493 415.832 156.748 416.127 158.077C416.423 159.258 416.57 160.514 416.57 161.843C416.57 163.172 416.496 164.205 416.349 164.944C416.349 166.125 416.718 166.716 417.455 166.716C418.636 166.863 419.89 166.937 421.218 166.937C422.546 166.789 423.801 166.642 424.981 166.494C426.162 166.494 427.268 166.494 428.301 166.494C429.482 166.494 430.662 166.42 431.843 166.273C432.433 166.273 432.95 166.346 433.392 166.494C433.983 166.494 434.573 166.494 435.163 166.494C435.901 166.494 436.491 166.42 436.934 166.273C437.376 166.125 437.967 166.125 438.705 166.273C441.066 166.716 443.574 166.937 446.23 166.937C446.82 167.085 447.337 167.085 447.78 166.937C448.222 166.789 448.739 166.642 449.329 166.494C450.067 166.494 450.657 166.568 451.1 166.716C451.69 166.863 452.354 167.011 453.092 167.159C454.272 167.306 455.453 167.38 456.633 167.38C457.961 167.38 459.216 167.528 460.396 167.823C462.757 167.971 465.118 168.561 467.479 169.595C468.07 169.89 468.586 170.186 469.029 170.481C469.471 170.629 469.988 170.776 470.578 170.924C471.021 171.072 471.39 171.219 471.685 171.367C471.98 171.367 472.201 171.662 472.349 172.253C472.939 171.958 473.382 171.884 473.677 172.032C473.825 172.179 473.898 172.327 473.898 172.475C474.046 172.622 474.193 172.77 474.341 172.918C474.636 173.065 474.857 173.139 475.005 173.139C475.153 173.139 475.374 173.213 475.669 173.361C475.964 173.508 476.112 173.656 476.112 173.804C476.259 173.804 476.481 173.877 476.776 174.025C477.071 174.32 477.366 174.616 477.661 174.911C477.956 175.206 478.251 175.502 478.547 175.797C478.842 175.945 479.063 176.093 479.211 176.24C479.358 176.388 479.579 176.535 479.875 176.683C480.465 176.978 480.612 177.348 480.317 177.791C480.612 178.086 480.908 178.234 481.203 178.234C481.498 178.086 481.793 178.16 482.088 178.455C482.383 178.75 482.678 179.12 482.973 179.563C483.416 180.006 483.785 180.375 484.08 180.67C484.818 181.408 485.408 182.221 485.851 183.107C486.294 183.845 486.81 184.657 487.4 185.543C488.286 187.167 489.319 188.718 490.499 190.195C491.68 191.524 492.639 193 493.377 194.625C493.672 195.363 493.819 195.954 493.819 196.397C493.819 196.84 494.041 197.356 494.483 197.947C494.926 198.095 495.147 198.242 495.147 198.39L495.811 199.719C496.107 200.014 496.328 200.384 496.475 200.827C496.771 201.122 497.066 201.417 497.361 201.713C497.804 202.599 498.025 203.558 498.025 204.592C498.172 205.478 498.394 206.364 498.689 207.25C498.836 207.545 498.984 207.915 499.132 208.358C499.279 208.653 499.353 209.022 499.353 209.465C499.353 210.056 499.279 210.573 499.132 211.016C499.132 211.459 499.132 212.049 499.132 212.788C499.279 213.378 499.279 214.117 499.132 215.003C499.132 215.889 499.279 216.627 499.574 217.218C499.869 217.513 500.017 217.587 500.017 217.439C500.017 217.291 500.091 217.439 500.238 217.882V219.433C500.238 220.762 500.091 221.721 499.796 222.312C499.205 224.379 498.615 226.447 498.025 228.514C497.435 230.434 496.844 232.427 496.254 234.495C496.107 234.938 496.033 235.454 496.033 236.045C496.033 236.488 495.959 236.931 495.811 237.374C495.664 237.817 495.516 238.186 495.369 238.482C495.221 238.777 495.147 239.146 495.147 239.589C495 240.77 494.705 241.73 494.262 242.469C493.819 243.207 493.303 244.093 492.713 245.127C492.122 245.865 491.532 246.677 490.942 247.563C490.352 248.449 489.761 249.261 489.171 250C488.433 250.738 487.769 251.476 487.179 252.215C486.589 253.101 485.851 253.765 484.966 254.208C484.08 254.651 483.121 254.946 482.088 255.094C481.055 255.389 480.096 255.685 479.211 255.98C478.03 256.275 476.776 256.571 475.448 256.866C474.267 257.161 473.087 257.457 471.906 257.752C467.479 258.933 463.052 259.598 458.626 259.746C454.051 260.041 449.403 260.262 444.681 260.41C440.106 260.558 435.532 260.41 430.957 259.967C428.596 259.672 426.309 259.303 424.096 258.86C421.882 258.417 419.595 258.047 417.234 257.752C415.021 257.457 412.807 257.088 410.594 256.645C408.528 256.349 406.388 256.054 404.175 255.759C403.437 255.611 402.552 255.537 401.519 255.537C400.633 255.537 399.969 255.242 399.527 254.651C398.936 253.913 398.715 253.027 398.863 251.993C399.158 250.959 399.158 250 398.863 249.114C398.567 248.08 398.494 247.12 398.641 246.234C398.789 245.2 398.863 244.167 398.863 243.133C398.863 242.099 398.789 241.066 398.641 240.032C398.641 238.998 398.715 238.039 398.863 237.153C399.01 236.414 399.084 235.602 399.084 234.716C398.936 234.273 398.936 233.83 399.084 233.387C399.231 232.944 399.305 232.501 399.305 232.058C399.453 229.843 399.453 227.628 399.305 225.413C399.305 223.936 399.527 222.386 399.969 220.762C400.264 219.728 400.264 218.768 399.969 217.882C399.822 216.996 399.895 216.036 400.191 215.003C400.486 213.969 400.707 213.083 400.855 212.345C401.15 211.459 401.297 210.499 401.297 209.465C401.297 209.17 401.297 208.801 401.297 208.358C401.297 207.767 401.445 207.324 401.74 207.029C402.035 206.733 402.33 206.659 402.625 206.807C403.068 206.955 403.363 207.176 403.511 207.472C403.806 207.767 403.88 208.21 403.732 208.801C403.585 209.391 403.511 209.908 403.511 210.351C403.363 210.942 403.289 211.532 403.289 212.123C403.289 212.566 403.216 213.083 403.068 213.674C402.921 214.855 402.773 215.962 402.625 216.996C402.625 218.03 402.625 219.137 402.625 220.319C402.625 221.352 402.552 222.386 402.404 223.42C402.404 224.306 402.404 225.265 402.404 226.299C402.256 227.48 402.183 228.662 402.183 229.843C402.183 231.024 402.109 232.206 401.961 233.387C401.814 235.602 401.666 237.891 401.519 240.254C401.519 242.469 401.592 244.684 401.74 246.899C401.74 247.489 401.74 248.006 401.74 248.449C401.888 249.04 401.961 249.704 401.961 250.443C401.961 250.738 401.961 251.181 401.961 251.772C401.961 252.51 402.109 253.027 402.404 253.322C402.699 253.617 403.363 253.765 404.396 253.765C405.134 253.913 405.724 253.987 406.167 253.987C406.757 253.987 407.421 254.06 408.159 254.208C409.192 254.503 410.151 254.725 411.036 254.873C412.069 255.168 413.102 255.463 414.135 255.759C415.316 256.054 416.423 256.202 417.455 256.202C418.488 256.202 419.595 256.349 420.776 256.645C423.137 257.088 425.424 257.457 427.637 257.752C429.851 258.195 432.138 258.564 434.499 258.86C436.565 259.155 438.705 259.155 440.918 258.86C442.098 258.712 443.279 258.638 444.459 258.638C445.788 258.786 447.116 258.86 448.444 258.86C449.477 258.86 450.51 258.786 451.543 258.638C452.575 258.638 453.682 258.638 454.863 258.638C456.043 258.638 457.15 258.638 458.183 258.638C459.216 258.638 460.323 258.564 461.503 258.417C462.536 258.269 463.495 257.974 464.38 257.531C465.413 257.088 466.373 256.866 467.258 256.866C467.701 256.866 468.07 256.94 468.365 257.088C468.807 257.235 469.176 257.309 469.471 257.309C470.504 257.161 471.537 256.792 472.57 256.202C473.013 256.054 473.382 255.906 473.677 255.759C474.12 255.759 474.562 255.759 475.005 255.759C475.3 255.759 475.595 255.685 475.89 255.537C475.89 255.537 476.112 255.316 476.554 254.873C476.85 254.725 477.218 254.725 477.661 254.873C478.251 255.02 478.694 255.094 478.989 255.094C479.432 254.946 479.875 254.799 480.317 254.651C480.908 254.651 481.424 254.503 481.867 254.208C482.752 253.765 483.49 253.174 484.08 252.436C484.67 251.698 485.334 250.959 486.072 250.221C486.81 249.335 487.474 248.449 488.064 247.563C488.802 246.825 489.54 246.013 490.278 245.127C490.868 244.093 491.458 242.764 492.049 241.14C492.344 240.697 492.491 240.254 492.491 239.811C492.491 239.368 492.565 238.925 492.713 238.482C492.86 237.891 493.008 237.374 493.155 236.931C493.45 236.488 493.746 235.971 494.041 235.381C494.188 234.938 494.262 234.568 494.262 234.273C494.262 233.83 494.336 233.461 494.483 233.166C494.483 232.575 494.557 232.058 494.705 231.615C494.852 231.172 495.074 230.655 495.369 230.065C495.664 229.031 495.885 228.071 496.033 227.185C496.328 226.151 496.623 225.044 496.918 223.863C497.361 221.795 497.508 219.654 497.361 217.439C497.361 215.224 497.213 213.083 496.918 211.016C496.771 210.13 496.623 209.096 496.475 207.915C496.328 206.733 496.107 205.7 495.811 204.814C495.516 204.371 495.221 204.001 494.926 203.706C494.778 203.263 494.557 202.82 494.262 202.377C493.672 200.9 493.229 199.867 492.934 199.276C490.868 194.994 488.581 190.933 486.072 187.094C485.63 186.355 485.113 185.543 484.523 184.657C484.08 183.771 483.49 182.959 482.752 182.221C482.014 181.335 481.203 180.522 480.317 179.784C479.432 179.046 478.62 178.234 477.882 177.348C477.145 176.757 476.407 176.166 475.669 175.576C475.079 174.837 474.341 174.32 473.456 174.025C472.57 173.73 471.685 173.361 470.799 172.918C469.914 172.327 469.029 171.884 468.143 171.589C466.077 170.703 463.938 170.112 461.724 169.817C459.511 169.374 457.371 169.004 455.305 168.709C453.239 168.414 451.1 168.266 448.886 168.266C446.673 168.266 444.459 168.118 442.246 167.823C441.066 167.823 439.959 167.823 438.926 167.823C437.893 167.675 436.86 167.602 435.827 167.602C434.647 167.749 433.466 167.823 432.286 167.823C431.105 167.823 429.925 167.823 428.744 167.823C426.531 167.971 424.317 168.045 422.104 168.045C420.038 167.897 417.898 167.971 415.685 168.266C415.98 169.005 416.054 169.669 415.906 170.26C415.906 170.85 415.832 171.515 415.685 172.253C415.39 172.991 415.242 173.73 415.242 174.468C415.242 175.059 415.168 175.723 415.021 176.462C415.021 177.791 415.021 179.193 415.021 180.67C415.021 182.147 414.652 183.476 413.914 184.657C414.652 184.657 415.758 184.51 417.234 184.214C417.972 184.067 418.636 183.993 419.226 183.993C419.964 183.993 420.702 183.993 421.44 183.993C422.915 183.993 424.391 183.993 425.867 183.993C427.342 183.845 428.818 183.919 430.293 184.214C431.769 184.362 433.171 184.657 434.499 185.1C435.827 185.395 437.229 185.765 438.705 186.208C440.033 186.503 441.361 186.798 442.689 187.094C444.017 187.241 445.345 187.537 446.673 187.98C452.133 189.309 457.371 191.597 462.388 194.846C463.569 195.584 464.676 196.323 465.709 197.061C466.741 197.799 467.774 198.685 468.807 199.719C469.693 200.753 470.283 201.86 470.578 203.042C470.873 204.075 471.168 205.257 471.464 206.586C472.054 209.096 472.349 211.902 472.349 215.003C472.349 216.479 472.349 217.882 472.349 219.211C472.349 220.392 472.054 221.648 471.464 222.977C470.726 225.044 469.471 226.668 467.701 227.85C466.668 228.588 465.561 229.252 464.38 229.843C463.2 230.434 462.019 231.098 460.839 231.837C460.396 232.132 460.027 232.501 459.732 232.944C459.437 233.387 458.994 233.756 458.404 234.052C457.814 234.347 457.297 234.716 456.855 235.159C456.412 235.454 455.896 235.75 455.305 236.045C453.092 237.226 450.362 237.965 447.116 238.26C446.378 238.408 445.714 238.482 445.124 238.482C444.533 238.482 443.869 238.482 443.131 238.482C442.394 238.629 441.656 238.777 440.918 238.925C440.18 239.072 439.442 239.146 438.705 239.146C437.819 239.146 436.639 238.851 435.163 238.26C434.425 237.965 433.614 237.817 432.728 237.817C431.99 237.669 431.253 237.522 430.515 237.374C429.777 237.226 429.113 237.153 428.523 237.153C427.932 237.005 427.268 236.783 426.531 236.488C425.793 236.193 425.129 235.897 424.538 235.602C424.096 235.307 423.579 235.011 422.989 234.716C421.809 233.978 420.554 233.535 419.226 233.387C417.898 233.092 416.57 232.796 415.242 232.501C414.504 232.353 413.766 232.28 413.029 232.28C412.438 232.132 411.774 231.984 411.036 231.837C410.299 231.541 409.561 231.467 408.823 231.615C408.233 231.615 407.569 231.541 406.831 231.394C406.241 231.098 405.724 230.951 405.282 230.951C404.986 230.803 404.765 230.803 404.617 230.951C404.47 230.951 404.249 230.877 403.953 230.729C403.511 230.581 403.289 230.212 403.289 229.622C403.289 229.326 403.732 229.179 404.617 229.179C405.946 229.031 407.274 229.179 408.602 229.622C409.93 229.917 411.332 230.065 412.807 230.065C413.693 230.065 414.873 230.36 416.349 230.951C417.087 231.246 417.751 231.467 418.341 231.615C419.079 231.763 419.816 231.91 420.554 232.058C421.735 232.206 422.842 232.501 423.874 232.944C425.055 233.387 426.162 233.904 427.195 234.495C427.785 234.79 428.301 235.011 428.744 235.159C429.334 235.307 429.998 235.454 430.736 235.602L432.728 236.267C433.318 236.562 433.761 236.71 434.056 236.71C434.351 236.857 434.573 236.857 434.72 236.71C435.015 236.562 435.311 236.562 435.606 236.71C435.901 236.71 436.122 236.783 436.27 236.931C436.565 236.931 436.86 236.931 437.155 236.931C437.893 237.079 438.557 237.079 439.147 236.931C439.885 236.783 440.623 236.71 441.361 236.71C442.689 236.562 444.017 236.488 445.345 236.488C446.82 236.34 448.296 236.119 449.772 235.824C452.575 235.381 455.01 234.273 457.076 232.501C459.29 230.581 461.651 229.031 464.159 227.85C465.192 227.259 466.077 226.742 466.815 226.299C467.553 225.708 468.217 224.896 468.807 223.863C469.398 222.681 469.693 221.426 469.693 220.097C469.84 218.62 469.914 217.218 469.914 215.889V212.123C469.767 211.385 469.545 210.72 469.25 210.13C469.102 209.391 468.955 208.653 468.807 207.915C468.66 207.324 468.586 206.807 468.586 206.364C468.734 205.773 468.807 205.183 468.807 204.592C468.66 203.854 468.07 202.968 467.037 201.934C466.446 201.491 465.709 200.679 464.823 199.498C464.528 198.907 464.159 198.612 463.716 198.612C463.421 198.464 462.905 198.242 462.167 197.947C461.577 197.652 461.06 197.283 460.618 196.84C460.175 196.397 459.658 196.027 459.068 195.732L455.748 193.739C453.239 192.557 450.657 191.376 448.001 190.195C446.673 189.752 445.345 189.382 444.017 189.087C442.689 188.792 441.361 188.496 440.033 188.201C438.557 187.906 437.155 187.611 435.827 187.315C434.499 186.872 433.097 186.503 431.622 186.208C430.884 186.06 430.22 185.986 429.629 185.986C429.187 185.838 428.596 185.765 427.859 185.765C427.268 185.912 426.678 185.986 426.088 185.986C425.498 185.838 424.834 185.838 424.096 185.986C423.358 185.986 422.694 186.06 422.104 186.208C421.513 186.208 420.849 186.208 420.112 186.208C419.374 186.355 418.636 186.429 417.898 186.429C417.308 186.281 416.644 186.281 415.906 186.429C415.021 186.724 414.135 186.946 413.25 187.094C412.365 187.094 411.774 186.503 411.479 185.322C411.479 184.583 411.479 183.919 411.479 183.328C411.627 182.737 411.774 182.073 411.922 181.335C411.922 180.596 411.922 179.932 411.922 179.341C412.069 178.751 412.291 178.16 412.586 177.569ZM412.143 139.25C413.176 139.397 414.135 139.471 415.021 139.471C415.906 139.323 416.865 139.25 417.898 139.25C418.931 139.25 419.89 139.397 420.776 139.693C421.809 139.988 422.842 140.283 423.874 140.579C424.612 140.874 425.35 141.243 426.088 141.686C426.826 142.129 427.564 142.424 428.301 142.572C429.334 142.72 430.22 142.941 430.957 143.237C431.843 143.532 432.728 143.827 433.614 144.123C435.679 144.861 437.745 145.452 439.811 145.895C441.877 146.338 444.017 146.781 446.23 147.224C448.296 147.519 450.288 147.888 452.207 148.331C454.125 148.774 456.117 148.996 458.183 148.996C460.249 148.996 462.315 148.996 464.38 148.996C466.446 148.848 468.512 148.7 470.578 148.553C471.611 148.553 472.57 148.479 473.456 148.331C474.341 148.036 475.3 147.74 476.333 147.445C477.218 147.15 478.104 147.002 478.989 147.002C480.022 146.854 480.981 146.633 481.867 146.338C482.605 146.042 483.269 145.747 483.859 145.452C484.597 145.156 485.334 144.861 486.072 144.566C486.958 144.123 487.843 143.753 488.728 143.458C489.614 143.015 490.499 142.498 491.385 141.908C492.713 141.169 494.114 140.062 495.59 138.585C496.328 137.994 496.992 137.478 497.582 137.035C498.172 136.444 498.836 135.78 499.574 135.041C500.165 134.303 500.681 133.564 501.124 132.826C501.566 131.94 502.083 131.128 502.673 130.39C503.116 129.504 503.632 128.618 504.222 127.732C504.813 126.698 505.255 125.738 505.551 124.852C505.846 123.966 505.993 123.08 505.993 122.194C506.141 121.308 506.362 120.422 506.657 119.536C506.952 118.355 507.248 117.469 507.543 116.878C507.69 116.435 507.764 116.066 507.764 115.771C507.764 115.328 507.838 114.885 507.985 114.442C507.985 113.408 508.133 112.448 508.428 111.562C508.723 110.528 508.871 109.495 508.871 108.461C509.166 106.246 509.092 104.105 508.649 102.038C508.502 101.004 508.354 100.044 508.207 99.1582C508.059 98.1245 507.838 97.0908 507.543 96.0572C507.248 94.8758 506.952 93.7683 506.657 92.7347C506.51 91.701 506.215 90.6673 505.772 89.6337C505.034 87.8617 503.927 86.385 502.452 85.2037C501.124 84.0223 499.648 83.0625 498.025 82.3242C494.041 80.2568 490.13 78.7802 486.294 77.8942C484.228 77.4512 482.162 77.082 480.096 76.7867C478.03 76.4913 475.964 76.196 473.898 75.9007C472.865 75.6053 471.832 75.4577 470.799 75.4577C469.914 75.4577 468.881 75.4577 467.701 75.4577C466.668 75.31 465.635 75.1623 464.602 75.0147C463.569 74.867 462.536 74.7193 461.503 74.5717C456.781 74.1287 451.985 73.981 447.116 74.1287C442.394 74.2763 437.672 74.4978 432.95 74.7932C430.441 74.7932 427.932 74.7932 425.424 74.7932C423.063 74.7932 420.628 74.9408 418.119 75.2362C416.939 75.2362 415.758 75.2362 414.578 75.2362C413.397 75.0885 412.217 75.0147 411.036 75.0147C409.856 75.1623 408.675 75.2362 407.495 75.2362C406.314 75.2362 405.134 75.2362 403.953 75.2362C403.953 76.8605 403.806 78.4848 403.511 80.1092C403.216 81.5858 403.142 83.1363 403.289 84.7607C403.437 86.385 403.585 88.0093 403.732 89.6337C403.88 91.1103 404.101 92.6608 404.396 94.2852C404.544 94.8758 404.617 95.7618 404.617 96.9432C404.617 97.2385 404.617 97.5338 404.617 97.8292C404.617 98.1245 404.691 98.346 404.839 98.4937C405.134 98.9367 405.724 99.0843 406.61 98.9367C407.495 98.6413 408.159 98.4937 408.602 98.4937C410.225 98.1983 411.922 97.9768 413.693 97.8292C415.463 97.6815 417.16 97.46 418.784 97.1647C420.407 96.8693 422.03 96.5002 423.653 96.0572C425.276 95.6142 426.899 95.3188 428.523 95.1712C430.146 95.0235 431.769 94.8758 433.392 94.7282C435.015 94.5805 436.639 94.4328 438.262 94.2852H443.353C444.091 94.2852 444.902 94.2113 445.788 94.0637C446.673 93.916 447.558 93.916 448.444 94.0637C450.067 94.359 451.69 94.5067 453.313 94.5067C454.936 94.5067 456.56 94.6543 458.183 94.9497C461.282 95.245 464.38 95.9095 467.479 96.9432C468.955 97.5338 470.357 98.0507 471.685 98.4937C473.013 98.9367 474.341 99.5273 475.669 100.266C476.702 101.004 477.735 101.816 478.768 102.702C479.063 102.997 479.432 103.44 479.875 104.031C480.465 104.474 480.834 104.991 480.981 105.582C481.129 105.877 481.129 106.172 480.981 106.468C480.834 106.615 480.686 106.837 480.539 107.132C480.391 107.427 480.317 107.723 480.317 108.018C480.317 108.166 480.244 108.387 480.096 108.683C479.801 109.864 479.137 111.193 478.104 112.67C477.366 113.999 476.628 115.254 475.89 116.435C475.153 117.469 474.046 118.355 472.57 119.093C471.98 119.388 471.464 119.758 471.021 120.201C470.726 120.496 470.209 120.791 469.471 121.087C468.586 121.382 467.701 121.751 466.815 122.194C466.077 122.489 465.266 122.785 464.38 123.08L462.388 123.745C462.093 123.892 461.724 123.966 461.282 123.966C460.987 123.818 460.691 123.745 460.396 123.745C459.511 123.597 458.626 123.671 457.74 123.966C457.002 124.114 456.191 124.261 455.305 124.409C453.682 124.557 452.059 124.778 450.436 125.074C448.96 125.221 447.411 125.369 445.788 125.517C443.722 125.812 441.73 126.033 439.811 126.181C438.04 126.329 436.196 126.476 434.278 126.624C433.245 126.772 432.286 126.919 431.4 127.067C430.515 127.067 429.556 127.215 428.523 127.51C426.752 127.953 425.129 128.175 423.653 128.175C421.735 128.175 419.89 128.396 418.119 128.839C417.677 128.839 417.234 128.913 416.791 129.061C416.349 129.061 415.906 129.061 415.463 129.061C415.168 129.061 414.799 129.061 414.357 129.061C414.062 128.913 413.766 128.987 413.471 129.282C413.029 129.725 412.733 130.537 412.586 131.719C412.586 132.752 412.586 133.564 412.586 134.155C412.438 135.041 412.291 135.927 412.143 136.813C412.143 137.699 412.143 138.511 412.143 139.25ZM413.029 165.83C413.029 165.682 413.029 165.091 413.029 164.058C413.176 162.876 413.176 161.769 413.029 160.735C413.029 159.554 412.955 158.52 412.807 157.634C412.66 156.748 412.512 156.305 412.365 156.305C412.365 156.305 412.365 156.748 412.365 157.634C412.365 158.52 412.438 159.554 412.586 160.735C412.733 161.916 412.807 163.024 412.807 164.058C412.955 165.091 413.029 165.682 413.029 165.83Z" fill="white"/>
<path d="M430.441 626.329C430.441 625.147 430.243 623.768 429.851 622.194C429.653 619.438 429.458 616.68 429.26 613.925C429.063 611.169 428.867 608.411 428.67 605.655C428.277 602.309 427.982 599.158 427.785 596.205C427.785 593.054 427.687 589.905 427.49 586.754C427.292 585.179 427.097 583.505 426.899 581.733C426.899 579.961 426.702 578.287 426.309 576.713C426.112 575.138 425.916 573.562 425.719 571.987C425.521 570.413 425.226 568.836 424.833 567.262C424.636 566.278 424.441 565.194 424.243 564.013C424.243 562.832 424.046 561.748 423.653 560.764C423.26 558.599 422.865 556.532 422.472 554.563C422.275 552.397 421.98 550.23 421.587 548.065C421.39 547.672 421.292 547.377 421.292 547.179C421.489 546.982 421.587 546.686 421.587 546.293C421.587 545.702 421.489 545.112 421.292 544.521C421.292 543.931 421.292 543.242 421.292 542.454C421.292 542.256 421.194 542.159 420.997 542.159C420.997 541.961 420.997 541.765 420.997 541.568C420.997 539.993 420.899 538.615 420.702 537.433C420.702 536.054 420.702 534.578 420.702 533.003V520.009V515.874C420.702 514.299 420.604 512.823 420.407 511.444C420.407 509.869 420.309 508.293 420.111 506.718C420.111 504.553 419.423 502.191 418.046 499.63C417.653 501.6 417.258 503.47 416.865 505.242C416.472 506.816 416.373 508.491 416.57 510.263V510.853C416.177 512.035 415.782 513.216 415.389 514.397C415.192 515.578 414.897 516.858 414.504 518.237C414.307 519.22 414.111 520.106 413.914 520.895C413.716 521.683 413.521 522.569 413.324 523.553C413.126 524.931 412.931 526.308 412.733 527.687C412.536 529.066 412.241 530.443 411.848 531.822C411.848 532.806 411.848 533.791 411.848 534.775C411.848 535.759 411.75 536.745 411.553 537.729C411.16 539.107 410.865 540.484 410.667 541.863C410.667 543.044 410.47 544.324 410.077 545.703C409.684 547.277 409.389 548.951 409.192 550.723C409.192 552.495 408.994 554.169 408.602 555.744L407.716 559.288C407.323 561.453 406.831 563.52 406.241 565.49C405.848 567.459 405.453 569.427 405.06 571.396C404.863 572.971 404.667 574.448 404.47 575.826C404.47 577.008 404.372 578.387 404.175 579.961L403.289 585.277C402.896 586.852 402.699 588.328 402.699 589.707C402.699 591.086 402.502 592.463 402.109 593.842C401.911 594.826 401.616 595.712 401.223 596.5C401.026 597.288 400.83 598.174 400.633 599.158C400.043 601.127 399.453 602.997 398.862 604.769C398.469 606.541 398.075 608.313 397.682 610.085C397.092 612.25 396.009 614.713 394.435 617.468C393.845 618.452 393.55 619.143 393.55 619.536C393.55 619.733 393.845 620.324 394.435 621.308C393.845 621.701 392.862 621.801 391.484 621.603C390.304 621.21 389.713 620.717 389.713 620.126C389.516 619.733 389.616 619.043 390.009 618.059C390.401 617.271 390.599 616.68 390.599 616.287C391.189 614.908 391.682 613.629 392.074 612.448C392.665 611.069 393.157 609.692 393.55 608.313C393.943 607.132 394.338 605.951 394.731 604.769C395.321 603.39 395.813 602.013 396.206 600.634C396.599 599.256 396.894 597.879 397.092 596.5C397.289 595.121 397.584 593.644 397.977 592.07C398.174 591.479 398.272 590.888 398.272 590.298C398.272 589.51 398.37 588.821 398.567 588.23V587.345C398.96 586.361 399.255 585.475 399.453 584.687C399.65 583.703 399.945 582.717 400.338 581.733C400.338 580.945 400.535 579.961 400.928 578.78C400.928 578.189 400.83 577.599 400.633 577.008C400.633 576.417 400.731 575.924 400.928 575.531C401.321 573.759 401.518 571.987 401.518 570.215C401.518 568.443 401.616 566.671 401.814 564.899C401.814 564.111 402.011 563.325 402.404 562.537C402.797 561.748 403.092 560.962 403.289 560.174C403.682 558.993 403.88 558.107 403.88 557.516C404.077 556.532 404.272 555.646 404.47 554.858C404.667 554.07 404.863 553.184 405.06 552.2C405.257 551.216 405.355 550.23 405.355 549.246C405.355 548.263 405.453 547.277 405.65 546.293L406.536 541.863C406.733 541.47 406.831 540.682 406.831 539.5C407.028 538.91 407.028 538.319 406.831 537.729C406.633 536.94 406.929 536.35 407.716 535.956C407.716 535.956 407.716 535.563 407.716 534.775C407.323 533.201 407.224 531.724 407.421 530.345C407.814 528.966 408.306 527.589 408.897 526.21C409.094 525.62 409.192 525.127 409.192 524.734C409.389 524.143 409.585 523.553 409.782 522.962C409.979 521.387 410.175 519.811 410.372 518.237C410.57 516.662 410.765 515.086 410.963 513.511L411.848 509.081C412.241 507.702 412.536 506.423 412.733 505.242C413.126 503.863 413.521 502.584 413.914 501.403L414.799 497.859L415.685 492.542C415.882 491.361 416.668 490.771 418.046 490.771C420.209 491.164 421.587 492.345 422.177 494.314C422.57 496.284 422.965 498.154 423.358 499.926C423.948 501.698 424.341 503.568 424.538 505.537C424.931 508.293 425.326 511.148 425.719 514.102C426.112 516.858 426.112 519.713 425.719 522.667C425.521 523.848 425.521 525.029 425.719 526.21C425.916 527.392 426.014 528.573 426.014 529.755V536.842C426.211 539.008 426.309 541.075 426.309 543.045C426.506 544.817 426.702 546.786 426.899 548.951C427.097 550.723 427.292 552.495 427.49 554.267C427.687 556.039 427.982 557.811 428.375 559.583C428.572 561.158 428.768 562.634 428.965 564.013C429.358 565.194 429.753 566.573 430.146 568.148C430.539 570.708 430.834 573.168 431.031 575.531C431.228 577.894 431.524 580.354 431.916 582.914C432.114 584.096 432.212 585.277 432.212 586.459C432.409 587.64 432.704 588.723 433.097 589.707V591.479V599.749C433.097 600.732 433.097 601.816 433.097 602.997C433.294 604.178 433.392 605.262 433.392 606.246C433.392 607.82 433.589 609.397 433.982 610.971C434.375 612.546 434.375 614.122 433.982 615.697C433.785 616.68 433.785 617.764 433.982 618.945C434.375 620.127 434.67 621.21 434.868 622.194C435.065 622.784 435.163 623.573 435.163 624.556C435.163 626.722 436.246 627.805 438.409 627.805C439.197 627.608 440.377 627.51 441.951 627.51C443.524 627.707 445.197 627.805 446.968 627.805C448.739 627.805 450.412 627.903 451.985 628.101C452.773 628.101 453.461 628.198 454.051 628.396C454.839 628.396 455.624 628.396 456.412 628.396H458.478C458.478 627.215 458.478 626.131 458.478 625.147C458.675 623.966 458.773 622.882 458.773 621.899C459.166 620.324 459.363 618.847 459.363 617.468C459.561 616.09 459.756 614.613 459.953 613.038V611.562C460.151 610.971 460.249 610.478 460.249 610.085C460.249 609.494 460.346 608.904 460.544 608.313C460.741 607.92 460.839 607.722 460.839 607.722C460.641 605.95 460.741 604.178 461.134 602.406C461.724 600.634 462.117 598.96 462.314 597.386C462.707 595.221 463.102 593.054 463.495 590.888C464.085 588.723 464.578 586.556 464.971 584.391C465.168 583.21 465.363 582.126 465.561 581.142C465.954 579.961 466.249 578.78 466.446 577.599C466.839 576.024 467.036 574.448 467.036 572.873C467.234 571.299 467.529 569.722 467.922 568.148C468.119 566.376 468.315 564.604 468.512 562.832C468.709 561.06 469.005 559.19 469.397 557.221C469.79 555.251 469.988 553.381 469.988 551.609C470.185 549.64 470.48 547.672 470.873 545.703C471.266 543.537 471.561 541.37 471.758 539.205C472.151 537.04 472.546 534.873 472.939 532.708C473.332 530.738 473.627 528.868 473.824 527.096C474.217 525.127 474.612 523.159 475.005 521.19C475.398 519.615 475.693 518.039 475.89 516.464C476.088 514.89 476.481 513.314 477.071 511.739C477.661 509.574 478.154 507.407 478.546 505.242C478.939 503.077 479.825 501.009 481.203 499.04C481.4 498.842 481.498 498.647 481.498 498.449C481.695 498.252 481.891 498.056 482.088 497.859C482.481 496.48 483.268 495.791 484.449 495.791C486.22 495.791 487.498 496.382 488.286 497.563C489.269 499.533 490.254 501.993 491.237 504.946C491.63 505.93 491.925 506.916 492.122 507.9C492.515 508.884 492.615 509.869 492.417 510.853C492.22 512.035 492.32 513.118 492.712 514.102C493.303 515.086 493.696 516.169 493.893 517.35C493.893 519.516 493.991 521.683 494.188 523.848C494.385 526.013 494.681 528.18 495.073 530.345C495.073 531.329 495.073 532.412 495.073 533.594C495.271 534.775 495.466 535.859 495.664 536.842L496.549 550.133C496.746 552.693 496.844 555.251 496.844 557.811C497.042 560.174 497.337 562.634 497.73 565.195C498.122 567.95 498.517 570.413 498.91 572.578C498.91 572.775 498.812 572.971 498.615 573.168C498.615 573.168 498.615 573.366 498.615 573.759C498.418 575.334 498.32 576.91 498.32 578.484C498.32 580.059 498.222 581.635 498.025 583.21C498.025 584.391 497.927 585.573 497.73 586.754C497.73 587.738 497.632 588.723 497.434 589.707C497.434 590.691 497.434 591.184 497.434 591.184C497.434 592.758 497.434 594.335 497.434 595.909C497.632 597.484 497.827 599.06 498.025 600.634C498.222 602.209 498.222 603.981 498.025 605.951C497.632 606.934 497.434 608.018 497.434 609.199C497.632 610.183 497.632 611.169 497.434 612.153C496.844 612.743 496.352 613.136 495.959 613.334C495.566 613.727 495.073 613.925 494.483 613.925C493.893 613.727 493.598 613.236 493.598 612.448V605.36C493.4 603.981 493.303 602.604 493.303 601.225C493.303 599.846 493.303 598.469 493.303 597.091C493.303 594.728 493.303 592.463 493.303 590.298C493.5 587.935 493.598 585.572 493.598 583.21C493.598 580.65 493.598 578.189 493.598 575.826C493.598 573.266 493.5 570.708 493.303 568.148C492.91 564.013 492.515 559.878 492.122 555.744C491.729 551.412 491.335 547.179 490.942 543.045C490.744 541.47 490.647 539.894 490.647 538.319C490.844 536.547 490.844 534.873 490.647 533.299C490.449 531.724 490.254 530.247 490.056 528.868C489.859 527.294 489.564 525.718 489.171 524.143C489.171 522.764 489.073 521.485 488.876 520.304C488.876 519.123 488.778 517.941 488.581 516.76C488.188 514.595 487.793 512.527 487.4 510.558C487.203 508.393 486.908 506.226 486.515 504.06C486.317 503.272 485.827 502.289 485.039 501.107H484.449C484.252 501.698 484.056 502.289 483.859 502.879C483.661 503.47 483.466 504.06 483.268 504.651C483.071 505.242 482.876 505.93 482.678 506.718C482.678 507.309 482.58 507.9 482.383 508.491C481.99 510.065 481.595 511.542 481.203 512.921C481.005 514.102 480.71 515.481 480.317 517.055C479.924 518.434 479.53 519.713 479.137 520.895C478.939 522.076 478.744 523.257 478.546 524.438C478.349 525.422 478.251 526.308 478.251 527.096C478.251 527.885 478.154 528.671 477.956 529.459C477.563 531.034 477.169 532.708 476.776 534.48C476.383 536.054 475.988 537.631 475.595 539.205C476.185 540.189 476.383 541.175 476.185 542.159C476.185 542.947 475.988 543.833 475.595 544.817C475.398 545.21 475.3 545.702 475.3 546.293C475.3 546.686 475.202 547.081 475.005 547.475C475.005 547.868 474.907 548.163 474.71 548.36C474.71 548.36 474.71 548.558 474.71 548.951C474.317 551.314 474.022 553.676 473.824 556.039C473.627 558.204 473.332 560.469 472.939 562.832C472.742 564.211 472.546 565.49 472.349 566.671C472.349 567.853 472.251 569.034 472.054 570.215V571.101C471.266 572.282 470.873 573.562 470.873 574.941C470.873 576.122 470.676 577.401 470.283 578.78C469.495 581.34 469.005 583.603 468.807 585.572C468.61 585.966 468.512 586.361 468.512 586.754C468.709 587.147 468.709 587.542 468.512 587.935C468.512 588.919 468.315 590.2 467.922 591.775C467.724 593.349 467.234 595.221 466.446 597.386C465.659 599.551 465.168 601.52 464.971 603.292C464.773 604.276 464.578 605.262 464.38 606.246C464.38 607.23 464.578 608.215 464.971 609.199C465.168 610.183 465.168 611.069 464.971 611.857C464.773 612.448 464.578 613.136 464.38 613.925C463.987 615.499 463.593 617.173 463.2 618.945C462.807 620.52 462.512 622.096 462.314 623.671C462.117 624.261 462.117 624.95 462.314 625.738C462.512 626.329 462.707 627.117 462.905 628.101C463.888 628.101 464.873 628.198 465.856 628.396C466.839 628.396 467.922 628.298 469.102 628.101C470.086 628.101 470.578 627.608 470.578 626.624C470.971 625.443 471.266 624.359 471.463 623.375C471.661 622.194 471.463 620.915 470.873 619.536C470.283 617.173 470.381 614.81 471.168 612.448C471.561 610.478 471.956 608.609 472.349 606.837C472.939 605.065 473.332 603.195 473.529 601.225C473.727 599.846 473.922 598.567 474.12 597.386C474.512 596.007 474.907 594.53 475.3 592.956C475.693 592.168 475.89 591.479 475.89 590.888C475.693 589.314 475.793 587.935 476.185 586.754C476.578 585.375 476.973 583.898 477.366 582.324C477.563 581.34 477.661 580.454 477.661 579.666C477.661 578.682 477.661 577.696 477.661 576.713C477.858 576.122 477.956 575.629 477.956 575.236C478.154 574.645 478.644 574.252 479.432 574.055C479.432 572.873 479.53 572.085 479.727 571.692C480.12 570.511 480.415 569.527 480.612 568.738C481.005 567.36 481.595 566.671 482.383 566.671C483.366 566.869 484.154 566.967 484.744 566.967C485.532 566.967 486.22 567.36 486.81 568.148C487.793 569.527 488.286 570.904 488.286 572.283C488.483 573.464 488.678 574.843 488.876 576.417C489.073 578.189 489.171 579.961 489.171 581.733C489.368 583.505 489.564 585.375 489.761 587.345C489.761 588.723 489.761 590.1 489.761 591.479C489.959 592.858 489.959 594.335 489.761 595.909C489.368 597.288 489.269 598.567 489.466 599.749C489.859 600.93 489.859 602.209 489.466 603.588V605.655C489.663 608.018 489.761 610.38 489.761 612.743C489.959 614.908 490.154 617.173 490.351 619.536C490.351 620.915 489.761 621.701 488.581 621.899C487.203 621.899 486.417 621.308 486.22 620.126C485.827 618.552 485.432 616.878 485.039 615.106C484.646 613.334 484.646 611.562 485.039 609.79C485.432 608.806 485.432 607.82 485.039 606.837C484.842 605.655 484.646 604.474 484.449 603.292V602.406C484.449 600.241 484.449 598.074 484.449 595.909C484.449 593.744 484.646 591.577 485.039 589.412C485.432 587.442 485.334 585.573 484.744 583.801C484.351 581.831 484.154 579.863 484.154 577.894C484.154 577.303 484.154 576.712 484.154 576.122C484.154 575.334 484.056 574.547 483.859 573.759H483.564C483.171 575.334 482.776 576.91 482.383 578.484C481.99 580.059 481.595 581.635 481.203 583.21C480.612 585.375 480.317 587.542 480.317 589.707C480.317 591.677 480.12 593.744 479.727 595.909C479.727 596.302 479.629 596.5 479.432 596.5C478.251 598.469 477.563 600.537 477.366 602.702C477.169 604.867 476.873 607.034 476.481 609.199C476.088 610.578 475.89 612.055 475.89 613.629C476.088 615.008 476.185 616.385 476.185 617.764C475.793 620.52 475.398 622.687 475.005 624.261C475.005 624.654 474.907 625.147 474.71 625.738C474.71 626.329 474.71 626.821 474.71 627.214C474.71 628.003 474.907 628.396 475.3 628.396C475.693 628.396 476.088 628.396 476.481 628.396C478.054 628.396 479.53 628.396 480.907 628.396C482.481 628.396 484.056 628.494 485.629 628.691C487.99 628.691 490.549 628.986 493.303 629.577C494.286 629.775 495.369 629.872 496.549 629.872C497.73 629.872 498.91 630.07 500.091 630.463C501.664 630.856 501.959 631.842 500.976 633.417L496.549 640.505C495.566 642.277 494.483 644.049 493.303 645.821C492.32 647.395 491.335 649.069 490.351 650.841C489.959 651.432 489.663 652.023 489.466 652.613C489.466 653.204 489.269 653.892 488.876 654.68H490.351C490.744 655.074 491.039 655.469 491.237 655.862C490.647 656.453 490.351 656.748 490.351 656.748C488.581 657.338 487.695 658.422 487.695 659.997C487.695 661.571 487.598 663.147 487.4 664.722C487.203 666.101 487.105 667.577 487.105 669.152C486.908 671.121 486.712 672.991 486.515 674.763C486.515 676.535 486.417 678.405 486.22 680.375C486.022 683.13 485.925 685.788 485.925 688.349C485.925 690.711 485.827 693.271 485.629 696.027C485.629 697.997 485.629 699.964 485.629 701.934C485.827 703.903 485.827 705.871 485.629 707.841C485.629 710.006 485.532 712.073 485.334 714.043C485.137 715.815 484.842 717.784 484.449 719.949C484.252 721.524 484.056 723.1 483.859 724.675C483.661 726.249 483.366 727.923 482.973 729.695C485.727 730.088 487.793 730.483 489.171 730.876C489.564 731.074 489.859 731.27 490.056 731.467C490.449 731.665 490.844 731.86 491.237 732.058C490.844 732.255 490.449 732.451 490.056 732.649C489.859 733.042 489.564 733.239 489.171 733.239C487.99 733.239 486.613 733.042 485.039 732.649C484.056 732.255 483.466 732.156 483.268 732.353C483.071 732.551 482.973 733.141 482.973 734.125C482.973 735.109 482.973 736.095 482.973 737.079C482.973 738.062 483.071 739.048 483.268 740.032C483.268 741.213 482.876 741.804 482.088 741.804C480.12 742.197 479.137 741.804 479.137 740.622V732.944C479.137 731.762 478.744 730.974 477.956 730.581C474.612 729.597 471.758 728.316 469.397 726.742C467.036 725.758 465.758 723.986 465.561 721.426C465.561 721.228 465.363 720.54 464.971 719.359C463.987 716.996 463.298 714.14 462.905 710.794C462.314 707.84 462.217 704.494 462.61 700.753C462.807 699.571 462.807 698.39 462.61 697.209C462.412 696.027 462.314 694.846 462.314 693.664V691.597C462.314 690.613 462.314 689.727 462.314 688.939C462.314 687.955 462.412 686.97 462.61 685.986C462.61 685.002 462.512 684.116 462.314 683.328C462.117 682.54 462.019 681.753 462.019 680.965C461.822 679.981 461.922 678.505 462.314 676.535C462.512 675.551 462.512 674.763 462.314 674.172C462.117 673.384 462.117 672.498 462.314 671.514C462.707 669.545 462.905 667.577 462.905 665.608C463.102 663.638 463.692 661.671 464.675 659.701C465.266 658.717 464.873 658.225 463.495 658.225H456.412C455.429 658.225 454.346 658.225 453.166 658.225C452.182 658.027 451.197 657.831 450.214 657.634C449.231 657.634 448.148 657.634 446.968 657.634C445.985 657.634 445 657.536 444.017 657.338C442.836 657.141 441.656 657.043 440.475 657.043C439.295 656.846 438.114 656.748 436.934 656.748C434.966 656.355 433.097 656.157 431.326 656.157C429.555 655.96 427.785 655.664 426.014 655.271C423.26 654.878 420.504 654.483 417.75 654.09C414.997 653.499 412.241 653.006 409.487 652.613C407.126 652.22 404.765 651.727 402.404 651.137C400.24 650.546 398.075 650.053 395.911 649.66C395.123 649.462 394.338 649.462 393.55 649.66C392.96 649.66 392.172 649.66 391.189 649.66C387.648 649.66 386.074 647.888 386.467 644.344C386.664 643.36 386.762 642.277 386.762 641.095C386.762 639.914 386.762 638.732 386.762 637.551L387.648 629.577V624.852C387.648 623.277 388.336 622.489 389.713 622.489C390.697 622.292 391.582 622.292 392.37 622.489C393.157 622.489 394.043 622.391 395.026 622.194C397.977 621.801 400.928 621.801 403.88 622.194C406.831 622.391 409.782 622.687 412.733 623.08C414.504 623.277 416.177 623.473 417.75 623.671C419.521 623.868 421.194 624.261 422.768 624.852C423.948 625.442 425.129 625.738 426.309 625.738C427.687 625.54 428.965 625.836 430.146 626.624C430.343 626.624 430.441 626.526 430.441 626.329ZM496.549 632.235C494.976 632.038 493.4 631.842 491.827 631.645C490.449 631.447 488.974 631.251 487.4 631.054C486.417 630.856 485.334 630.759 484.154 630.759C483.171 630.561 482.186 630.463 481.203 630.463C479.629 630.463 478.154 630.561 476.776 630.759C475.398 630.759 473.922 630.856 472.349 631.054H471.168C469.397 630.463 467.627 630.266 465.856 630.463C464.283 630.661 462.61 630.661 460.839 630.463C459.461 630.266 458.085 630.266 456.707 630.463C455.527 630.463 454.248 630.463 452.87 630.463C450.707 630.463 448.541 630.463 446.378 630.463C444.214 630.266 442.049 630.07 439.885 629.872C438.311 629.675 436.836 629.577 435.458 629.577C434.08 629.577 432.704 629.38 431.326 628.987C429.163 628.593 427.097 628.198 425.129 627.805C423.358 627.412 421.39 627.017 419.226 626.624C417.062 626.231 414.799 625.935 412.438 625.738C410.275 625.54 408.109 625.345 405.945 625.147C403.584 624.754 401.223 624.556 398.862 624.556C396.699 624.556 394.435 624.754 392.074 625.147C391.287 625.345 390.894 625.836 390.894 626.624C390.894 627.412 390.796 628.198 390.599 628.987C390.599 629.577 390.599 630.266 390.599 631.054C390.401 632.235 390.206 633.416 390.009 634.598C389.811 635.582 389.713 636.567 389.713 637.551C389.516 638.732 389.418 640.012 389.418 641.391C389.616 642.572 389.811 643.753 390.009 644.934C390.009 646.313 390.697 647.002 392.074 647.002C393.845 647.002 395.123 647.1 395.911 647.297C397.484 647.69 398.862 648.085 400.043 648.479C401.421 648.676 402.797 648.971 404.175 649.364C405.748 649.758 407.224 650.053 408.602 650.251C409.979 650.448 411.355 650.743 412.733 651.137C413.914 651.334 415.094 651.629 416.275 652.022C417.455 652.22 418.734 652.416 420.111 652.613C422.275 653.006 424.538 653.302 426.899 653.499C429.26 653.697 431.524 653.892 433.687 654.09C435.065 654.287 436.441 654.483 437.819 654.68C439.197 654.68 440.573 654.778 441.951 654.976C443.919 655.173 445.787 655.369 447.558 655.567C449.329 655.567 451.197 655.567 453.166 655.567C454.936 655.764 456.707 655.862 458.478 655.862C460.249 655.862 461.922 655.862 463.495 655.862C464.873 656.255 465.561 655.764 465.561 654.385L466.446 648.183C466.446 646.804 467.036 646.116 468.217 646.116C469.2 646.116 469.988 646.116 470.578 646.116C471.366 645.918 472.251 645.821 473.234 645.821C474.612 645.821 475.89 645.918 477.071 646.116C478.251 646.116 479.53 646.116 480.907 646.116H487.105C488.678 646.116 489.564 645.525 489.761 644.344C489.959 643.951 490.154 643.655 490.351 643.458C490.549 643.065 490.744 642.67 490.942 642.276C491.532 641.488 492.122 640.702 492.712 639.914C493.303 639.126 493.893 638.24 494.483 637.256C494.876 636.468 495.171 635.681 495.369 634.893C495.761 634.105 496.156 633.219 496.549 632.235ZM479.432 728.218C479.629 727.43 479.727 726.742 479.727 726.151C479.727 725.363 479.825 724.675 480.022 724.084C480.415 722.509 480.612 721.033 480.612 719.654C480.81 718.079 481.005 716.503 481.203 714.929C481.4 712.763 481.595 710.696 481.793 708.726C481.99 706.561 481.891 704.394 481.498 702.229V701.934C481.695 698.981 481.891 696.027 482.088 693.074C482.285 690.121 482.481 687.167 482.678 684.214C482.876 681.458 482.973 678.7 482.973 675.945C482.973 672.991 483.171 670.136 483.564 667.38C483.761 666.592 483.466 665.903 482.678 665.313C482.088 665.115 481.793 664.524 481.793 663.541C482.186 661.571 482.58 660.094 482.973 659.11C483.564 657.929 483.268 657.338 482.088 657.338H480.612C478.842 657.338 477.071 657.436 475.3 657.634C473.727 657.634 472.151 657.634 470.578 657.634C468.807 657.831 467.824 658.618 467.627 659.997C467.234 661.769 466.939 663.541 466.741 665.313C466.544 667.085 466.348 668.857 466.151 670.629C465.954 672.203 465.856 673.68 465.856 675.059C465.856 676.437 465.856 677.914 465.856 679.488C465.856 680.867 465.856 682.244 465.856 683.623C466.053 684.804 466.151 685.986 466.151 687.167C466.151 690.514 466.151 693.762 466.151 696.913C466.151 700.064 466.249 703.313 466.446 706.659C466.644 708.629 466.839 710.596 467.036 712.566C467.234 714.338 467.529 716.208 467.922 718.177C468.709 720.933 470.085 723.296 472.054 725.265C474.217 727.037 476.678 728.021 479.432 728.218ZM485.334 648.479C485.137 648.281 484.941 648.183 484.744 648.183H471.758C471.366 648.183 470.873 648.479 470.283 649.069C469.89 650.053 469.595 651.136 469.397 652.318C469.397 653.302 469.2 654.385 468.807 655.567H470.873C473.037 655.369 475.103 655.271 477.071 655.271C479.234 655.271 481.4 655.173 483.564 654.976C484.351 654.976 484.941 654.583 485.334 653.795V648.479ZM403.289 604.474C403.487 603.49 403.487 602.604 403.289 601.816C403.092 601.028 403.192 600.142 403.584 599.158C403.977 598.37 404.372 597.681 404.765 597.091C405.158 596.302 405.158 595.416 404.765 594.433C404.568 593.644 404.667 592.858 405.06 592.07C405.453 591.282 405.848 590.396 406.241 589.412C406.633 588.231 407.028 587.147 407.421 586.163C408.011 584.982 408.504 583.801 408.897 582.619C409.094 582.226 409.094 581.831 408.897 581.438C408.897 581.045 408.897 580.65 408.897 580.256C408.306 578.682 408.699 577.303 410.077 576.122C409.094 575.138 408.799 574.35 409.192 573.759C409.782 572.971 410.275 572.283 410.667 571.692C411.06 570.313 411.258 569.034 411.258 567.853C411.455 566.671 411.651 565.392 411.848 564.013C411.848 563.225 411.75 562.537 411.553 561.946C411.355 561.355 411.258 560.667 411.258 559.879C411.06 559.485 410.963 558.895 410.963 558.106C411.553 558.106 412.045 558.106 412.438 558.106C413.028 557.909 413.619 557.811 414.209 557.811C415.192 558.009 415.685 558.5 415.685 559.288C415.882 559.879 416.077 560.469 416.275 561.06C416.472 563.816 416.57 566.474 416.57 569.034C416.57 571.594 416.668 574.152 416.865 576.713C416.865 584.391 417.16 591.872 417.75 599.158C417.75 600.732 417.948 602.309 418.341 603.883C418.734 605.262 419.029 606.739 419.226 608.313C419.423 609.494 419.521 610.676 419.521 611.857C419.521 613.039 419.619 614.22 419.816 615.401C419.816 615.992 419.914 616.582 420.111 617.173C420.309 617.566 420.407 618.059 420.407 618.65C420.407 619.831 420.309 620.52 420.111 620.717C418.734 621.11 417.75 621.21 417.16 621.013C416.963 620.815 416.865 620.52 416.865 620.126C416.865 619.733 416.767 619.338 416.57 618.945C415.782 617.371 415.292 616.09 415.094 615.106C414.897 614.122 414.701 613.136 414.504 612.153C414.307 610.971 414.209 609.888 414.209 608.904C414.012 607.329 413.914 605.951 413.914 604.769C413.914 603.39 413.716 601.914 413.324 600.339C412.34 597.188 411.946 594.335 412.143 591.775C412.536 590.396 412.733 589.116 412.733 587.935C412.733 586.556 412.733 585.179 412.733 583.801C412.733 583.603 412.636 583.407 412.438 583.21C412.438 583.012 412.438 582.817 412.438 582.619C412.045 582.422 411.848 582.324 411.848 582.324C411.848 582.717 411.75 583.012 411.553 583.21L408.011 598.272C407.421 600.437 406.831 602.504 406.241 604.474C405.65 606.443 405.158 608.511 404.765 610.676C403.782 613.629 403.782 616.583 404.765 619.536C404.962 619.929 404.962 620.224 404.765 620.422C404.568 620.619 404.47 620.815 404.47 621.013C403.092 621.013 402.404 620.815 402.404 620.422C402.011 619.438 401.616 618.552 401.223 617.764C400.83 616.78 400.83 615.599 401.223 614.22C401.616 613.236 401.716 612.153 401.518 610.971C401.518 609.592 401.616 608.313 401.814 607.132C402.011 606.541 402.502 605.655 403.289 604.474Z" fill="white"/>
</g>
</g>
<defs>
<clipPath id="clip0_140_222">
<rect width="878" height="886" fill="white"/>
</clipPath>
</defs>
</svg>
