<svg width="881" height="884" viewBox="0 0 881 884" fill="none" xmlns="http://www.w3.org/2000/svg">
<g clip-path="url(#clip0_140_72)">
<mask id="mask0_140_72" style="mask-type:luminance" maskUnits="userSpaceOnUse" x="0" y="0" width="881" height="884">
<path d="M881 0H0V884H881V0Z" fill="white"/>
</mask>
<g mask="url(#mask0_140_72)">
<path d="M881 -1.84546H0V884H881V-1.84546Z" fill="#E61EAA"/>
<path d="M499.479 492.382V493.49V494.966C499.479 495.459 499.479 495.95 499.479 496.443C499.724 496.935 499.724 497.426 499.479 497.919V501.979C499.234 502.717 499.11 503.825 499.11 505.301V507.885V511.207C498.618 513.176 498.249 515.391 498.004 517.851C498.004 520.065 497.759 522.403 497.267 524.864C496.53 528.309 495.793 531.507 495.055 534.46C494.563 537.168 494.073 539.873 493.581 542.58C493.336 543.811 493.089 544.919 492.844 545.902C492.598 546.886 492.352 547.993 492.106 549.224C491.614 549.963 491.246 550.824 491.001 551.808C491.001 552.792 490.877 553.777 490.632 554.761C489.895 557.468 489.157 560.297 488.42 563.25C487.928 565.958 487.438 568.787 486.946 571.74C486.454 573.709 486.085 575.676 485.84 577.645C485.84 579.614 485.595 581.582 485.103 583.551C485.103 585.027 484.979 586.258 484.734 587.242C484.489 588.473 484.365 589.702 484.365 590.933C484.365 592.164 484.242 593.517 483.997 594.993C483.997 595.238 483.997 595.486 483.997 595.731C484.242 595.977 484.365 596.224 484.365 596.469C484.61 598.191 484.365 599.422 483.628 600.16C483.383 600.653 482.522 600.899 481.048 600.899H480.679H477.362H475.15H472.57C472.077 600.899 471.587 600.775 471.095 600.529C470.85 600.529 470.481 600.529 469.989 600.529H462.248H459.299H457.088H451.558C450.821 600.529 450.084 600.529 449.347 600.529C448.609 600.775 447.872 600.899 447.135 600.899H440.868C438.164 600.899 436.2 600.775 434.97 600.529H433.127C432.39 600.284 431.653 600.16 430.916 600.16C430.178 600.16 429.565 600.037 429.072 599.791C428.58 599.791 428.09 599.546 427.598 599.053C427.598 599.053 427.475 598.929 427.229 598.684C426.984 598.684 426.861 598.439 426.861 597.946V597.577C427.353 597.084 427.598 596.838 427.598 596.838H431.284C430.302 595.608 430.055 594.009 430.547 592.04C430.547 591.547 430.423 591.178 430.178 590.933C429.933 590.687 429.81 590.195 429.81 589.456C429.565 588.718 429.441 587.611 429.441 586.135V583.551C429.441 583.058 429.318 582.813 429.072 582.813C429.072 582.567 429.072 582.198 429.072 581.705C428.827 581.213 428.704 580.598 428.704 579.86V573.954C428.704 573.461 428.827 573.216 429.072 573.216C428.58 572.232 428.459 571.616 428.704 571.37C428.949 570.878 428.949 570.509 428.704 570.263C427.967 570.018 427.598 569.279 427.598 568.048C427.598 567.556 427.721 567.187 427.967 566.941V566.203C427.967 565.71 427.843 565.219 427.598 564.727C427.598 563.988 427.598 563.374 427.598 562.881C427.353 562.388 427.229 562.019 427.229 561.774C427.229 561.281 427.106 560.79 426.861 560.297C426.616 559.559 426.369 558.821 426.124 558.083C426.124 557.099 426 556.237 425.755 555.499C425.51 554.023 425.386 552.546 425.386 551.07C425.386 549.593 425.386 548.117 425.386 546.641C425.141 545.902 425.018 544.55 425.018 542.58V539.259V537.782C425.018 537.289 424.894 537.044 424.649 537.044C424.649 536.798 424.649 536.429 424.649 535.937C424.649 535.444 424.649 535.075 424.649 534.829C424.894 534.337 425.018 533.846 425.018 533.353V530.769V528.185V524.864V521.911C425.263 520.927 425.386 519.451 425.386 517.481V514.529C425.631 513.545 425.631 512.438 425.386 511.207C424.894 509.238 424.894 507.27 425.386 505.301C425.386 504.808 425.386 504.439 425.386 504.194C425.631 503.948 425.755 503.579 425.755 503.086V501.241C426 499.765 426.124 498.288 426.124 496.812C426.124 495.335 426.369 493.859 426.861 492.382C426.861 490.413 427.106 488.199 427.598 485.739C428.09 483.77 428.335 482.293 428.335 481.309C428.58 480.817 428.704 480.079 428.704 479.095C428.704 477.864 428.827 476.88 429.072 476.142C429.565 474.666 429.81 473.189 429.81 471.713C430.055 470.236 430.423 468.76 430.916 467.284L432.021 462.854C432.021 462.609 432.021 462.485 432.021 462.485C432.267 462.24 432.39 461.871 432.39 461.378C432.882 459.902 433.127 458.794 433.127 458.056C433.127 456.825 433.127 455.596 433.127 454.365C433.372 452.889 433.619 451.536 433.865 450.305L434.97 444.768C434.97 444.276 434.97 443.785 434.97 443.292C435.216 442.554 435.339 441.939 435.339 441.446C435.584 440.954 435.708 440.094 435.708 438.863V437.386V436.648V436.279V435.541C435.708 434.803 435.831 434.188 436.076 433.695C436.076 433.203 436.076 432.712 436.076 432.219C436.321 431.481 436.445 430.866 436.445 430.373C436.69 429.39 436.813 428.404 436.813 427.421C436.813 426.437 436.813 425.451 436.813 424.468C437.059 423.729 437.059 422.991 436.813 422.253C436.813 421.515 436.813 420.653 436.813 419.669V415.609V411.18V407.12C436.813 405.643 436.69 404.536 436.445 403.798V402.322V401.952L436.813 398.631C436.813 397.4 436.813 396.17 436.813 394.94C436.813 393.709 436.937 392.479 437.182 391.248C437.182 389.527 437.059 388.296 436.813 387.557C436.568 385.836 436.445 384.236 436.445 382.759C436.445 381.283 436.445 379.93 436.445 378.699C436.445 378.206 436.445 377.837 436.445 377.592C436.69 377.346 436.813 376.977 436.813 376.484C437.306 374.515 437.182 372.793 436.445 371.317C436.2 371.072 436.076 370.824 436.076 370.579C436.321 370.086 436.445 369.717 436.445 369.471C436.937 368.488 437.182 367.011 437.182 365.042V361.72V359.137L434.97 361.351C433.988 362.582 433.004 363.689 432.021 364.673C431.284 365.411 430.302 366.026 429.072 366.519L428.704 367.626C428.212 368.119 427.843 368.61 427.598 369.102C427.598 369.348 427.353 369.717 426.861 370.21L426.492 370.948C426 371.686 425.51 372.424 425.018 373.162C424.526 373.655 424.035 374.27 423.543 375.008C422.561 375.992 421.945 376.854 421.7 377.592C420.963 378.084 420.349 378.699 419.857 379.437C419.612 379.93 419.12 380.545 418.383 381.283C418.137 381.528 417.769 382.145 417.277 383.128C416.785 383.621 416.294 384.112 415.802 384.605C415.557 385.097 415.188 385.588 414.696 386.081C414.204 386.574 413.714 387.065 413.222 387.557C412.977 388.05 412.608 388.541 412.116 389.034C410.642 391.003 409.659 392.356 409.167 393.094C408.675 393.587 408.306 393.956 408.061 394.201C408.061 394.447 407.816 394.816 407.324 395.309C407.324 395.309 407.079 395.801 406.587 396.785C405.849 397.278 404.989 398.261 404.006 399.738C403.514 400.231 403.269 400.845 403.269 401.583C402.777 403.06 401.671 403.798 399.952 403.798H399.214C397.74 403.798 396.265 403.798 394.791 403.798C393.316 403.553 391.842 403.305 390.367 403.06C388.893 402.567 387.295 402.322 385.575 402.322C384.101 402.076 382.626 401.707 381.152 401.214C380.66 400.969 380.17 400.845 379.678 400.845C379.432 400.845 379.064 400.722 378.572 400.476C378.08 400.476 377.589 400.231 377.097 399.738H376.729C376.729 399.492 376.605 399.369 376.36 399.369C376.36 399.123 376.236 399 375.991 399C373.042 398.261 370.339 396.661 367.882 394.201C367.39 393.956 366.899 393.709 366.407 393.463C366.162 393.218 365.793 392.97 365.301 392.725C364.319 392.232 363.458 391.618 362.721 390.879C361.492 390.387 360.878 389.403 360.878 387.927C361.37 386.696 362.229 385.712 363.458 384.974C364.195 384.728 365.178 383.99 366.407 382.759C366.899 381.775 368.005 380.668 369.725 379.437C369.97 379.192 370.093 378.944 370.093 378.699C370.339 378.454 370.707 378.206 371.199 377.961C371.691 377.715 371.937 377.468 371.937 377.223C372.182 376.977 372.55 376.608 373.042 376.115C374.517 374.639 375.746 373.532 376.729 372.793C377.221 372.301 377.589 371.932 377.834 371.686C378.327 371.193 378.817 370.702 379.309 370.21C379.801 369.717 380.415 369.102 381.152 368.364C381.889 367.626 382.626 367.011 383.364 366.519C384.101 366.273 384.838 365.535 385.575 364.304L386.681 363.197L388.156 362.089C388.893 361.106 389.999 359.875 391.473 358.398C391.718 358.153 391.842 358.029 391.842 358.029C391.842 357.784 391.965 357.537 392.211 357.291L393.316 356.184C393.809 355.691 394.054 355.322 394.054 355.076C394.546 354.584 394.914 354.215 395.16 353.969C395.652 353.476 396.265 353.107 397.003 352.862C397.248 352.862 397.371 352.738 397.371 352.493C397.616 352.247 397.74 352 397.74 351.755C397.985 351.262 398.354 350.771 398.846 350.278C399.338 349.294 399.828 348.433 400.32 347.694C401.057 346.956 402.04 346.342 403.269 345.849C403.269 345.849 403.514 345.603 404.006 345.111V344.742L405.112 343.634C405.604 342.651 406.095 342.034 406.587 341.789C407.816 340.312 409.167 338.712 410.642 336.99C412.361 335.269 414.204 333.545 416.171 331.823C417.89 329.854 419.734 327.887 421.7 325.917C423.912 323.948 426 321.981 427.967 320.012C429.686 318.29 431.284 316.566 432.759 314.844C434.478 313.122 436.321 311.153 438.288 308.939C440.745 306.231 441.974 303.402 441.974 300.449C441.974 300.204 441.851 299.957 441.606 299.711C441.36 298.48 441.237 297.742 441.237 297.497C441.482 297.004 442.098 296.513 443.08 296.02C443.08 296.02 443.325 295.896 443.817 295.651C445.047 295.158 446.152 294.789 447.135 294.544C448.117 294.298 449.101 294.051 450.084 293.805C451.066 293.805 452.541 293.56 454.507 293.067C454.999 292.822 455.858 292.698 457.088 292.698H458.562H458.931C460.405 292.453 461.88 292.329 463.354 292.329C464.829 292.084 466.303 291.715 467.778 291.222C468.515 290.976 469.866 290.607 471.832 290.114C472.815 289.622 473.799 289.376 474.781 289.376L483.628 287.162C486.085 286.669 487.683 287.776 488.42 290.484C488.42 290.976 488.42 291.467 488.42 291.96C488.665 292.453 488.789 292.944 488.789 293.436L489.895 296.758C490.14 297.989 490.263 299.097 490.263 300.08C490.263 301.064 490.387 302.171 490.632 303.402V304.879C491.124 307.586 491.369 310.291 491.369 312.999C491.614 315.459 491.983 318.043 492.475 320.75C492.475 321.734 492.475 322.595 492.475 323.334C492.72 324.072 492.844 324.934 492.844 325.917C492.844 327.639 493.089 329.732 493.581 332.192C493.581 333.423 493.581 334.53 493.581 335.514C493.826 336.252 494.073 337.114 494.318 338.098C494.318 338.591 494.318 339.081 494.318 339.574C494.563 340.067 494.687 340.558 494.687 341.051V341.42C494.687 341.912 494.687 342.282 494.687 342.527C494.932 342.772 495.055 343.02 495.055 343.265C494.81 345.48 494.81 347.818 495.055 350.278C495.547 352.738 496.038 355.322 496.53 358.029C496.775 358.522 496.898 359.137 496.898 359.875V360.613V362.089V366.888V369.102V370.579V372.055V377.592V381.652C496.898 382.145 496.898 382.636 496.898 383.128C497.144 383.374 497.267 383.743 497.267 384.236V386.081V387.557V393.463C497.267 395.432 497.267 397.4 497.267 399.369C497.267 401.091 497.391 402.936 497.636 404.905C497.636 406.136 497.636 407.244 497.636 408.227C497.636 409.211 497.512 410.318 497.267 411.549V418.931C497.512 421.146 497.636 423.36 497.636 425.575C497.636 427.79 497.759 430.128 498.004 432.588C498.004 435.295 498.128 437.263 498.373 438.494V444.399C498.618 445.63 498.742 446.737 498.742 447.721C498.742 448.459 498.742 449.321 498.742 450.305C498.742 451.536 498.742 452.765 498.742 453.996C498.742 454.98 498.865 456.087 499.11 457.318C499.11 458.549 499.11 459.656 499.11 460.64C499.11 461.623 499.234 462.609 499.479 463.593C499.724 464.823 499.847 466.053 499.847 467.284C499.847 468.515 499.847 469.744 499.847 470.975C500.093 472.206 500.093 473.313 499.847 474.297C499.847 475.035 499.847 476.018 499.847 477.249V480.94V483.524V486.846C499.847 488.568 499.724 489.799 499.479 490.537V492.382ZM495.424 489.43C495.669 488.446 495.793 487.461 495.793 486.477C495.793 485.493 495.793 484.386 495.793 483.155C496.038 482.171 496.161 480.817 496.161 479.095V476.511C496.161 475.773 496.038 475.158 495.793 474.666C495.793 473.435 495.669 472.451 495.424 471.713V468.76V465.807C495.424 464.823 495.3 463.838 495.055 462.854C495.055 461.871 495.055 460.885 495.055 459.902C494.81 458.671 494.687 457.318 494.687 455.841C494.687 454.365 494.563 452.889 494.318 451.412C494.318 449.69 494.442 448.459 494.687 447.721V444.768C494.687 442.308 494.563 440.585 494.318 439.601V438.863V437.755C494.073 437.263 493.949 436.524 493.949 435.541C494.442 434.803 494.563 434.064 494.318 433.326C494.318 432.588 494.318 431.726 494.318 430.742C494.318 430.25 494.195 430.004 493.949 430.004C493.949 429.759 493.949 429.39 493.949 428.897V421.146V417.455V417.086V416.717L493.581 415.609V412.656V408.965V407.12V406.751V401.952V392.725V385.712V379.437C493.089 378.944 493.089 378.33 493.581 377.592C493.581 376.608 493.457 375.746 493.212 375.008V373.532V371.686V369.471V366.15C493.212 364.428 493.089 362.828 492.844 361.351C492.844 359.629 492.72 358.029 492.475 356.553C492.23 355.569 492.106 354.584 492.106 353.6C492.106 352.616 491.983 351.631 491.738 350.647C491.493 349.909 491.369 348.678 491.369 346.956C490.877 344.496 490.632 342.651 490.632 341.42V340.681V339.574C490.14 337.852 489.771 336.252 489.526 334.776C489.526 333.054 489.526 331.454 489.526 329.978V329.608C489.526 328.87 489.526 328.132 489.526 327.394C489.526 326.41 489.403 325.548 489.157 324.81C489.157 324.317 489.034 323.826 488.789 323.334C488.789 322.841 488.789 322.35 488.789 321.857C488.544 321.365 488.42 320.874 488.42 320.381C488.42 319.643 488.297 319.028 488.052 318.535C487.806 317.304 487.683 316.075 487.683 314.844C487.683 313.613 487.559 312.137 487.314 310.415C487.314 309.922 487.191 309.431 486.946 308.939C486.946 308.446 486.946 307.955 486.946 307.462C486.946 305.493 486.822 304.017 486.577 303.033C486.332 301.802 486.085 300.695 485.84 299.711C485.84 298.48 485.716 297.251 485.471 296.02C485.471 295.527 485.348 295.036 485.103 294.544C485.103 293.806 485.103 293.191 485.103 292.698C485.103 291.96 484.857 291.591 484.365 291.591L483.628 291.96C482.399 291.96 481.54 292.084 481.048 292.329L475.519 293.436C473.307 293.929 471.095 294.42 468.883 294.913C466.672 295.406 464.336 295.896 461.88 296.389C459.913 296.635 457.825 296.882 455.613 297.127C453.646 297.373 451.682 297.742 449.715 298.235L448.609 298.604C447.135 298.604 446.398 299.097 446.398 300.08C446.152 301.311 445.905 302.664 445.66 304.14C445.66 305.617 445.537 306.97 445.292 308.2C445.292 309.431 445.047 311.03 444.554 312.999C444.554 314.721 444.431 316.075 444.186 317.059C444.186 318.29 444.062 319.397 443.817 320.381C443.817 321.365 443.694 322.472 443.449 323.703C442.957 326.163 442.588 328.625 442.343 331.085C442.343 333.545 442.219 336.129 441.974 338.836V341.051C441.974 342.282 442.098 343.265 442.343 344.003V345.849V348.064H443.449H443.817C444.309 348.064 444.554 348.187 444.554 348.433C444.8 348.433 444.923 348.556 444.923 348.802C444.923 349.047 444.8 349.171 444.554 349.171V350.647C444.062 351.385 443.694 351.755 443.449 351.755C442.466 352.247 441.851 353.355 441.606 355.076V361.351V363.935V387.557V394.57V396.047V403.429C441.606 404.66 441.606 405.889 441.606 407.12C441.606 408.351 441.729 409.58 441.974 410.811V419.669V420.408V425.944C441.974 426.682 441.851 427.421 441.606 428.159C441.606 428.897 441.606 429.635 441.606 430.373C441.36 431.604 441.113 432.833 440.868 434.064C440.868 435.048 440.868 436.155 440.868 437.386C440.868 440.339 440.376 443.292 439.394 446.245V446.983V449.567C439.149 450.305 439.025 451.167 439.025 452.15C439.025 452.889 438.902 453.627 438.657 454.365C438.411 456.334 438.164 458.301 437.919 460.271C437.674 461.992 437.306 463.838 436.813 465.807L435.708 471.344C435.462 472.082 435.339 472.82 435.339 473.558C435.339 474.051 435.216 474.666 434.97 475.404C434.725 476.387 434.478 477.249 434.233 477.988C434.233 478.726 434.11 479.588 433.865 480.571C433.865 481.555 433.619 483.031 433.127 485C432.882 486.231 432.635 487.584 432.39 489.061C432.145 490.292 431.898 491.521 431.653 492.752C431.408 494.473 431.284 496.197 431.284 497.919C431.284 499.395 431.161 500.872 430.916 502.348V505.67V509.361C430.916 510.838 430.792 511.821 430.547 512.314V518.22C430.302 519.451 430.178 520.558 430.178 521.542C430.178 522.28 430.178 523.142 430.178 524.125V526.709V529.293C430.178 530.276 430.055 530.893 429.81 531.138V535.198C430.055 536.429 430.178 537.658 430.178 538.889C430.178 539.873 430.302 540.98 430.547 542.211C430.547 543.442 430.547 544.55 430.547 545.533C430.547 546.517 430.67 547.502 430.916 548.486V552.177C430.916 552.915 430.916 553.777 430.916 554.761C430.916 555.499 431.039 556.237 431.284 556.975C431.284 557.221 431.284 557.468 431.284 557.714C431.529 557.714 431.653 557.837 431.653 558.083C432.145 558.575 432.39 559.19 432.39 559.928C432.39 561.405 432.514 562.512 432.759 563.25C433.251 564.727 433.496 566.079 433.496 567.31C433.251 568.294 433.127 569.279 433.127 570.263C433.372 571.001 433.496 571.74 433.496 572.478V575.431C433.004 577.152 433.127 578.507 433.865 579.491V580.598C433.619 581.091 433.496 581.705 433.496 582.444C433.741 582.936 433.865 583.551 433.865 584.289C433.865 584.534 433.865 584.658 433.865 584.658C434.11 584.904 434.233 585.273 434.233 585.765C434.478 586.996 434.602 588.349 434.602 589.826C434.602 591.302 434.602 592.655 434.602 593.886V597.208H479.942V596.838V594.255V592.778V589.456C479.942 588.964 479.942 588.473 479.942 587.98C480.187 587.487 480.311 586.996 480.311 586.504C480.311 586.258 480.311 586.011 480.311 585.765C480.556 585.52 480.679 585.151 480.679 584.658C480.679 584.165 480.679 583.551 480.679 582.813C480.924 582.074 481.048 581.336 481.048 580.598C481.293 579.614 481.416 578.752 481.416 578.014C481.416 577.031 481.54 576.045 481.785 575.061C482.03 574.569 482.154 574.078 482.154 573.585C482.154 572.847 482.277 572.232 482.522 571.74C482.522 571.494 482.522 571.37 482.522 571.37C482.767 571.37 482.891 571.247 482.891 571.001C482.891 570.509 482.891 570.263 482.891 570.263C483.136 570.018 483.26 569.649 483.26 569.156C483.505 568.663 483.628 568.294 483.628 568.048C483.628 567.556 483.752 567.065 483.997 566.572C483.997 566.079 483.997 565.71 483.997 565.465C484.242 564.972 484.365 564.481 484.365 563.988C484.365 563.743 484.365 563.496 484.365 563.25C484.61 563.005 484.734 562.636 484.734 562.143C484.979 561.405 485.103 560.543 485.103 559.559C485.348 558.576 485.595 557.59 485.84 556.606C485.84 556.361 485.84 556.237 485.84 556.237C486.085 555.992 486.208 555.623 486.208 555.13C486.454 554.884 486.577 554.515 486.577 554.023C486.822 553.53 486.946 553.161 486.946 552.915C486.946 552.67 487.069 552.423 487.314 552.177C487.806 550.701 488.175 549.224 488.42 547.748C488.665 546.271 488.912 544.795 489.157 543.319C489.157 542.58 489.403 541.473 489.895 539.997C490.387 538.028 490.508 536.429 490.263 535.198C490.263 534.953 490.508 534.337 491.001 533.353C491.001 533.353 491.124 533.229 491.369 532.984C491.614 532.738 491.738 532.491 491.738 532.246C491.983 531.507 492.106 530.031 492.106 527.816C492.106 525.847 492.475 523.88 493.212 521.911C493.457 520.68 493.581 519.572 493.581 518.589C493.826 517.605 493.949 516.62 493.949 515.636C493.704 514.405 493.581 513.176 493.581 511.945C493.826 510.469 494.073 509.116 494.318 507.885C494.563 507.147 494.687 506.039 494.687 504.563L495.055 502.717C495.055 501.486 495.055 500.503 495.055 499.765C495.3 498.781 495.424 497.674 495.424 496.443V493.121V489.43ZM437.182 342.896C436.937 342.158 436.813 341.174 436.813 339.943C437.059 338.96 437.182 338.098 437.182 337.36C437.182 336.621 437.306 335.759 437.551 334.776C437.551 333.545 437.674 332.685 437.919 332.192C437.919 330.961 437.919 329.854 437.919 328.87C438.164 327.639 438.411 326.41 438.657 325.179L439.025 321.119V320.75C439.27 320.505 439.394 320.012 439.394 319.274L440.5 314.844C440.5 313.861 440.376 313.122 440.131 312.63L439.394 313.368C438.657 314.599 437.796 315.706 436.813 316.69C436.076 317.674 435.094 318.781 433.865 320.012C433.372 320.504 432.882 320.874 432.39 321.119C431.653 322.103 430.423 323.457 428.704 325.179C427.967 325.917 427.229 326.656 426.492 327.394C425.755 327.887 425.141 328.501 424.649 329.239C423.912 329.978 423.175 330.716 422.437 331.454C421.7 332.192 420.963 332.807 420.226 333.299C418.996 334.53 417.769 335.76 416.539 336.99C415.31 338.221 414.083 339.451 412.853 340.681C411.624 341.912 410.518 343.142 409.536 344.373C408.553 345.603 407.447 346.833 406.218 348.064C405.481 348.802 404.744 349.664 404.006 350.647C403.269 351.385 402.532 352.247 401.795 353.231C401.303 353.724 400.812 354.215 400.32 354.707C399.828 355.2 399.338 355.691 398.846 356.184L396.634 358.398C395.652 359.382 394.791 360.244 394.054 360.982C393.316 361.72 392.579 362.582 391.842 363.566L387.419 367.995L386.313 369.102C385.821 369.348 385.33 369.717 384.838 370.21L381.521 373.532C380.783 374.515 379.923 375.377 378.94 376.115L377.466 377.592L375.623 379.437C375.131 379.93 374.64 380.421 374.148 380.914C373.903 381.159 373.534 381.528 373.042 382.021L368.619 386.45C368.374 386.943 367.637 387.557 366.407 388.296L366.039 388.665H366.407C367.144 389.158 368.005 389.648 368.988 390.141C370.462 391.125 371.444 391.741 371.937 391.987C372.919 392.725 374.393 393.587 376.36 394.57C381.028 397.523 387.173 399.245 394.791 399.738C395.773 399.738 396.51 399.862 397.003 400.107C397.985 400.352 398.722 399.861 399.214 398.631C400.197 397.154 400.934 396.17 401.426 395.678L401.795 394.94L402.901 393.832C402.901 393.339 403.146 393.094 403.638 393.094C404.13 392.601 404.498 392.11 404.744 391.618C404.989 391.125 405.357 390.634 405.849 390.141C406.342 389.403 407.324 388.05 408.798 386.081L411.01 383.866C411.502 383.374 411.871 382.883 412.116 382.39C412.361 381.897 412.73 381.406 413.222 380.914C413.959 380.175 414.451 379.561 414.696 379.068C415.188 378.575 415.557 378.084 415.802 377.592C416.294 376.854 416.785 376.239 417.277 375.746L417.645 375.377V374.639L418.383 373.901C418.628 372.917 419.12 372.055 419.857 371.317C420.102 370.824 420.349 370.579 420.594 370.579C420.839 370.333 421.086 369.964 421.331 369.471C422.806 368.488 423.912 367.133 424.649 365.411C425.878 363.935 427.106 362.582 428.335 361.351C429.81 360.12 431.284 358.891 432.759 357.66C433.741 356.677 434.357 355.938 434.602 355.446C434.847 355.2 434.97 355.076 434.97 355.076C434.97 354.831 435.094 354.584 435.339 354.338V353.969C435.339 353.969 435.584 353.724 436.076 353.231C437.306 351.509 437.674 350.154 437.182 349.171V348.433V347.325V344.373V342.896Z" fill="white"/>
</g>
</g>
<defs>
<clipPath id="clip0_140_72">
<rect width="881" height="884" fill="white"/>
</clipPath>
</defs>
</svg>
