<svg width="886" height="886" viewBox="0 0 886 886" fill="none" xmlns="http://www.w3.org/2000/svg">
<g clip-path="url(#clip0_173_346)">
<rect width="886" height="886" fill="white"/>
<rect width="886" height="886" fill="#E61EAA"/>
<path d="M426.07 455.299C426.07 453.823 425.825 452.103 425.332 450.135C425.087 446.692 424.839 443.25 424.594 439.807C424.348 436.364 424.101 432.923 423.856 429.48C423.363 425.299 422.994 421.365 422.748 417.677C422.748 413.743 422.625 409.807 422.379 405.874C422.134 403.906 421.886 401.816 421.641 399.603C421.641 397.39 421.396 395.301 420.903 393.333C420.657 391.365 420.41 389.399 420.165 387.432C419.919 385.464 419.55 383.498 419.057 381.53C418.812 380.3 418.565 378.948 418.319 377.473C418.319 375.997 418.074 374.646 417.581 373.416C417.088 370.71 416.597 368.128 416.104 365.67C415.859 362.964 415.49 360.261 414.997 357.555C414.752 357.063 414.628 356.694 414.628 356.449C414.874 356.204 414.997 355.835 414.997 355.342C414.997 354.605 414.874 353.867 414.628 353.129C414.628 352.392 414.628 351.53 414.628 350.547C414.628 350.302 414.504 350.179 414.259 350.179C414.259 349.933 414.259 349.686 414.259 349.441C414.259 347.473 414.135 345.752 413.89 344.277C413.89 342.556 413.89 340.712 413.89 338.744V322.515V317.352C413.89 315.384 413.766 313.54 413.521 311.819C413.521 309.851 413.397 307.885 413.152 305.917C413.152 303.212 412.29 300.261 410.568 297.065C410.075 299.524 409.584 301.86 409.092 304.073C408.599 306.041 408.477 308.131 408.722 310.344V311.081C408.23 312.557 407.739 314.032 407.246 315.507C407.001 316.983 406.631 318.582 406.139 320.302C405.893 321.532 405.646 322.639 405.4 323.622C405.155 324.605 404.908 325.711 404.662 326.941C404.417 328.662 404.17 330.385 403.924 332.105C403.679 333.826 403.31 335.548 402.817 337.269C402.817 338.499 402.817 339.727 402.817 340.957C402.817 342.188 402.693 343.416 402.448 344.646C401.955 346.367 401.586 348.089 401.34 349.81C401.34 351.285 401.095 352.884 400.602 354.605C400.109 356.572 399.74 358.662 399.495 360.875C399.495 363.088 399.249 365.177 398.757 367.145L397.649 371.571C397.157 374.277 396.542 376.859 395.804 379.317C395.311 381.775 394.82 384.236 394.327 386.694C394.082 388.662 393.835 390.506 393.589 392.227C393.589 393.702 393.466 395.423 393.22 397.39L392.113 404.029C391.62 405.997 391.375 407.841 391.375 409.562C391.375 411.283 391.129 413.005 390.636 414.726C390.391 415.956 390.022 417.062 389.529 418.045C389.284 419.028 389.036 420.135 388.791 421.365C388.053 423.823 387.314 426.16 386.576 428.373C386.084 430.586 385.593 432.799 385.1 435.012C384.362 437.718 383.009 440.79 381.04 444.233C380.302 445.463 379.932 446.323 379.932 446.815C379.932 447.06 380.302 447.798 381.04 449.028C380.302 449.521 379.071 449.642 377.349 449.397C375.872 448.905 375.134 448.291 375.134 447.553C374.889 447.06 375.01 446.201 375.503 444.971C375.996 443.988 376.241 443.25 376.241 442.758C376.98 441.037 377.594 439.438 378.087 437.963C378.825 436.242 379.44 434.52 379.932 432.799C380.425 431.324 380.916 429.848 381.409 428.373C382.147 426.652 382.762 424.93 383.254 423.209C383.747 421.489 384.116 419.766 384.362 418.045C384.607 416.325 384.976 414.481 385.469 412.513C385.714 411.775 385.838 411.037 385.838 410.3C385.838 409.317 385.962 408.456 386.207 407.718V406.611C386.7 405.381 387.069 404.275 387.314 403.292C387.56 402.062 387.929 400.833 388.422 399.603C388.422 398.62 388.667 397.39 389.16 395.915C389.16 395.177 389.036 394.44 388.791 393.702C388.791 392.964 388.915 392.35 389.16 391.858C389.653 389.645 389.898 387.432 389.898 385.219C389.898 383.005 390.022 380.792 390.267 378.579C390.267 377.596 390.513 376.612 391.006 375.629C391.498 374.646 391.867 373.661 392.113 372.678C392.606 371.203 392.851 370.096 392.851 369.358C393.096 368.128 393.344 367.022 393.589 366.039C393.835 365.056 394.082 363.949 394.327 362.719C394.573 361.489 394.697 360.261 394.697 359.031C394.697 357.801 394.82 356.572 395.066 355.342L396.173 349.81C396.418 349.317 396.542 348.334 396.542 346.859C396.787 346.121 396.787 345.384 396.542 344.646C396.297 343.663 396.666 342.925 397.649 342.433C397.649 342.433 397.649 341.94 397.649 340.957C397.157 338.99 397.035 337.145 397.28 335.425C397.773 333.704 398.388 331.982 399.126 330.261C399.371 329.523 399.495 328.909 399.495 328.417C399.74 327.679 399.988 326.941 400.233 326.204C400.479 324.236 400.726 322.27 400.971 320.302C401.217 318.335 401.464 316.369 401.709 314.401L402.817 308.868C403.31 307.148 403.679 305.549 403.924 304.073C404.417 302.353 404.908 300.754 405.4 299.278L406.508 294.852L407.615 288.213C407.861 286.738 408.846 286 410.568 286C413.275 286.492 414.997 287.968 415.735 290.426C416.228 292.884 416.719 295.221 417.212 297.434C417.95 299.647 418.443 301.984 418.688 304.442C419.181 307.885 419.672 311.45 420.165 315.139C420.657 318.582 420.657 322.147 420.165 325.835C419.919 327.31 419.919 328.786 420.165 330.261C420.41 331.736 420.534 333.212 420.534 334.687V343.539C420.779 346.245 420.903 348.827 420.903 351.285C421.148 353.498 421.396 355.956 421.641 358.662C421.886 360.875 422.134 363.088 422.379 365.301C422.625 367.514 422.994 369.727 423.487 371.94C423.732 373.908 423.979 375.752 424.225 377.473C424.717 378.948 425.208 380.669 425.701 382.637C426.194 385.833 426.563 388.907 426.808 391.858C427.054 394.808 427.423 397.883 427.916 401.079C428.161 402.554 428.285 404.029 428.285 405.505C428.53 406.98 428.899 408.332 429.392 409.562V411.775V422.103C429.392 423.333 429.392 424.685 429.392 426.16C429.638 427.635 429.761 428.987 429.761 430.217C429.761 432.185 430.007 434.151 430.499 436.119C430.992 438.086 430.992 440.052 430.499 442.02C430.254 443.25 430.254 444.602 430.499 446.077C430.992 447.553 431.361 448.905 431.607 450.135C431.852 450.872 431.976 451.855 431.976 453.085C431.976 455.791 433.329 457.143 436.036 457.143C437.02 456.897 438.496 456.774 440.465 456.774C442.434 457.019 444.525 457.143 446.74 457.143C448.955 457.143 451.046 457.266 453.015 457.512C453.998 457.512 454.86 457.635 455.598 457.88C456.582 457.88 457.568 457.88 458.551 457.88H461.135C461.135 456.405 461.135 455.053 461.135 453.823C461.38 452.348 461.504 450.996 461.504 449.766C461.997 447.798 462.242 445.954 462.242 444.233C462.488 442.513 462.735 440.668 462.98 438.701V436.856C463.226 436.119 463.35 435.505 463.35 435.012C463.35 434.275 463.473 433.537 463.719 432.799C463.964 432.307 464.088 432.061 464.088 432.061C463.842 429.848 463.964 427.635 464.457 425.422C465.195 423.209 465.688 421.12 465.933 419.152C466.426 416.447 466.917 413.743 467.41 411.037C468.148 408.332 468.762 405.628 469.255 402.923C469.501 401.448 469.748 400.096 469.993 398.866C470.486 397.39 470.855 395.915 471.101 394.44C471.593 392.472 471.839 390.506 471.839 388.538C472.084 386.57 472.453 384.604 472.946 382.637C473.192 380.424 473.439 378.211 473.684 375.997C473.93 373.784 474.299 371.448 474.792 368.989C475.284 366.531 475.53 364.195 475.53 361.981C475.775 359.523 476.145 357.063 476.637 354.605C477.13 351.899 477.499 349.196 477.745 346.49C478.237 343.785 478.728 341.081 479.221 338.376C479.714 335.917 480.083 333.581 480.328 331.368C480.821 328.909 481.312 326.449 481.805 323.991C482.297 322.023 482.667 320.057 482.912 318.089C483.157 316.121 483.65 314.156 484.388 312.188C485.127 309.482 485.741 306.779 486.234 304.073C486.727 301.368 487.834 298.786 489.556 296.328C489.801 296.082 489.925 295.835 489.925 295.59C490.17 295.345 490.418 295.097 490.663 294.852C491.156 293.132 492.14 292.27 493.616 292.27C495.831 292.27 497.431 293.008 498.414 294.483C499.645 296.942 500.874 300.016 502.105 303.704C502.598 304.934 502.967 306.163 503.213 307.393C503.705 308.623 503.827 309.851 503.582 311.081C503.336 312.557 503.458 313.908 503.951 315.139C504.689 316.369 505.182 317.72 505.427 319.196C505.427 321.901 505.551 324.605 505.796 327.31C506.042 330.016 506.411 332.719 506.904 335.425C506.904 336.655 506.904 338.007 506.904 339.482C507.149 340.957 507.396 342.309 507.642 343.539L508.749 360.137C508.995 363.333 509.118 366.531 509.118 369.727C509.364 372.678 509.733 375.752 510.226 378.948C510.718 382.391 511.209 385.464 511.702 388.169C511.702 388.415 511.578 388.662 511.333 388.907C511.333 388.907 511.333 389.152 511.333 389.645C511.087 391.612 510.964 393.578 510.964 395.546C510.964 397.514 510.84 399.48 510.595 401.448C510.595 402.923 510.471 404.398 510.226 405.874C510.226 407.104 510.102 408.332 509.856 409.562C509.856 410.792 509.856 411.406 509.856 411.406C509.856 413.374 509.856 415.34 509.856 417.308C510.102 419.276 510.349 421.241 510.595 423.209C510.84 425.177 510.84 427.39 510.595 429.848C510.102 431.079 509.856 432.43 509.856 433.906C510.102 435.136 510.102 436.364 509.856 437.594C509.118 438.332 508.504 438.824 508.011 439.069C507.518 439.562 506.904 439.807 506.165 439.807C505.427 439.562 505.058 438.946 505.058 437.963V429.111C504.813 427.39 504.689 425.668 504.689 423.947C504.689 422.226 504.689 420.504 504.689 418.783C504.689 415.832 504.689 413.005 504.689 410.3C504.934 407.349 505.058 404.398 505.058 401.448C505.058 398.252 505.058 395.177 505.058 392.227C505.058 389.03 504.934 385.833 504.689 382.637C504.196 377.473 503.705 372.309 503.213 367.145C502.72 361.736 502.229 356.449 501.736 351.285C501.491 349.317 501.367 347.351 501.367 345.384C501.613 343.171 501.613 341.081 501.367 339.113C501.122 337.145 500.874 335.301 500.629 333.581C500.383 331.613 500.014 329.647 499.522 327.679C499.522 325.958 499.398 324.36 499.152 322.884C499.152 321.409 499.029 319.933 498.783 318.458C498.291 315.753 497.8 313.171 497.307 310.712C497.061 308.007 496.692 305.303 496.2 302.598C495.954 301.615 495.338 300.385 494.354 298.909H493.616C493.37 299.647 493.123 300.385 492.878 301.123C492.632 301.86 492.385 302.598 492.14 303.336C491.894 304.073 491.647 304.934 491.401 305.917C491.401 306.655 491.278 307.393 491.032 308.131C490.539 310.098 490.049 311.943 489.556 313.663C489.31 315.139 488.941 316.859 488.449 318.827C487.956 320.548 487.465 322.147 486.972 323.622C486.727 325.097 486.479 326.573 486.234 328.048C485.988 329.278 485.865 330.385 485.865 331.368C485.865 332.351 485.741 333.335 485.496 334.318C485.003 336.286 484.512 338.376 484.019 340.589C483.527 342.556 483.036 344.522 482.543 346.49C483.281 347.72 483.527 348.948 483.281 350.179C483.281 351.161 483.036 352.268 482.543 353.498C482.297 353.99 482.174 354.605 482.174 355.342C482.174 355.835 482.05 356.325 481.805 356.818C481.805 357.31 481.681 357.679 481.436 357.924C481.436 357.924 481.436 358.169 481.436 358.662C480.943 361.613 480.574 364.563 480.328 367.514C480.083 370.22 479.714 373.047 479.221 375.997C478.976 377.718 478.728 379.317 478.483 380.792C478.483 382.268 478.359 383.743 478.114 385.219V386.325C477.13 387.8 476.637 389.399 476.637 391.12C476.637 392.595 476.392 394.194 475.899 395.915C474.915 399.111 474.299 401.94 474.054 404.398C473.808 404.891 473.684 405.381 473.684 405.874C473.93 406.366 473.93 406.857 473.684 407.349C473.684 408.579 473.439 410.176 472.946 412.144C472.701 414.112 472.084 416.447 471.101 419.152C470.117 421.857 469.501 424.316 469.255 426.529C469.01 427.759 468.762 428.987 468.517 430.217C468.517 431.447 468.762 432.676 469.255 433.906C469.501 435.136 469.501 436.242 469.255 437.225C469.01 437.963 468.762 438.824 468.517 439.807C468.024 441.775 467.533 443.864 467.041 446.077C466.548 448.045 466.179 450.011 465.933 451.979C465.688 452.717 465.688 453.578 465.933 454.561C466.179 455.299 466.426 456.281 466.671 457.512C467.902 457.512 469.132 457.635 470.363 457.88C471.593 457.88 472.946 457.757 474.423 457.512C475.654 457.512 476.268 456.897 476.268 455.667C476.761 454.192 477.13 452.84 477.375 451.61C477.621 450.135 477.375 448.536 476.637 446.815C475.899 443.864 476.023 440.914 477.006 437.963C477.499 435.505 477.99 433.168 478.483 430.955C479.221 428.742 479.714 426.405 479.959 423.947C480.205 422.226 480.452 420.627 480.697 419.152C481.19 417.431 481.681 415.587 482.174 413.619C482.667 412.636 482.912 411.775 482.912 411.037C482.667 409.07 482.788 407.349 483.281 405.874C483.774 404.153 484.265 402.309 484.757 400.341C485.003 399.111 485.127 398.004 485.127 397.021C485.127 395.791 485.127 394.563 485.127 393.333C485.372 392.595 485.496 391.981 485.496 391.489C485.741 390.751 486.358 390.259 487.341 390.013C487.341 388.538 487.465 387.555 487.71 387.063C488.203 385.587 488.572 384.357 488.818 383.374C489.31 381.654 490.049 380.792 491.032 380.792C492.263 381.038 493.247 381.161 493.985 381.161C494.969 381.161 495.831 381.654 496.569 382.637C497.8 384.357 498.414 386.08 498.414 387.8C498.66 389.276 498.907 390.996 499.152 392.964C499.398 395.177 499.522 397.39 499.522 399.603C499.767 401.816 500.014 404.153 500.26 406.611C500.26 408.332 500.26 410.055 500.26 411.775C500.505 413.496 500.505 415.34 500.26 417.308C499.767 419.028 499.645 420.627 499.891 422.103C500.383 423.578 500.383 425.177 499.891 426.898V429.48C500.136 432.43 500.26 435.381 500.26 438.332C500.505 441.037 500.753 443.864 500.998 446.815C500.998 448.536 500.26 449.521 498.783 449.766C497.062 449.766 496.076 449.028 495.831 447.553C495.338 445.585 494.847 443.496 494.354 441.283C493.861 439.069 493.861 436.856 494.354 434.643C494.847 433.413 494.847 432.185 494.354 430.955C494.109 429.48 493.861 428.004 493.616 426.529V425.422C493.616 422.717 493.616 420.013 493.616 417.308C493.616 414.602 493.861 411.899 494.354 409.193C494.847 406.735 494.723 404.398 493.985 402.185C493.492 399.727 493.247 397.267 493.247 394.808C493.247 394.071 493.247 393.333 493.247 392.595C493.247 391.612 493.123 390.628 492.878 389.645H492.509C492.016 391.612 491.525 393.578 491.032 395.546C490.539 397.514 490.049 399.48 489.556 401.448C488.818 404.153 488.449 406.857 488.449 409.562C488.449 412.02 488.203 414.602 487.71 417.308C487.71 417.8 487.587 418.045 487.341 418.045C485.865 420.504 485.003 423.086 484.757 425.791C484.512 428.497 484.143 431.2 483.65 433.906C483.157 435.626 482.912 437.471 482.912 439.438C483.157 441.159 483.281 442.881 483.281 444.602C482.788 448.045 482.297 450.749 481.805 452.717C481.805 453.209 481.681 453.823 481.436 454.561C481.436 455.299 481.436 455.913 481.436 456.405C481.436 457.388 481.681 457.88 482.174 457.88C482.667 457.88 483.157 457.88 483.65 457.88C485.619 457.88 487.465 457.88 489.187 457.88C491.156 457.88 493.123 458.004 495.092 458.249C498.045 458.249 501.243 458.618 504.689 459.356C505.92 459.601 507.273 459.725 508.749 459.725C510.226 459.725 511.702 459.97 513.178 460.462C515.148 460.955 515.517 462.183 514.286 464.151L508.749 473.003C507.518 475.216 506.165 477.429 504.689 479.642C503.458 481.61 502.229 483.699 500.998 485.912C500.505 486.65 500.136 487.388 499.891 488.125C499.891 488.863 499.645 489.724 499.152 490.707H500.998C501.491 491.2 501.86 491.69 502.105 492.183C501.367 492.92 500.998 493.289 500.998 493.289C498.783 494.027 497.676 495.379 497.676 497.347C497.676 499.314 497.552 501.28 497.307 503.248C497.061 504.969 496.938 506.813 496.938 508.781C496.692 511.239 496.445 513.576 496.2 515.789C496.2 518.002 496.076 520.338 495.831 522.797C495.585 526.24 495.461 529.559 495.461 532.755C495.461 535.706 495.338 538.902 495.092 542.345C495.092 544.804 495.092 547.264 495.092 549.722C495.338 552.18 495.338 554.641 495.092 557.099C495.092 559.804 494.969 562.386 494.723 564.845C494.478 567.058 494.109 569.516 493.616 572.221C493.37 574.189 493.123 576.155 492.878 578.123C492.632 580.091 492.263 582.18 491.77 584.393C495.216 584.886 497.8 585.376 499.522 585.869C500.014 586.114 500.383 586.361 500.629 586.606C501.122 586.852 501.613 587.099 502.105 587.344C501.613 587.589 501.122 587.836 500.629 588.082C500.383 588.574 500.014 588.819 499.522 588.819C498.045 588.819 496.323 588.574 494.354 588.082C493.123 587.589 492.385 587.468 492.14 587.713C491.894 587.958 491.77 588.696 491.77 589.926C491.77 591.156 491.77 592.384 491.77 593.614C491.77 594.844 491.894 596.073 492.14 597.303C492.14 598.778 491.647 599.516 490.663 599.516C488.203 600.008 486.972 599.516 486.972 598.04V588.451C486.972 586.975 486.479 585.992 485.496 585.5C481.312 584.27 477.745 582.673 474.792 580.705C471.839 579.475 470.239 577.262 469.993 574.066C469.993 573.82 469.748 572.959 469.255 571.484C468.024 568.533 467.164 564.968 466.671 560.787C465.933 557.099 465.81 552.918 466.302 548.247C466.548 546.771 466.548 545.296 466.302 543.821C466.057 542.345 465.933 540.87 465.933 539.395V536.813C465.933 535.583 465.933 534.476 465.933 533.493C465.933 532.263 466.057 531.035 466.302 529.805C466.302 528.575 466.179 527.468 465.933 526.485C465.688 525.502 465.564 524.517 465.564 523.534C465.319 522.304 465.441 520.46 465.933 518.002C466.179 516.772 466.179 515.789 465.933 515.051C465.688 514.068 465.688 512.961 465.933 511.731C466.426 509.273 466.671 506.813 466.671 504.355C466.917 501.896 467.655 499.436 468.886 496.978C469.624 495.748 469.132 495.133 467.41 495.133H458.551C457.32 495.133 455.968 495.133 454.491 495.133C453.26 494.888 452.031 494.641 450.8 494.396C449.569 494.396 448.216 494.396 446.74 494.396C445.509 494.396 444.28 494.272 443.049 494.027C441.573 493.782 440.096 493.658 438.62 493.658C437.143 493.413 435.667 493.289 434.19 493.289C431.73 492.797 429.392 492.552 427.178 492.552C424.963 492.306 422.748 491.937 420.534 491.445C417.088 490.953 413.644 490.462 410.199 489.97C406.753 489.232 403.31 488.618 399.864 488.125C396.911 487.633 393.958 487.019 391.006 486.281C388.298 485.544 385.593 484.929 382.885 484.437C381.902 484.192 380.916 484.192 379.932 484.437C379.194 484.437 378.211 484.437 376.98 484.437C372.55 484.437 370.581 482.224 371.074 477.798C371.319 476.568 371.443 475.216 371.443 473.741C371.443 472.265 371.443 470.79 371.443 469.315L372.55 459.356V453.454C372.55 451.487 373.412 450.504 375.134 450.504C376.365 450.258 377.472 450.258 378.456 450.504C379.44 450.504 380.547 450.38 381.778 450.135C385.469 449.642 389.16 449.642 392.851 450.135C396.542 450.38 400.233 450.749 403.924 451.241C406.139 451.487 408.23 451.734 410.199 451.979C412.413 452.224 414.504 452.717 416.474 453.454C417.95 454.192 419.426 454.561 420.903 454.561C422.625 454.316 424.225 454.684 425.701 455.667C425.947 455.667 426.07 455.544 426.07 455.299ZM508.749 462.675C506.78 462.43 504.813 462.183 502.843 461.938C501.122 461.692 499.276 461.445 497.307 461.2C496.076 460.955 494.723 460.831 493.247 460.831C492.016 460.586 490.787 460.462 489.556 460.462C487.587 460.462 485.741 460.586 484.019 460.831C482.297 460.831 480.452 460.955 478.483 461.2H477.006C474.792 460.462 472.577 460.217 470.363 460.462C468.393 460.708 466.302 460.708 464.088 460.462C462.366 460.217 460.642 460.217 458.92 460.462C457.444 460.462 455.844 460.462 454.122 460.462C451.415 460.462 448.709 460.462 446.002 460.462C443.294 460.217 440.589 459.97 437.882 459.725C435.912 459.479 434.067 459.356 432.345 459.356C430.623 459.356 428.899 459.11 427.178 458.618C424.47 458.126 421.886 457.635 419.426 457.143C417.212 456.65 414.752 456.16 412.044 455.667C409.337 455.175 406.508 454.806 403.555 454.561C400.848 454.316 398.142 454.068 395.435 453.823C392.482 453.331 389.529 453.085 386.576 453.085C383.869 453.085 381.04 453.331 378.087 453.823C377.103 454.068 376.611 454.684 376.611 455.667C376.611 456.65 376.487 457.635 376.241 458.618C376.241 459.356 376.241 460.217 376.241 461.2C375.996 462.675 375.749 464.151 375.503 465.626C375.258 466.856 375.134 468.084 375.134 469.315C374.889 470.79 374.765 472.389 374.765 474.109C375.01 475.585 375.258 477.06 375.503 478.536C375.503 480.256 376.365 481.117 378.087 481.117C380.302 481.117 381.902 481.241 382.885 481.486C384.854 481.979 386.576 482.469 388.053 482.962C389.775 483.207 391.498 483.576 393.22 484.068C395.189 484.561 397.035 484.929 398.757 485.175C400.479 485.42 402.202 485.789 403.924 486.281C405.4 486.527 406.877 486.895 408.353 487.388C409.83 487.633 411.43 487.88 413.152 488.125C415.859 488.618 418.688 488.987 421.641 489.232C424.594 489.477 427.423 489.724 430.13 489.97C431.852 490.215 433.576 490.462 435.298 490.707C437.02 490.707 438.743 490.831 440.465 491.076C442.925 491.321 445.264 491.569 447.478 491.814C449.693 491.814 452.031 491.814 454.491 491.814C456.706 492.059 458.92 492.183 461.135 492.183C463.35 492.183 465.441 492.183 467.41 492.183C469.132 492.675 469.993 492.059 469.993 490.339L471.101 482.593C471.101 480.872 471.839 480.011 473.315 480.011C474.546 480.011 475.53 480.011 476.268 480.011C477.252 479.766 478.359 479.642 479.59 479.642C481.312 479.642 482.912 479.766 484.388 480.011C485.865 480.011 487.465 480.011 489.187 480.011H496.938C498.907 480.011 500.014 479.273 500.26 477.798C500.505 477.305 500.753 476.937 500.998 476.691C501.243 476.199 501.491 475.708 501.736 475.216C502.474 474.233 503.213 473.248 503.951 472.265C504.689 471.282 505.427 470.176 506.165 468.946C506.658 467.963 507.027 466.978 507.273 465.995C507.766 465.012 508.256 463.905 508.749 462.675ZM487.341 582.549C487.587 581.566 487.71 580.705 487.71 579.967C487.71 578.984 487.834 578.123 488.079 577.385C488.572 575.417 488.818 573.573 488.818 571.853C489.063 569.885 489.31 567.919 489.556 565.951C489.801 563.246 490.049 560.664 490.294 558.205C490.539 555.5 490.418 552.796 489.925 550.091V549.722C490.17 546.034 490.418 542.345 490.663 538.657C490.909 534.968 491.156 531.28 491.401 527.592C491.647 524.148 491.77 520.707 491.77 517.264C491.77 513.576 492.016 510.011 492.509 506.568C492.754 505.585 492.385 504.723 491.401 503.986C490.663 503.74 490.294 503.003 490.294 501.773C490.787 499.314 491.278 497.47 491.77 496.24C492.509 494.765 492.14 494.027 490.663 494.027H488.818C486.603 494.027 484.388 494.151 482.174 494.396C480.205 494.396 478.237 494.396 476.268 494.396C474.054 494.641 472.823 495.626 472.577 497.347C472.084 499.56 471.715 501.773 471.47 503.986C471.224 506.199 470.977 508.412 470.732 510.625C470.486 512.593 470.363 514.437 470.363 516.157C470.363 517.878 470.363 519.722 470.363 521.69C470.363 523.411 470.363 525.133 470.363 526.854C470.608 528.329 470.732 529.805 470.732 531.28C470.732 535.461 470.732 539.518 470.732 543.452C470.732 547.385 470.855 551.443 471.101 555.624C471.346 558.082 471.593 560.542 471.839 563C472.084 565.213 472.453 567.55 472.946 570.008C473.93 573.452 475.654 576.402 478.114 578.861C480.821 581.074 483.896 582.304 487.341 582.549ZM494.723 482.962C494.478 482.716 494.23 482.593 493.985 482.593H477.745C477.252 482.593 476.637 482.962 475.899 483.699C475.406 484.929 475.037 486.281 474.792 487.757C474.792 488.987 474.546 490.339 474.054 491.814H476.637C479.345 491.569 481.928 491.445 484.388 491.445C487.096 491.445 489.801 491.321 492.509 491.076C493.492 491.076 494.23 490.584 494.723 489.601V482.962ZM392.113 428.004C392.358 426.774 392.358 425.668 392.113 424.685C391.867 423.702 391.989 422.595 392.482 421.365C392.975 420.382 393.466 419.521 393.958 418.783C394.451 417.8 394.451 416.694 393.958 415.464C393.713 414.481 393.835 413.496 394.327 412.513C394.82 411.53 395.311 410.423 395.804 409.193C396.297 407.718 396.788 406.366 397.28 405.136C398.018 403.661 398.633 402.185 399.126 400.71C399.371 400.217 399.371 399.727 399.126 399.235C399.126 398.742 399.126 398.252 399.126 397.759C398.388 395.791 398.88 394.071 400.602 392.595C399.371 391.365 399.002 390.382 399.495 389.645C400.233 388.662 400.848 387.8 401.34 387.063C401.833 385.342 402.079 383.743 402.079 382.268C402.324 380.792 402.571 379.193 402.817 377.473C402.817 376.49 402.693 375.629 402.448 374.891C402.202 374.153 402.079 373.292 402.079 372.309C401.833 371.817 401.709 371.079 401.709 370.096C402.448 370.096 403.062 370.096 403.555 370.096C404.293 369.851 405.031 369.727 405.77 369.727C407.001 369.972 407.615 370.588 407.615 371.571C407.861 372.309 408.108 373.047 408.353 373.784C408.599 377.228 408.722 380.547 408.722 383.743C408.722 386.939 408.846 390.137 409.092 393.333C409.092 402.923 409.461 412.268 410.199 421.365C410.199 423.333 410.444 425.299 410.937 427.267C411.43 428.987 411.799 430.831 412.044 432.799C412.29 434.275 412.413 435.75 412.413 437.225C412.413 438.701 412.537 440.176 412.783 441.651C412.783 442.389 412.906 443.127 413.152 443.864C413.397 444.357 413.521 444.971 413.521 445.709C413.521 447.184 413.397 448.045 413.152 448.291C411.43 448.783 410.199 448.905 409.461 448.659C409.215 448.414 409.092 448.045 409.092 447.553C409.092 447.06 408.968 446.57 408.722 446.077C407.739 444.11 407.122 442.513 406.877 441.283C406.631 440.052 406.384 438.824 406.139 437.594C405.893 436.119 405.77 434.767 405.77 433.537C405.524 431.569 405.4 429.848 405.4 428.373C405.4 426.652 405.155 424.808 404.662 422.84C403.431 418.907 402.94 415.34 403.186 412.144C403.679 410.423 403.924 408.824 403.924 407.349C403.924 405.628 403.924 403.906 403.924 402.185C403.924 401.94 403.8 401.693 403.555 401.448C403.555 401.202 403.555 400.955 403.555 400.71C403.062 400.465 402.817 400.341 402.817 400.341C402.817 400.833 402.693 401.202 402.448 401.448L398.018 420.259C397.28 422.964 396.542 425.546 395.804 428.004C395.066 430.463 394.451 433.044 393.958 435.75C392.727 439.438 392.727 443.127 393.958 446.815C394.204 447.308 394.204 447.676 393.958 447.922C393.713 448.167 393.589 448.414 393.589 448.659C391.867 448.659 391.006 448.414 391.006 447.922C390.513 446.692 390.022 445.585 389.529 444.602C389.036 443.372 389.036 441.897 389.529 440.176C390.022 438.946 390.144 437.594 389.898 436.119C389.898 434.398 390.022 432.799 390.267 431.324C390.513 430.586 391.129 429.48 392.113 428.004Z" fill="white"/>
</g>
<defs>
<clipPath id="clip0_173_346">
<rect width="886" height="886" fill="white"/>
</clipPath>
</defs>
</svg>
