<svg width="884" height="876" viewBox="0 0 884 876" fill="none" xmlns="http://www.w3.org/2000/svg">
<g clip-path="url(#clip0_140_148)">
<mask id="mask0_140_148" style="mask-type:luminance" maskUnits="userSpaceOnUse" x="0" y="0" width="884" height="876">
<path d="M884 0H0V876H884V0Z" fill="white"/>
</mask>
<g mask="url(#mask0_140_148)">
<path d="M884 -7.37695H1.8457V877.844H884V-7.37695Z" fill="#E61EAA"/>
<path d="M430.373 456.257C430.373 454.782 430.128 453.061 429.635 451.094C429.39 447.651 429.142 444.209 428.897 440.766C428.652 437.323 428.404 433.882 428.159 430.439C427.666 426.258 427.297 422.324 427.052 418.636C427.052 414.702 426.928 410.766 426.682 406.833C426.437 404.865 426.19 402.775 425.944 400.562C425.944 398.349 425.699 396.26 425.206 394.292C424.961 392.324 424.713 390.358 424.468 388.391C424.222 386.423 423.853 384.457 423.36 382.489C423.115 381.259 422.868 379.907 422.622 378.432C422.622 376.956 422.377 375.605 421.884 374.375C421.391 371.669 420.9 369.087 420.408 366.629C420.162 363.923 419.793 361.22 419.3 358.514C419.055 358.022 418.931 357.653 418.931 357.408C419.177 357.163 419.3 356.794 419.3 356.301C419.3 355.564 419.177 354.826 418.931 354.088C418.931 353.351 418.931 352.489 418.931 351.506C418.931 351.261 418.808 351.137 418.562 351.137C418.562 350.892 418.562 350.645 418.562 350.4C418.562 348.432 418.439 346.711 418.193 345.236C418.193 343.515 418.193 341.671 418.193 339.703V323.474V318.311C418.193 316.343 418.069 314.499 417.824 312.778C417.824 310.81 417.7 308.844 417.455 306.876C417.455 304.171 416.593 301.22 414.871 298.024C414.378 300.483 413.887 302.819 413.395 305.032C412.902 307 412.78 309.09 413.026 311.303V312.04C412.533 313.516 412.042 314.991 411.549 316.466C411.304 317.942 410.935 319.541 410.442 321.261C410.196 322.491 409.949 323.598 409.704 324.581C409.458 325.564 409.211 326.67 408.966 327.9C408.72 329.621 408.473 331.344 408.227 333.064C407.982 334.785 407.613 336.507 407.12 338.228C407.12 339.458 407.12 340.686 407.12 341.916C407.12 343.147 406.996 344.375 406.751 345.605C406.258 347.326 405.889 349.048 405.644 350.769C405.644 352.244 405.398 353.843 404.905 355.564C404.413 357.531 404.044 359.621 403.798 361.834C403.798 364.047 403.553 366.136 403.06 368.104L401.953 372.53C401.46 375.236 400.845 377.818 400.107 380.276C399.614 382.734 399.123 385.195 398.631 387.653C398.385 389.621 398.138 391.465 397.892 393.185C397.892 394.661 397.769 396.382 397.523 398.349L396.416 404.988C395.923 406.956 395.678 408.8 395.678 410.521C395.678 412.242 395.432 413.964 394.94 415.685C394.694 416.915 394.325 418.021 393.832 419.004C393.587 419.987 393.34 421.094 393.094 422.324C392.356 424.782 391.618 427.119 390.88 429.332C390.387 431.545 389.896 433.758 389.403 435.971C388.665 438.677 387.312 441.749 385.343 445.192C384.605 446.422 384.236 447.282 384.236 447.774C384.236 448.019 384.605 448.757 385.343 449.987C384.605 450.48 383.374 450.601 381.652 450.356C380.176 449.864 379.437 449.249 379.437 448.512C379.192 448.019 379.314 447.16 379.806 445.93C380.299 444.947 380.545 444.209 380.545 443.717C381.283 441.996 381.897 440.397 382.39 438.922C383.128 437.201 383.743 435.479 384.236 433.758C384.728 432.283 385.219 430.807 385.712 429.332C386.45 427.611 387.065 425.889 387.558 424.168C388.05 422.448 388.419 420.725 388.665 419.004C388.91 417.284 389.279 415.44 389.772 413.472C390.018 412.734 390.141 411.996 390.141 411.259C390.141 410.276 390.265 409.415 390.51 408.677V407.57C391.003 406.34 391.372 405.234 391.618 404.251C391.863 403.021 392.232 401.792 392.725 400.562C392.725 399.579 392.97 398.349 393.463 396.874C393.463 396.136 393.34 395.399 393.094 394.661C393.094 393.923 393.218 393.309 393.463 392.817C393.956 390.604 394.201 388.391 394.201 386.177C394.201 383.964 394.325 381.751 394.571 379.538C394.571 378.555 394.816 377.571 395.309 376.588C395.801 375.605 396.171 374.62 396.416 373.637C396.909 372.162 397.154 371.055 397.154 370.317C397.4 369.087 397.647 367.981 397.892 366.998C398.138 366.015 398.385 364.908 398.631 363.678C398.876 362.448 399 361.22 399 359.99C399 358.76 399.123 357.531 399.369 356.301L400.476 350.769C400.722 350.276 400.845 349.293 400.845 347.818C401.091 347.08 401.091 346.343 400.845 345.605C400.6 344.622 400.969 343.884 401.953 343.392C401.953 343.392 401.953 342.899 401.953 341.916C401.46 339.949 401.338 338.104 401.583 336.384C402.076 334.663 402.691 332.941 403.429 331.22C403.674 330.482 403.798 329.868 403.798 329.376C404.044 328.638 404.291 327.9 404.536 327.163C404.782 325.195 405.029 323.229 405.275 321.261C405.52 319.294 405.767 317.328 406.013 315.36L407.12 309.827C407.613 308.107 407.982 306.508 408.227 305.032C408.72 303.312 409.211 301.713 409.704 300.237L410.811 295.811L411.918 289.172C412.164 287.697 413.149 286.959 414.871 286.959C417.579 287.451 419.3 288.927 420.039 291.385C420.531 293.843 421.022 296.18 421.515 298.393C422.253 300.606 422.746 302.943 422.991 305.401C423.484 308.844 423.975 312.409 424.468 316.097C424.961 319.541 424.961 323.105 424.468 326.794C424.222 328.269 424.222 329.745 424.468 331.22C424.713 332.695 424.837 334.171 424.837 335.646V344.498C425.082 347.204 425.206 349.786 425.206 352.244C425.451 354.457 425.699 356.915 425.944 359.621C426.19 361.834 426.437 364.047 426.682 366.26C426.928 368.473 427.297 370.686 427.79 372.899C428.035 374.867 428.282 376.711 428.528 378.432C429.021 379.907 429.512 381.628 430.004 383.596C430.497 386.792 430.866 389.866 431.112 392.817C431.357 395.767 431.726 398.842 432.219 402.038C432.464 403.513 432.588 404.988 432.588 406.464C432.834 407.939 433.203 409.291 433.695 410.521V412.734V423.062C433.695 424.292 433.695 425.644 433.695 427.119C433.941 428.594 434.064 429.946 434.064 431.176C434.064 433.144 434.31 435.11 434.803 437.078C435.295 439.045 435.295 441.011 434.803 442.979C434.557 444.209 434.557 445.561 434.803 447.036C435.295 448.512 435.665 449.864 435.91 451.094C436.155 451.831 436.279 452.814 436.279 454.044C436.279 456.75 437.632 458.102 440.339 458.102C441.323 457.856 442.799 457.733 444.768 457.733C446.738 457.978 448.829 458.102 451.043 458.102C453.258 458.102 455.349 458.225 457.318 458.471C458.302 458.471 459.163 458.594 459.902 458.839C460.885 458.839 461.871 458.839 462.854 458.839H465.438C465.438 457.364 465.438 456.012 465.438 454.782C465.684 453.307 465.807 451.955 465.807 450.725C466.3 448.757 466.545 446.913 466.545 445.192C466.791 443.472 467.038 441.627 467.284 439.66V437.815C467.529 437.078 467.653 436.464 467.653 435.971C467.653 435.233 467.776 434.496 468.022 433.758C468.267 433.266 468.391 433.02 468.391 433.02C468.146 430.807 468.267 428.594 468.76 426.381C469.498 424.168 469.991 422.079 470.237 420.111C470.729 417.406 471.22 414.702 471.713 411.996C472.451 409.291 473.066 406.587 473.558 403.882C473.804 402.407 474.051 401.055 474.297 399.825C474.789 398.349 475.158 396.874 475.404 395.399C475.897 393.431 476.142 391.465 476.142 389.497C476.388 387.529 476.757 385.563 477.249 383.596C477.495 381.383 477.742 379.169 477.988 376.956C478.233 374.743 478.602 372.407 479.095 369.948C479.588 367.49 479.833 365.154 479.833 362.94C480.079 360.482 480.448 358.022 480.94 355.564C481.433 352.858 481.802 350.155 482.048 347.449C482.541 344.744 483.031 342.04 483.524 339.335C484.017 336.876 484.386 334.54 484.631 332.327C485.124 329.868 485.615 327.408 486.108 324.95C486.601 322.982 486.97 321.016 487.215 319.048C487.461 317.08 487.953 315.115 488.692 313.147C489.43 310.441 490.044 307.738 490.537 305.032C491.03 302.327 492.137 299.745 493.859 297.287C494.105 297.041 494.228 296.794 494.228 296.549C494.474 296.304 494.721 296.056 494.966 295.811C495.459 294.091 496.443 293.229 497.919 293.229C500.134 293.229 501.734 293.967 502.717 295.442C503.948 297.901 505.178 300.975 506.409 304.663C506.901 305.893 507.27 307.122 507.516 308.352C508.009 309.582 508.13 310.81 507.885 312.04C507.639 313.516 507.761 314.867 508.254 316.097C508.992 317.328 509.485 318.679 509.73 320.155C509.73 322.86 509.854 325.564 510.1 328.269C510.345 330.975 510.714 333.678 511.207 336.384C511.207 337.614 511.207 338.966 511.207 340.441C511.452 341.916 511.7 343.268 511.945 344.498L513.052 361.096C513.298 364.292 513.421 367.49 513.421 370.686C513.667 373.637 514.036 376.711 514.529 379.907C515.021 383.35 515.512 386.423 516.005 389.128C516.005 389.374 515.882 389.621 515.636 389.866C515.636 389.866 515.636 390.111 515.636 390.604C515.391 392.571 515.267 394.537 515.267 396.505C515.267 398.473 515.143 400.439 514.898 402.407C514.898 403.882 514.774 405.357 514.529 406.833C514.529 408.063 514.405 409.291 514.16 410.521C514.16 411.751 514.16 412.365 514.16 412.365C514.16 414.333 514.16 416.299 514.16 418.267C514.405 420.235 514.652 422.2 514.898 424.168C515.143 426.136 515.143 428.349 514.898 430.807C514.405 432.037 514.16 433.389 514.16 434.865C514.405 436.095 514.405 437.323 514.16 438.553C513.421 439.291 512.807 439.783 512.314 440.028C511.821 440.521 511.207 440.766 510.469 440.766C509.73 440.521 509.361 439.905 509.361 438.922V430.07C509.116 428.349 508.992 426.627 508.992 424.906C508.992 423.185 508.992 421.463 508.992 419.742C508.992 416.791 508.992 413.964 508.992 411.259C509.238 408.308 509.361 405.357 509.361 402.407C509.361 399.211 509.361 396.136 509.361 393.185C509.361 389.989 509.238 386.792 508.992 383.596C508.499 378.432 508.009 373.268 507.516 368.104C507.023 362.695 506.532 357.408 506.039 352.244C505.794 350.276 505.67 348.31 505.67 346.343C505.916 344.13 505.916 342.04 505.67 340.072C505.425 338.104 505.178 336.26 504.932 334.54C504.687 332.572 504.318 330.606 503.825 328.638C503.825 326.917 503.701 325.319 503.456 323.843C503.456 322.368 503.332 320.892 503.087 319.417C502.594 316.712 502.103 314.13 501.61 311.671C501.365 308.966 500.996 306.262 500.503 303.557C500.257 302.574 499.641 301.344 498.657 299.868H497.919C497.674 300.606 497.426 301.344 497.181 302.082C496.935 302.819 496.688 303.557 496.443 304.295C496.197 305.032 495.95 305.893 495.705 306.876C495.705 307.614 495.581 308.352 495.335 309.09C494.843 311.057 494.352 312.901 493.859 314.622C493.614 316.098 493.244 317.818 492.752 319.786C492.259 321.507 491.768 323.105 491.275 324.581C491.03 326.056 490.783 327.532 490.537 329.007C490.292 330.237 490.168 331.344 490.168 332.327C490.168 333.31 490.044 334.294 489.799 335.277C489.306 337.245 488.815 339.335 488.323 341.548C487.83 343.515 487.339 345.481 486.846 347.449C487.584 348.679 487.83 349.907 487.584 351.137C487.584 352.12 487.339 353.227 486.846 354.457C486.601 354.949 486.477 355.564 486.477 356.301C486.477 356.794 486.353 357.284 486.108 357.777C486.108 358.269 485.984 358.638 485.739 358.883C485.739 358.883 485.739 359.128 485.739 359.621C485.246 362.572 484.877 365.522 484.631 368.473C484.386 371.179 484.017 374.006 483.524 376.956C483.279 378.677 483.031 380.276 482.786 381.751C482.786 383.227 482.662 384.702 482.417 386.177V387.284C481.433 388.759 480.94 390.358 480.94 392.079C480.94 393.554 480.695 395.153 480.202 396.874C479.219 400.07 478.602 402.899 478.357 405.357C478.111 405.85 477.988 406.34 477.988 406.833C478.233 407.325 478.233 407.816 477.988 408.308C477.988 409.538 477.742 411.135 477.249 413.103C477.004 415.071 476.388 417.406 475.404 420.111C474.42 422.816 473.804 425.275 473.558 427.488C473.313 428.718 473.066 429.946 472.82 431.176C472.82 432.406 473.066 433.635 473.558 434.865C473.804 436.095 473.804 437.201 473.558 438.184C473.313 438.922 473.066 439.783 472.82 440.766C472.327 442.734 471.837 444.823 471.344 447.036C470.851 449.004 470.482 450.97 470.237 452.938C469.991 453.676 469.991 454.537 470.237 455.52C470.482 456.257 470.729 457.24 470.975 458.471C472.206 458.471 473.435 458.594 474.666 458.839C475.897 458.839 477.249 458.716 478.726 458.471C479.957 458.471 480.571 457.856 480.571 456.626C481.064 455.151 481.433 453.799 481.679 452.569C481.924 451.094 481.679 449.495 480.94 447.774C480.202 444.823 480.326 441.873 481.31 438.922C481.802 436.464 482.293 434.127 482.786 431.914C483.524 429.701 484.017 427.364 484.262 424.906C484.508 423.185 484.755 421.586 485.001 420.111C485.493 418.39 485.984 416.546 486.477 414.578C486.97 413.595 487.215 412.734 487.215 411.996C486.97 410.029 487.092 408.308 487.584 406.833C488.077 405.112 488.568 403.268 489.061 401.3C489.306 400.07 489.43 398.963 489.43 397.98C489.43 396.75 489.43 395.522 489.43 394.292C489.675 393.554 489.799 392.94 489.799 392.448C490.044 391.71 490.661 391.218 491.644 390.972C491.644 389.497 491.768 388.514 492.014 388.022C492.506 386.546 492.875 385.316 493.121 384.333C493.614 382.613 494.352 381.751 495.335 381.751C496.566 381.997 497.55 382.12 498.288 382.12C499.272 382.12 500.134 382.613 500.872 383.596C502.103 385.316 502.717 387.039 502.717 388.759C502.963 390.235 503.21 391.955 503.456 393.923C503.701 396.136 503.825 398.349 503.825 400.562C504.07 402.775 504.318 405.112 504.563 407.57C504.563 409.291 504.563 411.013 504.563 412.734C504.808 414.455 504.808 416.299 504.563 418.267C504.07 419.987 503.948 421.586 504.194 423.062C504.687 424.537 504.687 426.136 504.194 427.857V430.439C504.439 433.389 504.563 436.34 504.563 439.291C504.808 441.996 505.056 444.823 505.301 447.774C505.301 449.495 504.563 450.48 503.087 450.725C501.365 450.725 500.379 449.987 500.134 448.512C499.641 446.544 499.15 444.455 498.657 442.242C498.165 440.028 498.165 437.815 498.657 435.602C499.15 434.372 499.15 433.144 498.657 431.914C498.412 430.439 498.165 428.963 497.919 427.488V426.381C497.919 423.676 497.919 420.972 497.919 418.267C497.919 415.561 498.165 412.858 498.657 410.152C499.15 407.694 499.026 405.357 498.288 403.144C497.796 400.686 497.55 398.226 497.55 395.767C497.55 395.03 497.55 394.292 497.55 393.554C497.55 392.571 497.426 391.587 497.181 390.604H496.812C496.319 392.571 495.828 394.537 495.335 396.505C494.843 398.473 494.352 400.439 493.859 402.407C493.121 405.112 492.752 407.816 492.752 410.521C492.752 412.979 492.506 415.561 492.014 418.267C492.014 418.759 491.89 419.004 491.644 419.004C490.168 421.463 489.306 424.045 489.061 426.75C488.815 429.456 488.446 432.159 487.953 434.865C487.461 436.585 487.215 438.43 487.215 440.397C487.461 442.118 487.584 443.84 487.584 445.561C487.092 449.004 486.601 451.708 486.108 453.676C486.108 454.168 485.984 454.782 485.739 455.52C485.739 456.257 485.739 456.872 485.739 457.364C485.739 458.347 485.984 458.839 486.477 458.839C486.97 458.839 487.461 458.839 487.953 458.839C489.923 458.839 491.768 458.839 493.49 458.839C495.459 458.839 497.426 458.963 499.396 459.208C502.348 459.208 505.547 459.577 508.992 460.315C510.223 460.56 511.576 460.684 513.052 460.684C514.529 460.684 516.005 460.929 517.482 461.421C519.451 461.914 519.82 463.142 518.589 465.11L513.052 473.962C511.821 476.175 510.469 478.388 508.992 480.601C507.761 482.569 506.532 484.658 505.301 486.871C504.808 487.609 504.439 488.347 504.194 489.084C504.194 489.822 503.948 490.683 503.456 491.666H505.301C505.794 492.159 506.163 492.649 506.409 493.142C505.67 493.879 505.301 494.248 505.301 494.248C503.087 494.986 501.979 496.338 501.979 498.306C501.979 500.273 501.856 502.239 501.61 504.207C501.365 505.928 501.241 507.772 501.241 509.74C500.996 512.198 500.748 514.535 500.503 516.748C500.503 518.961 500.379 521.297 500.134 523.756C499.888 527.199 499.765 530.518 499.765 533.714C499.765 536.665 499.641 539.861 499.396 543.304C499.396 545.763 499.396 548.223 499.396 550.681C499.641 553.139 499.641 555.6 499.396 558.058C499.396 560.763 499.272 563.345 499.026 565.804C498.781 568.017 498.412 570.475 497.919 573.18C497.674 575.148 497.426 577.114 497.181 579.082C496.935 581.05 496.566 583.139 496.074 585.352C499.519 585.845 502.103 586.335 503.825 586.828C504.318 587.073 504.687 587.32 504.932 587.565C505.425 587.811 505.916 588.058 506.409 588.303C505.916 588.548 505.425 588.795 504.932 589.041C504.687 589.533 504.318 589.778 503.825 589.778C502.348 589.778 500.627 589.533 498.657 589.041C497.426 588.548 496.688 588.427 496.443 588.672C496.197 588.917 496.074 589.655 496.074 590.885C496.074 592.115 496.074 593.343 496.074 594.573C496.074 595.803 496.197 597.032 496.443 598.262C496.443 599.737 495.95 600.475 494.966 600.475C492.506 600.967 491.275 600.475 491.275 598.999V589.41C491.275 587.934 490.783 586.951 489.799 586.459C485.615 585.229 482.048 583.632 479.095 581.664C476.142 580.434 474.542 578.221 474.297 575.025C474.297 574.779 474.051 573.918 473.558 572.443C472.327 569.492 471.467 565.927 470.975 561.746C470.236 558.058 470.113 553.877 470.606 549.206C470.851 547.73 470.851 546.255 470.606 544.78C470.36 543.304 470.237 541.829 470.237 540.353V537.772C470.237 536.542 470.237 535.435 470.237 534.452C470.237 533.222 470.36 531.994 470.606 530.764C470.606 529.533 470.482 528.427 470.237 527.444C469.991 526.461 469.867 525.476 469.867 524.493C469.622 523.263 469.744 521.419 470.237 518.961C470.482 517.731 470.482 516.748 470.237 516.01C469.991 515.027 469.991 513.92 470.237 512.69C470.729 510.232 470.975 507.772 470.975 505.313C471.22 502.855 471.958 500.395 473.189 497.937C473.928 496.707 473.435 496.092 471.713 496.092H462.854C461.624 496.092 460.271 496.092 458.794 496.092C457.563 495.847 456.334 495.6 455.103 495.355C453.872 495.355 452.52 495.355 451.043 495.355C449.812 495.355 448.583 495.231 447.352 494.986C445.876 494.741 444.399 494.617 442.923 494.617C441.447 494.372 439.97 494.248 438.494 494.248C436.034 493.756 433.695 493.511 431.481 493.511C429.266 493.265 427.052 492.896 424.837 492.404C421.391 491.912 417.948 491.421 414.502 490.929C411.056 490.191 407.613 489.577 404.167 489.084C401.214 488.592 398.262 487.978 395.309 487.24C392.601 486.503 389.896 485.888 387.188 485.396C386.205 485.151 385.219 485.151 384.236 485.396C383.497 485.396 382.514 485.396 381.283 485.396C376.854 485.396 374.884 483.183 375.377 478.757C375.623 477.527 375.746 476.175 375.746 474.7C375.746 473.224 375.746 471.749 375.746 470.273L376.854 460.315V454.413C376.854 452.446 377.715 451.463 379.437 451.463C380.668 451.217 381.776 451.217 382.759 451.463C383.743 451.463 384.85 451.339 386.081 451.094C389.772 450.601 393.463 450.601 397.154 451.094C400.845 451.339 404.536 451.708 408.227 452.2C410.442 452.446 412.533 452.693 414.502 452.938C416.717 453.183 418.808 453.676 420.777 454.413C422.253 455.151 423.73 455.52 425.206 455.52C426.928 455.275 428.528 455.643 430.004 456.626C430.25 456.626 430.373 456.503 430.373 456.257ZM513.052 463.634C511.083 463.389 509.116 463.142 507.147 462.897C505.425 462.651 503.579 462.404 501.61 462.159C500.379 461.914 499.026 461.79 497.55 461.79C496.319 461.545 495.09 461.421 493.859 461.421C491.89 461.421 490.044 461.545 488.323 461.79C486.601 461.79 484.755 461.914 482.786 462.159H481.31C479.095 461.421 476.88 461.176 474.666 461.421C472.697 461.667 470.606 461.667 468.391 461.421C466.669 461.176 464.945 461.176 463.224 461.421C461.747 461.421 460.147 461.421 458.425 461.421C455.718 461.421 453.012 461.421 450.305 461.421C447.598 461.176 444.892 460.929 442.185 460.684C440.216 460.438 438.37 460.315 436.648 460.315C434.926 460.315 433.203 460.069 431.481 459.577C428.773 459.085 426.19 458.594 423.73 458.102C421.515 457.609 419.055 457.119 416.348 456.626C413.64 456.134 410.811 455.765 407.858 455.52C405.151 455.275 402.445 455.027 399.738 454.782C396.785 454.29 393.832 454.044 390.88 454.044C388.172 454.044 385.343 454.29 382.39 454.782C381.406 455.027 380.914 455.643 380.914 456.626C380.914 457.609 380.79 458.594 380.545 459.577C380.545 460.315 380.545 461.176 380.545 462.159C380.299 463.634 380.052 465.11 379.806 466.585C379.561 467.815 379.437 469.043 379.437 470.273C379.192 471.749 379.068 473.348 379.068 475.068C379.314 476.544 379.561 478.019 379.806 479.495C379.806 481.215 380.668 482.076 382.39 482.076C384.605 482.076 386.205 482.2 387.188 482.445C389.158 482.938 390.88 483.428 392.356 483.921C394.078 484.166 395.801 484.535 397.523 485.027C399.492 485.52 401.338 485.888 403.06 486.134C404.782 486.379 406.505 486.748 408.227 487.24C409.704 487.486 411.18 487.854 412.657 488.347C414.133 488.592 415.733 488.839 417.455 489.084C420.162 489.577 422.991 489.946 425.944 490.191C428.897 490.436 431.726 490.683 434.434 490.929C436.155 491.174 437.879 491.421 439.601 491.666C441.323 491.666 443.047 491.79 444.768 492.035C447.229 492.28 449.567 492.528 451.781 492.773C453.996 492.773 456.334 492.773 458.794 492.773C461.009 493.018 463.224 493.142 465.438 493.142C467.653 493.142 469.744 493.142 471.713 493.142C473.435 493.634 474.297 493.018 474.297 491.297L475.404 483.552C475.404 481.831 476.142 480.97 477.619 480.97C478.849 480.97 479.833 480.97 480.571 480.97C481.555 480.725 482.662 480.601 483.893 480.601C485.615 480.601 487.215 480.725 488.692 480.97C490.168 480.97 491.768 480.97 493.49 480.97H501.241C503.21 480.97 504.318 480.232 504.563 478.757C504.808 478.264 505.056 477.896 505.301 477.65C505.547 477.158 505.794 476.667 506.039 476.175C506.778 475.192 507.516 474.207 508.254 473.224C508.992 472.241 509.73 471.135 510.469 469.905C510.961 468.922 511.331 467.937 511.576 466.954C512.069 465.971 512.56 464.864 513.052 463.634ZM491.644 583.508C491.89 582.525 492.014 581.664 492.014 580.926C492.014 579.943 492.137 579.082 492.383 578.344C492.875 576.376 493.121 574.532 493.121 572.812C493.366 570.844 493.614 568.878 493.859 566.91C494.105 564.205 494.352 561.623 494.597 559.164C494.843 556.459 494.721 553.755 494.228 551.05V550.681C494.474 546.993 494.721 543.304 494.966 539.616C495.212 535.927 495.459 532.239 495.705 528.551C495.95 525.107 496.074 521.666 496.074 518.223C496.074 514.535 496.319 510.97 496.812 507.527C497.057 506.544 496.688 505.682 495.705 504.945C494.966 504.699 494.597 503.962 494.597 502.732C495.09 500.273 495.581 498.429 496.074 497.199C496.812 495.724 496.443 494.986 494.966 494.986H493.121C490.906 494.986 488.692 495.109 486.477 495.355C484.508 495.355 482.541 495.355 480.571 495.355C478.357 495.6 477.126 496.585 476.88 498.306C476.388 500.519 476.018 502.732 475.773 504.945C475.528 507.158 475.28 509.371 475.035 511.584C474.789 513.552 474.666 515.396 474.666 517.116C474.666 518.837 474.666 520.681 474.666 522.649C474.666 524.37 474.666 526.092 474.666 527.813C474.911 529.288 475.035 530.764 475.035 532.239C475.035 536.42 475.035 540.477 475.035 544.411C475.035 548.344 475.158 552.402 475.404 556.583C475.649 559.041 475.897 561.501 476.142 563.959C476.388 566.172 476.757 568.509 477.249 570.967C478.233 574.411 479.957 577.361 482.417 579.82C485.124 582.033 488.199 583.263 491.644 583.508ZM499.026 483.921C498.781 483.675 498.534 483.552 498.288 483.552H482.048C481.555 483.552 480.94 483.921 480.202 484.658C479.71 485.888 479.34 487.24 479.095 488.716C479.095 489.946 478.85 491.298 478.357 492.773H480.94C483.648 492.528 486.232 492.404 488.692 492.404C491.399 492.404 494.105 492.28 496.812 492.035C497.796 492.035 498.534 491.543 499.026 490.56V483.921ZM396.416 428.963C396.661 427.733 396.661 426.627 396.416 425.644C396.171 424.661 396.292 423.554 396.785 422.324C397.278 421.341 397.769 420.48 398.262 419.742C398.754 418.759 398.754 417.653 398.262 416.423C398.016 415.44 398.138 414.455 398.631 413.472C399.123 412.489 399.614 411.382 400.107 410.152C400.6 408.677 401.091 407.325 401.583 406.095C402.322 404.62 402.936 403.144 403.429 401.669C403.674 401.176 403.674 400.686 403.429 400.193C403.429 399.701 403.429 399.211 403.429 398.718C402.691 396.75 403.184 395.03 404.905 393.554C403.674 392.324 403.305 391.341 403.798 390.604C404.536 389.621 405.151 388.759 405.644 388.022C406.136 386.301 406.382 384.702 406.382 383.227C406.627 381.751 406.875 380.152 407.12 378.432C407.12 377.449 406.996 376.588 406.751 375.85C406.505 375.112 406.382 374.251 406.382 373.268C406.136 372.776 406.013 372.038 406.013 371.055C406.751 371.055 407.365 371.055 407.858 371.055C408.596 370.81 409.335 370.686 410.073 370.686C411.304 370.931 411.918 371.547 411.918 372.53C412.164 373.268 412.411 374.006 412.657 374.743C412.902 378.187 413.026 381.506 413.026 384.702C413.026 387.898 413.149 391.096 413.395 394.292C413.395 403.882 413.764 413.227 414.502 422.324C414.502 424.292 414.748 426.258 415.24 428.225C415.733 429.946 416.102 431.79 416.348 433.758C416.593 435.233 416.717 436.709 416.717 438.184C416.717 439.66 416.84 441.135 417.086 442.61C417.086 443.348 417.209 444.086 417.455 444.823C417.7 445.316 417.824 445.93 417.824 446.668C417.824 448.143 417.7 449.004 417.455 449.25C415.733 449.742 414.502 449.864 413.764 449.618C413.518 449.373 413.395 449.004 413.395 448.512C413.395 448.019 413.271 447.529 413.026 447.036C412.042 445.069 411.426 443.472 411.18 442.242C410.935 441.011 410.687 439.783 410.442 438.553C410.196 437.078 410.073 435.726 410.073 434.496C409.827 432.528 409.704 430.807 409.704 429.332C409.704 427.611 409.458 425.767 408.966 423.799C407.735 419.866 407.244 416.299 407.489 413.103C407.982 411.382 408.227 409.783 408.227 408.308C408.227 406.587 408.227 404.865 408.227 403.144C408.227 402.899 408.104 402.652 407.858 402.407C407.858 402.161 407.858 401.914 407.858 401.669C407.365 401.424 407.12 401.3 407.12 401.3C407.12 401.792 406.996 402.161 406.751 402.407L402.322 421.217C401.583 423.923 400.845 426.505 400.107 428.963C399.369 431.422 398.754 434.003 398.262 436.709C397.031 440.397 397.031 444.086 398.262 447.774C398.507 448.267 398.507 448.635 398.262 448.881C398.016 449.126 397.892 449.373 397.892 449.618C396.171 449.618 395.309 449.373 395.309 448.881C394.816 447.651 394.325 446.544 393.832 445.561C393.34 444.331 393.34 442.856 393.832 441.135C394.325 439.905 394.447 438.553 394.201 437.078C394.201 435.357 394.325 433.758 394.571 432.283C394.816 431.545 395.432 430.439 396.416 428.963Z" fill="white"/>
</g>
</g>
<defs>
<clipPath id="clip0_140_148">
<rect width="884" height="876" fill="white"/>
</clipPath>
</defs>
</svg>
