<svg width="880" height="885" viewBox="0 0 880 885" fill="none" xmlns="http://www.w3.org/2000/svg">
<g clip-path="url(#clip0_140_155)">
<mask id="mask0_140_155" style="mask-type:luminance" maskUnits="userSpaceOnUse" x="0" y="0" width="880" height="885">
<path d="M880 0H0V885H880V0Z" fill="white"/>
</mask>
<g mask="url(#mask0_140_155)">
<path d="M879.84 0H-1.84473V546.392H879.84V0Z" fill="#E61EAA"/>
<path d="M879.84 546.392H-1.84473V885H879.84V546.392Z" fill="#640B49"/>
<path d="M482.986 756.97V757.745V758.777C482.986 759.122 482.986 759.465 482.986 759.81C483.157 760.154 483.157 760.497 482.986 760.842V763.681C482.814 764.198 482.727 764.972 482.727 766.005V767.811V770.135C482.382 771.512 482.124 773.061 481.953 774.781C481.953 776.33 481.781 777.965 481.436 779.685C480.919 782.095 480.403 784.331 479.886 786.396C479.541 788.29 479.198 790.182 478.853 792.075C478.682 792.936 478.508 793.711 478.337 794.398C478.165 795.086 477.992 795.86 477.82 796.721C477.475 797.238 477.217 797.841 477.045 798.528C477.045 799.216 476.959 799.906 476.787 800.593C476.27 802.487 475.754 804.465 475.237 806.53C474.892 808.424 474.549 810.402 474.204 812.467C473.859 813.844 473.601 815.22 473.429 816.597C473.429 817.974 473.258 819.35 472.913 820.727C472.913 821.76 472.826 822.621 472.654 823.308C472.483 824.169 472.396 825.029 472.396 825.89C472.396 826.751 472.309 827.696 472.138 828.729C472.138 828.9 472.138 829.074 472.138 829.245C472.309 829.417 472.396 829.59 472.396 829.761C472.568 830.965 472.396 831.826 471.88 832.343C471.708 832.687 471.105 832.859 470.072 832.859H469.813H467.489H465.939H464.131C463.786 832.859 463.443 832.772 463.098 832.601C462.926 832.601 462.668 832.601 462.323 832.601H456.899H454.833H453.283H449.409C448.893 832.601 448.376 832.601 447.859 832.601C447.343 832.772 446.826 832.859 446.31 832.859H441.919C440.024 832.859 438.648 832.772 437.787 832.601H436.495C435.979 832.429 435.462 832.343 434.945 832.343C434.429 832.343 433.999 832.256 433.654 832.085C433.309 832.085 432.966 831.913 432.621 831.568C432.621 831.568 432.534 831.482 432.363 831.31C432.191 831.31 432.104 831.139 432.104 830.794V830.536C432.449 830.191 432.621 830.02 432.621 830.02H435.204C434.516 829.159 434.342 828.041 434.687 826.664C434.687 826.319 434.6 826.061 434.429 825.89C434.257 825.718 434.171 825.373 434.171 824.857C433.999 824.341 433.912 823.566 433.912 822.534V820.727C433.912 820.382 433.826 820.211 433.654 820.211C433.654 820.039 433.654 819.781 433.654 819.436C433.482 819.092 433.396 818.662 433.396 818.146V814.016C433.396 813.671 433.482 813.5 433.654 813.5C433.309 812.812 433.224 812.38 433.396 812.209C433.567 811.864 433.567 811.606 433.396 811.435C432.879 811.263 432.621 810.747 432.621 809.886C432.621 809.541 432.708 809.283 432.879 809.111V808.595C432.879 808.25 432.792 807.907 432.621 807.563C432.621 807.046 432.621 806.617 432.621 806.272C432.449 805.927 432.363 805.669 432.363 805.498C432.363 805.153 432.276 804.81 432.104 804.465C431.933 803.949 431.759 803.433 431.588 802.916C431.588 802.229 431.501 801.626 431.33 801.11C431.158 800.077 431.071 799.045 431.071 798.012C431.071 796.98 431.071 795.947 431.071 794.915C430.9 794.398 430.813 793.452 430.813 792.075V789.752V788.72C430.813 788.375 430.726 788.203 430.555 788.203C430.555 788.032 430.555 787.774 430.555 787.429C430.555 787.084 430.555 786.826 430.555 786.655C430.726 786.31 430.813 785.967 430.813 785.622V783.815V782.008V779.685V777.62C430.985 776.933 431.071 775.9 431.071 774.523V772.458C431.243 771.77 431.243 770.996 431.071 770.135C430.726 768.757 430.726 767.382 431.071 766.005C431.071 765.66 431.071 765.402 431.071 765.23C431.243 765.059 431.33 764.801 431.33 764.456V763.165C431.501 762.133 431.588 761.1 431.588 760.068C431.588 759.035 431.759 758.003 432.104 756.97C432.104 755.593 432.276 754.044 432.621 752.324C432.966 750.947 433.137 749.914 433.137 749.226C433.309 748.882 433.396 748.365 433.396 747.678C433.396 746.817 433.482 746.129 433.654 745.613C433.999 744.58 434.171 743.548 434.171 742.515C434.342 741.483 434.6 740.45 434.945 739.418L435.72 736.32C435.72 736.149 435.72 736.062 435.72 736.062C435.892 735.891 435.979 735.632 435.979 735.288C436.324 734.255 436.495 733.481 436.495 732.965C436.495 732.104 436.495 731.244 436.495 730.383C436.667 729.351 436.84 728.405 437.012 727.544L437.787 723.672C437.787 723.327 437.787 722.984 437.787 722.64C437.958 722.123 438.045 721.694 438.045 721.349C438.216 721.004 438.303 720.403 438.303 719.542V718.51V717.993V717.735V717.219C438.303 716.703 438.39 716.273 438.561 715.928C438.561 715.584 438.561 715.241 438.561 714.896C438.733 714.38 438.82 713.95 438.82 713.605C438.991 712.918 439.078 712.228 439.078 711.54C439.078 710.853 439.078 710.163 439.078 709.475C439.25 708.959 439.25 708.443 439.078 707.926C439.078 707.41 439.078 706.807 439.078 706.12V703.28V700.183V697.343C439.078 696.311 438.991 695.536 438.82 695.02V693.988V693.73L439.078 691.406C439.078 690.545 439.078 689.686 439.078 688.825C439.078 687.964 439.165 687.105 439.336 686.244C439.336 685.04 439.25 684.179 439.078 683.663C438.906 682.459 438.82 681.34 438.82 680.307C438.82 679.275 438.82 678.329 438.82 677.468C438.82 677.123 438.82 676.865 438.82 676.693C438.991 676.522 439.078 676.264 439.078 675.919C439.423 674.542 439.336 673.338 438.82 672.305C438.648 672.134 438.561 671.96 438.561 671.789C438.733 671.444 438.82 671.186 438.82 671.015C439.165 670.327 439.336 669.294 439.336 667.917V665.594V663.787L437.787 665.336C437.098 666.197 436.408 666.971 435.72 667.659C435.204 668.175 434.516 668.605 433.654 668.95L433.396 669.724C433.051 670.069 432.792 670.412 432.621 670.756C432.621 670.928 432.449 671.186 432.104 671.531L431.846 672.047C431.501 672.563 431.158 673.08 430.813 673.596C430.468 673.941 430.125 674.37 429.78 674.886C429.092 675.574 428.66 676.177 428.488 676.693C427.972 677.038 427.542 677.468 427.197 677.984C427.025 678.329 426.68 678.758 426.164 679.275C425.992 679.446 425.734 679.877 425.389 680.565C425.044 680.91 424.701 681.253 424.356 681.598C424.184 681.942 423.926 682.285 423.581 682.63C423.236 682.975 422.893 683.318 422.548 683.663C422.376 684.007 422.118 684.35 421.773 684.695C420.74 686.072 420.052 687.018 419.707 687.535C419.362 687.879 419.104 688.137 418.932 688.309C418.932 688.48 418.76 688.739 418.415 689.083C418.415 689.083 418.244 689.428 417.899 690.116C417.382 690.461 416.779 691.148 416.091 692.181C415.746 692.526 415.574 692.955 415.574 693.471C415.229 694.504 414.455 695.02 413.25 695.02H412.733C411.7 695.02 410.667 695.02 409.634 695.02C408.601 694.849 407.568 694.675 406.535 694.504C405.501 694.159 404.382 693.988 403.177 693.988C402.144 693.816 401.111 693.558 400.078 693.213C399.733 693.042 399.389 692.955 399.044 692.955C398.873 692.955 398.615 692.869 398.27 692.697C397.925 692.697 397.581 692.526 397.236 692.181H396.978C396.978 692.009 396.891 691.923 396.72 691.923C396.72 691.751 396.633 691.665 396.462 691.665C394.395 691.148 392.501 690.029 390.779 688.309C390.434 688.137 390.091 687.964 389.746 687.793C389.575 687.621 389.316 687.448 388.971 687.276C388.283 686.932 387.68 686.502 387.163 685.986C386.302 685.641 385.872 684.953 385.872 683.921C386.217 683.06 386.818 682.372 387.68 681.856C388.197 681.684 388.885 681.168 389.746 680.307C390.091 679.619 390.866 678.845 392.071 677.984C392.242 677.812 392.329 677.639 392.329 677.468C392.501 677.296 392.759 677.123 393.104 676.951C393.449 676.78 393.62 676.607 393.62 676.435C393.792 676.264 394.05 676.006 394.395 675.661C395.428 674.628 396.29 673.854 396.978 673.338C397.323 672.993 397.581 672.735 397.753 672.563C398.098 672.219 398.441 671.876 398.786 671.531C399.131 671.186 399.561 670.756 400.078 670.24C400.594 669.724 401.111 669.294 401.627 668.95C402.144 668.778 402.66 668.262 403.177 667.401L403.952 666.626L404.985 665.852C405.501 665.164 406.276 664.303 407.309 663.271C407.481 663.099 407.568 663.013 407.568 663.013C407.568 662.841 407.654 662.668 407.826 662.496L408.601 661.722C408.946 661.377 409.117 661.119 409.117 660.948C409.462 660.603 409.721 660.345 409.892 660.173C410.237 659.829 410.667 659.57 411.184 659.399C411.355 659.399 411.442 659.312 411.442 659.141C411.613 658.969 411.7 658.796 411.7 658.625C411.872 658.28 412.13 657.937 412.475 657.592C412.82 656.904 413.163 656.301 413.508 655.785C414.025 655.269 414.713 654.839 415.574 654.495C415.574 654.495 415.746 654.323 416.091 653.978V653.72L416.866 652.946C417.211 652.258 417.554 651.827 417.899 651.655C418.76 650.623 419.707 649.504 420.74 648.3C421.945 647.096 423.236 645.89 424.614 644.686C425.819 643.309 427.11 641.933 428.488 640.556C430.038 639.179 431.501 637.803 432.879 636.426C434.084 635.222 435.204 634.016 436.237 632.812C437.442 631.608 438.733 630.231 440.111 628.682C441.832 626.789 442.694 624.81 442.694 622.745C442.694 622.574 442.607 622.4 442.436 622.229C442.264 621.368 442.177 620.852 442.177 620.68C442.349 620.335 442.781 619.992 443.469 619.648C443.469 619.648 443.64 619.561 443.985 619.39C444.847 619.045 445.622 618.787 446.31 618.615C446.998 618.444 447.688 618.27 448.376 618.099C449.064 618.099 450.097 617.927 451.475 617.583C451.82 617.411 452.422 617.325 453.283 617.325H454.316H454.575C455.608 617.153 456.641 617.066 457.674 617.066C458.707 616.895 459.74 616.637 460.774 616.292C461.29 616.121 462.237 615.862 463.615 615.518C464.303 615.173 464.993 615.001 465.681 615.001L471.88 613.453C473.601 613.108 474.721 613.882 475.237 615.776C475.237 616.121 475.237 616.464 475.237 616.808C475.409 617.153 475.496 617.496 475.496 617.841L476.27 620.164C476.442 621.025 476.529 621.799 476.529 622.487C476.529 623.175 476.615 623.949 476.787 624.81V625.843C477.132 627.736 477.304 629.628 477.304 631.521C477.475 633.242 477.733 635.049 478.078 636.942C478.078 637.63 478.078 638.233 478.078 638.749C478.25 639.265 478.337 639.868 478.337 640.556C478.337 641.76 478.508 643.224 478.853 644.944C478.853 645.805 478.853 646.579 478.853 647.267C479.025 647.783 479.198 648.386 479.37 649.074C479.37 649.419 479.37 649.762 479.37 650.106C479.541 650.451 479.628 650.794 479.628 651.139V651.397C479.628 651.742 479.628 652 479.628 652.171C479.8 652.343 479.886 652.516 479.886 652.688C479.715 654.236 479.715 655.872 479.886 657.592C480.231 659.312 480.574 661.119 480.919 663.013C481.091 663.358 481.178 663.787 481.178 664.303V664.82V665.852V669.208V670.756V671.789V672.821V676.693V679.533C481.178 679.877 481.178 680.22 481.178 680.565C481.349 680.737 481.436 680.995 481.436 681.34V682.63V683.663V687.793C481.436 689.17 481.436 690.545 481.436 691.923C481.436 693.127 481.523 694.417 481.694 695.795C481.694 696.656 481.694 697.43 481.694 698.118C481.694 698.805 481.608 699.58 481.436 700.441V705.603C481.608 707.152 481.694 708.701 481.694 710.25C481.694 711.798 481.781 713.434 481.953 715.154C481.953 717.047 482.039 718.423 482.211 719.284V723.414C482.382 724.275 482.469 725.049 482.469 725.737C482.469 726.253 482.469 726.856 482.469 727.544C482.469 728.405 482.469 729.264 482.469 730.125C482.469 730.813 482.556 731.587 482.727 732.448C482.727 733.309 482.727 734.084 482.727 734.771C482.727 735.459 482.814 736.149 482.986 736.836C483.157 737.698 483.244 738.557 483.244 739.418C483.244 740.279 483.244 741.138 483.244 741.999C483.416 742.86 483.416 743.634 483.244 744.322C483.244 744.838 483.244 745.526 483.244 746.387V748.968V750.775V753.098C483.244 754.302 483.157 755.163 482.986 755.68V756.97ZM480.145 754.905C480.316 754.217 480.403 753.528 480.403 752.84C480.403 752.152 480.403 751.378 480.403 750.517C480.574 749.829 480.661 748.882 480.661 747.678V745.871C480.661 745.355 480.574 744.925 480.403 744.58C480.403 743.719 480.316 743.031 480.145 742.515V740.45V738.385C480.145 737.698 480.058 737.008 479.886 736.32C479.886 735.632 479.886 734.943 479.886 734.255C479.715 733.394 479.628 732.448 479.628 731.416C479.628 730.383 479.541 729.351 479.37 728.318C479.37 727.114 479.456 726.253 479.628 725.737V723.672C479.628 721.952 479.541 720.746 479.37 720.058V719.542V718.768C479.198 718.423 479.112 717.907 479.112 717.219C479.456 716.703 479.541 716.186 479.37 715.67C479.37 715.154 479.37 714.551 479.37 713.863C479.37 713.519 479.283 713.347 479.112 713.347C479.112 713.176 479.112 712.918 479.112 712.573V707.152V704.571V704.313V704.055L478.853 703.28V701.215V698.634V697.343V697.085V693.73V687.276V682.372V677.984C478.508 677.639 478.508 677.21 478.853 676.693C478.853 676.006 478.767 675.403 478.595 674.886V673.854V672.563V671.015V668.691C478.595 667.487 478.508 666.368 478.337 665.336C478.337 664.132 478.25 663.013 478.078 661.98C477.907 661.293 477.82 660.603 477.82 659.915C477.82 659.228 477.733 658.538 477.562 657.85C477.39 657.334 477.304 656.473 477.304 655.269C476.959 653.549 476.787 652.258 476.787 651.397V650.881V650.106C476.442 648.903 476.184 647.783 476.012 646.751C476.012 645.547 476.012 644.428 476.012 643.395V643.137C476.012 642.621 476.012 642.105 476.012 641.588C476.012 640.901 475.925 640.298 475.754 639.781C475.754 639.437 475.667 639.094 475.496 638.749C475.496 638.404 475.496 638.061 475.496 637.716C475.324 637.372 475.237 637.029 475.237 636.684C475.237 636.168 475.151 635.738 474.979 635.393C474.807 634.532 474.721 633.673 474.721 632.812C474.721 631.951 474.634 630.919 474.462 629.715C474.462 629.37 474.376 629.027 474.204 628.682C474.204 628.337 474.204 627.994 474.204 627.65C474.204 626.272 474.117 625.24 473.946 624.552C473.774 623.691 473.601 622.917 473.429 622.229C473.429 621.368 473.343 620.509 473.171 619.648C473.171 619.303 473.084 618.96 472.913 618.615C472.913 618.099 472.913 617.669 472.913 617.325C472.913 616.808 472.741 616.55 472.396 616.55L471.88 616.808C471.018 616.808 470.417 616.895 470.072 617.066L466.197 617.841C464.648 618.186 463.098 618.529 461.548 618.873C459.999 619.218 458.362 619.561 456.641 619.906C455.263 620.077 453.8 620.251 452.25 620.422C450.872 620.594 449.496 620.852 448.118 621.196L447.343 621.455C446.31 621.455 445.793 621.799 445.793 622.487C445.622 623.348 445.448 624.294 445.277 625.326C445.277 626.359 445.19 627.305 445.018 628.166C445.018 629.027 444.847 630.144 444.502 631.521C444.502 632.725 444.415 633.673 444.244 634.361C444.244 635.222 444.157 635.996 443.985 636.684C443.985 637.372 443.899 638.146 443.727 639.007C443.382 640.727 443.124 642.449 442.952 644.17C442.952 645.89 442.865 647.697 442.694 649.59V651.139C442.694 652 442.781 652.688 442.952 653.204V654.495V656.043H443.727H443.985C444.33 656.043 444.502 656.13 444.502 656.301C444.673 656.301 444.76 656.388 444.76 656.56C444.76 656.731 444.673 656.818 444.502 656.818V657.85C444.157 658.366 443.899 658.625 443.727 658.625C443.039 658.969 442.607 659.744 442.436 660.948V665.336V667.143V683.663V688.567V689.6V694.762C442.436 695.623 442.436 696.482 442.436 697.343C442.436 698.204 442.522 699.064 442.694 699.925V706.12V706.636V710.508C442.694 711.024 442.607 711.54 442.436 712.056C442.436 712.573 442.436 713.089 442.436 713.605C442.264 714.466 442.091 715.325 441.919 716.186C441.919 716.874 441.919 717.649 441.919 718.51C441.919 720.575 441.574 722.64 440.886 724.705V725.221V727.028C440.714 727.544 440.628 728.147 440.628 728.835C440.628 729.351 440.541 729.867 440.369 730.383C440.198 731.761 440.024 733.136 439.853 734.513C439.681 735.717 439.423 737.008 439.078 738.385L438.303 742.257C438.132 742.773 438.045 743.29 438.045 743.806C438.045 744.151 437.958 744.58 437.787 745.096C437.615 745.784 437.442 746.387 437.27 746.903C437.27 747.42 437.183 748.022 437.012 748.71C437.012 749.398 436.84 750.43 436.495 751.808C436.324 752.669 436.15 753.615 435.979 754.647C435.807 755.508 435.634 756.367 435.462 757.228C435.29 758.432 435.204 759.638 435.204 760.842C435.204 761.875 435.117 762.907 434.945 763.94V766.263V768.844C434.945 769.876 434.859 770.564 434.687 770.909V775.039C434.516 775.9 434.429 776.674 434.429 777.362C434.429 777.878 434.429 778.481 434.429 779.169V780.976V782.783C434.429 783.47 434.342 783.902 434.171 784.073V786.913C434.342 787.774 434.429 788.633 434.429 789.494C434.429 790.182 434.516 790.956 434.687 791.817C434.687 792.678 434.687 793.452 434.687 794.14C434.687 794.828 434.774 795.517 434.945 796.205V798.786C434.945 799.303 434.945 799.906 434.945 800.593C434.945 801.11 435.032 801.626 435.204 802.142C435.204 802.314 435.204 802.487 435.204 802.658C435.375 802.658 435.462 802.745 435.462 802.916C435.807 803.261 435.979 803.691 435.979 804.207C435.979 805.24 436.065 806.014 436.237 806.53C436.582 807.563 436.753 808.509 436.753 809.37C436.582 810.057 436.495 810.747 436.495 811.435C436.667 811.951 436.753 812.467 436.753 812.983V815.048C436.408 816.252 436.495 817.2 437.012 817.888V818.662C436.84 819.007 436.753 819.436 436.753 819.953C436.925 820.297 437.012 820.727 437.012 821.243C437.012 821.415 437.012 821.501 437.012 821.501C437.183 821.673 437.27 821.931 437.27 822.276C437.442 823.137 437.528 824.083 437.528 825.115C437.528 826.148 437.528 827.094 437.528 827.955V830.278H469.297V830.02V828.213V827.18V824.857C469.297 824.512 469.297 824.169 469.297 823.825C469.468 823.48 469.555 823.137 469.555 822.792C469.555 822.621 469.555 822.447 469.555 822.276C469.727 822.104 469.813 821.846 469.813 821.501C469.813 821.157 469.813 820.727 469.813 820.211C469.985 819.695 470.072 819.178 470.072 818.662C470.243 817.974 470.33 817.371 470.33 816.855C470.33 816.168 470.417 815.478 470.588 814.79C470.76 814.445 470.846 814.102 470.846 813.758C470.846 813.241 470.933 812.812 471.105 812.467C471.105 812.296 471.105 812.209 471.105 812.209C471.276 812.209 471.363 812.122 471.363 811.951C471.363 811.606 471.363 811.435 471.363 811.435C471.535 811.263 471.621 811.005 471.621 810.66C471.793 810.315 471.88 810.057 471.88 809.886C471.88 809.541 471.966 809.198 472.138 808.853C472.138 808.509 472.138 808.25 472.138 808.079C472.309 807.734 472.396 807.391 472.396 807.046C472.396 806.875 472.396 806.702 472.396 806.53C472.568 806.359 472.654 806.101 472.654 805.756C472.826 805.24 472.913 804.637 472.913 803.949C473.084 803.261 473.258 802.572 473.429 801.884C473.429 801.713 473.429 801.626 473.429 801.626C473.601 801.454 473.688 801.196 473.688 800.851C473.859 800.68 473.946 800.422 473.946 800.077C474.117 799.732 474.204 799.474 474.204 799.303C474.204 799.131 474.291 798.958 474.462 798.786C474.807 797.754 475.066 796.721 475.237 795.689C475.409 794.656 475.582 793.624 475.754 792.591C475.754 792.075 475.925 791.301 476.27 790.268C476.615 788.891 476.7 787.774 476.529 786.913C476.529 786.741 476.7 786.31 477.045 785.622C477.045 785.622 477.132 785.535 477.304 785.364C477.475 785.192 477.562 785.019 477.562 784.848C477.733 784.331 477.82 783.299 477.82 781.75C477.82 780.373 478.078 778.998 478.595 777.62C478.767 776.759 478.853 775.985 478.853 775.297C479.025 774.609 479.112 773.92 479.112 773.232C478.94 772.371 478.853 771.512 478.853 770.651C479.025 769.618 479.198 768.672 479.37 767.811C479.541 767.295 479.628 766.521 479.628 765.488L479.886 764.198C479.886 763.337 479.886 762.649 479.886 762.133C480.058 761.445 480.145 760.671 480.145 759.81V757.486V754.905ZM439.336 652.43C439.165 651.913 439.078 651.226 439.078 650.365C439.25 649.677 439.336 649.074 439.336 648.558C439.336 648.041 439.423 647.439 439.594 646.751C439.594 645.89 439.681 645.289 439.853 644.944C439.853 644.083 439.853 643.309 439.853 642.621C440.024 641.76 440.198 640.901 440.369 640.04L440.628 637.2V636.942C440.799 636.771 440.886 636.426 440.886 635.91L441.661 632.812C441.661 632.124 441.574 631.608 441.402 631.263L440.886 631.78C440.369 632.641 439.766 633.415 439.078 634.103C438.561 634.79 437.873 635.565 437.012 636.426C436.667 636.771 436.324 637.029 435.979 637.2C435.462 637.888 434.6 638.836 433.396 640.04C432.879 640.556 432.363 641.072 431.846 641.588C431.33 641.933 430.9 642.363 430.555 642.879C430.038 643.395 429.522 643.911 429.005 644.428C428.488 644.944 427.972 645.374 427.455 645.718C426.594 646.579 425.734 647.439 424.872 648.3C424.011 649.161 423.151 650.02 422.29 650.881C421.428 651.742 420.653 652.601 419.965 653.462C419.277 654.323 418.502 655.182 417.641 656.043C417.124 656.56 416.607 657.162 416.091 657.85C415.574 658.366 415.058 658.969 414.541 659.657C414.196 660.002 413.853 660.345 413.508 660.69C413.163 661.034 412.82 661.377 412.475 661.722L410.925 663.271C410.237 663.959 409.634 664.561 409.117 665.078C408.601 665.594 408.084 666.197 407.568 666.885L404.468 669.982L403.693 670.756C403.348 670.928 403.005 671.186 402.66 671.531L400.336 673.854C399.819 674.542 399.216 675.145 398.528 675.661L397.495 676.693L396.203 677.984C395.858 678.329 395.515 678.672 395.17 679.016C394.999 679.188 394.74 679.446 394.395 679.791L391.296 682.888C391.124 683.233 390.608 683.663 389.746 684.179L389.488 684.437H389.746C390.263 684.782 390.866 685.125 391.554 685.47C392.587 686.157 393.276 686.589 393.62 686.76C394.309 687.276 395.342 687.879 396.72 688.567C399.991 690.632 404.297 691.836 409.634 692.181C410.322 692.181 410.839 692.267 411.184 692.439C411.872 692.61 412.388 692.267 412.733 691.406C413.421 690.374 413.938 689.686 414.283 689.341L414.541 688.825L415.316 688.051C415.316 687.706 415.488 687.535 415.833 687.535C416.178 687.19 416.436 686.847 416.608 686.502C416.779 686.157 417.037 685.814 417.382 685.47C417.727 684.953 418.415 684.007 419.449 682.63L420.998 681.081C421.343 680.737 421.602 680.394 421.773 680.049C421.945 679.704 422.203 679.361 422.548 679.016C423.065 678.5 423.41 678.071 423.581 677.726C423.926 677.381 424.184 677.038 424.356 676.693C424.701 676.177 425.044 675.747 425.389 675.403L425.647 675.145V674.628L426.164 674.112C426.335 673.424 426.68 672.821 427.197 672.305C427.369 671.96 427.542 671.789 427.714 671.789C427.885 671.617 428.059 671.359 428.23 671.015C429.263 670.327 430.038 669.379 430.555 668.175C431.416 667.143 432.276 666.197 433.137 665.336C434.171 664.475 435.204 663.616 436.237 662.755C436.925 662.067 437.357 661.551 437.528 661.206C437.7 661.034 437.787 660.948 437.787 660.948C437.787 660.776 437.873 660.603 438.045 660.431V660.173C438.045 660.173 438.216 660.002 438.561 659.657C439.423 658.453 439.681 657.505 439.336 656.818V656.301V655.527V653.462V652.43Z" fill="white"/>
<path d="M428.673 271.621C428.673 270.441 428.475 269.064 428.082 267.491C427.885 264.739 427.689 261.984 427.492 259.231C427.295 256.479 427.099 253.724 426.902 250.971C426.509 247.629 426.214 244.481 426.016 241.531C426.016 238.384 425.918 235.239 425.721 232.091C425.524 230.519 425.328 228.846 425.131 227.076C425.131 225.306 424.933 223.634 424.54 222.061C424.343 220.489 424.147 218.914 423.95 217.341C423.753 215.769 423.457 214.194 423.064 212.621C422.867 211.639 422.671 210.556 422.474 209.376C422.474 208.196 422.277 207.114 421.884 206.131C421.491 203.969 421.096 201.904 420.703 199.936C420.506 197.774 420.21 195.609 419.817 193.446C419.62 193.054 419.522 192.759 419.522 192.561C419.72 192.364 419.817 192.069 419.817 191.676C419.817 191.086 419.72 190.496 419.522 189.906C419.522 189.316 419.522 188.629 419.522 187.841C419.522 187.644 419.424 187.546 419.227 187.546C419.227 187.349 419.227 187.154 419.227 186.956C419.227 185.384 419.129 184.006 418.932 182.826C418.932 181.45 418.932 179.975 418.932 178.401V165.421V161.291C418.932 159.718 418.834 158.243 418.637 156.866C418.637 155.293 418.539 153.72 418.342 152.146C418.342 149.983 417.653 147.623 416.275 145.066C415.882 147.033 415.488 148.901 415.095 150.671C414.702 152.245 414.602 153.916 414.799 155.686V156.276C414.406 157.456 414.012 158.636 413.619 159.816C413.421 160.996 413.126 162.275 412.733 163.651C412.536 164.635 412.34 165.52 412.143 166.306C411.945 167.093 411.75 167.978 411.552 168.961C411.355 170.338 411.159 171.715 410.962 173.091C410.765 174.468 410.469 175.845 410.077 177.221C410.077 178.205 410.077 179.188 410.077 180.171C410.077 181.155 409.979 182.138 409.781 183.121C409.388 184.499 409.093 185.874 408.896 187.251C408.896 188.431 408.698 189.709 408.305 191.086C407.913 192.659 407.617 194.331 407.42 196.101C407.42 197.871 407.223 199.544 406.83 201.116L405.944 204.656C405.551 206.819 405.059 208.884 404.468 210.851C404.075 212.819 403.68 214.784 403.287 216.751C403.09 218.324 402.894 219.799 402.697 221.176C402.697 222.356 402.599 223.734 402.402 225.306L401.516 230.616C401.123 232.189 400.926 233.664 400.926 235.041C400.926 236.419 400.729 237.794 400.336 239.171C400.138 240.154 399.843 241.039 399.45 241.826C399.253 242.614 399.057 243.499 398.86 244.481C398.269 246.449 397.679 248.316 397.089 250.086C396.696 251.856 396.301 253.626 395.908 255.396C395.318 257.559 394.235 260.019 392.661 262.771C392.071 263.754 391.775 264.444 391.775 264.836C391.775 265.034 392.071 265.624 392.661 266.606C392.071 266.999 391.087 267.099 389.709 266.901C388.529 266.509 387.938 266.016 387.938 265.426C387.741 265.034 387.84 264.344 388.233 263.361C388.626 262.574 388.824 261.984 388.824 261.591C389.414 260.214 389.907 258.936 390.3 257.756C390.89 256.379 391.383 255.004 391.775 253.626C392.168 252.446 392.563 251.266 392.956 250.086C393.547 248.709 394.039 247.334 394.432 245.956C394.825 244.579 395.12 243.204 395.318 241.826C395.515 240.449 395.81 238.974 396.203 237.401C396.401 236.811 396.498 236.221 396.498 235.631C396.498 234.844 396.596 234.156 396.794 233.566V232.681C397.186 231.699 397.482 230.814 397.679 230.026C397.876 229.044 398.172 228.059 398.565 227.076C398.565 226.289 398.762 225.306 399.155 224.126C399.155 223.536 399.057 222.946 398.86 222.356C398.86 221.766 398.958 221.274 399.155 220.881C399.548 219.111 399.745 217.341 399.745 215.571C399.745 213.801 399.843 212.031 400.04 210.261C400.04 209.474 400.238 208.689 400.631 207.901C401.024 207.114 401.319 206.329 401.516 205.541C401.909 204.361 402.107 203.476 402.107 202.886C402.304 201.904 402.5 201.019 402.697 200.231C402.894 199.444 403.09 198.559 403.287 197.576C403.485 196.594 403.583 195.609 403.583 194.626C403.583 193.644 403.68 192.659 403.878 191.676L404.763 187.251C404.961 186.859 405.058 186.071 405.058 184.891C405.256 184.301 405.256 183.711 405.058 183.121C404.861 182.335 405.156 181.745 405.944 181.351C405.944 181.351 405.944 180.958 405.944 180.171C405.551 178.598 405.451 177.123 405.649 175.746C406.042 174.37 406.534 172.993 407.125 171.616C407.322 171.026 407.42 170.535 407.42 170.141C407.617 169.551 407.813 168.961 408.01 168.371C408.208 166.798 408.403 165.225 408.601 163.651C408.798 162.078 408.994 160.505 409.191 158.931L410.077 154.506C410.469 153.13 410.765 151.851 410.962 150.671C411.355 149.295 411.75 148.016 412.143 146.836L413.028 143.296L413.914 137.986C414.111 136.806 414.897 136.216 416.275 136.216C418.439 136.61 419.817 137.79 420.408 139.756C420.801 141.723 421.196 143.591 421.588 145.361C422.179 147.131 422.572 149 422.769 150.966C423.162 153.72 423.557 156.571 423.95 159.521C424.343 162.275 424.343 165.126 423.95 168.076C423.753 169.256 423.753 170.436 423.95 171.616C424.147 172.796 424.245 173.976 424.245 175.156V182.236C424.442 184.399 424.54 186.464 424.54 188.431C424.738 190.201 424.933 192.169 425.131 194.331C425.328 196.101 425.524 197.871 425.721 199.641C425.918 201.411 426.214 203.181 426.607 204.951C426.804 206.524 426.999 207.999 427.197 209.376C427.59 210.556 427.985 211.934 428.378 213.506C428.771 216.064 429.066 218.521 429.263 220.881C429.46 223.241 429.756 225.699 430.149 228.256C430.346 229.436 430.444 230.616 430.444 231.796C430.641 232.976 430.936 234.059 431.329 235.041V236.811V245.071C431.329 246.054 431.329 247.136 431.329 248.316C431.527 249.496 431.625 250.579 431.625 251.561C431.625 253.134 431.822 254.709 432.215 256.281C432.608 257.854 432.608 259.429 432.215 261.001C432.017 261.984 432.017 263.066 432.215 264.246C432.608 265.426 432.903 266.509 433.1 267.491C433.298 268.081 433.396 268.869 433.396 269.851C433.396 272.014 434.479 273.096 436.643 273.096C437.43 272.899 438.611 272.801 440.185 272.801C441.758 272.999 443.432 273.096 445.203 273.096C446.974 273.096 448.647 273.194 450.221 273.391C451.009 273.391 451.697 273.489 452.287 273.686C453.075 273.686 453.861 273.686 454.648 273.686H456.715C456.715 272.506 456.715 271.424 456.715 270.441C456.912 269.261 457.01 268.179 457.01 267.196C457.403 265.624 457.6 264.149 457.6 262.771C457.798 261.394 457.993 259.919 458.191 258.346V256.871C458.388 256.281 458.486 255.789 458.486 255.396C458.486 254.806 458.584 254.216 458.781 253.626C458.978 253.234 459.076 253.036 459.076 253.036C458.879 251.266 458.978 249.496 459.371 247.726C459.962 245.956 460.355 244.284 460.552 242.711C460.945 240.549 461.34 238.384 461.733 236.221C462.323 234.059 462.816 231.894 463.209 229.731C463.406 228.551 463.602 227.469 463.799 226.486C464.192 225.306 464.487 224.126 464.684 222.946C465.077 221.374 465.275 219.799 465.275 218.226C465.472 216.654 465.767 215.079 466.16 213.506C466.358 211.736 466.553 209.966 466.751 208.196C466.948 206.426 467.243 204.559 467.636 202.591C468.029 200.624 468.227 198.756 468.227 196.986C468.424 195.019 468.719 193.054 469.112 191.086C469.505 188.924 469.8 186.759 469.998 184.596C470.391 182.433 470.785 180.27 471.178 178.106C471.571 176.14 471.867 174.271 472.064 172.501C472.457 170.535 472.852 168.568 473.245 166.601C473.638 165.028 473.933 163.455 474.13 161.881C474.328 160.308 474.721 158.735 475.311 157.161C475.901 154.998 476.394 152.835 476.787 150.671C477.18 148.508 478.065 146.443 479.443 144.476C479.641 144.28 479.739 144.083 479.739 143.886C479.936 143.69 480.132 143.493 480.329 143.296C480.722 141.92 481.51 141.231 482.69 141.231C484.461 141.231 485.74 141.821 486.528 143.001C487.511 144.968 488.496 147.426 489.479 150.376C489.872 151.36 490.168 152.343 490.365 153.326C490.758 154.31 490.858 155.293 490.66 156.276C490.463 157.456 490.562 158.538 490.955 159.521C491.546 160.505 491.939 161.586 492.136 162.766C492.136 164.93 492.234 167.093 492.431 169.256C492.629 171.42 492.924 173.583 493.317 175.746C493.317 176.73 493.317 177.811 493.317 178.991C493.514 180.171 493.71 181.253 493.907 182.236L494.793 195.511C494.99 198.069 495.088 200.624 495.088 203.181C495.285 205.541 495.58 207.999 495.973 210.556C496.366 213.309 496.761 215.769 497.154 217.931C497.154 218.129 497.056 218.324 496.859 218.521C496.859 218.521 496.859 218.719 496.859 219.111C496.662 220.684 496.564 222.259 496.564 223.831C496.564 225.404 496.466 226.979 496.269 228.551C496.269 229.731 496.171 230.911 495.973 232.091C495.973 233.074 495.876 234.059 495.678 235.041C495.678 236.024 495.678 236.516 495.678 236.516C495.678 238.089 495.678 239.664 495.678 241.236C495.876 242.809 496.071 244.384 496.269 245.956C496.466 247.529 496.466 249.299 496.269 251.266C495.876 252.249 495.678 253.331 495.678 254.511C495.876 255.494 495.876 256.479 495.678 257.461C495.088 258.051 494.595 258.444 494.202 258.641C493.809 259.034 493.317 259.231 492.726 259.231C492.136 259.034 491.841 258.544 491.841 257.756V250.676C491.643 249.299 491.546 247.924 491.546 246.546C491.546 245.169 491.546 243.794 491.546 242.416C491.546 240.056 491.546 237.794 491.546 235.631C491.743 233.271 491.841 230.911 491.841 228.551C491.841 225.994 491.841 223.536 491.841 221.176C491.841 218.619 491.743 216.064 491.546 213.506C491.153 209.376 490.758 205.246 490.365 201.116C489.972 196.789 489.577 192.561 489.184 188.431C488.987 186.859 488.889 185.284 488.889 183.711C489.086 181.941 489.086 180.27 488.889 178.696C488.692 177.123 488.496 175.648 488.299 174.271C488.101 172.698 487.806 171.125 487.413 169.551C487.413 168.175 487.315 166.896 487.118 165.716C487.118 164.536 487.02 163.356 486.823 162.176C486.43 160.013 486.035 157.948 485.642 155.981C485.445 153.818 485.15 151.655 484.757 149.491C484.559 148.705 484.068 147.721 483.281 146.541H482.69C482.493 147.131 482.297 147.721 482.1 148.311C481.903 148.901 481.707 149.491 481.51 150.081C481.312 150.671 481.117 151.36 480.919 152.146C480.919 152.736 480.821 153.326 480.624 153.916C480.231 155.49 479.836 156.965 479.443 158.341C479.246 159.521 478.951 160.898 478.558 162.471C478.165 163.848 477.77 165.126 477.377 166.306C477.18 167.486 476.984 168.666 476.787 169.846C476.589 170.83 476.492 171.715 476.492 172.501C476.492 173.288 476.394 174.075 476.196 174.861C475.803 176.435 475.409 178.106 475.016 179.876C474.623 181.45 474.228 183.023 473.835 184.596C474.425 185.579 474.623 186.564 474.425 187.546C474.425 188.334 474.228 189.219 473.835 190.201C473.638 190.594 473.54 191.086 473.54 191.676C473.54 192.069 473.442 192.464 473.245 192.856C473.245 193.249 473.147 193.544 472.949 193.741C472.949 193.741 472.949 193.939 472.949 194.331C472.556 196.691 472.261 199.051 472.064 201.411C471.867 203.574 471.571 205.836 471.178 208.196C470.981 209.574 470.785 210.851 470.588 212.031C470.588 213.211 470.49 214.391 470.293 215.571V216.456C469.505 217.636 469.112 218.914 469.112 220.291C469.112 221.471 468.915 222.749 468.522 224.126C467.734 226.684 467.243 228.944 467.046 230.911C466.849 231.304 466.751 231.699 466.751 232.091C466.948 232.484 466.948 232.879 466.751 233.271C466.751 234.254 466.553 235.534 466.16 237.106C465.963 238.679 465.472 240.549 464.684 242.711C463.897 244.874 463.406 246.841 463.209 248.611C463.011 249.594 462.816 250.579 462.618 251.561C462.618 252.544 462.816 253.529 463.209 254.511C463.406 255.494 463.406 256.379 463.209 257.166C463.011 257.756 462.816 258.444 462.618 259.231C462.225 260.804 461.83 262.476 461.438 264.246C461.045 265.819 460.749 267.394 460.552 268.966C460.355 269.556 460.355 270.244 460.552 271.031C460.749 271.621 460.945 272.409 461.142 273.391C462.126 273.391 463.111 273.489 464.094 273.686C465.077 273.686 466.16 273.589 467.341 273.391C468.324 273.391 468.817 272.899 468.817 271.916C469.21 270.736 469.505 269.654 469.703 268.671C469.9 267.491 469.703 266.214 469.112 264.836C468.522 262.476 468.62 260.116 469.407 257.756C469.8 255.789 470.195 253.921 470.588 252.151C471.178 250.381 471.571 248.514 471.769 246.546C471.966 245.169 472.162 243.891 472.359 242.711C472.752 241.334 473.147 239.859 473.54 238.286C473.933 237.499 474.13 236.811 474.13 236.221C473.933 234.649 474.032 233.271 474.425 232.091C474.818 230.714 475.213 229.239 475.606 227.666C475.803 226.684 475.901 225.799 475.901 225.011C475.901 224.029 475.901 223.044 475.901 222.061C476.099 221.471 476.196 220.979 476.196 220.586C476.394 219.996 476.885 219.604 477.672 219.406C477.672 218.226 477.77 217.439 477.967 217.046C478.36 215.866 478.656 214.884 478.853 214.096C479.246 212.719 479.836 212.031 480.624 212.031C481.607 212.229 482.395 212.326 482.986 212.326C483.773 212.326 484.461 212.719 485.052 213.506C486.035 214.884 486.528 216.259 486.528 217.636C486.725 218.816 486.921 220.194 487.118 221.766C487.315 223.536 487.413 225.306 487.413 227.076C487.611 228.846 487.806 230.714 488.004 232.681C488.004 234.059 488.004 235.434 488.004 236.811C488.201 238.189 488.201 239.664 488.004 241.236C487.611 242.614 487.511 243.891 487.708 245.071C488.101 246.251 488.101 247.529 487.708 248.906V250.971C487.906 253.331 488.004 255.691 488.004 258.051C488.201 260.214 488.397 262.476 488.594 264.836C488.594 266.214 488.004 266.999 486.823 267.196C485.445 267.196 484.659 266.606 484.461 265.426C484.068 263.854 483.674 262.181 483.281 260.411C482.888 258.641 482.888 256.871 483.281 255.101C483.674 254.119 483.674 253.134 483.281 252.151C483.083 250.971 482.888 249.791 482.69 248.611V247.726C482.69 245.564 482.69 243.399 482.69 241.236C482.69 239.074 482.888 236.909 483.281 234.746C483.674 232.779 483.576 230.911 482.986 229.141C482.593 227.174 482.395 225.209 482.395 223.241C482.395 222.651 482.395 222.061 482.395 221.471C482.395 220.684 482.297 219.899 482.1 219.111H481.805C481.412 220.684 481.017 222.259 480.624 223.831C480.231 225.404 479.836 226.979 479.443 228.551C478.853 230.714 478.558 232.879 478.558 235.041C478.558 237.009 478.36 239.074 477.967 241.236C477.967 241.629 477.87 241.826 477.672 241.826C476.492 243.794 475.803 245.859 475.606 248.021C475.409 250.184 475.114 252.349 474.721 254.511C474.328 255.889 474.13 257.364 474.13 258.936C474.328 260.314 474.425 261.689 474.425 263.066C474.032 265.819 473.638 267.984 473.245 269.556C473.245 269.949 473.147 270.441 472.949 271.031C472.949 271.621 472.949 272.114 472.949 272.506C472.949 273.294 473.147 273.686 473.54 273.686C473.933 273.686 474.328 273.686 474.721 273.686C476.294 273.686 477.77 273.686 479.148 273.686C480.722 273.686 482.297 273.784 483.871 273.981C486.232 273.981 488.791 274.276 491.546 274.866C492.529 275.064 493.612 275.161 494.793 275.161C495.973 275.161 497.154 275.359 498.335 275.751C499.908 276.144 500.204 277.129 499.22 278.701L494.793 285.781C493.809 287.551 492.726 289.321 491.546 291.091C490.562 292.664 489.577 294.336 488.594 296.106C488.201 296.696 487.906 297.286 487.708 297.876C487.708 298.466 487.511 299.154 487.118 299.941H488.594C488.987 300.334 489.282 300.729 489.479 301.121C488.889 301.711 488.594 302.006 488.594 302.006C486.823 302.596 485.937 303.679 485.937 305.251C485.937 306.824 485.84 308.399 485.642 309.971C485.445 311.349 485.347 312.824 485.347 314.396C485.15 316.364 484.954 318.231 484.757 320.001C484.757 321.771 484.659 323.639 484.461 325.606C484.264 328.359 484.166 331.014 484.166 333.571C484.166 335.931 484.068 338.489 483.871 341.241C483.871 343.209 483.871 345.174 483.871 347.141C484.068 349.109 484.068 351.074 483.871 353.041C483.871 355.204 483.773 357.269 483.576 359.236C483.378 361.006 483.083 362.974 482.69 365.136C482.493 366.709 482.297 368.284 482.1 369.856C481.903 371.429 481.607 373.101 481.214 374.871C483.969 375.264 486.035 375.659 487.413 376.051C487.806 376.249 488.101 376.444 488.299 376.641C488.692 376.839 489.087 377.034 489.479 377.231C489.087 377.429 488.692 377.624 488.299 377.821C488.101 378.214 487.806 378.411 487.413 378.411C486.233 378.411 484.854 378.214 483.281 377.821C482.297 377.429 481.707 377.329 481.51 377.526C481.312 377.724 481.214 378.314 481.214 379.296C481.214 380.279 481.214 381.264 481.214 382.246C481.214 383.229 481.312 384.214 481.51 385.196C481.51 386.376 481.117 386.966 480.329 386.966C478.36 387.359 477.377 386.966 477.377 385.786V378.116C477.377 376.936 476.984 376.149 476.196 375.756C472.852 374.774 469.998 373.494 467.636 371.921C465.275 370.939 463.996 369.169 463.799 366.611C463.799 366.414 463.602 365.726 463.209 364.546C462.225 362.186 461.535 359.334 461.142 355.991C460.552 353.041 460.454 349.699 460.847 345.961C461.045 344.781 461.045 343.601 460.847 342.421C460.65 341.241 460.552 340.061 460.552 338.881V336.816C460.552 335.834 460.552 334.949 460.552 334.161C460.552 333.179 460.65 332.194 460.847 331.211C460.847 330.229 460.749 329.344 460.552 328.556C460.355 327.769 460.257 326.984 460.257 326.196C460.059 325.214 460.159 323.739 460.552 321.771C460.749 320.789 460.749 320.001 460.552 319.411C460.355 318.624 460.355 317.739 460.552 316.756C460.945 314.789 461.142 312.824 461.142 310.856C461.34 308.889 461.93 306.924 462.913 304.956C463.504 303.974 463.111 303.481 461.733 303.481H454.648C453.665 303.481 452.582 303.481 451.401 303.481C450.418 303.284 449.433 303.089 448.45 302.891C447.466 302.891 446.383 302.891 445.203 302.891C444.219 302.891 443.234 302.794 442.251 302.596C441.07 302.399 439.89 302.301 438.709 302.301C437.528 302.104 436.347 302.006 435.167 302.006C433.198 301.614 431.329 301.416 429.558 301.416C427.787 301.219 426.016 300.924 424.245 300.531C421.491 300.139 418.734 299.744 415.98 299.351C413.226 298.761 410.469 298.269 407.715 297.876C405.354 297.484 402.992 296.991 400.631 296.401C398.467 295.811 396.301 295.319 394.137 294.926C393.349 294.729 392.563 294.729 391.775 294.926C391.185 294.926 390.397 294.926 389.414 294.926C385.872 294.926 384.298 293.156 384.691 289.616C384.889 288.634 384.986 287.551 384.986 286.371C384.986 285.191 384.986 284.011 384.986 282.831L385.872 274.866V270.146C385.872 268.574 386.56 267.786 387.938 267.786C388.921 267.589 389.807 267.589 390.595 267.786C391.383 267.786 392.268 267.689 393.251 267.491C396.203 267.099 399.155 267.099 402.107 267.491C405.059 267.689 408.01 267.984 410.962 268.376C412.733 268.574 414.406 268.769 415.98 268.966C417.751 269.164 419.424 269.556 420.998 270.146C422.179 270.736 423.36 271.031 424.54 271.031C425.918 270.834 427.197 271.129 428.378 271.916C428.575 271.916 428.673 271.819 428.673 271.621ZM494.793 277.521C493.219 277.324 491.644 277.129 490.07 276.931C488.692 276.734 487.216 276.539 485.642 276.341C484.659 276.144 483.576 276.046 482.395 276.046C481.412 275.849 480.427 275.751 479.443 275.751C477.87 275.751 476.394 275.849 475.016 276.046C473.638 276.046 472.162 276.144 470.588 276.341H469.407C467.636 275.751 465.865 275.554 464.094 275.751C462.52 275.949 460.847 275.949 459.076 275.751C457.698 275.554 456.322 275.554 454.944 275.751C453.763 275.751 452.484 275.751 451.106 275.751C448.942 275.751 446.776 275.751 444.612 275.751C442.448 275.554 440.282 275.359 438.118 275.161C436.545 274.964 435.069 274.866 433.691 274.866C432.313 274.866 430.936 274.669 429.558 274.276C427.394 273.884 425.328 273.489 423.36 273.096C421.588 272.704 419.62 272.309 417.456 271.916C415.292 271.524 413.028 271.229 410.667 271.031C408.503 270.834 406.337 270.639 404.173 270.441C401.812 270.049 399.45 269.851 397.089 269.851C394.925 269.851 392.661 270.049 390.3 270.441C389.512 270.639 389.119 271.129 389.119 271.916C389.119 272.704 389.021 273.489 388.824 274.276C388.824 274.866 388.824 275.554 388.824 276.341C388.626 277.521 388.431 278.701 388.233 279.881C388.036 280.864 387.938 281.849 387.938 282.831C387.741 284.011 387.643 285.289 387.643 286.666C387.84 287.846 388.036 289.026 388.233 290.206C388.233 291.584 388.921 292.271 390.3 292.271C392.071 292.271 393.349 292.369 394.137 292.566C395.711 292.959 397.089 293.354 398.269 293.746C399.648 293.944 401.024 294.239 402.402 294.631C403.976 295.024 405.451 295.319 406.83 295.516C408.208 295.714 409.584 296.009 410.962 296.401C412.143 296.599 413.323 296.894 414.504 297.286C415.685 297.484 416.963 297.679 418.342 297.876C420.506 298.269 422.769 298.564 425.131 298.761C427.492 298.959 429.756 299.154 431.92 299.351C433.298 299.549 434.674 299.744 436.052 299.941C437.43 299.941 438.807 300.039 440.185 300.236C442.153 300.434 444.022 300.629 445.793 300.826C447.564 300.826 449.433 300.826 451.401 300.826C453.173 301.024 454.944 301.121 456.715 301.121C458.486 301.121 460.159 301.121 461.733 301.121C463.111 301.514 463.799 301.024 463.799 299.646L464.684 293.451C464.684 292.074 465.275 291.386 466.456 291.386C467.439 291.386 468.227 291.386 468.817 291.386C469.605 291.189 470.49 291.091 471.474 291.091C472.852 291.091 474.13 291.189 475.311 291.386C476.492 291.386 477.77 291.386 479.148 291.386H485.347C486.921 291.386 487.806 290.796 488.004 289.616C488.201 289.224 488.397 288.929 488.594 288.731C488.791 288.339 488.987 287.944 489.184 287.551C489.775 286.764 490.365 285.979 490.955 285.191C491.546 284.404 492.136 283.519 492.726 282.536C493.119 281.749 493.415 280.964 493.612 280.176C494.005 279.389 494.4 278.504 494.793 277.521ZM477.672 373.396C477.87 372.609 477.967 371.921 477.967 371.331C477.967 370.544 478.065 369.856 478.263 369.266C478.656 367.694 478.853 366.219 478.853 364.841C479.05 363.269 479.246 361.694 479.443 360.121C479.641 357.959 479.836 355.894 480.034 353.926C480.231 351.764 480.132 349.599 479.739 347.436V347.141C479.936 344.191 480.132 341.241 480.329 338.291C480.526 335.341 480.722 332.391 480.919 329.441C481.117 326.689 481.214 323.934 481.214 321.181C481.214 318.231 481.412 315.379 481.805 312.626C482.002 311.839 481.707 311.151 480.919 310.561C480.329 310.364 480.034 309.774 480.034 308.791C480.427 306.824 480.822 305.349 481.214 304.366C481.805 303.186 481.51 302.596 480.329 302.596H478.853C477.082 302.596 475.311 302.694 473.54 302.891C471.966 302.891 470.391 302.891 468.817 302.891C467.046 303.089 466.063 303.874 465.865 305.251C465.472 307.021 465.177 308.791 464.98 310.561C464.782 312.331 464.587 314.101 464.389 315.871C464.192 317.444 464.094 318.919 464.094 320.296C464.094 321.674 464.094 323.149 464.094 324.721C464.094 326.099 464.094 327.474 464.094 328.851C464.292 330.031 464.389 331.211 464.389 332.391C464.389 335.734 464.389 338.979 464.389 342.126C464.389 345.274 464.487 348.519 464.684 351.861C464.882 353.829 465.077 355.794 465.275 357.761C465.472 359.531 465.767 361.399 466.16 363.366C466.948 366.119 468.324 368.479 470.293 370.446C472.457 372.216 474.918 373.199 477.672 373.396ZM483.576 293.746C483.378 293.549 483.183 293.451 482.986 293.451H469.998C469.605 293.451 469.112 293.746 468.522 294.336C468.129 295.319 467.834 296.401 467.636 297.581C467.636 298.564 467.439 299.646 467.046 300.826H469.112C471.276 300.629 473.342 300.531 475.311 300.531C477.475 300.531 479.641 300.434 481.805 300.236C482.593 300.236 483.183 299.844 483.576 299.056V293.746ZM401.516 249.791C401.714 248.809 401.714 247.924 401.516 247.136C401.319 246.349 401.419 245.464 401.812 244.481C402.204 243.694 402.599 243.006 402.992 242.416C403.385 241.629 403.385 240.744 402.992 239.761C402.795 238.974 402.894 238.189 403.287 237.401C403.68 236.614 404.075 235.729 404.468 234.746C404.861 233.566 405.256 232.484 405.649 231.501C406.239 230.321 406.732 229.141 407.125 227.961C407.322 227.569 407.322 227.174 407.125 226.781C407.125 226.389 407.125 225.994 407.125 225.601C406.534 224.029 406.927 222.651 408.305 221.471C407.322 220.489 407.027 219.701 407.42 219.111C408.01 218.324 408.503 217.636 408.896 217.046C409.289 215.669 409.486 214.391 409.486 213.211C409.684 212.031 409.879 210.754 410.077 209.376C410.077 208.589 409.979 207.901 409.781 207.311C409.584 206.721 409.486 206.034 409.486 205.246C409.289 204.854 409.191 204.264 409.191 203.476C409.781 203.476 410.274 203.476 410.667 203.476C411.257 203.279 411.848 203.181 412.438 203.181C413.421 203.379 413.914 203.869 413.914 204.656C414.111 205.246 414.307 205.836 414.504 206.426C414.702 209.179 414.799 211.834 414.799 214.391C414.799 216.949 414.897 219.504 415.095 222.061C415.095 229.731 415.39 237.204 415.98 244.481C415.98 246.054 416.177 247.629 416.57 249.201C416.963 250.579 417.259 252.054 417.456 253.626C417.653 254.806 417.751 255.986 417.751 257.166C417.751 258.346 417.849 259.526 418.046 260.706C418.046 261.296 418.144 261.886 418.342 262.476C418.539 262.869 418.637 263.361 418.637 263.951C418.637 265.131 418.539 265.819 418.342 266.016C416.963 266.409 415.98 266.509 415.39 266.311C415.192 266.114 415.095 265.819 415.095 265.426C415.095 265.034 414.997 264.639 414.799 264.246C414.012 262.674 413.521 261.394 413.323 260.411C413.126 259.429 412.931 258.444 412.733 257.461C412.536 256.281 412.438 255.199 412.438 254.216C412.241 252.644 412.143 251.266 412.143 250.086C412.143 248.709 411.945 247.234 411.552 245.661C410.569 242.514 410.174 239.664 410.372 237.106C410.765 235.729 410.962 234.451 410.962 233.271C410.962 231.894 410.962 230.519 410.962 229.141C410.962 228.944 410.864 228.749 410.667 228.551C410.667 228.354 410.667 228.159 410.667 227.961C410.274 227.764 410.077 227.666 410.077 227.666C410.077 228.059 409.979 228.354 409.781 228.551L406.239 243.596C405.649 245.759 405.059 247.824 404.468 249.791C403.878 251.759 403.385 253.824 402.992 255.986C402.009 258.936 402.009 261.886 402.992 264.836C403.19 265.229 403.19 265.524 402.992 265.721C402.795 265.919 402.697 266.114 402.697 266.311C401.319 266.311 400.631 266.114 400.631 265.721C400.238 264.739 399.843 263.854 399.45 263.066C399.057 262.084 399.057 260.904 399.45 259.526C399.843 258.544 399.943 257.461 399.745 256.281C399.745 254.904 399.843 253.626 400.04 252.446C400.238 251.856 400.729 250.971 401.516 249.791Z" fill="white"/>
</g>
</g>
<defs>
<clipPath id="clip0_140_155">
<rect width="880" height="885" fill="white"/>
</clipPath>
</defs>
</svg>
