<svg width="886" height="886" viewBox="0 0 886 886" fill="none" xmlns="http://www.w3.org/2000/svg">
<g clip-path="url(#clip0_173_349)">
<rect width="886" height="886" fill="white"/>
<rect width="886" height="886" fill="#E61EAA"/>
<rect y="569" width="886" height="317" fill="#640B49"/>
<path d="M491.114 768.754V769.528V770.561C491.114 770.906 491.114 771.249 491.114 771.593C491.285 771.938 491.285 772.281 491.114 772.626V775.465C490.942 775.981 490.855 776.756 490.855 777.788V779.595V781.918C490.51 783.296 490.252 784.844 490.08 786.565C490.08 788.113 489.909 789.749 489.564 791.469C489.047 793.879 488.531 796.115 488.014 798.18C487.669 800.074 487.326 801.965 486.981 803.859C486.81 804.72 486.636 805.494 486.465 806.182C486.293 806.87 486.12 807.644 485.948 808.505C485.603 809.021 485.345 809.624 485.173 810.312C485.173 811 485.086 811.689 484.915 812.377C484.398 814.271 483.882 816.249 483.365 818.314C483.02 820.207 482.677 822.186 482.332 824.251C481.987 825.628 481.729 827.003 481.557 828.381C481.557 829.758 481.386 831.134 481.041 832.511C481.041 833.543 480.954 834.404 480.782 835.092C480.611 835.953 480.524 836.812 480.524 837.673C480.524 838.534 480.437 839.48 480.266 840.513C480.266 840.684 480.266 840.857 480.266 841.029C480.437 841.2 480.524 841.374 480.524 841.545C480.696 842.749 480.524 843.61 480.008 844.126C479.836 844.471 479.233 844.643 478.2 844.643H477.941H475.617H474.067H472.259C471.914 844.643 471.571 844.556 471.226 844.384C471.054 844.384 470.796 844.384 470.451 844.384H465.027H462.961H461.411H457.537C457.021 844.384 456.504 844.384 455.987 844.384C455.471 844.556 454.954 844.643 454.438 844.643H450.047C448.152 844.643 446.776 844.556 445.914 844.384H444.623C444.107 844.213 443.59 844.126 443.073 844.126C442.557 844.126 442.127 844.04 441.782 843.868C441.437 843.868 441.094 843.697 440.749 843.352C440.749 843.352 440.662 843.265 440.491 843.094C440.319 843.094 440.232 842.922 440.232 842.578V842.32C440.577 841.975 440.749 841.803 440.749 841.803H443.332C442.644 840.942 442.47 839.825 442.815 838.448C442.815 838.103 442.728 837.845 442.557 837.673C442.385 837.502 442.299 837.157 442.299 836.641C442.127 836.125 442.04 835.35 442.04 834.318V832.511C442.04 832.166 441.954 831.994 441.782 831.994C441.782 831.823 441.782 831.565 441.782 831.22C441.61 830.875 441.524 830.446 441.524 829.93V825.8C441.524 825.455 441.61 825.283 441.782 825.283C441.437 824.596 441.352 824.164 441.524 823.993C441.695 823.648 441.695 823.39 441.524 823.218C441.007 823.047 440.749 822.531 440.749 821.67C440.749 821.325 440.836 821.067 441.007 820.895V820.379C441.007 820.034 440.92 819.691 440.749 819.346C440.749 818.83 440.749 818.401 440.749 818.056C440.577 817.711 440.491 817.453 440.491 817.281C440.491 816.937 440.404 816.594 440.232 816.249C440.061 815.733 439.887 815.216 439.716 814.7C439.716 814.012 439.629 813.41 439.457 812.893C439.286 811.861 439.199 810.828 439.199 809.796C439.199 808.763 439.199 807.731 439.199 806.698C439.028 806.182 438.941 805.236 438.941 803.859V801.536V800.503C438.941 800.158 438.854 799.987 438.683 799.987C438.683 799.816 438.683 799.557 438.683 799.213C438.683 798.868 438.683 798.61 438.683 798.438C438.854 798.093 438.941 797.751 438.941 797.406V795.599V793.792V791.469V789.404C439.112 788.716 439.199 787.684 439.199 786.306V784.241C439.371 783.554 439.371 782.779 439.199 781.918C438.854 780.541 438.854 779.166 439.199 777.788C439.199 777.443 439.199 777.185 439.199 777.014C439.371 776.842 439.457 776.584 439.457 776.24V774.949C439.629 773.916 439.716 772.884 439.716 771.851C439.716 770.819 439.887 769.786 440.232 768.754C440.232 767.377 440.404 765.828 440.749 764.108C441.094 762.73 441.265 761.698 441.265 761.01C441.437 760.665 441.524 760.149 441.524 759.461C441.524 758.6 441.61 757.913 441.782 757.396C442.127 756.364 442.299 755.331 442.299 754.299C442.47 753.266 442.728 752.234 443.073 751.201L443.848 748.104C443.848 747.932 443.848 747.846 443.848 747.846C444.02 747.674 444.107 747.416 444.107 747.071C444.451 746.039 444.623 745.265 444.623 744.748C444.623 743.887 444.623 743.028 444.623 742.167C444.795 741.135 444.968 740.189 445.14 739.328L445.914 735.456C445.914 735.111 445.914 734.768 445.914 734.423C446.086 733.907 446.173 733.477 446.173 733.133C446.344 732.788 446.431 732.187 446.431 731.326V730.293V729.777V729.519V729.003C446.431 728.486 446.518 728.057 446.689 727.712C446.689 727.367 446.689 727.024 446.689 726.68C446.861 726.163 446.948 725.734 446.948 725.389C447.119 724.701 447.206 724.012 447.206 723.324C447.206 722.636 447.206 721.947 447.206 721.259C447.377 720.743 447.377 720.226 447.206 719.71C447.206 719.194 447.206 718.591 447.206 717.903V715.064V711.966V709.127C447.206 708.095 447.119 707.32 446.948 706.804V705.771V705.513L447.206 703.19C447.206 702.329 447.206 701.47 447.206 700.609C447.206 699.748 447.293 698.889 447.464 698.028C447.464 696.824 447.377 695.963 447.206 695.446C447.034 694.242 446.948 693.123 446.948 692.091C446.948 691.058 446.948 690.112 446.948 689.251C446.948 688.907 446.948 688.648 446.948 688.477C447.119 688.306 447.206 688.047 447.206 687.703C447.551 686.325 447.464 685.121 446.948 684.089C446.776 683.917 446.689 683.744 446.689 683.573C446.861 683.228 446.948 682.97 446.948 682.798C447.293 682.111 447.464 681.078 447.464 679.701V677.378V675.571L445.914 677.119C445.226 677.981 444.536 678.755 443.848 679.443C443.332 679.959 442.644 680.389 441.782 680.733L441.524 681.508C441.179 681.852 440.92 682.195 440.749 682.54C440.749 682.712 440.577 682.97 440.232 683.315L439.974 683.831C439.629 684.347 439.286 684.863 438.941 685.38C438.596 685.724 438.253 686.154 437.908 686.67C437.22 687.358 436.788 687.961 436.616 688.477C436.1 688.822 435.67 689.251 435.325 689.768C435.153 690.112 434.808 690.542 434.292 691.058C434.12 691.23 433.862 691.661 433.517 692.349C433.172 692.694 432.829 693.037 432.484 693.381C432.312 693.726 432.054 694.069 431.709 694.414C431.364 694.759 431.021 695.102 430.676 695.446C430.504 695.791 430.246 696.134 429.901 696.479C428.868 697.856 428.18 698.802 427.835 699.318C427.49 699.663 427.232 699.921 427.06 700.093C427.06 700.264 426.888 700.522 426.543 700.867C426.543 700.867 426.372 701.212 426.027 701.899C425.51 702.244 424.907 702.932 424.219 703.965C423.874 704.309 423.702 704.739 423.702 705.255C423.357 706.288 422.582 706.804 421.378 706.804H420.861C419.828 706.804 418.795 706.804 417.762 706.804C416.729 706.632 415.696 706.459 414.662 706.288C413.629 705.943 412.509 705.771 411.305 705.771C410.272 705.6 409.239 705.342 408.205 704.997C407.86 704.826 407.517 704.739 407.172 704.739C407.001 704.739 406.742 704.652 406.397 704.481C406.052 704.481 405.709 704.309 405.364 703.965H405.106C405.106 703.793 405.019 703.706 404.848 703.706C404.848 703.535 404.761 703.448 404.59 703.448C402.523 702.932 400.629 701.813 398.907 700.093C398.562 699.921 398.219 699.748 397.874 699.576C397.703 699.405 397.444 699.232 397.099 699.06C396.411 698.715 395.808 698.286 395.291 697.77C394.43 697.425 394 696.737 394 695.705C394.345 694.843 394.946 694.156 395.808 693.64C396.325 693.468 397.013 692.952 397.874 692.091C398.219 691.403 398.994 690.629 400.199 689.768C400.37 689.596 400.457 689.423 400.457 689.251C400.629 689.08 400.887 688.907 401.232 688.735C401.577 688.564 401.748 688.39 401.748 688.219C401.92 688.047 402.178 687.789 402.523 687.445C403.556 686.412 404.418 685.638 405.106 685.121C405.451 684.777 405.709 684.518 405.881 684.347C406.226 684.002 406.569 683.659 406.914 683.315C407.259 682.97 407.689 682.54 408.205 682.024C408.722 681.508 409.239 681.078 409.755 680.733C410.272 680.562 410.788 680.046 411.305 679.185L412.08 678.41L413.113 677.636C413.629 676.948 414.404 676.087 415.437 675.055C415.609 674.883 415.696 674.796 415.696 674.796C415.696 674.625 415.782 674.452 415.954 674.28L416.729 673.506C417.074 673.161 417.245 672.903 417.245 672.731C417.59 672.387 417.849 672.128 418.02 671.957C418.365 671.612 418.795 671.354 419.312 671.183C419.483 671.183 419.57 671.096 419.57 670.925C419.741 670.753 419.828 670.58 419.828 670.408C420 670.063 420.258 669.721 420.603 669.376C420.948 668.688 421.291 668.085 421.636 667.569C422.153 667.053 422.841 666.623 423.702 666.278C423.702 666.278 423.874 666.107 424.219 665.762V665.504L424.994 664.73C425.339 664.042 425.682 663.61 426.027 663.439C426.888 662.406 427.835 661.287 428.868 660.083C430.073 658.879 431.364 657.673 432.742 656.47C433.947 655.092 435.238 653.717 436.616 652.34C438.166 650.962 439.629 649.587 441.007 648.21C442.212 647.006 443.332 645.8 444.365 644.596C445.569 643.392 446.861 642.015 448.239 640.466C449.96 638.572 450.822 636.594 450.822 634.529C450.822 634.357 450.735 634.184 450.564 634.013C450.392 633.152 450.305 632.635 450.305 632.464C450.477 632.119 450.909 631.776 451.597 631.431C451.597 631.431 451.768 631.345 452.113 631.173C452.975 630.828 453.75 630.57 454.438 630.399C455.126 630.227 455.816 630.054 456.504 629.883C457.192 629.883 458.225 629.711 459.603 629.366C459.948 629.195 460.55 629.108 461.411 629.108H462.444H462.703C463.736 628.937 464.769 628.85 465.802 628.85C466.835 628.679 467.868 628.421 468.901 628.076C469.418 627.904 470.364 627.646 471.743 627.301C472.431 626.957 473.121 626.785 473.809 626.785L480.008 625.236C481.729 624.892 482.849 625.666 483.365 627.56C483.365 627.904 483.365 628.247 483.365 628.592C483.537 628.937 483.623 629.28 483.623 629.625L484.398 631.948C484.57 632.809 484.657 633.583 484.657 634.271C484.657 634.958 484.743 635.733 484.915 636.594V637.626C485.26 639.52 485.431 641.412 485.431 643.305C485.603 645.025 485.861 646.832 486.206 648.726C486.206 649.413 486.206 650.016 486.206 650.533C486.378 651.049 486.465 651.652 486.465 652.34C486.465 653.544 486.636 655.007 486.981 656.728C486.981 657.589 486.981 658.363 486.981 659.051C487.153 659.567 487.326 660.17 487.498 660.858C487.498 661.202 487.498 661.545 487.498 661.89C487.669 662.235 487.756 662.578 487.756 662.923V663.181C487.756 663.526 487.756 663.784 487.756 663.955C487.928 664.127 488.014 664.3 488.014 664.471C487.843 666.02 487.843 667.656 488.014 669.376C488.359 671.096 488.702 672.903 489.047 674.796C489.219 675.141 489.306 675.571 489.306 676.087V676.603V677.636V680.991V682.54V683.573V684.605V688.477V691.316C489.306 691.661 489.306 692.004 489.306 692.349C489.477 692.52 489.564 692.779 489.564 693.123V694.414V695.446V699.576C489.564 700.954 489.564 702.329 489.564 703.706C489.564 704.91 489.651 706.201 489.822 707.578C489.822 708.439 489.822 709.214 489.822 709.901C489.822 710.589 489.735 711.363 489.564 712.225V717.387C489.735 718.936 489.822 720.485 489.822 722.033C489.822 723.582 489.909 725.217 490.08 726.938C490.08 728.831 490.167 730.207 490.339 731.068V735.198C490.51 736.059 490.597 736.833 490.597 737.521C490.597 738.037 490.597 738.64 490.597 739.328C490.597 740.189 490.597 741.048 490.597 741.909C490.597 742.597 490.684 743.371 490.855 744.232C490.855 745.093 490.855 745.867 490.855 746.555C490.855 747.243 490.942 747.932 491.114 748.62C491.285 749.481 491.372 750.34 491.372 751.201C491.372 752.062 491.372 752.922 491.372 753.783C491.543 754.644 491.543 755.418 491.372 756.106C491.372 756.622 491.372 757.31 491.372 758.171V760.752V762.559V764.882C491.372 766.086 491.285 766.947 491.114 767.463V768.754ZM488.273 766.689C488.444 766.001 488.531 765.312 488.531 764.624C488.531 763.936 488.531 763.162 488.531 762.301C488.702 761.613 488.789 760.665 488.789 759.461V757.655C488.789 757.138 488.702 756.709 488.531 756.364C488.531 755.503 488.444 754.815 488.273 754.299V752.234V750.169C488.273 749.481 488.186 748.792 488.014 748.104C488.014 747.416 488.014 746.727 488.014 746.039C487.843 745.178 487.756 744.232 487.756 743.2C487.756 742.167 487.669 741.135 487.498 740.102C487.498 738.898 487.584 738.037 487.756 737.521V735.456C487.756 733.736 487.669 732.53 487.498 731.842V731.326V730.551C487.326 730.207 487.239 729.69 487.239 729.003C487.584 728.486 487.669 727.97 487.498 727.454C487.498 726.938 487.498 726.335 487.498 725.647C487.498 725.302 487.411 725.131 487.239 725.131C487.239 724.959 487.239 724.701 487.239 724.356V718.936V716.355V716.096V715.838L486.981 715.064V712.999V710.418V709.127V708.869V705.513V699.06V694.156V689.768C486.636 689.423 486.636 688.993 486.981 688.477C486.981 687.789 486.894 687.186 486.723 686.67V685.638V684.347V682.798V680.475C486.723 679.271 486.636 678.152 486.465 677.119C486.465 675.916 486.378 674.796 486.206 673.764C486.035 673.076 485.948 672.387 485.948 671.699C485.948 671.011 485.861 670.322 485.69 669.634C485.518 669.118 485.431 668.257 485.431 667.053C485.086 665.332 484.915 664.042 484.915 663.181V662.665V661.89C484.57 660.686 484.312 659.567 484.14 658.535C484.14 657.331 484.14 656.211 484.14 655.179V654.921C484.14 654.405 484.14 653.888 484.14 653.372C484.14 652.684 484.053 652.081 483.882 651.565C483.882 651.22 483.795 650.877 483.623 650.533C483.623 650.188 483.623 649.845 483.623 649.5C483.452 649.155 483.365 648.812 483.365 648.468C483.365 647.951 483.278 647.522 483.107 647.177C482.935 646.316 482.849 645.457 482.849 644.596C482.849 643.735 482.762 642.702 482.59 641.498C482.59 641.154 482.504 640.811 482.332 640.466C482.332 640.121 482.332 639.778 482.332 639.433C482.332 638.056 482.245 637.023 482.074 636.336C481.902 635.475 481.729 634.7 481.557 634.013C481.557 633.152 481.471 632.292 481.299 631.431C481.299 631.087 481.212 630.744 481.041 630.399C481.041 629.883 481.041 629.453 481.041 629.108C481.041 628.592 480.869 628.334 480.524 628.334L480.008 628.592C479.146 628.592 478.545 628.679 478.2 628.85L474.325 629.625C472.776 629.969 471.226 630.312 469.676 630.657C468.127 631.002 466.49 631.345 464.769 631.69C463.391 631.861 461.928 632.034 460.378 632.206C459 632.377 457.624 632.635 456.246 632.98L455.471 633.238C454.438 633.238 453.921 633.583 453.921 634.271C453.75 635.132 453.576 636.078 453.405 637.11C453.405 638.143 453.318 639.089 453.146 639.95C453.146 640.811 452.975 641.928 452.63 643.305C452.63 644.509 452.543 645.457 452.371 646.145C452.371 647.006 452.285 647.78 452.113 648.468C452.113 649.155 452.027 649.93 451.855 650.791C451.51 652.511 451.252 654.233 451.08 655.953C451.08 657.674 450.993 659.48 450.822 661.374V662.923C450.822 663.784 450.909 664.471 451.08 664.988V666.278V667.827H451.855H452.113C452.458 667.827 452.63 667.914 452.63 668.085C452.801 668.085 452.888 668.172 452.888 668.343C452.888 668.515 452.801 668.601 452.63 668.601V669.634C452.285 670.15 452.027 670.408 451.855 670.408C451.167 670.753 450.735 671.527 450.564 672.731V677.119V678.926V695.446V700.351V701.383V706.546C450.564 707.407 450.564 708.266 450.564 709.127C450.564 709.988 450.65 710.847 450.822 711.708V717.903V718.42V722.291C450.822 722.808 450.735 723.324 450.564 723.84C450.564 724.356 450.564 724.873 450.564 725.389C450.392 726.25 450.219 727.109 450.047 727.97C450.047 728.658 450.047 729.432 450.047 730.293C450.047 732.358 449.702 734.423 449.014 736.488V737.005V738.811C448.842 739.328 448.756 739.931 448.756 740.618C448.756 741.134 448.669 741.651 448.497 742.167C448.326 743.544 448.152 744.92 447.981 746.297C447.809 747.501 447.551 748.792 447.206 750.169L446.431 754.041C446.259 754.557 446.173 755.073 446.173 755.59C446.173 755.934 446.086 756.364 445.914 756.88C445.743 757.568 445.569 758.171 445.398 758.687C445.398 759.203 445.311 759.806 445.14 760.494C445.14 761.182 444.968 762.214 444.623 763.591C444.451 764.452 444.278 765.398 444.107 766.431C443.935 767.292 443.761 768.151 443.59 769.012C443.418 770.216 443.332 771.422 443.332 772.626C443.332 773.658 443.245 774.691 443.073 775.723V778.046V780.628C443.073 781.66 442.987 782.348 442.815 782.693V786.823C442.644 787.684 442.557 788.458 442.557 789.146C442.557 789.662 442.557 790.265 442.557 790.953V792.759V794.566C442.557 795.254 442.47 795.686 442.299 795.857V798.696C442.47 799.557 442.557 800.417 442.557 801.278C442.557 801.965 442.644 802.74 442.815 803.601C442.815 804.462 442.815 805.236 442.815 805.924C442.815 806.612 442.902 807.301 443.073 807.989V810.57C443.073 811.086 443.073 811.689 443.073 812.377C443.073 812.893 443.16 813.41 443.332 813.926C443.332 814.097 443.332 814.271 443.332 814.442C443.503 814.442 443.59 814.529 443.59 814.7C443.935 815.045 444.107 815.475 444.107 815.991C444.107 817.023 444.193 817.798 444.365 818.314C444.71 819.346 444.881 820.292 444.881 821.153C444.71 821.841 444.623 822.531 444.623 823.218C444.795 823.735 444.881 824.251 444.881 824.767V826.832C444.536 828.036 444.623 828.984 445.14 829.671V830.446C444.968 830.791 444.881 831.22 444.881 831.736C445.053 832.081 445.14 832.511 445.14 833.027C445.14 833.199 445.14 833.285 445.14 833.285C445.311 833.457 445.398 833.715 445.398 834.06C445.569 834.921 445.656 835.866 445.656 836.899C445.656 837.931 445.656 838.877 445.656 839.738V842.061H477.425V841.803V839.996V838.964V836.641C477.425 836.296 477.425 835.953 477.425 835.608C477.596 835.264 477.683 834.921 477.683 834.576C477.683 834.404 477.683 834.231 477.683 834.06C477.855 833.888 477.941 833.63 477.941 833.285C477.941 832.94 477.941 832.511 477.941 831.994C478.113 831.478 478.2 830.962 478.2 830.446C478.371 829.758 478.458 829.155 478.458 828.639C478.458 827.951 478.545 827.262 478.716 826.574C478.888 826.229 478.974 825.886 478.974 825.541C478.974 825.025 479.061 824.596 479.233 824.251C479.233 824.079 479.233 823.993 479.233 823.993C479.404 823.993 479.491 823.906 479.491 823.735C479.491 823.39 479.491 823.218 479.491 823.218C479.663 823.047 479.749 822.789 479.749 822.444C479.921 822.099 480.008 821.841 480.008 821.67C480.008 821.325 480.094 820.982 480.266 820.637C480.266 820.292 480.266 820.034 480.266 819.863C480.437 819.518 480.524 819.175 480.524 818.83C480.524 818.659 480.524 818.485 480.524 818.314C480.696 818.142 480.782 817.884 480.782 817.54C480.954 817.023 481.041 816.42 481.041 815.733C481.212 815.045 481.386 814.355 481.557 813.668C481.557 813.496 481.557 813.41 481.557 813.41C481.729 813.238 481.816 812.98 481.816 812.635C481.987 812.464 482.074 812.206 482.074 811.861C482.245 811.516 482.332 811.258 482.332 811.086C482.332 810.915 482.419 810.742 482.59 810.57C482.935 809.538 483.194 808.505 483.365 807.473C483.537 806.44 483.71 805.408 483.882 804.375C483.882 803.859 484.053 803.085 484.398 802.052C484.743 800.675 484.828 799.557 484.657 798.696C484.657 798.525 484.828 798.094 485.173 797.406C485.173 797.406 485.26 797.319 485.431 797.148C485.603 796.976 485.69 796.803 485.69 796.631C485.861 796.115 485.948 795.083 485.948 793.534C485.948 792.157 486.206 790.781 486.723 789.404C486.894 788.543 486.981 787.768 486.981 787.081C487.153 786.393 487.239 785.703 487.239 785.016C487.068 784.155 486.981 783.296 486.981 782.435C487.153 781.402 487.326 780.456 487.498 779.595C487.669 779.079 487.756 778.305 487.756 777.272L488.014 775.981C488.014 775.12 488.014 774.433 488.014 773.916C488.186 773.229 488.273 772.454 488.273 771.593V769.27V766.689ZM447.464 664.213C447.293 663.697 447.206 663.009 447.206 662.148C447.377 661.461 447.464 660.858 447.464 660.341C447.464 659.825 447.551 659.222 447.722 658.535C447.722 657.673 447.809 657.072 447.981 656.728C447.981 655.867 447.981 655.092 447.981 654.405C448.152 653.544 448.326 652.684 448.497 651.823L448.756 648.984V648.726C448.927 648.554 449.014 648.21 449.014 647.693L449.789 644.596C449.789 643.908 449.702 643.392 449.53 643.047L449.014 643.563C448.497 644.424 447.894 645.199 447.206 645.886C446.689 646.574 446.001 647.348 445.14 648.21C444.795 648.554 444.451 648.812 444.107 648.984C443.59 649.672 442.728 650.619 441.524 651.823C441.007 652.34 440.491 652.856 439.974 653.372C439.457 653.717 439.028 654.146 438.683 654.663C438.166 655.179 437.649 655.695 437.133 656.211C436.616 656.728 436.1 657.157 435.583 657.502C434.722 658.363 433.862 659.222 433 660.083C432.139 660.944 431.279 661.803 430.418 662.665C429.556 663.526 428.781 664.385 428.093 665.246C427.405 666.107 426.63 666.966 425.769 667.827C425.252 668.343 424.735 668.946 424.219 669.634C423.702 670.15 423.186 670.753 422.669 671.441C422.324 671.786 421.981 672.128 421.636 672.473C421.291 672.818 420.948 673.161 420.603 673.506L419.053 675.055C418.365 675.742 417.762 676.345 417.245 676.861C416.729 677.378 416.212 677.981 415.696 678.668L412.596 681.766L411.821 682.54C411.476 682.712 411.133 682.97 410.788 683.315L408.464 685.638C407.947 686.325 407.344 686.928 406.656 687.445L405.623 688.477L404.331 689.768C403.986 690.112 403.643 690.455 403.298 690.8C403.127 690.972 402.868 691.23 402.523 691.575L399.424 694.672C399.252 695.017 398.736 695.446 397.874 695.963L397.616 696.221H397.874C398.391 696.566 398.994 696.908 399.682 697.253C400.715 697.941 401.403 698.372 401.748 698.544C402.437 699.06 403.47 699.663 404.848 700.351C408.119 702.416 412.425 703.62 417.762 703.965C418.45 703.965 418.967 704.051 419.312 704.223C420 704.394 420.516 704.051 420.861 703.19C421.549 702.158 422.066 701.47 422.411 701.125L422.669 700.609L423.444 699.835C423.444 699.49 423.616 699.318 423.961 699.318C424.306 698.973 424.564 698.631 424.735 698.286C424.907 697.941 425.165 697.598 425.51 697.253C425.855 696.737 426.543 695.791 427.577 694.414L429.126 692.865C429.471 692.52 429.729 692.177 429.901 691.833C430.073 691.488 430.331 691.145 430.676 690.8C431.192 690.284 431.537 689.854 431.709 689.509C432.054 689.165 432.312 688.822 432.484 688.477C432.829 687.961 433.172 687.531 433.517 687.186L433.775 686.928V686.412L434.292 685.896C434.463 685.208 434.808 684.605 435.325 684.089C435.497 683.744 435.67 683.573 435.841 683.573C436.013 683.401 436.186 683.143 436.358 682.798C437.391 682.111 438.166 681.163 438.683 679.959C439.544 678.926 440.404 677.981 441.265 677.119C442.299 676.258 443.332 675.399 444.365 674.538C445.053 673.851 445.485 673.334 445.656 672.99C445.828 672.818 445.914 672.731 445.914 672.731C445.914 672.56 446.001 672.387 446.173 672.215V671.957C446.173 671.957 446.344 671.786 446.689 671.441C447.551 670.237 447.809 669.289 447.464 668.601V668.085V667.311V665.246V664.213Z" fill="white"/>
<path d="M429.04 283.405C429.04 282.225 428.843 280.848 428.45 279.275C428.253 276.522 428.057 273.768 427.86 271.015C427.662 268.262 427.467 265.508 427.269 262.755C426.876 259.412 426.581 256.265 426.384 253.315C426.384 250.168 426.286 247.022 426.089 243.875C425.891 242.302 425.696 240.63 425.498 238.86C425.498 237.09 425.301 235.418 424.908 233.845C424.711 232.272 424.515 230.698 424.318 229.125C424.12 227.552 423.825 225.978 423.432 224.405C423.235 223.422 423.039 222.34 422.842 221.16C422.842 219.98 422.644 218.898 422.251 217.915C421.858 215.752 421.464 213.687 421.071 211.72C420.873 209.557 420.578 207.393 420.185 205.23C419.988 204.837 419.89 204.542 419.89 204.345C420.087 204.148 420.185 203.853 420.185 203.46C420.185 202.87 420.087 202.28 419.89 201.69C419.89 201.1 419.89 200.412 419.89 199.625C419.89 199.428 419.792 199.33 419.595 199.33C419.595 199.133 419.595 198.937 419.595 198.74C419.595 197.167 419.497 195.79 419.3 194.61C419.3 193.233 419.3 191.758 419.3 190.185V177.205V173.075C419.3 171.502 419.202 170.027 419.004 168.65C419.004 167.077 418.907 165.503 418.709 163.93C418.709 161.767 418.021 159.407 416.643 156.85C416.25 158.817 415.855 160.685 415.462 162.455C415.069 164.028 414.97 165.7 415.167 167.47V168.06C414.774 169.24 414.379 170.42 413.986 171.6C413.789 172.78 413.494 174.058 413.101 175.435C412.903 176.418 412.708 177.303 412.51 178.09C412.313 178.877 412.117 179.762 411.92 180.745C411.723 182.122 411.527 183.498 411.33 184.875C411.132 186.252 410.837 187.628 410.444 189.005C410.444 189.988 410.444 190.972 410.444 191.955C410.444 192.938 410.346 193.922 410.149 194.905C409.756 196.282 409.461 197.658 409.263 199.035C409.263 200.215 409.066 201.493 408.673 202.87C408.28 204.443 407.985 206.115 407.788 207.885C407.788 209.655 407.59 211.327 407.197 212.9L406.312 216.44C405.919 218.603 405.426 220.668 404.836 222.635C404.443 224.602 404.048 226.568 403.655 228.535C403.458 230.108 403.262 231.583 403.065 232.96C403.065 234.14 402.967 235.517 402.77 237.09L401.884 242.4C401.491 243.973 401.294 245.448 401.294 246.825C401.294 248.202 401.096 249.578 400.703 250.955C400.506 251.938 400.211 252.823 399.818 253.61C399.62 254.397 399.425 255.282 399.227 256.265C398.637 258.232 398.047 260.1 397.456 261.87C397.063 263.64 396.669 265.41 396.276 267.18C395.685 269.343 394.602 271.802 393.029 274.555C392.438 275.538 392.143 276.227 392.143 276.62C392.143 276.817 392.438 277.407 393.029 278.39C392.438 278.783 391.455 278.882 390.077 278.685C388.896 278.292 388.306 277.8 388.306 277.21C388.108 276.817 388.208 276.128 388.601 275.145C388.994 274.358 389.191 273.768 389.191 273.375C389.782 271.998 390.274 270.72 390.667 269.54C391.258 268.163 391.75 266.787 392.143 265.41C392.536 264.23 392.931 263.05 393.324 261.87C393.914 260.493 394.407 259.117 394.8 257.74C395.193 256.363 395.488 254.987 395.685 253.61C395.883 252.233 396.178 250.758 396.571 249.185C396.768 248.595 396.866 248.005 396.866 247.415C396.866 246.628 396.964 245.94 397.161 245.35V244.465C397.554 243.482 397.849 242.597 398.047 241.81C398.244 240.827 398.539 239.843 398.932 238.86C398.932 238.073 399.13 237.09 399.523 235.91C399.523 235.32 399.425 234.73 399.227 234.14C399.227 233.55 399.325 233.058 399.523 232.665C399.916 230.895 400.113 229.125 400.113 227.355C400.113 225.585 400.211 223.815 400.408 222.045C400.408 221.258 400.606 220.472 400.999 219.685C401.391 218.898 401.687 218.112 401.884 217.325C402.277 216.145 402.474 215.26 402.474 214.67C402.672 213.687 402.867 212.802 403.065 212.015C403.262 211.228 403.458 210.343 403.655 209.36C403.853 208.377 403.95 207.393 403.95 206.41C403.95 205.427 404.048 204.443 404.245 203.46L405.131 199.035C405.328 198.642 405.426 197.855 405.426 196.675C405.624 196.085 405.624 195.495 405.426 194.905C405.229 194.118 405.524 193.528 406.312 193.135C406.312 193.135 406.312 192.742 406.312 191.955C405.919 190.382 405.819 188.907 406.017 187.53C406.409 186.153 406.902 184.777 407.492 183.4C407.69 182.81 407.788 182.318 407.788 181.925C407.985 181.335 408.181 180.745 408.378 180.155C408.575 178.582 408.771 177.008 408.968 175.435C409.166 173.862 409.361 172.288 409.559 170.715L410.444 166.29C410.837 164.913 411.132 163.635 411.33 162.455C411.723 161.078 412.117 159.8 412.51 158.62L413.396 155.08L414.282 149.77C414.479 148.59 415.265 148 416.643 148C418.807 148.393 420.185 149.573 420.775 151.54C421.168 153.507 421.563 155.375 421.956 157.145C422.547 158.915 422.939 160.783 423.137 162.75C423.53 165.503 423.925 168.355 424.318 171.305C424.711 174.058 424.711 176.91 424.318 179.86C424.12 181.04 424.12 182.22 424.318 183.4C424.515 184.58 424.613 185.76 424.613 186.94V194.02C424.81 196.183 424.908 198.248 424.908 200.215C425.105 201.985 425.301 203.952 425.498 206.115C425.696 207.885 425.891 209.655 426.089 211.425C426.286 213.195 426.581 214.965 426.974 216.735C427.172 218.308 427.367 219.783 427.565 221.16C427.957 222.34 428.352 223.717 428.745 225.29C429.138 227.847 429.433 230.305 429.631 232.665C429.828 235.025 430.123 237.483 430.516 240.04C430.714 241.22 430.812 242.4 430.812 243.58C431.009 244.76 431.304 245.842 431.697 246.825V248.595V256.855C431.697 257.838 431.697 258.92 431.697 260.1C431.894 261.28 431.992 262.362 431.992 263.345C431.992 264.918 432.19 266.492 432.583 268.065C432.976 269.638 432.976 271.212 432.583 272.785C432.385 273.768 432.385 274.85 432.583 276.03C432.976 277.21 433.271 278.292 433.468 279.275C433.665 279.865 433.763 280.652 433.763 281.635C433.763 283.798 434.846 284.88 437.01 284.88C437.798 284.683 438.979 284.585 440.552 284.585C442.126 284.782 443.799 284.88 445.57 284.88C447.341 284.88 449.015 284.978 450.588 285.175C451.376 285.175 452.064 285.273 452.655 285.47C453.442 285.47 454.228 285.47 455.016 285.47H457.082C457.082 284.29 457.082 283.208 457.082 282.225C457.28 281.045 457.378 279.963 457.378 278.98C457.77 277.407 457.968 275.932 457.968 274.555C458.165 273.178 458.361 271.703 458.558 270.13V268.655C458.756 268.065 458.853 267.573 458.853 267.18C458.853 266.59 458.951 266 459.149 265.41C459.346 265.017 459.444 264.82 459.444 264.82C459.246 263.05 459.346 261.28 459.739 259.51C460.329 257.74 460.722 256.068 460.92 254.495C461.313 252.332 461.707 250.168 462.1 248.005C462.691 245.842 463.183 243.678 463.576 241.515C463.774 240.335 463.969 239.253 464.167 238.27C464.56 237.09 464.855 235.91 465.052 234.73C465.445 233.157 465.643 231.583 465.643 230.01C465.84 228.437 466.135 226.863 466.528 225.29C466.725 223.52 466.921 221.75 467.118 219.98C467.316 218.21 467.611 216.342 468.004 214.375C468.397 212.408 468.594 210.54 468.594 208.77C468.792 206.803 469.087 204.837 469.48 202.87C469.873 200.707 470.168 198.543 470.365 196.38C470.758 194.217 471.153 192.053 471.546 189.89C471.939 187.923 472.234 186.055 472.432 184.285C472.825 182.318 473.219 180.352 473.612 178.385C474.005 176.812 474.3 175.238 474.498 173.665C474.695 172.092 475.088 170.518 475.679 168.945C476.269 166.782 476.762 164.618 477.154 162.455C477.547 160.292 478.433 158.227 479.811 156.26C480.008 156.063 480.106 155.867 480.106 155.67C480.304 155.473 480.499 155.277 480.697 155.08C481.09 153.703 481.877 153.015 483.058 153.015C484.829 153.015 486.108 153.605 486.895 154.785C487.879 156.752 488.864 159.21 489.847 162.16C490.24 163.143 490.535 164.127 490.733 165.11C491.126 166.093 491.225 167.077 491.028 168.06C490.83 169.24 490.93 170.322 491.323 171.305C491.913 172.288 492.306 173.37 492.504 174.55C492.504 176.713 492.602 178.877 492.799 181.04C492.996 183.203 493.291 185.367 493.684 187.53C493.684 188.513 493.684 189.595 493.684 190.775C493.882 191.955 494.077 193.037 494.275 194.02L495.16 207.295C495.358 209.852 495.455 212.408 495.455 214.965C495.653 217.325 495.948 219.783 496.341 222.34C496.734 225.093 497.129 227.552 497.522 229.715C497.522 229.912 497.424 230.108 497.227 230.305C497.227 230.305 497.227 230.502 497.227 230.895C497.029 232.468 496.931 234.042 496.931 235.615C496.931 237.188 496.834 238.762 496.636 240.335C496.636 241.515 496.538 242.695 496.341 243.875C496.341 244.858 496.243 245.842 496.046 246.825C496.046 247.808 496.046 248.3 496.046 248.3C496.046 249.873 496.046 251.447 496.046 253.02C496.243 254.593 496.439 256.167 496.636 257.74C496.834 259.313 496.834 261.083 496.636 263.05C496.243 264.033 496.046 265.115 496.046 266.295C496.243 267.278 496.243 268.262 496.046 269.245C495.456 269.835 494.963 270.228 494.57 270.425C494.177 270.818 493.684 271.015 493.094 271.015C492.504 270.818 492.209 270.327 492.209 269.54V262.46C492.011 261.083 491.913 259.707 491.913 258.33C491.913 256.953 491.913 255.577 491.913 254.2C491.913 251.84 491.913 249.578 491.913 247.415C492.111 245.055 492.209 242.695 492.209 240.335C492.209 237.778 492.209 235.32 492.209 232.96C492.209 230.403 492.111 227.847 491.913 225.29C491.52 221.16 491.126 217.03 490.733 212.9C490.34 208.573 489.945 204.345 489.552 200.215C489.355 198.642 489.257 197.068 489.257 195.495C489.454 193.725 489.454 192.053 489.257 190.48C489.059 188.907 488.864 187.432 488.666 186.055C488.469 184.482 488.174 182.908 487.781 181.335C487.781 179.958 487.683 178.68 487.486 177.5C487.486 176.32 487.388 175.14 487.191 173.96C486.798 171.797 486.403 169.732 486.01 167.765C485.812 165.602 485.517 163.438 485.124 161.275C484.927 160.488 484.436 159.505 483.648 158.325H483.058C482.861 158.915 482.665 159.505 482.468 160.095C482.27 160.685 482.075 161.275 481.877 161.865C481.68 162.455 481.484 163.143 481.287 163.93C481.287 164.52 481.189 165.11 480.992 165.7C480.599 167.273 480.204 168.748 479.811 170.125C479.614 171.305 479.318 172.682 478.926 174.255C478.533 175.632 478.138 176.91 477.745 178.09C477.547 179.27 477.352 180.45 477.154 181.63C476.957 182.613 476.859 183.498 476.859 184.285C476.859 185.072 476.762 185.858 476.564 186.645C476.171 188.218 475.776 189.89 475.383 191.66C474.99 193.233 474.596 194.807 474.203 196.38C474.793 197.363 474.99 198.347 474.793 199.33C474.793 200.117 474.596 201.002 474.203 201.985C474.005 202.378 473.907 202.87 473.907 203.46C473.907 203.853 473.81 204.247 473.612 204.64C473.612 205.033 473.515 205.328 473.317 205.525C473.317 205.525 473.317 205.722 473.317 206.115C472.924 208.475 472.629 210.835 472.432 213.195C472.234 215.358 471.939 217.62 471.546 219.98C471.349 221.357 471.153 222.635 470.956 223.815C470.956 224.995 470.858 226.175 470.661 227.355V228.24C469.873 229.42 469.48 230.698 469.48 232.075C469.48 233.255 469.282 234.533 468.889 235.91C468.102 238.467 467.611 240.728 467.414 242.695C467.216 243.088 467.118 243.482 467.118 243.875C467.316 244.268 467.316 244.662 467.118 245.055C467.118 246.038 466.921 247.317 466.528 248.89C466.331 250.463 465.84 252.332 465.052 254.495C464.264 256.658 463.774 258.625 463.576 260.395C463.379 261.378 463.183 262.362 462.986 263.345C462.986 264.328 463.183 265.312 463.576 266.295C463.774 267.278 463.774 268.163 463.576 268.95C463.379 269.54 463.183 270.228 462.986 271.015C462.593 272.588 462.198 274.26 461.805 276.03C461.412 277.603 461.117 279.177 460.92 280.75C460.722 281.34 460.722 282.028 460.92 282.815C461.117 283.405 461.313 284.192 461.51 285.175C462.493 285.175 463.478 285.273 464.462 285.47C465.445 285.47 466.528 285.372 467.709 285.175C468.692 285.175 469.185 284.683 469.185 283.7C469.578 282.52 469.873 281.438 470.07 280.455C470.268 279.275 470.07 277.997 469.48 276.62C468.889 274.26 468.987 271.9 469.775 269.54C470.168 267.573 470.563 265.705 470.956 263.935C471.546 262.165 471.939 260.297 472.136 258.33C472.334 256.953 472.529 255.675 472.727 254.495C473.12 253.118 473.515 251.643 473.907 250.07C474.3 249.283 474.498 248.595 474.498 248.005C474.3 246.432 474.4 245.055 474.793 243.875C475.186 242.498 475.581 241.023 475.974 239.45C476.171 238.467 476.269 237.582 476.269 236.795C476.269 235.812 476.269 234.828 476.269 233.845C476.466 233.255 476.564 232.763 476.564 232.37C476.762 231.78 477.252 231.387 478.04 231.19C478.04 230.01 478.138 229.223 478.335 228.83C478.728 227.65 479.023 226.667 479.221 225.88C479.614 224.503 480.204 223.815 480.992 223.815C481.975 224.012 482.763 224.11 483.353 224.11C484.141 224.11 484.829 224.503 485.419 225.29C486.403 226.667 486.895 228.043 486.895 229.42C487.093 230.6 487.288 231.977 487.486 233.55C487.683 235.32 487.781 237.09 487.781 238.86C487.978 240.63 488.174 242.498 488.371 244.465C488.371 245.842 488.371 247.218 488.371 248.595C488.569 249.972 488.569 251.447 488.371 253.02C487.978 254.397 487.879 255.675 488.076 256.855C488.469 258.035 488.469 259.313 488.076 260.69V262.755C488.273 265.115 488.371 267.475 488.371 269.835C488.569 271.998 488.764 274.26 488.962 276.62C488.962 277.997 488.371 278.783 487.191 278.98C485.812 278.98 485.027 278.39 484.829 277.21C484.436 275.637 484.041 273.965 483.648 272.195C483.255 270.425 483.255 268.655 483.648 266.885C484.041 265.902 484.041 264.918 483.648 263.935C483.451 262.755 483.255 261.575 483.058 260.395V259.51C483.058 257.347 483.058 255.183 483.058 253.02C483.058 250.857 483.255 248.693 483.648 246.53C484.041 244.563 483.944 242.695 483.353 240.925C482.96 238.958 482.763 236.992 482.763 235.025C482.763 234.435 482.763 233.845 482.763 233.255C482.763 232.468 482.665 231.682 482.468 230.895H482.173C481.78 232.468 481.385 234.042 480.992 235.615C480.599 237.188 480.204 238.762 479.811 240.335C479.221 242.498 478.926 244.662 478.926 246.825C478.926 248.792 478.728 250.857 478.335 253.02C478.335 253.413 478.237 253.61 478.04 253.61C476.859 255.577 476.171 257.642 475.974 259.805C475.776 261.968 475.481 264.132 475.088 266.295C474.695 267.672 474.498 269.147 474.498 270.72C474.695 272.097 474.793 273.473 474.793 274.85C474.4 277.603 474.005 279.767 473.612 281.34C473.612 281.733 473.515 282.225 473.317 282.815C473.317 283.405 473.317 283.897 473.317 284.29C473.317 285.077 473.515 285.47 473.907 285.47C474.3 285.47 474.695 285.47 475.088 285.47C476.662 285.47 478.138 285.47 479.516 285.47C481.09 285.47 482.665 285.568 484.239 285.765C486.6 285.765 489.159 286.06 491.913 286.65C492.897 286.847 493.98 286.945 495.16 286.945C496.341 286.945 497.522 287.142 498.702 287.535C500.276 287.928 500.571 288.912 499.588 290.485L495.16 297.565C494.177 299.335 493.094 301.105 491.913 302.875C490.93 304.448 489.945 306.12 488.962 307.89C488.569 308.48 488.273 309.07 488.076 309.66C488.076 310.25 487.879 310.938 487.486 311.725H488.962C489.355 312.118 489.65 312.512 489.847 312.905C489.257 313.495 488.962 313.79 488.962 313.79C487.191 314.38 486.305 315.462 486.305 317.035C486.305 318.608 486.207 320.182 486.01 321.755C485.812 323.132 485.715 324.607 485.715 326.18C485.517 328.147 485.322 330.015 485.124 331.785C485.124 333.555 485.027 335.423 484.829 337.39C484.632 340.143 484.534 342.798 484.534 345.355C484.534 347.715 484.436 350.272 484.239 353.025C484.239 354.992 484.239 356.958 484.239 358.925C484.436 360.892 484.436 362.858 484.239 364.825C484.239 366.988 484.141 369.053 483.944 371.02C483.746 372.79 483.451 374.757 483.058 376.92C482.861 378.493 482.665 380.067 482.468 381.64C482.27 383.213 481.975 384.885 481.582 386.655C484.337 387.048 486.403 387.442 487.781 387.835C488.174 388.032 488.469 388.228 488.666 388.425C489.059 388.622 489.454 388.818 489.847 389.015C489.454 389.212 489.059 389.408 488.666 389.605C488.469 389.998 488.174 390.195 487.781 390.195C486.6 390.195 485.222 389.998 483.648 389.605C482.665 389.212 482.075 389.113 481.877 389.31C481.68 389.507 481.582 390.097 481.582 391.08C481.582 392.063 481.582 393.047 481.582 394.03C481.582 395.013 481.68 395.997 481.877 396.98C481.877 398.16 481.484 398.75 480.697 398.75C478.728 399.143 477.745 398.75 477.745 397.57V389.9C477.745 388.72 477.352 387.933 476.564 387.54C473.219 386.557 470.365 385.278 468.004 383.705C465.643 382.722 464.364 380.952 464.167 378.395C464.167 378.198 463.969 377.51 463.576 376.33C462.593 373.97 461.903 371.118 461.51 367.775C460.92 364.825 460.822 361.482 461.215 357.745C461.412 356.565 461.412 355.385 461.215 354.205C461.017 353.025 460.92 351.845 460.92 350.665V348.6C460.92 347.617 460.92 346.732 460.92 345.945C460.92 344.962 461.017 343.978 461.215 342.995C461.215 342.012 461.117 341.127 460.92 340.34C460.722 339.553 460.624 338.767 460.624 337.98C460.427 336.997 460.527 335.522 460.92 333.555C461.117 332.572 461.117 331.785 460.92 331.195C460.722 330.408 460.722 329.523 460.92 328.54C461.313 326.573 461.51 324.607 461.51 322.64C461.707 320.673 462.298 318.707 463.281 316.74C463.871 315.757 463.478 315.265 462.1 315.265H455.016C454.033 315.265 452.95 315.265 451.769 315.265C450.786 315.068 449.801 314.872 448.817 314.675C447.834 314.675 446.751 314.675 445.57 314.675C444.587 314.675 443.602 314.577 442.619 314.38C441.438 314.183 440.257 314.085 439.076 314.085C437.896 313.888 436.715 313.79 435.534 313.79C433.566 313.397 431.697 313.2 429.926 313.2C428.155 313.003 426.384 312.708 424.613 312.315C421.858 311.922 419.102 311.528 416.348 311.135C413.593 310.545 410.837 310.053 408.083 309.66C405.721 309.267 403.36 308.775 400.999 308.185C398.834 307.595 396.669 307.103 394.505 306.71C393.717 306.513 392.931 306.513 392.143 306.71C391.553 306.71 390.765 306.71 389.782 306.71C386.24 306.71 384.666 304.94 385.059 301.4C385.256 300.417 385.354 299.335 385.354 298.155C385.354 296.975 385.354 295.795 385.354 294.615L386.24 286.65V281.93C386.24 280.357 386.928 279.57 388.306 279.57C389.289 279.373 390.175 279.373 390.962 279.57C391.75 279.57 392.636 279.472 393.619 279.275C396.571 278.882 399.523 278.882 402.474 279.275C405.426 279.472 408.378 279.767 411.33 280.16C413.101 280.357 414.774 280.553 416.348 280.75C418.119 280.947 419.792 281.34 421.366 281.93C422.547 282.52 423.727 282.815 424.908 282.815C426.286 282.618 427.565 282.913 428.745 283.7C428.943 283.7 429.04 283.602 429.04 283.405ZM495.16 289.305C493.587 289.108 492.011 288.912 490.438 288.715C489.059 288.518 487.583 288.322 486.01 288.125C485.026 287.928 483.944 287.83 482.763 287.83C481.78 287.633 480.794 287.535 479.811 287.535C478.237 287.535 476.762 287.633 475.383 287.83C474.005 287.83 472.529 287.928 470.956 288.125H469.775C468.004 287.535 466.233 287.338 464.462 287.535C462.888 287.732 461.215 287.732 459.444 287.535C458.066 287.338 456.689 287.338 455.311 287.535C454.131 287.535 452.852 287.535 451.474 287.535C449.31 287.535 447.144 287.535 444.98 287.535C442.816 287.338 440.65 287.142 438.486 286.945C436.912 286.748 435.437 286.65 434.058 286.65C432.68 286.65 431.304 286.453 429.926 286.06C427.762 285.667 425.696 285.273 423.727 284.88C421.956 284.487 419.988 284.093 417.824 283.7C415.66 283.307 413.396 283.012 411.035 282.815C408.871 282.618 406.705 282.422 404.541 282.225C402.179 281.832 399.818 281.635 397.456 281.635C395.292 281.635 393.029 281.832 390.667 282.225C389.88 282.422 389.487 282.913 389.487 283.7C389.487 284.487 389.389 285.273 389.191 286.06C389.191 286.65 389.191 287.338 389.191 288.125C388.994 289.305 388.798 290.485 388.601 291.665C388.404 292.648 388.306 293.632 388.306 294.615C388.108 295.795 388.011 297.073 388.011 298.45C388.208 299.63 388.404 300.81 388.601 301.99C388.601 303.367 389.289 304.055 390.667 304.055C392.438 304.055 393.717 304.153 394.505 304.35C396.078 304.743 397.456 305.137 398.637 305.53C400.015 305.727 401.391 306.022 402.77 306.415C404.343 306.808 405.819 307.103 407.197 307.3C408.575 307.497 409.952 307.792 411.33 308.185C412.51 308.382 413.691 308.677 414.872 309.07C416.053 309.267 417.331 309.463 418.709 309.66C420.873 310.053 423.137 310.348 425.498 310.545C427.86 310.742 430.123 310.938 432.287 311.135C433.665 311.332 435.042 311.528 436.42 311.725C437.798 311.725 439.174 311.823 440.552 312.02C442.521 312.217 444.39 312.413 446.161 312.61C447.932 312.61 449.801 312.61 451.769 312.61C453.54 312.807 455.311 312.905 457.082 312.905C458.853 312.905 460.527 312.905 462.1 312.905C463.478 313.298 464.167 312.807 464.167 311.43L465.052 305.235C465.052 303.858 465.643 303.17 466.823 303.17C467.807 303.17 468.594 303.17 469.185 303.17C469.972 302.973 470.858 302.875 471.841 302.875C473.219 302.875 474.498 302.973 475.679 303.17C476.859 303.17 478.138 303.17 479.516 303.17H485.715C487.288 303.17 488.174 302.58 488.371 301.4C488.569 301.007 488.764 300.712 488.962 300.515C489.159 300.122 489.355 299.728 489.552 299.335C490.142 298.548 490.733 297.762 491.323 296.975C491.913 296.188 492.504 295.303 493.094 294.32C493.487 293.533 493.782 292.747 493.98 291.96C494.373 291.173 494.767 290.288 495.16 289.305ZM478.04 385.18C478.237 384.393 478.335 383.705 478.335 383.115C478.335 382.328 478.433 381.64 478.63 381.05C479.023 379.477 479.221 378.002 479.221 376.625C479.418 375.052 479.614 373.478 479.811 371.905C480.008 369.742 480.204 367.677 480.401 365.71C480.599 363.547 480.499 361.383 480.106 359.22V358.925C480.304 355.975 480.499 353.025 480.697 350.075C480.894 347.125 481.09 344.175 481.287 341.225C481.484 338.472 481.582 335.718 481.582 332.965C481.582 330.015 481.78 327.163 482.173 324.41C482.37 323.623 482.075 322.935 481.287 322.345C480.697 322.148 480.401 321.558 480.401 320.575C480.794 318.608 481.189 317.133 481.582 316.15C482.172 314.97 481.877 314.38 480.697 314.38H479.221C477.45 314.38 475.679 314.478 473.907 314.675C472.334 314.675 470.758 314.675 469.185 314.675C467.414 314.872 466.43 315.658 466.233 317.035C465.84 318.805 465.545 320.575 465.347 322.345C465.15 324.115 464.954 325.885 464.757 327.655C464.56 329.228 464.462 330.703 464.462 332.08C464.462 333.457 464.462 334.932 464.462 336.505C464.462 337.882 464.462 339.258 464.462 340.635C464.659 341.815 464.757 342.995 464.757 344.175C464.757 347.518 464.757 350.763 464.757 353.91C464.757 357.057 464.855 360.302 465.052 363.645C465.25 365.612 465.445 367.578 465.643 369.545C465.84 371.315 466.135 373.183 466.528 375.15C467.316 377.903 468.692 380.263 470.661 382.23C472.825 384 475.286 384.983 478.04 385.18ZM483.944 305.53C483.746 305.333 483.551 305.235 483.353 305.235H470.365C469.972 305.235 469.48 305.53 468.889 306.12C468.497 307.103 468.201 308.185 468.004 309.365C468.004 310.348 467.807 311.43 467.414 312.61H469.48C471.644 312.413 473.71 312.315 475.679 312.315C477.843 312.315 480.008 312.217 482.173 312.02C482.96 312.02 483.551 311.627 483.944 310.84V305.53ZM401.884 261.575C402.081 260.592 402.081 259.707 401.884 258.92C401.687 258.133 401.786 257.248 402.179 256.265C402.572 255.478 402.967 254.79 403.36 254.2C403.753 253.413 403.753 252.528 403.36 251.545C403.163 250.758 403.262 249.972 403.655 249.185C404.048 248.398 404.443 247.513 404.836 246.53C405.229 245.35 405.624 244.268 406.017 243.285C406.607 242.105 407.099 240.925 407.492 239.745C407.69 239.352 407.69 238.958 407.492 238.565C407.492 238.172 407.492 237.778 407.492 237.385C406.902 235.812 407.295 234.435 408.673 233.255C407.69 232.272 407.395 231.485 407.788 230.895C408.378 230.108 408.871 229.42 409.263 228.83C409.656 227.453 409.854 226.175 409.854 224.995C410.051 223.815 410.247 222.537 410.444 221.16C410.444 220.373 410.346 219.685 410.149 219.095C409.952 218.505 409.854 217.817 409.854 217.03C409.656 216.637 409.559 216.047 409.559 215.26C410.149 215.26 410.642 215.26 411.035 215.26C411.625 215.063 412.215 214.965 412.806 214.965C413.789 215.162 414.282 215.653 414.282 216.44C414.479 217.03 414.674 217.62 414.872 218.21C415.069 220.963 415.167 223.618 415.167 226.175C415.167 228.732 415.265 231.288 415.462 233.845C415.462 241.515 415.757 248.988 416.348 256.265C416.348 257.838 416.545 259.412 416.938 260.985C417.331 262.362 417.626 263.837 417.824 265.41C418.021 266.59 418.119 267.77 418.119 268.95C418.119 270.13 418.217 271.31 418.414 272.49C418.414 273.08 418.512 273.67 418.709 274.26C418.907 274.653 419.004 275.145 419.004 275.735C419.004 276.915 418.907 277.603 418.709 277.8C417.331 278.193 416.348 278.292 415.757 278.095C415.56 277.898 415.462 277.603 415.462 277.21C415.462 276.817 415.364 276.423 415.167 276.03C414.379 274.457 413.889 273.178 413.691 272.195C413.494 271.212 413.298 270.228 413.101 269.245C412.903 268.065 412.806 266.983 412.806 266C412.608 264.427 412.51 263.05 412.51 261.87C412.51 260.493 412.313 259.018 411.92 257.445C410.937 254.298 410.542 251.447 410.739 248.89C411.132 247.513 411.33 246.235 411.33 245.055C411.33 243.678 411.33 242.302 411.33 240.925C411.33 240.728 411.232 240.532 411.035 240.335C411.035 240.138 411.035 239.942 411.035 239.745C410.642 239.548 410.444 239.45 410.444 239.45C410.444 239.843 410.346 240.138 410.149 240.335L406.607 255.38C406.017 257.543 405.426 259.608 404.836 261.575C404.245 263.542 403.753 265.607 403.36 267.77C402.377 270.72 402.377 273.67 403.36 276.62C403.557 277.013 403.557 277.308 403.36 277.505C403.163 277.702 403.065 277.898 403.065 278.095C401.687 278.095 400.999 277.898 400.999 277.505C400.606 276.522 400.211 275.637 399.818 274.85C399.425 273.867 399.425 272.687 399.818 271.31C400.211 270.327 400.31 269.245 400.113 268.065C400.113 266.688 400.211 265.41 400.408 264.23C400.606 263.64 401.096 262.755 401.884 261.575Z" fill="white"/>
</g>
<defs>
<clipPath id="clip0_173_349">
<rect width="886" height="886" fill="white"/>
</clipPath>
</defs>
</svg>
