<svg width="880" height="886" viewBox="0 0 880 886" fill="none" xmlns="http://www.w3.org/2000/svg">
<g clip-path="url(#clip0_140_79)">
<mask id="mask0_140_79" style="mask-type:luminance" maskUnits="userSpaceOnUse" x="0" y="0" width="880" height="886">
<path d="M880 0H0V886H880V0Z" fill="white"/>
</mask>
<g mask="url(#mask0_140_79)">
<path d="M879.84 0H-1.84473V547.009H879.84V0Z" fill="#E61EAA"/>
<path d="M879.84 547.009H-1.84473V886H879.84V547.009Z" fill="#640B49"/>
<path d="M492.284 691.154C492.629 692.016 492.629 692.962 492.284 693.996C492.112 694.685 492.025 695.718 492.025 697.097V697.872C492.025 699.078 491.939 699.94 491.767 700.457C491.767 700.802 491.68 701.06 491.509 701.232C491.509 701.403 491.509 701.662 491.509 702.007V703.816C491.509 704.85 491.422 705.625 491.25 706.142C491.25 707.004 491.079 708.122 490.734 709.501L490.476 710.535V710.793V711.052V711.568C490.476 712.257 490.389 712.689 490.217 712.861C490.217 713.032 490.131 713.206 489.959 713.377C489.959 713.377 489.959 713.464 489.959 713.636V714.153C489.614 714.841 489.356 715.531 489.184 716.22C489.013 716.737 488.839 717.425 488.668 718.287C488.151 719.666 487.548 721.043 486.86 722.422C486.172 723.627 485.482 724.919 484.793 726.298C484.793 726.47 484.707 726.557 484.535 726.557C484.535 726.557 484.535 726.643 484.535 726.815C483.847 727.849 483.502 728.624 483.502 729.141C483.33 729.829 483.157 730.433 482.985 730.95C482.814 731.467 482.556 732.07 482.211 732.759C482.211 733.104 482.039 733.447 481.694 733.792C481.349 734.826 481.091 735.514 480.919 735.86L480.144 736.635C480.144 736.807 479.973 737.065 479.628 737.41C479.628 737.582 479.541 737.755 479.37 737.927C479.37 737.927 479.37 738.099 479.37 738.444C479.198 738.615 479.111 738.789 479.111 738.961C479.111 739.132 479.025 739.306 478.853 739.477C477.991 741.028 477.217 742.32 476.528 743.354L476.27 743.612C475.925 744.301 475.582 744.817 475.237 745.163C475.066 745.334 474.892 745.421 474.721 745.421C474.721 745.421 474.634 745.508 474.462 745.679L474.204 745.938V746.196C474.032 746.541 473.946 746.885 473.946 747.23C473.774 747.575 473.601 747.834 473.429 748.005C473.258 748.005 473.084 748.092 472.913 748.264L472.396 748.78C472.051 749.126 471.793 749.384 471.621 749.556C471.621 749.727 471.45 749.986 471.105 750.331C470.76 751.019 470.416 751.451 470.071 751.623C469.726 752.14 469.383 752.657 469.038 753.174C468.693 753.519 468.35 753.949 468.005 754.466C466.456 756.361 464.819 758.17 463.098 759.892C461.548 761.615 459.912 763.423 458.191 765.319C456.469 767.041 454.833 768.85 453.283 770.746C451.734 772.642 450.184 774.535 448.634 776.431C448.118 776.948 447.343 777.895 446.31 779.274C439.078 788.405 429.866 795.554 418.674 800.722H418.415C417.037 801.411 415.919 801.928 415.058 802.273C414.886 802.273 414.713 802.359 414.541 802.531C414.369 802.531 414.196 802.531 414.025 802.531C413.68 802.703 413.421 802.79 413.25 802.79C413.078 802.79 412.82 802.876 412.475 803.048C413.336 803.22 414.111 803.393 414.799 803.565C415.661 803.565 416.521 803.652 417.382 803.823C419.277 804.168 421.17 804.512 423.064 804.857C425.131 805.029 427.11 805.287 429.005 805.632C430.209 805.804 431.329 805.977 432.362 806.149C433.567 806.149 434.774 806.149 435.978 806.149C437.873 806.321 439.681 806.494 441.402 806.666C443.297 806.666 445.19 806.837 447.084 807.183C448.634 807.528 450.097 807.871 451.475 808.216C453.025 808.388 454.403 808.646 455.608 808.992C455.953 809.163 456.469 809.25 457.157 809.25C458.362 809.595 459.569 810.025 460.773 810.542C462.151 810.887 463.011 811.576 463.356 812.609C463.701 813.126 463.701 813.73 463.356 814.418C463.185 815.107 462.926 815.71 462.581 816.227V816.744C461.893 817.949 461.377 819.157 461.032 820.362V821.654L460.257 823.98V824.238C459.74 825.1 459.74 825.702 460.257 826.047L460.773 826.564L460.257 826.822C459.912 826.994 459.482 827.167 458.965 827.339C458.62 827.511 458.277 827.598 457.932 827.598C457.587 827.598 457.244 827.511 456.899 827.339L456.124 826.564C456.124 826.392 456.038 826.305 455.866 826.305C455.866 826.134 455.436 825.875 454.575 825.53H454.316C453.628 825.359 452.938 825.185 452.25 825.013C451.734 825.013 451.045 824.842 450.184 824.497C449.322 824.325 448.376 824.151 447.343 823.98C446.31 823.808 445.277 823.55 444.243 823.204C442.522 822.688 440.886 822.342 439.336 822.171C437.786 822.171 436.065 822.084 434.17 821.912C433.309 821.912 432.534 821.912 431.846 821.912C431.158 821.912 430.383 821.826 429.521 821.654C428.66 821.654 427.713 821.654 426.68 821.654C425.647 821.654 424.701 821.567 423.839 821.396C422.118 821.396 420.395 821.396 418.674 821.396C417.124 821.567 415.487 821.654 413.766 821.654C411.872 821.826 409.892 821.912 407.826 821.912C405.76 822.084 403.78 822.084 401.885 821.912C401.024 821.912 400.164 821.826 399.303 821.654C398.441 821.654 397.581 821.654 396.72 821.654H395.17C393.275 821.654 391.984 821.567 391.296 821.396C390.434 821.05 389.918 820.62 389.746 820.103C389.746 819.587 389.833 819.157 390.004 818.811C390.004 818.295 390.004 817.778 390.004 817.261C390.176 816.744 390.263 816.227 390.263 815.71V813.901C390.434 813.039 390.521 812.264 390.521 811.576C390.693 810.714 390.866 809.854 391.038 808.992L391.812 803.565V803.048C391.812 802.703 391.812 802.273 391.812 801.756C391.984 801.239 392.242 800.809 392.587 800.464C393.104 800.292 394.05 800.377 395.428 800.722H396.461C397.323 800.894 398.614 800.981 400.336 800.981C401.369 801.152 402.402 801.239 403.435 801.239C404.64 801.239 405.76 801.239 406.793 801.239C408.687 801.067 410.409 800.722 411.958 800.205C413.508 799.689 414.971 799.085 416.349 798.396C417.727 797.708 419.103 797.018 420.482 796.329C421.86 795.641 423.323 794.779 424.872 793.745L427.197 792.194C429.092 791.332 430.984 790.04 432.879 788.318C437.356 784.355 441.919 779.704 446.568 774.364C447.084 773.675 447.601 772.985 448.118 772.296C448.634 771.608 449.151 770.918 449.667 770.229L451.992 767.128C452.853 766.094 453.8 765.147 454.833 764.285C455.349 763.769 455.866 763.339 456.383 762.993C456.899 762.477 457.329 761.96 457.674 761.443C459.569 758.859 461.806 756.275 464.389 753.69C465.422 752.485 466.456 751.365 467.489 750.331C468.522 749.126 469.555 747.834 470.588 746.455C471.276 745.593 471.879 744.646 472.396 743.612C472.913 742.578 473.516 741.545 474.204 740.511C474.892 739.477 475.324 738.702 475.495 738.185C477.045 735.773 478.595 732.845 480.144 729.399C480.489 728.537 480.748 727.849 480.919 727.332C481.264 726.815 481.607 726.211 481.952 725.523C482.297 724.661 482.641 723.972 482.985 723.456C483.33 722.767 483.674 721.992 484.019 721.13C485.568 717.34 486.688 713.981 487.376 711.052C488.064 708.296 488.581 705.366 488.926 702.265C489.443 699.164 489.529 696.063 489.184 692.962C489.013 691.929 488.926 690.895 488.926 689.861C488.926 688.656 488.926 687.536 488.926 686.502C489.271 685.123 489.271 683.746 488.926 682.367V676.941C488.926 676.595 488.839 676.252 488.668 675.907C488.668 675.39 488.668 674.873 488.668 674.356C488.668 674.011 488.581 673.668 488.409 673.323C488.409 672.806 488.409 672.376 488.409 672.031C488.409 668.413 488.064 665.225 487.376 662.469C487.031 661.781 486.86 661.264 486.86 660.919C486.688 660.574 486.515 660.144 486.343 659.627C486.343 659.11 486.256 658.68 486.085 658.335C485.913 657.989 485.827 657.646 485.827 657.301C485.827 656.956 485.74 656.612 485.568 656.267C485.568 655.579 485.397 654.717 485.052 653.683C484.019 650.582 482.814 647.481 481.436 644.38C480.231 641.279 478.94 638.265 477.562 635.336C476.7 633.957 475.84 632.58 474.979 631.201C474.117 629.822 473.171 628.445 472.138 627.066C469.9 624.137 467.66 621.898 465.422 620.347C462.668 618.452 459.827 616.73 456.899 615.179C453.971 613.457 450.787 612.25 447.343 611.561C446.655 611.561 446.138 611.474 445.793 611.303C444.415 610.958 443.382 610.786 442.694 610.786C441.832 610.614 440.972 610.614 440.111 610.786C439.249 610.786 438.39 610.873 437.528 611.044C436.15 611.39 434.945 611.561 433.912 611.561C432.879 611.733 431.846 611.906 430.813 612.078C429.78 612.078 428.833 612.25 427.972 612.595C421.085 614.491 415.661 617.592 411.7 621.898C406.534 627.238 403.348 632.665 402.144 638.178C401.627 640.417 401.11 642.658 400.594 644.897C400.249 647.136 399.819 649.29 399.303 651.357C399.131 652.391 398.958 653.425 398.786 654.458C398.786 655.492 398.614 656.526 398.269 657.559C398.098 657.905 398.011 658.335 398.011 658.851C398.011 659.197 397.924 659.54 397.753 659.885C397.753 659.885 397.666 660.057 397.495 660.402C397.495 660.574 397.408 660.747 397.236 660.919C397.236 661.09 397.236 661.264 397.236 661.436C397.408 661.781 397.753 662.039 398.269 662.211C398.958 662.383 399.474 662.556 399.819 662.728C399.991 662.728 400.164 662.814 400.336 662.986C401.885 663.503 403.348 663.761 404.726 663.761H405.243C405.931 663.761 406.448 663.848 406.793 664.02H407.051H407.826H408.084V663.761V663.503C408.256 662.986 408.342 662.469 408.342 661.952C408.514 661.264 408.687 660.66 408.859 660.144C409.204 659.11 409.462 658.076 409.634 657.043C409.979 655.837 410.322 654.717 410.667 653.683C410.838 653.166 411.012 652.649 411.183 652.133C411.355 651.444 411.528 650.754 411.7 650.065C412.562 647.826 413.25 645.844 413.766 644.122C413.938 643.26 414.369 642.141 415.058 640.762L415.316 640.504C415.487 640.159 415.574 639.9 415.574 639.729C415.574 639.557 415.661 639.299 415.832 638.953C415.832 638.265 416.091 637.49 416.607 636.628C416.952 636.282 417.295 635.939 417.64 635.594C418.157 635.249 418.587 634.905 418.932 634.56C419.277 634.389 419.707 634.043 420.223 633.527C420.395 633.355 420.568 633.268 420.74 633.268C420.911 633.097 421.085 632.923 421.256 632.751C421.601 632.235 422.031 631.804 422.548 631.459C423.064 630.942 423.494 630.512 423.839 630.167C425.044 629.305 426.164 628.703 427.197 628.358C428.402 628.013 429.608 627.67 430.813 627.325C431.158 627.153 431.416 627.066 431.588 627.066C431.759 627.066 432.017 626.979 432.362 626.808C435.807 625.774 438.819 625.687 441.402 626.549C442.09 626.895 442.952 627.411 443.985 628.1C444.33 628.272 444.502 628.445 444.502 628.617C444.673 628.617 444.932 628.703 445.277 628.875C445.793 629.22 446.568 629.564 447.601 629.909C447.946 630.08 448.204 630.254 448.376 630.426C448.721 630.426 449.064 630.512 449.409 630.684C450.787 631.201 452.163 631.889 453.541 632.751C453.886 632.751 454.145 632.838 454.316 633.01C455.866 633.527 456.986 634.302 457.674 635.336C458.191 636.024 458.62 637.144 458.965 638.695V638.953C459.31 640.332 459.482 641.192 459.482 641.538C459.654 642.054 459.74 642.571 459.74 643.088C459.912 643.433 460.085 643.863 460.257 644.38C460.257 644.897 460.343 645.242 460.515 645.414C460.687 645.931 460.773 646.447 460.773 646.964C460.773 647.309 460.86 647.74 461.032 648.256C461.032 648.602 461.032 648.86 461.032 649.032C461.203 649.203 461.118 649.462 460.773 649.807C460.773 649.979 460.687 650.152 460.515 650.324H460.257C460.257 650.495 460.343 650.669 460.515 650.841V651.616C460.515 652.304 460.17 653.166 459.482 654.2C459.482 654.2 459.31 654.545 458.965 655.234C458.62 656.096 458.191 656.956 457.674 657.818C457.329 658.68 456.986 659.455 456.641 660.144C456.469 660.489 456.296 660.832 456.124 661.177C455.953 661.522 455.694 661.866 455.349 662.211C454.833 662.728 454.488 663.158 454.316 663.503C453.971 664.191 453.541 664.882 453.025 665.57C452.508 666.259 451.905 666.949 451.217 667.638C450.872 667.983 450.614 668.326 450.442 668.671C450.271 668.843 450.012 669.101 449.667 669.447C449.322 669.792 448.979 670.05 448.634 670.222C448.634 670.222 448.463 670.309 448.118 670.48C447.946 670.652 447.859 670.825 447.859 670.997V671.514C447.514 672.376 447.171 672.978 446.826 673.323L446.31 673.581C445.793 674.098 445.277 674.873 444.76 675.907V676.424C444.588 676.769 444.502 677.027 444.502 677.199C444.502 677.371 444.33 677.629 443.985 677.974C443.814 678.146 443.469 678.233 442.952 678.233H442.694C442.694 678.404 442.607 678.578 442.435 678.75C442.435 678.921 442.435 679.095 442.435 679.266C442.435 679.438 442.349 679.612 442.177 679.783L441.402 681.334L440.627 682.109C439.939 683.314 439.249 684.09 438.561 684.435C438.216 684.78 437.873 685.038 437.528 685.21C437.357 685.21 437.098 685.297 436.753 685.468C435.892 685.814 435.29 686.157 434.945 686.502C434.6 686.847 434.257 687.364 433.912 688.053C433.567 688.741 433.224 689.258 432.879 689.603C432.017 690.637 431.158 691.67 430.296 692.704C429.435 693.566 428.575 694.426 427.713 695.288L425.905 697.097C425.734 697.442 425.56 697.701 425.389 697.872C425.217 697.872 424.959 698.044 424.614 698.389C423.926 698.734 423.494 699.078 423.323 699.423C422.978 699.768 422.634 700.198 422.289 700.715C421.944 701.06 421.601 701.403 421.256 701.749C421.256 701.92 421.085 702.179 420.74 702.524C419.878 703.729 419.019 704.936 418.157 706.142C417.295 707.347 416.436 708.554 415.574 709.76C415.058 710.276 414.799 710.706 414.799 711.052C414.454 711.74 414.196 712.172 414.025 712.344C413.853 712.515 413.766 712.689 413.766 712.861C413.595 712.861 413.508 712.947 413.508 713.119V713.377C413.336 713.549 413.25 713.723 413.25 713.894C412.388 717.857 410.838 721.217 408.601 723.972C408.256 724.318 407.997 724.748 407.826 725.265C407.826 725.781 407.654 726.385 407.309 727.073L406.534 729.399C406.189 730.088 405.846 730.605 405.501 730.95C405.33 731.467 405.156 731.983 404.985 732.5C404.813 732.845 404.555 733.275 404.21 733.792C404.038 734.137 403.952 734.481 403.952 734.826C403.952 734.998 403.865 735.256 403.693 735.601C403.693 735.946 403.522 736.807 403.177 738.185C402.832 739.047 402.573 740.081 402.402 741.286C402.23 742.32 402.057 743.354 401.885 744.387C401.885 744.904 401.799 745.421 401.627 745.938C401.627 746.455 401.627 746.885 401.627 747.23L401.11 749.556C400.939 750.935 400.765 752.312 400.594 753.69C400.422 754.896 400.249 756.188 400.077 757.567C399.906 758.429 399.732 759.289 399.561 760.151C399.561 760.839 399.561 761.615 399.561 762.477C399.732 763.165 399.732 763.855 399.561 764.544C399.389 765.061 399.216 765.664 399.044 766.353C399.044 766.698 398.958 767.041 398.786 767.386C398.786 767.732 398.699 768.162 398.528 768.679C398.528 769.024 398.528 769.454 398.528 769.971C398.356 770.316 398.269 770.659 398.269 771.004C398.269 771.176 398.183 771.434 398.011 771.78C397.666 773.502 397.408 774.709 397.236 775.397C397.065 775.743 396.978 776.001 396.978 776.173C396.978 776.344 396.891 776.518 396.72 776.689C396.548 777.035 396.461 777.465 396.461 777.982C396.461 778.327 396.375 778.67 396.203 779.015C396.203 779.877 396.116 780.566 395.945 781.083C395.945 781.428 395.773 781.945 395.428 782.633C395.083 783.667 394.912 784.442 394.912 784.959V786.768C394.912 787.801 394.825 788.663 394.653 789.352V791.161V793.745C394.308 794.95 393.965 795.641 393.62 795.812V796.071V796.329H393.362C393.362 796.501 393.19 796.588 392.845 796.588C392.845 796.416 392.759 796.329 392.587 796.329C392.416 796.329 392.242 796.242 392.071 796.071C391.899 796.071 391.812 795.984 391.812 795.812C390.951 795.124 390.608 794.003 390.779 792.453C390.779 792.108 390.779 791.849 390.779 791.678C390.951 791.506 391.038 791.248 391.038 790.902C391.383 789.524 391.554 788.577 391.554 788.06V786.251C391.383 785.562 391.296 784.614 391.296 783.408C391.812 781.341 392.242 779.532 392.587 777.982C393.104 776.259 393.707 774.709 394.395 773.33C394.74 772.125 395.083 770.659 395.428 768.937C395.428 768.592 395.428 768.248 395.428 767.903C395.6 767.386 395.687 766.87 395.687 766.353C395.858 766.008 395.945 765.664 395.945 765.319C395.945 764.974 396.032 764.631 396.203 764.285C396.203 762.735 396.116 761.615 395.945 760.926V759.634C395.945 758.772 395.945 758.083 395.945 757.567C396.116 757.05 396.375 756.446 396.72 755.758C396.891 755.241 396.978 754.466 396.978 753.432V752.14C397.323 751.278 397.753 750.848 398.269 750.848C398.098 750.331 398.011 749.901 398.011 749.556C398.183 749.211 398.269 748.867 398.269 748.522C398.441 748.177 398.528 747.66 398.528 746.972C398.699 746.8 398.786 746.368 398.786 745.679C398.786 743.957 398.873 742.665 399.044 741.803C399.044 741.286 399.216 740.856 399.561 740.511C399.906 739.823 400.077 739.477 400.077 739.477V738.702C399.906 738.357 399.819 737.927 399.819 737.41C399.819 736.722 399.991 735.86 400.336 734.826C400.681 734.137 400.852 733.447 400.852 732.759C401.197 731.897 401.714 730.95 402.402 729.916C402.747 729.228 402.918 728.796 402.918 728.624C403.263 728.107 403.522 727.59 403.693 727.073C403.865 726.557 404.123 726.04 404.468 725.523C404.64 724.489 404.985 723.542 405.501 722.68C405.846 721.992 406.363 721.13 407.051 720.096C407.739 719.234 408.171 718.287 408.342 717.254C408.687 716.737 408.946 716.22 409.117 715.703C409.289 715.015 409.547 714.411 409.892 713.894C410.237 712.861 410.495 712.172 410.667 711.827C411.012 710.965 411.355 710.276 411.7 709.76C412.045 709.243 412.388 708.639 412.733 707.951L413.508 707.175C413.853 706.83 414.025 706.572 414.025 706.4C414.196 706.055 414.369 705.712 414.541 705.366C414.886 704.85 415.316 704.333 415.832 703.816C416.349 703.127 416.779 702.524 417.124 702.007C417.985 701.145 418.76 700.37 419.448 699.681C420.137 698.819 420.827 697.959 421.515 697.097C421.686 696.752 422.118 696.409 422.806 696.063C422.806 695.892 422.806 695.805 422.806 695.805C422.978 695.805 423.064 695.718 423.064 695.547C423.581 695.375 423.926 695.03 424.097 694.513C424.269 694.341 424.356 694.255 424.356 694.255C424.356 694.083 424.442 693.909 424.614 693.738C425.131 693.049 425.734 692.446 426.422 691.929C426.767 691.584 427.025 691.412 427.197 691.412C427.368 691.24 427.542 690.982 427.713 690.637L428.23 689.861C428.918 689.173 429.521 688.569 430.038 688.053C430.554 687.364 431.158 686.674 431.846 685.985L432.879 685.21L435.978 682.109C436.495 681.592 436.925 681.247 437.27 681.075C437.615 680.558 438.045 680.042 438.561 679.525C439.078 679.008 439.508 678.491 439.853 677.974V677.716C440.024 677.544 440.111 677.457 440.111 677.457C440.111 677.286 440.198 677.112 440.369 676.941C440.369 676.941 440.541 676.769 440.886 676.424C441.057 676.424 441.144 676.337 441.144 676.165C441.316 675.994 441.402 675.82 441.402 675.649C441.574 675.649 441.661 675.477 441.661 675.132C442.006 674.27 442.435 673.494 442.952 672.806C443.64 671.944 444.157 671.342 444.502 670.997C444.673 670.997 444.76 670.91 444.76 670.739C444.932 670.739 445.105 670.652 445.277 670.48V670.222L445.535 669.963V669.447C445.706 669.275 445.793 669.101 445.793 668.93C445.793 668.758 445.88 668.585 446.051 668.413C447.084 666.862 448.204 665.742 449.409 665.053C449.754 664.882 450.012 664.623 450.184 664.278V664.02C450.355 663.503 450.787 662.728 451.475 661.694C451.647 661.522 451.734 661.349 451.734 661.177C451.905 661.006 452.079 660.832 452.25 660.66C452.595 660.144 452.938 659.627 453.283 659.11C453.8 658.593 454.145 657.905 454.316 657.043L454.575 656.784C454.575 656.267 454.833 655.75 455.349 655.234C455.694 654.888 455.953 654.545 456.124 654.2C456.296 653.855 456.469 653.511 456.641 653.166C456.641 652.995 456.728 652.821 456.899 652.649C457.244 651.961 457.416 651.444 457.416 651.099C457.416 650.41 457.329 649.894 457.157 649.548V648.773C456.986 648.085 456.899 647.481 456.899 646.964C456.899 646.276 456.812 645.585 456.641 644.897C456.641 643.692 456.554 642.83 456.383 642.313C456.383 641.107 456.211 640.245 455.866 639.729C455.866 639.729 455.779 639.642 455.608 639.47C455.608 639.299 455.521 639.212 455.349 639.212C455.349 639.04 455.349 638.867 455.349 638.695C455.349 638.695 455.349 638.437 455.349 637.92V637.403C455.004 636.886 454.488 636.369 453.8 635.852C453.628 635.852 453.455 635.766 453.283 635.594C452.422 635.249 451.647 634.905 450.959 634.56C450.442 634.215 449.754 633.872 448.892 633.527C448.204 633.181 447.773 633.01 447.601 633.01L446.31 632.235C445.621 631.889 444.932 631.631 444.243 631.459C443.555 631.114 442.865 630.771 442.177 630.426C440.972 629.909 440.024 629.564 439.336 629.392C438.648 629.22 437.786 629.22 436.753 629.392L435.462 629.65C433.741 629.996 432.017 630.426 430.296 630.942C428.747 631.288 427.284 632.063 425.905 633.268C424.011 634.99 422.376 636.714 420.998 638.437C419.62 639.987 418.502 641.624 417.64 643.346C416.952 644.552 416.349 646.189 415.832 648.256C415.832 648.602 415.746 648.86 415.574 649.032C415.574 649.032 415.574 649.203 415.574 649.548C415.229 650.927 414.886 652.219 414.541 653.425C414.196 654.458 413.853 655.664 413.508 657.043C413.336 657.388 413.078 658.076 412.733 659.11C412.045 661.006 411.613 662.728 411.442 664.278V664.795C411.787 665.829 411.7 666.604 411.183 667.121C410.667 667.638 409.805 667.724 408.601 667.379H408.342C407.481 667.379 406.879 667.292 406.534 667.121C404.64 667.121 402.66 666.862 400.594 666.346C400.249 666.174 399.991 666.087 399.819 666.087C399.647 666.087 399.389 666 399.044 665.829C398.011 665.484 397.408 665.312 397.236 665.312C397.065 665.14 396.891 665.053 396.72 665.053C396.548 665.225 396.461 665.484 396.461 665.829C396.461 666 396.375 666.174 396.203 666.346V666.604L395.945 667.638L395.428 666.862C395.257 666.691 395.17 666.517 395.17 666.346C394.653 666.174 394.395 665.742 394.395 665.053C394.224 664.708 394.137 664.537 394.137 664.537C394.308 664.365 394.395 664.191 394.395 664.02C394.395 663.848 394.482 663.675 394.653 663.503C394.653 663.158 394.567 662.814 394.395 662.469C394.224 662.124 394.05 661.781 393.879 661.436C393.707 661.436 393.62 661.349 393.62 661.177L393.104 660.402H393.879H394.653C394.653 660.23 394.567 660.144 394.395 660.144C394.395 659.972 394.395 659.798 394.395 659.627C394.395 658.421 394.567 656.956 394.912 655.234C395.428 654.028 395.687 652.736 395.687 651.357L396.461 647.481C396.633 646.793 396.806 646.189 396.978 645.672C397.15 644.984 397.323 644.293 397.495 643.605C397.84 642.743 398.011 641.968 398.011 641.279C398.183 640.417 398.441 639.557 398.786 638.695C398.958 638.35 399.044 638.006 399.044 637.661C399.044 637.316 399.131 636.973 399.303 636.628C399.647 635.422 399.906 634.302 400.077 633.268C400.422 632.235 400.852 631.201 401.369 630.167C401.885 629.134 402.489 628.1 403.177 627.066C403.865 626.033 404.64 624.999 405.501 623.965L406.276 622.932C407.138 621.726 407.997 620.693 408.859 619.831C409.892 618.797 411.012 617.85 412.217 616.988C413.595 616.126 414.799 615.351 415.832 614.662C416.866 613.8 417.985 613.025 419.19 612.336L419.707 612.078C421.085 611.39 422.118 610.958 422.806 610.786C423.323 610.786 423.752 610.699 424.097 610.528C424.786 610.528 425.302 610.441 425.647 610.269C425.647 610.269 425.734 610.182 425.905 610.011C426.077 610.011 426.164 610.011 426.164 610.011C426.335 609.839 426.594 609.752 426.939 609.752H427.713H428.23C428.402 609.752 428.488 609.752 428.488 609.752C428.66 609.581 428.833 609.494 429.005 609.494C429.176 609.322 429.435 609.235 429.78 609.235C430.468 608.89 431.158 608.719 431.846 608.719C432.362 608.719 432.879 608.719 433.396 608.719C434.084 608.547 434.687 608.46 435.204 608.46C436.065 608.289 436.84 608.202 437.528 608.202C438.216 608.03 438.991 607.943 439.853 607.943C442.607 607.943 445.793 608.46 449.409 609.494C449.754 609.666 450.012 609.839 450.184 610.011C450.529 610.011 450.872 610.097 451.217 610.269C453.628 610.786 455.866 611.561 457.932 612.595C458.62 612.94 459.224 613.37 459.74 613.887C460.428 614.232 461.032 614.575 461.548 614.921C462.065 615.266 462.495 615.609 462.84 615.954C463.356 616.299 463.873 616.643 464.389 616.988L464.906 617.246C465.939 617.935 466.972 618.625 468.005 619.314C469.21 620.002 470.243 620.777 471.105 621.639C471.621 622.156 472.051 622.673 472.396 623.19C472.913 623.707 473.342 624.137 473.687 624.482L473.946 624.74C474.117 624.912 474.204 625.086 474.204 625.257C474.204 625.257 474.291 625.344 474.462 625.516C475.495 626.378 476.183 627.325 476.528 628.358C476.528 628.53 476.528 628.617 476.528 628.617C476.7 628.617 476.787 628.703 476.787 628.875V629.134C476.787 629.65 476.873 629.996 477.045 630.167L477.562 630.684C478.078 631.201 478.508 631.718 478.853 632.235L479.628 633.785C479.799 633.957 479.886 634.13 479.886 634.302C480.058 634.474 480.231 634.647 480.403 634.819C480.748 635.336 481.091 636.111 481.436 637.144C481.781 637.833 482.039 638.265 482.211 638.437C482.211 638.608 482.382 639.04 482.727 639.729C483.415 640.417 483.76 641.021 483.76 641.538C483.932 641.709 484.019 642.054 484.019 642.571C483.674 642.916 483.674 643.175 484.019 643.346C484.019 643.692 484.19 644.208 484.535 644.897L484.793 645.672C485.482 647.051 485.913 648.17 486.085 649.032C486.256 649.377 486.343 649.72 486.343 650.065C486.515 650.41 486.688 650.754 486.86 651.099L487.635 652.649C487.635 652.995 487.635 653.253 487.635 653.425C487.806 653.425 487.893 653.596 487.893 653.942C488.064 654.458 488.238 654.975 488.409 655.492C488.581 655.837 488.754 656.267 488.926 656.784C488.926 657.646 489.013 658.248 489.184 658.593C489.184 658.938 489.184 659.368 489.184 659.885C489.356 660.23 489.443 660.574 489.443 660.919C490.304 664.02 490.734 666.949 490.734 669.705C490.906 670.222 490.992 670.825 490.992 671.514C490.992 672.031 491.164 672.634 491.509 673.323C491.854 674.185 491.939 674.873 491.767 675.39C491.767 675.735 491.68 676.252 491.509 676.941V677.457C491.509 678.663 491.595 679.525 491.767 680.042V681.334C491.939 681.851 492.025 682.713 492.025 683.918V685.468V687.277V689.861C492.025 690.378 492.112 690.808 492.284 691.154ZM394.912 803.565H394.653C394.482 803.91 394.395 804.77 394.395 806.149V807.441C394.224 807.786 394.137 808.216 394.137 808.733C394.137 809.078 394.05 809.422 393.879 809.767C393.707 810.8 393.534 811.834 393.362 812.868C393.362 813.901 393.362 814.935 393.362 815.969L393.104 816.486V818.811C393.275 819.157 393.62 819.415 394.137 819.587H399.303H402.66H404.468C406.879 819.758 409.117 819.845 411.183 819.845C413.25 819.845 415.403 819.673 417.64 819.328C420.052 819.157 422.376 819.157 424.614 819.328C426.852 819.328 429.176 819.415 431.588 819.587H433.912C436.84 819.758 439.681 820.103 442.435 820.62C445.363 821.137 448.463 821.826 451.734 822.688C452.079 822.688 452.595 822.859 453.283 823.204C453.628 823.376 454.058 823.55 454.575 823.721C455.263 823.893 455.779 823.893 456.124 823.721L456.383 823.98L459.74 812.351C459.395 812.179 458.965 812.093 458.449 812.093C458.104 812.093 457.761 812.006 457.416 811.834C456.554 811.489 455.779 811.231 455.091 811.059C454.403 810.887 453.628 810.714 452.767 810.542C451.389 810.197 450.097 810.025 448.892 810.025C447.688 809.854 446.396 809.68 445.018 809.508H444.502L438.303 808.733C436.582 808.561 434.859 808.475 433.137 808.475C431.588 808.303 429.866 808.045 427.972 807.699C426.594 807.354 425.131 807.183 423.581 807.183C422.031 807.011 420.568 806.753 419.19 806.407C415.746 805.891 412.13 805.374 408.342 804.857C404.726 804.34 401.11 803.91 397.495 803.565L394.912 803.306V803.565Z" fill="white"/>
<path d="M487.413 302.052V302.938V304.12C487.413 304.513 487.413 304.908 487.413 305.301C487.611 305.694 487.611 306.089 487.413 306.482V309.731C487.216 310.322 487.118 311.208 487.118 312.389V314.456V317.114C486.725 318.689 486.43 320.461 486.233 322.43C486.233 324.202 486.035 326.072 485.642 328.042C485.052 330.797 484.461 333.358 483.871 335.72C483.478 337.885 483.083 340.052 482.69 342.218C482.493 343.201 482.297 344.087 482.1 344.876C481.903 345.664 481.707 346.55 481.51 347.534C481.117 348.124 480.822 348.813 480.624 349.601C480.624 350.389 480.526 351.175 480.329 351.964C479.739 354.129 479.148 356.394 478.558 358.756C478.165 360.921 477.77 363.186 477.377 365.549C476.984 367.123 476.689 368.7 476.492 370.274C476.492 371.849 476.294 373.425 475.901 375C475.901 376.181 475.804 377.165 475.606 377.953C475.409 378.937 475.311 379.922 475.311 380.906C475.311 381.89 475.213 382.974 475.016 384.155C475.016 384.352 475.016 384.548 475.016 384.746C475.213 384.943 475.311 385.139 475.311 385.336C475.508 386.715 475.311 387.699 474.721 388.29C474.523 388.683 473.835 388.88 472.654 388.88H472.359H469.703H467.932H465.865C465.472 388.88 465.078 388.782 464.685 388.585C464.487 388.585 464.192 388.585 463.799 388.585H457.6H455.239H453.468H449.04C448.45 388.585 447.859 388.585 447.269 388.585C446.679 388.782 446.088 388.88 445.498 388.88H440.48C438.316 388.88 436.74 388.782 435.757 388.585H434.281C433.691 388.387 433.1 388.29 432.51 388.29C431.92 388.29 431.427 388.192 431.034 387.994C430.641 387.994 430.246 387.797 429.854 387.404C429.854 387.404 429.756 387.306 429.558 387.108C429.361 387.108 429.263 386.911 429.263 386.518V386.222C429.656 385.829 429.854 385.632 429.854 385.632H432.805C432.018 384.648 431.822 383.367 432.215 381.792C432.215 381.399 432.117 381.104 431.92 380.906C431.722 380.709 431.625 380.316 431.625 379.725C431.427 379.134 431.329 378.248 431.329 377.067V375C431.329 374.606 431.232 374.409 431.034 374.409C431.034 374.211 431.034 373.916 431.034 373.523C430.837 373.13 430.739 372.637 430.739 372.046V367.321C430.739 366.928 430.837 366.73 431.034 366.73C430.641 365.942 430.542 365.451 430.739 365.254C430.936 364.86 430.936 364.565 430.739 364.368C430.149 364.17 429.854 363.579 429.854 362.596C429.854 362.202 429.951 361.907 430.149 361.71V361.119C430.149 360.726 430.051 360.331 429.854 359.938C429.854 359.347 429.854 358.854 429.854 358.461C429.656 358.068 429.558 357.772 429.558 357.575C429.558 357.182 429.461 356.787 429.263 356.394C429.066 355.803 428.87 355.212 428.673 354.622C428.673 353.833 428.575 353.145 428.378 352.554C428.18 351.373 428.082 350.192 428.082 349.01C428.082 347.829 428.082 346.648 428.082 345.466C427.885 344.876 427.787 343.792 427.787 342.218V339.56V338.378C427.787 337.985 427.69 337.788 427.492 337.788C427.492 337.59 427.492 337.295 427.492 336.902C427.492 336.508 427.492 336.213 427.492 336.016C427.69 335.622 427.787 335.227 427.787 334.834V332.767V330.7V328.042V325.679C427.985 324.891 428.082 323.709 428.082 322.135V319.772C428.28 318.984 428.28 318.098 428.082 317.114C427.689 315.54 427.689 313.963 428.082 312.389C428.082 311.996 428.082 311.7 428.082 311.503C428.28 311.305 428.378 311.01 428.378 310.617V309.14C428.575 307.959 428.673 306.778 428.673 305.596C428.673 304.415 428.87 303.234 429.263 302.052C429.263 300.478 429.461 298.706 429.854 296.736C430.246 295.162 430.444 293.98 430.444 293.192C430.641 292.799 430.739 292.208 430.739 291.42C430.739 290.436 430.837 289.648 431.034 289.058C431.427 287.876 431.625 286.695 431.625 285.514C431.822 284.332 432.117 283.151 432.51 281.97L433.396 278.426C433.396 278.228 433.396 278.13 433.396 278.13C433.593 277.933 433.691 277.637 433.691 277.244C434.084 276.063 434.281 275.177 434.281 274.586C434.281 273.602 434.281 272.617 434.281 271.633C434.479 270.452 434.674 269.368 434.872 268.384L435.757 263.954C435.757 263.561 435.757 263.166 435.757 262.773C435.954 262.182 436.052 261.689 436.052 261.296C436.25 260.903 436.347 260.213 436.347 259.229V258.048V257.457V257.162V256.571C436.347 255.98 436.445 255.487 436.643 255.094C436.643 254.701 436.643 254.306 436.643 253.913C436.84 253.322 436.938 252.829 436.938 252.436C437.135 251.648 437.233 250.862 437.233 250.074C437.233 249.285 437.233 248.499 437.233 247.711C437.43 247.12 437.43 246.53 437.233 245.939C437.233 245.348 437.233 244.66 437.233 243.872V240.623V237.079V233.83C437.233 232.649 437.135 231.763 436.938 231.172V229.991V229.696L437.233 227.038C437.233 226.054 437.233 225.068 437.233 224.084C437.233 223.1 437.331 222.115 437.528 221.131C437.528 219.752 437.43 218.768 437.233 218.178C437.036 216.799 436.938 215.52 436.938 214.338C436.938 213.157 436.938 212.073 436.938 211.09C436.938 210.696 436.938 210.401 436.938 210.204C437.135 210.006 437.233 209.711 437.233 209.318C437.626 207.743 437.528 206.364 436.938 205.183C436.74 204.985 436.643 204.79 436.643 204.592C436.84 204.199 436.938 203.904 436.938 203.706C437.331 202.918 437.528 201.737 437.528 200.162V197.504V195.437L435.757 197.209C434.969 198.193 434.183 199.079 433.396 199.867C432.805 200.458 432.018 200.95 431.034 201.344L430.739 202.23C430.346 202.623 430.051 203.018 429.854 203.411C429.854 203.608 429.656 203.904 429.263 204.297L428.968 204.888C428.575 205.478 428.18 206.069 427.787 206.66C427.394 207.053 427 207.546 426.607 208.136C425.819 208.924 425.328 209.613 425.131 210.204C424.54 210.597 424.048 211.09 423.655 211.68C423.457 212.073 423.064 212.566 422.474 213.157C422.277 213.354 421.982 213.845 421.589 214.634C421.196 215.027 420.801 215.422 420.408 215.815C420.21 216.208 419.915 216.603 419.522 216.996C419.129 217.389 418.735 217.784 418.342 218.178C418.144 218.571 417.849 218.966 417.456 219.359C416.275 220.933 415.488 222.017 415.095 222.608C414.702 223.001 414.406 223.296 414.209 223.494C414.209 223.691 414.012 223.986 413.619 224.38C413.619 224.38 413.421 224.773 413.028 225.561C412.438 225.954 411.75 226.742 410.962 227.924C410.569 228.317 410.372 228.81 410.372 229.4C409.979 230.582 409.093 231.172 407.715 231.172H407.125C405.944 231.172 404.763 231.172 403.583 231.172C402.402 230.975 401.221 230.779 400.041 230.582C398.86 230.188 397.581 229.991 396.203 229.991C395.022 229.793 393.842 229.498 392.661 229.105C392.268 228.907 391.873 228.81 391.48 228.81C391.283 228.81 390.988 228.712 390.595 228.514C390.202 228.514 389.807 228.317 389.414 227.924H389.119C389.119 227.726 389.021 227.628 388.824 227.628C388.824 227.431 388.726 227.333 388.529 227.333C386.167 226.742 384.003 225.463 382.035 223.494C381.642 223.296 381.247 223.1 380.854 222.903C380.657 222.705 380.361 222.51 379.968 222.312C379.181 221.919 378.493 221.426 377.902 220.836C376.919 220.442 376.426 219.654 376.426 218.473C376.819 217.489 377.509 216.701 378.493 216.11C379.083 215.913 379.871 215.322 380.854 214.338C381.247 213.55 382.132 212.664 383.511 211.68C383.708 211.483 383.806 211.287 383.806 211.09C384.003 210.892 384.298 210.696 384.691 210.499C385.084 210.301 385.282 210.106 385.282 209.908C385.479 209.711 385.774 209.415 386.167 209.022C387.348 207.841 388.331 206.955 389.119 206.364C389.512 205.971 389.807 205.676 390.004 205.478C390.397 205.085 390.792 204.69 391.185 204.297C391.578 203.904 392.071 203.411 392.661 202.82C393.251 202.23 393.842 201.737 394.432 201.344C395.023 201.146 395.613 200.555 396.203 199.572L397.089 198.686L398.269 197.8C398.86 197.011 399.745 196.028 400.926 194.846C401.123 194.649 401.221 194.551 401.221 194.551C401.221 194.353 401.319 194.158 401.516 193.96L402.402 193.074C402.795 192.681 402.992 192.386 402.992 192.188C403.385 191.795 403.68 191.5 403.878 191.302C404.271 190.909 404.763 190.614 405.354 190.416C405.551 190.416 405.649 190.318 405.649 190.121C405.846 189.923 405.944 189.728 405.944 189.53C406.141 189.137 406.437 188.742 406.83 188.349C407.223 187.561 407.617 186.872 408.01 186.282C408.601 185.691 409.388 185.198 410.372 184.805C410.372 184.805 410.569 184.607 410.962 184.214V183.919L411.848 183.033C412.241 182.245 412.635 181.753 413.028 181.556C414.012 180.375 415.095 179.095 416.275 177.717C417.653 176.339 419.129 174.961 420.703 173.582C422.081 172.007 423.557 170.432 425.131 168.857C426.902 167.282 428.575 165.707 430.149 164.132C431.527 162.753 432.805 161.375 433.986 159.997C435.364 158.619 436.84 157.044 438.414 155.272C440.382 153.106 441.365 150.842 441.365 148.479C441.365 148.282 441.268 148.085 441.07 147.888C440.873 146.904 440.775 146.313 440.775 146.116C440.973 145.723 441.463 145.329 442.251 144.935C442.251 144.935 442.448 144.837 442.841 144.64C443.825 144.246 444.71 143.951 445.498 143.754C446.286 143.557 447.072 143.36 447.859 143.163C448.647 143.163 449.828 142.966 451.402 142.572C451.794 142.375 452.484 142.277 453.468 142.277H454.649H454.944C456.124 142.08 457.305 141.982 458.486 141.982C459.667 141.785 460.847 141.489 462.028 141.096C462.618 140.899 463.701 140.603 465.275 140.21C466.063 139.816 466.849 139.619 467.636 139.619L474.721 137.847C476.689 137.453 477.968 138.339 478.558 140.505C478.558 140.899 478.558 141.293 478.558 141.686C478.755 142.08 478.853 142.474 478.853 142.868L479.739 145.526C479.936 146.51 480.034 147.396 480.034 148.184C480.034 148.971 480.132 149.857 480.329 150.842V152.023C480.722 154.189 480.919 156.355 480.919 158.52C481.117 160.489 481.412 162.557 481.805 164.722C481.805 165.51 481.805 166.199 481.805 166.79C482.002 167.38 482.1 168.069 482.1 168.857C482.1 170.235 482.297 171.909 482.69 173.878C482.69 174.862 482.69 175.748 482.69 176.536C482.888 177.126 483.083 177.815 483.281 178.603C483.281 178.997 483.281 179.391 483.281 179.784C483.478 180.178 483.576 180.572 483.576 180.966V181.261C483.576 181.655 483.576 181.95 483.576 182.147C483.773 182.344 483.871 182.541 483.871 182.738C483.674 184.51 483.674 186.379 483.871 188.349C484.264 190.318 484.659 192.386 485.052 194.551C485.249 194.944 485.347 195.437 485.347 196.028V196.618V197.8V201.639V203.411V204.592V205.774V210.204V213.452C485.347 213.845 485.347 214.24 485.347 214.634C485.544 214.831 485.642 215.126 485.642 215.52V216.996V218.178V222.903C485.642 224.477 485.642 226.054 485.642 227.628C485.642 229.007 485.74 230.484 485.937 232.058C485.937 233.042 485.937 233.928 485.937 234.716C485.937 235.504 485.84 236.39 485.642 237.374V243.281C485.84 245.053 485.937 246.825 485.937 248.597C485.937 250.369 486.035 252.239 486.233 254.208C486.233 256.373 486.33 257.95 486.528 258.934V263.659C486.725 264.643 486.823 265.529 486.823 266.317C486.823 266.908 486.823 267.596 486.823 268.384C486.823 269.368 486.823 270.354 486.823 271.338C486.823 272.126 486.921 273.012 487.118 273.996C487.118 274.979 487.118 275.865 487.118 276.654C487.118 277.442 487.216 278.228 487.413 279.016C487.611 280 487.708 280.986 487.708 281.97C487.708 282.953 487.708 283.939 487.708 284.923C487.906 285.907 487.906 286.793 487.708 287.581C487.708 288.172 487.708 288.96 487.708 289.944V292.897V294.964V297.622C487.708 299.001 487.611 299.985 487.413 300.576V302.052ZM484.166 299.69C484.364 298.901 484.462 298.115 484.462 297.327C484.462 296.539 484.462 295.653 484.462 294.669C484.659 293.881 484.757 292.799 484.757 291.42V289.353C484.757 288.762 484.659 288.269 484.462 287.876C484.462 286.892 484.364 286.104 484.166 285.514V283.151V280.788C484.166 280 484.069 279.214 483.871 278.426C483.871 277.637 483.871 276.851 483.871 276.063C483.674 275.079 483.576 273.996 483.576 272.814C483.576 271.633 483.478 270.452 483.281 269.27C483.281 267.891 483.379 266.908 483.576 266.317V263.954C483.576 261.985 483.478 260.608 483.281 259.82V259.229V258.343C483.083 257.95 482.986 257.359 482.986 256.571C483.379 255.98 483.478 255.39 483.281 254.799C483.281 254.208 483.281 253.52 483.281 252.732C483.281 252.338 483.183 252.141 482.986 252.141C482.986 251.943 482.986 251.648 482.986 251.255V245.053V242.1V241.804V241.509L482.69 240.623V238.26V235.307V233.83V233.535V229.696V222.312V216.701V211.68C482.297 211.287 482.297 210.794 482.69 210.204C482.69 209.415 482.593 208.727 482.395 208.136V206.955V205.478V203.706V201.048C482.395 199.669 482.297 198.39 482.1 197.209C482.1 195.83 482.002 194.551 481.805 193.37C481.608 192.581 481.51 191.795 481.51 191.007C481.51 190.219 481.412 189.432 481.215 188.644C481.017 188.054 480.919 187.07 480.919 185.691C480.526 183.722 480.329 182.245 480.329 181.261V180.67V179.784C479.936 178.406 479.641 177.126 479.443 175.945C479.443 174.567 479.443 173.287 479.443 172.106V171.81C479.443 171.22 479.443 170.629 479.443 170.038C479.443 169.251 479.346 168.562 479.148 167.971C479.148 167.577 479.051 167.183 478.853 166.79C478.853 166.396 478.853 166.002 478.853 165.608C478.656 165.215 478.558 164.821 478.558 164.427C478.558 163.836 478.46 163.344 478.263 162.95C478.065 161.966 477.968 160.981 477.968 159.997C477.968 159.013 477.87 157.831 477.672 156.453C477.672 156.059 477.575 155.665 477.377 155.272C477.377 154.878 477.377 154.484 477.377 154.09C477.377 152.515 477.279 151.334 477.082 150.546C476.885 149.562 476.689 148.676 476.492 147.888C476.492 146.904 476.394 145.919 476.196 144.935C476.196 144.541 476.099 144.147 475.901 143.754C475.901 143.163 475.901 142.671 475.901 142.277C475.901 141.686 475.704 141.391 475.311 141.391L474.721 141.686C473.737 141.686 473.047 141.785 472.654 141.982L468.227 142.868C466.456 143.261 464.685 143.655 462.913 144.049C461.142 144.443 459.274 144.837 457.305 145.23C455.731 145.427 454.058 145.624 452.287 145.821C450.713 146.018 449.138 146.313 447.564 146.707L446.679 147.002C445.498 147.002 444.908 147.396 444.908 148.184C444.71 149.168 444.515 150.251 444.317 151.432C444.317 152.614 444.219 153.697 444.022 154.681C444.022 155.665 443.825 156.945 443.432 158.52C443.432 159.899 443.334 160.981 443.137 161.769C443.137 162.753 443.039 163.639 442.841 164.427C442.841 165.215 442.744 166.101 442.546 167.085C442.153 169.054 441.858 171.023 441.661 172.992C441.661 174.961 441.563 177.028 441.365 179.194V180.966C441.365 181.95 441.463 182.738 441.661 183.328V184.805V186.577H442.546H442.841C443.234 186.577 443.432 186.675 443.432 186.872C443.629 186.872 443.727 186.97 443.727 187.168C443.727 187.365 443.629 187.463 443.432 187.463V188.644C443.039 189.235 442.744 189.53 442.546 189.53C441.758 189.923 441.268 190.809 441.07 192.188V197.209V199.276V218.178V223.789V224.97V230.877C441.07 231.861 441.07 232.846 441.07 233.83C441.07 234.814 441.168 235.8 441.365 236.784V243.872V244.462V248.892C441.365 249.483 441.268 250.074 441.07 250.664C441.07 251.255 441.07 251.846 441.07 252.436C440.873 253.42 440.677 254.406 440.48 255.39C440.48 256.178 440.48 257.064 440.48 258.048C440.48 260.41 440.087 262.773 439.299 265.136V265.726V267.794C439.102 268.384 439.004 269.073 439.004 269.861C439.004 270.452 438.906 271.042 438.709 271.633C438.511 273.207 438.316 274.784 438.119 276.358C437.921 277.737 437.626 279.214 437.233 280.788L436.347 285.218C436.15 285.809 436.052 286.4 436.052 286.99C436.052 287.383 435.954 287.876 435.757 288.467C435.56 289.255 435.364 289.944 435.167 290.534C435.167 291.125 435.069 291.813 434.872 292.602C434.872 293.39 434.674 294.571 434.281 296.146C434.084 297.129 433.888 298.213 433.691 299.394C433.493 300.378 433.298 301.364 433.1 302.348C432.903 303.726 432.805 305.103 432.805 306.482C432.805 307.664 432.708 308.845 432.51 310.026V312.684V315.638C432.51 316.819 432.412 317.607 432.215 318V322.726C432.018 323.709 431.92 324.595 431.92 325.384C431.92 325.974 431.92 326.663 431.92 327.451V329.518V331.586C431.92 332.374 431.822 332.865 431.625 333.062V336.311C431.822 337.295 431.92 338.28 431.92 339.264C431.92 340.052 432.018 340.938 432.215 341.922C432.215 342.906 432.215 343.792 432.215 344.58C432.215 345.368 432.313 346.155 432.51 346.943V349.896C432.51 350.487 432.51 351.175 432.51 351.964C432.51 352.554 432.608 353.145 432.805 353.736C432.805 353.933 432.805 354.129 432.805 354.326C433.003 354.326 433.1 354.424 433.1 354.622C433.493 355.015 433.691 355.508 433.691 356.098C433.691 357.28 433.789 358.166 433.986 358.756C434.379 359.938 434.576 361.021 434.576 362.005C434.379 362.793 434.281 363.579 434.281 364.368C434.479 364.958 434.576 365.549 434.576 366.14V368.502C434.183 369.881 434.281 370.963 434.872 371.751V372.637C434.674 373.03 434.576 373.523 434.576 374.114C434.774 374.507 434.872 375 434.872 375.59C434.872 375.788 434.872 375.886 434.872 375.886C435.069 376.083 435.167 376.378 435.167 376.772C435.364 377.755 435.462 378.839 435.462 380.02C435.462 381.202 435.462 382.285 435.462 383.269V385.927H471.769V385.632V383.564V382.383V379.725C471.769 379.332 471.769 378.937 471.769 378.544C471.966 378.15 472.064 377.755 472.064 377.362C472.064 377.165 472.064 376.969 472.064 376.772C472.261 376.574 472.359 376.279 472.359 375.886C472.359 375.492 472.359 375 472.359 374.409C472.557 373.818 472.654 373.228 472.654 372.637C472.852 371.849 472.95 371.16 472.95 370.57C472.95 369.781 473.047 368.995 473.245 368.207C473.442 367.814 473.54 367.419 473.54 367.026C473.54 366.435 473.638 365.942 473.835 365.549C473.835 365.351 473.835 365.254 473.835 365.254C474.032 365.254 474.13 365.156 474.13 364.958C474.13 364.565 474.13 364.368 474.13 364.368C474.328 364.17 474.425 363.875 474.425 363.482C474.623 363.088 474.721 362.793 474.721 362.596C474.721 362.202 474.818 361.807 475.016 361.414C475.016 361.021 475.016 360.726 475.016 360.528C475.213 360.135 475.311 359.74 475.311 359.347C475.311 359.149 475.311 358.954 475.311 358.756C475.508 358.559 475.606 358.263 475.606 357.87C475.804 357.28 475.901 356.591 475.901 355.803C476.099 355.015 476.294 354.228 476.492 353.44C476.492 353.243 476.492 353.145 476.492 353.145C476.689 352.947 476.787 352.652 476.787 352.259C476.984 352.061 477.082 351.766 477.082 351.373C477.279 350.98 477.377 350.684 477.377 350.487C477.377 350.289 477.475 350.094 477.672 349.896C478.065 348.715 478.361 347.534 478.558 346.352C478.755 345.171 478.951 343.99 479.148 342.808C479.148 342.218 479.346 341.332 479.739 340.15C480.132 338.576 480.231 337.295 480.034 336.311C480.034 336.113 480.231 335.622 480.624 334.834C480.624 334.834 480.722 334.736 480.919 334.539C481.117 334.341 481.215 334.146 481.215 333.948C481.412 333.358 481.51 332.176 481.51 330.404C481.51 328.83 481.805 327.253 482.395 325.679C482.593 324.695 482.69 323.809 482.69 323.021C482.888 322.233 482.986 321.446 482.986 320.658C482.788 319.674 482.69 318.689 482.69 317.705C482.888 316.524 483.083 315.44 483.281 314.456C483.478 313.866 483.576 312.98 483.576 311.798L483.871 310.322C483.871 309.338 483.871 308.55 483.871 307.959C484.069 307.171 484.166 306.285 484.166 305.301V302.643V299.69ZM437.528 182.442C437.331 181.852 437.233 181.064 437.233 180.08C437.43 179.292 437.528 178.603 437.528 178.012C437.528 177.422 437.626 176.733 437.823 175.945C437.823 174.961 437.921 174.271 438.119 173.878C438.119 172.893 438.119 172.007 438.119 171.22C438.316 170.235 438.511 169.251 438.709 168.266L439.004 165.018V164.722C439.201 164.525 439.299 164.132 439.299 163.541L440.185 159.997C440.185 159.209 440.087 158.619 439.89 158.225L439.299 158.816C438.709 159.8 438.021 160.686 437.233 161.474C436.643 162.261 435.855 163.147 434.872 164.132C434.479 164.525 434.084 164.821 433.691 165.018C433.1 165.805 432.117 166.888 430.739 168.266C430.149 168.857 429.558 169.448 428.968 170.038C428.378 170.432 427.885 170.924 427.492 171.515C426.902 172.106 426.311 172.696 425.721 173.287C425.131 173.878 424.54 174.37 423.95 174.764C422.967 175.748 421.981 176.733 420.998 177.717C420.015 178.701 419.03 179.686 418.046 180.67C417.063 181.655 416.178 182.639 415.39 183.624C414.602 184.607 413.717 185.593 412.733 186.577C412.143 187.168 411.552 187.856 410.962 188.644C410.372 189.235 409.781 189.923 409.191 190.712C408.798 191.105 408.403 191.5 408.01 191.893C407.617 192.286 407.223 192.681 406.83 193.074L405.059 194.846C404.271 195.634 403.583 196.323 402.992 196.914C402.402 197.504 401.812 198.193 401.221 198.981L397.679 202.525L396.794 203.411C396.401 203.608 396.006 203.904 395.613 204.297L392.956 206.955C392.366 207.743 391.678 208.432 390.89 209.022L389.709 210.204L388.233 211.68C387.84 212.073 387.446 212.468 387.053 212.862C386.855 213.059 386.56 213.354 386.167 213.748L382.625 217.292C382.428 217.685 381.837 218.178 380.854 218.768L380.559 219.064H380.854C381.444 219.457 382.132 219.852 382.92 220.245C384.101 221.033 384.889 221.524 385.282 221.722C386.069 222.312 387.25 223.001 388.824 223.789C392.563 226.152 397.482 227.53 403.583 227.924C404.37 227.924 404.961 228.021 405.354 228.219C406.142 228.416 406.732 228.021 407.125 227.038C407.913 225.856 408.503 225.068 408.896 224.675L409.191 224.084L410.077 223.198C410.077 222.805 410.274 222.608 410.667 222.608C411.06 222.214 411.355 221.819 411.552 221.426C411.75 221.033 412.045 220.638 412.438 220.245C412.831 219.654 413.619 218.571 414.799 216.996L416.571 215.224C416.963 214.831 417.259 214.436 417.456 214.043C417.653 213.65 417.949 213.255 418.342 212.862C418.932 212.271 419.325 211.778 419.522 211.385C419.915 210.992 420.21 210.597 420.408 210.204C420.801 209.613 421.196 209.12 421.589 208.727L421.884 208.432V207.841L422.474 207.25C422.671 206.462 423.064 205.774 423.655 205.183C423.852 204.79 424.048 204.592 424.245 204.592C424.443 204.395 424.638 204.099 424.836 203.706C426.016 202.918 426.902 201.836 427.492 200.458C428.475 199.276 429.461 198.193 430.444 197.209C431.625 196.225 432.805 195.239 433.986 194.256C434.774 193.467 435.265 192.877 435.462 192.484C435.659 192.286 435.757 192.188 435.757 192.188C435.757 191.991 435.855 191.795 436.052 191.598V191.302C436.052 191.302 436.25 191.105 436.643 190.712C437.626 189.333 437.921 188.251 437.528 187.463V186.872V185.986V183.624V182.442Z" fill="white"/>
</g>
</g>
<defs>
<clipPath id="clip0_140_79">
<rect width="880" height="886" fill="white"/>
</clipPath>
</defs>
</svg>
