<svg width="878" height="886" viewBox="0 0 878 886" fill="none" xmlns="http://www.w3.org/2000/svg">
<g clip-path="url(#clip0_140_95)">
<mask id="mask0_140_95" style="mask-type:luminance" maskUnits="userSpaceOnUse" x="0" y="0" width="878" height="886">
<path d="M878 0H0V886H878V0Z" fill="white"/>
</mask>
<g mask="url(#mask0_140_95)">
<path d="M878 0H-3.68896V313.792H878V0Z" fill="#E61EAA"/>
<path d="M878 313.792H-3.68896V886H878V313.792Z" fill="#640B49"/>
<path d="M474.784 192.853V193.517V194.403C474.784 194.699 474.784 194.994 474.784 195.289C474.932 195.585 474.932 195.88 474.784 196.175V198.612C474.637 199.055 474.563 199.719 474.563 200.605V202.156V204.149C474.268 205.331 474.046 206.66 473.899 208.136C473.899 209.465 473.751 210.868 473.456 212.345C473.013 214.412 472.571 216.332 472.128 218.104C471.833 219.728 471.538 221.352 471.243 222.977C471.095 223.715 470.948 224.38 470.8 224.97C470.652 225.561 470.505 226.225 470.357 226.964C470.062 227.407 469.841 227.924 469.693 228.514C469.693 229.105 469.619 229.696 469.472 230.286C469.029 231.911 468.586 233.609 468.144 235.381C467.849 237.005 467.554 238.703 467.258 240.475C466.963 241.657 466.742 242.838 466.594 244.019C466.594 245.201 466.447 246.382 466.152 247.563C466.152 248.449 466.078 249.188 465.93 249.778C465.783 250.517 465.709 251.255 465.709 251.993C465.709 252.732 465.635 253.544 465.488 254.43C465.488 254.577 465.488 254.725 465.488 254.873C465.635 255.02 465.709 255.168 465.709 255.316C465.857 256.349 465.709 257.088 465.266 257.531C465.119 257.826 464.602 257.974 463.717 257.974H463.496H461.503H460.175H458.626C458.331 257.974 458.036 257.9 457.741 257.752C457.593 257.752 457.372 257.752 457.077 257.752H452.428H450.658H449.33H446.009C445.567 257.752 445.124 257.752 444.681 257.752C444.239 257.9 443.796 257.974 443.353 257.974H439.59C437.967 257.974 436.787 257.9 436.049 257.752H434.942C434.499 257.605 434.057 257.531 433.614 257.531C433.171 257.531 432.802 257.457 432.507 257.309C432.212 257.309 431.917 257.162 431.622 256.866C431.622 256.866 431.548 256.792 431.401 256.645C431.253 256.645 431.179 256.497 431.179 256.202V255.98C431.474 255.685 431.622 255.537 431.622 255.537H433.835C433.245 254.799 433.098 253.839 433.393 252.658C433.393 252.362 433.319 252.141 433.171 251.993C433.024 251.846 432.95 251.55 432.95 251.107C432.802 250.664 432.729 250 432.729 249.114V247.563C432.729 247.268 432.655 247.12 432.507 247.12C432.507 246.973 432.507 246.751 432.507 246.456C432.36 246.16 432.286 245.791 432.286 245.348V241.804C432.286 241.509 432.36 241.361 432.507 241.361C432.212 240.771 432.138 240.401 432.286 240.254C432.434 239.958 432.434 239.737 432.286 239.589C431.843 239.442 431.622 238.999 431.622 238.26C431.622 237.965 431.696 237.743 431.843 237.596V237.153C431.843 236.857 431.77 236.562 431.622 236.267C431.622 235.824 431.622 235.455 431.622 235.159C431.474 234.864 431.401 234.642 431.401 234.495C431.401 234.199 431.327 233.904 431.179 233.609C431.032 233.166 430.884 232.723 430.737 232.28C430.737 231.689 430.663 231.172 430.515 230.729C430.368 229.843 430.294 228.957 430.294 228.071C430.294 227.185 430.294 226.299 430.294 225.413C430.146 224.97 430.073 224.158 430.073 222.977V220.983V220.097C430.073 219.802 429.999 219.654 429.851 219.654C429.851 219.507 429.851 219.285 429.851 218.99C429.851 218.694 429.851 218.473 429.851 218.325C429.999 218.03 430.073 217.735 430.073 217.439V215.889V214.338V212.345V210.573C430.22 209.982 430.294 209.096 430.294 207.915V206.143C430.441 205.552 430.441 204.888 430.294 204.149C429.999 202.968 429.999 201.787 430.294 200.605C430.294 200.31 430.294 200.088 430.294 199.941C430.441 199.793 430.515 199.572 430.515 199.276V198.169C430.663 197.283 430.737 196.397 430.737 195.511C430.737 194.625 430.884 193.739 431.179 192.853C431.179 191.671 431.327 190.342 431.622 188.866C431.917 187.684 432.065 186.798 432.065 186.208C432.212 185.912 432.286 185.469 432.286 184.879C432.286 184.14 432.36 183.55 432.507 183.107C432.802 182.221 432.95 181.335 432.95 180.449C433.098 179.563 433.319 178.677 433.614 177.791L434.278 175.133C434.278 174.985 434.278 174.911 434.278 174.911C434.426 174.764 434.499 174.542 434.499 174.247C434.795 173.361 434.942 172.696 434.942 172.253C434.942 171.515 434.942 170.777 434.942 170.038C435.09 169.152 435.237 168.34 435.385 167.602L436.049 164.279C436.049 163.984 436.049 163.689 436.049 163.393C436.196 162.95 436.27 162.581 436.27 162.286C436.418 161.99 436.492 161.474 436.492 160.735V159.849V159.406V159.185V158.742C436.492 158.299 436.565 157.93 436.713 157.634C436.713 157.339 436.713 157.044 436.713 156.748C436.86 156.305 436.934 155.936 436.934 155.641C437.082 155.05 437.156 154.459 437.156 153.869C437.156 153.278 437.156 152.687 437.156 152.097C437.303 151.654 437.303 151.211 437.156 150.768C437.156 150.325 437.156 149.808 437.156 149.217V146.781V144.123V141.686C437.156 140.8 437.082 140.136 436.934 139.693V138.807V138.585L437.156 136.592C437.156 135.853 437.156 135.115 437.156 134.377C437.156 133.638 437.229 132.9 437.377 132.162C437.377 131.128 437.303 130.39 437.156 129.947C437.008 128.913 436.934 127.953 436.934 127.067C436.934 126.181 436.934 125.369 436.934 124.631C436.934 124.335 436.934 124.114 436.934 123.966C437.082 123.819 437.156 123.597 437.156 123.302C437.451 122.12 437.377 121.087 436.934 120.201C436.787 120.053 436.713 119.905 436.713 119.758C436.86 119.462 436.934 119.241 436.934 119.093C437.229 118.503 437.377 117.617 437.377 116.435V114.442V112.891L436.049 114.22C435.459 114.959 434.868 115.623 434.278 116.214C433.835 116.657 433.245 117.026 432.507 117.321L432.286 117.986C431.991 118.281 431.77 118.576 431.622 118.872C431.622 119.019 431.474 119.241 431.179 119.536L430.958 119.979C430.663 120.422 430.368 120.865 430.073 121.308C429.777 121.604 429.482 121.973 429.187 122.416C428.597 123.006 428.228 123.523 428.08 123.966C427.638 124.262 427.269 124.631 426.974 125.074C426.826 125.369 426.531 125.738 426.088 126.181C425.941 126.329 425.719 126.698 425.424 127.289C425.129 127.584 424.834 127.879 424.539 128.175C424.391 128.47 424.17 128.765 423.875 129.061C423.58 129.356 423.285 129.651 422.99 129.947C422.842 130.242 422.621 130.537 422.325 130.833C421.44 132.014 420.85 132.826 420.555 133.269C420.26 133.565 420.038 133.786 419.891 133.934C419.891 134.081 419.743 134.303 419.448 134.598C419.448 134.598 419.3 134.894 419.005 135.484C418.563 135.78 418.046 136.37 417.456 137.256C417.161 137.552 417.013 137.921 417.013 138.364C416.718 139.25 416.054 139.693 415.021 139.693H414.578C413.693 139.693 412.808 139.693 411.922 139.693C411.037 139.545 410.152 139.397 409.266 139.25C408.381 138.954 407.422 138.807 406.389 138.807C405.503 138.659 404.618 138.438 403.733 138.142C403.437 137.995 403.142 137.921 402.847 137.921C402.7 137.921 402.478 137.847 402.183 137.699C401.888 137.699 401.593 137.552 401.298 137.256H401.076C401.076 137.109 401.003 137.035 400.855 137.035C400.855 136.887 400.781 136.813 400.634 136.813C398.863 136.37 397.24 135.41 395.764 133.934C395.469 133.786 395.174 133.638 394.879 133.491C394.731 133.343 394.51 133.195 394.215 133.048C393.624 132.752 393.108 132.383 392.665 131.94C391.928 131.645 391.559 131.054 391.559 130.168C391.854 129.43 392.37 128.839 393.108 128.396C393.551 128.249 394.141 127.806 394.879 127.067C395.174 126.477 395.838 125.812 396.871 125.074C397.018 124.926 397.092 124.778 397.092 124.631C397.24 124.483 397.461 124.335 397.756 124.188C398.051 124.04 398.199 123.892 398.199 123.745C398.347 123.597 398.568 123.376 398.863 123.08C399.748 122.194 400.486 121.53 401.076 121.087C401.372 120.791 401.593 120.57 401.74 120.422C402.036 120.127 402.331 119.832 402.626 119.536C402.921 119.241 403.29 118.872 403.733 118.429C404.175 117.986 404.618 117.617 405.061 117.321C405.503 117.174 405.946 116.731 406.389 115.992L407.053 115.328L407.938 114.663C408.381 114.073 409.045 113.334 409.93 112.448C410.078 112.301 410.152 112.227 410.152 112.227C410.152 112.079 410.225 111.931 410.373 111.784L411.037 111.119C411.332 110.824 411.48 110.602 411.48 110.455C411.775 110.159 411.996 109.938 412.144 109.79C412.439 109.495 412.808 109.273 413.25 109.126C413.398 109.126 413.472 109.052 413.472 108.904C413.619 108.757 413.693 108.609 413.693 108.461C413.841 108.166 414.062 107.871 414.357 107.575C414.652 106.985 414.947 106.468 415.242 106.025C415.685 105.582 416.275 105.213 417.013 104.917C417.013 104.917 417.161 104.77 417.456 104.474V104.253L418.12 103.588C418.415 102.998 418.71 102.628 419.005 102.481C419.743 101.595 420.555 100.635 421.44 99.6013C422.473 98.5676 423.58 97.5339 424.76 96.5003C425.793 95.3189 426.9 94.1376 428.08 92.9563C429.409 91.7749 430.663 90.5936 431.843 89.4123C432.876 88.3786 433.835 87.3449 434.721 86.3113C435.754 85.2776 436.86 84.0963 438.041 82.7673C439.517 81.1429 440.254 79.4448 440.254 77.6728C440.254 77.5251 440.181 77.3774 440.033 77.2298C439.885 76.4914 439.812 76.0484 439.812 75.9008C439.959 75.6054 440.328 75.3101 440.918 75.0148C440.918 75.0148 441.066 74.9409 441.361 74.7933C442.099 74.4979 442.763 74.2764 443.353 74.1288C443.943 73.9811 444.534 73.8334 445.124 73.6858C445.714 73.6858 446.6 73.5381 447.78 73.2428C448.075 73.0951 448.592 73.0213 449.33 73.0213H450.215H450.436C451.322 72.8736 452.207 72.7998 453.092 72.7998C453.978 72.6521 454.863 72.4306 455.749 72.1353C456.191 71.9876 457.003 71.7661 458.183 71.4708C458.774 71.1754 459.364 71.0278 459.954 71.0278L465.266 69.6988C466.742 69.4034 467.701 70.0679 468.144 71.6923C468.144 71.9876 468.144 72.2829 468.144 72.5783C468.291 72.8736 468.365 73.1689 468.365 73.4643L469.029 75.4578C469.177 76.1961 469.251 76.8606 469.251 77.4513C469.251 78.0419 469.324 78.7064 469.472 79.4448V80.3308C469.767 81.9551 469.915 83.5794 469.915 85.2038C470.062 86.6804 470.283 88.2309 470.579 89.8553C470.579 90.4459 470.579 90.9628 470.579 91.4058C470.726 91.8488 470.8 92.3656 470.8 92.9563C470.8 93.9899 470.947 95.2451 471.243 96.7218C471.243 97.4601 471.243 98.1246 471.243 98.7153C471.39 99.1583 471.538 99.6751 471.685 100.266C471.685 100.561 471.685 100.856 471.685 101.152C471.833 101.447 471.907 101.742 471.907 102.038V102.259C471.907 102.555 471.907 102.776 471.907 102.924C472.054 103.071 472.128 103.219 472.128 103.367C471.98 104.696 471.98 106.099 472.128 107.575C472.423 109.052 472.718 110.602 473.013 112.227C473.161 112.522 473.235 112.891 473.235 113.334V113.777V114.663V117.543V118.872V119.758V120.644V123.966V126.403C473.235 126.698 473.235 126.993 473.235 127.289C473.382 127.436 473.456 127.658 473.456 127.953V129.061V129.947V133.491C473.456 134.672 473.456 135.853 473.456 137.035C473.456 138.068 473.53 139.176 473.677 140.357C473.677 141.096 473.677 141.76 473.677 142.351C473.677 142.941 473.604 143.606 473.456 144.344V148.774C473.604 150.103 473.677 151.432 473.677 152.761C473.677 154.09 473.751 155.493 473.899 156.97C473.899 158.594 473.973 159.775 474.12 160.514V164.058C474.268 164.796 474.341 165.461 474.341 166.051C474.341 166.494 474.341 167.011 474.341 167.602C474.341 168.34 474.341 169.078 474.341 169.817C474.341 170.407 474.415 171.072 474.563 171.81C474.563 172.549 474.563 173.213 474.563 173.804C474.563 174.394 474.637 174.985 474.784 175.576C474.932 176.314 475.005 177.052 475.005 177.791C475.005 178.529 475.005 179.267 475.005 180.006C475.153 180.744 475.153 181.409 475.005 181.999C475.005 182.442 475.005 183.033 475.005 183.771V185.986V187.537V189.53C475.005 190.564 474.932 191.302 474.784 191.745V192.853ZM472.349 191.081C472.497 190.49 472.571 189.899 472.571 189.309C472.571 188.718 472.571 188.054 472.571 187.315C472.718 186.725 472.792 185.912 472.792 184.879V183.328C472.792 182.885 472.718 182.516 472.571 182.221C472.571 181.482 472.497 180.892 472.349 180.449V178.677V176.905C472.349 176.314 472.276 175.723 472.128 175.133C472.128 174.542 472.128 173.951 472.128 173.361C471.98 172.622 471.907 171.81 471.907 170.924C471.907 170.038 471.833 169.152 471.685 168.266C471.685 167.233 471.759 166.494 471.907 166.051V164.279C471.907 162.803 471.833 161.769 471.685 161.178V160.735V160.071C471.538 159.775 471.464 159.332 471.464 158.742C471.759 158.299 471.833 157.856 471.685 157.413C471.685 156.97 471.685 156.453 471.685 155.862C471.685 155.567 471.612 155.419 471.464 155.419C471.464 155.272 471.464 155.05 471.464 154.755V150.103V147.888V147.667V147.445L471.243 146.781V145.009V142.794V141.686V141.465V138.585V133.048V128.839V125.074C470.947 124.778 470.947 124.409 471.243 123.966C471.243 123.376 471.169 122.859 471.021 122.416V121.53V120.422V119.093V117.1C471.021 116.066 470.948 115.106 470.8 114.22C470.8 113.187 470.726 112.227 470.579 111.341C470.431 110.75 470.357 110.159 470.357 109.569C470.357 108.978 470.283 108.387 470.136 107.797C469.988 107.354 469.915 106.615 469.915 105.582C469.619 104.105 469.472 102.998 469.472 102.259V101.816V101.152C469.177 100.118 468.955 99.1583 468.808 98.2723C468.808 97.2386 468.808 96.2788 468.808 95.3928V95.1713C468.808 94.7283 468.808 94.2853 468.808 93.8423C468.808 93.2516 468.734 92.7348 468.586 92.2918C468.586 91.9964 468.513 91.7011 468.365 91.4058C468.365 91.1104 468.365 90.8151 468.365 90.5198C468.218 90.2244 468.144 89.9291 468.144 89.6338C468.144 89.1908 468.07 88.8216 467.922 88.5263C467.775 87.7879 467.701 87.0496 467.701 86.3113C467.701 85.5729 467.627 84.6869 467.48 83.6533C467.48 83.3579 467.406 83.0626 467.258 82.7673C467.258 82.4719 467.258 82.1766 467.258 81.8813C467.258 80.6999 467.185 79.8139 467.037 79.2233C466.89 78.4849 466.742 77.8204 466.594 77.2298C466.594 76.4914 466.521 75.7531 466.373 75.0148C466.373 74.7194 466.299 74.4241 466.152 74.1288C466.152 73.6858 466.152 73.3166 466.152 73.0213C466.152 72.5783 466.004 72.3568 465.709 72.3568L465.266 72.5783C464.529 72.5783 464.012 72.6521 463.717 72.7998L460.397 73.4643C459.069 73.7596 457.741 74.0549 456.413 74.3503C455.084 74.6456 453.683 74.9409 452.207 75.2363C451.026 75.3839 449.772 75.5316 448.444 75.6793C447.264 75.8269 446.083 76.0484 444.903 76.3438L444.239 76.5653C443.353 76.5653 442.911 76.8606 442.911 77.4513C442.763 78.1896 442.615 79.0018 442.468 79.8878C442.468 80.7738 442.394 81.5859 442.246 82.3243C442.246 83.0626 442.099 84.0224 441.804 85.2038C441.804 86.2374 441.73 87.0496 441.582 87.6403C441.582 88.3786 441.509 89.0431 441.361 89.6338C441.361 90.2244 441.287 90.8889 441.14 91.6273C440.845 93.1039 440.623 94.5806 440.476 96.0573C440.476 97.5339 440.402 99.0844 440.254 100.709V102.038C440.254 102.776 440.328 103.367 440.476 103.81V104.917V106.246H441.14H441.361C441.656 106.246 441.804 106.32 441.804 106.468C441.951 106.468 442.025 106.542 442.025 106.689C442.025 106.837 441.951 106.911 441.804 106.911V107.797C441.509 108.24 441.287 108.461 441.14 108.461C440.55 108.757 440.181 109.421 440.033 110.455V114.22V115.771V129.947V134.155V135.041V139.471C440.033 140.21 440.033 140.948 440.033 141.686C440.033 142.425 440.107 143.163 440.254 143.901V149.217V149.66V152.983C440.254 153.426 440.181 153.869 440.033 154.312C440.033 154.755 440.033 155.198 440.033 155.641C439.885 156.379 439.738 157.117 439.59 157.856C439.59 158.446 439.59 159.111 439.59 159.849C439.59 161.621 439.295 163.393 438.705 165.165V165.608V167.159C438.557 167.602 438.484 168.119 438.484 168.709C438.484 169.152 438.41 169.595 438.262 170.038C438.115 171.22 437.967 172.401 437.82 173.582C437.672 174.616 437.451 175.723 437.156 176.905L436.492 180.227C436.344 180.67 436.27 181.113 436.27 181.556C436.27 181.852 436.196 182.221 436.049 182.664C435.901 183.254 435.754 183.771 435.606 184.214C435.606 184.657 435.532 185.174 435.385 185.765C435.385 186.355 435.237 187.241 434.942 188.423C434.795 189.161 434.647 189.973 434.499 190.859C434.352 191.598 434.204 192.336 434.057 193.074C433.909 194.108 433.835 195.142 433.835 196.175C433.835 197.061 433.762 197.947 433.614 198.833V200.827V203.042C433.614 203.928 433.54 204.518 433.393 204.814V208.358C433.245 209.096 433.171 209.761 433.171 210.351C433.171 210.794 433.171 211.311 433.171 211.902V213.452V215.003C433.171 215.593 433.098 215.963 432.95 216.11V218.547C433.098 219.285 433.171 220.023 433.171 220.762C433.171 221.352 433.245 222.017 433.393 222.755C433.393 223.494 433.393 224.158 433.393 224.749C433.393 225.339 433.466 225.93 433.614 226.521V228.736C433.614 229.179 433.614 229.696 433.614 230.286C433.614 230.729 433.688 231.172 433.835 231.615C433.835 231.763 433.835 231.911 433.835 232.058C433.983 232.058 434.057 232.132 434.057 232.28C434.352 232.575 434.499 232.944 434.499 233.387C434.499 234.273 434.573 234.938 434.721 235.381C435.016 236.267 435.163 237.079 435.163 237.817C435.016 238.408 434.942 238.999 434.942 239.589C435.09 240.032 435.163 240.475 435.163 240.918V242.69C434.868 243.724 434.942 244.536 435.385 245.127V245.791C435.237 246.087 435.163 246.456 435.163 246.899C435.311 247.194 435.385 247.563 435.385 248.006C435.385 248.154 435.385 248.228 435.385 248.228C435.532 248.375 435.606 248.597 435.606 248.892C435.754 249.631 435.827 250.443 435.827 251.329C435.827 252.215 435.827 253.027 435.827 253.765V255.759H463.053V255.537V253.987V253.101V251.107C463.053 250.812 463.053 250.517 463.053 250.221C463.2 249.926 463.274 249.631 463.274 249.335C463.274 249.188 463.274 249.04 463.274 248.892C463.422 248.745 463.496 248.523 463.496 248.228C463.496 247.932 463.496 247.563 463.496 247.12C463.643 246.677 463.717 246.234 463.717 245.791C463.864 245.201 463.938 244.684 463.938 244.241C463.938 243.65 464.012 243.059 464.16 242.469C464.307 242.173 464.381 241.878 464.381 241.583C464.381 241.14 464.455 240.771 464.602 240.475C464.602 240.328 464.602 240.254 464.602 240.254C464.75 240.254 464.824 240.18 464.824 240.032C464.824 239.737 464.824 239.589 464.824 239.589C464.971 239.442 465.045 239.22 465.045 238.925C465.193 238.629 465.266 238.408 465.266 238.26C465.266 237.965 465.34 237.67 465.488 237.374C465.488 237.079 465.488 236.857 465.488 236.71C465.635 236.414 465.709 236.119 465.709 235.824C465.709 235.676 465.709 235.528 465.709 235.381C465.857 235.233 465.93 235.012 465.93 234.716C466.078 234.273 466.152 233.756 466.152 233.166C466.299 232.575 466.447 231.984 466.594 231.394C466.594 231.246 466.594 231.172 466.594 231.172C466.742 231.025 466.816 230.803 466.816 230.508C466.963 230.36 467.037 230.139 467.037 229.843C467.185 229.548 467.258 229.326 467.258 229.179C467.258 229.031 467.332 228.883 467.48 228.736C467.775 227.85 467.996 226.964 468.144 226.078C468.291 225.192 468.439 224.306 468.586 223.42C468.586 222.977 468.734 222.312 469.029 221.426C469.324 220.245 469.398 219.285 469.251 218.547C469.251 218.399 469.398 218.03 469.693 217.439C469.693 217.439 469.767 217.365 469.915 217.218C470.062 217.07 470.136 216.922 470.136 216.775C470.283 216.332 470.357 215.446 470.357 214.117C470.357 212.935 470.579 211.754 471.021 210.573C471.169 209.834 471.243 209.17 471.243 208.579C471.39 207.989 471.464 207.398 471.464 206.807C471.316 206.069 471.243 205.331 471.243 204.592C471.39 203.706 471.538 202.894 471.685 202.156C471.833 201.713 471.907 201.048 471.907 200.162L472.128 199.055C472.128 198.316 472.128 197.726 472.128 197.283C472.276 196.692 472.349 196.028 472.349 195.289V193.296V191.081ZM437.377 103.145C437.229 102.702 437.156 102.112 437.156 101.373C437.303 100.783 437.377 100.266 437.377 99.8228C437.377 99.3798 437.451 98.8629 437.598 98.2723C437.598 97.5339 437.672 97.0171 437.82 96.7218C437.82 95.9834 437.82 95.3189 437.82 94.7283C437.967 93.9899 438.115 93.2516 438.262 92.5133L438.484 90.0768V89.8553C438.631 89.7076 438.705 89.4123 438.705 88.9693L439.369 86.3113C439.369 85.7206 439.295 85.2776 439.148 84.9823L438.705 85.4253C438.262 86.1636 437.746 86.8281 437.156 87.4188C436.713 88.0094 436.123 88.6739 435.385 89.4123C435.09 89.7076 434.795 89.9291 434.499 90.0768C434.057 90.6674 433.319 91.4796 432.286 92.5133C431.843 92.9563 431.401 93.3993 430.958 93.8423C430.515 94.1376 430.146 94.5068 429.851 94.9498C429.408 95.3928 428.966 95.8358 428.523 96.2788C428.08 96.7218 427.638 97.0909 427.195 97.3863C426.457 98.1246 425.719 98.8629 424.982 99.6013C424.244 100.34 423.506 101.078 422.768 101.816C422.03 102.555 421.366 103.293 420.776 104.031C420.186 104.77 419.522 105.508 418.784 106.246C418.341 106.689 417.899 107.206 417.456 107.797C417.013 108.24 416.571 108.757 416.128 109.347C415.833 109.643 415.538 109.938 415.242 110.233C414.947 110.529 414.652 110.824 414.357 111.119L413.029 112.448C412.439 113.039 411.922 113.556 411.48 113.999C411.037 114.442 410.594 114.959 410.152 115.549L407.495 118.207L406.831 118.872C406.536 119.019 406.241 119.241 405.946 119.536L403.954 121.53C403.511 122.12 402.995 122.637 402.404 123.08L401.519 123.966L400.412 125.074C400.117 125.369 399.822 125.664 399.527 125.96C399.379 126.107 399.158 126.329 398.863 126.624L396.207 129.282C396.059 129.578 395.617 129.947 394.879 130.39L394.657 130.611H394.879C395.321 130.907 395.838 131.202 396.428 131.497C397.314 132.088 397.904 132.457 398.199 132.605C398.789 133.048 399.675 133.565 400.855 134.155C403.659 135.927 407.348 136.961 411.922 137.256C412.513 137.256 412.955 137.33 413.25 137.478C413.841 137.625 414.283 137.33 414.578 136.592C415.169 135.706 415.611 135.115 415.906 134.82L416.128 134.377L416.792 133.712C416.792 133.417 416.939 133.269 417.235 133.269C417.53 132.974 417.751 132.679 417.899 132.383C418.046 132.088 418.267 131.793 418.563 131.497C418.858 131.054 419.448 130.242 420.333 129.061L421.661 127.732C421.957 127.436 422.178 127.141 422.325 126.846C422.473 126.55 422.694 126.255 422.99 125.96C423.432 125.517 423.727 125.148 423.875 124.852C424.17 124.557 424.391 124.262 424.539 123.966C424.834 123.523 425.129 123.154 425.424 122.859L425.646 122.637V122.194L426.088 121.751C426.236 121.161 426.531 120.644 426.974 120.201C427.121 119.905 427.269 119.758 427.416 119.758C427.564 119.61 427.712 119.389 427.859 119.093C428.744 118.503 429.408 117.69 429.851 116.657C430.589 115.771 431.327 114.959 432.065 114.22C432.95 113.482 433.835 112.744 434.721 112.005C435.311 111.415 435.68 110.972 435.827 110.676C435.975 110.529 436.049 110.455 436.049 110.455C436.049 110.307 436.123 110.159 436.27 110.012V109.79C436.27 109.79 436.418 109.643 436.713 109.347C437.451 108.314 437.672 107.501 437.377 106.911V106.468V105.803V104.031V103.145Z" fill="white"/>
<path d="M499.796 580.256C500.189 581.24 500.189 582.323 499.796 583.505C499.599 584.293 499.501 585.474 499.501 587.049V587.935C499.501 589.314 499.403 590.297 499.206 590.888C499.206 591.281 499.108 591.577 498.911 591.774C498.911 591.972 498.911 592.267 498.911 592.66V594.727C498.911 595.909 498.813 596.795 498.615 597.385C498.615 598.369 498.418 599.65 498.025 601.225L497.73 602.406V602.701V602.997V603.587C497.73 604.376 497.632 604.867 497.435 605.064C497.435 605.262 497.337 605.457 497.14 605.655C497.14 605.655 497.14 605.753 497.14 605.95V606.541C496.747 607.329 496.452 608.115 496.254 608.903C496.057 609.494 495.862 610.282 495.664 611.266C495.074 612.841 494.386 614.417 493.598 615.991C492.811 617.37 492.025 618.847 491.237 620.421C491.237 620.619 491.139 620.717 490.942 620.717C490.942 620.717 490.942 620.815 490.942 621.012C490.155 622.193 489.762 623.079 489.762 623.67C489.564 624.458 489.369 625.147 489.171 625.737C488.974 626.328 488.679 627.017 488.286 627.805C488.286 628.198 488.089 628.593 487.696 628.986C487.303 630.167 487.008 630.956 486.81 631.349L485.925 632.235C485.925 632.432 485.728 632.728 485.335 633.121C485.335 633.318 485.237 633.514 485.04 633.711C485.04 633.711 485.04 633.909 485.04 634.302C484.842 634.5 484.744 634.695 484.744 634.893C484.744 635.09 484.647 635.286 484.449 635.483C483.466 637.255 482.581 638.732 481.793 639.913L481.498 640.209C481.105 640.997 480.71 641.588 480.318 641.981C480.12 642.178 479.925 642.276 479.727 642.276C479.727 642.276 479.63 642.374 479.432 642.571L479.137 642.867V643.162C478.94 643.555 478.842 643.95 478.842 644.343C478.645 644.737 478.449 645.032 478.252 645.229C478.054 645.229 477.859 645.327 477.661 645.525L477.071 646.115C476.678 646.509 476.383 646.804 476.186 647.001C476.186 647.199 475.988 647.494 475.596 647.887C475.203 648.676 474.808 649.167 474.415 649.364C474.022 649.955 473.627 650.545 473.235 651.136C472.842 651.529 472.447 652.022 472.054 652.613C470.283 654.778 468.415 656.845 466.447 658.815C464.676 660.784 462.807 662.852 460.839 665.017C458.871 666.986 457.003 669.054 455.232 671.219C453.461 673.384 451.69 675.551 449.92 677.716C449.329 678.307 448.444 679.39 447.263 680.965C439 691.399 428.473 699.571 415.685 705.477H415.39C413.816 706.266 412.536 706.856 411.553 707.249C411.356 707.249 411.16 707.347 410.963 707.545C410.766 707.545 410.57 707.545 410.373 707.545C409.98 707.742 409.685 707.84 409.487 707.84C409.29 707.84 408.995 707.938 408.602 708.135C409.585 708.333 410.47 708.529 411.258 708.726C412.241 708.726 413.226 708.824 414.209 709.021C416.373 709.415 418.538 709.81 420.702 710.203C423.063 710.4 425.326 710.696 427.49 711.089C428.868 711.286 430.146 711.482 431.327 711.679C432.705 711.679 434.081 711.679 435.458 711.679C437.622 711.877 439.688 712.073 441.656 712.27C443.82 712.27 445.985 712.468 448.149 712.861C449.92 713.254 451.593 713.649 453.166 714.042C454.937 714.24 456.51 714.535 457.888 714.928C458.281 715.126 458.871 715.223 459.659 715.223C461.037 715.617 462.413 716.109 463.791 716.7C465.364 717.093 466.349 717.881 466.742 719.063C467.135 719.653 467.135 720.342 466.742 721.13C466.544 721.918 466.249 722.607 465.856 723.197V723.788C465.069 725.167 464.479 726.544 464.086 727.923V729.399L463.2 732.057V732.353C462.61 733.337 462.61 734.027 463.2 734.42L463.791 735.011L463.2 735.306C462.807 735.504 462.315 735.699 461.725 735.897C461.332 736.094 460.937 736.192 460.544 736.192C460.151 736.192 459.757 736.094 459.364 735.897L458.478 735.011C458.478 734.813 458.38 734.715 458.183 734.715C458.183 734.518 457.691 734.223 456.708 733.829H456.412C455.625 733.632 454.839 733.436 454.051 733.239C453.461 733.239 452.673 733.041 451.69 732.648C450.707 732.451 449.624 732.255 448.444 732.057C447.263 731.86 446.083 731.565 444.902 731.171C442.934 730.581 441.066 730.188 439.295 729.99C437.524 729.99 435.556 729.892 433.393 729.695C432.409 729.695 431.524 729.695 430.736 729.695C429.949 729.695 429.063 729.597 428.08 729.399C427.097 729.399 426.014 729.399 424.834 729.399C423.653 729.399 422.571 729.302 421.587 729.104C419.619 729.104 417.653 729.104 415.685 729.104C413.914 729.302 412.046 729.399 410.078 729.399C407.914 729.597 405.651 729.695 403.29 729.695C400.929 729.892 398.665 729.892 396.502 729.695C395.519 729.695 394.534 729.597 393.551 729.399C392.567 729.399 391.582 729.399 390.599 729.399H388.829C386.665 729.399 385.189 729.302 384.402 729.104C383.418 728.711 382.828 728.218 382.631 727.627C382.631 727.037 382.729 726.544 382.926 726.151C382.926 725.56 382.926 724.969 382.926 724.379C383.123 723.788 383.221 723.197 383.221 722.607V720.539C383.418 719.556 383.516 718.67 383.516 717.881C383.714 716.898 383.909 715.912 384.106 714.928L384.992 708.726V708.135C384.992 707.742 384.992 707.249 384.992 706.659C385.189 706.068 385.484 705.575 385.877 705.182C386.467 704.985 387.55 705.084 389.124 705.477H390.304C391.287 705.675 392.763 705.773 394.731 705.773C395.912 705.97 397.092 706.068 398.273 706.068C399.65 706.068 400.929 706.068 402.109 706.068C404.273 705.871 406.241 705.477 408.012 704.887C409.782 704.296 411.455 703.608 413.029 702.819C414.602 702.031 416.177 701.245 417.751 700.457C419.324 699.669 420.997 698.685 422.768 697.503L425.424 695.731C427.588 694.748 429.753 693.271 431.917 691.301C437.032 686.774 442.246 681.458 447.559 675.353C448.149 674.565 448.739 673.779 449.329 672.991C449.92 672.203 450.51 671.416 451.1 670.628L453.756 667.084C454.739 665.903 455.822 664.819 457.003 663.835C457.593 663.245 458.183 662.752 458.773 662.359C459.364 661.768 459.856 661.177 460.249 660.587C462.413 657.633 464.971 654.68 467.922 651.727C469.103 650.348 470.283 649.069 471.464 647.887C472.644 646.509 473.825 645.032 475.005 643.457C475.793 642.474 476.481 641.39 477.071 640.209C477.661 639.027 478.349 637.846 479.137 636.665C479.925 635.483 480.415 634.597 480.613 634.007C482.383 631.251 484.154 627.903 485.925 623.965C486.318 622.982 486.613 622.193 486.81 621.603C487.203 621.012 487.598 620.324 487.991 619.535C488.384 618.552 488.778 617.763 489.171 617.173C489.564 616.385 489.959 615.499 490.352 614.515C492.123 610.183 493.401 606.343 494.189 602.997C494.976 599.846 495.566 596.499 495.959 592.955C496.55 589.411 496.647 585.867 496.254 582.323C496.057 581.142 495.959 579.961 495.959 578.779C495.959 577.401 495.959 576.121 495.959 574.94C496.352 573.366 496.352 571.789 495.959 570.215V564.013C495.959 563.62 495.862 563.225 495.664 562.831C495.664 562.241 495.664 561.65 495.664 561.059C495.664 560.666 495.566 560.271 495.369 559.878C495.369 559.287 495.369 558.795 495.369 558.401C495.369 554.267 494.976 550.625 494.189 547.474C493.796 546.686 493.598 546.095 493.598 545.702C493.401 545.309 493.205 544.816 493.008 544.225C493.008 543.635 492.91 543.142 492.713 542.749C492.515 542.356 492.418 541.961 492.418 541.567C492.418 541.174 492.32 540.779 492.123 540.386C492.123 539.598 491.925 538.614 491.532 537.433C490.352 533.889 488.974 530.345 487.401 526.801C486.023 523.257 484.547 519.811 482.974 516.464C481.991 514.89 481.006 513.313 480.022 511.739C479.039 510.164 477.957 508.588 476.776 507.013C474.218 503.667 471.661 501.107 469.103 499.335C465.954 497.17 462.708 495.2 459.364 493.428C456.019 491.459 452.378 490.082 448.444 489.293C447.656 489.293 447.066 489.196 446.673 488.998C445.1 488.605 443.919 488.407 443.132 488.407C442.149 488.21 441.164 488.21 440.18 488.407C439.197 488.407 438.212 488.505 437.229 488.703C435.656 489.096 434.278 489.293 433.097 489.293C431.917 489.491 430.736 489.687 429.556 489.884C428.375 489.884 427.293 490.082 426.31 490.475C418.439 492.64 412.241 496.184 407.717 501.107C401.814 507.211 398.175 513.413 396.797 519.713C396.207 522.273 395.616 524.831 395.026 527.391C394.633 529.952 394.141 532.412 393.551 534.775C393.353 535.956 393.158 537.137 392.96 538.319C392.96 539.5 392.763 540.681 392.37 541.863C392.173 542.256 392.075 542.749 392.075 543.339C392.075 543.733 391.977 544.128 391.78 544.521C391.78 544.521 391.682 544.718 391.485 545.111C391.485 545.309 391.387 545.505 391.19 545.702C391.19 545.9 391.19 546.095 391.19 546.293C391.387 546.686 391.78 546.981 392.37 547.179C393.158 547.376 393.748 547.572 394.141 547.769C394.338 547.769 394.534 547.867 394.731 548.065C396.502 548.655 398.175 548.951 399.748 548.951H400.338C401.126 548.951 401.716 549.049 402.109 549.246H402.404H403.29H403.585V548.951V548.655C403.782 548.065 403.88 547.474 403.88 546.883C404.077 546.095 404.273 545.407 404.47 544.816C404.863 543.635 405.158 542.453 405.356 541.272C405.748 539.893 406.143 538.614 406.536 537.433C406.733 536.842 406.929 536.251 407.126 535.661C407.324 534.873 407.519 534.086 407.717 533.298C408.7 530.738 409.487 528.475 410.078 526.505C410.275 525.522 410.766 524.241 411.553 522.666L411.848 522.371C412.046 521.978 412.143 521.682 412.143 521.485C412.143 521.287 412.241 520.992 412.439 520.599C412.439 519.811 412.734 518.925 413.324 517.941C413.717 517.548 414.112 517.153 414.504 516.759C415.095 516.366 415.587 515.971 415.98 515.578C416.373 515.381 416.865 514.987 417.456 514.397C417.653 514.199 417.849 514.101 418.046 514.101C418.243 513.904 418.439 513.708 418.636 513.511C419.029 512.92 419.522 512.427 420.112 512.034C420.702 511.443 421.195 510.951 421.587 510.557C422.965 509.574 424.244 508.883 425.424 508.49C426.802 508.097 428.178 507.702 429.556 507.309C429.949 507.111 430.244 507.013 430.441 507.013C430.639 507.013 430.934 506.916 431.327 506.718C435.261 505.537 438.705 505.439 441.656 506.423C442.444 506.816 443.427 507.407 444.607 508.195C445 508.392 445.198 508.588 445.198 508.785C445.395 508.785 445.69 508.883 446.083 509.081C446.673 509.474 447.559 509.869 448.739 510.262C449.132 510.46 449.427 510.655 449.624 510.853C450.017 510.853 450.412 510.951 450.805 511.148C452.378 511.739 453.954 512.527 455.527 513.511C455.92 513.511 456.215 513.609 456.412 513.806C458.183 514.397 459.461 515.283 460.249 516.464C460.839 517.252 461.332 518.531 461.725 520.303V520.599C462.118 522.173 462.315 523.159 462.315 523.552C462.512 524.143 462.61 524.733 462.61 525.324C462.807 525.717 463.003 526.21 463.2 526.801C463.2 527.391 463.298 527.785 463.495 527.982C463.693 528.573 463.791 529.163 463.791 529.754C463.791 530.147 463.888 530.64 464.086 531.231C464.086 531.624 464.086 531.919 464.086 532.117C464.283 532.314 464.183 532.61 463.791 533.003C463.791 533.2 463.693 533.396 463.495 533.593H463.2C463.2 533.791 463.298 533.987 463.495 534.184V535.07C463.495 535.858 463.103 536.842 462.315 538.023C462.315 538.023 462.118 538.417 461.725 539.205C461.332 540.189 460.839 541.174 460.249 542.158C459.856 543.142 459.461 544.028 459.069 544.816C458.871 545.209 458.676 545.604 458.478 545.997C458.281 546.391 457.986 546.786 457.593 547.179C457.003 547.769 456.61 548.262 456.412 548.655C456.019 549.444 455.527 550.23 454.937 551.018C454.346 551.806 453.658 552.593 452.871 553.381C452.478 553.774 452.183 554.169 451.985 554.562C451.788 554.76 451.493 555.055 451.1 555.448C450.707 555.841 450.312 556.137 449.92 556.334C449.92 556.334 449.722 556.432 449.329 556.629C449.132 556.827 449.034 557.023 449.034 557.22V557.811C448.641 558.795 448.247 559.485 447.854 559.878L447.263 560.173C446.673 560.764 446.083 561.65 445.493 562.831V563.422C445.295 563.815 445.198 564.111 445.198 564.308C445.198 564.506 445 564.801 444.607 565.194C444.41 565.392 444.017 565.489 443.427 565.489H443.132C443.132 565.687 443.034 565.883 442.837 566.08C442.837 566.278 442.837 566.473 442.837 566.671C442.837 566.868 442.739 567.064 442.541 567.261L441.656 569.033L440.771 569.919C439.983 571.298 439.197 572.184 438.41 572.577C438.017 572.971 437.622 573.266 437.229 573.463C437.032 573.463 436.737 573.561 436.344 573.759C435.361 574.152 434.671 574.547 434.278 574.94C433.885 575.333 433.49 575.924 433.097 576.712C432.705 577.5 432.31 578.091 431.917 578.484C430.934 579.665 429.949 580.847 428.966 582.028C427.983 583.012 426.998 583.998 426.014 584.981L423.948 587.049C423.751 587.442 423.556 587.737 423.358 587.935C423.161 587.935 422.866 588.132 422.473 588.525C421.685 588.919 421.195 589.314 420.997 589.707C420.604 590.1 420.21 590.593 419.817 591.183C419.424 591.577 419.029 591.972 418.636 592.365C418.636 592.562 418.439 592.858 418.046 593.251C417.063 594.63 416.078 596.007 415.095 597.385C414.112 598.764 413.127 600.141 412.143 601.52C411.553 602.111 411.258 602.604 411.258 602.997C410.865 603.785 410.57 604.276 410.373 604.473C410.175 604.671 410.078 604.867 410.078 605.064C409.88 605.064 409.782 605.162 409.782 605.359V605.655C409.585 605.852 409.487 606.048 409.487 606.245C408.504 610.773 406.733 614.613 404.175 617.763C403.782 618.157 403.487 618.649 403.29 619.24C403.29 619.831 403.092 620.519 402.699 621.307L401.814 623.965C401.421 624.754 401.026 625.344 400.634 625.737C400.436 626.328 400.241 626.919 400.043 627.509C399.846 627.903 399.551 628.395 399.158 628.986C398.961 629.379 398.863 629.774 398.863 630.167C398.863 630.365 398.765 630.66 398.568 631.053C398.568 631.447 398.37 632.432 397.977 634.007C397.585 634.991 397.289 636.172 397.092 637.551C396.895 638.732 396.699 639.913 396.502 641.095C396.502 641.685 396.404 642.276 396.207 642.867C396.207 643.457 396.207 643.95 396.207 644.343L395.616 647.001C395.419 648.576 395.224 650.152 395.026 651.727C394.829 653.106 394.633 654.582 394.436 656.157C394.239 657.141 394.043 658.126 393.846 659.11C393.846 659.898 393.846 660.784 393.846 661.768C394.043 662.556 394.043 663.343 393.846 664.131C393.648 664.721 393.453 665.41 393.255 666.198C393.255 666.591 393.158 666.986 392.96 667.379C392.96 667.773 392.863 668.265 392.665 668.856C392.665 669.249 392.665 669.742 392.665 670.333C392.468 670.726 392.37 671.121 392.37 671.514C392.37 671.712 392.272 672.007 392.075 672.4C391.682 674.37 391.387 675.747 391.19 676.535C390.992 676.928 390.894 677.223 390.894 677.421C390.894 677.618 390.797 677.814 390.599 678.011C390.402 678.405 390.304 678.897 390.304 679.488C390.304 679.881 390.206 680.276 390.009 680.669C390.009 681.653 389.911 682.441 389.714 683.032C389.714 683.425 389.517 684.016 389.124 684.804C388.731 685.985 388.533 686.871 388.533 687.462V689.529C388.533 690.711 388.436 691.695 388.238 692.483V694.55V697.503C387.845 698.882 387.451 699.669 387.058 699.866V700.161V700.457H386.763C386.763 700.654 386.565 700.752 386.172 700.752C386.172 700.555 386.075 700.457 385.877 700.457C385.68 700.457 385.484 700.359 385.287 700.161C385.09 700.161 384.992 700.064 384.992 699.866C384.009 699.078 383.614 697.799 383.811 696.027C383.811 695.634 383.811 695.338 383.811 695.141C384.009 694.943 384.106 694.648 384.106 694.255C384.499 692.68 384.697 691.597 384.697 691.006V688.939C384.499 688.151 384.402 687.069 384.402 685.69C384.992 683.327 385.484 681.26 385.877 679.488C386.467 677.519 387.156 675.747 387.943 674.172C388.336 672.793 388.731 671.121 389.124 669.151C389.124 668.758 389.124 668.363 389.124 667.97C389.321 667.379 389.419 666.789 389.419 666.198C389.616 665.805 389.714 665.41 389.714 665.017C389.714 664.624 389.812 664.229 390.009 663.835C390.009 662.063 389.911 660.784 389.714 659.996V658.519C389.714 657.536 389.714 656.747 389.714 656.157C389.911 655.566 390.206 654.878 390.599 654.089C390.797 653.499 390.894 652.613 390.894 651.431V649.955C391.287 648.971 391.78 648.478 392.37 648.478C392.173 647.887 392.075 647.395 392.075 647.001C392.272 646.608 392.37 646.213 392.37 645.82C392.567 645.427 392.665 644.836 392.665 644.048C392.863 643.851 392.96 643.36 392.96 642.571C392.96 640.602 393.058 639.125 393.255 638.141C393.255 637.551 393.453 637.058 393.846 636.665C394.239 635.877 394.436 635.483 394.436 635.483V634.597C394.239 634.204 394.141 633.711 394.141 633.121C394.141 632.333 394.338 631.349 394.731 630.167C395.124 629.379 395.321 628.593 395.321 627.805C395.714 626.821 396.304 625.737 397.092 624.556C397.485 623.768 397.682 623.277 397.682 623.079C398.075 622.489 398.37 621.898 398.568 621.307C398.765 620.717 399.06 620.126 399.453 619.535C399.65 618.354 400.043 617.271 400.634 616.287C401.026 615.499 401.617 614.515 402.404 613.333C403.192 612.35 403.683 611.266 403.88 610.085C404.273 609.494 404.568 608.903 404.765 608.313C404.963 607.525 405.258 606.836 405.651 606.245C406.044 605.064 406.339 604.276 406.536 603.883C406.929 602.899 407.324 602.111 407.717 601.52C408.109 600.929 408.504 600.241 408.897 599.453L409.782 598.567C410.175 598.174 410.373 597.878 410.373 597.681C410.57 597.288 410.766 596.893 410.963 596.499C411.356 595.909 411.848 595.318 412.439 594.727C413.029 593.939 413.521 593.251 413.914 592.66C414.897 591.676 415.783 590.79 416.57 590.002C417.358 589.018 418.144 588.033 418.931 587.049C419.129 586.656 419.619 586.261 420.407 585.867C420.407 585.67 420.407 585.572 420.407 585.572C420.604 585.572 420.702 585.474 420.702 585.277C421.292 585.079 421.685 584.686 421.883 584.095C422.08 583.898 422.178 583.8 422.178 583.8C422.178 583.603 422.275 583.407 422.473 583.209C423.063 582.421 423.751 581.733 424.539 581.142C424.932 580.749 425.227 580.551 425.424 580.551C425.621 580.354 425.817 580.059 426.014 579.665L426.605 578.779C427.392 577.991 428.08 577.303 428.671 576.712C429.261 575.924 429.949 575.138 430.736 574.349L431.917 573.463L435.458 569.919C436.049 569.329 436.541 568.936 436.934 568.738C437.327 568.147 437.819 567.557 438.41 566.966C439 566.375 439.492 565.785 439.885 565.194V564.899C440.083 564.701 440.18 564.603 440.18 564.603C440.18 564.406 440.278 564.21 440.476 564.013C440.476 564.013 440.673 563.815 441.066 563.422C441.263 563.422 441.361 563.324 441.361 563.127C441.558 562.929 441.656 562.734 441.656 562.536C441.853 562.536 441.951 562.339 441.951 561.945C442.344 560.962 442.837 560.076 443.427 559.287C444.214 558.304 444.805 557.613 445.198 557.22C445.395 557.22 445.493 557.122 445.493 556.925C445.69 556.925 445.886 556.827 446.083 556.629V556.334L446.378 556.039V555.448C446.575 555.251 446.673 555.055 446.673 554.857C446.673 554.66 446.771 554.464 446.968 554.267C448.149 552.495 449.427 551.216 450.805 550.427C451.198 550.23 451.493 549.935 451.69 549.541V549.246C451.888 548.655 452.378 547.769 453.166 546.588C453.363 546.391 453.461 546.195 453.461 545.997C453.658 545.8 453.854 545.604 454.051 545.407C454.444 544.816 454.839 544.225 455.232 543.635C455.822 543.044 456.215 542.256 456.412 541.272L456.708 540.977C456.708 540.386 457.003 539.795 457.593 539.205C457.986 538.812 458.281 538.417 458.478 538.023C458.676 537.63 458.871 537.235 459.069 536.842C459.069 536.645 459.166 536.449 459.364 536.251C459.757 535.463 459.954 534.873 459.954 534.479C459.954 533.691 459.856 533.101 459.659 532.707V531.821C459.461 531.033 459.364 530.345 459.364 529.754C459.364 528.966 459.266 528.18 459.069 527.391C459.069 526.013 458.971 525.029 458.773 524.438C458.773 523.059 458.576 522.075 458.183 521.485C458.183 521.485 458.085 521.387 457.888 521.189C457.888 520.992 457.79 520.894 457.593 520.894C457.593 520.697 457.593 520.501 457.593 520.303C457.593 520.303 457.593 520.008 457.593 519.417V518.827C457.2 518.236 456.61 517.645 455.822 517.055C455.625 517.055 455.429 516.957 455.232 516.759C454.249 516.366 453.363 515.971 452.576 515.578C451.985 515.185 451.198 514.79 450.215 514.397C449.427 514.004 448.936 513.806 448.739 513.806L447.263 512.92C446.476 512.527 445.69 512.232 444.902 512.034C444.115 511.641 443.329 511.246 442.541 510.853C441.164 510.262 440.083 509.869 439.295 509.671C438.507 509.474 437.524 509.474 436.344 509.671L434.868 509.967C432.9 510.36 430.934 510.853 428.966 511.443C427.195 511.837 425.522 512.723 423.948 514.101C421.785 516.071 419.915 518.039 418.341 520.008C416.768 521.78 415.488 523.65 414.504 525.619C413.717 526.998 413.029 528.868 412.439 531.231C412.439 531.624 412.341 531.919 412.143 532.117C412.143 532.117 412.143 532.314 412.143 532.707C411.751 534.282 411.356 535.759 410.963 537.137C410.57 538.319 410.175 539.698 409.782 541.272C409.585 541.665 409.29 542.453 408.897 543.635C408.109 545.8 407.619 547.769 407.421 549.541V550.132C407.814 551.313 407.717 552.199 407.126 552.79C406.536 553.381 405.553 553.479 404.175 553.085H403.88C402.897 553.085 402.207 552.988 401.814 552.79C399.65 552.79 397.387 552.495 395.026 551.904C394.633 551.707 394.338 551.609 394.141 551.609C393.943 551.609 393.648 551.511 393.255 551.313C392.075 550.92 391.387 550.723 391.19 550.723C390.992 550.525 390.797 550.427 390.599 550.427C390.402 550.625 390.304 550.92 390.304 551.313C390.304 551.511 390.206 551.707 390.009 551.904V552.199L389.714 553.381L389.124 552.495C388.926 552.297 388.829 552.102 388.829 551.904C388.238 551.707 387.943 551.216 387.943 550.427C387.746 550.034 387.648 549.837 387.648 549.837C387.845 549.639 387.943 549.444 387.943 549.246C387.943 549.049 388.041 548.853 388.238 548.655C388.238 548.262 388.141 547.867 387.943 547.474C387.746 547.081 387.55 546.686 387.353 546.293C387.156 546.293 387.058 546.195 387.058 545.997L386.468 545.111H387.353H388.238C388.238 544.914 388.141 544.816 387.943 544.816C387.943 544.619 387.943 544.423 387.943 544.225C387.943 542.847 388.14 541.174 388.533 539.205C389.124 537.826 389.419 536.349 389.419 534.775L390.304 530.345C390.502 529.557 390.697 528.868 390.894 528.277C391.092 527.489 391.287 526.703 391.485 525.915C391.878 524.931 392.075 524.045 392.075 523.257C392.272 522.273 392.567 521.287 392.96 520.303C393.158 519.91 393.255 519.515 393.255 519.122C393.255 518.729 393.353 518.334 393.551 517.941C393.943 516.562 394.239 515.283 394.436 514.101C394.829 512.92 395.321 511.739 395.912 510.557C396.502 509.376 397.19 508.195 397.977 507.013C398.765 505.832 399.65 504.651 400.634 503.469L401.519 502.288C402.502 500.909 403.487 499.728 404.47 498.744C405.651 497.563 406.929 496.479 408.307 495.495C409.88 494.512 411.258 493.626 412.439 492.837C413.619 491.854 414.897 490.968 416.275 490.179L416.865 489.884C418.439 489.096 419.619 488.605 420.407 488.407C420.997 488.407 421.49 488.31 421.883 488.112C422.67 488.112 423.26 488.014 423.653 487.817C423.653 487.817 423.751 487.719 423.948 487.521C424.146 487.521 424.244 487.521 424.244 487.521C424.441 487.324 424.736 487.226 425.129 487.226H426.014H426.605C426.802 487.226 426.9 487.226 426.9 487.226C427.097 487.029 427.293 486.931 427.49 486.931C427.687 486.733 427.983 486.635 428.375 486.635C429.163 486.242 429.949 486.045 430.736 486.045C431.327 486.045 431.917 486.045 432.507 486.045C433.295 485.847 433.983 485.749 434.573 485.749C435.556 485.552 436.442 485.454 437.229 485.454C438.017 485.257 438.902 485.159 439.885 485.159C443.034 485.159 446.673 485.749 450.805 486.931C451.198 487.128 451.493 487.324 451.69 487.521C452.083 487.521 452.478 487.619 452.871 487.817C455.625 488.407 458.183 489.293 460.544 490.475C461.332 490.868 462.02 491.361 462.61 491.951C463.398 492.345 464.086 492.74 464.676 493.133C465.266 493.526 465.759 493.921 466.152 494.314C466.742 494.707 467.332 495.102 467.922 495.495L468.513 495.791C469.693 496.579 470.874 497.365 472.054 498.153C473.432 498.942 474.612 499.828 475.596 500.811C476.186 501.402 476.678 501.993 477.071 502.583C477.661 503.174 478.154 503.667 478.547 504.06L478.842 504.355C479.039 504.553 479.137 504.749 479.137 504.946C479.137 504.946 479.235 505.044 479.432 505.241C480.613 506.225 481.4 507.309 481.793 508.49C481.793 508.688 481.793 508.785 481.793 508.785C481.991 508.785 482.088 508.883 482.088 509.081V509.376C482.088 509.967 482.186 510.36 482.383 510.557L482.974 511.148C483.564 511.739 484.056 512.329 484.449 512.92L485.335 514.692C485.532 514.89 485.63 515.085 485.63 515.283C485.827 515.48 486.023 515.676 486.22 515.873C486.613 516.464 487.008 517.35 487.401 518.531C487.793 519.32 488.089 519.811 488.286 520.008C488.286 520.206 488.483 520.697 488.876 521.485C489.664 522.273 490.057 522.961 490.057 523.552C490.254 523.75 490.352 524.143 490.352 524.733C489.959 525.127 489.959 525.422 490.352 525.619C490.352 526.013 490.549 526.603 490.942 527.391L491.237 528.277C492.025 529.852 492.515 531.133 492.713 532.117C492.91 532.51 493.008 532.905 493.008 533.298C493.205 533.691 493.401 534.086 493.598 534.479L494.484 536.251C494.484 536.645 494.484 536.94 494.484 537.137C494.681 537.137 494.779 537.335 494.779 537.728C494.976 538.319 495.172 538.909 495.369 539.5C495.566 539.893 495.762 540.386 495.959 540.977C495.959 541.961 496.057 542.651 496.254 543.044C496.254 543.437 496.254 543.93 496.254 544.521C496.452 544.914 496.55 545.309 496.55 545.702C497.533 549.246 498.025 552.593 498.025 555.743C498.223 556.334 498.32 557.023 498.32 557.811C498.32 558.401 498.518 559.09 498.911 559.878C499.303 560.862 499.403 561.65 499.206 562.241C499.206 562.634 499.108 563.225 498.911 564.013V564.603C498.911 565.982 499.008 566.966 499.206 567.557V569.033C499.403 569.624 499.501 570.608 499.501 571.987V573.759V575.826V578.779C499.501 579.37 499.599 579.863 499.796 580.256ZM388.533 708.726H388.238C388.041 709.119 387.943 710.105 387.943 711.679V713.156C387.746 713.549 387.648 714.042 387.648 714.633C387.648 715.026 387.55 715.421 387.353 715.814C387.156 716.995 386.96 718.177 386.763 719.358C386.763 720.539 386.763 721.721 386.763 722.902L386.468 723.493V726.151C386.665 726.544 387.058 726.839 387.648 727.037H393.551H397.387H399.453C402.207 727.234 404.765 727.332 407.126 727.332C409.487 727.332 411.946 727.135 414.504 726.741C417.258 726.544 419.914 726.544 422.473 726.741C425.031 726.741 427.687 726.839 430.441 727.037H433.097C436.442 727.234 439.688 727.627 442.837 728.218C446.181 728.809 449.722 729.597 453.461 730.581C453.854 730.581 454.444 730.778 455.232 731.171C455.625 731.369 456.117 731.565 456.708 731.762C457.495 731.96 458.085 731.96 458.478 731.762L458.773 732.057L462.61 718.767C462.217 718.57 461.725 718.472 461.134 718.472C460.741 718.472 460.347 718.374 459.954 718.177C458.971 717.784 458.085 717.488 457.298 717.291C456.51 717.093 455.625 716.898 454.642 716.7C453.068 716.307 451.593 716.109 450.215 716.109C448.837 715.912 447.361 715.716 445.788 715.519H445.198L438.115 714.633C436.146 714.435 434.18 714.337 432.212 714.337C430.441 714.14 428.473 713.845 426.31 713.451C424.736 713.058 423.063 712.861 421.292 712.861C419.522 712.663 417.849 712.368 416.275 711.975C412.341 711.384 408.209 710.793 403.88 710.203C399.748 709.612 395.616 709.119 391.485 708.726L388.533 708.431V708.726Z" fill="white"/>
<path d="M499.796 580.256C500.189 581.24 500.189 582.323 499.796 583.505C499.599 584.293 499.501 585.474 499.501 587.049V587.935C499.501 589.314 499.403 590.297 499.206 590.888C499.206 591.281 499.108 591.577 498.911 591.774C498.911 591.972 498.911 592.267 498.911 592.66V594.727C498.911 595.909 498.813 596.795 498.615 597.385C498.615 598.369 498.418 599.65 498.025 601.225L497.73 602.406V602.701V602.997V603.587C497.73 604.376 497.632 604.867 497.435 605.064C497.435 605.262 497.337 605.457 497.14 605.655C497.14 605.655 497.14 605.753 497.14 605.95V606.541C496.747 607.329 496.452 608.115 496.254 608.903C496.057 609.494 495.862 610.282 495.664 611.266C495.074 612.841 494.386 614.417 493.598 615.991C492.811 617.37 492.025 618.847 491.237 620.421C491.237 620.619 491.139 620.717 490.942 620.717C490.942 620.717 490.942 620.815 490.942 621.012C490.155 622.193 489.762 623.079 489.762 623.67C489.564 624.458 489.369 625.147 489.171 625.737C488.974 626.328 488.679 627.017 488.286 627.805C488.286 628.198 488.089 628.593 487.696 628.986C487.303 630.167 487.008 630.956 486.81 631.349L485.925 632.235C485.925 632.432 485.728 632.728 485.335 633.121C485.335 633.318 485.237 633.514 485.04 633.711C485.04 633.711 485.04 633.909 485.04 634.302C484.842 634.5 484.744 634.695 484.744 634.893C484.744 635.09 484.647 635.286 484.449 635.483C483.466 637.255 482.581 638.732 481.793 639.913L481.498 640.209C481.105 640.997 480.71 641.588 480.318 641.981C480.12 642.178 479.925 642.276 479.727 642.276C479.727 642.276 479.63 642.374 479.432 642.571L479.137 642.867V643.162C478.94 643.555 478.842 643.95 478.842 644.343C478.645 644.737 478.449 645.032 478.252 645.229C478.054 645.229 477.859 645.327 477.661 645.525L477.071 646.115C476.678 646.509 476.383 646.804 476.186 647.001C476.186 647.199 475.988 647.494 475.596 647.887C475.203 648.676 474.808 649.167 474.415 649.364C474.022 649.955 473.627 650.545 473.235 651.136C472.842 651.529 472.447 652.022 472.054 652.613C470.283 654.778 468.415 656.845 466.447 658.815C464.676 660.784 462.807 662.852 460.839 665.017C458.871 666.986 457.003 669.054 455.232 671.219C453.461 673.384 451.69 675.551 449.92 677.716C449.329 678.307 448.444 679.39 447.263 680.965C439 691.399 428.473 699.571 415.685 705.477H415.39C413.816 706.266 412.536 706.856 411.553 707.249C411.356 707.249 411.16 707.347 410.963 707.545C410.766 707.545 410.57 707.545 410.373 707.545C409.98 707.742 409.685 707.84 409.487 707.84C409.29 707.84 408.995 707.938 408.602 708.135C409.585 708.333 410.47 708.529 411.258 708.726C412.241 708.726 413.226 708.824 414.209 709.021C416.373 709.415 418.538 709.81 420.702 710.203C423.063 710.4 425.326 710.696 427.49 711.089C428.868 711.286 430.146 711.482 431.327 711.679C432.705 711.679 434.081 711.679 435.458 711.679C437.622 711.877 439.688 712.073 441.656 712.27C443.82 712.27 445.985 712.468 448.149 712.861C449.92 713.254 451.593 713.649 453.166 714.042C454.937 714.24 456.51 714.535 457.888 714.928C458.281 715.126 458.871 715.223 459.659 715.223C461.037 715.617 462.413 716.109 463.791 716.7C465.364 717.093 466.349 717.881 466.742 719.063C467.135 719.653 467.135 720.342 466.742 721.13C466.544 721.918 466.249 722.607 465.856 723.197V723.788C465.069 725.167 464.479 726.544 464.086 727.923V729.399L463.2 732.057V732.353C462.61 733.337 462.61 734.027 463.2 734.42L463.791 735.011L463.2 735.306C462.807 735.504 462.315 735.699 461.725 735.897C461.332 736.094 460.937 736.192 460.544 736.192C460.151 736.192 459.757 736.094 459.364 735.897L458.478 735.011C458.478 734.813 458.38 734.715 458.183 734.715C458.183 734.518 457.691 734.223 456.708 733.829H456.412C455.625 733.632 454.839 733.436 454.051 733.239C453.461 733.239 452.673 733.041 451.69 732.648C450.707 732.451 449.624 732.255 448.444 732.057C447.263 731.86 446.083 731.565 444.902 731.171C442.934 730.581 441.066 730.188 439.295 729.99C437.524 729.99 435.556 729.892 433.393 729.695C432.409 729.695 431.524 729.695 430.736 729.695C429.949 729.695 429.063 729.597 428.08 729.399C427.097 729.399 426.014 729.399 424.834 729.399C423.653 729.399 422.571 729.302 421.587 729.104C419.619 729.104 417.653 729.104 415.685 729.104C413.914 729.302 412.046 729.399 410.078 729.399C407.914 729.597 405.651 729.695 403.29 729.695C400.929 729.892 398.665 729.892 396.502 729.695C395.519 729.695 394.534 729.597 393.551 729.399C392.567 729.399 391.582 729.399 390.599 729.399H388.829C386.665 729.399 385.189 729.302 384.402 729.104C383.418 728.711 382.828 728.218 382.631 727.627C382.631 727.037 382.729 726.544 382.926 726.151C382.926 725.56 382.926 724.969 382.926 724.379C383.123 723.788 383.221 723.197 383.221 722.607V720.539C383.418 719.556 383.516 718.67 383.516 717.881C383.714 716.898 383.909 715.912 384.106 714.928L384.992 708.726V708.135C384.992 707.742 384.992 707.249 384.992 706.659C385.189 706.068 385.484 705.575 385.877 705.182C386.467 704.985 387.55 705.084 389.124 705.477H390.304C391.287 705.675 392.763 705.773 394.731 705.773C395.912 705.97 397.092 706.068 398.273 706.068C399.65 706.068 400.929 706.068 402.109 706.068C404.273 705.871 406.241 705.477 408.012 704.887C409.782 704.296 411.455 703.608 413.029 702.819C414.602 702.031 416.177 701.245 417.751 700.457C419.324 699.669 420.997 698.685 422.768 697.503L425.424 695.731C427.588 694.748 429.753 693.271 431.917 691.301C437.032 686.774 442.246 681.458 447.559 675.353C448.149 674.565 448.739 673.779 449.329 672.991C449.92 672.203 450.51 671.416 451.1 670.628L453.756 667.084C454.739 665.903 455.822 664.819 457.003 663.835C457.593 663.245 458.183 662.752 458.773 662.359C459.364 661.768 459.856 661.177 460.249 660.587C462.413 657.633 464.971 654.68 467.922 651.727C469.103 650.348 470.283 649.069 471.464 647.887C472.644 646.509 473.825 645.032 475.005 643.457C475.793 642.474 476.481 641.39 477.071 640.209C477.661 639.027 478.349 637.846 479.137 636.665C479.925 635.483 480.415 634.597 480.613 634.007C482.383 631.251 484.154 627.903 485.925 623.965C486.318 622.982 486.613 622.193 486.81 621.603C487.203 621.012 487.598 620.324 487.991 619.535C488.384 618.552 488.778 617.763 489.171 617.173C489.564 616.385 489.959 615.499 490.352 614.515C492.123 610.183 493.401 606.343 494.189 602.997C494.976 599.846 495.566 596.499 495.959 592.955C496.55 589.411 496.647 585.867 496.254 582.323C496.057 581.142 495.959 579.961 495.959 578.779C495.959 577.401 495.959 576.121 495.959 574.94C496.352 573.366 496.352 571.789 495.959 570.215V564.013C495.959 563.62 495.862 563.225 495.664 562.831C495.664 562.241 495.664 561.65 495.664 561.059C495.664 560.666 495.566 560.271 495.369 559.878C495.369 559.287 495.369 558.795 495.369 558.401C495.369 554.267 494.976 550.625 494.189 547.474C493.796 546.686 493.598 546.095 493.598 545.702C493.401 545.309 493.205 544.816 493.008 544.225C493.008 543.635 492.91 543.142 492.713 542.749C492.515 542.356 492.418 541.961 492.418 541.567C492.418 541.174 492.32 540.779 492.123 540.386C492.123 539.598 491.925 538.614 491.532 537.433C490.352 533.889 488.974 530.345 487.401 526.801C486.023 523.257 484.547 519.811 482.974 516.464C481.991 514.89 481.006 513.313 480.022 511.739C479.039 510.164 477.957 508.588 476.776 507.013C474.218 503.667 471.661 501.107 469.103 499.335C465.954 497.17 462.708 495.2 459.364 493.428C456.019 491.459 452.378 490.082 448.444 489.293C447.656 489.293 447.066 489.196 446.673 488.998C445.1 488.605 443.919 488.407 443.132 488.407C442.149 488.21 441.164 488.21 440.18 488.407C439.197 488.407 438.212 488.505 437.229 488.703C435.656 489.096 434.278 489.293 433.097 489.293C431.917 489.491 430.736 489.687 429.556 489.884C428.375 489.884 427.293 490.082 426.31 490.475C418.439 492.64 412.241 496.184 407.717 501.107C401.814 507.211 398.175 513.413 396.797 519.713C396.207 522.273 395.616 524.831 395.026 527.391C394.633 529.952 394.141 532.412 393.551 534.775C393.353 535.956 393.158 537.137 392.96 538.319C392.96 539.5 392.763 540.681 392.37 541.863C392.173 542.256 392.075 542.749 392.075 543.339C392.075 543.733 391.977 544.128 391.78 544.521C391.78 544.521 391.682 544.718 391.485 545.111C391.485 545.309 391.387 545.505 391.19 545.702C391.19 545.9 391.19 546.095 391.19 546.293C391.387 546.686 391.78 546.981 392.37 547.179C393.158 547.376 393.748 547.572 394.141 547.769C394.338 547.769 394.534 547.867 394.731 548.065C396.502 548.655 398.175 548.951 399.748 548.951H400.338C401.126 548.951 401.716 549.049 402.109 549.246H402.404H403.29H403.585V548.951V548.655C403.782 548.065 403.88 547.474 403.88 546.883C404.077 546.095 404.273 545.407 404.47 544.816C404.863 543.635 405.158 542.453 405.356 541.272C405.748 539.893 406.143 538.614 406.536 537.433C406.733 536.842 406.929 536.251 407.126 535.661C407.324 534.873 407.519 534.086 407.717 533.298C408.7 530.738 409.487 528.475 410.078 526.505C410.275 525.522 410.766 524.241 411.553 522.666L411.848 522.371C412.046 521.978 412.143 521.682 412.143 521.485C412.143 521.287 412.241 520.992 412.439 520.599C412.439 519.811 412.734 518.925 413.324 517.941C413.717 517.548 414.112 517.153 414.504 516.759C415.095 516.366 415.587 515.971 415.98 515.578C416.373 515.381 416.865 514.987 417.456 514.397C417.653 514.199 417.849 514.101 418.046 514.101C418.243 513.904 418.439 513.708 418.636 513.511C419.029 512.92 419.522 512.427 420.112 512.034C420.702 511.443 421.195 510.951 421.587 510.557C422.965 509.574 424.244 508.883 425.424 508.49C426.802 508.097 428.178 507.702 429.556 507.309C429.949 507.111 430.244 507.013 430.441 507.013C430.639 507.013 430.934 506.916 431.327 506.718C435.261 505.537 438.705 505.439 441.656 506.423C442.444 506.816 443.427 507.407 444.607 508.195C445 508.392 445.198 508.588 445.198 508.785C445.395 508.785 445.69 508.883 446.083 509.081C446.673 509.474 447.559 509.869 448.739 510.262C449.132 510.46 449.427 510.655 449.624 510.853C450.017 510.853 450.412 510.951 450.805 511.148C452.378 511.739 453.954 512.527 455.527 513.511C455.92 513.511 456.215 513.609 456.412 513.806C458.183 514.397 459.461 515.283 460.249 516.464C460.839 517.252 461.332 518.531 461.725 520.303V520.599C462.118 522.173 462.315 523.159 462.315 523.552C462.512 524.143 462.61 524.733 462.61 525.324C462.807 525.717 463.003 526.21 463.2 526.801C463.2 527.391 463.298 527.785 463.495 527.982C463.693 528.573 463.791 529.163 463.791 529.754C463.791 530.147 463.888 530.64 464.086 531.231C464.086 531.624 464.086 531.919 464.086 532.117C464.283 532.314 464.183 532.61 463.791 533.003C463.791 533.2 463.693 533.396 463.495 533.593H463.2C463.2 533.791 463.298 533.987 463.495 534.184V535.07C463.495 535.858 463.103 536.842 462.315 538.023C462.315 538.023 462.118 538.417 461.725 539.205C461.332 540.189 460.839 541.174 460.249 542.158C459.856 543.142 459.461 544.028 459.069 544.816C458.871 545.209 458.676 545.604 458.478 545.997C458.281 546.391 457.986 546.786 457.593 547.179C457.003 547.769 456.61 548.262 456.412 548.655C456.019 549.444 455.527 550.23 454.937 551.018C454.346 551.806 453.658 552.593 452.871 553.381C452.478 553.774 452.183 554.169 451.985 554.562C451.788 554.76 451.493 555.055 451.1 555.448C450.707 555.841 450.312 556.137 449.92 556.334C449.92 556.334 449.722 556.432 449.329 556.629C449.132 556.827 449.034 557.023 449.034 557.22V557.811C448.641 558.795 448.247 559.485 447.854 559.878L447.263 560.173C446.673 560.764 446.083 561.65 445.493 562.831V563.422C445.295 563.815 445.198 564.111 445.198 564.308C445.198 564.506 445 564.801 444.607 565.194C444.41 565.392 444.017 565.489 443.427 565.489H443.132C443.132 565.687 443.034 565.883 442.837 566.08C442.837 566.278 442.837 566.473 442.837 566.671C442.837 566.868 442.739 567.064 442.541 567.261L441.656 569.033L440.771 569.919C439.983 571.298 439.197 572.184 438.41 572.577C438.017 572.971 437.622 573.266 437.229 573.463C437.032 573.463 436.737 573.561 436.344 573.759C435.361 574.152 434.671 574.547 434.278 574.94C433.885 575.333 433.49 575.924 433.097 576.712C432.705 577.5 432.31 578.091 431.917 578.484C430.934 579.665 429.949 580.847 428.966 582.028C427.983 583.012 426.998 583.998 426.014 584.981L423.948 587.049C423.751 587.442 423.556 587.737 423.358 587.935C423.161 587.935 422.866 588.132 422.473 588.525C421.685 588.919 421.195 589.314 420.997 589.707C420.604 590.1 420.21 590.593 419.817 591.183C419.424 591.577 419.029 591.972 418.636 592.365C418.636 592.562 418.439 592.858 418.046 593.251C417.063 594.63 416.078 596.007 415.095 597.385C414.112 598.764 413.127 600.141 412.143 601.52C411.553 602.111 411.258 602.604 411.258 602.997C410.865 603.785 410.57 604.276 410.373 604.473C410.175 604.671 410.078 604.867 410.078 605.064C409.88 605.064 409.782 605.162 409.782 605.359V605.655C409.585 605.852 409.487 606.048 409.487 606.245C408.504 610.773 406.733 614.613 404.175 617.763C403.782 618.157 403.487 618.649 403.29 619.24C403.29 619.831 403.092 620.519 402.699 621.307L401.814 623.965C401.421 624.754 401.026 625.344 400.634 625.737C400.436 626.328 400.241 626.919 400.043 627.509C399.846 627.903 399.551 628.395 399.158 628.986C398.961 629.379 398.863 629.774 398.863 630.167C398.863 630.365 398.765 630.66 398.568 631.053C398.568 631.447 398.37 632.432 397.977 634.007C397.585 634.991 397.289 636.172 397.092 637.551C396.895 638.732 396.699 639.913 396.502 641.095C396.502 641.685 396.404 642.276 396.207 642.867C396.207 643.457 396.207 643.95 396.207 644.343L395.616 647.001C395.419 648.576 395.224 650.152 395.026 651.727C394.829 653.106 394.633 654.582 394.436 656.157C394.239 657.141 394.043 658.126 393.846 659.11C393.846 659.898 393.846 660.784 393.846 661.768C394.043 662.556 394.043 663.343 393.846 664.131C393.648 664.721 393.453 665.41 393.255 666.198C393.255 666.591 393.158 666.986 392.96 667.379C392.96 667.773 392.863 668.265 392.665 668.856C392.665 669.249 392.665 669.742 392.665 670.333C392.468 670.726 392.37 671.121 392.37 671.514C392.37 671.712 392.272 672.007 392.075 672.4C391.682 674.37 391.387 675.747 391.19 676.535C390.992 676.928 390.894 677.223 390.894 677.421C390.894 677.618 390.797 677.814 390.599 678.011C390.402 678.405 390.304 678.897 390.304 679.488C390.304 679.881 390.206 680.276 390.009 680.669C390.009 681.653 389.911 682.441 389.714 683.032C389.714 683.425 389.517 684.016 389.124 684.804C388.731 685.985 388.533 686.871 388.533 687.462V689.529C388.533 690.711 388.436 691.695 388.238 692.483V694.55V697.503C387.845 698.882 387.451 699.669 387.058 699.866V700.161V700.457H386.763C386.763 700.654 386.565 700.752 386.172 700.752C386.172 700.555 386.075 700.457 385.877 700.457C385.68 700.457 385.484 700.359 385.287 700.161C385.09 700.161 384.992 700.064 384.992 699.866C384.009 699.078 383.614 697.799 383.811 696.027C383.811 695.634 383.811 695.338 383.811 695.141C384.009 694.943 384.106 694.648 384.106 694.255C384.499 692.68 384.697 691.597 384.697 691.006V688.939C384.499 688.151 384.402 687.069 384.402 685.69C384.992 683.327 385.484 681.26 385.877 679.488C386.467 677.519 387.156 675.747 387.943 674.172C388.336 672.793 388.731 671.121 389.124 669.151C389.124 668.758 389.124 668.363 389.124 667.97C389.321 667.379 389.419 666.789 389.419 666.198C389.616 665.805 389.714 665.41 389.714 665.017C389.714 664.624 389.812 664.229 390.009 663.835C390.009 662.063 389.911 660.784 389.714 659.996V658.519C389.714 657.536 389.714 656.747 389.714 656.157C389.911 655.566 390.206 654.878 390.599 654.089C390.797 653.499 390.894 652.613 390.894 651.431V649.955C391.287 648.971 391.78 648.478 392.37 648.478C392.173 647.887 392.075 647.395 392.075 647.001C392.272 646.608 392.37 646.213 392.37 645.82C392.567 645.427 392.665 644.836 392.665 644.048C392.863 643.851 392.96 643.36 392.96 642.571C392.96 640.602 393.058 639.125 393.255 638.141C393.255 637.551 393.453 637.058 393.846 636.665C394.239 635.877 394.436 635.483 394.436 635.483V634.597C394.239 634.204 394.141 633.711 394.141 633.121C394.141 632.333 394.338 631.349 394.731 630.167C395.124 629.379 395.321 628.593 395.321 627.805C395.714 626.821 396.304 625.737 397.092 624.556C397.485 623.768 397.682 623.277 397.682 623.079C398.075 622.489 398.37 621.898 398.568 621.307C398.765 620.717 399.06 620.126 399.453 619.535C399.65 618.354 400.043 617.271 400.634 616.287C401.026 615.499 401.617 614.515 402.404 613.333C403.192 612.35 403.683 611.266 403.88 610.085C404.273 609.494 404.568 608.903 404.765 608.313C404.963 607.525 405.258 606.836 405.651 606.245C406.044 605.064 406.339 604.276 406.536 603.883C406.929 602.899 407.324 602.111 407.717 601.52C408.109 600.929 408.504 600.241 408.897 599.453L409.782 598.567C410.175 598.174 410.373 597.878 410.373 597.681C410.57 597.288 410.766 596.893 410.963 596.499C411.356 595.909 411.848 595.318 412.439 594.727C413.029 593.939 413.521 593.251 413.914 592.66C414.897 591.676 415.783 590.79 416.57 590.002C417.358 589.018 418.144 588.033 418.931 587.049C419.129 586.656 419.619 586.261 420.407 585.867C420.407 585.67 420.407 585.572 420.407 585.572C420.604 585.572 420.702 585.474 420.702 585.277C421.292 585.079 421.685 584.686 421.883 584.095C422.08 583.898 422.178 583.8 422.178 583.8C422.178 583.603 422.275 583.407 422.473 583.209C423.063 582.421 423.751 581.733 424.539 581.142C424.932 580.749 425.227 580.551 425.424 580.551C425.621 580.354 425.817 580.059 426.014 579.665L426.605 578.779C427.392 577.991 428.08 577.303 428.671 576.712C429.261 575.924 429.949 575.138 430.736 574.349L431.917 573.463L435.458 569.919C436.049 569.329 436.541 568.936 436.934 568.738C437.327 568.147 437.819 567.557 438.41 566.966C439 566.375 439.492 565.785 439.885 565.194V564.899C440.083 564.701 440.18 564.603 440.18 564.603C440.18 564.406 440.278 564.21 440.476 564.013C440.476 564.013 440.673 563.815 441.066 563.422C441.263 563.422 441.361 563.324 441.361 563.127C441.558 562.929 441.656 562.734 441.656 562.536C441.853 562.536 441.951 562.339 441.951 561.945C442.344 560.962 442.837 560.076 443.427 559.287C444.214 558.304 444.805 557.613 445.198 557.22C445.395 557.22 445.493 557.122 445.493 556.925C445.69 556.925 445.886 556.827 446.083 556.629V556.334L446.378 556.039V555.448C446.575 555.251 446.673 555.055 446.673 554.857C446.673 554.66 446.771 554.464 446.968 554.267C448.149 552.495 449.427 551.216 450.805 550.427C451.198 550.23 451.493 549.935 451.69 549.541V549.246C451.888 548.655 452.378 547.769 453.166 546.588C453.363 546.391 453.461 546.195 453.461 545.997C453.658 545.8 453.854 545.604 454.051 545.407C454.444 544.816 454.839 544.225 455.232 543.635C455.822 543.044 456.215 542.256 456.412 541.272L456.708 540.977C456.708 540.386 457.003 539.795 457.593 539.205C457.986 538.812 458.281 538.417 458.478 538.023C458.676 537.63 458.871 537.235 459.069 536.842C459.069 536.645 459.166 536.449 459.364 536.251C459.757 535.463 459.954 534.873 459.954 534.479C459.954 533.691 459.856 533.101 459.659 532.707V531.821C459.461 531.033 459.364 530.345 459.364 529.754C459.364 528.966 459.266 528.18 459.069 527.391C459.069 526.013 458.971 525.029 458.773 524.438C458.773 523.059 458.576 522.075 458.183 521.485C458.183 521.485 458.085 521.387 457.888 521.189C457.888 520.992 457.79 520.894 457.593 520.894C457.593 520.697 457.593 520.501 457.593 520.303C457.593 520.303 457.593 520.008 457.593 519.417V518.827C457.2 518.236 456.61 517.645 455.822 517.055C455.625 517.055 455.429 516.957 455.232 516.759C454.249 516.366 453.363 515.971 452.576 515.578C451.985 515.185 451.198 514.79 450.215 514.397C449.427 514.004 448.936 513.806 448.739 513.806L447.263 512.92C446.476 512.527 445.69 512.232 444.902 512.034C444.115 511.641 443.329 511.246 442.541 510.853C441.164 510.262 440.083 509.869 439.295 509.671C438.507 509.474 437.524 509.474 436.344 509.671L434.868 509.967C432.9 510.36 430.934 510.853 428.966 511.443C427.195 511.837 425.522 512.723 423.948 514.101C421.785 516.071 419.915 518.039 418.341 520.008C416.768 521.78 415.488 523.65 414.504 525.619C413.717 526.998 413.029 528.868 412.439 531.231C412.439 531.624 412.341 531.919 412.143 532.117C412.143 532.117 412.143 532.314 412.143 532.707C411.751 534.282 411.356 535.759 410.963 537.137C410.57 538.319 410.175 539.698 409.782 541.272C409.585 541.665 409.29 542.453 408.897 543.635C408.109 545.8 407.619 547.769 407.421 549.541V550.132C407.814 551.313 407.717 552.199 407.126 552.79C406.536 553.381 405.553 553.479 404.175 553.085H403.88C402.897 553.085 402.207 552.988 401.814 552.79C399.65 552.79 397.387 552.495 395.026 551.904C394.633 551.707 394.338 551.609 394.141 551.609C393.943 551.609 393.648 551.511 393.255 551.313C392.075 550.92 391.387 550.723 391.19 550.723C390.992 550.525 390.797 550.427 390.599 550.427C390.402 550.625 390.304 550.92 390.304 551.313C390.304 551.511 390.206 551.707 390.009 551.904V552.199L389.714 553.381L389.124 552.495C388.926 552.297 388.829 552.102 388.829 551.904C388.238 551.707 387.943 551.216 387.943 550.427C387.746 550.034 387.648 549.837 387.648 549.837C387.845 549.639 387.943 549.444 387.943 549.246C387.943 549.049 388.041 548.853 388.238 548.655C388.238 548.262 388.141 547.867 387.943 547.474C387.746 547.081 387.55 546.686 387.353 546.293C387.156 546.293 387.058 546.195 387.058 545.997L386.468 545.111H387.353H388.238C388.238 544.914 388.141 544.816 387.943 544.816C387.943 544.619 387.943 544.423 387.943 544.225C387.943 542.847 388.14 541.174 388.533 539.205C389.124 537.826 389.419 536.349 389.419 534.775L390.304 530.345C390.502 529.557 390.697 528.868 390.894 528.277C391.092 527.489 391.287 526.703 391.485 525.915C391.878 524.931 392.075 524.045 392.075 523.257C392.272 522.273 392.567 521.287 392.96 520.303C393.158 519.91 393.255 519.515 393.255 519.122C393.255 518.729 393.353 518.334 393.551 517.941C393.943 516.562 394.239 515.283 394.436 514.101C394.829 512.92 395.321 511.739 395.912 510.557C396.502 509.376 397.19 508.195 397.977 507.013C398.765 505.832 399.65 504.651 400.634 503.469L401.519 502.288C402.502 500.909 403.487 499.728 404.47 498.744C405.651 497.563 406.929 496.479 408.307 495.495C409.88 494.512 411.258 493.626 412.439 492.837C413.619 491.854 414.897 490.968 416.275 490.179L416.865 489.884C418.439 489.096 419.619 488.605 420.407 488.407C420.997 488.407 421.49 488.31 421.883 488.112C422.67 488.112 423.26 488.014 423.653 487.817C423.653 487.817 423.751 487.719 423.948 487.521C424.146 487.521 424.244 487.521 424.244 487.521C424.441 487.324 424.736 487.226 425.129 487.226H426.014H426.605C426.802 487.226 426.9 487.226 426.9 487.226C427.097 487.029 427.293 486.931 427.49 486.931C427.687 486.733 427.983 486.635 428.375 486.635C429.163 486.242 429.949 486.045 430.736 486.045C431.327 486.045 431.917 486.045 432.507 486.045C433.295 485.847 433.983 485.749 434.573 485.749C435.556 485.552 436.442 485.454 437.229 485.454C438.017 485.257 438.902 485.159 439.885 485.159C443.034 485.159 446.673 485.749 450.805 486.931C451.198 487.128 451.493 487.324 451.69 487.521C452.083 487.521 452.478 487.619 452.871 487.817C455.625 488.407 458.183 489.293 460.544 490.475C461.332 490.868 462.02 491.361 462.61 491.951C463.398 492.345 464.086 492.74 464.676 493.133C465.266 493.526 465.759 493.921 466.152 494.314C466.742 494.707 467.332 495.102 467.922 495.495L468.513 495.791C469.693 496.579 470.874 497.365 472.054 498.153C473.432 498.942 474.612 499.828 475.596 500.811C476.186 501.402 476.678 501.993 477.071 502.583C477.661 503.174 478.154 503.667 478.547 504.06L478.842 504.355C479.039 504.553 479.137 504.749 479.137 504.946C479.137 504.946 479.235 505.044 479.432 505.241C480.613 506.225 481.4 507.309 481.793 508.49C481.793 508.688 481.793 508.785 481.793 508.785C481.991 508.785 482.088 508.883 482.088 509.081V509.376C482.088 509.967 482.186 510.36 482.383 510.557L482.974 511.148C483.564 511.739 484.056 512.329 484.449 512.92L485.335 514.692C485.532 514.89 485.63 515.085 485.63 515.283C485.827 515.48 486.023 515.676 486.22 515.873C486.613 516.464 487.008 517.35 487.401 518.531C487.793 519.32 488.089 519.811 488.286 520.008C488.286 520.206 488.483 520.697 488.876 521.485C489.664 522.273 490.057 522.961 490.057 523.552C490.254 523.75 490.352 524.143 490.352 524.733C489.959 525.127 489.959 525.422 490.352 525.619C490.352 526.013 490.549 526.603 490.942 527.391L491.237 528.277C492.025 529.852 492.515 531.133 492.713 532.117C492.91 532.51 493.008 532.905 493.008 533.298C493.205 533.691 493.401 534.086 493.598 534.479L494.484 536.251C494.484 536.645 494.484 536.94 494.484 537.137C494.681 537.137 494.779 537.335 494.779 537.728C494.976 538.319 495.172 538.909 495.369 539.5C495.566 539.893 495.762 540.386 495.959 540.977C495.959 541.961 496.057 542.651 496.254 543.044C496.254 543.437 496.254 543.93 496.254 544.521C496.452 544.914 496.55 545.309 496.55 545.702C497.533 549.246 498.025 552.593 498.025 555.743C498.223 556.334 498.32 557.023 498.32 557.811C498.32 558.401 498.518 559.09 498.911 559.878C499.303 560.862 499.403 561.65 499.206 562.241C499.206 562.634 499.108 563.225 498.911 564.013V564.603C498.911 565.982 499.008 566.966 499.206 567.557V569.033C499.403 569.624 499.501 570.608 499.501 571.987V573.759V575.826V578.779C499.501 579.37 499.599 579.863 499.796 580.256ZM388.533 708.726H388.238C388.041 709.119 387.943 710.105 387.943 711.679V713.156C387.746 713.549 387.648 714.042 387.648 714.633C387.648 715.026 387.55 715.421 387.353 715.814C387.156 716.995 386.96 718.177 386.763 719.358C386.763 720.539 386.763 721.721 386.763 722.902L386.468 723.493V726.151C386.665 726.544 387.058 726.839 387.648 727.037H393.551H397.387H399.453C402.207 727.234 404.765 727.332 407.126 727.332C409.487 727.332 411.946 727.135 414.504 726.741C417.258 726.544 419.914 726.544 422.473 726.741C425.031 726.741 427.687 726.839 430.441 727.037H433.097C436.442 727.234 439.688 727.627 442.837 728.218C446.181 728.809 449.722 729.597 453.461 730.581C453.854 730.581 454.444 730.778 455.232 731.171C455.625 731.369 456.117 731.565 456.708 731.762C457.495 731.96 458.085 731.96 458.478 731.762L458.773 732.057L462.61 718.767C462.217 718.57 461.725 718.472 461.134 718.472C460.741 718.472 460.347 718.374 459.954 718.177C458.971 717.784 458.085 717.488 457.298 717.291C456.51 717.093 455.625 716.898 454.642 716.7C453.068 716.307 451.593 716.109 450.215 716.109C448.837 715.912 447.361 715.716 445.788 715.519H445.198L438.115 714.633C436.146 714.435 434.18 714.337 432.212 714.337C430.441 714.14 428.473 713.845 426.31 713.451C424.736 713.058 423.063 712.861 421.292 712.861C419.522 712.663 417.849 712.368 416.275 711.975C412.341 711.384 408.209 710.793 403.88 710.203C399.748 709.612 395.616 709.119 391.485 708.726L388.533 708.431V708.726Z" fill="white"/>
</g>
</g>
<defs>
<clipPath id="clip0_140_95">
<rect width="878" height="886" fill="white"/>
</clipPath>
</defs>
</svg>
