<svg width="883" height="876" viewBox="0 0 883 876" fill="none" xmlns="http://www.w3.org/2000/svg">
<g clip-path="url(#clip0_140_88)">
<mask id="mask0_140_88" style="mask-type:luminance" maskUnits="userSpaceOnUse" x="0" y="0" width="883" height="876">
<path d="M883 0H0V876H883V0Z" fill="white"/>
</mask>
<g mask="url(#mask0_140_88)">
<path d="M883 -7.37695H1.84375V877.844H883V-7.37695Z" fill="#E61EAA"/>
<path d="M516.528 398.718C517.02 399.948 517.02 401.3 516.528 402.776C516.283 403.759 516.159 405.234 516.159 407.202V408.308C516.159 410.029 516.036 411.259 515.791 411.997C515.791 412.489 515.667 412.858 515.422 413.103C515.422 413.348 515.422 413.717 515.422 414.21V416.792C515.422 418.267 515.298 419.373 515.053 420.111C515.053 421.341 514.808 422.938 514.316 424.906L513.947 426.381V426.75V427.119V427.857C513.947 428.84 513.824 429.456 513.579 429.701C513.579 429.946 513.455 430.193 513.21 430.439C513.21 430.439 513.21 430.562 513.21 430.808V431.545C512.718 432.528 512.349 433.513 512.104 434.496C511.859 435.234 511.612 436.217 511.366 437.447C510.629 439.415 509.768 441.38 508.786 443.348C507.803 445.069 506.819 446.913 505.836 448.881C505.836 449.126 505.713 449.25 505.467 449.25C505.467 449.25 505.467 449.373 505.467 449.619C504.485 451.094 503.993 452.2 503.993 452.938C503.748 453.921 503.501 454.782 503.255 455.52C503.01 456.258 502.641 457.119 502.149 458.102C502.149 458.594 501.904 459.085 501.412 459.577C500.92 461.053 500.551 462.036 500.306 462.528L499.2 463.635C499.2 463.88 498.955 464.249 498.462 464.741C498.462 464.986 498.339 465.233 498.094 465.479C498.094 465.479 498.094 465.724 498.094 466.216C497.849 466.462 497.725 466.709 497.725 466.954C497.725 467.199 497.602 467.447 497.356 467.692C496.127 469.905 495.021 471.749 494.038 473.224L493.67 473.593C493.177 474.576 492.687 475.314 492.195 475.806C491.95 476.052 491.703 476.175 491.457 476.175C491.457 476.175 491.334 476.299 491.089 476.544L490.72 476.913V477.282C490.475 477.774 490.351 478.265 490.351 478.757C490.106 479.249 489.859 479.618 489.614 479.864C489.369 479.864 489.122 479.987 488.877 480.232L488.139 480.97C487.647 481.462 487.278 481.831 487.033 482.077C487.033 482.322 486.788 482.691 486.296 483.183C485.804 484.166 485.313 484.782 484.821 485.027C484.329 485.765 483.839 486.503 483.346 487.24C482.854 487.733 482.364 488.347 481.872 489.085C479.66 491.79 477.324 494.372 474.867 496.83C472.655 499.289 470.319 501.871 467.862 504.576C465.404 507.034 463.069 509.616 460.857 512.322C458.644 515.027 456.432 517.731 454.22 520.436C453.483 521.174 452.377 522.526 450.902 524.493C440.579 537.526 427.43 547.731 411.453 555.107H411.084C409.117 556.09 407.521 556.828 406.291 557.32C406.046 557.32 405.799 557.444 405.554 557.689C405.309 557.689 405.062 557.689 404.817 557.689C404.324 557.935 403.956 558.058 403.71 558.058C403.465 558.058 403.097 558.182 402.604 558.427C403.834 558.672 404.94 558.919 405.923 559.165C407.152 559.165 408.38 559.288 409.609 559.533C412.314 560.026 415.016 560.516 417.72 561.009C420.67 561.254 423.496 561.623 426.2 562.115C427.92 562.361 429.518 562.608 430.993 562.853C432.713 562.853 434.435 562.853 436.155 562.853C438.859 563.098 441.44 563.345 443.897 563.591C446.601 563.591 449.304 563.836 452.008 564.328C454.22 564.821 456.309 565.311 458.276 565.804C460.488 566.049 462.455 566.418 464.175 566.91C464.667 567.156 465.404 567.279 466.387 567.279C468.107 567.772 469.829 568.386 471.548 569.123C473.515 569.616 474.743 570.599 475.235 572.074C475.727 572.812 475.727 573.673 475.235 574.656C474.99 575.639 474.621 576.5 474.129 577.238V577.976C473.147 579.696 472.409 581.419 471.917 583.139V584.984L470.811 588.303V588.672C470.074 589.902 470.074 590.761 470.811 591.254L471.548 591.992L470.811 592.36C470.319 592.606 469.705 592.853 468.968 593.098C468.475 593.343 467.985 593.467 467.493 593.467C467.001 593.467 466.51 593.343 466.018 593.098L464.912 591.992C464.912 591.746 464.789 591.623 464.543 591.623C464.543 591.377 463.93 591.009 462.7 590.516H462.331C461.349 590.271 460.364 590.024 459.382 589.778C458.644 589.778 457.662 589.533 456.432 589.041C455.203 588.796 453.852 588.548 452.377 588.303C450.902 588.058 449.427 587.689 447.953 587.197C445.495 586.459 443.16 585.967 440.948 585.721C438.736 585.721 436.278 585.598 433.574 585.352C432.344 585.352 431.238 585.352 430.256 585.352C429.273 585.352 428.167 585.229 426.938 584.984C425.708 584.984 424.357 584.984 422.882 584.984C421.407 584.984 420.056 584.86 418.827 584.615C416.369 584.615 413.91 584.615 411.453 584.615C409.241 584.86 406.905 584.984 404.448 584.984C401.744 585.229 398.918 585.352 395.968 585.352C393.019 585.598 390.193 585.598 387.488 585.352C386.259 585.352 385.031 585.229 383.801 584.984C382.572 584.984 381.344 584.984 380.115 584.984H377.903C375.198 584.984 373.355 584.86 372.372 584.615C371.143 584.122 370.405 583.508 370.16 582.771C370.16 582.033 370.284 581.419 370.529 580.926C370.529 580.189 370.529 579.451 370.529 578.713C370.774 577.976 370.898 577.238 370.898 576.5V573.918C371.143 572.688 371.266 571.582 371.266 570.599C371.511 569.369 371.758 568.14 372.004 566.91L373.11 559.165V558.427C373.11 557.935 373.11 557.32 373.11 556.583C373.355 555.845 373.723 555.231 374.216 554.738C374.953 554.493 376.304 554.615 378.271 555.107H379.746C380.976 555.353 382.819 555.476 385.276 555.476C386.751 555.722 388.226 555.845 389.7 555.845C391.42 555.845 393.019 555.845 394.493 555.845C397.198 555.6 399.655 555.107 401.867 554.37C404.079 553.632 406.168 552.771 408.135 551.788C410.102 550.805 412.067 549.82 414.034 548.837C416.001 547.854 418.089 546.624 420.301 545.149L423.619 542.936C426.324 541.705 429.026 539.861 431.731 537.403C438.122 531.747 444.634 525.108 451.271 517.485C452.008 516.503 452.746 515.518 453.483 514.535C454.22 513.552 454.958 512.567 455.695 511.584L459.013 507.158C460.243 505.683 461.594 504.331 463.069 503.101C463.806 502.363 464.543 501.749 465.281 501.256C466.018 500.519 466.632 499.781 467.124 499.043C469.829 495.355 473.023 491.667 476.71 487.978C478.185 486.257 479.66 484.659 481.134 483.183C482.609 481.463 484.084 479.618 485.558 477.651C486.541 476.42 487.402 475.069 488.139 473.593C488.877 472.118 489.738 470.643 490.72 469.167C491.703 467.692 492.318 466.585 492.564 465.848C494.776 462.404 496.988 458.225 499.2 453.307C499.692 452.077 500.061 451.094 500.306 450.356C500.798 449.619 501.288 448.757 501.781 447.774C502.273 446.544 502.763 445.561 503.255 444.824C503.748 443.841 504.238 442.734 504.73 441.504C506.942 436.095 508.54 431.3 509.523 427.119C510.506 423.185 511.243 419.005 511.735 414.579C512.472 410.152 512.596 405.726 512.104 401.3C511.859 399.825 511.735 398.349 511.735 396.874C511.735 395.153 511.735 393.555 511.735 392.079C512.227 390.111 512.227 388.145 511.735 386.178V378.432C511.735 377.94 511.612 377.449 511.366 376.957C511.366 376.219 511.366 375.481 511.366 374.744C511.366 374.251 511.243 373.761 510.998 373.268C510.998 372.531 510.998 371.916 510.998 371.424C510.998 366.26 510.506 361.711 509.523 357.777C509.031 356.794 508.786 356.056 508.786 355.564C508.54 355.071 508.293 354.457 508.048 353.72C508.048 352.982 507.925 352.368 507.68 351.875C507.434 351.383 507.311 350.892 507.311 350.4C507.311 349.908 507.187 349.417 506.942 348.925C506.942 347.942 506.697 346.712 506.205 345.236C504.73 340.81 503.01 336.384 501.043 331.958C499.323 327.532 497.48 323.229 495.513 319.048C494.283 317.081 493.056 315.115 491.826 313.147C490.597 311.179 489.245 309.213 487.771 307.245C484.576 303.065 481.379 299.869 478.185 297.656C474.253 294.95 470.197 292.492 466.018 290.279C461.839 287.82 457.293 286.098 452.377 285.115C451.394 285.115 450.657 284.991 450.165 284.746C448.198 284.254 446.723 284.008 445.741 284.008C444.511 283.763 443.283 283.763 442.054 284.008C440.824 284.008 439.596 284.132 438.367 284.377C436.4 284.87 434.68 285.115 433.205 285.115C431.731 285.36 430.256 285.607 428.781 285.853C427.306 285.853 425.955 286.098 424.725 286.59C414.895 289.296 407.152 293.722 401.498 299.869C394.125 307.491 389.577 315.236 387.857 323.106C387.12 326.302 386.382 329.5 385.645 332.696C385.153 335.892 384.539 338.966 383.801 341.917C383.556 343.392 383.309 344.867 383.064 346.343C383.064 347.818 382.819 349.293 382.327 350.769C382.082 351.261 381.958 351.875 381.958 352.613C381.958 353.105 381.835 353.596 381.589 354.088C381.589 354.088 381.466 354.334 381.221 354.826C381.221 355.071 381.097 355.319 380.852 355.564C380.852 355.809 380.852 356.056 380.852 356.301C381.097 356.794 381.589 357.163 382.327 357.408C383.309 357.653 384.047 357.9 384.539 358.146C384.784 358.146 385.031 358.269 385.276 358.515C387.488 359.252 389.577 359.621 391.544 359.621H392.281C393.264 359.621 394.001 359.745 394.493 359.99H394.862H395.968H396.337V359.621V359.252C396.582 358.515 396.705 357.777 396.705 357.039C396.951 356.056 397.198 355.195 397.443 354.457C397.935 352.982 398.304 351.507 398.549 350.031C399.041 348.311 399.531 346.712 400.024 345.236C400.269 344.499 400.516 343.761 400.761 343.023C401.006 342.04 401.253 341.055 401.498 340.072C402.728 336.876 403.71 334.047 404.448 331.589C404.693 330.359 405.309 328.762 406.291 326.794L406.66 326.425C406.905 325.933 407.029 325.564 407.029 325.319C407.029 325.073 407.152 324.705 407.397 324.212C407.397 323.229 407.766 322.123 408.503 320.893C408.996 320.4 409.486 319.91 409.978 319.417C410.715 318.925 411.329 318.434 411.822 317.942C412.314 317.697 412.928 317.204 413.665 316.467C413.91 316.221 414.157 316.098 414.402 316.098C414.648 315.852 414.895 315.605 415.14 315.36C415.632 314.622 416.246 314.008 416.983 313.516C417.72 312.778 418.334 312.164 418.827 311.672C420.546 310.441 422.145 309.582 423.619 309.09C425.339 308.597 427.061 308.107 428.781 307.614C429.273 307.369 429.642 307.245 429.887 307.245C430.132 307.245 430.501 307.122 430.993 306.877C435.91 305.401 440.21 305.278 443.897 306.508C444.88 307 446.109 307.738 447.584 308.721C448.076 308.966 448.321 309.213 448.321 309.459C448.566 309.459 448.935 309.582 449.427 309.827C450.165 310.32 451.271 310.81 452.746 311.303C453.238 311.548 453.606 311.795 453.852 312.04C454.344 312.04 454.834 312.164 455.326 312.409C457.293 313.147 459.258 314.13 461.225 315.36C461.717 315.36 462.086 315.484 462.331 315.729C464.543 316.467 466.142 317.573 467.124 319.048C467.862 320.031 468.475 321.63 468.968 323.843V324.212C469.46 326.18 469.705 327.408 469.705 327.901C469.95 328.638 470.074 329.376 470.074 330.114C470.319 330.606 470.566 331.22 470.811 331.958C470.811 332.696 470.935 333.188 471.18 333.433C471.425 334.171 471.548 334.909 471.548 335.646C471.548 336.139 471.672 336.753 471.917 337.491C471.917 337.983 471.917 338.352 471.917 338.597C472.162 338.842 472.041 339.211 471.548 339.704C471.548 339.949 471.425 340.196 471.18 340.441H470.811C470.811 340.687 470.935 340.934 471.18 341.179V342.285C471.18 343.268 470.688 344.499 469.705 345.974C469.705 345.974 469.46 346.466 468.968 347.449C468.475 348.679 467.862 349.908 467.124 351.138C466.632 352.368 466.142 353.474 465.65 354.457C465.404 354.95 465.157 355.44 464.912 355.933C464.667 356.425 464.298 356.916 463.806 357.408C463.069 358.146 462.577 358.76 462.331 359.252C461.839 360.235 461.225 361.22 460.488 362.203C459.751 363.186 458.89 364.171 457.907 365.154C457.415 365.646 457.046 366.137 456.801 366.629C456.556 366.874 456.187 367.243 455.695 367.736C455.203 368.228 454.712 368.597 454.22 368.842C454.22 368.842 453.975 368.966 453.483 369.211C453.238 369.456 453.114 369.703 453.114 369.949V370.686C452.622 371.916 452.132 372.776 451.639 373.268L450.902 373.637C450.165 374.375 449.427 375.481 448.69 376.957V377.694C448.445 378.187 448.321 378.556 448.321 378.801C448.321 379.046 448.076 379.415 447.584 379.907C447.339 380.153 446.847 380.276 446.109 380.276H445.741C445.741 380.521 445.617 380.769 445.372 381.014C445.372 381.259 445.372 381.506 445.372 381.752C445.372 381.997 445.248 382.244 445.003 382.489L443.897 384.702L442.791 385.809C441.808 387.529 440.824 388.636 439.842 389.128C439.349 389.621 438.859 389.99 438.367 390.235C438.122 390.235 437.753 390.359 437.261 390.604C436.031 391.096 435.172 391.587 434.68 392.079C434.188 392.572 433.697 393.309 433.205 394.292C432.713 395.275 432.223 396.013 431.731 396.505C430.501 397.981 429.273 399.456 428.044 400.931C426.814 402.161 425.586 403.39 424.357 404.62L421.776 407.202C421.531 407.694 421.284 408.063 421.039 408.308C420.793 408.308 420.425 408.553 419.933 409.046C418.95 409.538 418.334 410.029 418.089 410.521C417.597 411.014 417.107 411.628 416.614 412.365C416.122 412.858 415.632 413.348 415.14 413.841C415.14 414.086 414.895 414.455 414.402 414.947C413.173 416.668 411.945 418.391 410.715 420.111C409.486 421.832 408.258 423.554 407.029 425.275C406.291 426.013 405.923 426.627 405.923 427.119C405.43 428.102 405.062 428.718 404.817 428.963C404.571 429.209 404.448 429.456 404.448 429.701C404.203 429.701 404.079 429.825 404.079 430.07V430.439C403.834 430.684 403.71 430.931 403.71 431.176C402.481 436.833 400.269 441.628 397.074 445.561C396.582 446.054 396.213 446.668 395.968 447.405C395.968 448.143 395.723 449.004 395.231 449.987L394.125 453.307C393.632 454.29 393.142 455.028 392.65 455.52C392.405 456.258 392.158 456.995 391.913 457.733C391.667 458.225 391.299 458.84 390.806 459.577C390.561 460.07 390.438 460.56 390.438 461.053C390.438 461.298 390.314 461.667 390.069 462.159C390.069 462.652 389.824 463.88 389.332 465.848C388.84 467.078 388.471 468.553 388.226 470.274C387.981 471.749 387.734 473.224 387.488 474.7C387.488 475.437 387.365 476.175 387.12 476.913C387.12 477.651 387.12 478.265 387.12 478.757L386.382 482.077C386.137 484.044 385.89 486.01 385.645 487.978C385.4 489.699 385.153 491.543 384.908 493.511C384.662 494.741 384.415 495.969 384.17 497.199C384.17 498.182 384.17 499.289 384.17 500.519C384.415 501.502 384.415 502.487 384.17 503.469C383.925 504.207 383.678 505.068 383.433 506.051C383.433 506.544 383.309 507.034 383.064 507.527C383.064 508.019 382.941 508.633 382.695 509.371C382.695 509.863 382.695 510.477 382.695 511.215C382.45 511.708 382.327 512.198 382.327 512.691C382.327 512.936 382.203 513.305 381.958 513.797C381.466 516.255 381.097 517.978 380.852 518.961C380.607 519.453 380.483 519.822 380.483 520.067C380.483 520.313 380.36 520.56 380.115 520.805C379.869 521.297 379.746 521.912 379.746 522.649C379.746 523.142 379.622 523.632 379.377 524.125C379.377 525.355 379.254 526.338 379.009 527.075C379.009 527.568 378.763 528.305 378.271 529.288C377.779 530.764 377.534 531.87 377.534 532.608V535.19C377.534 536.665 377.41 537.895 377.165 538.878V541.46V545.149C376.673 546.869 376.183 547.854 375.69 548.099V548.468V548.837H375.322C375.322 549.082 375.077 549.206 374.584 549.206C374.584 548.961 374.461 548.837 374.216 548.837C373.971 548.837 373.724 548.713 373.478 548.468C373.233 548.468 373.11 548.345 373.11 548.099C371.88 547.116 371.39 545.517 371.635 543.304C371.635 542.812 371.635 542.443 371.635 542.198C371.88 541.953 372.004 541.584 372.004 541.091C372.496 539.124 372.741 537.772 372.741 537.034V534.452C372.496 533.469 372.372 532.116 372.372 530.395C373.11 527.444 373.723 524.862 374.216 522.649C374.953 520.191 375.814 517.978 376.796 516.01C377.289 514.289 377.779 512.198 378.271 509.74C378.271 509.247 378.271 508.757 378.271 508.264C378.516 507.527 378.64 506.789 378.64 506.051C378.885 505.559 379.009 505.068 379.009 504.576C379.009 504.084 379.132 503.593 379.377 503.101C379.377 500.888 379.254 499.289 379.009 498.306V496.461C379.009 495.231 379.009 494.248 379.009 493.511C379.254 492.773 379.622 491.912 380.115 490.929C380.36 490.191 380.483 489.085 380.483 487.609V485.765C380.976 484.535 381.589 483.921 382.327 483.921C382.082 483.183 381.958 482.569 381.958 482.077C382.203 481.584 382.327 481.094 382.327 480.601C382.572 480.109 382.695 479.371 382.695 478.388C382.941 478.143 383.064 477.527 383.064 476.544C383.064 474.086 383.188 472.241 383.433 471.011C383.433 470.274 383.678 469.66 384.17 469.167C384.662 468.184 384.908 467.692 384.908 467.692V466.585C384.662 466.093 384.539 465.479 384.539 464.741C384.539 463.758 384.784 462.528 385.276 461.053C385.768 460.07 386.014 459.085 386.014 458.102C386.506 456.872 387.243 455.52 388.226 454.045C388.718 453.062 388.963 452.446 388.963 452.2C389.455 451.463 389.824 450.725 390.069 449.987C390.314 449.25 390.683 448.512 391.175 447.774C391.42 446.299 391.913 444.947 392.65 443.717C393.142 442.734 393.879 441.504 394.862 440.029C395.845 438.799 396.46 437.447 396.705 435.971C397.198 435.234 397.566 434.496 397.812 433.758C398.057 432.775 398.425 431.914 398.918 431.176C399.41 429.701 399.778 428.718 400.024 428.226C400.516 426.996 401.006 426.013 401.498 425.275C401.991 424.537 402.481 423.676 402.973 422.693L404.079 421.587C404.571 421.094 404.817 420.725 404.817 420.48C405.062 419.988 405.309 419.497 405.554 419.005C406.046 418.267 406.66 417.529 407.397 416.792C408.135 415.809 408.749 414.947 409.241 414.21C410.47 412.98 411.576 411.873 412.559 410.89C413.541 409.66 414.526 408.432 415.508 407.202C415.754 406.709 416.369 406.219 417.352 405.726C417.352 405.481 417.352 405.357 417.352 405.357C417.597 405.357 417.72 405.234 417.72 404.989C418.458 404.743 418.95 404.251 419.195 403.513C419.44 403.268 419.564 403.144 419.564 403.144C419.564 402.899 419.687 402.652 419.933 402.407C420.67 401.424 421.531 400.563 422.513 399.825C423.006 399.332 423.374 399.087 423.619 399.087C423.865 398.842 424.112 398.473 424.357 397.981L425.094 396.874C426.077 395.891 426.938 395.03 427.675 394.292C428.412 393.309 429.273 392.324 430.256 391.341L431.731 390.235L436.155 385.809C436.892 385.071 437.506 384.579 437.998 384.333C438.49 383.596 439.104 382.858 439.842 382.12C440.579 381.383 441.193 380.645 441.685 379.907V379.539C441.93 379.293 442.054 379.17 442.054 379.17C442.054 378.924 442.177 378.677 442.422 378.432C442.422 378.432 442.668 378.187 443.16 377.694C443.405 377.694 443.528 377.571 443.528 377.325C443.774 377.08 443.897 376.833 443.897 376.588C444.142 376.588 444.266 376.343 444.266 375.85C444.758 374.62 445.372 373.513 446.109 372.531C447.092 371.3 447.829 370.441 448.321 369.949C448.566 369.949 448.69 369.825 448.69 369.58C448.935 369.58 449.182 369.456 449.427 369.211V368.842L449.796 368.473V367.736C450.041 367.49 450.165 367.243 450.165 366.998C450.165 366.753 450.288 366.506 450.533 366.26C452.008 364.047 453.606 362.448 455.326 361.465C455.819 361.22 456.187 360.851 456.432 360.359V359.99C456.678 359.252 457.293 358.146 458.276 356.67C458.521 356.425 458.645 356.178 458.645 355.933C458.89 355.687 459.137 355.44 459.382 355.195C459.874 354.457 460.364 353.72 460.857 352.982C461.594 352.244 462.086 351.261 462.331 350.031L462.7 349.662C462.7 348.925 463.069 348.187 463.806 347.449C464.298 346.957 464.667 346.466 464.912 345.974C465.157 345.482 465.404 344.991 465.65 344.499C465.65 344.253 465.773 344.006 466.018 343.761C466.51 342.778 466.756 342.04 466.756 341.548C466.756 340.565 466.632 339.827 466.387 339.335V338.228C466.142 337.245 466.018 336.384 466.018 335.646C466.018 334.663 465.895 333.679 465.65 332.696C465.65 330.975 465.526 329.745 465.281 329.007C465.281 327.287 465.036 326.056 464.543 325.319C464.543 325.319 464.42 325.195 464.175 324.95C464.175 324.705 464.051 324.581 463.806 324.581C463.806 324.336 463.806 324.089 463.806 323.843C463.806 323.843 463.806 323.475 463.806 322.737V321.999C463.314 321.261 462.577 320.524 461.594 319.786C461.349 319.786 461.102 319.663 460.857 319.417C459.627 318.925 458.521 318.434 457.538 317.942C456.801 317.449 455.819 316.959 454.589 316.467C453.606 315.974 452.991 315.729 452.746 315.729L450.902 314.622C449.92 314.13 448.935 313.761 447.953 313.516C446.97 313.023 445.986 312.533 445.003 312.04C443.283 311.303 441.93 310.81 440.948 310.565C439.965 310.32 438.736 310.32 437.261 310.565L435.417 310.934C432.96 311.426 430.501 312.04 428.044 312.778C425.832 313.271 423.743 314.377 421.776 316.098C419.072 318.556 416.738 321.016 414.771 323.475C412.804 325.688 411.208 328.024 409.978 330.483C408.996 332.203 408.135 334.54 407.397 337.491C407.397 337.983 407.274 338.352 407.029 338.597C407.029 338.597 407.029 338.842 407.029 339.335C406.536 341.303 406.046 343.147 405.554 344.867C405.062 346.343 404.571 348.063 404.079 350.031C403.834 350.524 403.465 351.507 402.973 352.982C401.991 355.687 401.375 358.146 401.13 360.359V361.096C401.622 362.572 401.498 363.678 400.761 364.416C400.024 365.154 398.794 365.277 397.074 364.785H396.705C395.476 364.785 394.617 364.661 394.125 364.416C391.42 364.416 388.594 364.047 385.645 363.309C385.153 363.064 384.784 362.941 384.539 362.941C384.294 362.941 383.925 362.817 383.433 362.572C381.958 362.079 381.097 361.834 380.852 361.834C380.607 361.589 380.36 361.465 380.115 361.465C379.869 361.711 379.746 362.079 379.746 362.572C379.746 362.817 379.622 363.064 379.377 363.309V363.678L379.009 365.154L378.271 364.047C378.026 363.802 377.903 363.555 377.903 363.309C377.165 363.064 376.796 362.448 376.796 361.465C376.551 360.973 376.428 360.728 376.428 360.728C376.673 360.482 376.796 360.235 376.796 359.99C376.796 359.745 376.92 359.497 377.165 359.252C377.165 358.76 377.042 358.269 376.796 357.777C376.551 357.284 376.304 356.794 376.059 356.301C375.814 356.301 375.69 356.178 375.69 355.933L374.953 354.826H376.059H377.165C377.165 354.581 377.042 354.457 376.796 354.457C376.796 354.212 376.796 353.965 376.796 353.72C376.796 351.999 377.042 349.908 377.534 347.449C378.271 345.729 378.64 343.884 378.64 341.917L379.746 336.384C379.991 335.401 380.238 334.54 380.483 333.802C380.728 332.819 380.976 331.834 381.221 330.851C381.713 329.621 381.958 328.515 381.958 327.532C382.203 326.302 382.572 325.073 383.064 323.843C383.309 323.351 383.433 322.86 383.433 322.368C383.433 321.876 383.556 321.385 383.801 320.893C384.294 319.172 384.662 317.573 384.908 316.098C385.4 314.622 386.014 313.147 386.751 311.672C387.488 310.196 388.349 308.721 389.332 307.245C390.314 305.77 391.42 304.295 392.65 302.819L393.756 301.344C394.986 299.623 396.213 298.148 397.443 296.918C398.918 295.443 400.516 294.091 402.236 292.861C404.203 291.631 405.923 290.524 407.397 289.541C408.872 288.311 410.47 287.204 412.19 286.221L412.928 285.853C414.895 284.87 416.369 284.254 417.352 284.008C418.089 284.008 418.703 283.885 419.195 283.64C420.178 283.64 420.915 283.516 421.407 283.271C421.407 283.271 421.531 283.147 421.776 282.902C422.021 282.902 422.145 282.902 422.145 282.902C422.39 282.657 422.759 282.533 423.251 282.533H424.357H425.094C425.339 282.533 425.463 282.533 425.463 282.533C425.708 282.288 425.955 282.164 426.2 282.164C426.445 281.919 426.814 281.795 427.306 281.795C428.289 281.303 429.273 281.058 430.256 281.058C430.993 281.058 431.731 281.058 432.468 281.058C433.45 280.812 434.311 280.689 435.049 280.689C436.278 280.444 437.384 280.32 438.367 280.32C439.349 280.075 440.455 279.951 441.685 279.951C445.617 279.951 450.165 280.689 455.326 282.164C455.819 282.409 456.187 282.657 456.432 282.902C456.925 282.902 457.415 283.025 457.907 283.271C461.349 284.008 464.543 285.115 467.493 286.59C468.475 287.083 469.336 287.697 470.074 288.435C471.056 288.927 471.917 289.417 472.655 289.91C473.392 290.402 474.006 290.893 474.498 291.385C475.235 291.878 475.973 292.368 476.71 292.861L477.447 293.229C478.922 294.212 480.397 295.197 481.872 296.18C483.592 297.163 485.066 298.27 486.296 299.5C487.033 300.237 487.647 300.975 488.139 301.713C488.877 302.451 489.49 303.065 489.983 303.557L490.351 303.926C490.597 304.171 490.72 304.418 490.72 304.664C490.72 304.664 490.844 304.787 491.089 305.032C492.563 306.263 493.546 307.614 494.038 309.09C494.038 309.335 494.038 309.459 494.038 309.459C494.283 309.459 494.407 309.582 494.407 309.827V310.196C494.407 310.934 494.53 311.426 494.776 311.672L495.513 312.409C496.25 313.147 496.864 313.885 497.356 314.622L498.462 316.835C498.708 317.081 498.831 317.328 498.831 317.573C499.076 317.818 499.323 318.065 499.569 318.311C500.061 319.048 500.551 320.155 501.043 321.63C501.535 322.613 501.904 323.229 502.149 323.475C502.149 323.72 502.394 324.336 502.887 325.319C503.869 326.302 504.361 327.163 504.361 327.901C504.607 328.146 504.73 328.638 504.73 329.376C504.238 329.868 504.238 330.237 504.73 330.483C504.73 330.975 504.975 331.713 505.467 332.696L505.836 333.802C506.819 335.77 507.434 337.367 507.68 338.597C507.925 339.089 508.048 339.58 508.048 340.072C508.293 340.565 508.54 341.055 508.786 341.548L509.892 343.761C509.892 344.253 509.892 344.622 509.892 344.867C510.137 344.867 510.26 345.113 510.26 345.605C510.506 346.343 510.753 347.08 510.998 347.818C511.243 348.311 511.49 348.925 511.735 349.662C511.735 350.892 511.859 351.752 512.104 352.244C512.104 352.737 512.104 353.351 512.104 354.088C512.349 354.581 512.472 355.071 512.472 355.564C513.702 359.99 514.316 364.171 514.316 368.104C514.561 368.842 514.685 369.703 514.685 370.686C514.685 371.424 514.93 372.285 515.422 373.268C515.914 374.498 516.036 375.481 515.791 376.219C515.791 376.711 515.667 377.449 515.422 378.432V379.17C515.422 380.89 515.545 382.12 515.791 382.858V384.702C516.036 385.44 516.159 386.67 516.159 388.391V390.604V393.186V396.874C516.159 397.612 516.283 398.226 516.528 398.718ZM377.534 559.165H377.165C376.92 559.657 376.796 560.885 376.796 562.853V564.697C376.551 565.19 376.428 565.804 376.428 566.541C376.428 567.034 376.304 567.524 376.059 568.017C375.814 569.492 375.567 570.968 375.322 572.443C375.322 573.918 375.322 575.394 375.322 576.869L374.953 577.607V580.926C375.198 581.419 375.69 581.788 376.428 582.033H383.801H388.594H391.175C394.617 582.278 397.811 582.402 400.761 582.402C403.71 582.402 406.783 582.156 409.978 581.664C413.42 581.419 416.738 581.419 419.933 581.664C423.127 581.664 426.445 581.788 429.887 582.033H433.205C437.384 582.278 441.44 582.771 445.372 583.508C449.551 584.246 453.975 585.229 458.645 586.459C459.137 586.459 459.874 586.704 460.857 587.197C461.349 587.442 461.963 587.689 462.7 587.934C463.683 588.18 464.42 588.18 464.912 587.934L465.281 588.303L470.074 571.705C469.582 571.46 468.968 571.336 468.23 571.336C467.738 571.336 467.248 571.213 466.756 570.968C465.526 570.475 464.42 570.106 463.437 569.861C462.455 569.616 461.349 569.369 460.119 569.123C458.152 568.631 456.309 568.386 454.589 568.386C452.869 568.14 451.026 567.893 449.059 567.648H448.321L439.473 566.541C437.016 566.296 434.556 566.173 432.099 566.173C429.887 565.927 427.43 565.558 424.725 565.066C422.759 564.574 420.67 564.328 418.458 564.328C416.246 564.083 414.157 563.714 412.19 563.222C407.274 562.484 402.112 561.747 396.705 561.009C391.544 560.271 386.382 559.657 381.221 559.165L377.534 558.796V559.165Z" fill="white"/>
</g>
</g>
<defs>
<clipPath id="clip0_140_88">
<rect width="883" height="876" fill="white"/>
</clipPath>
</defs>
</svg>
