<svg width="881" height="885" viewBox="0 0 881 885" fill="none" xmlns="http://www.w3.org/2000/svg">
<g clip-path="url(#clip0_140_105)">
<mask id="mask0_140_105" style="mask-type:luminance" maskUnits="userSpaceOnUse" x="0" y="0" width="881" height="885">
<path d="M881 0H0V885H881V0Z" fill="white"/>
</mask>
<g mask="url(#mask0_140_105)">
<path d="M880.84 0H-1.84668V546.392H880.84V0Z" fill="#E61EAA"/>
<path d="M880.84 546.392H-1.84668V885H880.84V546.392Z" fill="#640B49"/>
<path d="M410.875 739.159C410.013 737.955 409.754 736.406 410.1 734.513C410.445 732.619 410.788 731.071 411.134 729.867C411.134 729.522 411.221 729.264 411.392 729.092C411.564 728.748 411.479 728.489 411.134 728.318C410.962 728.146 410.53 728.06 409.841 728.06C409.152 727.715 408.72 727.372 408.548 727.027C408.031 726.166 407.772 725.134 407.772 723.93C407.944 722.553 408.031 721.435 408.031 720.574C408.031 719.713 407.944 719.025 407.772 718.509C407.601 717.821 407.427 717.132 407.255 716.444C407.083 715.756 406.997 715.154 406.997 714.637C406.997 713.95 406.91 713.175 406.738 712.314C406.738 711.798 406.651 711.282 406.48 710.765C406.308 710.249 406.134 709.733 405.962 709.217C405.791 708.529 405.704 707.926 405.704 707.41C405.876 706.722 405.962 706.033 405.962 705.345C406.134 703.796 406.134 702.334 405.962 700.957C405.962 699.579 406.134 698.117 406.48 696.569C406.825 695.02 406.997 693.558 406.997 692.18C407.168 690.632 407.342 689.083 407.514 687.534C407.514 686.673 407.514 685.899 407.514 685.211C407.514 684.523 407.601 683.749 407.772 682.888C407.772 682.027 408.203 681.339 409.065 680.823C409.754 680.651 410.445 680.565 411.134 680.565C411.823 680.565 412.427 680.565 412.944 680.565C413.806 680.393 414.582 680.307 415.271 680.307C416.134 680.307 416.994 680.22 417.857 680.049C420.788 679.704 423.632 679.446 426.39 679.274C429.321 679.103 432.25 678.758 435.181 678.242C438.112 677.725 441.042 677.296 443.973 676.951C447.076 676.606 450.092 676.263 453.023 675.919C454.403 675.747 455.867 675.574 457.419 675.402C458.97 675.231 460.435 675.058 461.814 674.886C463.194 674.715 464.572 674.628 465.952 674.628C467.503 674.628 468.883 674.37 470.089 673.854C471.295 673.337 472.503 672.821 473.709 672.305C474.915 671.789 476.123 671.186 477.329 670.498C479.743 668.949 481.553 667.056 482.759 664.819C483.621 663.615 484.31 662.496 484.828 661.464C485.345 660.26 485.862 658.969 486.379 657.592C487.068 656.388 487.155 655.44 486.638 654.752C486.292 654.236 485.775 653.72 485.086 653.204C484.569 652.687 484.052 652.258 483.535 651.913C482.5 651.052 481.379 650.364 480.173 649.848C478.967 649.16 477.674 648.557 476.295 648.041C474.915 647.525 473.537 647.095 472.157 646.75C470.778 646.234 469.4 645.805 468.02 645.46C466.641 645.115 465.263 644.857 463.883 644.685C462.503 644.514 461.126 644.514 459.746 644.685C458.366 644.857 456.988 644.857 455.609 644.685C454.229 644.341 452.851 644.169 451.471 644.169H442.421C440.87 644.341 439.318 644.514 437.767 644.685C436.216 644.857 434.751 645.03 433.371 645.202C430.44 645.546 427.424 646.063 424.321 646.75C421.39 647.267 418.461 647.696 415.53 648.041C414.15 648.386 412.685 648.644 411.134 648.815C409.582 648.987 408.031 649.245 406.48 649.59C405.617 649.761 404.411 650.019 402.859 650.364C401.48 650.536 400.361 650.364 399.498 649.848C398.464 649.332 398.033 648.471 398.205 647.267C398.377 645.889 398.377 644.772 398.205 643.911C398.033 643.223 397.775 642.707 397.429 642.362C397.258 641.846 397.084 641.33 396.912 640.814C396.567 639.093 396.395 637.803 396.395 636.942C395.706 633.673 395.619 630.833 396.137 628.424C396.137 627.736 396.223 627.133 396.395 626.617C396.567 625.929 396.74 625.239 396.912 624.552C397.084 624.38 397.171 624.207 397.171 624.035C396.999 623.864 396.912 623.691 396.912 623.519C396.912 623.174 396.912 622.916 396.912 622.745C397.084 622.573 397.171 622.315 397.171 621.97C397.343 621.283 397.343 620.68 397.171 620.164C396.999 619.647 396.912 619.131 396.912 618.615C397.258 617.927 397.688 617.669 398.205 617.84C398.722 617.84 399.239 617.84 399.757 617.84H408.548C409.928 617.669 411.306 617.669 412.685 617.84C414.065 617.84 415.443 617.84 416.822 617.84C417.511 617.669 418.115 617.669 418.633 617.84C419.321 617.84 420.097 617.754 420.96 617.582C421.649 617.582 422.253 617.496 422.77 617.324C423.459 617.153 424.149 616.979 424.838 616.808C426.39 616.636 427.941 616.636 429.493 616.808C431.044 616.979 432.596 617.066 434.147 617.066C435.527 616.895 436.991 616.808 438.543 616.808C440.094 616.636 441.646 616.55 443.197 616.55C446.128 616.55 449.057 616.463 451.989 616.292C455.091 616.12 458.108 616.12 461.039 616.292C462.418 616.292 463.796 616.463 465.176 616.808C466.556 616.979 467.933 617.066 469.313 617.066C471.036 617.066 472.329 617.153 473.192 617.324C474.054 617.496 474.743 617.669 475.26 617.84C475.949 618.012 476.725 618.185 477.587 618.357C480.519 618.873 483.448 619.218 486.379 619.389C489.482 619.561 492.498 619.905 495.429 620.422C496.809 620.766 498.102 621.196 499.308 621.712C500.687 622.057 502.065 622.487 503.445 623.003C506.202 623.864 508.703 624.723 510.944 625.584C511.461 625.929 511.978 626.187 512.495 626.359C513.012 626.53 513.442 626.788 513.788 627.133C514.305 627.478 514.735 627.907 515.081 628.424C515.598 628.768 516.115 629.111 516.632 629.456C517.321 629.801 517.925 630.144 518.442 630.489C518.959 630.66 519.39 631.005 519.735 631.521C521.115 632.898 521.975 634.016 522.321 634.877C522.838 636.081 523.183 637.371 523.355 638.749C523.7 639.953 523.959 641.158 524.131 642.362C524.303 643.223 524.476 643.998 524.648 644.685C524.82 645.373 524.993 646.063 525.165 646.75C525.511 647.438 525.769 648.041 525.941 648.557C526.286 649.074 526.545 649.676 526.717 650.364V653.978C526.545 655.527 526.545 656.989 526.717 658.366C526.717 659.227 526.63 660.001 526.458 660.689C526.458 661.205 526.371 661.808 526.199 662.496C526.028 663.357 525.854 664.216 525.682 665.077C525.682 665.938 525.596 666.798 525.424 667.659C525.078 669.036 524.735 670.411 524.389 671.789C524.044 673.166 523.7 674.541 523.355 675.919C523.183 676.606 523.01 677.296 522.838 677.984C522.838 678.671 522.666 679.361 522.321 680.049C521.975 680.736 521.545 681.426 521.028 682.114C520.511 682.63 520.08 683.233 519.735 683.92C518.184 686.33 516.632 688.653 515.081 690.89C513.701 692.955 511.806 694.762 509.392 696.31C508.186 697.171 507.065 698.031 506.031 698.892C504.996 699.579 503.79 700.269 502.411 700.957C501.031 701.301 500.083 701.731 499.566 702.247C498.877 702.592 498.36 702.85 498.015 703.022C497.669 703.193 497.152 703.451 496.463 703.796C493.532 704.657 490.603 705.345 487.672 705.861C484.914 706.377 482.07 706.894 479.139 707.41C476.208 707.926 473.192 708.271 470.089 708.442C467.158 708.614 464.228 708.442 461.297 707.926C458.366 707.581 455.437 707.152 452.506 706.635C449.575 705.948 446.645 705.258 443.714 704.57C440.783 703.883 437.854 703.193 434.923 702.505C432.165 701.818 429.321 700.957 426.39 699.924C423.459 698.547 420.788 697.601 418.374 697.085C416.651 696.74 415.271 696.569 414.237 696.569C413.891 696.569 413.289 696.569 412.427 696.569C411.738 696.397 411.221 696.482 410.875 696.827C410.53 697.171 410.445 697.688 410.617 698.375C410.788 699.063 410.962 699.579 411.134 699.924C411.306 700.612 411.392 701.301 411.392 701.989C411.564 702.677 411.738 703.366 411.91 704.054C412.255 704.742 412.514 705.431 412.685 706.119C412.857 706.635 413.031 707.323 413.202 708.184C413.374 708.872 413.461 709.561 413.461 710.249C413.461 710.765 413.633 711.368 413.978 712.056C414.324 713.433 414.667 714.895 415.012 716.444C415.358 717.821 415.53 719.284 415.53 720.832C415.53 722.381 415.443 723.585 415.271 724.446C415.271 725.823 415.701 726.511 416.564 726.511C417.944 726.683 419.408 726.769 420.96 726.769C422.511 726.598 423.976 726.424 425.355 726.253C426.735 726.253 428.028 726.253 429.234 726.253C430.614 726.253 431.992 726.166 433.371 725.995C434.06 725.995 434.664 726.081 435.181 726.253C435.87 726.253 436.561 726.253 437.25 726.253C438.112 726.253 438.801 726.166 439.318 725.995C439.836 725.823 440.525 725.823 441.387 725.995C444.145 726.511 447.076 726.769 450.179 726.769C450.868 726.941 451.471 726.941 451.989 726.769C452.506 726.598 453.11 726.424 453.799 726.253C454.661 726.253 455.35 726.34 455.867 726.511C456.556 726.683 457.332 726.856 458.194 727.027C459.574 727.199 460.952 727.285 462.332 727.285C463.883 727.285 465.348 727.457 466.727 727.802C469.485 727.973 472.244 728.663 475.002 729.867C475.691 730.211 476.295 730.554 476.812 730.899C477.329 731.071 477.933 731.244 478.622 731.415C479.139 731.587 479.569 731.76 479.915 731.932C480.26 731.932 480.519 732.276 480.69 732.964C481.379 732.619 481.896 732.535 482.242 732.706C482.414 732.878 482.5 733.051 482.5 733.222C482.672 733.394 482.846 733.567 483.018 733.739C483.363 733.91 483.621 733.997 483.793 733.997C483.965 733.997 484.224 734.083 484.569 734.255C484.914 734.426 485.086 734.6 485.086 734.771C485.258 734.771 485.516 734.858 485.862 735.029C486.207 735.374 486.551 735.717 486.896 736.062C487.242 736.406 487.585 736.749 487.93 737.094C488.276 737.266 488.534 737.439 488.706 737.61C488.878 737.782 489.136 737.955 489.482 738.127C490.171 738.471 490.344 738.901 489.999 739.417C490.344 739.762 490.688 739.934 491.033 739.934C491.379 739.762 491.722 739.847 492.068 740.192C492.413 740.536 492.757 740.966 493.102 741.482C493.619 741.999 494.049 742.428 494.395 742.773C495.257 743.634 495.946 744.58 496.463 745.612C496.981 746.473 497.585 747.419 498.273 748.452C499.308 750.345 500.514 752.152 501.893 753.872C503.273 755.421 504.392 757.141 505.255 759.035C505.6 759.896 505.772 760.584 505.772 761.1C505.772 761.616 506.031 762.219 506.548 762.907C507.065 763.078 507.324 763.251 507.324 763.423L508.099 764.972C508.445 765.316 508.703 765.746 508.875 766.262C509.22 766.607 509.564 766.95 509.909 767.295C510.426 768.327 510.685 769.446 510.685 770.65C510.857 771.683 511.115 772.715 511.461 773.748C511.633 774.093 511.806 774.522 511.978 775.039C512.15 775.383 512.236 775.813 512.236 776.329C512.236 777.017 512.15 777.62 511.978 778.136C511.978 778.652 511.978 779.34 511.978 780.201C512.15 780.889 512.15 781.75 511.978 782.782C511.978 783.815 512.15 784.676 512.495 785.364C512.84 785.708 513.012 785.793 513.012 785.622C513.012 785.45 513.099 785.622 513.271 786.138V787.945C513.271 789.494 513.099 790.613 512.754 791.3C512.065 793.71 511.374 796.118 510.685 798.528C509.996 800.764 509.305 803.088 508.616 805.497C508.445 806.014 508.358 806.616 508.358 807.304C508.358 807.82 508.271 808.337 508.099 808.853C507.927 809.369 507.754 809.799 507.582 810.144C507.41 810.488 507.324 810.918 507.324 811.434C507.152 812.811 506.806 813.929 506.289 814.79C505.772 815.651 505.168 816.683 504.479 817.887C503.79 818.748 503.1 819.694 502.411 820.727C501.722 821.759 501.031 822.705 500.342 823.566C499.479 824.427 498.704 825.286 498.015 826.147C497.326 827.18 496.463 827.954 495.429 828.47C494.395 828.987 493.274 829.331 492.068 829.503C490.862 829.848 489.74 830.191 488.706 830.535C487.327 830.88 485.862 831.223 484.31 831.568C482.931 831.913 481.553 832.256 480.173 832.6C475.002 833.978 469.83 834.752 464.659 834.924C459.315 835.268 453.885 835.526 448.369 835.698C443.025 835.869 437.68 835.698 432.337 835.182C429.579 834.837 426.907 834.407 424.321 833.891C421.735 833.375 419.063 832.945 416.305 832.6C413.72 832.256 411.134 831.826 408.548 831.31C406.134 830.965 403.635 830.622 401.049 830.277C400.187 830.106 399.153 830.019 397.947 830.019C396.912 830.019 396.137 829.674 395.619 828.987C394.93 828.126 394.672 827.093 394.844 825.889C395.189 824.685 395.189 823.566 394.844 822.534C394.498 821.33 394.413 820.21 394.585 819.178C394.757 817.974 394.844 816.768 394.844 815.564C394.844 814.36 394.757 813.154 394.585 811.95C394.585 810.746 394.672 809.627 394.844 808.595C395.015 807.734 395.102 806.788 395.102 805.755C394.93 805.239 394.93 804.723 395.102 804.207C395.274 803.69 395.361 803.174 395.361 802.658C395.533 800.077 395.533 797.495 395.361 794.914C395.361 793.194 395.619 791.387 396.137 789.494C396.482 788.29 396.482 787.17 396.137 786.138C395.965 785.105 396.05 783.986 396.395 782.782C396.74 781.578 396.999 780.546 397.171 779.685C397.516 778.652 397.688 777.533 397.688 776.329C397.688 775.984 397.688 775.555 397.688 775.039C397.688 774.351 397.86 773.835 398.205 773.49C398.551 773.145 398.894 773.06 399.239 773.232C399.757 773.403 400.102 773.661 400.274 774.006C400.619 774.351 400.704 774.867 400.532 775.555C400.361 776.243 400.274 776.845 400.274 777.362C400.102 778.049 400.015 778.739 400.015 779.427C400.015 779.943 399.928 780.546 399.757 781.234C399.585 782.611 399.411 783.901 399.239 785.105C399.239 786.309 399.239 787.6 399.239 788.977C399.239 790.181 399.153 791.387 398.981 792.591C398.981 793.624 398.981 794.743 398.981 795.947C398.809 797.324 398.722 798.699 398.722 800.077C398.722 801.454 398.635 802.829 398.464 804.207C398.292 806.788 398.118 809.456 397.947 812.209C397.947 814.79 398.033 817.371 398.205 819.952C398.205 820.64 398.205 821.243 398.205 821.759C398.377 822.447 398.464 823.221 398.464 824.082C398.464 824.427 398.464 824.943 398.464 825.631C398.464 826.492 398.635 827.093 398.981 827.438C399.326 827.783 400.102 827.954 401.308 827.954C402.171 828.126 402.859 828.212 403.377 828.212C404.066 828.212 404.841 828.299 405.704 828.47C406.91 828.815 408.031 829.073 409.065 829.245C410.271 829.59 411.479 829.933 412.685 830.277C414.065 830.622 415.358 830.794 416.564 830.794C417.77 830.794 419.063 830.965 420.443 831.31C423.2 831.826 425.873 832.256 428.458 832.6C431.044 833.117 433.717 833.546 436.474 833.891C438.888 834.236 441.387 834.236 443.973 833.891C445.352 833.72 446.73 833.633 448.11 833.633C449.661 833.804 451.213 833.891 452.764 833.891C453.97 833.891 455.178 833.804 456.384 833.633C457.59 833.633 458.883 833.633 460.263 833.633C461.643 833.633 462.936 833.633 464.142 833.633C465.348 833.633 466.641 833.546 468.02 833.375C469.226 833.203 470.347 832.859 471.382 832.342C472.588 831.826 473.709 831.568 474.743 831.568C475.26 831.568 475.691 831.655 476.036 831.826C476.553 831.998 476.984 832.084 477.329 832.084C478.535 831.913 479.743 831.481 480.949 830.794C481.466 830.622 481.896 830.449 482.242 830.277C482.759 830.277 483.276 830.277 483.793 830.277C484.139 830.277 484.482 830.191 484.828 830.019C484.828 830.019 485.086 829.761 485.603 829.245C485.949 829.073 486.379 829.073 486.896 829.245C487.585 829.416 488.102 829.503 488.448 829.503C488.965 829.331 489.482 829.158 489.999 828.987C490.688 828.987 491.292 828.815 491.809 828.47C492.843 827.954 493.706 827.266 494.395 826.405C495.084 825.544 495.859 824.685 496.722 823.824C497.585 822.792 498.36 821.759 499.049 820.727C499.912 819.866 500.772 818.92 501.635 817.887C502.324 816.683 503.015 815.135 503.703 813.241C504.049 812.725 504.221 812.209 504.221 811.692C504.221 811.176 504.307 810.66 504.479 810.144C504.651 809.456 504.825 808.853 504.996 808.337C505.342 807.82 505.685 807.218 506.031 806.53C506.202 806.014 506.289 805.584 506.289 805.239C506.289 804.723 506.376 804.293 506.548 803.949C506.548 803.261 506.635 802.658 506.806 802.142C506.978 801.625 507.237 801.022 507.582 800.335C507.927 799.131 508.186 798.012 508.358 796.979C508.703 795.775 509.047 794.485 509.392 793.107C509.909 790.698 510.081 788.203 509.909 785.622C509.909 783.04 509.737 780.546 509.392 778.136C509.22 777.104 509.047 775.9 508.875 774.522C508.703 773.145 508.445 771.941 508.099 770.909C507.754 770.392 507.41 769.963 507.065 769.618C506.893 769.102 506.635 768.585 506.289 768.069C505.6 766.349 505.083 765.143 504.738 764.455C502.324 759.464 499.653 754.733 496.722 750.259C496.205 749.398 495.601 748.452 494.912 747.419C494.395 746.387 493.706 745.441 492.843 744.58C491.981 743.547 491.033 742.601 489.999 741.74C488.965 740.879 488.017 739.934 487.155 738.901C486.292 738.213 485.431 737.524 484.569 736.836C483.88 735.975 483.018 735.374 481.983 735.029C480.949 734.684 479.915 734.255 478.88 733.739C477.846 733.051 476.812 732.535 475.777 732.19C473.363 731.157 470.865 730.47 468.279 730.125C465.693 729.609 463.194 729.179 460.78 728.834C458.366 728.489 455.867 728.318 453.281 728.318C450.696 728.318 448.11 728.146 445.524 727.802C444.145 727.802 442.852 727.802 441.646 727.802C440.44 727.63 439.232 727.544 438.026 727.544C436.646 727.715 435.268 727.802 433.888 727.802C432.509 727.802 431.131 727.802 429.751 727.802C427.165 727.973 424.58 728.06 421.994 728.06C419.58 727.888 417.081 727.973 414.495 728.318C414.841 729.179 414.926 729.953 414.754 730.641C414.754 731.329 414.667 732.103 414.495 732.964C414.15 733.825 413.978 734.684 413.978 735.545C413.978 736.233 413.891 737.008 413.72 737.869C413.72 739.417 413.72 741.053 413.72 742.773C413.72 744.493 413.289 746.042 412.427 747.419C413.289 747.419 414.582 747.248 416.305 746.903C417.168 746.731 417.944 746.645 418.633 746.645C419.495 746.645 420.356 746.645 421.218 746.645C422.941 746.645 424.667 746.645 426.39 746.645C428.113 746.473 429.838 746.558 431.561 746.903C433.284 747.074 434.923 747.419 436.474 747.935C438.026 748.28 439.664 748.71 441.387 749.226C442.938 749.571 444.49 749.914 446.041 750.259C447.593 750.43 449.144 750.775 450.696 751.291C457.073 752.84 463.194 755.508 469.055 759.293C470.434 760.154 471.727 761.013 472.933 761.874C474.139 762.735 475.347 763.768 476.553 764.972C477.587 766.176 478.276 767.466 478.622 768.844C478.967 770.048 479.311 771.425 479.656 772.974C480.345 775.9 480.69 779.169 480.69 782.782C480.69 784.503 480.69 786.138 480.69 787.687C480.69 789.064 480.345 790.526 479.656 792.075C478.794 794.485 477.329 796.376 475.26 797.754C474.054 798.615 472.761 799.389 471.382 800.077C470.002 800.764 468.624 801.539 467.244 802.4C466.727 802.745 466.297 803.174 465.952 803.69C465.606 804.207 465.089 804.636 464.4 804.981C463.711 805.326 463.107 805.755 462.59 806.272C462.073 806.616 461.469 806.959 460.78 807.304C458.194 808.681 455.005 809.541 451.213 809.885C450.35 810.057 449.575 810.144 448.886 810.144C448.197 810.144 447.421 810.144 446.559 810.144C445.696 810.315 444.835 810.488 443.973 810.66C443.11 810.831 442.25 810.918 441.387 810.918C440.353 810.918 438.973 810.573 437.25 809.885C436.387 809.541 435.44 809.369 434.406 809.369C433.543 809.198 432.682 809.024 431.82 808.853C430.957 808.681 430.182 808.595 429.493 808.595C428.804 808.423 428.028 808.165 427.165 807.82C426.303 807.476 425.527 807.133 424.838 806.788C424.321 806.443 423.717 806.1 423.028 805.755C421.649 804.894 420.184 804.378 418.633 804.207C417.081 803.862 415.53 803.519 413.978 803.174C413.116 803.003 412.255 802.916 411.392 802.916C410.704 802.745 409.928 802.571 409.065 802.4C408.203 802.055 407.342 801.97 406.48 802.142C405.791 802.142 405.015 802.055 404.152 801.884C403.463 801.539 402.859 801.367 402.342 801.367C401.997 801.196 401.738 801.196 401.567 801.367C401.395 801.367 401.136 801.281 400.791 801.109C400.274 800.938 400.015 800.506 400.015 799.819C400.015 799.474 400.532 799.302 401.567 799.302C403.118 799.131 404.669 799.302 406.221 799.819C407.772 800.163 409.411 800.335 411.134 800.335C412.168 800.335 413.548 800.68 415.271 801.367C416.134 801.712 416.909 801.97 417.598 802.142C418.461 802.313 419.321 802.486 420.184 802.658C421.564 802.829 422.857 803.174 424.063 803.69C425.442 804.207 426.735 804.81 427.941 805.497C428.63 805.842 429.234 806.1 429.751 806.272C430.44 806.443 431.216 806.616 432.078 806.788L434.406 807.562C435.094 807.907 435.612 808.079 435.957 808.079C436.302 808.25 436.561 808.25 436.733 808.079C437.078 807.907 437.422 807.907 437.767 808.079C438.112 808.079 438.371 808.165 438.543 808.337C438.888 808.337 439.232 808.337 439.577 808.337C440.44 808.508 441.215 808.508 441.904 808.337C442.767 808.165 443.627 808.079 444.49 808.079C446.041 807.907 447.593 807.82 449.144 807.82C450.867 807.649 452.593 807.391 454.316 807.046C457.59 806.53 460.435 805.239 462.849 803.174C465.434 800.938 468.192 799.131 471.123 797.754C472.329 797.066 473.363 796.463 474.226 795.947C475.089 795.259 475.864 794.311 476.553 793.107C477.242 791.73 477.587 790.268 477.587 788.719C477.759 786.999 477.846 785.364 477.846 783.815V779.427C477.674 778.566 477.416 777.791 477.07 777.104C476.899 776.243 476.725 775.383 476.553 774.522C476.381 773.835 476.295 773.232 476.295 772.715C476.466 772.028 476.553 771.338 476.553 770.65C476.381 769.789 475.691 768.757 474.485 767.553C473.796 767.037 472.933 766.091 471.899 764.714C471.553 764.026 471.123 763.681 470.606 763.681C470.261 763.51 469.658 763.251 468.796 762.907C468.107 762.562 467.503 762.132 466.986 761.616C466.469 761.1 465.865 760.67 465.176 760.325L461.297 758.002C458.366 756.625 455.35 755.25 452.247 753.872C450.696 753.356 449.144 752.926 447.593 752.582C446.041 752.237 444.49 751.894 442.939 751.549C441.215 751.204 439.577 750.861 438.026 750.517C436.474 750 434.836 749.571 433.113 749.226C432.25 749.055 431.474 748.968 430.786 748.968C430.268 748.796 429.579 748.71 428.717 748.71C428.028 748.881 427.337 748.968 426.648 748.968C425.959 748.796 425.184 748.796 424.321 748.968C423.459 748.968 422.683 749.055 421.994 749.226C421.305 749.226 420.529 749.226 419.667 749.226C418.804 749.397 417.944 749.484 417.081 749.484C416.392 749.313 415.616 749.313 414.754 749.484C413.72 749.829 412.685 750.087 411.651 750.259C410.617 750.259 409.928 749.571 409.582 748.194C409.582 747.332 409.582 746.558 409.582 745.87C409.754 745.183 409.928 744.408 410.1 743.547C410.1 742.686 410.1 741.912 410.1 741.224C410.271 740.536 410.53 739.847 410.875 739.159ZM410.358 694.504C411.564 694.675 412.685 694.762 413.72 694.762C414.754 694.59 415.875 694.504 417.081 694.504C418.287 694.504 419.408 694.675 420.443 695.02C421.649 695.365 422.857 695.707 424.063 696.052C424.925 696.397 425.786 696.827 426.648 697.343C427.511 697.859 428.372 698.204 429.234 698.375C430.44 698.547 431.474 698.805 432.337 699.15C433.371 699.495 434.406 699.838 435.44 700.182C437.854 701.043 440.266 701.731 442.68 702.247C445.094 702.764 447.593 703.28 450.179 703.796C452.593 704.141 454.92 704.57 457.16 705.087C459.4 705.603 461.728 705.861 464.142 705.861C466.556 705.861 468.968 705.861 471.382 705.861C473.796 705.69 476.208 705.516 478.622 705.345C479.828 705.345 480.949 705.258 481.983 705.087C483.018 704.742 484.139 704.399 485.345 704.054C486.379 703.709 487.413 703.538 488.448 703.538C489.654 703.366 490.775 703.108 491.809 702.764C492.672 702.419 493.447 702.076 494.136 701.731C494.999 701.386 495.859 701.043 496.722 700.699C497.756 700.182 498.791 699.753 499.825 699.408C500.859 698.892 501.893 698.289 502.928 697.601C504.479 696.74 506.117 695.449 507.841 693.729C508.703 693.041 509.479 692.439 510.168 691.922C510.857 691.235 511.633 690.46 512.495 689.599C513.184 688.738 513.788 687.879 514.305 687.018C514.822 685.985 515.426 685.04 516.115 684.179C516.632 683.146 517.236 682.114 517.925 681.081C518.614 679.877 519.131 678.758 519.477 677.725C519.822 676.693 519.994 675.66 519.994 674.628C520.165 673.595 520.424 672.563 520.769 671.53C521.115 670.153 521.458 669.121 521.804 668.433C521.975 667.917 522.062 667.487 522.062 667.142C522.062 666.626 522.149 666.11 522.321 665.594C522.321 664.39 522.493 663.27 522.838 662.238C523.183 661.034 523.355 659.828 523.355 658.624C523.7 656.043 523.614 653.548 523.097 651.139C522.925 649.935 522.751 648.815 522.579 647.783C522.408 646.579 522.149 645.373 521.804 644.169C521.458 642.792 521.115 641.501 520.769 640.297C520.598 639.093 520.252 637.888 519.735 636.684C518.873 634.619 517.58 632.898 515.856 631.521C514.305 630.144 512.582 629.026 510.685 628.165C506.031 625.756 501.463 624.035 496.981 623.003C494.567 622.487 492.154 622.057 489.74 621.712C487.326 621.368 484.914 621.025 482.5 620.68C481.294 620.335 480.086 620.164 478.88 620.164C477.846 620.164 476.64 620.164 475.26 620.164C474.054 619.992 472.846 619.819 471.64 619.647C470.434 619.476 469.226 619.302 468.02 619.131C462.503 618.615 456.902 618.443 451.213 618.615C445.696 618.786 440.181 619.044 434.664 619.389C431.733 619.389 428.804 619.389 425.873 619.389C423.115 619.389 420.271 619.561 417.34 619.905C415.96 619.905 414.582 619.905 413.202 619.905C411.823 619.734 410.445 619.647 409.065 619.647C407.686 619.819 406.308 619.905 404.928 619.905C403.548 619.905 402.171 619.905 400.791 619.905C400.791 621.799 400.619 623.691 400.274 625.584C399.928 627.304 399.843 629.111 400.015 631.005C400.187 632.898 400.361 634.79 400.532 636.684C400.704 638.404 400.963 640.211 401.308 642.104C401.48 642.792 401.567 643.824 401.567 645.202C401.567 645.546 401.567 645.889 401.567 646.234C401.567 646.579 401.653 646.837 401.825 647.009C402.171 647.525 402.859 647.696 403.894 647.525C404.928 647.18 405.704 647.009 406.221 647.009C408.118 646.664 410.1 646.406 412.168 646.234C414.237 646.063 416.219 645.805 418.115 645.46C420.012 645.115 421.907 644.685 423.804 644.169C425.701 643.653 427.596 643.308 429.493 643.137C431.389 642.965 433.284 642.792 435.181 642.62C437.078 642.449 438.973 642.276 440.87 642.104H446.817C447.68 642.104 448.627 642.018 449.661 641.846C450.696 641.675 451.73 641.675 452.764 641.846C454.661 642.191 456.556 642.362 458.453 642.362C460.35 642.362 462.245 642.534 464.142 642.879C467.762 643.223 471.382 643.998 475.002 645.202C476.725 645.889 478.363 646.492 479.915 647.009C481.466 647.525 483.018 648.213 484.569 649.074C485.775 649.935 486.983 650.88 488.189 651.913C488.534 652.258 488.965 652.774 489.482 653.462C490.171 653.978 490.603 654.581 490.775 655.269C490.947 655.613 490.947 655.956 490.775 656.301C490.603 656.472 490.429 656.731 490.258 657.075C490.086 657.42 489.999 657.763 489.999 658.108C489.999 658.279 489.912 658.537 489.74 658.882C489.395 660.26 488.619 661.808 487.413 663.529C486.551 665.077 485.69 666.539 484.828 667.917C483.965 669.121 482.672 670.153 480.949 671.014C480.26 671.359 479.656 671.789 479.139 672.305C478.794 672.65 478.191 672.993 477.329 673.337C476.295 673.682 475.26 674.112 474.226 674.628C473.363 674.973 472.416 675.316 471.382 675.66L469.055 676.435C468.709 676.606 468.279 676.693 467.762 676.693C467.416 676.521 467.073 676.435 466.727 676.435C465.693 676.263 464.659 676.348 463.624 676.693C462.762 676.864 461.814 677.038 460.78 677.209C458.883 677.381 456.988 677.639 455.091 677.984C453.368 678.155 451.558 678.328 449.661 678.5C447.247 678.845 444.92 679.103 442.68 679.274C440.611 679.446 438.456 679.619 436.216 679.79C435.009 679.962 433.888 680.135 432.854 680.307C431.82 680.307 430.699 680.478 429.493 680.823C427.424 681.339 425.527 681.597 423.804 681.597C421.564 681.597 419.408 681.855 417.34 682.372C416.822 682.372 416.305 682.458 415.788 682.63C415.271 682.63 414.754 682.63 414.237 682.63C413.891 682.63 413.461 682.63 412.944 682.63C412.598 682.458 412.255 682.543 411.91 682.888C411.392 683.404 411.047 684.35 410.875 685.727C410.875 686.931 410.875 687.879 410.875 688.567C410.704 689.599 410.53 690.632 410.358 691.664C410.358 692.697 410.358 693.643 410.358 694.504ZM411.392 725.479C411.392 725.307 411.392 724.617 411.392 723.414C411.564 722.036 411.564 720.746 411.392 719.542C411.392 718.164 411.306 716.96 411.134 715.928C410.962 714.895 410.788 714.379 410.617 714.379C410.617 714.379 410.617 714.895 410.617 715.928C410.617 716.96 410.704 718.164 410.875 719.542C411.047 720.919 411.134 722.21 411.134 723.414C411.306 724.617 411.392 725.307 411.392 725.479Z" fill="white"/>
<path d="M498.606 225.601C498.999 226.584 498.999 227.666 498.606 228.846C498.408 229.634 498.31 230.814 498.31 232.386V233.271C498.31 234.649 498.213 235.631 498.015 236.221C498.015 236.614 497.917 236.909 497.719 237.106C497.719 237.304 497.719 237.599 497.719 237.991V240.056C497.719 241.236 497.622 242.121 497.424 242.711C497.424 243.694 497.226 244.974 496.833 246.546L496.537 247.726V248.021V248.316V248.906C496.537 249.694 496.44 250.184 496.242 250.381C496.242 250.579 496.144 250.774 495.946 250.971C495.946 250.971 495.946 251.069 495.946 251.266V251.856C495.553 252.644 495.257 253.429 495.06 254.216C494.862 254.806 494.666 255.594 494.469 256.576C493.878 258.149 493.189 259.724 492.4 261.296C491.612 262.674 490.825 264.149 490.036 265.721C490.036 265.919 489.938 266.016 489.741 266.016C489.741 266.016 489.741 266.114 489.741 266.311C488.952 267.491 488.559 268.376 488.559 268.966C488.361 269.754 488.165 270.441 487.968 271.031C487.77 271.621 487.474 272.309 487.081 273.096C487.081 273.489 486.883 273.884 486.49 274.276C486.097 275.456 485.801 276.244 485.603 276.636L484.717 277.521C484.717 277.719 484.519 278.014 484.126 278.406C484.126 278.604 484.028 278.799 483.83 278.996C483.83 278.996 483.83 279.194 483.83 279.586C483.633 279.784 483.535 279.979 483.535 280.176C483.535 280.374 483.437 280.569 483.239 280.766C482.255 282.536 481.368 284.011 480.58 285.191L480.284 285.486C479.891 286.274 479.496 286.864 479.102 287.256C478.904 287.454 478.709 287.551 478.511 287.551C478.511 287.551 478.413 287.649 478.216 287.846L477.92 288.141V288.436C477.722 288.829 477.625 289.224 477.625 289.616C477.427 290.009 477.231 290.304 477.034 290.501C476.836 290.501 476.64 290.599 476.442 290.796L475.851 291.386C475.458 291.779 475.163 292.074 474.965 292.271C474.965 292.469 474.767 292.764 474.374 293.156C473.98 293.944 473.585 294.434 473.192 294.631C472.798 295.221 472.403 295.811 472.01 296.401C471.616 296.794 471.221 297.286 470.828 297.876C469.055 300.039 467.184 302.104 465.213 304.071C463.44 306.039 461.569 308.104 459.598 310.266C457.628 312.234 455.757 314.299 453.983 316.461C452.21 318.624 450.437 320.789 448.664 322.951C448.073 323.541 447.187 324.624 446.005 326.196C437.73 336.619 427.19 344.781 414.385 350.681H414.089C412.514 351.469 411.232 352.059 410.247 352.451C410.05 352.451 409.854 352.549 409.656 352.746C409.459 352.746 409.263 352.746 409.065 352.746C408.672 352.944 408.376 353.041 408.179 353.041C407.981 353.041 407.686 353.139 407.292 353.336C408.277 353.534 409.163 353.729 409.952 353.926C410.936 353.926 411.923 354.024 412.907 354.221C415.074 354.614 417.242 355.009 419.408 355.401C421.772 355.599 424.039 355.894 426.205 356.286C427.585 356.484 428.865 356.679 430.047 356.876C431.427 356.876 432.804 356.876 434.184 356.876C436.351 357.074 438.419 357.269 440.39 357.466C442.556 357.466 444.725 357.664 446.891 358.056C448.664 358.449 450.339 358.844 451.915 359.236C453.688 359.434 455.263 359.729 456.643 360.121C457.036 360.319 457.628 360.416 458.416 360.416C459.796 360.809 461.174 361.301 462.553 361.891C464.129 362.284 465.115 363.071 465.508 364.251C465.902 364.841 465.902 365.529 465.508 366.316C465.311 367.104 465.015 367.791 464.622 368.381V368.971C463.833 370.349 463.242 371.724 462.849 373.101V374.576L461.962 377.231V377.526C461.371 378.509 461.371 379.199 461.962 379.591L462.553 380.181L461.962 380.476C461.569 380.674 461.076 380.869 460.485 381.066C460.091 381.264 459.696 381.361 459.303 381.361C458.909 381.361 458.514 381.264 458.121 381.066L457.234 380.181C457.234 379.984 457.136 379.886 456.939 379.886C456.939 379.689 456.445 379.394 455.461 379.001H455.166C454.377 378.804 453.59 378.609 452.801 378.411C452.21 378.411 451.422 378.214 450.437 377.821C449.453 377.624 448.369 377.429 447.187 377.231C446.005 377.034 444.823 376.739 443.64 376.346C441.67 375.756 439.799 375.364 438.026 375.166C436.253 375.166 434.282 375.069 432.115 374.871C431.131 374.871 430.244 374.871 429.456 374.871C428.667 374.871 427.781 374.774 426.796 374.576C425.812 374.576 424.728 374.576 423.546 374.576C422.364 374.576 421.279 374.479 420.295 374.281C418.324 374.281 416.355 374.281 414.385 374.281C412.612 374.479 410.741 374.576 408.77 374.576C406.603 374.774 404.337 374.871 401.973 374.871C399.609 375.069 397.343 375.069 395.176 374.871C394.192 374.871 393.206 374.774 392.221 374.576C391.237 374.576 390.25 374.576 389.266 374.576H387.493C385.326 374.576 383.849 374.479 383.06 374.281C382.076 373.889 381.485 373.396 381.287 372.806C381.287 372.216 381.385 371.724 381.583 371.331C381.583 370.741 381.583 370.151 381.583 369.561C381.78 368.971 381.878 368.381 381.878 367.791V365.726C382.076 364.744 382.174 363.859 382.174 363.071C382.371 362.089 382.567 361.104 382.765 360.121L383.651 353.926V353.336C383.651 352.944 383.651 352.451 383.651 351.861C383.849 351.271 384.144 350.779 384.538 350.386C385.129 350.189 386.213 350.289 387.788 350.681H388.97C389.955 350.879 391.432 350.976 393.403 350.976C394.585 351.174 395.767 351.271 396.949 351.271C398.329 351.271 399.609 351.271 400.791 351.271C402.957 351.074 404.928 350.681 406.701 350.091C408.474 349.501 410.15 348.814 411.725 348.026C413.3 347.239 414.878 346.454 416.453 345.666C418.029 344.879 419.704 343.896 421.477 342.716L424.137 340.946C426.303 339.964 428.471 338.489 430.638 336.521C435.76 331.999 440.981 326.689 446.3 320.591C446.891 319.804 447.482 319.019 448.073 318.231C448.664 317.444 449.255 316.659 449.846 315.871L452.506 312.331C453.49 311.151 454.574 310.069 455.757 309.086C456.348 308.496 456.939 308.004 457.53 307.611C458.121 307.021 458.614 306.431 459.007 305.841C461.174 302.891 463.735 299.941 466.691 296.991C467.873 295.614 469.055 294.336 470.237 293.156C471.419 291.779 472.601 290.304 473.783 288.731C474.572 287.749 475.26 286.666 475.851 285.486C476.443 284.306 477.131 283.126 477.92 281.946C478.709 280.766 479.2 279.881 479.398 279.291C481.171 276.539 482.944 273.194 484.717 269.261C485.11 268.279 485.406 267.491 485.603 266.901C485.997 266.311 486.392 265.624 486.785 264.836C487.179 263.854 487.574 263.066 487.968 262.476C488.361 261.689 488.756 260.804 489.15 259.821C490.923 255.494 492.203 251.659 492.991 248.316C493.78 245.169 494.371 241.826 494.764 238.286C495.355 234.746 495.453 231.206 495.06 227.666C494.862 226.486 494.764 225.306 494.764 224.126C494.764 222.749 494.764 221.471 494.764 220.291C495.158 218.719 495.158 217.144 494.764 215.571V209.376C494.764 208.984 494.666 208.589 494.469 208.196C494.469 207.606 494.469 207.016 494.469 206.426C494.469 206.034 494.371 205.639 494.173 205.246C494.173 204.656 494.173 204.164 494.173 203.771C494.173 199.641 493.78 196.004 492.991 192.856C492.598 192.069 492.4 191.479 492.4 191.086C492.203 190.694 492.007 190.201 491.809 189.611C491.809 189.021 491.711 188.529 491.514 188.136C491.316 187.744 491.218 187.349 491.218 186.956C491.218 186.564 491.12 186.169 490.923 185.776C490.923 184.989 490.725 184.006 490.332 182.826C489.15 179.286 487.77 175.746 486.194 172.206C484.815 168.666 483.337 165.225 481.762 161.881C480.777 160.308 479.791 158.735 478.807 157.161C477.822 155.588 476.738 154.015 475.556 152.441C472.994 149.098 470.434 146.541 467.873 144.771C464.72 142.608 461.469 140.641 458.121 138.871C454.772 136.905 451.126 135.528 447.187 134.741C446.398 134.741 445.807 134.643 445.414 134.446C443.838 134.053 442.656 133.856 441.867 133.856C440.883 133.66 439.897 133.66 438.912 133.856C437.928 133.856 436.942 133.955 435.957 134.151C434.382 134.545 433.002 134.741 431.82 134.741C430.638 134.938 429.456 135.135 428.274 135.331C427.092 135.331 426.008 135.528 425.023 135.921C417.142 138.085 410.936 141.625 406.406 146.541C400.495 152.638 396.851 158.833 395.472 165.126C394.881 167.683 394.29 170.24 393.699 172.796C393.305 175.353 392.812 177.811 392.221 180.171C392.023 181.351 391.828 182.531 391.63 183.711C391.63 184.891 391.432 186.071 391.039 187.251C390.841 187.644 390.744 188.136 390.744 188.726C390.744 189.119 390.646 189.514 390.448 189.906C390.448 189.906 390.35 190.104 390.153 190.496C390.153 190.694 390.055 190.889 389.857 191.086C389.857 191.284 389.857 191.479 389.857 191.676C390.055 192.069 390.448 192.364 391.039 192.561C391.828 192.759 392.419 192.954 392.812 193.151C393.01 193.151 393.206 193.249 393.403 193.446C395.176 194.036 396.851 194.331 398.427 194.331H399.018C399.807 194.331 400.398 194.429 400.791 194.626H401.087H401.973H402.269V194.331V194.036C402.466 193.446 402.564 192.856 402.564 192.266C402.762 191.479 402.957 190.791 403.155 190.201C403.549 189.021 403.844 187.841 404.042 186.661C404.435 185.284 404.83 184.006 405.224 182.826C405.421 182.236 405.617 181.646 405.815 181.056C406.012 180.27 406.208 179.483 406.406 178.696C407.39 176.14 408.179 173.878 408.77 171.911C408.968 170.928 409.459 169.65 410.247 168.076L410.543 167.781C410.741 167.388 410.838 167.093 410.838 166.896C410.838 166.7 410.936 166.405 411.134 166.011C411.134 165.225 411.429 164.34 412.021 163.356C412.414 162.963 412.809 162.57 413.203 162.176C413.794 161.783 414.287 161.39 414.68 160.996C415.074 160.8 415.567 160.406 416.158 159.816C416.355 159.62 416.551 159.521 416.749 159.521C416.946 159.325 417.142 159.128 417.34 158.931C417.733 158.341 418.226 157.85 418.817 157.456C419.408 156.866 419.901 156.375 420.295 155.981C421.675 154.998 422.955 154.31 424.137 153.916C425.516 153.523 426.894 153.13 428.274 152.736C428.667 152.54 428.963 152.441 429.16 152.441C429.358 152.441 429.653 152.343 430.047 152.146C433.986 150.966 437.435 150.868 440.39 151.851C441.178 152.245 442.163 152.835 443.345 153.621C443.738 153.818 443.936 154.015 443.936 154.211C444.134 154.211 444.429 154.31 444.823 154.506C445.414 154.9 446.3 155.293 447.482 155.686C447.876 155.883 448.171 156.08 448.369 156.276C448.762 156.276 449.157 156.375 449.551 156.571C451.126 157.161 452.704 157.948 454.279 158.931C454.672 158.931 454.968 159.03 455.166 159.226C456.939 159.816 458.219 160.701 459.007 161.881C459.598 162.668 460.091 163.946 460.485 165.716V166.011C460.878 167.585 461.076 168.568 461.076 168.961C461.273 169.551 461.371 170.141 461.371 170.731C461.569 171.125 461.765 171.616 461.962 172.206C461.962 172.796 462.06 173.19 462.258 173.386C462.455 173.976 462.553 174.566 462.553 175.156C462.553 175.55 462.651 176.041 462.849 176.631C462.849 177.025 462.849 177.32 462.849 177.516C463.047 177.713 462.947 178.008 462.553 178.401C462.553 178.598 462.455 178.795 462.258 178.991H461.962C461.962 179.188 462.06 179.385 462.258 179.581V180.466C462.258 181.253 461.864 182.236 461.076 183.416C461.076 183.416 460.878 183.81 460.485 184.596C460.091 185.579 459.598 186.564 459.007 187.546C458.614 188.529 458.219 189.414 457.825 190.201C457.628 190.594 457.432 190.989 457.234 191.381C457.036 191.774 456.741 192.169 456.348 192.561C455.757 193.151 455.363 193.644 455.166 194.036C454.772 194.824 454.279 195.609 453.688 196.396C453.097 197.184 452.408 197.969 451.619 198.756C451.226 199.149 450.93 199.544 450.733 199.936C450.535 200.134 450.24 200.429 449.846 200.821C449.453 201.214 449.058 201.509 448.664 201.706C448.664 201.706 448.467 201.804 448.073 202.001C447.876 202.199 447.778 202.394 447.778 202.591V203.181C447.384 204.164 446.989 204.854 446.596 205.246L446.005 205.541C445.414 206.131 444.823 207.016 444.232 208.196V208.786C444.034 209.179 443.936 209.474 443.936 209.671C443.936 209.869 443.738 210.164 443.345 210.556C443.147 210.754 442.754 210.851 442.163 210.851H441.867C441.867 211.049 441.77 211.244 441.572 211.441C441.572 211.639 441.572 211.834 441.572 212.031C441.572 212.229 441.474 212.424 441.276 212.621L440.39 214.391L439.503 215.276C438.715 216.654 437.928 217.539 437.139 217.931C436.746 218.324 436.351 218.619 435.957 218.816C435.759 218.816 435.464 218.914 435.071 219.111C434.086 219.504 433.395 219.899 433.002 220.291C432.609 220.684 432.213 221.274 431.82 222.061C431.427 222.849 431.031 223.439 430.638 223.831C429.653 225.011 428.667 226.191 427.683 227.371C426.698 228.354 425.712 229.339 424.728 230.321L422.659 232.386C422.461 232.779 422.266 233.074 422.068 233.271C421.87 233.271 421.575 233.469 421.181 233.861C420.393 234.254 419.902 234.649 419.704 235.041C419.31 235.434 418.915 235.926 418.522 236.516C418.128 236.909 417.733 237.304 417.34 237.696C417.34 237.894 417.142 238.189 416.749 238.581C415.764 239.959 414.778 241.334 413.794 242.711C412.809 244.089 411.823 245.464 410.838 246.841C410.247 247.431 409.952 247.924 409.952 248.316C409.559 249.104 409.263 249.594 409.065 249.791C408.868 249.989 408.77 250.184 408.77 250.381C408.572 250.381 408.474 250.479 408.474 250.676V250.971C408.277 251.169 408.179 251.364 408.179 251.561C407.194 256.084 405.421 259.919 402.86 263.066C402.466 263.459 402.171 263.951 401.973 264.541C401.973 265.131 401.775 265.819 401.382 266.606L400.495 269.261C400.102 270.049 399.707 270.639 399.313 271.031C399.116 271.621 398.92 272.211 398.722 272.801C398.525 273.194 398.229 273.686 397.836 274.276C397.638 274.669 397.54 275.064 397.54 275.456C397.54 275.654 397.442 275.949 397.245 276.341C397.245 276.734 397.047 277.719 396.654 279.291C396.26 280.274 395.965 281.454 395.767 282.831C395.57 284.011 395.374 285.191 395.176 286.371C395.176 286.961 395.078 287.551 394.881 288.141C394.881 288.731 394.881 289.224 394.881 289.616L394.29 292.271C394.092 293.844 393.896 295.419 393.699 296.991C393.501 298.369 393.305 299.844 393.108 301.416C392.91 302.399 392.714 303.384 392.517 304.366C392.517 305.154 392.517 306.039 392.517 307.021C392.714 307.809 392.714 308.594 392.517 309.381C392.319 309.971 392.123 310.659 391.926 311.446C391.926 311.839 391.828 312.234 391.63 312.626C391.63 313.019 391.532 313.511 391.335 314.101C391.335 314.494 391.335 314.986 391.335 315.576C391.137 315.969 391.039 316.364 391.039 316.756C391.039 316.954 390.941 317.249 390.744 317.641C390.35 319.609 390.055 320.984 389.857 321.771C389.659 322.164 389.561 322.459 389.561 322.656C389.561 322.854 389.464 323.049 389.266 323.246C389.068 323.639 388.97 324.131 388.97 324.721C388.97 325.114 388.873 325.509 388.675 325.901C388.675 326.884 388.577 327.671 388.379 328.261C388.379 328.654 388.182 329.244 387.788 330.031C387.395 331.211 387.197 332.096 387.197 332.686V334.751C387.197 335.931 387.099 336.914 386.902 337.701V339.766V342.716C386.508 344.094 386.113 344.879 385.72 345.076V345.371V345.666H385.424C385.424 345.864 385.227 345.961 384.833 345.961C384.833 345.764 384.735 345.666 384.538 345.666C384.34 345.666 384.144 345.569 383.947 345.371C383.749 345.371 383.651 345.274 383.651 345.076C382.667 344.289 382.272 343.011 382.469 341.241C382.469 340.849 382.469 340.554 382.469 340.356C382.667 340.159 382.765 339.864 382.765 339.471C383.158 337.899 383.356 336.816 383.356 336.226V334.161C383.158 333.374 383.06 332.294 383.06 330.916C383.651 328.556 384.144 326.491 384.538 324.721C385.129 322.754 385.818 320.984 386.606 319.411C387 318.034 387.395 316.364 387.788 314.396C387.788 314.004 387.788 313.609 387.788 313.216C387.986 312.626 388.084 312.036 388.084 311.446C388.282 311.054 388.379 310.659 388.379 310.266C388.379 309.874 388.477 309.479 388.675 309.086C388.675 307.316 388.577 306.039 388.379 305.251V303.776C388.379 302.794 388.379 302.006 388.379 301.416C388.577 300.826 388.873 300.139 389.266 299.351C389.464 298.761 389.561 297.876 389.561 296.696V295.221C389.955 294.239 390.448 293.746 391.039 293.746C390.841 293.156 390.744 292.664 390.744 292.271C390.941 291.879 391.039 291.484 391.039 291.091C391.237 290.699 391.335 290.109 391.335 289.321C391.532 289.124 391.63 288.634 391.63 287.846C391.63 285.879 391.728 284.404 391.926 283.421C391.926 282.831 392.123 282.339 392.517 281.946C392.91 281.159 393.108 280.766 393.108 280.766V279.881C392.91 279.489 392.812 278.996 392.812 278.406C392.812 277.619 393.01 276.636 393.403 275.456C393.797 274.669 393.994 273.884 393.994 273.096C394.388 272.114 394.979 271.031 395.767 269.851C396.161 269.064 396.358 268.574 396.358 268.376C396.752 267.786 397.047 267.196 397.245 266.606C397.442 266.016 397.738 265.426 398.131 264.836C398.329 263.656 398.722 262.574 399.313 261.591C399.707 260.804 400.298 259.821 401.087 258.641C401.875 257.659 402.366 256.576 402.564 255.396C402.958 254.806 403.253 254.216 403.451 253.626C403.648 252.839 403.944 252.151 404.337 251.561C404.731 250.381 405.026 249.594 405.224 249.201C405.617 248.219 406.012 247.431 406.406 246.841C406.799 246.251 407.194 245.564 407.588 244.776L408.474 243.891C408.868 243.499 409.065 243.204 409.065 243.006C409.263 242.614 409.459 242.219 409.656 241.826C410.05 241.236 410.543 240.646 411.134 240.056C411.725 239.269 412.218 238.581 412.612 237.991C413.596 237.009 414.483 236.124 415.271 235.336C416.06 234.354 416.847 233.369 417.635 232.386C417.833 231.994 418.324 231.599 419.113 231.206C419.113 231.009 419.113 230.911 419.113 230.911C419.31 230.911 419.408 230.814 419.408 230.616C419.999 230.419 420.393 230.026 420.59 229.436C420.788 229.239 420.886 229.141 420.886 229.141C420.886 228.944 420.984 228.749 421.181 228.551C421.772 227.764 422.461 227.076 423.25 226.486C423.643 226.094 423.939 225.896 424.137 225.896C424.334 225.699 424.53 225.404 424.728 225.011L425.319 224.126C426.107 223.339 426.796 222.651 427.387 222.061C427.978 221.274 428.667 220.489 429.456 219.701L430.638 218.816L434.184 215.276C434.775 214.686 435.268 214.294 435.662 214.096C436.055 213.506 436.548 212.916 437.139 212.326C437.73 211.736 438.223 211.146 438.617 210.556V210.261C438.814 210.064 438.912 209.966 438.912 209.966C438.912 209.769 439.01 209.574 439.208 209.376C439.208 209.376 439.405 209.179 439.799 208.786C439.996 208.786 440.094 208.689 440.094 208.491C440.292 208.294 440.39 208.099 440.39 207.901C440.587 207.901 440.685 207.704 440.685 207.311C441.079 206.329 441.572 205.444 442.163 204.656C442.952 203.674 443.543 202.984 443.936 202.591C444.134 202.591 444.232 202.494 444.232 202.296C444.429 202.296 444.625 202.199 444.823 202.001V201.706L445.118 201.411V200.821C445.316 200.624 445.414 200.429 445.414 200.231C445.414 200.034 445.511 199.839 445.709 199.641C446.891 197.871 448.171 196.594 449.551 195.806C449.944 195.609 450.24 195.314 450.437 194.921V194.626C450.635 194.036 451.126 193.151 451.915 191.971C452.112 191.774 452.21 191.579 452.21 191.381C452.408 191.184 452.604 190.989 452.801 190.791C453.195 190.201 453.59 189.611 453.983 189.021C454.574 188.431 454.968 187.644 455.166 186.661L455.461 186.366C455.461 185.776 455.757 185.186 456.348 184.596C456.741 184.203 457.036 183.81 457.234 183.416C457.432 183.023 457.628 182.63 457.825 182.236C457.825 182.04 457.923 181.843 458.121 181.646C458.514 180.86 458.712 180.27 458.712 179.876C458.712 179.09 458.614 178.5 458.416 178.106V177.221C458.219 176.435 458.121 175.746 458.121 175.156C458.121 174.37 458.023 173.583 457.825 172.796C457.825 171.42 457.727 170.436 457.53 169.846C457.53 168.47 457.332 167.486 456.939 166.896C456.939 166.896 456.841 166.798 456.643 166.601C456.643 166.405 456.545 166.306 456.348 166.306C456.348 166.11 456.348 165.913 456.348 165.716C456.348 165.716 456.348 165.421 456.348 164.831V164.241C455.954 163.651 455.363 163.061 454.574 162.471C454.377 162.471 454.181 162.373 453.983 162.176C452.999 161.783 452.112 161.39 451.324 160.996C450.733 160.603 449.944 160.21 448.96 159.816C448.171 159.423 447.68 159.226 447.482 159.226L446.005 158.341C445.216 157.948 444.429 157.653 443.64 157.456C442.852 157.063 442.065 156.67 441.276 156.276C439.897 155.686 438.814 155.293 438.026 155.096C437.237 154.9 436.253 154.9 435.071 155.096L433.593 155.391C431.622 155.785 429.653 156.276 427.683 156.866C425.91 157.26 424.234 158.145 422.659 159.521C420.493 161.488 418.62 163.455 417.044 165.421C415.469 167.191 414.187 169.06 413.203 171.026C412.414 172.403 411.725 174.271 411.134 176.631C411.134 177.025 411.036 177.32 410.838 177.516C410.838 177.516 410.838 177.713 410.838 178.106C410.445 179.68 410.05 181.155 409.656 182.531C409.263 183.711 408.868 185.089 408.474 186.661C408.277 187.054 407.981 187.841 407.588 189.021C406.799 191.184 406.308 193.151 406.11 194.921V195.511C406.504 196.691 406.406 197.576 405.815 198.166C405.224 198.756 404.239 198.854 402.86 198.461H402.564C401.58 198.461 400.889 198.364 400.495 198.166C398.329 198.166 396.063 197.871 393.699 197.281C393.305 197.084 393.01 196.986 392.812 196.986C392.614 196.986 392.319 196.889 391.926 196.691C390.744 196.299 390.055 196.101 389.857 196.101C389.659 195.904 389.464 195.806 389.266 195.806C389.068 196.004 388.97 196.299 388.97 196.691C388.97 196.889 388.873 197.084 388.675 197.281V197.576L388.379 198.756L387.788 197.871C387.591 197.674 387.493 197.479 387.493 197.281C386.902 197.084 386.606 196.594 386.606 195.806C386.409 195.414 386.311 195.216 386.311 195.216C386.508 195.019 386.606 194.824 386.606 194.626C386.606 194.429 386.704 194.234 386.902 194.036C386.902 193.644 386.804 193.249 386.606 192.856C386.409 192.464 386.213 192.069 386.015 191.676C385.818 191.676 385.72 191.579 385.72 191.381L385.129 190.496H386.015H386.902C386.902 190.299 386.804 190.201 386.606 190.201C386.606 190.004 386.606 189.809 386.606 189.611C386.606 188.234 386.804 186.564 387.197 184.596C387.788 183.22 388.084 181.745 388.084 180.171L388.97 175.746C389.168 174.96 389.364 174.271 389.561 173.681C389.759 172.895 389.955 172.108 390.153 171.321C390.546 170.338 390.744 169.453 390.744 168.666C390.941 167.683 391.237 166.7 391.63 165.716C391.828 165.323 391.926 164.93 391.926 164.536C391.926 164.143 392.023 163.75 392.221 163.356C392.615 161.98 392.91 160.701 393.108 159.521C393.501 158.341 393.994 157.161 394.585 155.981C395.176 154.801 395.865 153.621 396.654 152.441C397.442 151.261 398.329 150.081 399.313 148.901L400.2 147.721C401.184 146.345 402.171 145.165 403.155 144.181C404.337 143.001 405.617 141.92 406.997 140.936C408.572 139.953 409.952 139.068 411.134 138.281C412.316 137.298 413.596 136.413 414.976 135.626L415.567 135.331C417.142 134.545 418.324 134.053 419.113 133.856C419.704 133.856 420.197 133.758 420.59 133.561C421.379 133.561 421.97 133.463 422.363 133.266C422.363 133.266 422.461 133.168 422.659 132.971C422.857 132.971 422.955 132.971 422.955 132.971C423.152 132.775 423.448 132.676 423.841 132.676H424.728H425.319C425.516 132.676 425.614 132.676 425.614 132.676C425.812 132.48 426.008 132.381 426.205 132.381C426.403 132.185 426.698 132.086 427.092 132.086C427.88 131.693 428.667 131.496 429.456 131.496C430.047 131.496 430.638 131.496 431.229 131.496C432.018 131.3 432.706 131.201 433.298 131.201C434.282 131.005 435.168 130.906 435.957 130.906C436.746 130.71 437.632 130.611 438.617 130.611C441.77 130.611 445.414 131.201 449.551 132.381C449.944 132.578 450.24 132.775 450.437 132.971C450.831 132.971 451.226 133.07 451.619 133.266C454.377 133.856 456.939 134.741 459.303 135.921C460.091 136.315 460.78 136.806 461.371 137.396C462.16 137.79 462.849 138.183 463.44 138.576C464.031 138.97 464.524 139.363 464.917 139.756C465.508 140.15 466.1 140.543 466.691 140.936L467.282 141.231C468.464 142.018 469.646 142.805 470.828 143.591C472.207 144.378 473.389 145.263 474.374 146.246C474.965 146.836 475.458 147.426 475.851 148.016C476.443 148.606 476.936 149.098 477.329 149.491L477.625 149.786C477.822 149.983 477.92 150.18 477.92 150.376C477.92 150.376 478.018 150.475 478.216 150.671C479.398 151.655 480.186 152.736 480.58 153.916C480.58 154.113 480.58 154.211 480.58 154.211C480.777 154.211 480.875 154.31 480.875 154.506V154.801C480.875 155.391 480.973 155.785 481.171 155.981L481.762 156.571C482.353 157.161 482.846 157.751 483.239 158.341L484.126 160.111C484.323 160.308 484.421 160.505 484.421 160.701C484.619 160.898 484.815 161.095 485.012 161.291C485.406 161.881 485.801 162.766 486.194 163.946C486.588 164.733 486.883 165.225 487.081 165.421C487.081 165.618 487.279 166.11 487.672 166.896C488.461 167.683 488.854 168.371 488.854 168.961C489.052 169.158 489.15 169.551 489.15 170.141C488.756 170.535 488.756 170.83 489.15 171.026C489.15 171.42 489.347 172.01 489.741 172.796L490.036 173.681C490.825 175.255 491.316 176.533 491.514 177.516C491.711 177.91 491.809 178.303 491.809 178.696C492.007 179.09 492.203 179.483 492.4 179.876L493.287 181.646C493.287 182.04 493.287 182.335 493.287 182.531C493.484 182.531 493.582 182.728 493.582 183.121C493.78 183.711 493.976 184.301 494.173 184.891C494.371 185.284 494.567 185.776 494.764 186.366C494.764 187.349 494.862 188.039 495.06 188.431C495.06 188.824 495.06 189.316 495.06 189.906C495.257 190.299 495.355 190.694 495.355 191.086C496.34 194.626 496.833 197.969 496.833 201.116C497.031 201.706 497.128 202.394 497.128 203.181C497.128 203.771 497.326 204.459 497.719 205.246C498.113 206.229 498.213 207.016 498.015 207.606C498.015 207.999 497.917 208.589 497.719 209.376V209.966C497.719 211.344 497.817 212.326 498.015 212.916V214.391C498.213 214.981 498.31 215.964 498.31 217.341V219.111V221.176V224.126C498.31 224.716 498.408 225.209 498.606 225.601ZM387.197 353.926H386.902C386.704 354.319 386.606 355.304 386.606 356.876V358.351C386.409 358.744 386.311 359.236 386.311 359.826C386.311 360.219 386.213 360.614 386.015 361.006C385.818 362.186 385.622 363.366 385.424 364.546C385.424 365.726 385.424 366.906 385.424 368.086L385.129 368.676V371.331C385.326 371.724 385.72 372.019 386.311 372.216H392.221H396.063H398.131C400.889 372.414 403.451 372.511 405.815 372.511C408.179 372.511 410.641 372.314 413.203 371.921C415.96 371.724 418.62 371.724 421.181 371.921C423.743 371.921 426.403 372.019 429.16 372.216H431.82C435.168 372.414 438.419 372.806 441.572 373.396C444.92 373.986 448.467 374.774 452.21 375.756C452.604 375.756 453.195 375.954 453.983 376.346C454.377 376.544 454.87 376.739 455.461 376.936C456.25 377.134 456.841 377.134 457.234 376.936L457.53 377.231L461.371 363.956C460.978 363.759 460.485 363.661 459.894 363.661C459.5 363.661 459.105 363.564 458.712 363.366C457.727 362.974 456.841 362.679 456.052 362.481C455.263 362.284 454.377 362.089 453.392 361.891C451.817 361.499 450.339 361.301 448.96 361.301C447.58 361.104 446.102 360.909 444.527 360.711H443.936L436.844 359.826C434.873 359.629 432.904 359.531 430.933 359.531C429.16 359.334 427.19 359.039 425.023 358.646C423.448 358.254 421.772 358.056 419.999 358.056C418.226 357.859 416.551 357.564 414.976 357.171C411.036 356.581 406.899 355.991 402.564 355.401C398.427 354.811 394.29 354.319 390.153 353.926L387.197 353.631V353.926Z" fill="white"/>
</g>
</g>
<defs>
<clipPath id="clip0_140_105">
<rect width="881" height="885" fill="white"/>
</clipPath>
</defs>
</svg>
