<svg width="886" height="886" viewBox="0 0 886 886" fill="none" xmlns="http://www.w3.org/2000/svg">
<g clip-path="url(#clip0_173_311)">
<rect width="886" height="886" fill="white"/>
<rect width="886" height="886" fill="#E61EAA"/>
<rect y="323" width="886" height="563" fill="#640B49"/>
<path d="M486.874 136.242C487.169 136.98 487.169 137.791 486.874 138.676C486.726 139.266 486.652 140.151 486.652 141.331V141.995C486.652 143.027 486.579 143.765 486.431 144.207C486.431 144.502 486.357 144.724 486.21 144.871C486.21 145.019 486.21 145.24 486.21 145.535V147.084C486.21 147.969 486.136 148.633 485.988 149.075C485.988 149.813 485.841 150.771 485.546 151.951L485.324 152.836V153.057V153.279V153.721C485.324 154.311 485.251 154.68 485.103 154.827C485.103 154.975 485.029 155.122 484.882 155.27C484.882 155.27 484.882 155.344 484.882 155.491V155.934C484.587 156.524 484.365 157.114 484.218 157.704C484.07 158.146 483.923 158.736 483.775 159.474C483.332 160.654 482.816 161.834 482.226 163.014C481.635 164.046 481.045 165.152 480.455 166.332C480.455 166.48 480.381 166.554 480.233 166.554C480.233 166.554 480.233 166.628 480.233 166.775C479.643 167.66 479.348 168.324 479.348 168.766C479.201 169.356 479.053 169.872 478.905 170.315C478.758 170.757 478.536 171.274 478.241 171.864C478.241 172.159 478.094 172.454 477.799 172.749C477.503 173.634 477.282 174.224 477.135 174.519L476.471 175.182C476.471 175.33 476.323 175.551 476.028 175.846C476.028 175.994 475.954 176.141 475.807 176.289C475.807 176.289 475.807 176.436 475.807 176.731C475.659 176.879 475.585 177.026 475.585 177.174C475.585 177.321 475.511 177.469 475.364 177.616C474.626 178.944 473.962 180.05 473.372 180.935L473.15 181.156C472.855 181.746 472.56 182.189 472.265 182.484C472.117 182.631 471.97 182.705 471.822 182.705C471.822 182.705 471.749 182.779 471.601 182.926L471.38 183.148V183.369C471.232 183.664 471.158 183.959 471.158 184.254C471.011 184.549 470.863 184.77 470.716 184.917C470.568 184.917 470.42 184.991 470.273 185.139L469.83 185.581C469.535 185.876 469.314 186.097 469.166 186.245C469.166 186.392 469.019 186.614 468.724 186.909C468.428 187.499 468.133 187.868 467.838 188.015C467.543 188.458 467.248 188.9 466.953 189.343C466.658 189.638 466.363 190.006 466.067 190.449C464.739 192.071 463.337 193.62 461.862 195.095C460.534 196.57 459.132 198.119 457.656 199.741C456.181 201.216 454.779 202.765 453.451 204.388C452.123 206.01 450.795 207.633 449.467 209.255C449.024 209.698 448.36 210.509 447.474 211.689C441.277 219.506 433.382 225.628 423.791 230.053H423.569C422.389 230.643 421.43 231.085 420.692 231.38C420.544 231.38 420.397 231.454 420.249 231.601C420.102 231.601 419.954 231.601 419.806 231.601C419.511 231.749 419.29 231.822 419.142 231.822C418.995 231.822 418.773 231.896 418.478 232.044C419.216 232.191 419.88 232.339 420.47 232.486C421.208 232.486 421.946 232.56 422.684 232.707C424.307 233.002 425.93 233.298 427.553 233.593C429.324 233.74 431.021 233.961 432.644 234.256C433.677 234.404 434.636 234.551 435.522 234.699C436.555 234.699 437.588 234.699 438.621 234.699C440.244 234.846 441.793 234.994 443.269 235.141C444.892 235.141 446.515 235.289 448.138 235.584C449.467 235.879 450.721 236.174 451.901 236.469C453.229 236.616 454.41 236.838 455.443 237.133C455.738 237.28 456.181 237.354 456.771 237.354C457.804 237.649 458.837 238.018 459.87 238.46C461.05 238.755 461.788 239.345 462.083 240.23C462.378 240.672 462.378 241.189 462.083 241.779C461.936 242.369 461.714 242.885 461.419 243.328V243.77C460.829 244.802 460.386 245.835 460.091 246.867V247.974L459.427 249.965V250.186C458.984 250.924 458.984 251.44 459.427 251.735L459.87 252.177L459.427 252.399C459.132 252.546 458.763 252.694 458.32 252.841C458.025 252.989 457.73 253.062 457.435 253.062C457.14 253.062 456.845 252.989 456.55 252.841L455.886 252.177C455.886 252.03 455.812 251.956 455.664 251.956C455.664 251.809 455.295 251.587 454.557 251.292H454.336C453.746 251.145 453.156 250.997 452.565 250.85C452.123 250.85 451.532 250.702 450.795 250.407C450.057 250.26 449.245 250.112 448.36 249.965C447.474 249.817 446.589 249.596 445.704 249.301C444.228 248.859 442.826 248.564 441.498 248.416C440.17 248.416 438.694 248.343 437.071 248.195C436.333 248.195 435.669 248.195 435.079 248.195C434.489 248.195 433.825 248.121 433.087 247.974C432.349 247.974 431.538 247.974 430.652 247.974C429.767 247.974 428.955 247.9 428.217 247.752C426.742 247.752 425.266 247.752 423.791 247.752C422.463 247.9 421.061 247.974 419.585 247.974C417.962 248.121 416.265 248.195 414.494 248.195C412.723 248.343 411.026 248.343 409.403 248.195C408.665 248.195 407.928 248.121 407.19 247.974C406.452 247.974 405.714 247.974 404.976 247.974H403.648C402.025 247.974 400.918 247.9 400.328 247.752C399.59 247.457 399.148 247.089 399 246.646C399 246.204 399.074 245.835 399.221 245.54C399.221 245.097 399.221 244.655 399.221 244.212C399.369 243.77 399.443 243.327 399.443 242.885V241.336C399.59 240.599 399.664 239.935 399.664 239.345C399.812 238.607 399.959 237.87 400.107 237.133L400.771 232.486V232.044C400.771 231.749 400.771 231.38 400.771 230.938C400.918 230.495 401.14 230.126 401.435 229.831C401.877 229.684 402.689 229.758 403.87 230.053H404.755C405.493 230.2 406.599 230.274 408.075 230.274C408.96 230.421 409.846 230.495 410.731 230.495C411.764 230.495 412.723 230.495 413.609 230.495C415.232 230.347 416.708 230.052 418.036 229.61C419.364 229.167 420.618 228.651 421.798 228.061C422.979 227.471 424.159 226.881 425.34 226.291C426.52 225.701 427.775 224.964 429.103 224.079L431.095 222.751C432.718 222.014 434.341 220.907 435.965 219.432C439.801 216.04 443.712 212.057 447.696 207.485C448.138 206.895 448.581 206.305 449.024 205.715C449.467 205.125 449.909 204.535 450.352 203.945L452.344 201.29C453.082 200.405 453.893 199.594 454.779 198.856C455.222 198.414 455.664 198.045 456.107 197.75C456.55 197.308 456.918 196.865 457.214 196.422C458.837 194.21 460.755 191.997 462.969 189.785C463.854 188.752 464.739 187.794 465.625 186.909C466.51 185.876 467.395 184.77 468.281 183.59C468.871 182.852 469.388 182.041 469.83 181.156C470.273 180.271 470.789 179.386 471.38 178.501C471.97 177.616 472.339 176.952 472.486 176.51C473.814 174.445 475.142 171.937 476.471 168.987C476.766 168.25 476.987 167.66 477.135 167.217C477.43 166.775 477.725 166.259 478.02 165.669C478.315 164.931 478.61 164.341 478.905 163.899C479.2 163.309 479.496 162.645 479.791 161.908C481.119 158.663 482.078 155.786 482.668 153.279C483.258 150.919 483.701 148.411 483.996 145.756C484.439 143.101 484.513 140.446 484.218 137.791C484.07 136.906 483.996 136.021 483.996 135.136C483.996 134.104 483.996 133.145 483.996 132.26C484.291 131.08 484.291 129.9 483.996 128.72V124.074C483.996 123.779 483.923 123.484 483.775 123.189C483.775 122.746 483.775 122.304 483.775 121.861C483.775 121.566 483.701 121.271 483.554 120.976C483.554 120.534 483.554 120.165 483.554 119.87C483.554 116.772 483.258 114.044 482.668 111.684C482.373 111.094 482.226 110.651 482.226 110.356C482.078 110.061 481.93 109.692 481.783 109.25C481.783 108.808 481.709 108.439 481.561 108.144C481.414 107.849 481.34 107.554 481.34 107.259C481.34 106.964 481.266 106.669 481.119 106.374C481.119 105.784 480.971 105.046 480.676 104.161C479.791 101.506 478.758 98.8512 477.577 96.1962C476.544 93.5412 475.438 90.96 474.257 88.4525C473.519 87.2725 472.781 86.0925 472.044 84.9125C471.306 83.7325 470.494 82.5525 469.609 81.3725C467.691 78.865 465.772 76.9475 463.854 75.62C461.493 73.9975 459.058 72.5225 456.55 71.195C454.041 69.72 451.311 68.6875 448.36 68.0975C447.77 68.0975 447.327 68.0237 447.032 67.8762C445.851 67.5812 444.966 67.4337 444.376 67.4337C443.638 67.2862 442.9 67.2862 442.162 67.4337C441.424 67.4337 440.687 67.5075 439.949 67.655C438.768 67.95 437.735 68.0975 436.85 68.0975C435.965 68.245 435.079 68.3925 434.194 68.54C433.308 68.54 432.497 68.6875 431.759 68.9825C425.856 70.605 421.208 73.26 417.814 76.9475C413.387 81.52 410.657 86.1662 409.625 90.8862C409.182 92.8037 408.739 94.7212 408.296 96.6387C408.001 98.5562 407.632 100.4 407.19 102.17C407.042 103.055 406.895 103.94 406.747 104.825C406.747 105.71 406.599 106.595 406.304 107.48C406.157 107.775 406.083 108.144 406.083 108.586C406.083 108.881 406.009 109.176 405.862 109.471C405.862 109.471 405.788 109.619 405.64 109.914C405.64 110.061 405.567 110.209 405.419 110.356C405.419 110.504 405.419 110.651 405.419 110.799C405.567 111.094 405.862 111.315 406.304 111.463C406.895 111.61 407.337 111.757 407.632 111.905C407.78 111.905 407.928 111.979 408.075 112.126C409.403 112.569 410.657 112.79 411.838 112.79H412.281C412.871 112.79 413.314 112.864 413.609 113.011H413.83H414.494H414.715V112.79V112.569C414.863 112.126 414.937 111.684 414.937 111.241C415.084 110.651 415.232 110.135 415.38 109.692C415.675 108.807 415.896 107.922 416.044 107.037C416.339 106.005 416.634 105.046 416.929 104.161C417.076 103.719 417.224 103.276 417.372 102.834C417.519 102.244 417.667 101.654 417.814 101.064C418.552 99.1462 419.142 97.45 419.585 95.975C419.733 95.2375 420.102 94.2787 420.692 93.0987L420.913 92.8775C421.061 92.5825 421.134 92.3612 421.134 92.2137C421.134 92.0662 421.208 91.845 421.356 91.55C421.356 90.96 421.577 90.2962 422.02 89.5587C422.315 89.2637 422.61 88.9688 422.905 88.6738C423.348 88.3788 423.717 88.0838 424.012 87.7888C424.307 87.6413 424.676 87.3462 425.119 86.9037C425.266 86.7562 425.414 86.6825 425.561 86.6825C425.709 86.535 425.856 86.3875 426.004 86.24C426.299 85.7975 426.668 85.4287 427.111 85.1337C427.553 84.6912 427.922 84.3225 428.217 84.0275C429.25 83.29 430.21 82.7737 431.095 82.4787C432.128 82.1837 433.161 81.8887 434.194 81.5938C434.489 81.4463 434.71 81.3725 434.858 81.3725C435.005 81.3725 435.227 81.2987 435.522 81.1512C438.473 80.2662 441.055 80.1925 443.269 80.93C443.859 81.225 444.597 81.6675 445.482 82.2575C445.777 82.405 445.925 82.5525 445.925 82.7C446.073 82.7 446.294 82.7737 446.589 82.9212C447.032 83.2162 447.696 83.5113 448.581 83.8063C448.876 83.9538 449.098 84.1012 449.245 84.2487C449.54 84.2487 449.835 84.3225 450.131 84.47C451.311 84.9125 452.492 85.5025 453.672 86.24C453.967 86.24 454.189 86.3137 454.336 86.4612C455.664 86.9037 456.623 87.5675 457.214 88.4525C457.656 89.0425 458.025 90.0012 458.32 91.3287V91.55C458.615 92.73 458.763 93.4675 458.763 93.7625C458.911 94.205 458.984 94.6475 458.984 95.09C459.132 95.385 459.279 95.7537 459.427 96.1962C459.427 96.6387 459.501 96.9337 459.648 97.0812C459.796 97.5237 459.87 97.9662 459.87 98.4087C459.87 98.7037 459.944 99.0725 460.091 99.515C460.091 99.81 460.091 100.031 460.091 100.179C460.239 100.326 460.165 100.547 459.87 100.842C459.87 100.99 459.796 101.138 459.648 101.285H459.427C459.427 101.433 459.501 101.58 459.648 101.727V102.391C459.648 102.981 459.353 103.719 458.763 104.604C458.763 104.604 458.615 104.899 458.32 105.489C458.025 106.226 457.656 106.964 457.214 107.701C456.918 108.439 456.623 109.102 456.328 109.692C456.181 109.987 456.033 110.282 455.886 110.577C455.738 110.872 455.517 111.168 455.221 111.463C454.779 111.905 454.484 112.274 454.336 112.569C454.041 113.159 453.672 113.749 453.229 114.339C452.787 114.929 452.27 115.519 451.68 116.109C451.385 116.404 451.164 116.699 451.016 116.994C450.868 117.141 450.647 117.362 450.352 117.657C450.057 117.952 449.762 118.174 449.467 118.321C449.467 118.321 449.319 118.395 449.024 118.542C448.876 118.69 448.803 118.838 448.803 118.985V119.428C448.507 120.165 448.212 120.681 447.917 120.976L447.474 121.197C447.032 121.64 446.589 122.304 446.146 123.189V123.631C445.999 123.926 445.925 124.147 445.925 124.295C445.925 124.442 445.777 124.664 445.482 124.959C445.335 125.106 445.04 125.18 444.597 125.18H444.376C444.376 125.327 444.302 125.475 444.154 125.623C444.154 125.77 444.154 125.917 444.154 126.065C444.154 126.212 444.081 126.36 443.933 126.507L443.269 127.835L442.605 128.499C442.015 129.531 441.424 130.195 440.834 130.49C440.539 130.785 440.244 131.006 439.949 131.154C439.801 131.154 439.58 131.227 439.285 131.375C438.547 131.67 438.03 131.965 437.735 132.26C437.44 132.555 437.145 132.998 436.85 133.588C436.555 134.178 436.26 134.62 435.965 134.915C435.227 135.8 434.489 136.685 433.751 137.57C433.013 138.307 432.275 139.045 431.538 139.783L429.988 141.331C429.841 141.626 429.693 141.847 429.546 141.995C429.398 141.995 429.177 142.142 428.882 142.437C428.291 142.732 427.922 143.027 427.775 143.322C427.48 143.617 427.185 143.986 426.889 144.429C426.594 144.724 426.299 145.019 426.004 145.314C426.004 145.461 425.856 145.683 425.561 145.978C424.824 147.01 424.086 148.043 423.348 149.075C422.61 150.108 421.872 151.14 421.134 152.173C420.692 152.615 420.47 152.984 420.47 153.279C420.175 153.869 419.954 154.237 419.806 154.385C419.659 154.532 419.585 154.68 419.585 154.827C419.437 154.827 419.364 154.901 419.364 155.049V155.27C419.216 155.417 419.142 155.565 419.142 155.713C418.405 159.105 417.076 161.981 415.158 164.341C414.863 164.636 414.642 165.005 414.494 165.447C414.494 165.89 414.347 166.406 414.051 166.996L413.387 168.987C413.092 169.577 412.797 170.02 412.502 170.315C412.354 170.757 412.207 171.2 412.059 171.643C411.912 171.938 411.69 172.306 411.395 172.749C411.248 173.044 411.174 173.339 411.174 173.634C411.174 173.781 411.1 174.003 410.953 174.298C410.953 174.593 410.805 175.33 410.51 176.51C410.215 177.247 409.993 178.133 409.846 179.165C409.698 180.05 409.551 180.935 409.403 181.82C409.403 182.262 409.329 182.705 409.182 183.148C409.182 183.59 409.182 183.959 409.182 184.254L408.739 186.245C408.592 187.425 408.444 188.605 408.296 189.785C408.149 190.817 408.001 191.924 407.854 193.104C407.706 193.841 407.559 194.579 407.411 195.316C407.411 195.906 407.411 196.57 407.411 197.307C407.559 197.897 407.559 198.488 407.411 199.078C407.264 199.52 407.116 200.036 406.968 200.626C406.968 200.921 406.895 201.216 406.747 201.511C406.747 201.806 406.673 202.175 406.526 202.617C406.526 202.912 406.526 203.281 406.526 203.724C406.378 204.019 406.304 204.314 406.304 204.609C406.304 204.756 406.231 204.978 406.083 205.273C405.788 206.748 405.567 207.78 405.419 208.37C405.271 208.665 405.198 208.886 405.198 209.034C405.198 209.181 405.124 209.329 404.976 209.476C404.829 209.771 404.755 210.14 404.755 210.582C404.755 210.877 404.681 211.173 404.534 211.468C404.534 212.205 404.46 212.795 404.312 213.237C404.312 213.532 404.165 213.975 403.87 214.565C403.574 215.45 403.427 216.114 403.427 216.556V218.105C403.427 218.99 403.353 219.728 403.206 220.318V221.866V224.079C402.91 225.111 402.615 225.701 402.32 225.849V226.07V226.291H402.099C402.099 226.439 401.951 226.513 401.656 226.513C401.656 226.365 401.582 226.291 401.435 226.291C401.287 226.291 401.14 226.218 400.992 226.07C400.845 226.07 400.771 225.996 400.771 225.849C400.033 225.259 399.738 224.3 399.885 222.972C399.885 222.677 399.885 222.456 399.885 222.309C400.033 222.161 400.107 221.94 400.107 221.645C400.402 220.465 400.549 219.654 400.549 219.211V217.663C400.402 217.073 400.328 216.261 400.328 215.229C400.771 213.459 401.14 211.91 401.435 210.582C401.877 209.107 402.394 207.78 402.984 206.6C403.279 205.568 403.574 204.314 403.87 202.839C403.87 202.544 403.87 202.249 403.87 201.954C404.017 201.511 404.091 201.069 404.091 200.626C404.238 200.331 404.312 200.036 404.312 199.741C404.312 199.446 404.386 199.151 404.534 198.856C404.534 197.529 404.46 196.57 404.312 195.98V194.874C404.312 194.136 404.312 193.546 404.312 193.104C404.46 192.661 404.681 192.145 404.976 191.555C405.124 191.112 405.198 190.449 405.198 189.564V188.457C405.493 187.72 405.862 187.351 406.304 187.351C406.157 186.909 406.083 186.54 406.083 186.245C406.231 185.95 406.304 185.655 406.304 185.36C406.452 185.065 406.526 184.622 406.526 184.032C406.673 183.885 406.747 183.516 406.747 182.926C406.747 181.451 406.821 180.345 406.968 179.607C406.968 179.165 407.116 178.796 407.411 178.501C407.706 177.911 407.854 177.616 407.854 177.616V176.952C407.706 176.657 407.632 176.289 407.632 175.846C407.632 175.256 407.78 174.519 408.075 173.634C408.37 173.044 408.518 172.454 408.518 171.864C408.813 171.126 409.256 170.315 409.846 169.43C410.141 168.84 410.289 168.471 410.289 168.324C410.584 167.881 410.805 167.439 410.953 166.996C411.1 166.554 411.322 166.111 411.617 165.669C411.764 164.784 412.059 163.973 412.502 163.235C412.797 162.645 413.24 161.907 413.83 161.022C414.42 160.285 414.789 159.474 414.937 158.589C415.232 158.146 415.453 157.704 415.601 157.261C415.748 156.671 415.97 156.155 416.265 155.713C416.56 154.828 416.781 154.238 416.929 153.943C417.224 153.205 417.519 152.615 417.814 152.173C418.109 151.73 418.405 151.214 418.7 150.624L419.364 149.96C419.659 149.665 419.806 149.444 419.806 149.296C419.954 149.001 420.102 148.706 420.249 148.411C420.544 147.969 420.913 147.526 421.356 147.084C421.798 146.494 422.167 145.977 422.463 145.535C423.2 144.797 423.864 144.134 424.455 143.544C425.045 142.806 425.635 142.069 426.225 141.331C426.373 141.036 426.742 140.741 427.332 140.446C427.332 140.299 427.332 140.225 427.332 140.225C427.48 140.225 427.553 140.151 427.553 140.004C427.996 139.856 428.291 139.561 428.439 139.119C428.586 138.971 428.66 138.897 428.66 138.897C428.66 138.75 428.734 138.603 428.882 138.455C429.324 137.865 429.841 137.349 430.431 136.906C430.726 136.611 430.947 136.464 431.095 136.464C431.243 136.316 431.39 136.095 431.538 135.8L431.98 135.136C432.571 134.546 433.087 134.03 433.53 133.588C433.972 132.998 434.489 132.408 435.079 131.818L435.965 131.154L438.621 128.499C439.063 128.056 439.432 127.761 439.727 127.614C440.023 127.171 440.391 126.729 440.834 126.286C441.277 125.844 441.646 125.401 441.941 124.959V124.737C442.088 124.59 442.162 124.516 442.162 124.516C442.162 124.369 442.236 124.221 442.384 124.074C442.384 124.074 442.531 123.926 442.826 123.631C442.974 123.631 443.048 123.557 443.048 123.41C443.195 123.262 443.269 123.115 443.269 122.967C443.416 122.967 443.49 122.82 443.49 122.525C443.785 121.788 444.154 121.124 444.597 120.534C445.187 119.796 445.63 119.28 445.925 118.985C446.073 118.985 446.146 118.911 446.146 118.764C446.294 118.764 446.442 118.69 446.589 118.542V118.321L446.81 118.1V117.657C446.958 117.51 447.032 117.362 447.032 117.215C447.032 117.067 447.106 116.92 447.253 116.772C448.138 115.445 449.098 114.486 450.131 113.896C450.426 113.749 450.647 113.527 450.795 113.232V113.011C450.942 112.569 451.311 111.905 451.901 111.02C452.049 110.872 452.123 110.725 452.123 110.577C452.27 110.43 452.418 110.282 452.565 110.135C452.86 109.692 453.156 109.25 453.451 108.807C453.893 108.365 454.189 107.775 454.336 107.037L454.557 106.816C454.557 106.374 454.779 105.931 455.221 105.489C455.517 105.194 455.738 104.899 455.886 104.604C456.033 104.309 456.181 104.014 456.328 103.719C456.328 103.571 456.402 103.424 456.55 103.276C456.845 102.686 456.992 102.244 456.992 101.949C456.992 101.359 456.918 100.916 456.771 100.621V99.9575C456.623 99.3675 456.55 98.8512 456.55 98.4087C456.55 97.8187 456.476 97.2287 456.328 96.6387C456.328 95.6062 456.254 94.8687 456.107 94.4262C456.107 93.3937 455.959 92.6562 455.664 92.2137C455.664 92.2137 455.59 92.14 455.443 91.9925C455.443 91.845 455.369 91.7713 455.221 91.7713C455.221 91.6238 455.221 91.4762 455.221 91.3287C455.221 91.3287 455.221 91.1075 455.221 90.665V90.2225C454.926 89.78 454.484 89.3375 453.893 88.895C453.746 88.895 453.598 88.8213 453.451 88.6738C452.713 88.3788 452.049 88.0838 451.459 87.7888C451.016 87.4938 450.426 87.1987 449.688 86.9037C449.098 86.6087 448.729 86.4612 448.581 86.4612L447.474 85.7975C446.884 85.5025 446.294 85.2812 445.704 85.1337C445.113 84.8387 444.523 84.5437 443.933 84.2487C442.9 83.8062 442.088 83.5112 441.498 83.3637C440.908 83.2162 440.17 83.2162 439.285 83.3637L438.178 83.585C436.702 83.88 435.227 84.2488 433.751 84.6913C432.423 84.9863 431.169 85.65 429.988 86.6825C428.365 88.1575 426.963 89.6325 425.783 91.1075C424.602 92.435 423.643 93.8362 422.905 95.3112C422.315 96.3437 421.798 97.745 421.356 99.515C421.356 99.81 421.282 100.031 421.134 100.179C421.134 100.179 421.134 100.326 421.134 100.621C420.839 101.801 420.544 102.907 420.249 103.94C419.954 104.825 419.659 105.857 419.364 107.037C419.216 107.332 418.995 107.922 418.7 108.807C418.109 110.43 417.741 111.905 417.593 113.232V113.675C417.888 114.56 417.814 115.224 417.372 115.666C416.929 116.109 416.191 116.182 415.158 115.887H414.937C414.199 115.887 413.683 115.814 413.387 115.666C411.764 115.666 410.067 115.445 408.296 115.002C408.001 114.855 407.78 114.781 407.632 114.781C407.485 114.781 407.264 114.707 406.968 114.56C406.083 114.265 405.567 114.117 405.419 114.117C405.271 113.97 405.124 113.896 404.976 113.896C404.829 114.044 404.755 114.265 404.755 114.56C404.755 114.707 404.681 114.855 404.534 115.002V115.224L404.312 116.109L403.87 115.445C403.722 115.298 403.648 115.15 403.648 115.002C403.206 114.855 402.984 114.486 402.984 113.896C402.837 113.601 402.763 113.454 402.763 113.454C402.91 113.306 402.984 113.159 402.984 113.011C402.984 112.864 403.058 112.716 403.206 112.569C403.206 112.274 403.132 111.979 402.984 111.684C402.837 111.389 402.689 111.094 402.542 110.799C402.394 110.799 402.32 110.725 402.32 110.577L401.877 109.914H402.542H403.206C403.206 109.766 403.132 109.692 402.984 109.692C402.984 109.545 402.984 109.397 402.984 109.25C402.984 108.217 403.132 106.964 403.427 105.489C403.87 104.456 404.091 103.35 404.091 102.17L404.755 98.8513C404.903 98.2613 405.05 97.745 405.198 97.3025C405.345 96.7125 405.493 96.1225 405.64 95.5325C405.935 94.795 406.083 94.1312 406.083 93.5412C406.231 92.8037 406.452 92.0662 406.747 91.3287C406.895 91.0337 406.968 90.7387 406.968 90.4437C406.968 90.1487 407.042 89.8537 407.19 89.5587C407.485 88.5262 407.706 87.5675 407.854 86.6825C408.149 85.7975 408.518 84.9125 408.96 84.0275C409.403 83.1425 409.92 82.2575 410.51 81.3725C411.1 80.4875 411.764 79.6025 412.502 78.7175L413.166 77.8325C413.904 76.8 414.642 75.915 415.38 75.1775C416.265 74.2925 417.224 73.4813 418.257 72.7438C419.437 72.0063 420.47 71.3425 421.356 70.7525C422.241 70.015 423.2 69.3512 424.233 68.7612L424.676 68.54C425.856 67.95 426.742 67.5812 427.332 67.4337C427.775 67.4337 428.144 67.36 428.439 67.2125C429.029 67.2125 429.472 67.1387 429.767 66.9912C429.767 66.9912 429.841 66.9175 429.988 66.77C430.136 66.77 430.21 66.77 430.21 66.77C430.357 66.6225 430.578 66.5488 430.874 66.5488H431.538H431.98C432.128 66.5488 432.202 66.5488 432.202 66.5488C432.349 66.4013 432.497 66.3275 432.644 66.3275C432.792 66.18 433.013 66.1062 433.308 66.1062C433.899 65.8112 434.489 65.6638 435.079 65.6638C435.522 65.6638 435.965 65.6638 436.407 65.6638C436.997 65.5163 437.514 65.4425 437.957 65.4425C438.694 65.295 439.358 65.2212 439.949 65.2212C440.539 65.0737 441.203 65 441.941 65C444.302 65 447.032 65.4425 450.131 66.3275C450.426 66.475 450.647 66.6225 450.795 66.77C451.09 66.77 451.385 66.8437 451.68 66.9912C453.746 67.4337 455.664 68.0975 457.435 68.9825C458.025 69.2775 458.542 69.6462 458.984 70.0887C459.575 70.3837 460.091 70.6787 460.534 70.9737C460.976 71.2687 461.345 71.5637 461.64 71.8587C462.083 72.1537 462.526 72.4488 462.969 72.7438L463.411 72.965C464.297 73.555 465.182 74.145 466.067 74.735C467.1 75.325 467.986 75.9888 468.724 76.7263C469.166 77.1688 469.535 77.6112 469.83 78.0537C470.273 78.4962 470.642 78.865 470.937 79.16L471.158 79.3812C471.306 79.5287 471.38 79.6762 471.38 79.8237C471.38 79.8237 471.453 79.8975 471.601 80.045C472.486 80.7825 473.077 81.5937 473.372 82.4787C473.372 82.6262 473.372 82.7 473.372 82.7C473.519 82.7 473.593 82.7737 473.593 82.9212V83.1425C473.593 83.585 473.667 83.88 473.814 84.0275L474.257 84.47C474.7 84.9125 475.069 85.355 475.364 85.7975L476.028 87.125C476.175 87.2725 476.249 87.42 476.249 87.5675C476.397 87.715 476.544 87.8625 476.692 88.01C476.987 88.4525 477.282 89.1162 477.577 90.0012C477.872 90.5912 478.094 90.96 478.241 91.1075C478.241 91.255 478.389 91.6237 478.684 92.2137C479.274 92.8037 479.569 93.32 479.569 93.7625C479.717 93.91 479.791 94.205 479.791 94.6475C479.496 94.9425 479.496 95.1637 479.791 95.3112C479.791 95.6062 479.938 96.0487 480.233 96.6387L480.455 97.3025C481.045 98.4825 481.414 99.4412 481.561 100.179C481.709 100.474 481.783 100.769 481.783 101.064C481.93 101.359 482.078 101.654 482.226 101.949L482.89 103.276C482.89 103.571 482.89 103.792 482.89 103.94C483.037 103.94 483.111 104.088 483.111 104.383C483.258 104.825 483.406 105.267 483.554 105.71C483.701 106.005 483.849 106.374 483.996 106.816C483.996 107.554 484.07 108.07 484.218 108.365C484.218 108.66 484.218 109.029 484.218 109.471C484.365 109.766 484.439 110.061 484.439 110.356C485.177 113.011 485.546 115.519 485.546 117.879C485.693 118.321 485.767 118.838 485.767 119.428C485.767 119.87 485.915 120.386 486.21 120.976C486.505 121.714 486.579 122.304 486.431 122.746C486.431 123.041 486.357 123.484 486.21 124.074V124.516C486.21 125.549 486.284 126.286 486.431 126.729V127.835C486.579 128.277 486.652 129.015 486.652 130.048V131.375V132.924V135.136C486.652 135.579 486.726 135.947 486.874 136.242ZM403.427 232.486H403.206C403.058 232.781 402.984 233.519 402.984 234.699V235.805C402.837 236.1 402.763 236.469 402.763 236.911C402.763 237.206 402.689 237.501 402.542 237.796C402.394 238.681 402.246 239.566 402.099 240.451C402.099 241.336 402.099 242.221 402.099 243.106L401.877 243.549V245.54C402.025 245.835 402.32 246.056 402.763 246.204H407.19H410.067H411.617C413.683 246.351 415.601 246.425 417.372 246.425C419.142 246.425 420.987 246.277 422.905 245.982C424.971 245.835 426.963 245.835 428.882 245.982C430.8 245.982 432.792 246.056 434.858 246.204H436.85C439.358 246.351 441.793 246.646 444.154 247.089C446.663 247.531 449.319 248.121 452.123 248.859C452.418 248.859 452.861 249.006 453.451 249.301C453.746 249.449 454.115 249.596 454.557 249.744C455.148 249.891 455.59 249.891 455.886 249.744L456.107 249.965L458.984 240.009C458.689 239.861 458.32 239.787 457.878 239.787C457.583 239.787 457.287 239.714 456.992 239.566C456.254 239.271 455.59 239.05 455 238.902C454.41 238.755 453.746 238.608 453.008 238.46C451.828 238.165 450.721 238.017 449.688 238.017C448.655 237.87 447.548 237.722 446.368 237.575H445.925L440.613 236.911C439.137 236.764 437.662 236.69 436.186 236.69C434.858 236.542 433.382 236.321 431.759 236.026C430.578 235.731 429.324 235.584 427.996 235.584C426.668 235.436 425.414 235.215 424.233 234.92C421.282 234.478 418.183 234.035 414.937 233.593C411.838 233.15 408.739 232.781 405.64 232.486L403.427 232.265V232.486Z" fill="white"/>
<path d="M386.691 636.046C385.708 634.669 385.413 632.899 385.806 630.736C386.199 628.573 386.594 626.803 386.987 625.426C386.987 625.033 387.084 624.738 387.282 624.541C387.479 624.148 387.379 623.853 386.987 623.656C386.789 623.459 386.299 623.361 385.511 623.361C384.723 622.968 384.233 622.574 384.035 622.181C383.445 621.198 383.15 620.018 383.15 618.641C383.347 617.068 383.445 615.789 383.445 614.806C383.445 613.823 383.347 613.036 383.15 612.446C382.953 611.659 382.757 610.873 382.56 610.086C382.362 609.299 382.265 608.611 382.265 608.021C382.265 607.234 382.167 606.349 381.969 605.366C381.969 604.776 381.872 604.186 381.674 603.596C381.477 603.006 381.281 602.416 381.084 601.826C380.887 601.039 380.789 600.351 380.789 599.761C380.986 598.974 381.084 598.188 381.084 597.401C381.281 595.631 381.281 593.959 381.084 592.386C381.084 590.813 381.281 589.141 381.674 587.371C382.067 585.601 382.265 583.929 382.265 582.356C382.462 580.586 382.657 578.816 382.855 577.046C382.855 576.063 382.855 575.178 382.855 574.391C382.855 573.604 382.953 572.719 383.15 571.736C383.15 570.753 383.642 569.966 384.626 569.376C385.413 569.179 386.199 569.081 386.987 569.081C387.774 569.081 388.462 569.081 389.052 569.081C390.036 568.884 390.921 568.786 391.709 568.786C392.692 568.786 393.677 568.688 394.66 568.491C398.004 568.098 401.25 567.803 404.399 567.606C407.743 567.409 411.089 567.016 414.433 566.426C417.777 565.836 421.123 565.344 424.468 564.951C428.009 564.558 431.453 564.164 434.797 563.771C436.37 563.574 438.043 563.378 439.814 563.181C441.585 562.984 443.258 562.788 444.831 562.591C446.405 562.394 447.98 562.296 449.553 562.296C451.324 562.296 452.897 562.001 454.275 561.411C455.653 560.821 457.029 560.231 458.407 559.641C459.785 559.051 461.161 558.363 462.539 557.576C465.293 555.806 467.359 553.643 468.736 551.086C469.72 549.709 470.507 548.431 471.097 547.251C471.688 545.874 472.278 544.399 472.868 542.826C473.656 541.449 473.754 540.368 473.163 539.581C472.77 538.991 472.18 538.401 471.393 537.811C470.802 537.221 470.212 536.729 469.622 536.336C468.441 535.353 467.163 534.566 465.785 533.976C464.407 533.189 462.932 532.501 461.358 531.911C459.785 531.321 458.21 530.829 456.636 530.436C455.063 529.846 453.488 529.354 451.914 528.961C450.341 528.568 448.766 528.273 447.192 528.076C445.619 527.879 444.044 527.879 442.47 528.076C440.897 528.273 439.322 528.273 437.748 528.076C436.175 527.683 434.6 527.486 433.026 527.486H422.697C420.926 527.683 419.155 527.879 417.385 528.076C415.614 528.273 413.941 528.469 412.367 528.666C409.023 529.059 405.58 529.649 402.038 530.436C398.694 531.026 395.348 531.518 392.004 531.911C390.43 532.304 388.757 532.599 386.987 532.796C385.216 532.993 383.445 533.288 381.674 533.681C380.691 533.878 379.313 534.173 377.543 534.566C375.969 534.763 374.689 534.566 373.706 533.976C372.525 533.386 372.033 532.403 372.23 531.026C372.428 529.453 372.428 528.174 372.23 527.191C372.033 526.404 371.738 525.814 371.345 525.421C371.148 524.831 370.952 524.241 370.755 523.651C370.362 521.684 370.164 520.209 370.164 519.226C369.377 515.489 369.279 512.244 369.869 509.491C369.869 508.704 369.967 508.016 370.164 507.426C370.362 506.639 370.557 505.853 370.755 505.066C370.952 504.869 371.05 504.673 371.05 504.476C370.852 504.279 370.755 504.083 370.755 503.886C370.755 503.493 370.755 503.198 370.755 503.001C370.952 502.804 371.05 502.509 371.05 502.116C371.247 501.329 371.247 500.641 371.05 500.051C370.852 499.461 370.755 498.871 370.755 498.281C371.148 497.494 371.64 497.199 372.23 497.396C372.821 497.396 373.411 497.396 374.001 497.396H384.035C385.609 497.199 387.184 497.199 388.757 497.396C390.331 497.396 391.906 497.396 393.479 497.396C394.267 497.199 394.955 497.199 395.545 497.396C396.333 497.396 397.218 497.298 398.201 497.101C398.989 497.101 399.677 497.003 400.267 496.806C401.055 496.609 401.841 496.413 402.628 496.216C404.399 496.019 406.17 496.019 407.941 496.216C409.711 496.413 411.482 496.511 413.253 496.511C414.826 496.314 416.499 496.216 418.27 496.216C420.041 496.019 421.811 495.921 423.582 495.921C426.926 495.921 430.272 495.823 433.616 495.626C437.158 495.429 440.602 495.429 443.946 495.626C445.519 495.626 447.095 495.823 448.668 496.216C450.241 496.413 451.817 496.511 453.39 496.511C455.358 496.511 456.834 496.609 457.817 496.806C458.8 497.003 459.588 497.199 460.178 497.396C460.965 497.593 461.851 497.789 462.834 497.986C466.178 498.576 469.524 498.969 472.868 499.166C476.41 499.363 479.854 499.756 483.198 500.346C484.771 500.739 486.247 501.231 487.625 501.821C489.198 502.214 490.773 502.706 492.347 503.296C495.495 504.279 498.347 505.263 500.905 506.246C501.495 506.639 502.086 506.934 502.676 507.131C503.266 507.328 503.759 507.623 504.152 508.016C504.742 508.409 505.234 508.901 505.627 509.491C506.217 509.884 506.808 510.278 507.398 510.671C508.186 511.064 508.874 511.458 509.464 511.851C510.054 512.048 510.547 512.441 510.94 513.031C512.513 514.604 513.498 515.883 513.891 516.866C514.481 518.243 514.874 519.718 515.071 521.291C515.464 522.668 515.759 524.044 515.957 525.421C516.154 526.404 516.35 527.289 516.547 528.076C516.744 528.863 516.94 529.649 517.137 530.436C517.53 531.223 517.825 531.911 518.023 532.501C518.415 533.091 518.711 533.779 518.908 534.566V538.696C518.711 540.466 518.711 542.138 518.908 543.711C518.908 544.694 518.81 545.579 518.613 546.366C518.613 546.956 518.515 547.644 518.318 548.431C518.12 549.414 517.925 550.398 517.727 551.381C517.727 552.364 517.63 553.348 517.432 554.331C517.039 555.904 516.645 557.478 516.252 559.051C515.859 560.624 515.464 562.198 515.071 563.771C514.874 564.558 514.678 565.344 514.481 566.131C514.481 566.918 514.284 567.704 513.891 568.491C513.498 569.278 513.005 570.064 512.415 570.851C511.825 571.441 511.332 572.129 510.94 572.916C509.169 575.669 507.398 578.324 505.627 580.881C504.054 583.241 501.888 585.306 499.134 587.076C497.757 588.059 496.478 589.043 495.298 590.026C494.117 590.813 492.739 591.599 491.166 592.386C489.593 592.779 488.51 593.271 487.92 593.861C487.132 594.254 486.542 594.549 486.149 594.746C485.756 594.943 485.166 595.238 484.378 595.631C481.034 596.614 477.688 597.401 474.344 597.991C471.195 598.581 467.949 599.171 464.605 599.761C461.261 600.351 457.817 600.744 454.275 600.941C450.931 601.138 447.585 600.941 444.241 600.351C440.897 599.958 437.551 599.466 434.207 598.876C430.863 598.089 427.517 597.303 424.172 596.516C420.828 595.729 417.482 594.943 414.138 594.156C410.99 593.369 407.743 592.386 404.399 591.206C401.055 589.633 398.004 588.551 395.25 587.961C393.282 587.568 391.709 587.371 390.528 587.371C390.135 587.371 389.445 587.371 388.462 587.371C387.675 587.174 387.084 587.273 386.691 587.666C386.299 588.059 386.199 588.649 386.396 589.436C386.594 590.223 386.789 590.813 386.987 591.206C387.184 591.993 387.282 592.779 387.282 593.566C387.479 594.353 387.675 595.139 387.872 595.926C388.265 596.713 388.56 597.499 388.757 598.286C388.955 598.876 389.15 599.663 389.348 600.646C389.545 601.433 389.643 602.219 389.643 603.006C389.643 603.596 389.84 604.284 390.233 605.071C390.626 606.644 391.021 608.316 391.413 610.086C391.806 611.659 392.004 613.331 392.004 615.101C392.004 616.871 391.906 618.248 391.709 619.231C391.709 620.804 392.201 621.591 393.184 621.591C394.758 621.788 396.431 621.886 398.201 621.886C399.972 621.689 401.645 621.493 403.218 621.296C404.792 621.296 406.268 621.296 407.645 621.296C409.219 621.296 410.794 621.198 412.367 621.001C413.155 621.001 413.843 621.099 414.433 621.296C415.221 621.296 416.007 621.296 416.794 621.296C417.777 621.296 418.565 621.198 419.155 621.001C419.746 620.804 420.533 620.804 421.516 621.001C424.665 621.591 428.009 621.886 431.551 621.886C432.338 622.083 433.026 622.083 433.616 621.886C434.207 621.689 434.895 621.493 435.682 621.296C436.666 621.296 437.453 621.394 438.043 621.591C438.831 621.788 439.716 621.984 440.7 622.181C442.273 622.378 443.848 622.476 445.422 622.476C447.192 622.476 448.865 622.673 450.439 623.066C453.587 623.263 456.734 624.049 459.883 625.426C460.67 625.819 461.358 626.213 461.949 626.606C462.539 626.803 463.227 626.999 464.014 627.196C464.605 627.393 465.097 627.589 465.49 627.786C465.883 627.786 466.178 628.179 466.375 628.966C467.163 628.573 467.753 628.474 468.146 628.671C468.344 628.868 468.441 629.064 468.441 629.261C468.639 629.458 468.834 629.654 469.032 629.851C469.425 630.048 469.72 630.146 469.917 630.146C470.114 630.146 470.409 630.244 470.802 630.441C471.195 630.638 471.393 630.834 471.393 631.031C471.59 631.031 471.885 631.129 472.278 631.326C472.671 631.719 473.066 632.113 473.459 632.506C473.851 632.899 474.246 633.293 474.639 633.686C475.032 633.883 475.327 634.079 475.524 634.276C475.722 634.473 476.017 634.669 476.41 634.866C477.197 635.259 477.393 635.751 477 636.341C477.393 636.734 477.788 636.931 478.181 636.931C478.573 636.734 478.968 636.833 479.361 637.226C479.754 637.619 480.149 638.111 480.542 638.701C481.132 639.291 481.624 639.783 482.017 640.176C483 641.159 483.788 642.241 484.378 643.421C484.968 644.404 485.656 645.486 486.444 646.666C487.625 648.829 489.002 650.894 490.576 652.861C492.149 654.631 493.429 656.598 494.412 658.761C494.805 659.744 495.003 660.531 495.003 661.121C495.003 661.711 495.298 662.399 495.888 663.186C496.478 663.383 496.773 663.579 496.773 663.776L497.659 665.546C498.052 665.939 498.347 666.431 498.544 667.021C498.937 667.414 499.332 667.808 499.725 668.201C500.315 669.381 500.61 670.659 500.61 672.036C500.807 673.216 501.103 674.396 501.496 675.576C501.693 675.969 501.888 676.461 502.086 677.051C502.283 677.444 502.381 677.936 502.381 678.526C502.381 679.313 502.283 680.001 502.086 680.591C502.086 681.181 502.086 681.968 502.086 682.951C502.283 683.738 502.283 684.721 502.086 685.901C502.086 687.081 502.283 688.064 502.676 688.851C503.069 689.244 503.266 689.343 503.266 689.146C503.266 688.949 503.364 689.146 503.561 689.736V691.801C503.561 693.571 503.364 694.849 502.971 695.636C502.183 698.389 501.398 701.143 500.61 703.896C499.822 706.453 499.037 709.108 498.249 711.861C498.052 712.451 497.954 713.139 497.954 713.926C497.954 714.516 497.856 715.106 497.659 715.696C497.461 716.286 497.266 716.778 497.069 717.171C496.871 717.564 496.773 718.056 496.773 718.646C496.576 720.219 496.183 721.498 495.593 722.481C495.003 723.464 494.315 724.644 493.527 726.021C492.739 727.004 491.954 728.086 491.166 729.266C490.378 730.446 489.593 731.528 488.805 732.511C487.822 733.494 486.937 734.478 486.149 735.461C485.361 736.641 484.378 737.526 483.198 738.116C482.017 738.706 480.739 739.099 479.361 739.296C477.983 739.689 476.705 740.083 475.524 740.476C473.951 740.869 472.278 741.263 470.507 741.656C468.934 742.049 467.359 742.443 465.785 742.836C459.883 744.409 453.98 745.294 448.078 745.491C441.978 745.884 435.78 746.179 429.485 746.376C423.385 746.573 417.287 746.376 411.187 745.786C408.038 745.393 404.989 744.901 402.038 744.311C399.087 743.721 396.038 743.229 392.889 742.836C389.938 742.443 386.987 741.951 384.035 741.361C381.281 740.968 378.428 740.574 375.477 740.181C374.494 739.984 373.313 739.886 371.935 739.886C370.755 739.886 369.869 739.493 369.279 738.706C368.491 737.723 368.196 736.543 368.394 735.166C368.787 733.789 368.787 732.511 368.394 731.331C368.001 729.954 367.901 728.676 368.099 727.496C368.296 726.119 368.394 724.743 368.394 723.366C368.394 721.989 368.296 720.613 368.099 719.236C368.099 717.859 368.196 716.581 368.394 715.401C368.591 714.418 368.689 713.336 368.689 712.156C368.491 711.566 368.491 710.976 368.689 710.386C368.886 709.796 368.984 709.206 368.984 708.616C369.181 705.666 369.181 702.716 368.984 699.766C368.984 697.799 369.279 695.734 369.869 693.571C370.262 692.194 370.262 690.916 369.869 689.736C369.672 688.556 369.771 687.278 370.164 685.901C370.557 684.524 370.852 683.344 371.05 682.361C371.443 681.181 371.64 679.903 371.64 678.526C371.64 678.133 371.64 677.641 371.64 677.051C371.64 676.264 371.837 675.674 372.23 675.281C372.623 674.888 373.018 674.789 373.411 674.986C374.001 675.183 374.394 675.478 374.591 675.871C374.984 676.264 375.084 676.854 374.886 677.641C374.689 678.428 374.591 679.116 374.591 679.706C374.394 680.493 374.296 681.279 374.296 682.066C374.296 682.656 374.198 683.344 374.001 684.131C373.804 685.704 373.608 687.179 373.411 688.556C373.411 689.933 373.411 691.408 373.411 692.981C373.411 694.358 373.313 695.734 373.116 697.111C373.116 698.291 373.116 699.569 373.116 700.946C372.918 702.519 372.821 704.093 372.821 705.666C372.821 707.239 372.723 708.813 372.525 710.386C372.328 713.336 372.133 716.384 371.935 719.531C371.935 722.481 372.033 725.431 372.23 728.381C372.23 729.168 372.23 729.856 372.23 730.446C372.428 731.233 372.525 732.118 372.525 733.101C372.525 733.494 372.525 734.084 372.525 734.871C372.525 735.854 372.723 736.543 373.116 736.936C373.509 737.329 374.394 737.526 375.772 737.526C376.755 737.723 377.543 737.821 378.133 737.821C378.92 737.821 379.806 737.919 380.789 738.116C382.167 738.509 383.445 738.804 384.626 739.001C386.003 739.394 387.379 739.788 388.757 740.181C390.331 740.574 391.806 740.771 393.184 740.771C394.562 740.771 396.038 740.968 397.611 741.361C400.76 741.951 403.809 742.443 406.76 742.836C409.711 743.426 412.76 743.918 415.909 744.311C418.663 744.704 421.516 744.704 424.468 744.311C426.041 744.114 427.616 744.016 429.19 744.016C430.96 744.213 432.731 744.311 434.502 744.311C435.88 744.311 437.256 744.213 438.634 744.016C440.011 744.016 441.487 744.016 443.061 744.016C444.634 744.016 446.11 744.016 447.487 744.016C448.865 744.016 450.341 743.918 451.914 743.721C453.292 743.524 454.57 743.131 455.751 742.541C457.129 741.951 458.407 741.656 459.588 741.656C460.178 741.656 460.67 741.754 461.063 741.951C461.653 742.148 462.146 742.246 462.539 742.246C463.917 742.049 465.293 741.558 466.671 740.771C467.261 740.574 467.753 740.378 468.146 740.181C468.736 740.181 469.327 740.181 469.917 740.181C470.31 740.181 470.705 740.083 471.097 739.886C471.097 739.886 471.393 739.591 471.983 739.001C472.376 738.804 472.868 738.804 473.459 739.001C474.246 739.198 474.836 739.296 475.229 739.296C475.819 739.099 476.41 738.903 477 738.706C477.788 738.706 478.476 738.509 479.066 738.116C480.246 737.526 481.23 736.739 482.017 735.756C482.805 734.773 483.69 733.789 484.673 732.806C485.656 731.626 486.542 730.446 487.329 729.266C488.313 728.283 489.298 727.201 490.281 726.021C491.068 724.644 491.854 722.874 492.642 720.711C493.035 720.121 493.232 719.531 493.232 718.941C493.232 718.351 493.33 717.761 493.527 717.171C493.724 716.384 493.92 715.696 494.117 715.106C494.51 714.516 494.905 713.828 495.298 713.041C495.495 712.451 495.593 711.959 495.593 711.566C495.593 710.976 495.691 710.484 495.888 710.091C495.888 709.304 495.986 708.616 496.183 708.026C496.381 707.436 496.676 706.748 497.069 705.961C497.461 704.584 497.757 703.306 497.954 702.126C498.347 700.749 498.742 699.274 499.134 697.701C499.725 694.948 499.922 692.096 499.725 689.146C499.725 686.196 499.527 683.344 499.134 680.591C498.937 679.411 498.742 678.034 498.544 676.461C498.347 674.888 498.052 673.511 497.659 672.331C497.266 671.741 496.871 671.249 496.478 670.856C496.281 670.266 495.986 669.676 495.593 669.086C494.805 667.119 494.215 665.743 493.822 664.956C491.068 659.253 488.017 653.844 484.673 648.731C484.083 647.748 483.395 646.666 482.607 645.486C482.017 644.306 481.23 643.224 480.246 642.241C479.263 641.061 478.181 639.979 477 638.996C475.82 638.013 474.737 636.931 473.754 635.751C472.77 634.964 471.786 634.178 470.802 633.391C470.015 632.408 469.032 631.719 467.851 631.326C466.671 630.933 465.49 630.441 464.31 629.851C463.129 629.064 461.949 628.474 460.768 628.081C458.014 626.901 455.161 626.114 452.209 625.721C449.258 625.131 446.405 624.639 443.651 624.246C440.897 623.853 438.043 623.656 435.092 623.656C432.141 623.656 429.19 623.459 426.238 623.066C424.665 623.066 423.189 623.066 421.811 623.066C420.434 622.869 419.058 622.771 417.68 622.771C416.106 622.968 414.531 623.066 412.958 623.066C411.384 623.066 409.809 623.066 408.236 623.066C405.284 623.263 402.333 623.361 399.382 623.361C396.628 623.164 393.774 623.263 390.823 623.656C391.216 624.639 391.316 625.524 391.118 626.311C391.118 627.098 391.021 627.983 390.823 628.966C390.43 629.949 390.233 630.933 390.233 631.916C390.233 632.703 390.135 633.588 389.938 634.571C389.938 636.341 389.938 638.209 389.938 640.176C389.938 642.143 389.445 643.913 388.462 645.486C389.445 645.486 390.921 645.289 392.889 644.896C393.872 644.699 394.758 644.601 395.545 644.601C396.528 644.601 397.513 644.601 398.496 644.601C400.465 644.601 402.431 644.601 404.399 644.601C406.367 644.404 408.333 644.503 410.302 644.896C412.27 645.093 414.138 645.486 415.909 646.076C417.68 646.469 419.548 646.961 421.516 647.551C423.287 647.944 425.058 648.338 426.829 648.731C428.599 648.928 430.37 649.321 432.141 649.911C439.421 651.681 446.405 654.729 453.095 659.056C454.668 660.039 456.144 661.023 457.522 662.006C458.9 662.989 460.276 664.169 461.653 665.546C462.834 666.923 463.622 668.398 464.014 669.971C464.407 671.348 464.802 672.921 465.195 674.691C465.983 678.034 466.375 681.771 466.375 685.901C466.375 687.868 466.375 689.736 466.375 691.506C466.375 693.079 465.983 694.751 465.195 696.521C464.212 699.274 462.539 701.438 460.178 703.011C458.8 703.994 457.324 704.879 455.751 705.666C454.178 706.453 452.602 707.338 451.029 708.321C450.439 708.714 449.946 709.206 449.553 709.796C449.16 710.386 448.57 710.878 447.783 711.271C446.995 711.664 446.307 712.156 445.717 712.746C445.126 713.139 444.438 713.533 443.651 713.926C440.7 715.499 437.06 716.483 432.731 716.876C431.748 717.073 430.863 717.171 430.075 717.171C429.287 717.171 428.402 717.171 427.419 717.171C426.436 717.368 425.451 717.564 424.468 717.761C423.484 717.958 422.499 718.056 421.516 718.056C420.336 718.056 418.762 717.663 416.794 716.876C415.811 716.483 414.728 716.286 413.548 716.286C412.565 716.089 411.58 715.893 410.597 715.696C409.614 715.499 408.728 715.401 407.941 715.401C407.153 715.204 406.268 714.909 405.284 714.516C404.301 714.123 403.416 713.729 402.628 713.336C402.038 712.943 401.35 712.549 400.562 712.156C398.989 711.173 397.316 710.583 395.545 710.386C393.774 709.993 392.004 709.599 390.233 709.206C389.25 709.009 388.265 708.911 387.282 708.911C386.494 708.714 385.609 708.518 384.626 708.321C383.642 707.928 382.657 707.829 381.674 708.026C380.887 708.026 380.001 707.928 379.018 707.731C378.231 707.338 377.543 707.141 376.952 707.141C376.559 706.944 376.264 706.944 376.067 707.141C375.87 707.141 375.574 707.043 375.182 706.846C374.591 706.649 374.296 706.158 374.296 705.371C374.296 704.978 374.886 704.781 376.067 704.781C377.838 704.584 379.608 704.781 381.379 705.371C383.15 705.764 385.018 705.961 386.987 705.961C388.167 705.961 389.74 706.354 391.709 707.141C392.692 707.534 393.577 707.829 394.365 708.026C395.348 708.223 396.333 708.419 397.316 708.616C398.889 708.813 400.365 709.206 401.743 709.796C403.316 710.386 404.792 711.074 406.17 711.861C406.957 712.254 407.645 712.549 408.236 712.746C409.023 712.943 409.909 713.139 410.892 713.336L413.548 714.221C414.336 714.614 414.926 714.811 415.319 714.811C415.712 715.008 416.007 715.008 416.204 714.811C416.597 714.614 416.992 714.614 417.385 714.811C417.777 714.811 418.073 714.909 418.27 715.106C418.663 715.106 419.058 715.106 419.45 715.106C420.434 715.303 421.319 715.303 422.107 715.106C423.09 714.909 424.075 714.811 425.058 714.811C426.829 714.614 428.599 714.516 430.37 714.516C432.338 714.319 434.304 714.024 436.273 713.631C440.011 713.041 443.258 711.566 446.012 709.206C448.963 706.649 452.112 704.584 455.456 703.011C456.834 702.224 458.014 701.536 458.997 700.946C459.98 700.159 460.866 699.078 461.653 697.701C462.441 696.128 462.834 694.456 462.834 692.686C463.031 690.719 463.129 688.851 463.129 687.081V682.066C462.932 681.083 462.637 680.198 462.244 679.411C462.046 678.428 461.851 677.444 461.653 676.461C461.456 675.674 461.358 674.986 461.358 674.396C461.556 673.609 461.653 672.823 461.653 672.036C461.456 671.053 460.67 669.873 459.292 668.496C458.505 667.906 457.522 666.824 456.341 665.251C455.948 664.464 455.456 664.071 454.866 664.071C454.473 663.874 453.783 663.579 452.8 663.186C452.012 662.793 451.324 662.301 450.734 661.711C450.144 661.121 449.456 660.629 448.668 660.236L444.241 657.581C440.897 656.008 437.453 654.434 433.912 652.861C432.141 652.271 430.37 651.779 428.599 651.386C426.829 650.993 425.058 650.599 423.287 650.206C421.319 649.813 419.45 649.419 417.68 649.026C415.909 648.436 414.04 647.944 412.072 647.551C411.089 647.354 410.204 647.256 409.416 647.256C408.826 647.059 408.038 646.961 407.055 646.961C406.268 647.158 405.482 647.256 404.694 647.256C403.907 647.059 403.021 647.059 402.038 647.256C401.055 647.256 400.169 647.354 399.382 647.551C398.594 647.551 397.709 647.551 396.726 647.551C395.743 647.748 394.758 647.846 393.774 647.846C392.987 647.649 392.101 647.649 391.118 647.846C389.938 648.239 388.757 648.534 387.577 648.731C386.396 648.731 385.609 647.944 385.216 646.371C385.216 645.388 385.216 644.503 385.216 643.716C385.413 642.929 385.609 642.044 385.806 641.061C385.806 640.078 385.806 639.193 385.806 638.406C386.003 637.619 386.299 636.833 386.691 636.046ZM386.101 585.011C387.479 585.208 388.757 585.306 389.938 585.306C391.118 585.109 392.397 585.011 393.774 585.011C395.152 585.011 396.431 585.208 397.611 585.601C398.989 585.994 400.365 586.388 401.743 586.781C402.726 587.174 403.711 587.666 404.694 588.256C405.677 588.846 406.662 589.239 407.645 589.436C409.023 589.633 410.204 589.928 411.187 590.321C412.367 590.714 413.548 591.108 414.728 591.501C417.482 592.484 420.238 593.271 422.992 593.861C425.746 594.451 428.599 595.041 431.551 595.631C434.304 596.024 436.961 596.516 439.519 597.106C442.077 597.696 444.734 597.991 447.487 597.991C450.241 597.991 452.997 597.991 455.751 597.991C458.505 597.794 461.261 597.598 464.014 597.401C465.392 597.401 466.671 597.303 467.851 597.106C469.032 596.713 470.31 596.319 471.688 595.926C472.868 595.533 474.049 595.336 475.229 595.336C476.607 595.139 477.885 594.844 479.066 594.451C480.049 594.058 480.934 593.664 481.722 593.271C482.705 592.878 483.69 592.484 484.673 592.091C485.854 591.501 487.034 591.009 488.215 590.616C489.395 590.026 490.576 589.338 491.756 588.551C493.527 587.568 495.396 586.093 497.364 584.126C498.347 583.339 499.232 582.651 500.02 582.061C500.807 581.274 501.693 580.389 502.676 579.406C503.464 578.423 504.152 577.439 504.742 576.456C505.332 575.276 506.02 574.194 506.808 573.211C507.398 572.031 508.086 570.851 508.874 569.671C509.661 568.294 510.252 567.016 510.644 565.836C511.037 564.656 511.235 563.476 511.235 562.296C511.432 561.116 511.727 559.936 512.12 558.756C512.513 557.183 512.908 556.003 513.301 555.216C513.498 554.626 513.596 554.134 513.596 553.741C513.596 553.151 513.693 552.561 513.891 551.971C513.891 550.594 514.088 549.316 514.481 548.136C514.874 546.759 515.071 545.383 515.071 544.006C515.464 541.056 515.366 538.204 514.776 535.451C514.579 534.074 514.383 532.796 514.186 531.616C513.989 530.239 513.693 528.863 513.301 527.486C512.908 525.913 512.513 524.438 512.12 523.061C511.923 521.684 511.53 520.308 510.94 518.931C509.956 516.571 508.481 514.604 506.513 513.031C504.742 511.458 502.774 510.179 500.61 509.196C495.298 506.443 490.083 504.476 484.968 503.296C482.215 502.706 479.459 502.214 476.705 501.821C473.951 501.428 471.195 501.034 468.441 500.641C467.063 500.248 465.687 500.051 464.31 500.051C463.129 500.051 461.751 500.051 460.178 500.051C458.8 499.854 457.424 499.658 456.046 499.461C454.668 499.264 453.292 499.068 451.914 498.871C445.619 498.281 439.224 498.084 432.731 498.281C426.436 498.478 420.138 498.773 413.843 499.166C410.499 499.166 407.153 499.166 403.809 499.166C400.66 499.166 397.414 499.363 394.07 499.756C392.496 499.756 390.921 499.756 389.348 499.756C387.774 499.559 386.199 499.461 384.626 499.461C383.052 499.658 381.477 499.756 379.904 499.756C378.33 499.756 376.755 499.756 375.182 499.756C375.182 501.919 374.984 504.083 374.591 506.246C374.198 508.213 374.099 510.278 374.296 512.441C374.494 514.604 374.689 516.768 374.886 518.931C375.084 520.898 375.379 522.963 375.772 525.126C375.969 525.913 376.067 527.093 376.067 528.666C376.067 529.059 376.067 529.453 376.067 529.846C376.067 530.239 376.165 530.534 376.362 530.731C376.755 531.321 377.543 531.518 378.723 531.321C379.904 530.928 380.789 530.731 381.379 530.731C383.543 530.338 385.806 530.043 388.167 529.846C390.528 529.649 392.791 529.354 394.955 528.961C397.119 528.568 399.284 528.076 401.448 527.486C403.611 526.896 405.777 526.503 407.941 526.306C410.104 526.109 412.27 525.913 414.433 525.716C416.597 525.519 418.762 525.323 420.926 525.126H427.714C428.697 525.126 429.78 525.028 430.96 524.831C432.141 524.634 433.321 524.634 434.502 524.831C436.666 525.224 438.831 525.421 440.995 525.421C443.158 525.421 445.324 525.618 447.487 526.011C451.619 526.404 455.751 527.289 459.883 528.666C461.851 529.453 463.719 530.141 465.49 530.731C467.261 531.321 469.032 532.108 470.802 533.091C472.18 534.074 473.556 535.156 474.934 536.336C475.327 536.729 475.82 537.319 476.41 538.106C477.197 538.696 477.688 539.384 477.885 540.171C478.083 540.564 478.083 540.958 477.885 541.351C477.688 541.548 477.492 541.843 477.295 542.236C477.098 542.629 477 543.023 477 543.416C477 543.613 476.902 543.908 476.705 544.301C476.312 545.874 475.427 547.644 474.049 549.611C473.066 551.381 472.081 553.053 471.097 554.626C470.114 556.003 468.639 557.183 466.671 558.166C465.883 558.559 465.195 559.051 464.605 559.641C464.212 560.034 463.522 560.428 462.539 560.821C461.358 561.214 460.178 561.706 458.997 562.296C458.014 562.689 456.931 563.083 455.751 563.476L453.095 564.361C452.702 564.558 452.209 564.656 451.619 564.656C451.226 564.459 450.832 564.361 450.439 564.361C449.258 564.164 448.078 564.263 446.897 564.656C445.914 564.853 444.831 565.049 443.651 565.246C441.487 565.443 439.322 565.738 437.158 566.131C435.19 566.328 433.124 566.524 430.96 566.721C428.206 567.114 425.55 567.409 422.992 567.606C420.631 567.803 418.172 567.999 415.614 568.196C414.236 568.393 412.958 568.589 411.777 568.786C410.597 568.786 409.318 568.983 407.941 569.376C405.58 569.966 403.416 570.261 401.448 570.261C398.889 570.261 396.431 570.556 394.07 571.146C393.479 571.146 392.889 571.244 392.299 571.441C391.709 571.441 391.118 571.441 390.528 571.441C390.135 571.441 389.643 571.441 389.052 571.441C388.66 571.244 388.265 571.343 387.872 571.736C387.282 572.326 386.889 573.408 386.691 574.981C386.691 576.358 386.691 577.439 386.691 578.226C386.494 579.406 386.299 580.586 386.101 581.766C386.101 582.946 386.101 584.028 386.101 585.011ZM387.282 620.411C387.282 620.214 387.282 619.428 387.282 618.051C387.479 616.478 387.479 615.003 387.282 613.626C387.282 612.053 387.184 610.676 386.987 609.496C386.789 608.316 386.594 607.726 386.396 607.726C386.396 607.726 386.396 608.316 386.396 609.496C386.396 610.676 386.494 612.053 386.691 613.626C386.889 615.199 386.987 616.674 386.987 618.051C387.184 619.428 387.282 620.214 387.282 620.411Z" fill="white"/>
</g>
<defs>
<clipPath id="clip0_173_311">
<rect width="886" height="886" fill="white"/>
</clipPath>
</defs>
</svg>
