<svg width="878" height="885" viewBox="0 0 878 885" fill="none" xmlns="http://www.w3.org/2000/svg">
<g clip-path="url(#clip0_140_114)">
<mask id="mask0_140_114" style="mask-type:luminance" maskUnits="userSpaceOnUse" x="0" y="0" width="878" height="885">
<path d="M878 0H0V885H878V0Z" fill="white"/>
</mask>
<g mask="url(#mask0_140_114)">
<path d="M878 0H-3.68945V313.438H878V0Z" fill="#E61EAA"/>
<path d="M878 313.438H-3.68945V885H878V313.438Z" fill="#640B49"/>
<path d="M482.752 135.553C483.047 136.29 483.047 137.101 482.752 137.986C482.605 138.576 482.531 139.461 482.531 140.641V141.305C482.531 142.338 482.457 143.075 482.31 143.518C482.31 143.813 482.236 144.034 482.088 144.181C482.088 144.329 482.088 144.55 482.088 144.845V146.394C482.088 147.279 482.014 147.943 481.867 148.385C481.867 149.123 481.719 150.081 481.424 151.261L481.203 152.146V152.368V152.589V153.031C481.203 153.621 481.129 153.99 480.981 154.138C480.981 154.285 480.908 154.433 480.76 154.58C480.76 154.58 480.76 154.654 480.76 154.801V155.244C480.465 155.834 480.244 156.424 480.096 157.014C479.948 157.456 479.801 158.046 479.653 158.784C479.211 159.964 478.694 161.144 478.104 162.324C477.514 163.356 476.923 164.463 476.333 165.643C476.333 165.79 476.259 165.864 476.112 165.864C476.112 165.864 476.112 165.938 476.112 166.085C475.522 166.97 475.227 167.634 475.227 168.076C475.079 168.666 474.931 169.183 474.784 169.625C474.636 170.068 474.415 170.584 474.12 171.174C474.12 171.469 473.972 171.764 473.677 172.059C473.382 172.944 473.161 173.534 473.013 173.829L472.349 174.493C472.349 174.64 472.201 174.861 471.906 175.156C471.906 175.304 471.833 175.451 471.685 175.599C471.685 175.599 471.685 175.746 471.685 176.041C471.537 176.189 471.464 176.336 471.464 176.484C471.464 176.631 471.39 176.779 471.242 176.926C470.504 178.254 469.84 179.36 469.25 180.245L469.029 180.466C468.734 181.056 468.439 181.499 468.143 181.794C467.996 181.941 467.848 182.015 467.701 182.015C467.701 182.015 467.627 182.089 467.479 182.236L467.258 182.458V182.679C467.111 182.974 467.037 183.269 467.037 183.564C466.889 183.859 466.742 184.08 466.594 184.228C466.446 184.228 466.299 184.301 466.151 184.449L465.709 184.891C465.414 185.186 465.192 185.408 465.045 185.555C465.045 185.703 464.897 185.924 464.602 186.219C464.307 186.809 464.012 187.178 463.717 187.325C463.421 187.768 463.126 188.21 462.831 188.653C462.536 188.948 462.241 189.316 461.946 189.759C460.618 191.381 459.216 192.93 457.74 194.405C456.412 195.88 455.01 197.429 453.535 199.051C452.059 200.526 450.657 202.075 449.329 203.698C448.001 205.32 446.673 206.943 445.345 208.565C444.902 209.008 444.238 209.819 443.353 210.999C437.155 218.816 429.261 224.938 419.669 229.363H419.448C418.267 229.953 417.308 230.395 416.57 230.69C416.423 230.69 416.275 230.764 416.127 230.911C415.98 230.911 415.832 230.911 415.685 230.911C415.39 231.059 415.168 231.133 415.021 231.133C414.873 231.133 414.652 231.206 414.357 231.354C415.095 231.501 415.759 231.649 416.349 231.796C417.087 231.796 417.824 231.87 418.562 232.018C420.185 232.313 421.809 232.608 423.432 232.903C425.203 233.05 426.9 233.271 428.523 233.566C429.556 233.714 430.515 233.861 431.4 234.009C432.433 234.009 433.466 234.009 434.499 234.009C436.122 234.156 437.672 234.304 439.147 234.451C440.771 234.451 442.394 234.599 444.017 234.894C445.345 235.189 446.599 235.484 447.78 235.779C449.108 235.926 450.288 236.148 451.321 236.443C451.616 236.59 452.059 236.664 452.649 236.664C453.682 236.959 454.715 237.328 455.748 237.77C456.929 238.065 457.666 238.655 457.962 239.54C458.257 239.983 458.257 240.499 457.962 241.089C457.814 241.679 457.593 242.195 457.298 242.638V243.08C456.707 244.113 456.265 245.145 455.969 246.178V247.284L455.305 249.275V249.496C454.863 250.234 454.863 250.75 455.305 251.045L455.748 251.488L455.305 251.709C455.01 251.856 454.641 252.004 454.199 252.151C453.904 252.299 453.608 252.373 453.313 252.373C453.018 252.373 452.723 252.299 452.428 252.151L451.764 251.488C451.764 251.34 451.69 251.266 451.543 251.266C451.543 251.119 451.174 250.898 450.436 250.603H450.215C449.624 250.455 449.034 250.308 448.444 250.16C448.001 250.16 447.411 250.013 446.673 249.718C445.935 249.57 445.124 249.423 444.238 249.275C443.353 249.128 442.467 248.906 441.582 248.611C440.106 248.169 438.705 247.874 437.377 247.726C436.048 247.726 434.573 247.653 432.95 247.505C432.212 247.505 431.548 247.505 430.958 247.505C430.367 247.505 429.703 247.431 428.965 247.284C428.228 247.284 427.416 247.284 426.531 247.284C425.645 247.284 424.834 247.21 424.096 247.063C422.62 247.063 421.145 247.063 419.669 247.063C418.341 247.21 416.939 247.284 415.463 247.284C413.84 247.431 412.143 247.505 410.373 247.505C408.602 247.653 406.905 247.653 405.282 247.505C404.544 247.505 403.806 247.431 403.068 247.284C402.33 247.284 401.593 247.284 400.855 247.284H399.527C397.903 247.284 396.797 247.21 396.206 247.063C395.469 246.768 395.026 246.399 394.878 245.956C394.878 245.514 394.952 245.145 395.1 244.85C395.1 244.408 395.1 243.965 395.1 243.523C395.247 243.08 395.321 242.638 395.321 242.195V240.646C395.469 239.909 395.542 239.245 395.542 238.655C395.69 237.918 395.838 237.18 395.985 236.443L396.649 231.796V231.354C396.649 231.059 396.649 230.69 396.649 230.248C396.797 229.805 397.018 229.436 397.313 229.141C397.756 228.994 398.567 229.068 399.748 229.363H400.633C401.371 229.51 402.478 229.584 403.954 229.584C404.839 229.731 405.724 229.805 406.61 229.805C407.643 229.805 408.602 229.805 409.487 229.805C411.11 229.658 412.586 229.363 413.914 228.92C415.242 228.478 416.496 227.961 417.677 227.371C418.857 226.781 420.038 226.191 421.218 225.601C422.399 225.011 423.653 224.274 424.981 223.389L426.973 222.061C428.597 221.324 430.22 220.218 431.843 218.743C435.68 215.35 439.59 211.368 443.574 206.795C444.017 206.205 444.46 205.615 444.902 205.025C445.345 204.435 445.788 203.845 446.23 203.255L448.222 200.6C448.96 199.715 449.772 198.904 450.657 198.166C451.1 197.724 451.543 197.355 451.985 197.06C452.428 196.618 452.797 196.175 453.092 195.733C454.715 193.52 456.634 191.308 458.847 189.095C459.732 188.063 460.618 187.104 461.503 186.219C462.388 185.186 463.274 184.08 464.159 182.9C464.749 182.163 465.266 181.351 465.709 180.466C466.151 179.581 466.668 178.696 467.258 177.811C467.848 176.926 468.217 176.263 468.365 175.82C469.693 173.755 471.021 171.248 472.349 168.298C472.644 167.56 472.865 166.97 473.013 166.528C473.308 166.085 473.603 165.569 473.898 164.979C474.194 164.241 474.489 163.651 474.784 163.209C475.079 162.619 475.374 161.955 475.669 161.218C476.997 157.973 477.956 155.096 478.547 152.589C479.137 150.229 479.58 147.721 479.875 145.066C480.317 142.411 480.391 139.756 480.096 137.101C479.948 136.216 479.875 135.331 479.875 134.446C479.875 133.414 479.875 132.455 479.875 131.57C480.17 130.39 480.17 129.21 479.875 128.03V123.384C479.875 123.089 479.801 122.794 479.653 122.499C479.653 122.056 479.653 121.614 479.653 121.171C479.653 120.876 479.58 120.581 479.432 120.286C479.432 119.844 479.432 119.475 479.432 119.18C479.432 116.083 479.137 113.354 478.547 110.994C478.252 110.404 478.104 109.961 478.104 109.666C477.956 109.371 477.809 109.003 477.661 108.56C477.661 108.118 477.587 107.749 477.44 107.454C477.292 107.159 477.219 106.864 477.219 106.569C477.219 106.274 477.145 105.979 476.997 105.684C476.997 105.094 476.85 104.356 476.555 103.471C475.669 100.816 474.636 98.1613 473.456 95.5063C472.423 92.8513 471.316 90.2701 470.136 87.7626C469.398 86.5826 468.66 85.4026 467.922 84.2226C467.184 83.0426 466.373 81.8626 465.487 80.6826C463.569 78.1751 461.651 76.2576 459.732 74.9301C457.371 73.3076 454.937 71.8326 452.428 70.5051C449.919 69.0301 447.189 67.9976 444.238 67.4076C443.648 67.4076 443.205 67.3338 442.91 67.1863C441.73 66.8913 440.844 66.7438 440.254 66.7438C439.516 66.5963 438.778 66.5963 438.041 66.7438C437.303 66.7438 436.565 66.8176 435.827 66.9651C434.647 67.2601 433.614 67.4076 432.728 67.4076C431.843 67.5551 430.958 67.7026 430.072 67.8501C429.187 67.8501 428.375 67.9976 427.637 68.2926C421.735 69.9151 417.087 72.5701 413.693 76.2576C409.266 80.8301 406.536 85.4763 405.503 90.1963C405.06 92.1138 404.618 94.0313 404.175 95.9488C403.88 97.8663 403.511 99.7101 403.068 101.48C402.921 102.365 402.773 103.25 402.625 104.135C402.625 105.02 402.478 105.905 402.183 106.79C402.035 107.085 401.961 107.454 401.961 107.896C401.961 108.191 401.888 108.486 401.74 108.781C401.74 108.781 401.666 108.929 401.519 109.224C401.519 109.371 401.445 109.519 401.297 109.666C401.297 109.814 401.297 109.961 401.297 110.109C401.445 110.404 401.74 110.625 402.183 110.773C402.773 110.92 403.216 111.068 403.511 111.215C403.658 111.215 403.806 111.289 403.954 111.436C405.282 111.879 406.536 112.1 407.716 112.1H408.159C408.749 112.1 409.192 112.174 409.487 112.321H409.708H410.373H410.594V112.1V111.879C410.741 111.436 410.815 110.994 410.815 110.551C410.963 109.961 411.11 109.445 411.258 109.003C411.553 108.118 411.774 107.233 411.922 106.348C412.217 105.315 412.512 104.356 412.807 103.471C412.955 103.029 413.102 102.586 413.25 102.144C413.398 101.554 413.545 100.964 413.693 100.374C414.431 98.4563 415.021 96.7601 415.463 95.2851C415.611 94.5476 415.98 93.5888 416.57 92.4088L416.792 92.1876C416.939 91.8926 417.013 91.6713 417.013 91.5238C417.013 91.3763 417.087 91.1551 417.234 90.8601C417.234 90.2701 417.456 89.6063 417.898 88.8688C418.193 88.5738 418.488 88.2788 418.784 87.9838C419.226 87.6888 419.595 87.3938 419.89 87.0988C420.185 86.9513 420.554 86.6563 420.997 86.2138C421.145 86.0663 421.292 85.9926 421.44 85.9926C421.587 85.8451 421.735 85.6976 421.882 85.5501C422.178 85.1076 422.546 84.7388 422.989 84.4438C423.432 84.0013 423.801 83.6326 424.096 83.3376C425.129 82.6001 426.088 82.0838 426.973 81.7888C428.006 81.4938 429.039 81.1988 430.072 80.9038C430.367 80.7563 430.589 80.6826 430.736 80.6826C430.884 80.6826 431.105 80.6088 431.4 80.4613C434.352 79.5763 436.934 79.5026 439.147 80.2401C439.738 80.5351 440.475 80.9776 441.361 81.5676C441.656 81.7151 441.803 81.8626 441.803 82.0101C441.951 82.0101 442.172 82.0838 442.467 82.2313C442.91 82.5263 443.574 82.8213 444.46 83.1163C444.755 83.2638 444.976 83.4113 445.124 83.5588C445.419 83.5588 445.714 83.6326 446.009 83.7801C447.19 84.2226 448.37 84.8126 449.551 85.5501C449.846 85.5501 450.067 85.6238 450.215 85.7713C451.543 86.2138 452.502 86.8776 453.092 87.7626C453.535 88.3526 453.904 89.3113 454.199 90.6388V90.8601C454.494 92.0401 454.641 92.7776 454.641 93.0726C454.789 93.5151 454.863 93.9576 454.863 94.4001C455.01 94.6951 455.158 95.0638 455.305 95.5063C455.305 95.9488 455.379 96.2438 455.527 96.3913C455.674 96.8338 455.748 97.2763 455.748 97.7188C455.748 98.0138 455.822 98.3826 455.969 98.8251C455.969 99.1201 455.969 99.3413 455.969 99.4888C456.117 99.6363 456.043 99.8576 455.748 100.153C455.748 100.3 455.674 100.448 455.527 100.595H455.305C455.305 100.743 455.379 100.89 455.527 101.038V101.701C455.527 102.291 455.232 103.029 454.641 103.914C454.641 103.914 454.494 104.209 454.199 104.799C453.904 105.536 453.535 106.274 453.092 107.011C452.797 107.749 452.502 108.413 452.207 109.003C452.059 109.298 451.912 109.593 451.764 109.888C451.616 110.183 451.395 110.478 451.1 110.773C450.657 111.215 450.362 111.584 450.215 111.879C449.919 112.469 449.551 113.059 449.108 113.649C448.665 114.239 448.149 114.829 447.558 115.419C447.263 115.714 447.042 116.009 446.894 116.304C446.747 116.451 446.525 116.673 446.23 116.968C445.935 117.263 445.64 117.484 445.345 117.631C445.345 117.631 445.197 117.705 444.902 117.853C444.755 118 444.681 118.148 444.681 118.295V118.738C444.386 119.475 444.091 119.991 443.796 120.286L443.353 120.508C442.91 120.95 442.467 121.614 442.025 122.499V122.941C441.877 123.236 441.803 123.458 441.803 123.605C441.803 123.753 441.656 123.974 441.361 124.269C441.213 124.416 440.918 124.49 440.475 124.49H440.254C440.254 124.638 440.18 124.785 440.033 124.933C440.033 125.08 440.033 125.228 440.033 125.375C440.033 125.523 439.959 125.67 439.811 125.818L439.147 127.145L438.483 127.809C437.893 128.841 437.303 129.505 436.713 129.8C436.417 130.095 436.122 130.316 435.827 130.464C435.68 130.464 435.458 130.538 435.163 130.685C434.425 130.98 433.909 131.275 433.614 131.57C433.319 131.865 433.023 132.308 432.728 132.898C432.433 133.488 432.138 133.93 431.843 134.225C431.105 135.11 430.367 135.995 429.629 136.88C428.892 137.618 428.154 138.355 427.416 139.093L425.867 140.641C425.719 140.936 425.572 141.158 425.424 141.305C425.276 141.305 425.055 141.453 424.76 141.748C424.17 142.043 423.801 142.338 423.653 142.633C423.358 142.928 423.063 143.296 422.768 143.739C422.473 144.034 422.178 144.329 421.882 144.624C421.882 144.771 421.735 144.993 421.44 145.288C420.702 146.32 419.964 147.353 419.226 148.385C418.488 149.418 417.751 150.45 417.013 151.483C416.57 151.925 416.349 152.294 416.349 152.589C416.054 153.179 415.832 153.548 415.685 153.695C415.537 153.843 415.463 153.99 415.463 154.138C415.316 154.138 415.242 154.211 415.242 154.359V154.58C415.095 154.728 415.021 154.875 415.021 155.023C414.283 158.415 412.955 161.291 411.037 163.651C410.741 163.946 410.52 164.315 410.373 164.758C410.373 165.2 410.225 165.716 409.93 166.306L409.266 168.298C408.971 168.888 408.676 169.33 408.38 169.625C408.233 170.068 408.085 170.51 407.938 170.953C407.79 171.248 407.569 171.616 407.274 172.059C407.126 172.354 407.052 172.649 407.052 172.944C407.052 173.091 406.979 173.313 406.831 173.608C406.831 173.903 406.683 174.64 406.388 175.82C406.093 176.558 405.872 177.443 405.724 178.475C405.577 179.36 405.429 180.245 405.282 181.13C405.282 181.573 405.208 182.015 405.06 182.458C405.06 182.9 405.06 183.269 405.06 183.564L404.618 185.555C404.47 186.735 404.322 187.915 404.175 189.095C404.027 190.128 403.88 191.234 403.732 192.414C403.585 193.151 403.437 193.889 403.29 194.626C403.29 195.216 403.29 195.88 403.29 196.618C403.437 197.208 403.437 197.798 403.29 198.388C403.142 198.83 402.994 199.346 402.847 199.936C402.847 200.231 402.773 200.526 402.625 200.821C402.625 201.116 402.552 201.485 402.404 201.928C402.404 202.223 402.404 202.591 402.404 203.034C402.257 203.329 402.183 203.624 402.183 203.919C402.183 204.066 402.109 204.288 401.961 204.583C401.666 206.058 401.445 207.09 401.297 207.68C401.15 207.975 401.076 208.196 401.076 208.344C401.076 208.491 401.002 208.639 400.855 208.786C400.707 209.081 400.633 209.45 400.633 209.893C400.633 210.188 400.56 210.483 400.412 210.778C400.412 211.515 400.338 212.105 400.191 212.548C400.191 212.843 400.043 213.285 399.748 213.875C399.453 214.76 399.305 215.424 399.305 215.866V217.415C399.305 218.3 399.232 219.038 399.084 219.628V221.176V223.389C398.789 224.421 398.494 225.011 398.199 225.159V225.38V225.601H397.977C397.977 225.749 397.83 225.823 397.535 225.823C397.535 225.675 397.461 225.601 397.313 225.601C397.166 225.601 397.018 225.528 396.871 225.38C396.723 225.38 396.649 225.306 396.649 225.159C395.911 224.569 395.616 223.61 395.764 222.283C395.764 221.988 395.764 221.766 395.764 221.619C395.911 221.471 395.985 221.25 395.985 220.955C396.28 219.775 396.428 218.964 396.428 218.521V216.973C396.28 216.383 396.206 215.571 396.206 214.539C396.649 212.769 397.018 211.22 397.313 209.893C397.756 208.418 398.272 207.09 398.863 205.91C399.158 204.878 399.453 203.624 399.748 202.149C399.748 201.854 399.748 201.559 399.748 201.264C399.896 200.821 399.969 200.379 399.969 199.936C400.117 199.641 400.191 199.346 400.191 199.051C400.191 198.756 400.264 198.461 400.412 198.166C400.412 196.839 400.338 195.88 400.191 195.29V194.184C400.191 193.446 400.191 192.856 400.191 192.414C400.338 191.971 400.56 191.455 400.855 190.865C401.002 190.423 401.076 189.759 401.076 188.874V187.768C401.371 187.03 401.74 186.661 402.183 186.661C402.035 186.219 401.961 185.85 401.961 185.555C402.109 185.26 402.183 184.965 402.183 184.67C402.33 184.375 402.404 183.933 402.404 183.343C402.552 183.195 402.625 182.826 402.625 182.236C402.625 180.761 402.699 179.655 402.847 178.918C402.847 178.475 402.994 178.106 403.29 177.811C403.585 177.221 403.732 176.926 403.732 176.926V176.263C403.585 175.968 403.511 175.599 403.511 175.156C403.511 174.566 403.658 173.829 403.954 172.944C404.249 172.354 404.396 171.764 404.396 171.174C404.691 170.436 405.134 169.625 405.724 168.74C406.019 168.15 406.167 167.781 406.167 167.634C406.462 167.191 406.683 166.749 406.831 166.306C406.979 165.864 407.2 165.421 407.495 164.979C407.643 164.094 407.938 163.283 408.38 162.545C408.676 161.955 409.118 161.218 409.708 160.333C410.299 159.595 410.668 158.784 410.815 157.899C411.11 157.456 411.332 157.014 411.479 156.571C411.627 155.981 411.848 155.465 412.143 155.023C412.438 154.138 412.66 153.548 412.807 153.253C413.102 152.515 413.398 151.925 413.693 151.483C413.988 151.04 414.283 150.524 414.578 149.934L415.242 149.27C415.537 148.975 415.685 148.754 415.685 148.606C415.832 148.311 415.98 148.016 416.127 147.721C416.423 147.279 416.792 146.836 417.234 146.394C417.677 145.804 418.046 145.288 418.341 144.845C419.079 144.108 419.743 143.444 420.333 142.854C420.923 142.116 421.514 141.379 422.104 140.641C422.251 140.346 422.62 140.051 423.211 139.756C423.211 139.609 423.211 139.535 423.211 139.535C423.358 139.535 423.432 139.461 423.432 139.314C423.875 139.166 424.17 138.871 424.317 138.429C424.465 138.281 424.539 138.208 424.539 138.208C424.539 138.06 424.612 137.913 424.76 137.765C425.203 137.175 425.719 136.659 426.309 136.216C426.604 135.921 426.826 135.774 426.973 135.774C427.121 135.626 427.268 135.405 427.416 135.11L427.859 134.446C428.449 133.856 428.965 133.34 429.408 132.898C429.851 132.308 430.367 131.718 430.958 131.128L431.843 130.464L434.499 127.809C434.942 127.366 435.311 127.071 435.606 126.924C435.901 126.481 436.27 126.039 436.713 125.596C437.155 125.154 437.524 124.711 437.819 124.269V124.048C437.967 123.9 438.041 123.826 438.041 123.826C438.041 123.679 438.114 123.531 438.262 123.384C438.262 123.384 438.409 123.236 438.705 122.941C438.852 122.941 438.926 122.868 438.926 122.72C439.074 122.573 439.147 122.425 439.147 122.278C439.295 122.278 439.369 122.13 439.369 121.835C439.664 121.098 440.033 120.434 440.475 119.844C441.066 119.106 441.508 118.59 441.803 118.295C441.951 118.295 442.025 118.221 442.025 118.074C442.172 118.074 442.32 118 442.467 117.853V117.631L442.689 117.41V116.968C442.836 116.82 442.91 116.673 442.91 116.525C442.91 116.378 442.984 116.23 443.132 116.083C444.017 114.755 444.976 113.796 446.009 113.206C446.304 113.059 446.525 112.838 446.673 112.543V112.321C446.821 111.879 447.189 111.215 447.78 110.33C447.927 110.183 448.001 110.035 448.001 109.888C448.149 109.74 448.296 109.593 448.444 109.445C448.739 109.003 449.034 108.56 449.329 108.118C449.772 107.675 450.067 107.085 450.215 106.348L450.436 106.126C450.436 105.684 450.657 105.241 451.1 104.799C451.395 104.504 451.616 104.209 451.764 103.914C451.912 103.619 452.059 103.324 452.207 103.029C452.207 102.881 452.28 102.734 452.428 102.586C452.723 101.996 452.871 101.554 452.871 101.259C452.871 100.669 452.797 100.226 452.649 99.9313V99.2676C452.502 98.6776 452.428 98.1613 452.428 97.7188C452.428 97.1288 452.354 96.5388 452.207 95.9488C452.207 94.9163 452.133 94.1788 451.985 93.7363C451.985 92.7038 451.838 91.9663 451.543 91.5238C451.543 91.5238 451.469 91.4501 451.321 91.3026C451.321 91.1551 451.247 91.0813 451.1 91.0813C451.1 90.9338 451.1 90.7863 451.1 90.6388C451.1 90.6388 451.1 90.4176 451.1 89.9751V89.5326C450.805 89.0901 450.362 88.6476 449.772 88.2051C449.624 88.2051 449.477 88.1313 449.329 87.9838C448.591 87.6888 447.927 87.3938 447.337 87.0988C446.894 86.8038 446.304 86.5088 445.566 86.2138C444.976 85.9188 444.607 85.7713 444.46 85.7713L443.353 85.1076C442.763 84.8126 442.172 84.5913 441.582 84.4438C440.992 84.1488 440.402 83.8538 439.811 83.5588C438.778 83.1163 437.967 82.8213 437.377 82.6738C436.786 82.5263 436.048 82.5263 435.163 82.6738L434.056 82.8951C432.581 83.1901 431.105 83.5588 429.629 84.0013C428.301 84.2963 427.047 84.9601 425.867 85.9926C424.243 87.4676 422.842 88.9426 421.661 90.4176C420.481 91.7451 419.521 93.1463 418.784 94.6213C418.193 95.6538 417.677 97.0551 417.234 98.8251C417.234 99.1201 417.16 99.3413 417.013 99.4888C417.013 99.4888 417.013 99.6363 417.013 99.9313C416.718 101.111 416.423 102.218 416.127 103.25C415.832 104.135 415.537 105.168 415.242 106.348C415.095 106.643 414.873 107.233 414.578 108.118C413.988 109.74 413.619 111.215 413.471 112.543V112.985C413.766 113.87 413.693 114.534 413.25 114.976C412.807 115.419 412.069 115.493 411.037 115.198H410.815C410.077 115.198 409.561 115.124 409.266 114.976C407.643 114.976 405.946 114.755 404.175 114.313C403.88 114.165 403.658 114.091 403.511 114.091C403.363 114.091 403.142 114.018 402.847 113.87C401.961 113.575 401.445 113.428 401.297 113.428C401.15 113.28 401.002 113.206 400.855 113.206C400.707 113.354 400.633 113.575 400.633 113.87C400.633 114.018 400.56 114.165 400.412 114.313V114.534L400.191 115.419L399.748 114.755C399.6 114.608 399.527 114.46 399.527 114.313C399.084 114.165 398.863 113.796 398.863 113.206C398.715 112.911 398.641 112.764 398.641 112.764C398.789 112.616 398.863 112.469 398.863 112.321C398.863 112.174 398.936 112.026 399.084 111.879C399.084 111.584 399.01 111.289 398.863 110.994C398.715 110.699 398.567 110.404 398.42 110.109C398.272 110.109 398.199 110.035 398.199 109.888L397.756 109.224H398.42H399.084C399.084 109.076 399.01 109.003 398.863 109.003C398.863 108.855 398.863 108.708 398.863 108.56C398.863 107.528 399.01 106.274 399.305 104.799C399.748 103.766 399.969 102.66 399.969 101.48L400.633 98.1613C400.781 97.5713 400.929 97.0551 401.076 96.6126C401.224 96.0226 401.371 95.4326 401.519 94.8426C401.814 94.1051 401.961 93.4413 401.961 92.8513C402.109 92.1138 402.33 91.3763 402.625 90.6388C402.773 90.3438 402.847 90.0488 402.847 89.7538C402.847 89.4588 402.921 89.1638 403.068 88.8688C403.363 87.8363 403.585 86.8776 403.732 85.9926C404.027 85.1076 404.396 84.2226 404.839 83.3376C405.282 82.4526 405.798 81.5676 406.388 80.6826C406.979 79.7976 407.643 78.9126 408.38 78.0276L409.044 77.1426C409.782 76.1101 410.52 75.2251 411.258 74.4876C412.143 73.6026 413.102 72.7913 414.135 72.0538C415.316 71.3163 416.349 70.6526 417.234 70.0626C418.12 69.3251 419.079 68.6613 420.112 68.0713L420.554 67.8501C421.735 67.2601 422.62 66.8913 423.211 66.7438C423.653 66.7438 424.022 66.6701 424.317 66.5226C424.907 66.5226 425.35 66.4488 425.645 66.3013C425.645 66.3013 425.719 66.2276 425.867 66.0801C426.014 66.0801 426.088 66.0801 426.088 66.0801C426.236 65.9326 426.457 65.8588 426.752 65.8588H427.416H427.859C428.006 65.8588 428.08 65.8588 428.08 65.8588C428.228 65.7113 428.375 65.6376 428.523 65.6376C428.67 65.4901 428.892 65.4163 429.187 65.4163C429.777 65.1213 430.367 64.9738 430.958 64.9738C431.4 64.9738 431.843 64.9738 432.286 64.9738C432.876 64.8263 433.392 64.7526 433.835 64.7526C434.573 64.6051 435.237 64.5313 435.827 64.5313C436.417 64.3838 437.081 64.3101 437.819 64.3101C440.18 64.3101 442.91 64.7526 446.009 65.6376C446.304 65.7851 446.525 65.9326 446.673 66.0801C446.968 66.0801 447.263 66.1538 447.558 66.3013C449.624 66.7438 451.543 67.4076 453.313 68.2926C453.904 68.5876 454.42 68.9563 454.863 69.3988C455.453 69.6938 455.97 69.9888 456.412 70.2838C456.855 70.5788 457.224 70.8738 457.519 71.1688C457.962 71.4638 458.404 71.7588 458.847 72.0538L459.29 72.2751C460.175 72.8651 461.06 73.4551 461.946 74.0451C462.979 74.6351 463.864 75.2988 464.602 76.0363C465.045 76.4788 465.414 76.9213 465.709 77.3638C466.151 77.8063 466.52 78.1751 466.815 78.4701L467.037 78.6913C467.184 78.8388 467.258 78.9863 467.258 79.1338C467.258 79.1338 467.332 79.2076 467.479 79.3551C468.365 80.0926 468.955 80.9038 469.25 81.7888C469.25 81.9363 469.25 82.0101 469.25 82.0101C469.398 82.0101 469.472 82.0838 469.472 82.2313V82.4526C469.472 82.8951 469.545 83.1901 469.693 83.3376L470.136 83.7801C470.578 84.2226 470.947 84.6651 471.242 85.1076L471.906 86.4351C472.054 86.5826 472.128 86.7301 472.128 86.8776C472.275 87.0251 472.423 87.1726 472.57 87.3201C472.865 87.7626 473.161 88.4263 473.456 89.3113C473.751 89.9013 473.972 90.2701 474.12 90.4176C474.12 90.5651 474.267 90.9338 474.562 91.5238C475.153 92.1138 475.448 92.6301 475.448 93.0726C475.595 93.2201 475.669 93.5151 475.669 93.9576C475.374 94.2526 475.374 94.4738 475.669 94.6213C475.669 94.9163 475.817 95.3588 476.112 95.9488L476.333 96.6126C476.923 97.7926 477.292 98.7513 477.44 99.4888C477.587 99.7838 477.661 100.079 477.661 100.374C477.809 100.669 477.956 100.964 478.104 101.259L478.768 102.586C478.768 102.881 478.768 103.103 478.768 103.25C478.916 103.25 478.989 103.398 478.989 103.693C479.137 104.135 479.284 104.578 479.432 105.02C479.58 105.315 479.727 105.684 479.875 106.126C479.875 106.864 479.948 107.38 480.096 107.675C480.096 107.97 480.096 108.339 480.096 108.781C480.244 109.076 480.317 109.371 480.317 109.666C481.055 112.321 481.424 114.829 481.424 117.189C481.572 117.631 481.645 118.148 481.645 118.738C481.645 119.18 481.793 119.696 482.088 120.286C482.383 121.024 482.457 121.614 482.31 122.056C482.31 122.351 482.236 122.794 482.088 123.384V123.826C482.088 124.859 482.162 125.596 482.31 126.039V127.145C482.457 127.588 482.531 128.325 482.531 129.358V130.685V132.234V134.446C482.531 134.889 482.605 135.258 482.752 135.553ZM399.305 231.796H399.084C398.936 232.091 398.863 232.829 398.863 234.009V235.115C398.715 235.41 398.641 235.779 398.641 236.221C398.641 236.516 398.567 236.811 398.42 237.106C398.272 237.991 398.125 238.876 397.977 239.761C397.977 240.646 397.977 241.531 397.977 242.416L397.756 242.859V244.85C397.903 245.145 398.199 245.366 398.641 245.514H403.068H405.946H407.495C409.561 245.661 411.479 245.735 413.25 245.735C415.021 245.735 416.865 245.588 418.784 245.293C420.849 245.145 422.842 245.145 424.76 245.293C426.678 245.293 428.67 245.366 430.736 245.514H432.728C435.237 245.661 437.672 245.956 440.033 246.399C442.541 246.841 445.197 247.431 448.001 248.169C448.296 248.169 448.739 248.316 449.329 248.611C449.624 248.759 449.993 248.906 450.436 249.054C451.026 249.201 451.469 249.201 451.764 249.054L451.985 249.275L454.863 239.319C454.568 239.171 454.199 239.098 453.756 239.098C453.461 239.098 453.166 239.024 452.871 238.876C452.133 238.581 451.469 238.36 450.879 238.213C450.288 238.065 449.624 237.918 448.886 237.77C447.706 237.475 446.599 237.328 445.566 237.328C444.533 237.18 443.427 237.033 442.246 236.885H441.803L436.491 236.221C435.016 236.074 433.54 236 432.064 236C430.736 235.853 429.261 235.631 427.637 235.336C426.457 235.041 425.203 234.894 423.875 234.894C422.546 234.746 421.292 234.525 420.112 234.23C417.16 233.788 414.062 233.345 410.815 232.903C407.716 232.46 404.618 232.091 401.519 231.796L399.305 231.575V231.796Z" fill="white"/>
<path d="M406.241 635.356C405.258 633.979 404.962 632.209 405.355 630.046C405.748 627.883 406.143 626.113 406.536 624.736C406.536 624.343 406.634 624.048 406.831 623.851C407.028 623.458 406.929 623.163 406.536 622.966C406.339 622.769 405.848 622.671 405.06 622.671C404.273 622.278 403.782 621.884 403.585 621.491C402.994 620.508 402.699 619.328 402.699 617.951C402.897 616.378 402.994 615.099 402.994 614.116C402.994 613.133 402.897 612.346 402.699 611.756C402.502 610.969 402.306 610.183 402.109 609.396C401.912 608.609 401.814 607.921 401.814 607.331C401.814 606.544 401.716 605.659 401.519 604.676C401.519 604.086 401.421 603.496 401.224 602.906C401.026 602.316 400.831 601.726 400.633 601.136C400.436 600.349 400.338 599.661 400.338 599.071C400.536 598.284 400.633 597.498 400.633 596.711C400.831 594.941 400.831 593.269 400.633 591.696C400.633 590.123 400.831 588.451 401.224 586.681C401.617 584.911 401.814 583.239 401.814 581.666C402.011 579.896 402.207 578.126 402.404 576.356C402.404 575.373 402.404 574.488 402.404 573.701C402.404 572.914 402.502 572.029 402.699 571.046C402.699 570.063 403.192 569.276 404.175 568.686C404.962 568.489 405.748 568.391 406.536 568.391C407.323 568.391 408.012 568.391 408.602 568.391C409.585 568.194 410.47 568.096 411.258 568.096C412.241 568.096 413.226 567.998 414.209 567.801C417.553 567.408 420.8 567.113 423.948 566.916C427.292 566.719 430.638 566.326 433.983 565.736C437.327 565.146 440.673 564.654 444.017 564.261C447.558 563.868 451.002 563.474 454.346 563.081C455.92 562.884 457.593 562.688 459.363 562.491C461.134 562.294 462.807 562.098 464.381 561.901C465.954 561.704 467.529 561.606 469.103 561.606C470.873 561.606 472.447 561.311 473.825 560.721C475.203 560.131 476.579 559.541 477.956 558.951C479.334 558.361 480.71 557.673 482.088 556.886C484.842 555.116 486.908 552.953 488.286 550.396C489.269 549.019 490.057 547.741 490.647 546.561C491.237 545.184 491.827 543.709 492.418 542.136C493.205 540.759 493.303 539.678 492.713 538.891C492.32 538.301 491.73 537.711 490.942 537.121C490.352 536.531 489.761 536.039 489.171 535.646C487.991 534.663 486.712 533.876 485.335 533.286C483.957 532.499 482.481 531.811 480.908 531.221C479.334 530.631 477.759 530.139 476.186 529.746C474.612 529.156 473.037 528.664 471.464 528.271C469.89 527.878 468.315 527.583 466.742 527.386C465.168 527.189 463.593 527.189 462.02 527.386C460.446 527.583 458.871 527.583 457.298 527.386C455.724 526.993 454.149 526.796 452.576 526.796H442.246C440.475 526.993 438.705 527.189 436.934 527.386C435.163 527.583 433.49 527.779 431.917 527.976C428.573 528.369 425.129 528.959 421.587 529.746C418.243 530.336 414.897 530.828 411.553 531.221C409.98 531.614 408.307 531.909 406.536 532.106C404.765 532.303 402.994 532.598 401.224 532.991C400.24 533.188 398.863 533.483 397.092 533.876C395.518 534.073 394.238 533.876 393.255 533.286C392.075 532.696 391.582 531.713 391.78 530.336C391.977 528.763 391.977 527.484 391.78 526.501C391.582 525.714 391.287 525.124 390.894 524.731C390.697 524.141 390.501 523.551 390.304 522.961C389.911 520.994 389.714 519.519 389.714 518.536C388.926 514.799 388.828 511.554 389.419 508.801C389.419 508.014 389.516 507.326 389.714 506.736C389.911 505.949 390.107 505.163 390.304 504.376C390.501 504.179 390.599 503.983 390.599 503.786C390.402 503.589 390.304 503.393 390.304 503.196C390.304 502.803 390.304 502.508 390.304 502.311C390.501 502.114 390.599 501.819 390.599 501.426C390.796 500.639 390.796 499.951 390.599 499.361C390.402 498.771 390.304 498.181 390.304 497.591C390.697 496.804 391.189 496.509 391.78 496.706C392.37 496.706 392.96 496.706 393.55 496.706H403.585C405.158 496.509 406.733 496.509 408.307 496.706C409.88 496.706 411.455 496.706 413.029 496.706C413.816 496.509 414.504 496.509 415.095 496.706C415.882 496.706 416.768 496.608 417.751 496.411C418.538 496.411 419.226 496.313 419.817 496.116C420.604 495.919 421.39 495.723 422.178 495.526C423.948 495.329 425.719 495.329 427.49 495.526C429.261 495.723 431.031 495.821 432.802 495.821C434.375 495.624 436.048 495.526 437.819 495.526C439.59 495.329 441.361 495.231 443.132 495.231C446.476 495.231 449.822 495.133 453.166 494.936C456.707 494.739 460.151 494.739 463.495 494.936C465.069 494.936 466.644 495.133 468.217 495.526C469.791 495.723 471.366 495.821 472.939 495.821C474.907 495.821 476.383 495.919 477.366 496.116C478.349 496.313 479.137 496.509 479.727 496.706C480.515 496.903 481.4 497.099 482.383 497.296C485.727 497.886 489.073 498.279 492.418 498.476C495.959 498.673 499.403 499.066 502.747 499.656C504.32 500.049 505.796 500.541 507.174 501.131C508.747 501.524 510.322 502.016 511.896 502.606C515.044 503.589 517.896 504.573 520.455 505.556C521.045 505.949 521.635 506.244 522.225 506.441C522.816 506.638 523.308 506.933 523.701 507.326C524.291 507.719 524.784 508.211 525.177 508.801C525.767 509.194 526.357 509.588 526.947 509.981C527.735 510.374 528.423 510.768 529.013 511.161C529.603 511.358 530.096 511.751 530.489 512.341C532.062 513.914 533.047 515.193 533.44 516.176C534.03 517.553 534.423 519.028 534.621 520.601C535.013 521.978 535.309 523.354 535.506 524.731C535.703 525.714 535.899 526.599 536.096 527.386C536.294 528.173 536.489 528.959 536.686 529.746C537.079 530.533 537.374 531.221 537.572 531.811C537.965 532.401 538.26 533.089 538.457 533.876V538.006C538.26 539.776 538.26 541.448 538.457 543.021C538.457 544.004 538.359 544.889 538.162 545.676C538.162 546.266 538.064 546.954 537.867 547.741C537.67 548.724 537.474 549.708 537.277 550.691C537.277 551.674 537.179 552.658 536.982 553.641C536.589 555.214 536.194 556.788 535.801 558.361C535.408 559.934 535.013 561.508 534.621 563.081C534.423 563.868 534.228 564.654 534.03 565.441C534.03 566.228 533.833 567.014 533.44 567.801C533.047 568.588 532.555 569.374 531.964 570.161C531.374 570.751 530.882 571.439 530.489 572.226C528.718 574.979 526.947 577.634 525.177 580.191C523.603 582.551 521.438 584.616 518.684 586.386C517.306 587.369 516.028 588.353 514.847 589.336C513.667 590.123 512.289 590.909 510.715 591.696C509.142 592.089 508.059 592.581 507.469 593.171C506.681 593.564 506.091 593.859 505.698 594.056C505.305 594.253 504.715 594.548 503.928 594.941C500.583 595.924 497.237 596.711 493.893 597.301C490.745 597.891 487.498 598.481 484.154 599.071C480.81 599.661 477.366 600.054 473.825 600.251C470.48 600.448 467.134 600.251 463.79 599.661C460.446 599.268 457.1 598.776 453.756 598.186C450.412 597.399 447.066 596.613 443.722 595.826C440.378 595.039 437.032 594.253 433.687 593.466C430.539 592.679 427.292 591.696 423.948 590.516C420.604 588.943 417.553 587.861 414.799 587.271C412.831 586.878 411.258 586.681 410.077 586.681C409.685 586.681 408.995 586.681 408.012 586.681C407.224 586.484 406.634 586.583 406.241 586.976C405.848 587.369 405.748 587.959 405.946 588.746C406.143 589.533 406.339 590.123 406.536 590.516C406.733 591.303 406.831 592.089 406.831 592.876C407.028 593.663 407.224 594.449 407.421 595.236C407.814 596.023 408.109 596.809 408.307 597.596C408.504 598.186 408.7 598.973 408.897 599.956C409.094 600.743 409.192 601.529 409.192 602.316C409.192 602.906 409.389 603.594 409.782 604.381C410.175 605.954 410.57 607.626 410.963 609.396C411.356 610.969 411.553 612.641 411.553 614.411C411.553 616.181 411.455 617.558 411.258 618.541C411.258 620.114 411.75 620.901 412.734 620.901C414.307 621.098 415.98 621.196 417.751 621.196C419.521 620.999 421.194 620.803 422.768 620.606C424.341 620.606 425.817 620.606 427.195 620.606C428.768 620.606 430.343 620.508 431.917 620.311C432.704 620.311 433.392 620.409 433.983 620.606C434.77 620.606 435.556 620.606 436.344 620.606C437.327 620.606 438.114 620.508 438.705 620.311C439.295 620.114 440.082 620.114 441.066 620.311C444.214 620.901 447.558 621.196 451.1 621.196C451.888 621.393 452.576 621.393 453.166 621.196C453.756 620.999 454.444 620.803 455.232 620.606C456.215 620.606 457.002 620.704 457.593 620.901C458.38 621.098 459.266 621.294 460.249 621.491C461.822 621.688 463.397 621.786 464.971 621.786C466.742 621.786 468.415 621.983 469.988 622.376C473.137 622.573 476.283 623.359 479.432 624.736C480.22 625.129 480.908 625.523 481.498 625.916C482.088 626.113 482.776 626.309 483.564 626.506C484.154 626.703 484.647 626.899 485.039 627.096C485.432 627.096 485.727 627.489 485.925 628.276C486.712 627.883 487.303 627.784 487.696 627.981C487.893 628.178 487.991 628.374 487.991 628.571C488.188 628.768 488.384 628.964 488.581 629.161C488.974 629.358 489.269 629.456 489.466 629.456C489.664 629.456 489.959 629.554 490.352 629.751C490.745 629.948 490.942 630.144 490.942 630.341C491.139 630.341 491.434 630.439 491.827 630.636C492.22 631.029 492.615 631.423 493.008 631.816C493.401 632.209 493.795 632.603 494.188 632.996C494.581 633.193 494.876 633.389 495.074 633.586C495.271 633.783 495.566 633.979 495.959 634.176C496.747 634.569 496.942 635.061 496.549 635.651C496.942 636.044 497.337 636.241 497.73 636.241C498.123 636.044 498.517 636.143 498.91 636.536C499.303 636.929 499.698 637.421 500.091 638.011C500.681 638.601 501.174 639.093 501.567 639.486C502.55 640.469 503.337 641.551 503.928 642.731C504.518 643.714 505.206 644.796 505.993 645.976C507.174 648.139 508.552 650.204 510.125 652.171C511.699 653.941 512.979 655.908 513.962 658.071C514.355 659.054 514.552 659.841 514.552 660.431C514.552 661.021 514.847 661.709 515.437 662.496C516.028 662.693 516.323 662.889 516.323 663.086L517.208 664.856C517.601 665.249 517.896 665.741 518.094 666.331C518.486 666.724 518.881 667.118 519.274 667.511C519.864 668.691 520.159 669.969 520.159 671.346C520.357 672.526 520.652 673.706 521.045 674.886C521.242 675.279 521.438 675.771 521.635 676.361C521.832 676.754 521.93 677.246 521.93 677.836C521.93 678.623 521.832 679.311 521.635 679.901C521.635 680.491 521.635 681.278 521.635 682.261C521.832 683.048 521.832 684.031 521.635 685.211C521.635 686.391 521.832 687.374 522.225 688.161C522.618 688.554 522.816 688.653 522.816 688.456C522.816 688.259 522.913 688.456 523.111 689.046V691.111C523.111 692.881 522.913 694.159 522.52 694.946C521.733 697.699 520.947 700.453 520.159 703.206C519.372 705.763 518.586 708.418 517.798 711.171C517.601 711.761 517.503 712.449 517.503 713.236C517.503 713.826 517.406 714.416 517.208 715.006C517.011 715.596 516.815 716.088 516.618 716.481C516.421 716.874 516.323 717.366 516.323 717.956C516.125 719.529 515.733 720.808 515.142 721.791C514.552 722.774 513.864 723.954 513.076 725.331C512.289 726.314 511.503 727.396 510.715 728.576C509.928 729.756 509.142 730.838 508.354 731.821C507.371 732.804 506.486 733.788 505.698 734.771C504.911 735.951 503.927 736.836 502.747 737.426C501.566 738.016 500.288 738.409 498.91 738.606C497.532 738.999 496.254 739.393 495.074 739.786C493.5 740.179 491.827 740.573 490.057 740.966C488.483 741.359 486.908 741.753 485.335 742.146C479.432 743.719 473.53 744.604 467.627 744.801C461.527 745.194 455.329 745.489 449.034 745.686C442.934 745.883 436.836 745.686 430.736 745.096C427.588 744.703 424.539 744.211 421.587 743.621C418.636 743.031 415.587 742.539 412.438 742.146C409.487 741.753 406.536 741.261 403.585 740.671C400.831 740.278 397.977 739.884 395.026 739.491C394.043 739.294 392.862 739.196 391.484 739.196C390.304 739.196 389.419 738.803 388.828 738.016C388.041 737.033 387.746 735.853 387.943 734.476C388.336 733.099 388.336 731.821 387.943 730.641C387.55 729.264 387.45 727.986 387.648 726.806C387.845 725.429 387.943 724.053 387.943 722.676C387.943 721.299 387.845 719.923 387.648 718.546C387.648 717.169 387.746 715.891 387.943 714.711C388.14 713.728 388.238 712.646 388.238 711.466C388.041 710.876 388.041 710.286 388.238 709.696C388.435 709.106 388.533 708.516 388.533 707.926C388.731 704.976 388.731 702.026 388.533 699.076C388.533 697.109 388.828 695.044 389.419 692.881C389.811 691.504 389.811 690.226 389.419 689.046C389.221 687.866 389.321 686.588 389.714 685.211C390.107 683.834 390.402 682.654 390.599 681.671C390.992 680.491 391.189 679.213 391.189 677.836C391.189 677.443 391.189 676.951 391.189 676.361C391.189 675.574 391.387 674.984 391.78 674.591C392.172 674.198 392.567 674.099 392.96 674.296C393.55 674.493 393.943 674.788 394.141 675.181C394.533 675.574 394.633 676.164 394.436 676.951C394.238 677.738 394.141 678.426 394.141 679.016C393.943 679.803 393.845 680.589 393.845 681.376C393.845 681.966 393.748 682.654 393.55 683.441C393.353 685.014 393.157 686.489 392.96 687.866C392.96 689.243 392.96 690.718 392.96 692.291C392.96 693.668 392.862 695.044 392.665 696.421C392.665 697.601 392.665 698.879 392.665 700.256C392.468 701.829 392.37 703.403 392.37 704.976C392.37 706.549 392.272 708.123 392.075 709.696C391.877 712.646 391.682 715.694 391.484 718.841C391.484 721.791 391.582 724.741 391.78 727.691C391.78 728.478 391.78 729.166 391.78 729.756C391.977 730.543 392.075 731.428 392.075 732.411C392.075 732.804 392.075 733.394 392.075 734.181C392.075 735.164 392.272 735.853 392.665 736.246C393.058 736.639 393.943 736.836 395.321 736.836C396.304 737.033 397.092 737.131 397.682 737.131C398.47 737.131 399.355 737.229 400.338 737.426C401.716 737.819 402.994 738.114 404.175 738.311C405.553 738.704 406.929 739.098 408.307 739.491C409.88 739.884 411.356 740.081 412.734 740.081C414.111 740.081 415.587 740.278 417.16 740.671C420.309 741.261 423.358 741.753 426.309 742.146C429.261 742.736 432.31 743.228 435.458 743.621C438.212 744.014 441.066 744.014 444.017 743.621C445.59 743.424 447.166 743.326 448.739 743.326C450.51 743.523 452.28 743.621 454.051 743.621C455.429 743.621 456.805 743.523 458.183 743.326C459.561 743.326 461.036 743.326 462.61 743.326C464.183 743.326 465.659 743.326 467.037 743.326C468.415 743.326 469.89 743.228 471.464 743.031C472.841 742.834 474.12 742.441 475.3 741.851C476.678 741.261 477.956 740.966 479.137 740.966C479.727 740.966 480.22 741.064 480.613 741.261C481.203 741.458 481.695 741.556 482.088 741.556C483.466 741.359 484.842 740.868 486.22 740.081C486.81 739.884 487.303 739.688 487.696 739.491C488.286 739.491 488.876 739.491 489.466 739.491C489.859 739.491 490.254 739.393 490.647 739.196C490.647 739.196 490.942 738.901 491.532 738.311C491.925 738.114 492.418 738.114 493.008 738.311C493.795 738.508 494.386 738.606 494.779 738.606C495.369 738.409 495.959 738.213 496.549 738.016C497.337 738.016 498.025 737.819 498.615 737.426C499.796 736.836 500.779 736.049 501.567 735.066C502.354 734.083 503.239 733.099 504.223 732.116C505.206 730.936 506.091 729.756 506.879 728.576C507.862 727.593 508.847 726.511 509.83 725.331C510.618 723.954 511.403 722.184 512.191 720.021C512.584 719.431 512.781 718.841 512.781 718.251C512.781 717.661 512.879 717.071 513.076 716.481C513.274 715.694 513.469 715.006 513.667 714.416C514.06 713.826 514.454 713.138 514.847 712.351C515.045 711.761 515.142 711.269 515.142 710.876C515.142 710.286 515.24 709.794 515.437 709.401C515.437 708.614 515.535 707.926 515.733 707.336C515.93 706.746 516.225 706.058 516.618 705.271C517.011 703.894 517.306 702.616 517.503 701.436C517.896 700.059 518.291 698.584 518.684 697.011C519.274 694.258 519.471 691.406 519.274 688.456C519.274 685.506 519.077 682.654 518.684 679.901C518.486 678.721 518.291 677.344 518.094 675.771C517.896 674.198 517.601 672.821 517.208 671.641C516.815 671.051 516.421 670.559 516.028 670.166C515.83 669.576 515.535 668.986 515.142 668.396C514.355 666.429 513.764 665.053 513.372 664.266C510.618 658.563 507.567 653.154 504.223 648.041C503.632 647.058 502.944 645.976 502.157 644.796C501.566 643.616 500.779 642.534 499.796 641.551C498.813 640.371 497.73 639.289 496.549 638.306C495.369 637.323 494.286 636.241 493.303 635.061C492.32 634.274 491.335 633.488 490.352 632.701C489.564 631.718 488.581 631.029 487.4 630.636C486.22 630.243 485.039 629.751 483.859 629.161C482.678 628.374 481.498 627.784 480.317 627.391C477.563 626.211 474.71 625.424 471.759 625.031C468.807 624.441 465.954 623.949 463.2 623.556C460.446 623.163 457.593 622.966 454.641 622.966C451.69 622.966 448.739 622.769 445.788 622.376C444.214 622.376 442.739 622.376 441.361 622.376C439.983 622.179 438.607 622.081 437.229 622.081C435.656 622.278 434.08 622.376 432.507 622.376C430.934 622.376 429.358 622.376 427.785 622.376C424.834 622.573 421.882 622.671 418.931 622.671C416.177 622.474 413.324 622.573 410.373 622.966C410.765 623.949 410.865 624.834 410.668 625.621C410.668 626.408 410.57 627.293 410.373 628.276C409.98 629.259 409.782 630.243 409.782 631.226C409.782 632.013 409.685 632.898 409.487 633.881C409.487 635.651 409.487 637.519 409.487 639.486C409.487 641.453 408.995 643.223 408.012 644.796C408.995 644.796 410.47 644.599 412.438 644.206C413.422 644.009 414.307 643.911 415.095 643.911C416.078 643.911 417.063 643.911 418.046 643.911C420.014 643.911 421.98 643.911 423.948 643.911C425.916 643.714 427.883 643.813 429.851 644.206C431.819 644.403 433.687 644.796 435.458 645.386C437.229 645.779 439.098 646.271 441.066 646.861C442.836 647.254 444.607 647.648 446.378 648.041C448.149 648.238 449.919 648.631 451.69 649.221C458.971 650.991 465.954 654.039 472.644 658.366C474.217 659.349 475.693 660.333 477.071 661.316C478.449 662.299 479.825 663.479 481.203 664.856C482.383 666.233 483.171 667.708 483.564 669.281C483.957 670.658 484.351 672.231 484.744 674.001C485.532 677.344 485.925 681.081 485.925 685.211C485.925 687.178 485.925 689.046 485.925 690.816C485.925 692.389 485.532 694.061 484.744 695.831C483.761 698.584 482.088 700.748 479.727 702.321C478.349 703.304 476.874 704.189 475.3 704.976C473.727 705.763 472.152 706.648 470.578 707.631C469.988 708.024 469.496 708.516 469.103 709.106C468.71 709.696 468.119 710.188 467.332 710.581C466.544 710.974 465.856 711.466 465.266 712.056C464.676 712.449 463.988 712.843 463.2 713.236C460.249 714.809 456.61 715.793 452.28 716.186C451.297 716.383 450.412 716.481 449.624 716.481C448.837 716.481 447.951 716.481 446.968 716.481C445.985 716.678 445 716.874 444.017 717.071C443.034 717.268 442.049 717.366 441.066 717.366C439.885 717.366 438.312 716.973 436.344 716.186C435.36 715.793 434.278 715.596 433.097 715.596C432.114 715.399 431.129 715.203 430.146 715.006C429.163 714.809 428.277 714.711 427.49 714.711C426.702 714.514 425.817 714.219 424.834 713.826C423.851 713.433 422.965 713.039 422.178 712.646C421.587 712.253 420.899 711.859 420.112 711.466C418.538 710.483 416.865 709.893 415.095 709.696C413.324 709.303 411.553 708.909 409.782 708.516C408.799 708.319 407.814 708.221 406.831 708.221C406.043 708.024 405.158 707.828 404.175 707.631C403.192 707.238 402.207 707.139 401.224 707.336C400.436 707.336 399.551 707.238 398.567 707.041C397.78 706.648 397.092 706.451 396.502 706.451C396.109 706.254 395.814 706.254 395.616 706.451C395.419 706.451 395.124 706.353 394.731 706.156C394.141 705.959 393.845 705.468 393.845 704.681C393.845 704.288 394.436 704.091 395.616 704.091C397.387 703.894 399.158 704.091 400.928 704.681C402.699 705.074 404.568 705.271 406.536 705.271C407.716 705.271 409.29 705.664 411.258 706.451C412.241 706.844 413.126 707.139 413.914 707.336C414.897 707.533 415.882 707.729 416.865 707.926C418.439 708.123 419.914 708.516 421.292 709.106C422.866 709.696 424.341 710.384 425.719 711.171C426.507 711.564 427.195 711.859 427.785 712.056C428.573 712.253 429.458 712.449 430.441 712.646L433.097 713.531C433.885 713.924 434.475 714.121 434.868 714.121C435.261 714.318 435.556 714.318 435.753 714.121C436.146 713.924 436.541 713.924 436.934 714.121C437.327 714.121 437.622 714.219 437.819 714.416C438.212 714.416 438.607 714.416 439 714.416C439.983 714.613 440.868 714.613 441.656 714.416C442.639 714.219 443.624 714.121 444.607 714.121C446.378 713.924 448.149 713.826 449.919 713.826C451.888 713.629 453.854 713.334 455.822 712.941C459.561 712.351 462.807 710.876 465.561 708.516C468.512 705.959 471.661 703.894 475.005 702.321C476.383 701.534 477.564 700.846 478.547 700.256C479.53 699.469 480.415 698.388 481.203 697.011C481.99 695.438 482.383 693.766 482.383 691.996C482.581 690.029 482.678 688.161 482.678 686.391V681.376C482.481 680.393 482.186 679.508 481.793 678.721C481.596 677.738 481.4 676.754 481.203 675.771C481.005 674.984 480.908 674.296 480.908 673.706C481.105 672.919 481.203 672.133 481.203 671.346C481.005 670.363 480.22 669.183 478.842 667.806C478.054 667.216 477.071 666.134 475.891 664.561C475.498 663.774 475.005 663.381 474.415 663.381C474.022 663.184 473.332 662.889 472.349 662.496C471.561 662.103 470.873 661.611 470.283 661.021C469.693 660.431 469.005 659.939 468.217 659.546L463.79 656.891C460.446 655.318 457.002 653.744 453.461 652.171C451.69 651.581 449.919 651.089 448.149 650.696C446.378 650.303 444.607 649.909 442.836 649.516C440.868 649.123 439 648.729 437.229 648.336C435.458 647.746 433.59 647.254 431.622 646.861C430.638 646.664 429.753 646.566 428.965 646.566C428.375 646.369 427.588 646.271 426.604 646.271C425.817 646.468 425.031 646.566 424.243 646.566C423.456 646.369 422.57 646.369 421.587 646.566C420.604 646.566 419.719 646.664 418.931 646.861C418.144 646.861 417.258 646.861 416.275 646.861C415.292 647.058 414.307 647.156 413.324 647.156C412.536 646.959 411.651 646.959 410.668 647.156C409.487 647.549 408.307 647.844 407.126 648.041C405.946 648.041 405.158 647.254 404.765 645.681C404.765 644.698 404.765 643.813 404.765 643.026C404.963 642.239 405.158 641.354 405.355 640.371C405.355 639.388 405.355 638.503 405.355 637.716C405.553 636.929 405.848 636.143 406.241 635.356ZM405.651 584.321C407.028 584.518 408.307 584.616 409.487 584.616C410.668 584.419 411.946 584.321 413.324 584.321C414.702 584.321 415.98 584.518 417.16 584.911C418.538 585.304 419.914 585.698 421.292 586.091C422.275 586.484 423.26 586.976 424.243 587.566C425.227 588.156 426.212 588.549 427.195 588.746C428.573 588.943 429.753 589.238 430.736 589.631C431.917 590.024 433.097 590.418 434.278 590.811C437.032 591.794 439.787 592.581 442.541 593.171C445.295 593.761 448.149 594.351 451.1 594.941C453.854 595.334 456.51 595.826 459.068 596.416C461.627 597.006 464.283 597.301 467.037 597.301C469.791 597.301 472.546 597.301 475.3 597.301C478.054 597.104 480.81 596.908 483.564 596.711C484.942 596.711 486.22 596.613 487.4 596.416C488.581 596.023 489.859 595.629 491.237 595.236C492.418 594.843 493.598 594.646 494.779 594.646C496.156 594.449 497.435 594.154 498.615 593.761C499.598 593.368 500.484 592.974 501.271 592.581C502.255 592.188 503.239 591.794 504.223 591.401C505.403 590.811 506.584 590.319 507.764 589.926C508.945 589.336 510.125 588.648 511.306 587.861C513.076 586.878 514.945 585.403 516.913 583.436C517.896 582.649 518.782 581.961 519.569 581.371C520.357 580.584 521.242 579.699 522.225 578.716C523.013 577.733 523.701 576.749 524.291 575.766C524.881 574.586 525.569 573.504 526.357 572.521C526.947 571.341 527.635 570.161 528.423 568.981C529.211 567.604 529.801 566.326 530.194 565.146C530.587 563.966 530.784 562.786 530.784 561.606C530.981 560.426 531.276 559.246 531.669 558.066C532.062 556.493 532.457 555.313 532.85 554.526C533.047 553.936 533.145 553.444 533.145 553.051C533.145 552.461 533.243 551.871 533.44 551.281C533.44 549.904 533.637 548.626 534.03 547.446C534.423 546.069 534.621 544.693 534.621 543.316C535.013 540.366 534.916 537.514 534.325 534.761C534.128 533.384 533.933 532.106 533.735 530.926C533.538 529.549 533.243 528.173 532.85 526.796C532.457 525.223 532.062 523.748 531.669 522.371C531.472 520.994 531.079 519.618 530.489 518.241C529.506 515.881 528.03 513.914 526.062 512.341C524.291 510.768 522.323 509.489 520.159 508.506C514.847 505.753 509.633 503.786 504.518 502.606C501.764 502.016 499.008 501.524 496.254 501.131C493.5 500.738 490.745 500.344 487.991 499.951C486.613 499.558 485.237 499.361 483.859 499.361C482.678 499.361 481.301 499.361 479.727 499.361C478.349 499.164 476.973 498.968 475.595 498.771C474.218 498.574 472.841 498.378 471.464 498.181C465.168 497.591 458.773 497.394 452.28 497.591C445.985 497.788 439.688 498.083 433.392 498.476C430.048 498.476 426.702 498.476 423.358 498.476C420.209 498.476 416.963 498.673 413.619 499.066C412.046 499.066 410.47 499.066 408.897 499.066C407.323 498.869 405.748 498.771 404.175 498.771C402.601 498.968 401.026 499.066 399.453 499.066C397.879 499.066 396.304 499.066 394.731 499.066C394.731 501.229 394.533 503.393 394.141 505.556C393.748 507.523 393.648 509.588 393.845 511.751C394.043 513.914 394.238 516.078 394.436 518.241C394.633 520.208 394.928 522.273 395.321 524.436C395.518 525.223 395.616 526.403 395.616 527.976C395.616 528.369 395.616 528.763 395.616 529.156C395.616 529.549 395.714 529.844 395.911 530.041C396.304 530.631 397.092 530.828 398.272 530.631C399.453 530.238 400.338 530.041 400.928 530.041C403.092 529.648 405.355 529.353 407.716 529.156C410.077 528.959 412.341 528.664 414.504 528.271C416.668 527.878 418.833 527.386 420.997 526.796C423.161 526.206 425.326 525.813 427.49 525.616C429.653 525.419 431.819 525.223 433.983 525.026C436.146 524.829 438.312 524.633 440.475 524.436H447.263C448.246 524.436 449.329 524.338 450.51 524.141C451.69 523.944 452.871 523.944 454.051 524.141C456.215 524.534 458.38 524.731 460.544 524.731C462.708 524.731 464.873 524.928 467.037 525.321C471.168 525.714 475.3 526.599 479.432 527.976C481.4 528.763 483.269 529.451 485.039 530.041C486.81 530.631 488.581 531.418 490.352 532.401C491.73 533.384 493.106 534.466 494.483 535.646C494.876 536.039 495.369 536.629 495.959 537.416C496.747 538.006 497.237 538.694 497.435 539.481C497.632 539.874 497.632 540.268 497.435 540.661C497.237 540.858 497.042 541.153 496.844 541.546C496.647 541.939 496.549 542.333 496.549 542.726C496.549 542.923 496.452 543.218 496.254 543.611C495.861 545.184 494.976 546.954 493.598 548.921C492.615 550.691 491.63 552.363 490.647 553.936C489.664 555.313 488.188 556.493 486.22 557.476C485.432 557.869 484.744 558.361 484.154 558.951C483.761 559.344 483.071 559.738 482.088 560.131C480.908 560.524 479.727 561.016 478.547 561.606C477.564 561.999 476.481 562.393 475.3 562.786L472.644 563.671C472.251 563.868 471.759 563.966 471.168 563.966C470.776 563.769 470.381 563.671 469.988 563.671C468.807 563.474 467.627 563.573 466.446 563.966C465.463 564.163 464.381 564.359 463.2 564.556C461.036 564.753 458.871 565.048 456.707 565.441C454.739 565.638 452.673 565.834 450.51 566.031C447.756 566.424 445.1 566.719 442.541 566.916C440.18 567.113 437.721 567.309 435.163 567.506C433.785 567.703 432.507 567.899 431.326 568.096C430.146 568.096 428.868 568.293 427.49 568.686C425.129 569.276 422.965 569.571 420.997 569.571C418.439 569.571 415.98 569.866 413.619 570.456C413.029 570.456 412.438 570.554 411.848 570.751C411.258 570.751 410.668 570.751 410.077 570.751C409.685 570.751 409.192 570.751 408.602 570.751C408.209 570.554 407.814 570.653 407.421 571.046C406.831 571.636 406.438 572.718 406.241 574.291C406.241 575.668 406.241 576.749 406.241 577.536C406.043 578.716 405.848 579.896 405.651 581.076C405.651 582.256 405.651 583.338 405.651 584.321ZM406.831 619.721C406.831 619.524 406.831 618.738 406.831 617.361C407.028 615.788 407.028 614.313 406.831 612.936C406.831 611.363 406.733 609.986 406.536 608.806C406.339 607.626 406.143 607.036 405.946 607.036C405.946 607.036 405.946 607.626 405.946 608.806C405.946 609.986 406.043 611.363 406.241 612.936C406.438 614.509 406.536 615.984 406.536 617.361C406.733 618.738 406.831 619.524 406.831 619.721Z" fill="white"/>
</g>
</g>
<defs>
<clipPath id="clip0_140_114">
<rect width="878" height="885" fill="white"/>
</clipPath>
</defs>
</svg>
