<svg width="883" height="876" viewBox="0 0 883 876" fill="none" xmlns="http://www.w3.org/2000/svg">
<g clip-path="url(#clip0_140_123)">
<mask id="mask0_140_123" style="mask-type:luminance" maskUnits="userSpaceOnUse" x="0" y="0" width="883" height="876">
<path d="M883 0H0V876H883V0Z" fill="white"/>
</mask>
<g mask="url(#mask0_140_123)">
<path d="M883 -7.37695H1.84326V877.844H883V-7.37695Z" fill="#E61EAA"/>
<path d="M399.654 468.43C398.425 466.709 398.056 464.496 398.548 461.79C399.04 459.085 399.531 456.872 400.023 455.151C400.023 454.659 400.146 454.29 400.391 454.045C400.637 453.552 400.515 453.183 400.023 452.938C399.778 452.693 399.162 452.569 398.179 452.569C397.197 452.077 396.581 451.586 396.336 451.094C395.599 449.864 395.23 448.389 395.23 446.668C395.475 444.7 395.599 443.103 395.599 441.873C395.599 440.643 395.475 439.66 395.23 438.922C394.985 437.939 394.738 436.954 394.493 435.971C394.247 434.988 394.124 434.127 394.124 433.39C394.124 432.407 394 431.3 393.755 430.07C393.755 429.332 393.632 428.595 393.386 427.857C393.141 427.119 392.894 426.382 392.649 425.644C392.404 424.661 392.28 423.8 392.28 423.062C392.526 422.079 392.649 421.094 392.649 420.111C392.894 417.898 392.894 415.809 392.649 413.841C392.649 411.873 392.894 409.784 393.386 407.571C393.879 405.358 394.124 403.268 394.124 401.3C394.369 399.087 394.616 396.874 394.861 394.661C394.861 393.431 394.861 392.325 394.861 391.342C394.861 390.359 394.985 389.252 395.23 388.022C395.23 386.792 395.844 385.809 397.073 385.071C398.056 384.826 399.04 384.702 400.023 384.702C401.005 384.702 401.866 384.702 402.604 384.702C403.833 384.457 404.939 384.334 405.922 384.334C407.151 384.334 408.379 384.21 409.609 383.965C413.788 383.472 417.843 383.103 421.775 382.858C425.954 382.613 430.131 382.121 434.31 381.383C438.49 380.645 442.667 380.031 446.846 379.539C451.27 379.046 455.571 378.556 459.75 378.063C461.717 377.818 463.805 377.571 466.017 377.326C468.229 377.08 470.318 376.833 472.285 376.588C474.252 376.343 476.217 376.219 478.184 376.219C480.396 376.219 482.363 375.85 484.083 375.112C485.803 374.375 487.525 373.637 489.244 372.899C490.964 372.162 492.686 371.301 494.406 370.318C497.848 368.105 500.429 365.399 502.148 362.203C503.378 360.482 504.361 358.883 505.098 357.408C505.835 355.687 506.573 353.843 507.31 351.875C508.293 350.155 508.416 348.801 507.679 347.818C507.187 347.081 506.449 346.343 505.467 345.605C504.729 344.867 503.992 344.253 503.255 343.761C501.78 342.531 500.182 341.548 498.462 340.81C496.742 339.827 494.898 338.966 492.931 338.228C490.964 337.491 488.999 336.876 487.032 336.384C485.065 335.646 483.1 335.032 481.133 334.54C479.167 334.047 477.201 333.679 475.234 333.433C473.268 333.188 471.302 333.188 469.336 333.433C467.369 333.679 465.403 333.679 463.437 333.433C461.47 332.941 459.505 332.696 457.538 332.696H444.634C442.422 332.941 440.209 333.188 437.997 333.433C435.785 333.679 433.697 333.926 431.73 334.171C427.551 334.663 423.25 335.401 418.826 336.384C414.647 337.122 410.469 337.736 406.29 338.228C404.323 338.721 402.235 339.09 400.023 339.335C397.811 339.58 395.599 339.949 393.386 340.441C392.157 340.687 390.437 341.055 388.225 341.548C386.258 341.793 384.662 341.548 383.432 340.81C381.957 340.073 381.343 338.842 381.589 337.122C381.834 335.154 381.834 333.557 381.589 332.327C381.343 331.344 380.975 330.606 380.482 330.114C380.237 329.376 379.99 328.638 379.745 327.901C379.253 325.442 379.008 323.598 379.008 322.368C378.025 317.697 377.902 313.639 378.639 310.196C378.639 309.213 378.763 308.352 379.008 307.614C379.253 306.631 379.5 305.647 379.745 304.664C379.99 304.418 380.114 304.171 380.114 303.926C379.869 303.681 379.745 303.434 379.745 303.188C379.745 302.696 379.745 302.327 379.745 302.082C379.99 301.836 380.114 301.468 380.114 300.975C380.359 299.992 380.359 299.131 380.114 298.393C379.869 297.656 379.745 296.918 379.745 296.18C380.237 295.197 380.851 294.828 381.589 295.074C382.326 295.074 383.063 295.074 383.801 295.074H396.336C398.303 294.828 400.268 294.828 402.235 295.074C404.202 295.074 406.167 295.074 408.134 295.074C409.116 294.828 409.977 294.828 410.715 295.074C411.697 295.074 412.803 294.95 414.033 294.705C415.015 294.705 415.876 294.581 416.614 294.336C417.596 294.091 418.581 293.844 419.563 293.598C421.775 293.353 423.987 293.353 426.199 293.598C428.412 293.844 430.624 293.967 432.836 293.967C434.803 293.722 436.891 293.598 439.103 293.598C441.315 293.353 443.528 293.23 445.74 293.23C449.919 293.23 454.096 293.106 458.275 292.861C462.699 292.615 467 292.615 471.179 292.861C473.146 292.861 475.111 293.106 477.078 293.598C479.045 293.844 481.01 293.967 482.977 293.967C485.434 293.967 487.278 294.091 488.507 294.336C489.737 294.581 490.719 294.828 491.457 295.074C492.439 295.319 493.545 295.566 494.775 295.811C498.954 296.549 503.131 297.042 507.31 297.287C511.734 297.532 516.035 298.025 520.214 298.762C522.181 299.255 524.024 299.869 525.744 300.606C527.711 301.099 529.676 301.713 531.643 302.451C535.575 303.681 539.14 304.909 542.335 306.139C543.073 306.631 543.81 307 544.547 307.246C545.285 307.491 545.898 307.86 546.391 308.352C547.128 308.844 547.742 309.459 548.234 310.196C548.971 310.689 549.709 311.179 550.446 311.672C551.429 312.164 552.29 312.655 553.027 313.147C553.764 313.392 554.378 313.885 554.87 314.622C556.837 316.59 558.065 318.187 558.557 319.417C559.295 321.138 559.787 322.982 560.032 324.95C560.524 326.671 560.893 328.393 561.138 330.114C561.383 331.344 561.63 332.45 561.875 333.433C562.121 334.416 562.368 335.401 562.613 336.384C563.105 337.367 563.474 338.228 563.719 338.966C564.211 339.704 564.58 340.565 564.825 341.548V346.712C564.58 348.925 564.58 351.014 564.825 352.982C564.825 354.212 564.701 355.319 564.456 356.302C564.456 357.039 564.333 357.901 564.088 358.883C563.842 360.114 563.595 361.342 563.35 362.572C563.35 363.802 563.227 365.03 562.981 366.26C562.489 368.228 561.999 370.194 561.507 372.162C561.015 374.13 560.524 376.095 560.032 378.063C559.787 379.046 559.54 380.031 559.295 381.014C559.295 381.997 559.049 382.982 558.557 383.965C558.065 384.948 557.451 385.932 556.714 386.915C555.976 387.653 555.363 388.514 554.87 389.497C552.658 392.94 550.446 396.26 548.234 399.456C546.267 402.407 543.565 404.989 540.123 407.202C538.403 408.432 536.805 409.66 535.33 410.89C533.855 411.873 532.135 412.858 530.169 413.841C528.202 414.333 526.85 414.947 526.113 415.685C525.13 416.178 524.393 416.546 523.901 416.792C523.409 417.037 522.671 417.406 521.689 417.898C517.51 419.128 513.333 420.111 509.154 420.849C505.221 421.587 501.166 422.324 496.987 423.062C492.808 423.8 488.507 424.292 484.083 424.537C479.904 424.783 475.727 424.537 471.548 423.8C467.369 423.307 463.191 422.693 459.012 421.955C454.833 420.972 450.656 419.988 446.477 419.005C442.298 418.022 438.121 417.037 433.942 416.054C430.01 415.071 425.954 413.841 421.775 412.366C417.596 410.398 413.788 409.046 410.346 408.308C407.889 407.816 405.922 407.571 404.447 407.571C403.955 407.571 403.096 407.571 401.866 407.571C400.884 407.325 400.146 407.447 399.654 407.939C399.162 408.432 399.04 409.17 399.285 410.152C399.531 411.135 399.778 411.873 400.023 412.366C400.268 413.349 400.391 414.333 400.391 415.316C400.637 416.299 400.884 417.284 401.129 418.267C401.621 419.25 401.99 420.235 402.235 421.218C402.48 421.955 402.727 422.938 402.972 424.169C403.217 425.151 403.341 426.136 403.341 427.119C403.341 427.857 403.586 428.718 404.078 429.701C404.571 431.669 405.061 433.758 405.553 435.971C406.045 437.939 406.29 440.029 406.29 442.242C406.29 444.455 406.167 446.175 405.922 447.406C405.922 449.373 406.536 450.356 407.765 450.356C409.732 450.602 411.821 450.725 414.033 450.725C416.245 450.48 418.334 450.233 420.3 449.987C422.267 449.987 424.111 449.987 425.831 449.987C427.798 449.987 429.763 449.864 431.73 449.619C432.712 449.619 433.573 449.742 434.31 449.987C435.293 449.987 436.277 449.987 437.26 449.987C438.49 449.987 439.472 449.864 440.209 449.619C440.947 449.373 441.929 449.373 443.159 449.619C447.091 450.356 451.27 450.725 455.694 450.725C456.677 450.97 457.538 450.97 458.275 450.725C459.012 450.48 459.873 450.233 460.856 449.987C462.085 449.987 463.068 450.111 463.805 450.356C464.788 450.602 465.894 450.849 467.123 451.094C469.09 451.339 471.055 451.463 473.022 451.463C475.234 451.463 477.323 451.708 479.29 452.2C483.222 452.446 487.156 453.431 491.088 455.151C492.07 455.644 492.931 456.134 493.669 456.627C494.406 456.872 495.267 457.119 496.25 457.364C496.987 457.61 497.601 457.857 498.093 458.102C498.585 458.102 498.954 458.594 499.199 459.577C500.182 459.085 500.919 458.963 501.411 459.209C501.656 459.454 501.78 459.701 501.78 459.946C502.025 460.191 502.272 460.439 502.517 460.684C503.009 460.929 503.378 461.053 503.623 461.053C503.868 461.053 504.237 461.176 504.729 461.422C505.221 461.667 505.467 461.914 505.467 462.159C505.712 462.159 506.08 462.283 506.573 462.528C507.065 463.02 507.555 463.511 508.047 464.003C508.54 464.496 509.03 464.986 509.522 465.479C510.014 465.724 510.383 465.971 510.628 466.217C510.873 466.462 511.242 466.709 511.734 466.954C512.717 467.447 512.964 468.061 512.472 468.798C512.964 469.291 513.454 469.536 513.946 469.536C514.439 469.291 514.929 469.413 515.421 469.905C515.913 470.397 516.404 471.011 516.896 471.749C517.633 472.487 518.247 473.101 518.739 473.593C519.969 474.823 520.951 476.175 521.689 477.651C522.426 478.881 523.287 480.233 524.27 481.708C525.744 484.413 527.464 486.995 529.431 489.454C531.398 491.667 532.994 494.125 534.224 496.83C534.716 498.06 534.961 499.043 534.961 499.781C534.961 500.519 535.33 501.38 536.067 502.363C536.805 502.608 537.174 502.855 537.174 503.101L538.28 505.314C538.772 505.806 539.14 506.42 539.386 507.158C539.878 507.65 540.368 508.141 540.86 508.633C541.598 510.109 541.966 511.708 541.966 513.428C542.212 514.904 542.58 516.379 543.072 517.854C543.318 518.347 543.565 518.961 543.81 519.699C544.055 520.191 544.179 520.805 544.179 521.543C544.179 522.526 544.055 523.387 543.81 524.125C543.81 524.862 543.81 525.845 543.81 527.075C544.055 528.058 544.055 529.288 543.81 530.764C543.81 532.239 544.055 533.469 544.547 534.452C545.039 534.945 545.285 535.066 545.285 534.821C545.285 534.576 545.408 534.821 545.653 535.559V538.141C545.653 540.354 545.408 541.953 544.916 542.936C543.933 546.379 542.949 549.82 541.966 553.263C540.984 556.459 539.999 559.779 539.017 563.222C538.772 563.96 538.648 564.821 538.648 565.804C538.648 566.542 538.525 567.279 538.28 568.017C538.034 568.755 537.787 569.369 537.542 569.861C537.297 570.354 537.174 570.968 537.174 571.705C536.928 573.673 536.436 575.27 535.699 576.5C534.961 577.73 534.101 579.206 533.118 580.926C532.135 582.156 531.151 583.508 530.169 584.984C529.186 586.459 528.202 587.811 527.219 589.041C525.989 590.271 524.883 591.499 523.901 592.729C522.918 594.205 521.689 595.311 520.214 596.049C518.739 596.787 517.141 597.279 515.421 597.524C513.701 598.017 512.103 598.507 510.628 599C508.661 599.492 506.573 599.983 504.361 600.475C502.394 600.967 500.429 601.458 498.462 601.95C491.088 603.918 483.714 605.025 476.341 605.27C468.722 605.762 460.979 606.131 453.113 606.376C445.495 606.622 437.874 606.377 430.255 605.639C426.323 605.146 422.513 604.532 418.826 603.795C415.139 603.057 411.329 602.443 407.396 601.95C403.71 601.458 400.023 600.844 396.336 600.106C392.894 599.614 389.331 599.123 385.644 598.631C384.415 598.386 382.94 598.262 381.22 598.262C379.745 598.262 378.639 597.77 377.902 596.787C376.919 595.557 376.55 594.081 376.796 592.361C377.288 590.64 377.288 589.041 376.796 587.566C376.303 585.845 376.182 584.246 376.427 582.771C376.672 581.05 376.796 579.327 376.796 577.607C376.796 575.886 376.672 574.164 376.427 572.443C376.427 570.722 376.55 569.123 376.796 567.648C377.041 566.418 377.164 565.066 377.164 563.591C376.919 562.853 376.919 562.115 377.164 561.378C377.41 560.64 377.533 559.902 377.533 559.165C377.778 555.476 377.778 551.788 377.533 548.099C377.533 545.641 377.902 543.059 378.639 540.354C379.131 538.633 379.131 537.034 378.639 535.559C378.394 534.083 378.516 532.485 379.008 530.764C379.5 529.043 379.869 527.568 380.114 526.338C380.606 524.862 380.851 523.263 380.851 521.543C380.851 521.05 380.851 520.436 380.851 519.699C380.851 518.716 381.096 517.978 381.589 517.486C382.081 516.993 382.571 516.871 383.063 517.117C383.801 517.362 384.293 517.731 384.538 518.223C385.03 518.716 385.152 519.453 384.907 520.436C384.662 521.419 384.538 522.281 384.538 523.018C384.293 524.001 384.169 524.986 384.169 525.969C384.169 526.707 384.046 527.568 383.801 528.551C383.555 530.519 383.308 532.363 383.063 534.083C383.063 535.804 383.063 537.648 383.063 539.616C383.063 541.337 382.94 543.059 382.695 544.78C382.695 546.255 382.695 547.854 382.695 549.575C382.449 551.543 382.326 553.509 382.326 555.476C382.326 557.444 382.202 559.41 381.957 561.378C381.712 565.066 381.465 568.878 381.22 572.812C381.22 576.5 381.343 580.189 381.589 583.877C381.589 584.86 381.589 585.721 381.589 586.459C381.834 587.442 381.957 588.549 381.957 589.779C381.957 590.271 381.957 591.009 381.957 591.992C381.957 593.222 382.202 594.081 382.695 594.574C383.187 595.066 384.293 595.311 386.013 595.311C387.242 595.557 388.225 595.68 388.962 595.68C389.945 595.68 391.051 595.804 392.28 596.049C394 596.541 395.599 596.91 397.073 597.155C398.793 597.648 400.515 598.138 402.235 598.631C404.202 599.123 406.045 599.369 407.765 599.369C409.485 599.369 411.329 599.614 413.295 600.106C417.227 600.844 421.038 601.458 424.725 601.95C428.412 602.688 432.222 603.302 436.154 603.795C439.596 604.287 443.159 604.287 446.846 603.795C448.813 603.549 450.778 603.426 452.745 603.426C454.957 603.671 457.169 603.795 459.381 603.795C461.101 603.795 462.823 603.671 464.543 603.426C466.263 603.426 468.106 603.426 470.073 603.426C472.04 603.426 473.883 603.426 475.603 603.426C477.323 603.426 479.167 603.302 481.133 603.057C482.853 602.812 484.452 602.319 485.926 601.582C487.646 600.844 489.245 600.475 490.719 600.475C491.457 600.475 492.07 600.599 492.563 600.844C493.3 601.089 493.914 601.213 494.406 601.213C496.126 600.967 497.848 600.351 499.568 599.369C500.305 599.123 500.919 598.876 501.411 598.631C502.148 598.631 502.886 598.631 503.623 598.631C504.115 598.631 504.606 598.507 505.098 598.262C505.098 598.262 505.467 597.893 506.204 597.155C506.696 596.91 507.31 596.91 508.047 597.155C509.03 597.401 509.767 597.524 510.26 597.524C510.997 597.279 511.734 597.032 512.472 596.787C513.454 596.787 514.315 596.541 515.052 596.049C516.527 595.311 517.757 594.328 518.739 593.098C519.722 591.868 520.828 590.64 522.057 589.41C523.287 587.934 524.393 586.459 525.376 584.984C526.605 583.754 527.833 582.402 529.062 580.926C530.045 579.206 531.029 576.993 532.012 574.287C532.504 573.55 532.749 572.812 532.749 572.074C532.749 571.337 532.873 570.599 533.118 569.861C533.363 568.878 533.61 568.017 533.855 567.279C534.348 566.542 534.838 565.68 535.33 564.697C535.575 563.96 535.699 563.346 535.699 562.853C535.699 562.115 535.822 561.501 536.067 561.009C536.067 560.026 536.191 559.165 536.436 558.427C536.681 557.689 537.05 556.828 537.542 555.845C538.034 554.124 538.403 552.526 538.648 551.05C539.14 549.33 539.631 547.485 540.123 545.518C540.86 542.074 541.106 538.51 540.86 534.821C540.86 531.133 540.615 527.568 540.123 524.125C539.878 522.649 539.631 520.929 539.386 518.961C539.14 516.993 538.772 515.273 538.28 513.797C537.787 513.059 537.297 512.445 536.805 511.953C536.56 511.215 536.191 510.478 535.699 509.74C534.716 507.282 533.979 505.559 533.487 504.576C530.045 497.445 526.237 490.684 522.057 484.29C521.32 483.06 520.459 481.708 519.477 480.232C518.739 478.757 517.757 477.405 516.527 476.175C515.298 474.7 513.946 473.348 512.472 472.118C510.997 470.888 509.646 469.536 508.416 468.061C507.187 467.078 505.959 466.093 504.729 465.11C503.747 463.88 502.517 463.02 501.042 462.528C499.568 462.036 498.093 461.422 496.618 460.684C495.143 459.701 493.669 458.963 492.194 458.471C488.752 456.995 485.189 456.012 481.502 455.52C477.815 454.782 474.252 454.168 470.81 453.676C467.369 453.183 463.805 452.938 460.118 452.938C456.432 452.938 452.745 452.693 449.058 452.2C447.091 452.2 445.248 452.2 443.528 452.2C441.808 451.955 440.086 451.832 438.366 451.832C436.399 452.077 434.434 452.2 432.467 452.2C430.5 452.2 428.535 452.2 426.568 452.2C422.881 452.446 419.194 452.569 415.508 452.569C412.066 452.324 408.503 452.446 404.816 452.938C405.308 454.168 405.43 455.275 405.184 456.258C405.184 457.241 405.061 458.347 404.816 459.577C404.324 460.807 404.078 462.036 404.078 463.266C404.078 464.249 403.955 465.355 403.71 466.585C403.71 468.798 403.71 471.135 403.71 473.593C403.71 476.052 403.096 478.265 401.866 480.232C403.096 480.232 404.939 479.987 407.396 479.495C408.626 479.25 409.732 479.126 410.715 479.126C411.944 479.126 413.172 479.126 414.402 479.126C416.859 479.126 419.318 479.126 421.775 479.126C424.232 478.881 426.692 479.002 429.149 479.495C431.606 479.74 433.942 480.232 436.154 480.97C438.366 481.463 440.702 482.077 443.159 482.814C445.371 483.307 447.583 483.797 449.795 484.29C452.007 484.535 454.219 485.027 456.432 485.765C465.525 487.978 474.252 491.79 482.608 497.199C484.575 498.429 486.419 499.658 488.138 500.888C489.858 502.118 491.58 503.593 493.3 505.314C494.775 507.034 495.757 508.879 496.25 510.846C496.742 512.567 497.232 514.535 497.724 516.748C498.707 520.929 499.199 525.6 499.199 530.764C499.199 533.222 499.199 535.559 499.199 537.772C499.199 539.74 498.707 541.829 497.724 544.042C496.495 547.485 494.406 550.189 491.457 552.157C489.737 553.387 487.893 554.493 485.926 555.476C483.959 556.459 481.994 557.566 480.027 558.796C479.29 559.288 478.676 559.902 478.184 560.64C477.692 561.378 476.954 561.992 475.972 562.484C474.989 562.977 474.128 563.591 473.391 564.329C472.654 564.821 471.793 565.311 470.81 565.804C467.123 567.772 462.576 569 457.169 569.492C455.939 569.738 454.833 569.861 453.851 569.861C452.868 569.861 451.762 569.861 450.533 569.861C449.303 570.106 448.075 570.354 446.846 570.599C445.616 570.844 444.388 570.968 443.159 570.968C441.684 570.968 439.717 570.475 437.26 569.492C436.03 569 434.679 568.755 433.204 568.755C431.975 568.509 430.747 568.262 429.518 568.017C428.288 567.772 427.182 567.648 426.199 567.648C425.217 567.403 424.111 567.034 422.881 566.542C421.652 566.049 420.546 565.559 419.563 565.066C418.826 564.574 417.965 564.083 416.982 563.591C415.015 562.361 412.927 561.623 410.715 561.378C408.503 560.885 406.29 560.395 404.078 559.902C402.849 559.657 401.621 559.534 400.391 559.534C399.409 559.288 398.303 559.041 397.073 558.796C395.844 558.303 394.616 558.182 393.386 558.427C392.404 558.427 391.298 558.303 390.068 558.058C389.086 557.566 388.225 557.321 387.488 557.321C386.995 557.075 386.627 557.075 386.381 557.321C386.136 557.321 385.768 557.197 385.275 556.952C384.538 556.706 384.169 556.09 384.169 555.107C384.169 554.615 384.907 554.37 386.381 554.37C388.594 554.125 390.806 554.37 393.018 555.107C395.23 555.6 397.566 555.845 400.023 555.845C401.498 555.845 403.464 556.338 405.922 557.321C407.151 557.813 408.257 558.182 409.24 558.427C410.469 558.672 411.697 558.919 412.927 559.165C414.894 559.41 416.737 559.902 418.457 560.64C420.424 561.378 422.267 562.239 423.987 563.222C424.97 563.714 425.831 564.083 426.568 564.329C427.551 564.574 428.657 564.821 429.886 565.066L433.204 566.173C434.187 566.665 434.924 566.91 435.417 566.91C435.909 567.156 436.277 567.156 436.523 566.91C437.015 566.665 437.505 566.665 437.997 566.91C438.49 566.91 438.858 567.034 439.103 567.279C439.596 567.279 440.086 567.279 440.578 567.279C441.808 567.525 442.914 567.525 443.896 567.279C445.126 567.034 446.354 566.91 447.583 566.91C449.795 566.665 452.007 566.542 454.219 566.542C456.677 566.296 459.136 565.927 461.593 565.435C466.263 564.697 470.318 562.853 473.76 559.902C477.447 556.706 481.379 554.124 485.558 552.157C487.278 551.174 488.752 550.313 489.982 549.575C491.211 548.592 492.318 547.238 493.3 545.518C494.283 543.55 494.775 541.46 494.775 539.247C495.02 536.789 495.143 534.452 495.143 532.239V525.969C494.898 524.739 494.53 523.632 494.037 522.649C493.792 521.419 493.545 520.191 493.3 518.961C493.055 517.978 492.931 517.117 492.931 516.379C493.177 515.396 493.3 514.411 493.3 513.428C493.055 512.198 492.07 510.723 490.351 509.002C489.368 508.265 488.138 506.913 486.664 504.945C486.172 503.962 485.558 503.47 484.82 503.47C484.328 503.224 483.469 502.855 482.24 502.363C481.257 501.871 480.396 501.256 479.659 500.519C478.921 499.781 478.06 499.167 477.078 498.675L471.548 495.355C467.369 493.387 463.068 491.421 458.644 489.454C456.432 488.716 454.219 488.102 452.007 487.609C449.795 487.117 447.583 486.626 445.371 486.134C442.914 485.642 440.578 485.151 438.366 484.659C436.154 483.921 433.818 483.307 431.361 482.814C430.131 482.569 429.025 482.446 428.043 482.446C427.305 482.2 426.323 482.077 425.093 482.077C424.111 482.322 423.126 482.446 422.144 482.446C421.161 482.2 420.055 482.2 418.826 482.446C417.596 482.446 416.49 482.569 415.508 482.814C414.525 482.814 413.419 482.814 412.189 482.814C410.96 483.06 409.732 483.183 408.503 483.183C407.52 482.938 406.414 482.938 405.184 483.183C403.71 483.676 402.235 484.045 400.76 484.29C399.285 484.29 398.303 483.307 397.811 481.339C397.811 480.109 397.811 479.002 397.811 478.019C398.056 477.037 398.303 475.93 398.548 474.7C398.548 473.47 398.548 472.363 398.548 471.38C398.793 470.397 399.162 469.413 399.654 468.43ZM398.917 404.62C400.637 404.865 402.235 404.989 403.71 404.989C405.184 404.743 406.783 404.62 408.503 404.62C410.222 404.62 411.821 404.865 413.295 405.358C415.015 405.85 416.737 406.341 418.457 406.833C419.687 407.325 420.914 407.939 422.144 408.677C423.373 409.415 424.601 409.907 425.831 410.152C427.551 410.398 429.025 410.767 430.255 411.259C431.73 411.751 433.204 412.242 434.679 412.734C438.121 413.964 441.561 414.947 445.002 415.685C448.444 416.423 452.007 417.161 455.694 417.898C459.136 418.391 462.454 419.005 465.649 419.742C468.843 420.48 472.161 420.849 475.603 420.849C479.045 420.849 482.485 420.849 485.926 420.849C489.368 420.604 492.808 420.357 496.25 420.111C497.969 420.111 499.568 419.988 501.042 419.742C502.517 419.25 504.115 418.759 505.835 418.267C507.31 417.775 508.785 417.529 510.26 417.529C511.979 417.284 513.578 416.915 515.052 416.423C516.282 415.93 517.388 415.44 518.371 414.947C519.6 414.455 520.828 413.964 522.057 413.472C523.532 412.734 525.007 412.12 526.482 411.628C527.956 410.89 529.431 410.029 530.906 409.046C533.118 407.816 535.454 405.972 537.911 403.513C539.14 402.53 540.247 401.669 541.229 400.931C542.212 399.948 543.318 398.842 544.547 397.612C545.53 396.382 546.391 395.154 547.128 393.923C547.865 392.448 548.726 391.096 549.709 389.866C550.446 388.391 551.307 386.915 552.29 385.44C553.272 383.719 554.009 382.12 554.502 380.645C554.994 379.17 555.239 377.694 555.239 376.219C555.484 374.744 555.853 373.268 556.345 371.793C556.837 369.825 557.328 368.35 557.82 367.367C558.065 366.629 558.189 366.015 558.189 365.523C558.189 364.785 558.312 364.047 558.557 363.31C558.557 361.589 558.802 359.99 559.295 358.515C559.787 356.794 560.032 355.071 560.032 353.351C560.524 349.662 560.401 346.098 559.663 342.654C559.418 340.934 559.171 339.335 558.926 337.859C558.681 336.139 558.312 334.416 557.82 332.696C557.328 330.728 556.837 328.884 556.345 327.163C556.1 325.442 555.608 323.72 554.87 321.999C553.641 319.049 551.797 316.59 549.34 314.622C547.128 312.655 544.671 311.058 541.966 309.827C535.33 306.384 528.817 303.926 522.426 302.451C518.984 301.713 515.545 301.099 512.103 300.606C508.661 300.114 505.221 299.623 501.78 299.131C500.06 298.639 498.338 298.393 496.618 298.393C495.143 298.393 493.424 298.393 491.457 298.393C489.737 298.148 488.015 297.901 486.295 297.656C484.575 297.41 482.853 297.163 481.133 296.918C473.268 296.18 465.28 295.935 457.169 296.18C449.303 296.426 441.439 296.794 433.573 297.287C429.394 297.287 425.217 297.287 421.038 297.287C417.106 297.287 413.05 297.532 408.871 298.025C406.904 298.025 404.939 298.025 402.972 298.025C401.005 297.779 399.04 297.656 397.073 297.656C395.106 297.901 393.141 298.025 391.174 298.025C389.207 298.025 387.242 298.025 385.275 298.025C385.275 300.73 385.03 303.434 384.538 306.139C384.046 308.597 383.924 311.179 384.169 313.885C384.415 316.59 384.662 319.294 384.907 321.999C385.152 324.458 385.521 327.039 386.013 329.745C386.258 330.728 386.381 332.203 386.381 334.171C386.381 334.663 386.381 335.154 386.381 335.646C386.381 336.139 386.505 336.508 386.75 336.753C387.242 337.491 388.225 337.736 389.7 337.491C391.174 336.998 392.28 336.753 393.018 336.753C395.722 336.261 398.548 335.892 401.498 335.646C404.447 335.401 407.273 335.032 409.977 334.54C412.682 334.047 415.384 333.433 418.088 332.696C420.793 331.958 423.495 331.466 426.199 331.22C428.904 330.975 431.606 330.728 434.31 330.483C437.015 330.237 439.717 329.99 442.422 329.745H450.901C452.131 329.745 453.482 329.621 454.957 329.376C456.432 329.131 457.906 329.131 459.381 329.376C462.085 329.868 464.788 330.114 467.492 330.114C470.196 330.114 472.899 330.359 475.603 330.851C480.765 331.344 485.926 332.45 491.088 334.171C493.545 335.154 495.881 336.015 498.093 336.753C500.305 337.491 502.517 338.474 504.729 339.704C506.449 340.934 508.171 342.286 509.891 343.761C510.383 344.253 510.997 344.991 511.734 345.974C512.717 346.712 513.333 347.573 513.578 348.556C513.823 349.048 513.823 349.539 513.578 350.031C513.333 350.277 513.086 350.645 512.84 351.138C512.595 351.63 512.472 352.121 512.472 352.613C512.472 352.858 512.348 353.227 512.103 353.72C511.611 355.687 510.505 357.9 508.785 360.359C507.555 362.572 506.328 364.661 505.098 366.629C503.868 368.35 502.025 369.825 499.568 371.055C498.585 371.548 497.724 372.162 496.987 372.899C496.495 373.392 495.636 373.882 494.406 374.375C492.931 374.867 491.457 375.481 489.982 376.219C488.752 376.711 487.401 377.202 485.926 377.694L482.608 378.801C482.116 379.046 481.502 379.17 480.765 379.17C480.273 378.925 479.782 378.801 479.29 378.801C477.815 378.556 476.341 378.677 474.866 379.17C473.636 379.415 472.285 379.662 470.81 379.907C468.106 380.153 465.404 380.522 462.699 381.014C460.242 381.259 457.661 381.506 454.957 381.752C451.515 382.244 448.197 382.613 445.002 382.858C442.053 383.103 438.98 383.351 435.785 383.596C434.065 383.841 432.467 384.088 430.992 384.334C429.518 384.334 427.919 384.579 426.199 385.071C423.25 385.809 420.546 386.178 418.088 386.178C414.894 386.178 411.821 386.547 408.871 387.284C408.134 387.284 407.396 387.408 406.659 387.653C405.922 387.653 405.184 387.653 404.447 387.653C403.955 387.653 403.341 387.653 402.604 387.653C402.111 387.408 401.621 387.53 401.129 388.022C400.391 388.76 399.899 390.111 399.654 392.079C399.654 393.8 399.654 395.154 399.654 396.137C399.409 397.612 399.162 399.087 398.917 400.563C398.917 402.038 398.917 403.39 398.917 404.62ZM400.391 448.881C400.391 448.636 400.391 447.651 400.391 445.93C400.637 443.962 400.637 442.118 400.391 440.398C400.391 438.43 400.268 436.709 400.023 435.234C399.778 433.758 399.531 433.021 399.285 433.021C399.285 433.021 399.285 433.758 399.285 435.234C399.285 436.709 399.409 438.43 399.654 440.398C399.899 442.365 400.023 444.21 400.023 445.93C400.268 447.651 400.391 448.636 400.391 448.881Z" fill="white"/>
</g>
</g>
<defs>
<clipPath id="clip0_140_123">
<rect width="883" height="876" fill="white"/>
</clipPath>
</defs>
</svg>
