<svg width="880" height="885" viewBox="0 0 880 885" fill="none" xmlns="http://www.w3.org/2000/svg">
<g clip-path="url(#clip0_140_130)">
<mask id="mask0_140_130" style="mask-type:luminance" maskUnits="userSpaceOnUse" x="0" y="0" width="880" height="885">
<path d="M880 0H0V885H880V0Z" fill="white"/>
</mask>
<g mask="url(#mask0_140_130)">
<path d="M879.84 0H-1.84473V546.392H879.84V0Z" fill="#E61EAA"/>
<path d="M879.84 546.392H-1.84473V885H879.84V546.392Z" fill="#640B49"/>
<path d="M431.587 730.642C431.587 729.609 431.416 728.405 431.071 727.028C430.899 724.618 430.726 722.21 430.554 719.8C430.383 717.39 430.209 714.983 430.038 712.573C429.693 709.647 429.434 706.894 429.263 704.313C429.263 701.56 429.176 698.805 429.005 696.053C428.833 694.675 428.66 693.213 428.488 691.665C428.488 690.116 428.316 688.654 427.971 687.277C427.8 685.899 427.626 684.524 427.455 683.146C427.283 681.769 427.025 680.394 426.68 679.017C426.509 678.155 426.335 677.21 426.164 676.177C426.164 675.145 425.992 674.199 425.647 673.338C425.302 671.444 424.959 669.637 424.614 667.917C424.442 666.024 424.184 664.132 423.839 662.238C423.667 661.894 423.581 661.635 423.581 661.464C423.752 661.293 423.839 661.034 423.839 660.69C423.839 660.173 423.752 659.657 423.581 659.141C423.581 658.625 423.581 658.022 423.581 657.334C423.581 657.163 423.494 657.076 423.322 657.076C423.322 656.904 423.322 656.731 423.322 656.56C423.322 655.182 423.236 653.978 423.064 652.946C423.064 651.742 423.064 650.451 423.064 649.074V637.717V634.103C423.064 632.725 422.977 631.435 422.806 630.231C422.806 628.854 422.719 627.478 422.548 626.101C422.548 624.207 421.944 622.142 420.74 619.906C420.395 621.626 420.051 623.262 419.706 624.81C419.362 626.188 419.277 627.65 419.448 629.198V629.715C419.103 630.747 418.76 631.78 418.415 632.812C418.244 633.845 417.985 634.964 417.64 636.168C417.469 637.029 417.295 637.803 417.124 638.491C416.952 639.179 416.779 639.953 416.607 640.814C416.436 642.018 416.262 643.224 416.091 644.428C415.919 645.632 415.661 646.838 415.316 648.042C415.316 648.903 415.316 649.762 415.316 650.623C415.316 651.484 415.229 652.343 415.057 653.204C414.712 654.408 414.454 655.614 414.283 656.818C414.283 657.85 414.111 658.969 413.766 660.173C413.421 661.551 413.163 663.013 412.991 664.562C412.991 666.11 412.82 667.572 412.475 668.95L411.7 672.047C411.355 673.941 410.925 675.748 410.408 677.468C410.063 679.188 409.72 680.91 409.375 682.63C409.204 684.008 409.03 685.298 408.859 686.502C408.859 687.535 408.772 688.739 408.6 690.116L407.826 694.762C407.481 696.139 407.309 697.43 407.309 698.634C407.309 699.838 407.137 701.044 406.792 702.248C406.621 703.109 406.363 703.883 406.018 704.571C405.846 705.259 405.673 706.033 405.501 706.894C404.984 708.614 404.468 710.25 403.951 711.798C403.606 713.347 403.263 714.896 402.918 716.445C402.402 718.338 401.455 720.488 400.077 722.898C399.561 723.759 399.302 724.36 399.302 724.705C399.302 724.876 399.561 725.392 400.077 726.253C399.561 726.598 398.699 726.683 397.494 726.512C396.461 726.167 395.945 725.737 395.945 725.221C395.773 724.876 395.858 724.275 396.203 723.414C396.548 722.726 396.719 722.21 396.719 721.865C397.236 720.661 397.666 719.542 398.011 718.51C398.527 717.306 398.957 716.1 399.302 714.896C399.647 713.863 399.99 712.831 400.335 711.798C400.852 710.594 401.282 709.389 401.627 708.185C401.972 706.981 402.23 705.775 402.402 704.571C402.573 703.367 402.832 702.076 403.177 700.699C403.348 700.183 403.435 699.667 403.435 699.15C403.435 698.463 403.522 697.86 403.693 697.343V696.569C404.038 695.708 404.296 694.934 404.468 694.246C404.64 693.385 404.898 692.526 405.243 691.665C405.243 690.977 405.414 690.116 405.759 689.083C405.759 688.567 405.673 688.051 405.501 687.535C405.501 687.018 405.588 686.589 405.759 686.244C406.104 684.695 406.276 683.146 406.276 681.598C406.276 680.049 406.363 678.5 406.534 676.952C406.534 676.264 406.706 675.574 407.051 674.887C407.396 674.199 407.654 673.509 407.826 672.822C408.171 671.789 408.342 671.015 408.342 670.498C408.514 669.637 408.687 668.863 408.859 668.175C409.03 667.488 409.204 666.713 409.375 665.852C409.547 664.991 409.634 664.132 409.634 663.271C409.634 662.41 409.72 661.551 409.892 660.69L410.667 656.818C410.838 656.473 410.925 655.785 410.925 654.753C411.097 654.236 411.097 653.72 410.925 653.204C410.753 652.516 411.012 652 411.7 651.655C411.7 651.655 411.7 651.31 411.7 650.623C411.355 649.245 411.27 647.955 411.442 646.751C411.787 645.547 412.216 644.341 412.733 643.137C412.904 642.621 412.991 642.191 412.991 641.846C413.163 641.33 413.336 640.814 413.508 640.298C413.679 638.92 413.853 637.545 414.024 636.168C414.196 634.79 414.369 633.415 414.541 632.038L415.316 628.166C415.661 626.962 415.919 625.843 416.091 624.81C416.436 623.606 416.779 622.487 417.124 621.455L417.899 618.357L418.673 613.711C418.845 612.678 419.535 612.162 420.74 612.162C422.634 612.507 423.839 613.539 424.356 615.26C424.701 616.98 425.044 618.615 425.389 620.164C425.905 621.713 426.25 623.348 426.422 625.068C426.767 627.478 427.11 629.973 427.455 632.554C427.8 634.964 427.8 637.458 427.455 640.04C427.283 641.072 427.283 642.105 427.455 643.137C427.626 644.17 427.713 645.202 427.713 646.235V652.43C427.885 654.323 427.971 656.13 427.971 657.85C428.143 659.399 428.316 661.119 428.488 663.013C428.66 664.562 428.833 666.11 429.005 667.659C429.176 669.208 429.434 670.757 429.779 672.305C429.951 673.683 430.124 674.973 430.296 676.177C430.641 677.21 430.984 678.414 431.329 679.791C431.674 682.027 431.932 684.179 432.104 686.244C432.276 688.309 432.534 690.461 432.879 692.697C433.05 693.73 433.137 694.762 433.137 695.795C433.309 696.827 433.567 697.773 433.912 698.634V700.183V707.41C433.912 708.271 433.912 709.217 433.912 710.25C434.084 711.282 434.17 712.228 434.17 713.089C434.17 714.466 434.342 715.842 434.687 717.219C435.032 718.596 435.032 719.972 434.687 721.349C434.515 722.21 434.515 723.156 434.687 724.188C435.032 725.221 435.29 726.167 435.462 727.028C435.633 727.544 435.72 728.232 435.72 729.093C435.72 730.986 436.666 731.932 438.561 731.932C439.249 731.761 440.282 731.674 441.66 731.674C443.038 731.845 444.501 731.932 446.051 731.932C447.601 731.932 449.064 732.019 450.442 732.19C451.13 732.19 451.733 732.277 452.25 732.448C452.938 732.448 453.628 732.448 454.316 732.448H456.124C456.124 731.416 456.124 730.47 456.124 729.609C456.296 728.577 456.382 727.631 456.382 726.77C456.727 725.392 456.899 724.102 456.899 722.898C457.071 721.694 457.244 720.403 457.416 719.026V717.735C457.587 717.219 457.674 716.789 457.674 716.445C457.674 715.928 457.76 715.412 457.932 714.896C458.104 714.551 458.19 714.38 458.19 714.38C458.019 712.831 458.104 711.282 458.449 709.733C458.965 708.185 459.31 706.723 459.482 705.345C459.827 703.452 460.17 701.56 460.515 699.667C461.031 697.773 461.461 695.881 461.806 693.988C461.978 692.955 462.151 692.009 462.323 691.148C462.668 690.116 462.926 689.083 463.098 688.051C463.443 686.674 463.614 685.298 463.614 683.921C463.786 682.544 464.044 681.168 464.389 679.791C464.561 678.242 464.734 676.693 464.906 675.145C465.077 673.596 465.336 671.96 465.68 670.24C466.025 668.52 466.197 666.885 466.197 665.336C466.369 663.616 466.627 661.894 466.972 660.173C467.317 658.28 467.575 656.388 467.747 654.495C468.092 652.601 468.435 650.709 468.78 648.816C469.125 647.096 469.383 645.46 469.555 643.911C469.9 642.191 470.243 640.469 470.588 638.749C470.933 637.372 471.191 635.996 471.363 634.619C471.534 633.242 471.879 631.866 472.396 630.489C472.912 628.595 473.342 626.704 473.687 624.81C474.032 622.917 474.807 621.11 476.012 619.39C476.183 619.218 476.27 619.045 476.27 618.873C476.442 618.702 476.615 618.529 476.787 618.357C477.132 617.153 477.82 616.55 478.853 616.55C480.403 616.55 481.522 617.066 482.21 618.099C483.072 619.819 483.932 621.971 484.793 624.552C485.138 625.413 485.397 626.272 485.568 627.133C485.913 627.994 485.998 628.854 485.826 629.715C485.655 630.747 485.74 631.693 486.085 632.554C486.601 633.415 486.946 634.361 487.118 635.393C487.118 637.287 487.205 639.179 487.376 641.072C487.548 642.966 487.806 644.857 488.151 646.751C488.151 647.612 488.151 648.558 488.151 649.59C488.323 650.623 488.496 651.569 488.668 652.43L489.442 664.045C489.614 666.282 489.701 668.52 489.701 670.756C489.872 672.821 490.13 674.973 490.475 677.21C490.82 679.619 491.164 681.769 491.509 683.663C491.509 683.834 491.422 684.008 491.25 684.179C491.25 684.179 491.25 684.35 491.25 684.695C491.079 686.073 490.992 687.448 490.992 688.825C490.992 690.203 490.905 691.578 490.734 692.955C490.734 693.988 490.647 695.02 490.475 696.053C490.475 696.914 490.389 697.773 490.217 698.634C490.217 699.495 490.217 699.925 490.217 699.925C490.217 701.302 490.217 702.677 490.217 704.055C490.389 705.432 490.562 706.807 490.734 708.185C490.905 709.562 490.905 711.111 490.734 712.831C490.389 713.692 490.217 714.638 490.217 715.67C490.389 716.531 490.389 717.39 490.217 718.252C489.701 718.768 489.271 719.113 488.926 719.284C488.581 719.629 488.151 719.8 487.634 719.8C487.118 719.629 486.86 719.197 486.86 718.51V712.315C486.688 711.111 486.601 709.905 486.601 708.701C486.601 707.497 486.601 706.291 486.601 705.087C486.601 703.022 486.601 701.044 486.601 699.15C486.773 697.085 486.86 695.02 486.86 692.955C486.86 690.719 486.86 688.567 486.86 686.502C486.86 684.266 486.773 682.027 486.601 679.791C486.256 676.177 485.913 672.563 485.568 668.95C485.223 665.164 484.88 661.464 484.535 657.85C484.363 656.473 484.277 655.098 484.277 653.72C484.448 652.172 484.448 650.709 484.277 649.332C484.105 647.955 483.932 646.664 483.76 645.46C483.589 644.083 483.33 642.708 482.985 641.33C482.985 640.126 482.899 639.007 482.727 637.975C482.727 636.942 482.64 635.91 482.469 634.877C482.124 632.984 481.781 631.177 481.436 629.456C481.264 627.563 481.006 625.671 480.661 623.778C480.489 623.09 480.058 622.229 479.369 621.197H478.853C478.681 621.713 478.508 622.229 478.336 622.745C478.165 623.262 477.991 623.778 477.82 624.294C477.648 624.81 477.475 625.413 477.303 626.101C477.303 626.617 477.216 627.133 477.045 627.65C476.7 629.027 476.357 630.318 476.012 631.521C475.84 632.554 475.582 633.758 475.237 635.135C474.892 636.339 474.549 637.458 474.204 638.491C474.032 639.523 473.859 640.556 473.687 641.588C473.516 642.449 473.429 643.224 473.429 643.911C473.429 644.599 473.342 645.289 473.171 645.976C472.826 647.354 472.483 648.816 472.138 650.365C471.793 651.742 471.449 653.117 471.104 654.495C471.621 655.356 471.793 656.215 471.621 657.076C471.621 657.764 471.449 658.538 471.104 659.399C470.933 659.744 470.846 660.173 470.846 660.69C470.846 661.034 470.759 661.377 470.588 661.722C470.588 662.067 470.501 662.325 470.33 662.497C470.33 662.497 470.33 662.668 470.33 663.013C469.985 665.078 469.726 667.143 469.555 669.208C469.383 671.101 469.125 673.08 468.78 675.145C468.608 676.349 468.435 677.468 468.263 678.5C468.263 679.533 468.177 680.565 468.005 681.598V682.372C467.317 683.405 466.972 684.524 466.972 685.728C466.972 686.76 466.8 687.879 466.455 689.083C465.767 691.32 465.336 693.3 465.164 695.02C464.992 695.365 464.906 695.708 464.906 696.053C465.077 696.398 465.077 696.74 464.906 697.085C464.906 697.946 464.734 699.064 464.389 700.441C464.218 701.818 463.786 703.452 463.098 705.345C462.41 707.239 461.978 708.959 461.806 710.508C461.635 711.369 461.461 712.228 461.29 713.089C461.29 713.95 461.461 714.809 461.806 715.67C461.978 716.531 461.978 717.306 461.806 717.993C461.635 718.51 461.461 719.113 461.29 719.8C460.945 721.178 460.602 722.64 460.257 724.188C459.912 725.566 459.653 726.941 459.482 728.318C459.31 728.835 459.31 729.438 459.482 730.125C459.653 730.642 459.827 731.329 459.998 732.19C460.86 732.19 461.72 732.277 462.581 732.448C463.443 732.448 464.389 732.362 465.422 732.19C466.284 732.19 466.714 731.761 466.714 730.9C467.059 729.867 467.317 728.921 467.488 728.06C467.66 727.028 467.488 725.909 466.972 724.705C466.455 722.64 466.542 720.575 467.23 718.51C467.575 716.789 467.918 715.154 468.263 713.605C468.78 712.057 469.125 710.421 469.296 708.701C469.468 707.497 469.641 706.378 469.813 705.345C470.158 704.141 470.501 702.851 470.846 701.473C471.191 700.786 471.363 700.183 471.363 699.667C471.191 698.289 471.276 697.085 471.621 696.053C471.966 694.849 472.309 693.558 472.654 692.181C472.826 691.32 472.912 690.545 472.912 689.858C472.912 688.997 472.912 688.138 472.912 687.277C473.084 686.76 473.171 686.331 473.171 685.986C473.342 685.47 473.774 685.125 474.462 684.953C474.462 683.921 474.549 683.233 474.72 682.888C475.065 681.856 475.324 680.995 475.495 680.307C475.84 679.103 476.357 678.5 477.045 678.5C477.906 678.672 478.595 678.758 479.111 678.758C479.799 678.758 480.402 679.103 480.919 679.791C481.781 680.995 482.21 682.201 482.21 683.405C482.382 684.437 482.555 685.641 482.727 687.018C482.899 688.567 482.985 690.116 482.985 691.665C483.157 693.213 483.33 694.849 483.502 696.569C483.502 697.773 483.502 698.979 483.502 700.183C483.673 701.387 483.673 702.677 483.502 704.055C483.157 705.259 483.072 706.378 483.244 707.41C483.589 708.443 483.589 709.562 483.244 710.766V712.573C483.415 714.638 483.502 716.703 483.502 718.768C483.673 720.661 483.847 722.64 484.018 724.705C484.018 725.909 483.502 726.598 482.469 726.77C481.264 726.77 480.574 726.253 480.402 725.221C480.058 723.844 479.714 722.381 479.369 720.833C479.024 719.284 479.024 717.735 479.369 716.187C479.714 715.325 479.714 714.466 479.369 713.605C479.198 712.573 479.024 711.54 478.853 710.508V709.733C478.853 707.84 478.853 705.948 478.853 704.055C478.853 702.161 479.024 700.269 479.369 698.376C479.714 696.656 479.628 695.02 479.111 693.471C478.766 691.751 478.595 690.029 478.595 688.309C478.595 687.793 478.595 687.277 478.595 686.76C478.595 686.073 478.508 685.383 478.336 684.695H478.078C477.733 686.073 477.39 687.448 477.045 688.825C476.7 690.203 476.357 691.578 476.012 692.955C475.495 694.849 475.237 696.74 475.237 698.634C475.237 700.354 475.065 702.161 474.72 704.055C474.72 704.399 474.634 704.571 474.462 704.571C473.429 706.291 472.826 708.098 472.654 709.991C472.483 711.885 472.224 713.777 471.879 715.67C471.534 716.874 471.363 718.165 471.363 719.542C471.534 720.746 471.621 721.952 471.621 723.156C471.276 725.566 470.933 727.457 470.588 728.835C470.588 729.179 470.501 729.609 470.33 730.125C470.33 730.642 470.33 731.071 470.33 731.416C470.33 732.104 470.501 732.448 470.846 732.448C471.191 732.448 471.534 732.448 471.879 732.448C473.257 732.448 474.549 732.448 475.753 732.448C477.132 732.448 478.508 732.535 479.886 732.706C481.952 732.706 484.19 732.965 486.601 733.481C487.463 733.652 488.409 733.739 489.442 733.739C490.475 733.739 491.509 733.91 492.542 734.255C493.92 734.6 494.178 735.459 493.317 736.837L489.442 743.032C488.581 744.58 487.634 746.129 486.601 747.678C485.74 749.055 484.88 750.517 484.018 752.066C483.673 752.582 483.415 753.098 483.244 753.615C483.244 754.131 483.072 754.734 482.727 755.422H484.018C484.363 755.766 484.622 756.109 484.793 756.454C484.277 756.97 484.018 757.228 484.018 757.228C482.469 757.745 481.694 758.69 481.694 760.068C481.694 761.445 481.607 762.82 481.436 764.198C481.264 765.402 481.177 766.692 481.177 768.07C481.006 769.79 480.832 771.425 480.661 772.974C480.661 774.523 480.574 776.158 480.402 777.878C480.231 780.288 480.144 782.611 480.144 784.848C480.144 786.913 480.058 789.149 479.886 791.559C479.886 793.279 479.886 795.001 479.886 796.721C480.058 798.442 480.058 800.164 479.886 801.884C479.886 803.778 479.799 805.584 479.628 807.305C479.456 808.853 479.198 810.574 478.853 812.467C478.681 813.844 478.508 815.22 478.336 816.597C478.165 817.974 477.906 819.437 477.561 820.985C479.973 821.33 481.781 821.673 482.985 822.018C483.33 822.189 483.589 822.363 483.76 822.534C484.105 822.705 484.448 822.879 484.793 823.05C484.448 823.222 484.105 823.395 483.76 823.566C483.589 823.911 483.33 824.083 482.985 824.083C481.952 824.083 480.747 823.911 479.369 823.566C478.508 823.222 477.991 823.137 477.82 823.308C477.648 823.48 477.561 823.996 477.561 824.857C477.561 825.718 477.561 826.577 477.561 827.438C477.561 828.299 477.648 829.159 477.82 830.02C477.82 831.052 477.475 831.568 476.787 831.568C475.065 831.913 474.204 831.568 474.204 830.536V823.825C474.204 822.792 473.859 822.104 473.171 821.76C470.243 820.899 467.747 819.781 465.68 818.404C463.614 817.543 462.494 815.994 462.323 813.758C462.323 813.586 462.151 812.983 461.806 811.951C460.945 809.886 460.343 807.391 459.998 804.465C459.482 801.884 459.395 798.958 459.74 795.689C459.912 794.657 459.912 793.624 459.74 792.592C459.568 791.559 459.482 790.527 459.482 789.494V787.687C459.482 786.826 459.482 786.052 459.482 785.364C459.482 784.503 459.568 783.644 459.74 782.783C459.74 781.922 459.653 781.147 459.482 780.46C459.31 779.772 459.223 779.082 459.223 778.395C459.052 777.534 459.137 776.243 459.482 774.523C459.653 773.662 459.653 772.974 459.482 772.458C459.31 771.77 459.31 770.996 459.482 770.135C459.827 768.414 459.998 766.692 459.998 764.972C460.17 763.252 460.686 761.53 461.548 759.81C462.065 758.949 461.72 758.519 460.515 758.519H454.316C453.455 758.519 452.508 758.519 451.475 758.519C450.613 758.348 449.754 758.174 448.892 758.003C448.031 758.003 447.084 758.003 446.051 758.003C445.19 758.003 444.33 757.916 443.468 757.745C442.435 757.573 441.402 757.486 440.369 757.486C439.336 757.315 438.303 757.228 437.27 757.228C435.548 756.884 433.912 756.712 432.362 756.712C430.813 756.541 429.263 756.283 427.713 755.938C425.302 755.593 422.893 755.25 420.481 754.905C418.07 754.389 415.661 753.959 413.249 753.615C411.183 753.27 409.117 752.84 407.051 752.324C405.156 751.808 403.263 751.378 401.369 751.033C400.68 750.862 399.99 750.862 399.302 751.033C398.786 751.033 398.098 751.033 397.236 751.033C394.137 751.033 392.759 749.485 393.104 746.387C393.275 745.526 393.362 744.58 393.362 743.548C393.362 742.515 393.362 741.483 393.362 740.45L394.137 733.481V729.351C394.137 727.974 394.74 727.286 395.945 727.286C396.806 727.114 397.581 727.114 398.269 727.286C398.957 727.286 399.732 727.199 400.594 727.028C403.177 726.683 405.759 726.683 408.342 727.028C410.925 727.199 413.508 727.457 416.091 727.802C417.64 727.974 419.103 728.147 420.481 728.318C422.031 728.49 423.494 728.835 424.872 729.351C425.905 729.867 426.938 730.125 427.971 730.125C429.176 729.954 430.296 730.212 431.329 730.9C431.501 730.9 431.587 730.813 431.587 730.642ZM489.442 735.804C488.064 735.633 486.688 735.459 485.31 735.288C484.105 735.116 482.814 734.943 481.436 734.771C480.574 734.6 479.628 734.513 478.595 734.513C477.733 734.342 476.873 734.255 476.012 734.255C474.634 734.255 473.342 734.342 472.138 734.513C470.933 734.513 469.641 734.6 468.263 734.771H467.23C465.68 734.255 464.131 734.084 462.581 734.255C461.203 734.427 459.74 734.427 458.19 734.255C456.986 734.084 455.779 734.084 454.574 734.255C453.541 734.255 452.421 734.255 451.217 734.255C449.322 734.255 447.429 734.255 445.535 734.255C443.64 734.084 441.747 733.91 439.852 733.739C438.474 733.568 437.183 733.481 435.978 733.481C434.774 733.481 433.567 733.309 432.362 732.965C430.468 732.62 428.66 732.277 426.938 731.932C425.389 731.587 423.667 731.244 421.773 730.9C419.878 730.555 417.899 730.297 415.832 730.125C413.938 729.954 412.045 729.78 410.15 729.609C408.084 729.264 406.018 729.093 403.951 729.093C402.057 729.093 400.077 729.264 398.011 729.609C397.323 729.78 396.978 730.212 396.978 730.9C396.978 731.587 396.891 732.277 396.719 732.965C396.719 733.481 396.719 734.084 396.719 734.771C396.548 735.804 396.374 736.837 396.203 737.869C396.031 738.73 395.945 739.589 395.945 740.45C395.773 741.483 395.686 742.602 395.686 743.806C395.858 744.838 396.031 745.871 396.203 746.903C396.203 748.107 396.806 748.71 398.011 748.71C399.561 748.71 400.68 748.797 401.369 748.968C402.747 749.313 403.951 749.656 404.984 750.001C406.189 750.172 407.396 750.43 408.6 750.775C409.979 751.12 411.27 751.378 412.475 751.55C413.679 751.721 414.886 751.979 416.091 752.324C417.124 752.495 418.157 752.754 419.19 753.098C420.223 753.27 421.343 753.443 422.548 753.615C424.442 753.959 426.422 754.218 428.488 754.389C430.554 754.56 432.534 754.734 434.428 754.905C435.633 755.077 436.84 755.25 438.044 755.422C439.249 755.422 440.456 755.508 441.66 755.68C443.382 755.851 445.018 756.024 446.568 756.196C448.117 756.196 449.754 756.196 451.475 756.196C453.025 756.367 454.574 756.454 456.124 756.454C457.674 756.454 459.137 756.454 460.515 756.454C461.72 756.799 462.323 756.367 462.323 755.163L463.098 749.743C463.098 748.539 463.614 747.936 464.647 747.936C465.509 747.936 466.197 747.936 466.714 747.936C467.402 747.764 468.177 747.678 469.038 747.678C470.243 747.678 471.363 747.764 472.396 747.936C473.429 747.936 474.549 747.936 475.753 747.936H481.177C482.555 747.936 483.33 747.42 483.502 746.387C483.673 746.042 483.847 745.784 484.018 745.613C484.19 745.268 484.363 744.925 484.535 744.58C485.052 743.893 485.568 743.203 486.085 742.515C486.601 741.828 487.118 741.053 487.634 740.192C487.979 739.504 488.238 738.815 488.409 738.127C488.754 737.439 489.097 736.665 489.442 735.804ZM474.462 819.695C474.634 819.007 474.72 818.404 474.72 817.888C474.72 817.2 474.807 816.597 474.979 816.081C475.324 814.704 475.495 813.413 475.495 812.209C475.667 810.832 475.84 809.456 476.012 808.079C476.183 806.185 476.357 804.379 476.528 802.658C476.7 800.765 476.615 798.873 476.27 796.98V796.721C476.442 794.14 476.615 791.559 476.787 788.978C476.958 786.397 477.132 783.815 477.303 781.234C477.475 778.824 477.561 776.416 477.561 774.006C477.561 771.425 477.733 768.931 478.078 766.521C478.25 765.833 477.991 765.23 477.303 764.714C476.787 764.543 476.528 764.026 476.528 763.165C476.873 761.445 477.216 760.154 477.561 759.293C478.078 758.261 477.82 757.745 476.787 757.745H475.495C473.945 757.745 472.396 757.831 470.846 758.003C469.468 758.003 468.092 758.003 466.714 758.003C465.164 758.174 464.302 758.864 464.131 760.068C463.786 761.616 463.528 763.165 463.356 764.714C463.184 766.263 463.011 767.812 462.839 769.36C462.668 770.738 462.581 772.028 462.581 773.232C462.581 774.436 462.581 775.727 462.581 777.104C462.581 778.308 462.581 779.514 462.581 780.718C462.753 781.75 462.839 782.783 462.839 783.815C462.839 786.741 462.839 789.581 462.839 792.333C462.839 795.086 462.926 797.925 463.098 800.851C463.269 802.572 463.443 804.294 463.614 806.014C463.786 807.563 464.044 809.198 464.389 810.918C465.077 813.328 466.284 815.393 468.005 817.113C469.9 818.662 472.051 819.523 474.462 819.695ZM479.628 750.001C479.456 749.829 479.283 749.743 479.111 749.743H467.747C467.402 749.743 466.972 750.001 466.455 750.517C466.11 751.378 465.852 752.324 465.68 753.357C465.68 754.218 465.509 755.163 465.164 756.196H466.972C468.867 756.024 470.675 755.938 472.396 755.938C474.29 755.938 476.183 755.851 478.078 755.68C478.766 755.68 479.283 755.335 479.628 754.647V750.001ZM407.826 711.54C407.997 710.679 407.997 709.905 407.826 709.217C407.654 708.529 407.739 707.755 408.084 706.894C408.429 706.206 408.772 705.603 409.117 705.087C409.462 704.399 409.462 703.625 409.117 702.764C408.945 702.076 409.03 701.387 409.375 700.699C409.72 700.011 410.063 699.237 410.408 698.376C410.753 697.343 411.097 696.398 411.442 695.536C411.958 694.504 412.388 693.472 412.733 692.439C412.904 692.094 412.904 691.751 412.733 691.407C412.733 691.062 412.733 690.719 412.733 690.374C412.216 688.997 412.561 687.793 413.766 686.76C412.904 685.899 412.646 685.211 412.991 684.695C413.508 684.008 413.938 683.405 414.283 682.888C414.628 681.684 414.799 680.565 414.799 679.533C414.971 678.5 415.144 677.381 415.316 676.177C415.316 675.489 415.229 674.887 415.057 674.37C414.886 673.854 414.799 673.251 414.799 672.563C414.628 672.219 414.541 671.702 414.541 671.015C415.057 671.015 415.487 671.015 415.832 671.015C416.349 670.843 416.865 670.756 417.382 670.756C418.244 670.928 418.673 671.359 418.673 672.047C418.845 672.563 419.018 673.08 419.19 673.596C419.362 676.006 419.448 678.329 419.448 680.565C419.448 682.802 419.535 685.04 419.706 687.277C419.706 693.988 419.965 700.528 420.481 706.894C420.481 708.271 420.653 709.647 420.998 711.024C421.343 712.228 421.601 713.519 421.773 714.896C421.944 715.928 422.031 716.961 422.031 717.993C422.031 719.026 422.118 720.058 422.289 721.091C422.289 721.607 422.376 722.123 422.548 722.64C422.719 722.984 422.806 723.414 422.806 723.93C422.806 724.963 422.719 725.566 422.548 725.737C421.343 726.082 420.481 726.167 419.965 725.995C419.793 725.824 419.706 725.566 419.706 725.221C419.706 724.876 419.62 724.533 419.448 724.188C418.76 722.811 418.328 721.694 418.157 720.833C417.985 719.972 417.812 719.113 417.64 718.252C417.469 717.219 417.382 716.273 417.382 715.412C417.21 714.035 417.124 712.831 417.124 711.798C417.124 710.594 416.952 709.304 416.607 707.926C415.746 705.174 415.402 702.677 415.574 700.441C415.919 699.237 416.091 698.118 416.091 697.085C416.091 695.881 416.091 694.675 416.091 693.471C416.091 693.3 416.004 693.127 415.832 692.955C415.832 692.784 415.832 692.61 415.832 692.439C415.487 692.268 415.316 692.181 415.316 692.181C415.316 692.526 415.229 692.784 415.057 692.955L411.958 706.12C411.442 708.013 410.925 709.82 410.408 711.54C409.892 713.26 409.462 715.067 409.117 716.961C408.255 719.542 408.255 722.123 409.117 724.705C409.289 725.049 409.289 725.308 409.117 725.479C408.945 725.65 408.859 725.824 408.859 725.995C407.654 725.995 407.051 725.824 407.051 725.479C406.706 724.618 406.363 723.844 406.018 723.156C405.673 722.295 405.673 721.262 406.018 720.058C406.363 719.197 406.447 718.252 406.276 717.219C406.276 716.015 406.363 714.896 406.534 713.863C406.706 713.347 407.137 712.573 407.826 711.54Z" fill="white"/>
<path d="M404.468 281.356C403.485 279.979 403.19 278.209 403.583 276.046C403.976 273.883 404.37 272.113 404.763 270.736C404.763 270.343 404.861 270.048 405.059 269.851C405.256 269.458 405.156 269.163 404.763 268.966C404.566 268.769 404.075 268.671 403.287 268.671C402.5 268.278 402.009 267.884 401.812 267.491C401.221 266.508 400.926 265.328 400.926 263.951C401.123 262.378 401.221 261.099 401.221 260.116C401.221 259.133 401.123 258.346 400.926 257.756C400.729 256.969 400.533 256.183 400.336 255.396C400.138 254.609 400.041 253.921 400.041 253.331C400.041 252.544 399.943 251.659 399.745 250.676C399.745 250.086 399.648 249.496 399.45 248.906C399.253 248.316 399.057 247.726 398.86 247.136C398.662 246.349 398.565 245.661 398.565 245.071C398.762 244.284 398.86 243.498 398.86 242.711C399.057 240.941 399.057 239.269 398.86 237.696C398.86 236.123 399.057 234.451 399.45 232.681C399.843 230.911 400.041 229.239 400.041 227.666C400.238 225.896 400.433 224.126 400.631 222.356C400.631 221.373 400.631 220.488 400.631 219.701C400.631 218.914 400.729 218.029 400.926 217.046C400.926 216.063 401.419 215.276 402.402 214.686C403.19 214.489 403.976 214.391 404.763 214.391C405.551 214.391 406.239 214.391 406.83 214.391C407.813 214.194 408.698 214.096 409.486 214.096C410.47 214.096 411.455 213.998 412.438 213.801C415.783 213.408 419.03 213.113 422.179 212.916C425.524 212.719 428.87 212.326 432.215 211.736C435.56 211.146 438.906 210.654 442.251 210.261C445.793 209.868 449.238 209.474 452.582 209.081C454.156 208.884 455.829 208.688 457.6 208.491C459.371 208.294 461.045 208.098 462.618 207.901C464.192 207.704 465.767 207.606 467.341 207.606C469.112 207.606 470.686 207.311 472.064 206.721C473.442 206.131 474.818 205.541 476.196 204.951C477.575 204.361 478.951 203.673 480.329 202.886C483.083 201.116 485.15 198.953 486.528 196.396C487.511 195.019 488.299 193.741 488.889 192.561C489.479 191.184 490.07 189.709 490.66 188.136C491.448 186.759 491.546 185.678 490.955 184.891C490.562 184.301 489.972 183.711 489.184 183.121C488.594 182.531 488.004 182.039 487.413 181.646C486.233 180.663 484.954 179.876 483.576 179.286C482.198 178.499 480.722 177.811 479.148 177.221C477.575 176.631 475.999 176.139 474.425 175.746C472.852 175.156 471.276 174.664 469.703 174.271C468.129 173.878 466.553 173.583 464.98 173.386C463.406 173.189 461.831 173.189 460.257 173.386C458.683 173.583 457.108 173.583 455.534 173.386C453.96 172.993 452.385 172.796 450.811 172.796H440.48C438.709 172.993 436.938 173.189 435.167 173.386C433.396 173.583 431.722 173.779 430.149 173.976C426.804 174.369 423.36 174.959 419.817 175.746C416.473 176.336 413.126 176.828 409.781 177.221C408.208 177.614 406.534 177.909 404.763 178.106C402.992 178.303 401.221 178.598 399.45 178.991C398.467 179.188 397.089 179.483 395.318 179.876C393.744 180.073 392.464 179.876 391.48 179.286C390.3 178.696 389.807 177.713 390.004 176.336C390.202 174.763 390.202 173.484 390.004 172.501C389.807 171.714 389.512 171.124 389.119 170.731C388.922 170.141 388.726 169.551 388.529 168.961C388.136 166.994 387.938 165.519 387.938 164.536C387.15 160.799 387.053 157.554 387.643 154.801C387.643 154.014 387.741 153.326 387.938 152.736C388.136 151.949 388.331 151.163 388.529 150.376C388.726 150.179 388.824 149.983 388.824 149.786C388.626 149.589 388.529 149.393 388.529 149.196C388.529 148.803 388.529 148.508 388.529 148.311C388.726 148.114 388.824 147.819 388.824 147.426C389.021 146.639 389.021 145.951 388.824 145.361C388.626 144.771 388.529 144.181 388.529 143.591C388.922 142.804 389.414 142.509 390.004 142.706C390.595 142.706 391.185 142.706 391.776 142.706H401.812C403.385 142.509 404.961 142.509 406.534 142.706C408.108 142.706 409.684 142.706 411.257 142.706C412.045 142.509 412.733 142.509 413.324 142.706C414.111 142.706 414.997 142.608 415.98 142.411C416.768 142.411 417.456 142.313 418.046 142.116C418.834 141.919 419.62 141.723 420.408 141.526C422.179 141.329 423.95 141.329 425.721 141.526C427.492 141.723 429.263 141.821 431.034 141.821C432.608 141.624 434.281 141.526 436.052 141.526C437.823 141.329 439.594 141.231 441.365 141.231C444.71 141.231 448.057 141.133 451.402 140.936C454.944 140.739 458.388 140.739 461.733 140.936C463.306 140.936 464.882 141.133 466.456 141.526C468.029 141.723 469.605 141.821 471.178 141.821C473.147 141.821 474.623 141.919 475.606 142.116C476.589 142.313 477.377 142.509 477.968 142.706C478.755 142.903 479.641 143.099 480.624 143.296C483.969 143.886 487.315 144.279 490.66 144.476C494.202 144.673 497.647 145.066 500.991 145.656C502.565 146.049 504.041 146.541 505.419 147.131C506.993 147.524 508.568 148.016 510.142 148.606C513.291 149.589 516.143 150.573 518.702 151.556C519.293 151.949 519.883 152.244 520.473 152.441C521.064 152.638 521.556 152.933 521.949 153.326C522.539 153.719 523.032 154.211 523.425 154.801C524.015 155.194 524.606 155.588 525.196 155.981C525.984 156.374 526.672 156.768 527.262 157.161C527.853 157.358 528.345 157.751 528.738 158.341C530.312 159.914 531.297 161.193 531.69 162.176C532.28 163.553 532.673 165.028 532.871 166.601C533.264 167.978 533.559 169.354 533.756 170.731C533.954 171.714 534.149 172.599 534.347 173.386C534.544 174.173 534.74 174.959 534.937 175.746C535.33 176.533 535.625 177.221 535.822 177.811C536.215 178.401 536.511 179.089 536.708 179.876V184.006C536.511 185.776 536.511 187.448 536.708 189.021C536.708 190.004 536.61 190.889 536.413 191.676C536.413 192.266 536.315 192.954 536.118 193.741C535.92 194.724 535.725 195.708 535.527 196.691C535.527 197.674 535.43 198.658 535.232 199.641C534.839 201.214 534.444 202.788 534.051 204.361C533.658 205.934 533.264 207.508 532.871 209.081C532.673 209.868 532.478 210.654 532.28 211.441C532.28 212.228 532.083 213.014 531.69 213.801C531.297 214.588 530.804 215.374 530.214 216.161C529.624 216.751 529.131 217.439 528.738 218.226C526.967 220.979 525.196 223.634 523.425 226.191C521.851 228.551 519.685 230.616 516.931 232.386C515.553 233.369 514.274 234.353 513.094 235.336C511.913 236.123 510.535 236.909 508.961 237.696C507.388 238.089 506.305 238.581 505.714 239.171C504.927 239.564 504.336 239.859 503.943 240.056C503.55 240.253 502.96 240.548 502.172 240.941C498.827 241.924 495.481 242.711 492.136 243.301C488.987 243.891 485.74 244.481 482.395 245.071C479.051 245.661 475.606 246.054 472.064 246.251C468.719 246.448 465.373 246.251 462.028 245.661C458.683 245.268 455.337 244.776 451.992 244.186C448.647 243.399 445.301 242.613 441.956 241.826C438.611 241.039 435.264 240.253 431.92 239.466C428.771 238.679 425.524 237.696 422.179 236.516C418.834 234.943 415.783 233.861 413.028 233.271C411.06 232.878 409.486 232.681 408.306 232.681C407.913 232.681 407.223 232.681 406.239 232.681C405.451 232.484 404.861 232.583 404.468 232.976C404.075 233.369 403.976 233.959 404.173 234.746C404.37 235.533 404.566 236.123 404.763 236.516C404.961 237.303 405.059 238.089 405.059 238.876C405.256 239.663 405.452 240.449 405.649 241.236C406.042 242.023 406.337 242.809 406.534 243.596C406.732 244.186 406.927 244.973 407.125 245.956C407.322 246.743 407.42 247.529 407.42 248.316C407.42 248.906 407.617 249.594 408.01 250.381C408.403 251.954 408.798 253.626 409.191 255.396C409.584 256.969 409.781 258.641 409.781 260.411C409.781 262.181 409.684 263.558 409.486 264.541C409.486 266.114 409.979 266.901 410.962 266.901C412.536 267.098 414.209 267.196 415.98 267.196C417.751 266.999 419.424 266.803 420.998 266.606C422.572 266.606 424.048 266.606 425.426 266.606C427 266.606 428.575 266.508 430.149 266.311C430.936 266.311 431.625 266.409 432.215 266.606C433.003 266.606 433.789 266.606 434.576 266.606C435.56 266.606 436.347 266.508 436.938 266.311C437.528 266.114 438.316 266.114 439.299 266.311C442.448 266.901 445.793 267.196 449.335 267.196C450.123 267.393 450.811 267.393 451.402 267.196C451.992 266.999 452.68 266.803 453.468 266.606C454.451 266.606 455.239 266.704 455.829 266.901C456.617 267.098 457.502 267.294 458.486 267.491C460.059 267.688 461.635 267.786 463.209 267.786C464.98 267.786 466.653 267.983 468.227 268.376C471.376 268.573 474.523 269.359 477.672 270.736C478.46 271.129 479.148 271.523 479.739 271.916C480.329 272.113 481.017 272.309 481.805 272.506C482.395 272.703 482.888 272.899 483.281 273.096C483.674 273.096 483.969 273.489 484.166 274.276C484.954 273.883 485.544 273.784 485.937 273.981C486.135 274.178 486.233 274.374 486.233 274.571C486.43 274.768 486.626 274.964 486.823 275.161C487.216 275.358 487.511 275.456 487.708 275.456C487.906 275.456 488.201 275.554 488.594 275.751C488.987 275.948 489.184 276.144 489.184 276.341C489.382 276.341 489.677 276.439 490.07 276.636C490.463 277.029 490.858 277.423 491.251 277.816C491.644 278.209 492.038 278.603 492.431 278.996C492.824 279.193 493.119 279.389 493.317 279.586C493.514 279.783 493.809 279.979 494.202 280.176C494.99 280.569 495.186 281.061 494.793 281.651C495.186 282.044 495.58 282.241 495.973 282.241C496.366 282.044 496.761 282.143 497.154 282.536C497.547 282.929 497.942 283.421 498.335 284.011C498.925 284.601 499.418 285.093 499.811 285.486C500.794 286.469 501.582 287.551 502.172 288.731C502.763 289.714 503.451 290.796 504.238 291.976C505.419 294.139 506.797 296.204 508.371 298.171C509.945 299.941 511.225 301.908 512.208 304.071C512.601 305.054 512.799 305.841 512.799 306.431C512.799 307.021 513.094 307.709 513.684 308.496C514.274 308.693 514.57 308.889 514.57 309.086L515.455 310.856C515.848 311.249 516.143 311.741 516.341 312.331C516.734 312.724 517.128 313.118 517.521 313.511C518.112 314.691 518.407 315.969 518.407 317.346C518.604 318.526 518.9 319.706 519.293 320.886C519.49 321.279 519.685 321.771 519.883 322.361C520.08 322.754 520.178 323.246 520.178 323.836C520.178 324.623 520.08 325.311 519.883 325.901C519.883 326.491 519.883 327.278 519.883 328.261C520.08 329.048 520.08 330.031 519.883 331.211C519.883 332.391 520.08 333.374 520.473 334.161C520.866 334.554 521.064 334.653 521.064 334.456C521.064 334.259 521.161 334.456 521.359 335.046V337.111C521.359 338.881 521.161 340.159 520.768 340.946C519.981 343.699 519.195 346.453 518.407 349.206C517.619 351.763 516.833 354.418 516.046 357.171C515.848 357.761 515.75 358.449 515.75 359.236C515.75 359.826 515.653 360.416 515.455 361.006C515.258 361.596 515.062 362.088 514.865 362.481C514.667 362.874 514.57 363.366 514.57 363.956C514.372 365.529 513.979 366.808 513.389 367.791C512.799 368.774 512.11 369.954 511.323 371.331C510.535 372.314 509.749 373.396 508.961 374.576C508.174 375.756 507.388 376.838 506.6 377.821C505.617 378.804 504.731 379.788 503.943 380.771C503.155 381.951 502.172 382.836 500.991 383.426C499.811 384.016 498.532 384.409 497.154 384.606C495.776 384.999 494.498 385.393 493.317 385.786C491.743 386.179 490.07 386.573 488.299 386.966C486.725 387.359 485.15 387.753 483.576 388.146C477.672 389.719 471.769 390.604 465.865 390.801C459.764 391.194 453.566 391.489 447.269 391.686C441.168 391.883 435.069 391.686 428.968 391.096C425.819 390.703 422.769 390.211 419.817 389.621C416.866 389.031 413.816 388.539 410.667 388.146C407.715 387.753 404.763 387.261 401.812 386.671C399.057 386.278 396.203 385.884 393.251 385.491C392.268 385.294 391.087 385.196 389.709 385.196C388.529 385.196 387.643 384.803 387.053 384.016C386.265 383.033 385.97 381.853 386.167 380.476C386.56 379.099 386.56 377.821 386.167 376.641C385.774 375.264 385.675 373.986 385.872 372.806C386.069 371.429 386.167 370.053 386.167 368.676C386.167 367.299 386.069 365.923 385.872 364.546C385.872 363.169 385.97 361.891 386.167 360.711C386.365 359.728 386.462 358.646 386.462 357.466C386.265 356.876 386.265 356.286 386.462 355.696C386.66 355.106 386.757 354.516 386.757 353.926C386.955 350.976 386.955 348.026 386.757 345.076C386.757 343.109 387.053 341.044 387.643 338.881C388.036 337.504 388.036 336.226 387.643 335.046C387.446 333.866 387.545 332.588 387.938 331.211C388.331 329.834 388.626 328.654 388.824 327.671C389.217 326.491 389.414 325.213 389.414 323.836C389.414 323.443 389.414 322.951 389.414 322.361C389.414 321.574 389.611 320.984 390.004 320.591C390.397 320.198 390.792 320.099 391.185 320.296C391.776 320.493 392.168 320.788 392.366 321.181C392.759 321.574 392.858 322.164 392.661 322.951C392.464 323.738 392.366 324.426 392.366 325.016C392.168 325.803 392.071 326.589 392.071 327.376C392.071 327.966 391.973 328.654 391.776 329.441C391.578 331.014 391.383 332.489 391.185 333.866C391.185 335.243 391.185 336.718 391.185 338.291C391.185 339.668 391.087 341.044 390.89 342.421C390.89 343.601 390.89 344.879 390.89 346.256C390.693 347.829 390.595 349.403 390.595 350.976C390.595 352.549 390.497 354.123 390.3 355.696C390.102 358.646 389.907 361.694 389.709 364.841C389.709 367.791 389.807 370.741 390.004 373.691C390.004 374.478 390.004 375.166 390.004 375.756C390.202 376.543 390.3 377.428 390.3 378.411C390.3 378.804 390.3 379.394 390.3 380.181C390.3 381.164 390.497 381.853 390.89 382.246C391.283 382.639 392.168 382.836 393.547 382.836C394.53 383.033 395.318 383.131 395.908 383.131C396.696 383.131 397.581 383.229 398.565 383.426C399.943 383.819 401.221 384.114 402.402 384.311C403.78 384.704 405.156 385.098 406.534 385.491C408.108 385.884 409.584 386.081 410.962 386.081C412.34 386.081 413.816 386.278 415.39 386.671C418.539 387.261 421.589 387.753 424.54 388.146C427.492 388.736 430.542 389.228 433.691 389.621C436.445 390.014 439.299 390.014 442.251 389.621C443.825 389.424 445.4 389.326 446.974 389.326C448.745 389.523 450.516 389.621 452.287 389.621C453.665 389.621 455.041 389.523 456.42 389.326C457.798 389.326 459.274 389.326 460.847 389.326C462.421 389.326 463.897 389.326 465.275 389.326C466.653 389.326 468.129 389.228 469.703 389.031C471.081 388.834 472.359 388.441 473.54 387.851C474.918 387.261 476.196 386.966 477.377 386.966C477.968 386.966 478.46 387.064 478.853 387.261C479.443 387.458 479.936 387.556 480.329 387.556C481.707 387.359 483.083 386.868 484.461 386.081C485.052 385.884 485.544 385.688 485.937 385.491C486.528 385.491 487.118 385.491 487.708 385.491C488.101 385.491 488.496 385.393 488.889 385.196C488.889 385.196 489.184 384.901 489.775 384.311C490.168 384.114 490.66 384.114 491.251 384.311C492.038 384.508 492.629 384.606 493.022 384.606C493.612 384.409 494.202 384.213 494.793 384.016C495.58 384.016 496.269 383.819 496.859 383.426C498.04 382.836 499.023 382.049 499.811 381.066C500.599 380.083 501.484 379.099 502.467 378.116C503.451 376.936 504.336 375.756 505.124 374.576C506.107 373.593 507.092 372.511 508.076 371.331C508.863 369.954 509.649 368.184 510.437 366.021C510.83 365.431 511.028 364.841 511.028 364.251C511.028 363.661 511.125 363.071 511.323 362.481C511.52 361.694 511.716 361.006 511.913 360.416C512.306 359.826 512.701 359.138 513.094 358.351C513.291 357.761 513.389 357.269 513.389 356.876C513.389 356.286 513.487 355.794 513.684 355.401C513.684 354.614 513.782 353.926 513.979 353.336C514.177 352.746 514.472 352.058 514.865 351.271C515.258 349.894 515.553 348.616 515.75 347.436C516.143 346.059 516.538 344.584 516.931 343.011C517.521 340.258 517.719 337.406 517.521 334.456C517.521 331.506 517.324 328.654 516.931 325.901C516.734 324.721 516.538 323.344 516.341 321.771C516.143 320.198 515.848 318.821 515.455 317.641C515.062 317.051 514.667 316.559 514.274 316.166C514.077 315.576 513.782 314.986 513.389 314.396C512.601 312.429 512.011 311.053 511.618 310.266C508.863 304.563 505.812 299.154 502.467 294.041C501.877 293.058 501.189 291.976 500.401 290.796C499.811 289.616 499.023 288.534 498.04 287.551C497.056 286.371 495.973 285.289 494.793 284.306C493.612 283.323 492.529 282.241 491.546 281.061C490.562 280.274 489.577 279.488 488.594 278.701C487.806 277.718 486.823 277.029 485.642 276.636C484.461 276.243 483.281 275.751 482.1 275.161C480.919 274.374 479.739 273.784 478.558 273.391C475.804 272.211 472.95 271.424 469.998 271.031C467.046 270.441 464.192 269.949 461.438 269.556C458.683 269.163 455.829 268.966 452.877 268.966C449.926 268.966 446.974 268.769 444.022 268.376C442.448 268.376 440.972 268.376 439.594 268.376C438.216 268.179 436.84 268.081 435.462 268.081C433.888 268.278 432.313 268.376 430.739 268.376C429.165 268.376 427.59 268.376 426.016 268.376C423.064 268.573 420.113 268.671 417.161 268.671C414.406 268.474 411.552 268.573 408.601 268.966C408.994 269.949 409.093 270.834 408.896 271.621C408.896 272.408 408.798 273.293 408.601 274.276C408.208 275.259 408.01 276.243 408.01 277.226C408.01 278.013 407.913 278.898 407.715 279.881C407.715 281.651 407.715 283.519 407.715 285.486C407.715 287.453 407.223 289.223 406.239 290.796C407.223 290.796 408.698 290.599 410.667 290.206C411.65 290.009 412.536 289.911 413.324 289.911C414.307 289.911 415.292 289.911 416.275 289.911C418.244 289.911 420.21 289.911 422.179 289.911C424.147 289.714 426.114 289.813 428.082 290.206C430.051 290.403 431.92 290.796 433.691 291.386C435.462 291.779 437.331 292.271 439.299 292.861C441.07 293.254 442.841 293.648 444.612 294.041C446.383 294.238 448.155 294.631 449.926 295.221C457.207 296.991 464.192 300.039 470.883 304.366C472.457 305.349 473.933 306.333 475.311 307.316C476.689 308.299 478.065 309.479 479.443 310.856C480.624 312.233 481.412 313.708 481.805 315.281C482.198 316.658 482.593 318.231 482.986 320.001C483.773 323.344 484.166 327.081 484.166 331.211C484.166 333.178 484.166 335.046 484.166 336.816C484.166 338.389 483.773 340.061 482.986 341.831C482.002 344.584 480.329 346.748 477.968 348.321C476.589 349.304 475.114 350.189 473.54 350.976C471.966 351.763 470.391 352.648 468.817 353.631C468.227 354.024 467.734 354.516 467.341 355.106C466.948 355.696 466.358 356.188 465.57 356.581C464.782 356.974 464.094 357.466 463.504 358.056C462.913 358.449 462.225 358.843 461.438 359.236C458.486 360.809 454.846 361.793 450.516 362.186C449.533 362.383 448.647 362.481 447.859 362.481C447.072 362.481 446.186 362.481 445.203 362.481C444.219 362.678 443.234 362.874 442.251 363.071C441.268 363.268 440.283 363.366 439.299 363.366C438.118 363.366 436.545 362.973 434.576 362.186C433.593 361.793 432.51 361.596 431.329 361.596C430.346 361.399 429.361 361.203 428.378 361.006C427.394 360.809 426.509 360.711 425.721 360.711C424.933 360.514 424.048 360.219 423.064 359.826C422.081 359.433 421.196 359.039 420.408 358.646C419.817 358.253 419.129 357.859 418.342 357.466C416.768 356.483 415.095 355.893 413.324 355.696C411.552 355.303 409.781 354.909 408.01 354.516C407.027 354.319 406.042 354.221 405.059 354.221C404.271 354.024 403.385 353.828 402.402 353.631C401.419 353.238 400.433 353.139 399.45 353.336C398.662 353.336 397.777 353.238 396.794 353.041C396.006 352.648 395.318 352.451 394.727 352.451C394.334 352.254 394.039 352.254 393.842 352.451C393.644 352.451 393.349 352.353 392.956 352.156C392.366 351.959 392.071 351.468 392.071 350.681C392.071 350.288 392.661 350.091 393.842 350.091C395.613 349.894 397.384 350.091 399.155 350.681C400.926 351.074 402.795 351.271 404.763 351.271C405.944 351.271 407.518 351.664 409.486 352.451C410.47 352.844 411.355 353.139 412.143 353.336C413.126 353.533 414.111 353.729 415.095 353.926C416.668 354.123 418.144 354.516 419.522 355.106C421.096 355.696 422.572 356.384 423.95 357.171C424.738 357.564 425.426 357.859 426.016 358.056C426.804 358.253 427.689 358.449 428.673 358.646L431.329 359.531C432.117 359.924 432.708 360.121 433.1 360.121C433.493 360.318 433.789 360.318 433.986 360.121C434.379 359.924 434.774 359.924 435.167 360.121C435.56 360.121 435.855 360.219 436.052 360.416C436.445 360.416 436.84 360.416 437.233 360.416C438.216 360.613 439.102 360.613 439.89 360.416C440.873 360.219 441.858 360.121 442.841 360.121C444.612 359.924 446.383 359.826 448.155 359.826C450.123 359.629 452.09 359.334 454.058 358.941C457.798 358.351 461.045 356.876 463.799 354.516C466.751 351.959 469.9 349.894 473.245 348.321C474.623 347.534 475.804 346.846 476.787 346.256C477.77 345.469 478.656 344.388 479.443 343.011C480.231 341.438 480.624 339.766 480.624 337.996C480.822 336.029 480.919 334.161 480.919 332.391V327.376C480.722 326.393 480.427 325.508 480.034 324.721C479.836 323.738 479.641 322.754 479.443 321.771C479.246 320.984 479.148 320.296 479.148 319.706C479.346 318.919 479.443 318.133 479.443 317.346C479.246 316.363 478.46 315.183 477.082 313.806C476.294 313.216 475.311 312.134 474.13 310.561C473.737 309.774 473.245 309.381 472.654 309.381C472.261 309.184 471.571 308.889 470.588 308.496C469.8 308.103 469.112 307.611 468.522 307.021C467.932 306.431 467.243 305.939 466.456 305.546L462.028 302.891C458.683 301.318 455.239 299.744 451.697 298.171C449.926 297.581 448.155 297.089 446.383 296.696C444.612 296.303 442.841 295.909 441.07 295.516C439.102 295.123 437.233 294.729 435.462 294.336C433.691 293.746 431.822 293.254 429.854 292.861C428.87 292.664 427.985 292.566 427.197 292.566C426.607 292.369 425.819 292.271 424.835 292.271C424.048 292.468 423.262 292.566 422.474 292.566C421.686 292.369 420.801 292.369 419.817 292.566C418.834 292.566 417.949 292.664 417.161 292.861C416.373 292.861 415.488 292.861 414.504 292.861C413.521 293.058 412.536 293.156 411.552 293.156C410.765 292.959 409.879 292.959 408.896 293.156C407.715 293.549 406.534 293.844 405.354 294.041C404.173 294.041 403.385 293.254 402.992 291.681C402.992 290.698 402.992 289.813 402.992 289.026C403.19 288.239 403.385 287.354 403.583 286.371C403.583 285.388 403.583 284.503 403.583 283.716C403.78 282.929 404.075 282.143 404.468 281.356ZM403.878 230.321C405.256 230.518 406.534 230.616 407.715 230.616C408.896 230.419 410.174 230.321 411.552 230.321C412.931 230.321 414.209 230.518 415.39 230.911C416.768 231.304 418.144 231.698 419.522 232.091C420.506 232.484 421.491 232.976 422.474 233.566C423.457 234.156 424.443 234.549 425.426 234.746C426.804 234.943 427.985 235.238 428.968 235.631C430.149 236.024 431.329 236.418 432.51 236.811C435.264 237.794 438.021 238.581 440.775 239.171C443.529 239.761 446.383 240.351 449.335 240.941C452.09 241.334 454.746 241.826 457.305 242.416C459.864 243.006 462.521 243.301 465.275 243.301C468.029 243.301 470.785 243.301 473.54 243.301C476.294 243.104 479.05 242.908 481.805 242.711C483.183 242.711 484.461 242.613 485.642 242.416C486.823 242.023 488.101 241.629 489.48 241.236C490.66 240.843 491.841 240.646 493.022 240.646C494.4 240.449 495.678 240.154 496.859 239.761C497.842 239.368 498.728 238.974 499.516 238.581C500.499 238.188 501.484 237.794 502.467 237.401C503.648 236.811 504.829 236.319 506.009 235.926C507.19 235.336 508.371 234.648 509.552 233.861C511.323 232.878 513.192 231.403 515.16 229.436C516.143 228.649 517.029 227.961 517.817 227.371C518.604 226.584 519.49 225.699 520.473 224.716C521.261 223.733 521.949 222.749 522.539 221.766C523.13 220.586 523.818 219.504 524.606 218.521C525.196 217.341 525.884 216.161 526.672 214.981C527.46 213.604 528.05 212.326 528.443 211.146C528.836 209.966 529.033 208.786 529.033 207.606C529.231 206.426 529.526 205.246 529.919 204.066C530.312 202.493 530.707 201.313 531.1 200.526C531.297 199.936 531.395 199.444 531.395 199.051C531.395 198.461 531.493 197.871 531.69 197.281C531.69 195.904 531.887 194.626 532.28 193.446C532.673 192.069 532.871 190.693 532.871 189.316C533.264 186.366 533.166 183.514 532.576 180.761C532.378 179.384 532.183 178.106 531.985 176.926C531.788 175.549 531.493 174.173 531.1 172.796C530.707 171.223 530.312 169.748 529.919 168.371C529.721 166.994 529.329 165.618 528.738 164.241C527.755 161.881 526.279 159.914 524.311 158.341C522.539 156.768 520.571 155.489 518.407 154.506C513.094 151.753 507.878 149.786 502.762 148.606C500.008 148.016 497.252 147.524 494.498 147.131C491.743 146.738 488.987 146.344 486.233 145.951C484.854 145.558 483.478 145.361 482.1 145.361C480.919 145.361 479.541 145.361 477.968 145.361C476.589 145.164 475.213 144.968 473.835 144.771C472.457 144.574 471.081 144.378 469.703 144.181C463.406 143.591 457.01 143.394 450.516 143.591C444.219 143.788 437.921 144.083 431.625 144.476C428.28 144.476 424.933 144.476 421.589 144.476C418.439 144.476 415.192 144.673 411.848 145.066C410.274 145.066 408.698 145.066 407.125 145.066C405.551 144.869 403.976 144.771 402.402 144.771C400.828 144.968 399.253 145.066 397.679 145.066C396.105 145.066 394.53 145.066 392.956 145.066C392.956 147.229 392.759 149.393 392.366 151.556C391.973 153.523 391.873 155.588 392.071 157.751C392.268 159.914 392.464 162.078 392.661 164.241C392.858 166.208 393.154 168.273 393.547 170.436C393.744 171.223 393.842 172.403 393.842 173.976C393.842 174.369 393.842 174.763 393.842 175.156C393.842 175.549 393.94 175.844 394.137 176.041C394.53 176.631 395.318 176.828 396.498 176.631C397.679 176.238 398.565 176.041 399.155 176.041C401.319 175.648 403.583 175.353 405.944 175.156C408.305 174.959 410.569 174.664 412.733 174.271C414.897 173.878 417.063 173.386 419.227 172.796C421.391 172.206 423.557 171.813 425.721 171.616C427.885 171.419 430.051 171.223 432.215 171.026C434.379 170.829 436.545 170.633 438.709 170.436H445.498C446.481 170.436 447.564 170.338 448.745 170.141C449.926 169.944 451.106 169.944 452.287 170.141C454.451 170.534 456.617 170.731 458.781 170.731C460.945 170.731 463.111 170.928 465.275 171.321C469.407 171.714 473.54 172.599 477.672 173.976C479.641 174.763 481.51 175.451 483.281 176.041C485.052 176.631 486.823 177.418 488.594 178.401C489.972 179.384 491.348 180.466 492.726 181.646C493.119 182.039 493.612 182.629 494.202 183.416C494.99 184.006 495.481 184.694 495.678 185.481C495.876 185.874 495.876 186.268 495.678 186.661C495.481 186.858 495.285 187.153 495.088 187.546C494.89 187.939 494.793 188.333 494.793 188.726C494.793 188.923 494.695 189.218 494.498 189.611C494.105 191.184 493.219 192.954 491.841 194.921C490.858 196.691 489.872 198.363 488.889 199.936C487.906 201.313 486.43 202.493 484.461 203.476C483.674 203.869 482.986 204.361 482.395 204.951C482.002 205.344 481.312 205.738 480.329 206.131C479.148 206.524 477.968 207.016 476.787 207.606C475.804 207.999 474.721 208.393 473.54 208.786L470.883 209.671C470.49 209.868 469.998 209.966 469.407 209.966C469.014 209.769 468.62 209.671 468.227 209.671C467.046 209.474 465.865 209.573 464.685 209.966C463.701 210.163 462.618 210.359 461.438 210.556C459.274 210.753 457.108 211.048 454.944 211.441C452.975 211.638 450.909 211.834 448.745 212.031C445.991 212.424 443.334 212.719 440.775 212.916C438.414 213.113 435.954 213.309 433.396 213.506C432.018 213.703 430.739 213.899 429.558 214.096C428.378 214.096 427.099 214.293 425.721 214.686C423.36 215.276 421.196 215.571 419.227 215.571C416.668 215.571 414.209 215.866 411.848 216.456C411.257 216.456 410.667 216.554 410.077 216.751C409.486 216.751 408.896 216.751 408.306 216.751C407.913 216.751 407.42 216.751 406.83 216.751C406.437 216.554 406.042 216.653 405.649 217.046C405.059 217.636 404.666 218.718 404.468 220.291C404.468 221.668 404.468 222.749 404.468 223.536C404.271 224.716 404.075 225.896 403.878 227.076C403.878 228.256 403.878 229.338 403.878 230.321ZM405.059 265.721C405.059 265.524 405.059 264.738 405.059 263.361C405.256 261.788 405.256 260.313 405.059 258.936C405.059 257.363 404.961 255.986 404.763 254.806C404.566 253.626 404.37 253.036 404.173 253.036C404.173 253.036 404.173 253.626 404.173 254.806C404.173 255.986 404.271 257.363 404.468 258.936C404.666 260.509 404.763 261.984 404.763 263.361C404.961 264.738 405.059 265.524 405.059 265.721Z" fill="white"/>
</g>
</g>
<defs>
<clipPath id="clip0_140_130">
<rect width="880" height="885" fill="white"/>
</clipPath>
</defs>
</svg>
