<svg width="886" height="886" viewBox="0 0 886 886" fill="none" xmlns="http://www.w3.org/2000/svg">
<g clip-path="url(#clip0_173_336)">
<rect width="886" height="886" fill="white"/>
<rect width="886" height="886" fill="#E61EAA"/>
<rect y="569" width="886" height="317" fill="#640B49"/>
<path d="M441.536 740.853C441.536 739.82 441.364 738.616 441.019 737.239C440.848 734.829 440.674 732.421 440.503 730.012C440.331 727.602 440.158 725.194 439.986 722.784C439.641 719.858 439.383 717.105 439.211 714.524C439.211 711.771 439.124 709.017 438.953 706.264C438.781 704.887 438.608 703.425 438.436 701.876C438.436 700.327 438.265 698.865 437.92 697.488C437.748 696.111 437.575 694.735 437.403 693.358C437.232 691.981 436.973 690.605 436.628 689.228C436.457 688.367 436.283 687.421 436.112 686.389C436.112 685.356 435.94 684.41 435.595 683.549C435.25 681.656 434.907 679.849 434.562 678.129C434.391 676.235 434.132 674.343 433.787 672.45C433.616 672.105 433.529 671.847 433.529 671.675C433.701 671.504 433.787 671.246 433.787 670.901C433.787 670.385 433.701 669.869 433.529 669.352C433.529 668.836 433.529 668.233 433.529 667.545C433.529 667.374 433.442 667.287 433.271 667.287C433.271 667.116 433.271 666.943 433.271 666.771C433.271 665.394 433.184 664.19 433.012 663.157C433.012 661.953 433.012 660.663 433.012 659.285V647.928V644.314C433.012 642.937 432.926 641.646 432.754 640.442C432.754 639.065 432.667 637.69 432.496 636.312C432.496 634.419 431.893 632.354 430.688 630.117C430.343 631.838 430 633.473 429.655 635.022C429.31 636.399 429.225 637.861 429.396 639.41V639.926C429.051 640.959 428.708 641.991 428.363 643.024C428.192 644.056 427.933 645.175 427.588 646.379C427.417 647.24 427.244 648.015 427.072 648.702C426.9 649.39 426.727 650.164 426.555 651.025C426.384 652.229 426.21 653.435 426.039 654.639C425.867 655.843 425.609 657.049 425.264 658.253C425.264 659.114 425.264 659.973 425.264 660.834C425.264 661.695 425.177 662.554 425.006 663.415C424.661 664.619 424.402 665.825 424.231 667.029C424.231 668.062 424.059 669.181 423.714 670.385C423.369 671.762 423.111 673.224 422.939 674.773C422.939 676.322 422.768 677.784 422.423 679.161L421.648 682.259C421.303 684.152 420.873 685.959 420.357 687.679C420.012 689.399 419.668 691.121 419.323 692.842C419.152 694.219 418.979 695.51 418.807 696.714C418.807 697.746 418.72 698.95 418.549 700.327L417.774 704.974C417.429 706.351 417.257 707.641 417.257 708.845C417.257 710.049 417.086 711.255 416.741 712.459C416.569 713.32 416.311 714.095 415.966 714.782C415.794 715.47 415.621 716.244 415.449 717.105C414.933 718.826 414.416 720.461 413.9 722.01C413.555 723.559 413.211 725.107 412.866 726.656C412.35 728.55 411.404 730.699 410.025 733.109C409.509 733.97 409.251 734.571 409.251 734.916C409.251 735.088 409.509 735.604 410.025 736.465C409.509 736.81 408.647 736.894 407.443 736.723C406.409 736.378 405.893 735.949 405.893 735.432C405.721 735.088 405.806 734.486 406.151 733.625C406.496 732.938 406.668 732.421 406.668 732.077C407.184 730.873 407.614 729.754 407.959 728.721C408.476 727.517 408.906 726.311 409.251 725.107C409.596 724.075 409.939 723.042 410.284 722.01C410.8 720.806 411.23 719.6 411.575 718.396C411.92 717.192 412.178 715.986 412.35 714.782C412.521 713.578 412.78 712.288 413.125 710.91C413.296 710.394 413.383 709.878 413.383 709.362C413.383 708.674 413.47 708.071 413.641 707.555V706.78C413.986 705.919 414.245 705.145 414.416 704.457C414.588 703.596 414.846 702.737 415.191 701.876C415.191 701.188 415.363 700.327 415.708 699.295C415.708 698.779 415.621 698.262 415.449 697.746C415.449 697.23 415.536 696.8 415.708 696.455C416.053 694.907 416.224 693.358 416.224 691.809C416.224 690.26 416.311 688.712 416.482 687.163C416.482 686.475 416.654 685.786 416.999 685.098C417.344 684.41 417.602 683.721 417.774 683.033C418.119 682 418.29 681.226 418.29 680.71C418.462 679.849 418.635 679.074 418.807 678.387C418.979 677.699 419.152 676.925 419.323 676.064C419.495 675.203 419.582 674.343 419.582 673.482C419.582 672.621 419.668 671.762 419.84 670.901L420.615 667.029C420.786 666.684 420.873 665.997 420.873 664.964C421.045 664.448 421.045 663.932 420.873 663.415C420.702 662.728 420.96 662.211 421.648 661.867C421.648 661.867 421.648 661.522 421.648 660.834C421.303 659.457 421.218 658.166 421.39 656.962C421.735 655.758 422.165 654.553 422.681 653.349C422.853 652.832 422.939 652.403 422.939 652.058C423.111 651.542 423.284 651.025 423.456 650.509C423.628 649.132 423.801 647.756 423.973 646.379C424.144 645.002 424.318 643.626 424.489 642.249L425.264 638.377C425.609 637.173 425.867 636.054 426.039 635.022C426.384 633.818 426.727 632.699 427.072 631.666L427.847 628.569L428.622 623.922C428.793 622.89 429.483 622.374 430.688 622.374C432.583 622.718 433.787 623.751 434.304 625.471C434.649 627.191 434.992 628.827 435.337 630.375C435.853 631.924 436.198 633.56 436.37 635.28C436.715 637.69 437.058 640.184 437.403 642.765C437.748 645.175 437.748 647.67 437.403 650.251C437.232 651.284 437.232 652.316 437.403 653.349C437.575 654.381 437.661 655.414 437.661 656.446V662.641C437.833 664.535 437.92 666.341 437.92 668.062C438.091 669.61 438.265 671.331 438.436 673.224C438.608 674.773 438.781 676.322 438.953 677.87C439.124 679.419 439.383 680.968 439.728 682.517C439.899 683.894 440.073 685.185 440.244 686.389C440.589 687.421 440.932 688.625 441.277 690.002C441.622 692.239 441.881 694.39 442.052 696.455C442.224 698.52 442.482 700.672 442.827 702.909C442.999 703.941 443.085 704.974 443.085 706.006C443.257 707.039 443.515 707.984 443.86 708.845V710.394V717.622C443.86 718.483 443.86 719.429 443.86 720.461C444.032 721.494 444.118 722.439 444.118 723.3C444.118 724.678 444.29 726.053 444.635 727.43C444.98 728.808 444.98 730.183 444.635 731.56C444.463 732.421 444.463 733.367 444.635 734.4C444.98 735.432 445.238 736.378 445.41 737.239C445.581 737.755 445.668 738.443 445.668 739.304C445.668 741.198 446.615 742.144 448.509 742.144C449.197 741.972 450.23 741.885 451.609 741.885C452.987 742.057 454.45 742.144 455.999 742.144C457.549 742.144 459.012 742.23 460.39 742.402C461.078 742.402 461.682 742.488 462.198 742.66C462.886 742.66 463.576 742.66 464.264 742.66H466.072C466.072 741.627 466.072 740.681 466.072 739.82C466.244 738.788 466.331 737.842 466.331 736.981C466.676 735.604 466.847 734.313 466.847 733.109C467.019 731.905 467.192 730.615 467.364 729.237V727.947C467.535 727.43 467.622 727.001 467.622 726.656C467.622 726.14 467.709 725.624 467.88 725.107C468.052 724.763 468.139 724.591 468.139 724.591C467.967 723.042 468.052 721.494 468.397 719.945C468.913 718.396 469.258 716.934 469.43 715.557C469.775 713.663 470.118 711.771 470.463 709.878C470.98 707.984 471.41 706.093 471.755 704.199C471.926 703.167 472.1 702.221 472.271 701.36C472.616 700.327 472.874 699.295 473.046 698.262C473.391 696.885 473.562 695.51 473.562 694.132C473.734 692.755 473.992 691.38 474.337 690.002C474.509 688.454 474.682 686.905 474.854 685.356C475.025 683.807 475.284 682.172 475.629 680.452C475.974 678.731 476.145 677.096 476.145 675.547C476.317 673.827 476.575 672.105 476.92 670.385C477.265 668.491 477.523 666.6 477.695 664.706C478.04 662.813 478.383 660.921 478.728 659.027C479.073 657.307 479.331 655.672 479.503 654.123C479.848 652.403 480.191 650.681 480.536 648.96C480.881 647.583 481.139 646.208 481.311 644.83C481.482 643.453 481.827 642.078 482.344 640.7C482.861 638.807 483.29 636.915 483.635 635.022C483.98 633.128 484.755 631.321 485.96 629.601C486.132 629.43 486.218 629.256 486.218 629.085C486.39 628.913 486.563 628.74 486.735 628.569C487.08 627.365 487.768 626.762 488.801 626.762C490.351 626.762 491.471 627.278 492.159 628.31C493.02 630.031 493.88 632.182 494.742 634.764C495.087 635.625 495.345 636.484 495.516 637.345C495.861 638.206 495.946 639.065 495.775 639.926C495.603 640.959 495.688 641.904 496.033 642.765C496.55 643.626 496.894 644.572 497.066 645.605C497.066 647.498 497.153 649.39 497.324 651.284C497.496 653.177 497.754 655.069 498.099 656.962C498.099 657.823 498.099 658.769 498.099 659.802C498.271 660.834 498.444 661.78 498.616 662.641L499.391 674.257C499.562 676.493 499.649 678.731 499.649 680.968C499.82 683.033 500.079 685.185 500.424 687.421C500.769 689.831 501.112 691.981 501.457 693.874C501.457 694.046 501.37 694.219 501.199 694.39C501.199 694.39 501.199 694.562 501.199 694.907C501.027 696.284 500.94 697.659 500.94 699.037C500.94 700.414 500.854 701.789 500.682 703.167C500.682 704.199 500.595 705.232 500.424 706.264C500.424 707.125 500.337 707.984 500.165 708.845C500.165 709.706 500.165 710.136 500.165 710.136C500.165 711.513 500.165 712.889 500.165 714.266C500.337 715.643 500.51 717.019 500.682 718.396C500.854 719.773 500.854 721.322 500.682 723.042C500.337 723.903 500.165 724.849 500.165 725.882C500.337 726.743 500.337 727.602 500.165 728.463C499.649 728.979 499.219 729.324 498.874 729.495C498.529 729.84 498.099 730.012 497.583 730.012C497.066 729.84 496.808 729.409 496.808 728.721V722.526C496.636 721.322 496.55 720.116 496.55 718.912C496.55 717.708 496.55 716.503 496.55 715.299C496.55 713.234 496.55 711.255 496.55 709.362C496.721 707.297 496.808 705.232 496.808 703.167C496.808 700.93 496.808 698.779 496.808 696.714C496.808 694.477 496.721 692.239 496.55 690.002C496.205 686.389 495.861 682.775 495.516 679.161C495.171 675.376 494.828 671.675 494.483 668.062C494.312 666.684 494.225 665.309 494.225 663.932C494.397 662.383 494.397 660.921 494.225 659.544C494.053 658.166 493.88 656.876 493.708 655.672C493.537 654.294 493.279 652.919 492.934 651.542C492.934 650.338 492.847 649.219 492.675 648.186C492.675 647.154 492.589 646.121 492.417 645.089C492.072 643.195 491.729 641.388 491.384 639.668C491.212 637.774 490.954 635.883 490.609 633.989C490.437 633.301 490.006 632.44 489.318 631.408H488.801C488.629 631.924 488.456 632.44 488.284 632.957C488.113 633.473 487.94 633.989 487.768 634.505C487.596 635.022 487.423 635.625 487.251 636.312C487.251 636.829 487.165 637.345 486.993 637.861C486.648 639.238 486.305 640.529 485.96 641.733C485.788 642.765 485.53 643.969 485.185 645.347C484.84 646.551 484.497 647.67 484.152 648.702C483.98 649.735 483.807 650.767 483.635 651.8C483.464 652.661 483.377 653.435 483.377 654.123C483.377 654.811 483.29 655.5 483.119 656.188C482.774 657.565 482.431 659.027 482.086 660.576C481.741 661.953 481.398 663.329 481.053 664.706C481.569 665.567 481.741 666.426 481.569 667.287C481.569 667.975 481.398 668.749 481.053 669.61C480.881 669.955 480.794 670.385 480.794 670.901C480.794 671.246 480.708 671.589 480.536 671.934C480.536 672.278 480.449 672.536 480.278 672.708C480.278 672.708 480.278 672.879 480.278 673.224C479.933 675.289 479.675 677.354 479.503 679.419C479.331 681.313 479.073 683.291 478.728 685.356C478.557 686.56 478.383 687.679 478.212 688.712C478.212 689.744 478.125 690.777 477.953 691.809V692.584C477.265 693.616 476.92 694.735 476.92 695.939C476.92 696.972 476.749 698.091 476.404 699.295C475.715 701.531 475.284 703.511 475.112 705.232C474.941 705.576 474.854 705.919 474.854 706.264C475.025 706.609 475.025 706.952 474.854 707.297C474.854 708.158 474.682 709.275 474.337 710.652C474.166 712.03 473.734 713.663 473.046 715.557C472.358 717.45 471.926 719.17 471.755 720.719C471.583 721.58 471.41 722.439 471.238 723.3C471.238 724.161 471.41 725.021 471.755 725.882C471.926 726.743 471.926 727.517 471.755 728.205C471.583 728.721 471.41 729.324 471.238 730.012C470.893 731.389 470.55 732.851 470.205 734.4C469.86 735.777 469.602 737.153 469.43 738.53C469.258 739.046 469.258 739.649 469.43 740.337C469.602 740.853 469.775 741.541 469.947 742.402C470.808 742.402 471.668 742.488 472.529 742.66C473.391 742.66 474.337 742.573 475.37 742.402C476.232 742.402 476.662 741.972 476.662 741.111C477.007 740.079 477.265 739.133 477.437 738.272C477.608 737.239 477.437 736.12 476.92 734.916C476.404 732.851 476.49 730.786 477.178 728.721C477.523 727.001 477.867 725.365 478.212 723.817C478.728 722.268 479.073 720.633 479.245 718.912C479.416 717.708 479.59 716.589 479.761 715.557C480.106 714.353 480.449 713.062 480.794 711.685C481.139 710.997 481.311 710.394 481.311 709.878C481.139 708.501 481.224 707.297 481.569 706.264C481.914 705.06 482.257 703.77 482.602 702.392C482.774 701.531 482.861 700.757 482.861 700.069C482.861 699.208 482.861 698.349 482.861 697.488C483.032 696.972 483.119 696.542 483.119 696.197C483.29 695.681 483.722 695.336 484.41 695.165C484.41 694.132 484.497 693.445 484.669 693.1C485.014 692.067 485.272 691.206 485.443 690.519C485.788 689.315 486.305 688.712 486.993 688.712C487.855 688.883 488.543 688.97 489.059 688.97C489.748 688.97 490.351 689.315 490.867 690.002C491.729 691.206 492.159 692.412 492.159 693.616C492.33 694.649 492.504 695.853 492.675 697.23C492.847 698.779 492.934 700.327 492.934 701.876C493.105 703.425 493.279 705.06 493.45 706.78C493.45 707.984 493.45 709.19 493.45 710.394C493.622 711.598 493.622 712.889 493.45 714.266C493.105 715.47 493.02 716.589 493.192 717.622C493.537 718.654 493.537 719.773 493.192 720.977V722.784C493.363 724.849 493.45 726.914 493.45 728.979C493.622 730.873 493.795 732.851 493.967 734.916C493.967 736.12 493.45 736.81 492.417 736.981C491.212 736.981 490.522 736.465 490.351 735.432C490.006 734.055 489.663 732.593 489.318 731.044C488.973 729.495 488.973 727.947 489.318 726.398C489.663 725.537 489.663 724.678 489.318 723.817C489.146 722.784 488.973 721.752 488.801 720.719V719.945C488.801 718.051 488.801 716.16 488.801 714.266C488.801 712.372 488.973 710.481 489.318 708.587C489.663 706.867 489.576 705.232 489.059 703.683C488.714 701.963 488.543 700.241 488.543 698.52C488.543 698.004 488.543 697.488 488.543 696.972C488.543 696.284 488.456 695.594 488.284 694.907H488.026C487.681 696.284 487.338 697.659 486.993 699.037C486.648 700.414 486.305 701.789 485.96 703.167C485.443 705.06 485.185 706.952 485.185 708.845C485.185 710.566 485.014 712.372 484.669 714.266C484.669 714.611 484.582 714.782 484.41 714.782C483.377 716.503 482.774 718.309 482.602 720.203C482.431 722.096 482.172 723.988 481.827 725.882C481.482 727.086 481.311 728.376 481.311 729.754C481.482 730.958 481.569 732.163 481.569 733.367C481.224 735.777 480.881 737.669 480.536 739.046C480.536 739.391 480.449 739.82 480.278 740.337C480.278 740.853 480.278 741.283 480.278 741.627C480.278 742.315 480.449 742.66 480.794 742.66C481.139 742.66 481.482 742.66 481.827 742.66C483.206 742.66 484.497 742.66 485.702 742.66C487.08 742.66 488.456 742.746 489.834 742.918C491.9 742.918 494.138 743.176 496.55 743.692C497.411 743.864 498.357 743.95 499.391 743.95C500.424 743.95 501.457 744.122 502.49 744.467C503.868 744.811 504.126 745.671 503.265 747.048L499.391 753.243C498.529 754.792 497.583 756.34 496.55 757.889C495.688 759.266 494.828 760.729 493.967 762.277C493.622 762.794 493.363 763.31 493.192 763.826C493.192 764.342 493.02 764.945 492.675 765.633H493.967C494.312 765.978 494.57 766.321 494.742 766.665C494.225 767.182 493.967 767.44 493.967 767.44C492.417 767.956 491.642 768.902 491.642 770.279C491.642 771.656 491.555 773.032 491.384 774.409C491.212 775.613 491.126 776.904 491.126 778.281C490.954 780.001 490.781 781.637 490.609 783.185C490.609 784.734 490.522 786.37 490.351 788.09C490.179 790.5 490.092 792.823 490.092 795.059C490.092 797.124 490.006 799.361 489.834 801.77C489.834 803.491 489.834 805.213 489.834 806.933C490.006 808.653 490.006 810.375 489.834 812.095C489.834 813.989 489.747 815.796 489.576 817.516C489.404 819.065 489.146 820.785 488.801 822.679C488.629 824.056 488.456 825.431 488.284 826.809C488.113 828.186 487.855 829.648 487.51 831.197C489.921 831.541 491.729 831.884 492.934 832.229C493.279 832.401 493.537 832.574 493.708 832.745C494.053 832.917 494.397 833.09 494.742 833.262C494.397 833.433 494.053 833.606 493.708 833.778C493.537 834.123 493.279 834.294 492.934 834.294C491.9 834.294 490.696 834.123 489.318 833.778C488.456 833.433 487.94 833.348 487.768 833.52C487.596 833.691 487.51 834.208 487.51 835.069C487.51 835.93 487.51 836.789 487.51 837.65C487.51 838.511 487.596 839.37 487.768 840.231C487.768 841.264 487.423 841.78 486.735 841.78C485.014 842.125 484.152 841.78 484.152 840.747V834.036C484.152 833.004 483.807 832.316 483.119 831.971C480.191 831.11 477.695 829.993 475.629 828.615C473.562 827.754 472.443 826.206 472.271 823.969C472.271 823.798 472.1 823.195 471.755 822.162C470.893 820.097 470.292 817.603 469.947 814.677C469.43 812.095 469.343 809.169 469.688 805.9C469.86 804.868 469.86 803.835 469.688 802.803C469.517 801.77 469.43 800.738 469.43 799.705V797.899C469.43 797.038 469.43 796.263 469.43 795.575C469.43 794.714 469.517 793.855 469.688 792.994C469.688 792.133 469.602 791.359 469.43 790.671C469.258 789.983 469.172 789.294 469.172 788.606C469 787.745 469.085 786.454 469.43 784.734C469.602 783.873 469.602 783.185 469.43 782.669C469.258 781.981 469.258 781.207 469.43 780.346C469.775 778.626 469.947 776.904 469.947 775.184C470.118 773.463 470.635 771.741 471.496 770.021C472.013 769.16 471.668 768.73 470.463 768.73H464.264C463.403 768.73 462.456 768.73 461.423 768.73C460.562 768.559 459.702 768.386 458.84 768.214C457.979 768.214 457.033 768.214 455.999 768.214C455.138 768.214 454.278 768.128 453.417 767.956C452.383 767.785 451.35 767.698 450.317 767.698C449.284 767.526 448.251 767.44 447.218 767.44C445.497 767.095 443.86 766.924 442.311 766.924C440.761 766.752 439.211 766.494 437.661 766.149C435.25 765.804 432.841 765.461 430.43 765.117C428.018 764.6 425.609 764.171 423.198 763.826C421.131 763.481 419.065 763.052 416.999 762.535C415.104 762.019 413.211 761.59 411.317 761.245C410.629 761.073 409.939 761.073 409.251 761.245C408.734 761.245 408.046 761.245 407.184 761.245C404.085 761.245 402.707 759.696 403.052 756.599C403.223 755.738 403.31 754.792 403.31 753.759C403.31 752.727 403.31 751.694 403.31 750.662L404.085 743.692V739.562C404.085 738.185 404.688 737.497 405.893 737.497C406.754 737.326 407.529 737.326 408.217 737.497C408.906 737.497 409.68 737.411 410.542 737.239C413.125 736.894 415.708 736.894 418.29 737.239C420.873 737.411 423.456 737.669 426.039 738.014C427.588 738.185 429.051 738.358 430.43 738.53C431.979 738.701 433.442 739.046 434.82 739.562C435.853 740.079 436.887 740.337 437.92 740.337C439.124 740.165 440.244 740.423 441.277 741.111C441.449 741.111 441.536 741.024 441.536 740.853ZM499.391 746.015C498.012 745.844 496.636 745.671 495.258 745.499C494.053 745.328 492.762 745.154 491.384 744.983C490.522 744.811 489.576 744.725 488.543 744.725C487.681 744.553 486.822 744.467 485.96 744.467C484.582 744.467 483.29 744.553 482.086 744.725C480.881 744.725 479.59 744.811 478.212 744.983H477.178C475.629 744.467 474.079 744.295 472.529 744.467C471.151 744.638 469.688 744.638 468.139 744.467C466.934 744.295 465.727 744.295 464.523 744.467C463.49 744.467 462.37 744.467 461.165 744.467C459.27 744.467 457.378 744.467 455.483 744.467C453.588 744.295 451.695 744.122 449.801 743.95C448.423 743.779 447.131 743.692 445.926 743.692C444.722 743.692 443.515 743.521 442.311 743.176C440.416 742.831 438.608 742.488 436.887 742.144C435.337 741.799 433.616 741.456 431.721 741.111C429.826 740.766 427.847 740.508 425.781 740.337C423.886 740.165 421.993 739.992 420.098 739.82C418.032 739.476 415.966 739.304 413.9 739.304C412.005 739.304 410.025 739.476 407.959 739.82C407.271 739.992 406.926 740.423 406.926 741.111C406.926 741.799 406.839 742.488 406.668 743.176C406.668 743.692 406.668 744.295 406.668 744.983C406.496 746.015 406.323 747.048 406.151 748.08C405.98 748.941 405.893 749.801 405.893 750.662C405.721 751.694 405.635 752.813 405.635 754.017C405.806 755.05 405.98 756.082 406.151 757.115C406.151 758.319 406.754 758.922 407.959 758.922C409.509 758.922 410.629 759.008 411.317 759.18C412.695 759.525 413.9 759.868 414.933 760.212C416.137 760.384 417.344 760.642 418.549 760.987C419.927 761.331 421.218 761.59 422.423 761.761C423.628 761.933 424.834 762.191 426.039 762.535C427.072 762.707 428.105 762.965 429.138 763.31C430.171 763.481 431.291 763.655 432.496 763.826C434.39 764.171 436.37 764.429 438.436 764.6C440.503 764.772 442.482 764.945 444.377 765.117C445.581 765.288 446.788 765.461 447.993 765.633C449.197 765.633 450.404 765.72 451.609 765.891C453.33 766.062 454.966 766.236 456.516 766.407C458.066 766.407 459.702 766.407 461.423 766.407C462.973 766.579 464.523 766.665 466.072 766.665C467.622 766.665 469.085 766.665 470.463 766.665C471.668 767.01 472.271 766.579 472.271 765.375L473.046 759.954C473.046 758.75 473.562 758.147 474.596 758.147C475.457 758.147 476.145 758.147 476.662 758.147C477.35 757.976 478.125 757.889 478.986 757.889C480.191 757.889 481.311 757.976 482.344 758.147C483.377 758.147 484.497 758.147 485.702 758.147H491.126C492.504 758.147 493.279 757.631 493.45 756.599C493.622 756.254 493.795 755.996 493.967 755.824C494.138 755.479 494.312 755.136 494.483 754.792C495 754.104 495.516 753.414 496.033 752.727C496.55 752.039 497.066 751.265 497.583 750.404C497.928 749.716 498.186 749.026 498.357 748.339C498.702 747.651 499.046 746.876 499.391 746.015ZM484.41 829.906C484.582 829.218 484.669 828.615 484.669 828.099C484.669 827.411 484.755 826.809 484.927 826.292C485.272 824.915 485.443 823.624 485.443 822.42C485.615 821.043 485.788 819.668 485.96 818.29C486.132 816.397 486.305 814.59 486.477 812.87C486.648 810.976 486.563 809.085 486.218 807.191V806.933C486.39 804.352 486.563 801.77 486.735 799.189C486.906 796.608 487.08 794.027 487.251 791.445C487.423 789.036 487.51 786.628 487.51 784.218C487.51 781.637 487.681 779.142 488.026 776.732C488.198 776.045 487.94 775.442 487.251 774.925C486.735 774.754 486.477 774.238 486.477 773.377C486.822 771.656 487.165 770.366 487.51 769.505C488.026 768.472 487.768 767.956 486.735 767.956H485.443C483.894 767.956 482.344 768.043 480.794 768.214C479.416 768.214 478.04 768.214 476.662 768.214C475.112 768.386 474.251 769.075 474.079 770.279C473.734 771.828 473.476 773.377 473.304 774.925C473.133 776.474 472.959 778.023 472.788 779.572C472.616 780.949 472.529 782.24 472.529 783.444C472.529 784.648 472.529 785.938 472.529 787.315C472.529 788.519 472.529 789.725 472.529 790.929C472.701 791.962 472.788 792.994 472.788 794.027C472.788 796.953 472.788 799.792 472.788 802.545C472.788 805.298 472.874 808.137 473.046 811.063C473.218 812.783 473.391 814.505 473.562 816.225C473.734 817.774 473.992 819.41 474.337 821.13C475.025 823.54 476.232 825.605 477.953 827.325C479.848 828.874 481.999 829.735 484.41 829.906ZM489.576 760.212C489.404 760.041 489.231 759.954 489.059 759.954H477.695C477.35 759.954 476.92 760.212 476.404 760.729C476.059 761.59 475.8 762.535 475.629 763.568C475.629 764.429 475.457 765.375 475.112 766.407H476.92C478.815 766.236 480.623 766.149 482.344 766.149C484.239 766.149 486.132 766.062 488.026 765.891C488.714 765.891 489.231 765.546 489.576 764.859V760.212ZM417.774 721.752C417.945 720.891 417.945 720.116 417.774 719.429C417.602 718.741 417.687 717.966 418.032 717.105C418.377 716.418 418.72 715.815 419.065 715.299C419.41 714.611 419.41 713.836 419.065 712.975C418.894 712.288 418.978 711.598 419.323 710.91C419.668 710.223 420.012 709.448 420.357 708.587C420.702 707.555 421.045 706.609 421.39 705.748C421.906 704.715 422.336 703.683 422.681 702.65C422.853 702.306 422.853 701.963 422.681 701.618C422.681 701.273 422.681 700.93 422.681 700.585C422.165 699.208 422.51 698.004 423.714 696.972C422.853 696.111 422.594 695.423 422.939 694.907C423.456 694.219 423.886 693.616 424.231 693.1C424.576 691.896 424.747 690.777 424.747 689.744C424.919 688.712 425.092 687.593 425.264 686.389C425.264 685.701 425.177 685.098 425.006 684.582C424.834 684.065 424.747 683.463 424.747 682.775C424.576 682.43 424.489 681.914 424.489 681.226C425.006 681.226 425.436 681.226 425.781 681.226C426.297 681.055 426.814 680.968 427.33 680.968C428.192 681.139 428.622 681.571 428.622 682.259C428.793 682.775 428.967 683.291 429.138 683.807C429.31 686.217 429.396 688.54 429.396 690.777C429.396 693.013 429.483 695.251 429.655 697.488C429.655 704.199 429.913 710.739 430.43 717.105C430.43 718.483 430.601 719.858 430.946 721.235C431.291 722.439 431.549 723.73 431.721 725.107C431.893 726.14 431.979 727.172 431.979 728.205C431.979 729.237 432.066 730.27 432.238 731.302C432.238 731.819 432.324 732.335 432.496 732.851C432.667 733.196 432.754 733.625 432.754 734.142C432.754 735.174 432.667 735.777 432.496 735.949C431.291 736.293 430.43 736.378 429.913 736.207C429.741 736.035 429.655 735.777 429.655 735.432C429.655 735.088 429.568 734.745 429.396 734.4C428.708 733.023 428.277 731.905 428.105 731.044C427.933 730.183 427.76 729.324 427.588 728.463C427.417 727.43 427.33 726.485 427.33 725.624C427.159 724.246 427.072 723.042 427.072 722.01C427.072 720.806 426.9 719.515 426.555 718.138C425.694 715.385 425.351 712.889 425.522 710.652C425.867 709.448 426.039 708.329 426.039 707.297C426.039 706.093 426.039 704.887 426.039 703.683C426.039 703.511 425.952 703.338 425.781 703.167C425.781 702.995 425.781 702.822 425.781 702.65C425.436 702.479 425.264 702.392 425.264 702.392C425.264 702.737 425.177 702.995 425.006 703.167L421.906 716.331C421.39 718.225 420.873 720.031 420.357 721.752C419.84 723.472 419.41 725.279 419.065 727.172C418.204 729.754 418.204 732.335 419.065 734.916C419.237 735.261 419.237 735.519 419.065 735.69C418.894 735.862 418.807 736.035 418.807 736.207C417.602 736.207 416.999 736.035 416.999 735.69C416.654 734.829 416.311 734.055 415.966 733.367C415.621 732.506 415.621 731.474 415.966 730.27C416.311 729.409 416.396 728.463 416.224 727.43C416.224 726.226 416.311 725.107 416.482 724.075C416.654 723.559 417.086 722.784 417.774 721.752Z" fill="white"/>
<path d="M396.695 291.568C395.711 290.19 395.416 288.42 395.809 286.258C396.202 284.095 396.597 282.325 396.99 280.948C396.99 280.555 397.088 280.26 397.285 280.063C397.482 279.67 397.383 279.375 396.99 279.178C396.793 278.98 396.302 278.883 395.514 278.883C394.726 278.49 394.236 278.095 394.038 277.703C393.448 276.72 393.153 275.54 393.153 274.163C393.35 272.59 393.448 271.31 393.448 270.328C393.448 269.345 393.35 268.558 393.153 267.968C392.955 267.18 392.76 266.395 392.562 265.608C392.365 264.82 392.267 264.133 392.267 263.543C392.267 262.755 392.169 261.87 391.972 260.888C391.972 260.298 391.874 259.708 391.677 259.118C391.479 258.528 391.284 257.938 391.086 257.348C390.889 256.56 390.791 255.873 390.791 255.283C390.989 254.495 391.086 253.71 391.086 252.923C391.284 251.153 391.284 249.48 391.086 247.908C391.086 246.335 391.284 244.663 391.677 242.893C392.07 241.123 392.267 239.45 392.267 237.878C392.464 236.108 392.66 234.338 392.857 232.568C392.857 231.585 392.857 230.7 392.857 229.913C392.857 229.125 392.955 228.24 393.153 227.258C393.153 226.275 393.645 225.488 394.628 224.898C395.416 224.7 396.202 224.603 396.99 224.603C397.778 224.603 398.466 224.603 399.056 224.603C400.039 224.405 400.925 224.308 401.713 224.308C402.696 224.308 403.681 224.21 404.665 224.013C408.009 223.62 411.256 223.325 414.405 223.128C417.75 222.93 421.097 222.538 424.441 221.948C427.786 221.358 431.133 220.865 434.478 220.473C438.02 220.08 441.464 219.685 444.809 219.293C446.382 219.095 448.056 218.9 449.827 218.703C451.598 218.505 453.271 218.31 454.845 218.113C456.419 217.915 457.994 217.818 459.568 217.818C461.339 217.818 462.912 217.523 464.291 216.933C465.669 216.343 467.045 215.753 468.423 215.163C469.801 214.573 471.177 213.885 472.556 213.098C475.31 211.328 477.376 209.165 478.754 206.608C479.738 205.23 480.525 203.953 481.116 202.773C481.706 201.395 482.296 199.92 482.887 198.348C483.675 196.97 483.772 195.89 483.182 195.103C482.789 194.513 482.199 193.923 481.411 193.333C480.821 192.743 480.23 192.251 479.64 191.858C478.459 190.874 477.181 190.088 475.802 189.498C474.424 188.711 472.948 188.023 471.375 187.433C469.801 186.843 468.226 186.351 466.652 185.958C465.078 185.368 463.503 184.876 461.929 184.483C460.355 184.089 458.78 183.794 457.206 183.598C455.633 183.401 454.057 183.401 452.483 183.598C450.91 183.794 449.334 183.794 447.761 183.598C446.187 183.204 444.611 183.008 443.038 183.008H432.706C430.935 183.204 429.164 183.401 427.393 183.598C425.622 183.794 423.949 183.991 422.375 184.188C419.031 184.581 415.586 185.171 412.044 185.958C408.699 186.548 405.353 187.039 402.008 187.433C400.434 187.826 398.761 188.121 396.99 188.318C395.219 188.514 393.448 188.809 391.677 189.203C390.693 189.399 389.315 189.694 387.544 190.088C385.971 190.284 384.69 190.088 383.707 189.498C382.526 188.908 382.034 187.924 382.231 186.548C382.428 184.974 382.428 183.696 382.231 182.713C382.034 181.926 381.738 181.336 381.345 180.943C381.148 180.353 380.953 179.763 380.755 179.173C380.362 177.206 380.165 175.731 380.165 174.748C379.377 171.011 379.279 167.766 379.87 165.013C379.87 164.226 379.967 163.538 380.165 162.948C380.362 162.161 380.558 161.374 380.755 160.588C380.953 160.391 381.05 160.194 381.05 159.998C380.853 159.801 380.755 159.604 380.755 159.408C380.755 159.014 380.755 158.719 380.755 158.523C380.953 158.326 381.05 158.031 381.05 157.638C381.248 156.851 381.248 156.163 381.05 155.573C380.853 154.983 380.755 154.393 380.755 153.803C381.148 153.016 381.641 152.721 382.231 152.918C382.821 152.918 383.412 152.918 384.002 152.918H394.038C395.612 152.721 397.187 152.721 398.761 152.918C400.335 152.918 401.91 152.918 403.484 152.918C404.272 152.721 404.96 152.721 405.55 152.918C406.338 152.918 407.223 152.819 408.207 152.623C408.994 152.623 409.683 152.524 410.273 152.328C411.061 152.131 411.847 151.934 412.634 151.738C414.405 151.541 416.176 151.541 417.948 151.738C419.719 151.934 421.49 152.033 423.261 152.033C424.834 151.836 426.508 151.738 428.279 151.738C430.05 151.541 431.821 151.443 433.592 151.443C436.937 151.443 440.283 151.344 443.628 151.148C447.17 150.951 450.615 150.951 453.959 151.148C455.533 151.148 457.108 151.344 458.682 151.738C460.256 151.934 461.831 152.033 463.405 152.033C465.373 152.033 466.849 152.131 467.833 152.328C468.816 152.524 469.604 152.721 470.194 152.918C470.982 153.114 471.867 153.311 472.851 153.508C476.195 154.098 479.542 154.491 482.887 154.688C486.429 154.884 489.873 155.278 493.218 155.868C494.792 156.261 496.268 156.753 497.646 157.343C499.219 157.736 500.795 158.228 502.369 158.818C505.518 159.801 508.37 160.784 510.929 161.768C511.519 162.161 512.109 162.456 512.7 162.653C513.29 162.849 513.783 163.144 514.176 163.538C514.766 163.931 515.259 164.423 515.652 165.013C516.242 165.406 516.832 165.799 517.423 166.193C518.21 166.586 518.898 166.979 519.489 167.373C520.079 167.569 520.572 167.963 520.965 168.553C522.538 170.126 523.524 171.404 523.917 172.388C524.507 173.764 524.9 175.239 525.097 176.813C525.49 178.189 525.785 179.566 525.983 180.943C526.18 181.926 526.376 182.811 526.573 183.598C526.771 184.384 526.966 185.171 527.163 185.958C527.556 186.744 527.852 187.433 528.049 188.023C528.442 188.613 528.737 189.301 528.935 190.088V194.218C528.737 195.988 528.737 197.66 528.935 199.233C528.935 200.215 528.837 201.1 528.639 201.888C528.639 202.478 528.542 203.165 528.344 203.953C528.147 204.935 527.951 205.92 527.754 206.903C527.754 207.885 527.656 208.87 527.459 209.853C527.066 211.425 526.671 213 526.278 214.573C525.885 216.145 525.49 217.72 525.097 219.293C524.9 220.08 524.704 220.865 524.507 221.653C524.507 222.44 524.31 223.225 523.917 224.013C523.524 224.8 523.031 225.585 522.441 226.373C521.85 226.963 521.358 227.65 520.965 228.438C519.194 231.19 517.423 233.845 515.652 236.403C514.078 238.763 511.912 240.828 509.158 242.598C507.78 243.58 506.501 244.565 505.32 245.548C504.14 246.335 502.762 247.12 501.188 247.908C499.614 248.3 498.531 248.793 497.941 249.383C497.153 249.775 496.563 250.07 496.17 250.268C495.777 250.465 495.187 250.76 494.399 251.153C491.054 252.135 487.707 252.923 484.363 253.513C481.214 254.103 477.967 254.693 474.622 255.283C471.277 255.873 467.833 256.265 464.291 256.463C460.946 256.66 457.599 256.463 454.254 255.873C450.91 255.48 447.563 254.988 444.218 254.398C440.874 253.61 437.527 252.825 434.182 252.038C430.838 251.25 427.491 250.465 424.146 249.678C420.997 248.89 417.75 247.908 414.405 246.728C411.061 245.155 408.009 244.073 405.255 243.483C403.286 243.09 401.713 242.893 400.532 242.893C400.139 242.893 399.449 242.893 398.466 242.893C397.678 242.695 397.088 242.795 396.695 243.188C396.302 243.58 396.202 244.17 396.4 244.958C396.597 245.745 396.793 246.335 396.99 246.728C397.187 247.515 397.285 248.3 397.285 249.088C397.482 249.875 397.678 250.66 397.875 251.448C398.268 252.235 398.564 253.02 398.761 253.808C398.958 254.398 399.154 255.185 399.351 256.168C399.549 256.955 399.647 257.74 399.647 258.528C399.647 259.118 399.844 259.805 400.237 260.593C400.63 262.165 401.025 263.838 401.418 265.608C401.811 267.18 402.008 268.853 402.008 270.623C402.008 272.393 401.91 273.77 401.713 274.753C401.713 276.325 402.205 277.113 403.189 277.113C404.762 277.31 406.436 277.408 408.207 277.408C409.978 277.21 411.651 277.015 413.225 276.818C414.798 276.818 416.274 276.818 417.652 276.818C419.226 276.818 420.802 276.72 422.375 276.523C423.163 276.523 423.851 276.62 424.441 276.818C425.229 276.818 426.015 276.818 426.803 276.818C427.786 276.818 428.574 276.72 429.164 276.523C429.755 276.325 430.542 276.325 431.526 276.523C434.675 277.113 438.02 277.408 441.562 277.408C442.35 277.605 443.038 277.605 443.628 277.408C444.218 277.21 444.907 277.015 445.694 276.818C446.678 276.818 447.465 276.915 448.056 277.113C448.844 277.31 449.729 277.505 450.712 277.703C452.286 277.9 453.862 277.998 455.435 277.998C457.206 277.998 458.88 278.195 460.453 278.588C463.602 278.785 466.75 279.57 469.899 280.948C470.687 281.34 471.375 281.735 471.965 282.128C472.556 282.325 473.244 282.52 474.031 282.718C474.622 282.915 475.114 283.11 475.507 283.308C475.9 283.308 476.195 283.7 476.393 284.488C477.181 284.095 477.771 283.995 478.164 284.193C478.361 284.39 478.459 284.585 478.459 284.783C478.656 284.98 478.852 285.175 479.049 285.373C479.442 285.57 479.738 285.668 479.935 285.668C480.132 285.668 480.428 285.765 480.821 285.963C481.213 286.16 481.411 286.355 481.411 286.553C481.608 286.553 481.903 286.65 482.296 286.848C482.689 287.24 483.084 287.635 483.477 288.028C483.87 288.42 484.265 288.815 484.658 289.208C485.051 289.405 485.346 289.6 485.543 289.798C485.741 289.995 486.036 290.19 486.429 290.388C487.217 290.78 487.412 291.273 487.019 291.863C487.412 292.255 487.807 292.453 488.2 292.453C488.593 292.255 488.988 292.355 489.381 292.748C489.774 293.14 490.168 293.633 490.561 294.223C491.152 294.813 491.644 295.305 492.037 295.698C493.021 296.68 493.808 297.763 494.399 298.943C494.989 299.925 495.677 301.008 496.465 302.188C497.646 304.35 499.024 306.415 500.597 308.383C502.171 310.153 503.451 312.12 504.435 314.283C504.828 315.265 505.025 316.053 505.025 316.643C505.025 317.233 505.32 317.92 505.911 318.708C506.501 318.905 506.796 319.1 506.796 319.298L507.682 321.068C508.075 321.46 508.37 321.953 508.567 322.543C508.96 322.935 509.355 323.33 509.748 323.723C510.338 324.903 510.634 326.18 510.634 327.558C510.831 328.738 511.126 329.918 511.519 331.098C511.716 331.49 511.912 331.983 512.109 332.573C512.307 332.965 512.405 333.458 512.405 334.048C512.405 334.835 512.307 335.523 512.109 336.113C512.109 336.703 512.109 337.49 512.109 338.473C512.307 339.26 512.307 340.243 512.109 341.423C512.109 342.603 512.307 343.585 512.7 344.373C513.093 344.765 513.29 344.865 513.29 344.668C513.29 344.47 513.388 344.668 513.585 345.258V347.323C513.585 349.093 513.388 350.37 512.995 351.158C512.207 353.91 511.421 356.665 510.634 359.418C509.846 361.975 509.06 364.63 508.272 367.383C508.075 367.973 507.977 368.66 507.977 369.448C507.977 370.038 507.879 370.628 507.682 371.218C507.484 371.808 507.289 372.3 507.091 372.693C506.894 373.085 506.796 373.578 506.796 374.168C506.599 375.74 506.206 377.02 505.615 378.003C505.025 378.985 504.337 380.165 503.549 381.543C502.761 382.525 501.976 383.608 501.188 384.788C500.4 385.968 499.614 387.05 498.826 388.033C497.843 389.015 496.958 390 496.17 390.983C495.382 392.163 494.399 393.048 493.218 393.638C492.037 394.228 490.759 394.62 489.381 394.818C488.003 395.21 486.724 395.605 485.543 395.998C483.97 396.39 482.296 396.785 480.525 397.178C478.952 397.57 477.376 397.965 475.802 398.358C469.899 399.93 463.995 400.815 458.092 401.013C451.991 401.405 445.792 401.7 439.496 401.898C433.395 402.095 427.296 401.898 421.195 401.308C418.045 400.915 414.996 400.423 412.044 399.833C409.092 399.243 406.043 398.75 402.894 398.358C399.942 397.965 396.99 397.473 394.038 396.883C391.284 396.49 388.43 396.095 385.478 395.703C384.495 395.505 383.314 395.408 381.936 395.408C380.755 395.408 379.87 395.015 379.279 394.228C378.491 393.245 378.196 392.065 378.394 390.688C378.787 389.31 378.787 388.033 378.394 386.853C378.001 385.475 377.901 384.198 378.099 383.018C378.296 381.64 378.394 380.265 378.394 378.888C378.394 377.51 378.296 376.135 378.099 374.758C378.099 373.38 378.196 372.103 378.394 370.923C378.591 369.94 378.689 368.858 378.689 367.678C378.491 367.088 378.491 366.498 378.689 365.908C378.886 365.318 378.984 364.728 378.984 364.138C379.181 361.188 379.181 358.238 378.984 355.288C378.984 353.32 379.279 351.255 379.87 349.093C380.263 347.715 380.263 346.438 379.87 345.258C379.672 344.078 379.772 342.8 380.165 341.423C380.558 340.045 380.853 338.865 381.05 337.883C381.443 336.703 381.641 335.425 381.641 334.048C381.641 333.655 381.641 333.163 381.641 332.573C381.641 331.785 381.838 331.195 382.231 330.803C382.624 330.41 383.019 330.31 383.412 330.508C384.002 330.705 384.395 331 384.592 331.393C384.985 331.785 385.085 332.375 384.888 333.163C384.69 333.95 384.592 334.638 384.592 335.228C384.395 336.015 384.297 336.8 384.297 337.588C384.297 338.178 384.199 338.865 384.002 339.653C383.805 341.225 383.609 342.7 383.412 344.078C383.412 345.455 383.412 346.93 383.412 348.503C383.412 349.88 383.314 351.255 383.117 352.633C383.117 353.813 383.117 355.09 383.117 356.468C382.919 358.04 382.821 359.615 382.821 361.188C382.821 362.76 382.724 364.335 382.526 365.908C382.329 368.858 382.133 371.905 381.936 375.053C381.936 378.003 382.034 380.953 382.231 383.903C382.231 384.69 382.231 385.378 382.231 385.968C382.428 386.755 382.526 387.64 382.526 388.623C382.526 389.015 382.526 389.605 382.526 390.393C382.526 391.375 382.724 392.065 383.117 392.458C383.51 392.85 384.395 393.048 385.773 393.048C386.756 393.245 387.544 393.343 388.135 393.343C388.922 393.343 389.808 393.44 390.791 393.638C392.169 394.03 393.448 394.325 394.628 394.523C396.007 394.915 397.383 395.31 398.761 395.703C400.335 396.095 401.811 396.293 403.189 396.293C404.567 396.293 406.043 396.49 407.616 396.883C410.766 397.473 413.815 397.965 416.767 398.358C419.719 398.948 422.768 399.44 425.917 399.833C428.672 400.225 431.526 400.225 434.478 399.833C436.051 399.635 437.627 399.538 439.2 399.538C440.971 399.735 442.743 399.833 444.514 399.833C445.892 399.833 447.268 399.735 448.646 399.538C450.024 399.538 451.5 399.538 453.074 399.538C454.647 399.538 456.123 399.538 457.501 399.538C458.88 399.538 460.355 399.44 461.929 399.243C463.307 399.045 464.586 398.653 465.766 398.063C467.145 397.473 468.423 397.178 469.604 397.178C470.194 397.178 470.687 397.275 471.08 397.473C471.67 397.67 472.163 397.768 472.556 397.768C473.934 397.57 475.31 397.08 476.688 396.293C477.278 396.095 477.771 395.9 478.164 395.703C478.754 395.703 479.345 395.703 479.935 395.703C480.328 395.703 480.723 395.605 481.116 395.408C481.116 395.408 481.411 395.113 482.001 394.523C482.394 394.325 482.887 394.325 483.477 394.523C484.265 394.72 484.855 394.818 485.248 394.818C485.839 394.62 486.429 394.425 487.019 394.228C487.807 394.228 488.495 394.03 489.086 393.638C490.266 393.048 491.25 392.26 492.037 391.278C492.825 390.295 493.711 389.31 494.694 388.328C495.677 387.148 496.563 385.968 497.35 384.788C498.334 383.805 499.319 382.723 500.302 381.543C501.09 380.165 501.876 378.395 502.664 376.233C503.057 375.643 503.254 375.053 503.254 374.463C503.254 373.873 503.352 373.283 503.549 372.693C503.747 371.905 503.942 371.218 504.14 370.628C504.533 370.038 504.927 369.35 505.32 368.563C505.518 367.973 505.615 367.48 505.615 367.088C505.615 366.498 505.713 366.005 505.911 365.613C505.911 364.825 506.008 364.138 506.206 363.548C506.403 362.958 506.698 362.27 507.091 361.483C507.484 360.105 507.78 358.828 507.977 357.648C508.37 356.27 508.765 354.795 509.158 353.223C509.748 350.47 509.945 347.618 509.748 344.668C509.748 341.718 509.551 338.865 509.158 336.113C508.96 334.933 508.765 333.555 508.567 331.983C508.37 330.41 508.075 329.033 507.682 327.853C507.289 327.263 506.894 326.77 506.501 326.378C506.304 325.788 506.008 325.198 505.615 324.608C504.828 322.64 504.237 321.265 503.844 320.478C501.09 314.775 498.039 309.365 494.694 304.253C494.104 303.27 493.415 302.188 492.628 301.008C492.037 299.828 491.25 298.745 490.266 297.763C489.283 296.583 488.2 295.5 487.019 294.518C485.839 293.535 484.756 292.453 483.772 291.273C482.789 290.485 481.804 289.7 480.821 288.913C480.033 287.93 479.049 287.24 477.869 286.848C476.688 286.455 475.507 285.963 474.327 285.373C473.146 284.585 471.965 283.995 470.784 283.603C468.03 282.423 465.176 281.635 462.224 281.243C459.273 280.653 456.419 280.16 453.664 279.768C450.91 279.375 448.056 279.178 445.104 279.178C442.152 279.178 439.2 278.98 436.249 278.588C434.675 278.588 433.199 278.588 431.821 278.588C430.443 278.39 429.067 278.293 427.688 278.293C426.115 278.49 424.539 278.588 422.966 278.588C421.392 278.588 419.816 278.588 418.243 278.588C415.291 278.785 412.339 278.883 409.387 278.883C406.633 278.685 403.779 278.785 400.827 279.178C401.22 280.16 401.32 281.045 401.122 281.833C401.122 282.62 401.025 283.505 400.827 284.488C400.434 285.47 400.237 286.455 400.237 287.438C400.237 288.225 400.139 289.11 399.942 290.093C399.942 291.863 399.942 293.73 399.942 295.698C399.942 297.665 399.449 299.435 398.466 301.008C399.449 301.008 400.925 300.81 402.894 300.418C403.877 300.22 404.762 300.123 405.55 300.123C406.533 300.123 407.519 300.123 408.502 300.123C410.47 300.123 412.437 300.123 414.405 300.123C416.374 299.925 418.341 300.025 420.309 300.418C422.277 300.615 424.146 301.008 425.917 301.598C427.688 301.99 429.557 302.483 431.526 303.073C433.297 303.465 435.068 303.86 436.839 304.253C438.61 304.45 440.381 304.843 442.152 305.433C449.434 307.203 456.419 310.25 463.11 314.578C464.684 315.56 466.159 316.545 467.538 317.528C468.916 318.51 470.292 319.69 471.67 321.068C472.851 322.445 473.638 323.92 474.031 325.493C474.424 326.87 474.819 328.443 475.212 330.213C476 333.555 476.393 337.293 476.393 341.423C476.393 343.39 476.393 345.258 476.393 347.028C476.393 348.6 476 350.273 475.212 352.043C474.229 354.795 472.556 356.96 470.194 358.533C468.816 359.515 467.34 360.4 465.766 361.188C464.193 361.975 462.617 362.86 461.044 363.843C460.453 364.235 459.961 364.728 459.568 365.318C459.175 365.908 458.584 366.4 457.797 366.793C457.009 367.185 456.321 367.678 455.73 368.268C455.14 368.66 454.452 369.055 453.664 369.448C450.712 371.02 447.072 372.005 442.743 372.398C441.759 372.595 440.874 372.693 440.086 372.693C439.298 372.693 438.413 372.693 437.429 372.693C436.446 372.89 435.461 373.085 434.478 373.283C433.494 373.48 432.509 373.578 431.526 373.578C430.345 373.578 428.771 373.185 426.803 372.398C425.82 372.005 424.737 371.808 423.556 371.808C422.573 371.61 421.587 371.415 420.604 371.218C419.621 371.02 418.735 370.923 417.948 370.923C417.16 370.725 416.274 370.43 415.291 370.038C414.308 369.645 413.422 369.25 412.634 368.858C412.044 368.465 411.356 368.07 410.568 367.678C408.994 366.695 407.321 366.105 405.55 365.908C403.779 365.515 402.008 365.12 400.237 364.728C399.254 364.53 398.268 364.433 397.285 364.433C396.497 364.235 395.612 364.04 394.628 363.843C393.645 363.45 392.66 363.35 391.677 363.548C390.889 363.548 390.003 363.45 389.02 363.253C388.232 362.86 387.544 362.663 386.954 362.663C386.561 362.465 386.266 362.465 386.068 362.663C385.871 362.663 385.576 362.565 385.183 362.368C384.592 362.17 384.297 361.68 384.297 360.893C384.297 360.5 384.888 360.303 386.068 360.303C387.839 360.105 389.61 360.303 391.382 360.893C393.153 361.285 395.021 361.483 396.99 361.483C398.171 361.483 399.744 361.875 401.713 362.663C402.696 363.055 403.582 363.35 404.369 363.548C405.353 363.745 406.338 363.94 407.321 364.138C408.895 364.335 410.371 364.728 411.749 365.318C413.322 365.908 414.798 366.595 416.177 367.383C416.964 367.775 417.652 368.07 418.243 368.268C419.031 368.465 419.916 368.66 420.899 368.858L423.556 369.743C424.344 370.135 424.934 370.333 425.327 370.333C425.72 370.53 426.015 370.53 426.213 370.333C426.606 370.135 427 370.135 427.393 370.333C427.786 370.333 428.081 370.43 428.279 370.628C428.672 370.628 429.067 370.628 429.46 370.628C430.443 370.825 431.328 370.825 432.116 370.628C433.099 370.43 434.085 370.333 435.068 370.333C436.839 370.135 438.61 370.038 440.381 370.038C442.35 369.84 444.316 369.545 446.285 369.153C450.024 368.563 453.271 367.088 456.026 364.728C458.977 362.17 462.127 360.105 465.471 358.533C466.849 357.745 468.03 357.058 469.013 356.468C469.997 355.68 470.882 354.6 471.67 353.223C472.458 351.65 472.851 349.978 472.851 348.208C473.048 346.24 473.146 344.373 473.146 342.603V337.588C472.948 336.605 472.653 335.72 472.26 334.933C472.063 333.95 471.867 332.965 471.67 331.983C471.473 331.195 471.375 330.508 471.375 329.918C471.572 329.13 471.67 328.345 471.67 327.558C471.473 326.575 470.687 325.395 469.309 324.018C468.521 323.428 467.538 322.345 466.357 320.773C465.964 319.985 465.471 319.593 464.881 319.593C464.488 319.395 463.798 319.1 462.815 318.708C462.027 318.315 461.339 317.823 460.748 317.233C460.158 316.643 459.47 316.15 458.682 315.758L454.254 313.103C450.91 311.53 447.465 309.955 443.923 308.383C442.152 307.793 440.381 307.3 438.61 306.908C436.839 306.515 435.068 306.12 433.297 305.728C431.328 305.335 429.46 304.94 427.688 304.548C425.917 303.958 424.049 303.465 422.08 303.073C421.097 302.875 420.211 302.778 419.423 302.778C418.833 302.58 418.045 302.483 417.062 302.483C416.274 302.68 415.488 302.778 414.701 302.778C413.913 302.58 413.027 302.58 412.044 302.778C411.061 302.778 410.175 302.875 409.387 303.073C408.6 303.073 407.714 303.073 406.731 303.073C405.747 303.27 404.762 303.368 403.779 303.368C402.991 303.17 402.106 303.17 401.122 303.368C399.942 303.76 398.761 304.055 397.58 304.253C396.4 304.253 395.612 303.465 395.219 301.893C395.219 300.91 395.219 300.025 395.219 299.238C395.416 298.45 395.612 297.565 395.809 296.583C395.809 295.6 395.809 294.715 395.809 293.928C396.007 293.14 396.302 292.355 396.695 291.568ZM396.104 240.533C397.483 240.73 398.761 240.828 399.942 240.828C401.122 240.63 402.401 240.533 403.779 240.533C405.157 240.533 406.436 240.73 407.616 241.123C408.994 241.515 410.371 241.91 411.749 242.303C412.732 242.695 413.717 243.188 414.701 243.778C415.684 244.368 416.669 244.76 417.652 244.958C419.031 245.155 420.211 245.45 421.195 245.843C422.375 246.235 423.556 246.63 424.737 247.023C427.491 248.005 430.247 248.793 433.002 249.383C435.756 249.973 438.61 250.563 441.562 251.153C444.316 251.545 446.973 252.038 449.532 252.628C452.09 253.218 454.747 253.513 457.501 253.513C460.256 253.513 463.012 253.513 465.766 253.513C468.521 253.315 471.277 253.12 474.031 252.923C475.41 252.923 476.688 252.825 477.869 252.628C479.049 252.235 480.328 251.84 481.706 251.448C482.887 251.055 484.067 250.858 485.248 250.858C486.626 250.66 487.905 250.365 489.086 249.973C490.069 249.58 490.954 249.185 491.742 248.793C492.725 248.4 493.711 248.005 494.694 247.613C495.875 247.023 497.055 246.53 498.236 246.138C499.417 245.548 500.597 244.86 501.778 244.073C503.549 243.09 505.418 241.615 507.387 239.648C508.37 238.86 509.255 238.173 510.043 237.583C510.831 236.795 511.716 235.91 512.7 234.928C513.488 233.945 514.176 232.96 514.766 231.978C515.356 230.798 516.044 229.715 516.832 228.733C517.423 227.553 518.111 226.373 518.899 225.193C519.686 223.815 520.277 222.538 520.67 221.358C521.063 220.178 521.26 218.998 521.26 217.818C521.457 216.638 521.752 215.458 522.145 214.278C522.538 212.705 522.933 211.525 523.326 210.738C523.524 210.148 523.621 209.655 523.621 209.263C523.621 208.673 523.719 208.083 523.917 207.493C523.917 206.115 524.114 204.838 524.507 203.658C524.9 202.28 525.097 200.905 525.097 199.528C525.49 196.578 525.392 193.726 524.802 190.973C524.605 189.596 524.409 188.318 524.212 187.138C524.014 185.761 523.719 184.384 523.326 183.008C522.933 181.434 522.538 179.959 522.145 178.583C521.948 177.206 521.555 175.829 520.965 174.453C519.981 172.093 518.506 170.126 516.537 168.553C514.766 166.979 512.798 165.701 510.634 164.718C505.32 161.964 500.105 159.998 494.989 158.818C492.235 158.228 489.478 157.736 486.724 157.343C483.97 156.949 481.213 156.556 478.459 156.163C477.081 155.769 475.705 155.573 474.327 155.573C473.146 155.573 471.768 155.573 470.194 155.573C468.816 155.376 467.44 155.179 466.062 154.983C464.683 154.786 463.307 154.589 461.929 154.393C455.633 153.803 449.236 153.606 442.743 153.803C436.446 153.999 430.148 154.294 423.851 154.688C420.506 154.688 417.16 154.688 413.815 154.688C410.666 154.688 407.419 154.884 404.074 155.278C402.501 155.278 400.925 155.278 399.351 155.278C397.778 155.081 396.202 154.983 394.628 154.983C393.055 155.179 391.479 155.278 389.906 155.278C388.332 155.278 386.756 155.278 385.183 155.278C385.183 157.441 384.985 159.604 384.592 161.768C384.199 163.734 384.1 165.799 384.297 167.963C384.495 170.126 384.69 172.289 384.888 174.453C385.085 176.419 385.38 178.484 385.773 180.648C385.971 181.434 386.068 182.614 386.068 184.188C386.068 184.581 386.068 184.974 386.068 185.368C386.068 185.761 386.166 186.056 386.364 186.253C386.756 186.843 387.544 187.039 388.725 186.843C389.906 186.449 390.791 186.253 391.382 186.253C393.546 185.859 395.809 185.564 398.171 185.368C400.532 185.171 402.796 184.876 404.96 184.483C407.124 184.089 409.29 183.598 411.454 183.008C413.618 182.418 415.784 182.024 417.948 181.828C420.112 181.631 422.277 181.434 424.441 181.238C426.606 181.041 428.771 180.844 430.935 180.648H437.725C438.708 180.648 439.791 180.549 440.971 180.353C442.152 180.156 443.333 180.156 444.514 180.353C446.678 180.746 448.843 180.943 451.008 180.943C453.172 180.943 455.337 181.139 457.501 181.533C461.634 181.926 465.766 182.811 469.899 184.188C471.867 184.974 473.736 185.663 475.507 186.253C477.278 186.843 479.049 187.629 480.821 188.613C482.199 189.596 483.575 190.678 484.953 191.858C485.346 192.251 485.839 192.841 486.429 193.628C487.217 194.218 487.707 194.905 487.905 195.693C488.102 196.085 488.102 196.48 487.905 196.873C487.707 197.07 487.512 197.365 487.314 197.758C487.117 198.15 487.019 198.545 487.019 198.938C487.019 199.135 486.922 199.43 486.724 199.823C486.331 201.395 485.446 203.165 484.067 205.133C483.084 206.903 482.099 208.575 481.116 210.148C480.132 211.525 478.657 212.705 476.688 213.688C475.9 214.08 475.212 214.573 474.622 215.163C474.229 215.555 473.539 215.95 472.556 216.343C471.375 216.735 470.194 217.228 469.013 217.818C468.03 218.21 466.947 218.605 465.766 218.998L463.11 219.883C462.717 220.08 462.224 220.178 461.634 220.178C461.241 219.98 460.846 219.883 460.453 219.883C459.273 219.685 458.092 219.785 456.911 220.178C455.928 220.375 454.845 220.57 453.664 220.768C451.5 220.965 449.334 221.26 447.17 221.653C445.202 221.85 443.136 222.045 440.971 222.243C438.217 222.635 435.56 222.93 433.002 223.128C430.64 223.325 428.181 223.52 425.622 223.718C424.244 223.915 422.966 224.11 421.785 224.308C420.604 224.308 419.326 224.505 417.948 224.898C415.586 225.488 413.422 225.783 411.454 225.783C408.895 225.783 406.436 226.078 404.074 226.668C403.484 226.668 402.893 226.765 402.303 226.963C401.713 226.963 401.122 226.963 400.532 226.963C400.139 226.963 399.647 226.963 399.056 226.963C398.663 226.765 398.268 226.865 397.875 227.258C397.285 227.848 396.892 228.93 396.695 230.503C396.695 231.88 396.695 232.96 396.695 233.748C396.497 234.928 396.302 236.108 396.104 237.288C396.104 238.468 396.104 239.55 396.104 240.533ZM397.285 275.933C397.285 275.735 397.285 274.95 397.285 273.573C397.482 272 397.482 270.525 397.285 269.148C397.285 267.575 397.187 266.198 396.99 265.018C396.793 263.838 396.597 263.248 396.4 263.248C396.4 263.248 396.4 263.838 396.4 265.018C396.4 266.198 396.497 267.575 396.695 269.148C396.892 270.72 396.99 272.195 396.99 273.573C397.187 274.95 397.285 275.735 397.285 275.933Z" fill="white"/>
</g>
<defs>
<clipPath id="clip0_173_336">
<rect width="886" height="886" fill="white"/>
</clipPath>
</defs>
</svg>
