<svg width="886" height="886" viewBox="0 0 886 886" fill="none" xmlns="http://www.w3.org/2000/svg">
<g clip-path="url(#clip0_173_341)">
<rect width="886" height="886" fill="white"/>
<rect width="886" height="886" fill="#E61EAA"/>
<rect y="323" width="886" height="563" fill="#640B49"/>
<path d="M400.018 168.426C399.281 167.393 399.059 166.066 399.354 164.443C399.65 162.821 399.945 161.493 400.24 160.461C400.24 160.166 400.314 159.944 400.461 159.797C400.609 159.502 400.535 159.281 400.24 159.133C400.092 158.986 399.723 158.912 399.133 158.912C398.543 158.617 398.174 158.322 398.026 158.027C397.584 157.289 397.362 156.404 397.362 155.372C397.51 154.192 397.584 153.233 397.584 152.496C397.584 151.758 397.51 151.168 397.362 150.726C397.215 150.136 397.067 149.546 396.92 148.956C396.772 148.366 396.698 147.849 396.698 147.407C396.698 146.817 396.625 146.153 396.477 145.416C396.477 144.973 396.403 144.531 396.256 144.088C396.108 143.646 395.96 143.203 395.813 142.761C395.665 142.171 395.592 141.654 395.592 141.212C395.739 140.622 395.813 140.032 395.813 139.442C395.96 138.114 395.96 136.861 395.813 135.681C395.813 134.501 395.961 133.247 396.256 131.919C396.551 130.592 396.698 129.338 396.698 128.158C396.846 126.831 396.993 125.503 397.141 124.176C397.141 123.438 397.141 122.774 397.141 122.184C397.141 121.594 397.215 120.931 397.362 120.193C397.362 119.456 397.731 118.866 398.469 118.423C399.059 118.276 399.65 118.202 400.24 118.202C400.83 118.202 401.347 118.202 401.789 118.202C402.527 118.054 403.191 117.981 403.781 117.981C404.519 117.981 405.257 117.907 405.995 117.759C408.503 117.464 410.938 117.243 413.299 117.096C415.808 116.948 418.316 116.653 420.825 116.211C423.333 115.768 425.842 115.399 428.351 115.104C431.007 114.809 433.589 114.514 436.098 114.219C437.278 114.072 438.532 113.924 439.861 113.777C441.189 113.629 442.443 113.482 443.623 113.334C444.804 113.187 445.984 113.113 447.165 113.113C448.493 113.113 449.673 112.892 450.706 112.449C451.739 112.007 452.772 111.564 453.805 111.122C454.838 110.679 455.871 110.163 456.904 109.573C458.97 108.246 460.519 106.623 461.552 104.706C462.29 103.673 462.88 102.714 463.323 101.829C463.766 100.797 464.208 99.6906 464.651 98.5106C465.241 97.4781 465.315 96.6669 464.872 96.0769C464.577 95.6344 464.135 95.1919 463.544 94.7494C463.102 94.3069 462.659 93.9381 462.216 93.6431C461.331 92.9056 460.372 92.3156 459.339 91.8731C458.306 91.2831 457.199 90.7669 456.019 90.3244C454.838 89.8819 453.658 89.5131 452.477 89.2181C451.297 88.7756 450.116 88.4069 448.936 88.1119C447.755 87.8169 446.575 87.5956 445.394 87.4481C444.214 87.3006 443.033 87.3006 441.853 87.4481C440.672 87.5956 439.492 87.5956 438.311 87.4481C437.131 87.1531 435.95 87.0056 434.77 87.0056H427.023C425.694 87.1531 424.366 87.3006 423.038 87.4481C421.71 87.5956 420.456 87.7431 419.275 87.8906C416.767 88.1856 414.185 88.6281 411.528 89.2181C409.02 89.6606 406.511 90.0294 404.003 90.3244C402.822 90.6194 401.568 90.8406 400.24 90.9881C398.912 91.1356 397.584 91.3569 396.256 91.6519C395.518 91.7994 394.485 92.0206 393.157 92.3156C391.976 92.4631 391.017 92.3156 390.279 91.8731C389.394 91.4306 389.025 90.6931 389.173 89.6606C389.32 88.4806 389.32 87.5219 389.173 86.7844C389.025 86.1944 388.804 85.7519 388.509 85.4569C388.361 85.0144 388.213 84.5719 388.066 84.1294C387.771 82.6544 387.623 81.5481 387.623 80.8106C387.033 78.0081 386.959 75.5744 387.402 73.5094C387.402 72.9194 387.476 72.4031 387.623 71.9606C387.771 71.3706 387.918 70.7806 388.066 70.1906C388.213 70.0431 388.287 69.8956 388.287 69.7481C388.14 69.6006 388.066 69.4531 388.066 69.3056C388.066 69.0106 388.066 68.7894 388.066 68.6419C388.213 68.4944 388.287 68.2731 388.287 67.9781C388.435 67.3881 388.435 66.8719 388.287 66.4294C388.14 65.9869 388.066 65.5444 388.066 65.1019C388.361 64.5119 388.73 64.2906 389.173 64.4381C389.615 64.4381 390.058 64.4381 390.501 64.4381H398.026C399.207 64.2906 400.387 64.2906 401.568 64.4381C402.748 64.4381 403.929 64.4381 405.109 64.4381C405.7 64.2906 406.216 64.2906 406.659 64.4381C407.249 64.4381 407.913 64.3644 408.651 64.2169C409.241 64.2169 409.758 64.1431 410.2 63.9956C410.791 63.8481 411.381 63.7006 411.971 63.5531C413.299 63.4056 414.627 63.4056 415.955 63.5531C417.283 63.7006 418.611 63.7744 419.939 63.7744C421.12 63.6269 422.374 63.5531 423.702 63.5531C425.03 63.4056 426.358 63.3319 427.687 63.3319C430.195 63.3319 432.704 63.2581 435.212 63.1106C437.868 62.9631 440.451 62.9631 442.959 63.1106C444.14 63.1106 445.32 63.2581 446.501 63.5531C447.681 63.7006 448.862 63.7744 450.042 63.7744C451.518 63.7744 452.625 63.8481 453.363 63.9956C454.1 64.1431 454.691 64.2906 455.133 64.4381C455.724 64.5856 456.388 64.7331 457.125 64.8806C459.634 65.3231 462.143 65.6181 464.651 65.7656C467.307 65.9131 469.89 66.2081 472.398 66.6506C473.579 66.9456 474.685 67.3144 475.718 67.7569C476.899 68.0519 478.079 68.4206 479.26 68.8631C481.621 69.6006 483.761 70.3381 485.679 71.0756C486.122 71.3706 486.564 71.5919 487.007 71.7394C487.45 71.8869 487.819 72.1081 488.114 72.4031C488.556 72.6981 488.925 73.0669 489.22 73.5094C489.663 73.8044 490.106 74.0994 490.548 74.3944C491.139 74.6894 491.655 74.9844 492.098 75.2794C492.541 75.4269 492.909 75.7219 493.205 76.1644C494.385 77.3444 495.123 78.3031 495.418 79.0406C495.861 80.0731 496.156 81.1794 496.303 82.3594C496.599 83.3919 496.82 84.4244 496.967 85.4569C497.115 86.1944 497.263 86.8581 497.41 87.4481C497.558 88.0381 497.705 88.6281 497.853 89.2181C498.148 89.8081 498.369 90.3244 498.517 90.7669C498.812 91.2094 499.033 91.7256 499.181 92.3156V95.4131C499.033 96.7406 499.033 97.9944 499.181 99.1744C499.181 99.9119 499.107 100.576 498.96 101.166C498.96 101.608 498.886 102.124 498.738 102.714C498.591 103.452 498.443 104.189 498.295 104.927C498.295 105.664 498.222 106.402 498.074 107.139C497.779 108.319 497.484 109.499 497.189 110.679C496.894 111.859 496.599 113.039 496.303 114.219C496.156 114.809 496.008 115.399 495.861 115.989C495.861 116.579 495.713 117.169 495.418 117.759C495.123 118.349 494.754 118.939 494.311 119.529C493.869 119.972 493.5 120.488 493.205 121.078C491.877 123.143 490.548 125.134 489.22 127.052C488.04 128.822 486.417 130.371 484.351 131.698C483.318 132.436 482.359 133.173 481.473 133.911C480.588 134.501 479.555 135.091 478.374 135.681C477.194 135.976 476.382 136.344 475.94 136.787C475.349 137.082 474.907 137.303 474.612 137.451C474.316 137.598 473.874 137.819 473.284 138.114C470.775 138.852 468.266 139.442 465.758 139.884C463.397 140.327 460.962 140.769 458.453 141.212C455.945 141.654 453.363 141.949 450.706 142.097C448.198 142.244 445.689 142.097 443.181 141.654C440.672 141.359 438.164 140.991 435.655 140.548C433.146 139.958 430.638 139.368 428.129 138.778C425.621 138.188 423.112 137.598 420.604 137.008C418.243 136.418 415.808 135.681 413.299 134.796C410.791 133.616 408.503 132.804 406.437 132.362C404.962 132.067 403.781 131.919 402.896 131.919C402.601 131.919 402.084 131.919 401.347 131.919C400.756 131.772 400.314 131.846 400.018 132.141C399.723 132.436 399.65 132.878 399.797 133.468C399.945 134.058 400.092 134.501 400.24 134.796C400.387 135.386 400.461 135.976 400.461 136.566C400.609 137.156 400.756 137.746 400.904 138.336C401.199 138.926 401.42 139.516 401.568 140.106C401.715 140.548 401.863 141.138 402.011 141.876C402.158 142.466 402.232 143.056 402.232 143.646C402.232 144.088 402.379 144.604 402.675 145.194C402.97 146.374 403.265 147.628 403.56 148.956C403.855 150.136 404.003 151.389 404.003 152.717C404.003 154.044 403.929 155.077 403.781 155.814C403.781 156.994 404.15 157.584 404.888 157.584C406.069 157.732 407.323 157.806 408.651 157.806C409.979 157.658 411.233 157.511 412.414 157.363C413.594 157.363 414.701 157.363 415.734 157.363C416.914 157.363 418.095 157.289 419.275 157.142C419.866 157.142 420.382 157.216 420.825 157.363C421.415 157.363 422.005 157.363 422.596 157.363C423.333 157.363 423.924 157.289 424.366 157.142C424.809 156.994 425.399 156.994 426.137 157.142C428.498 157.584 431.007 157.806 433.663 157.806C434.253 157.953 434.77 157.953 435.212 157.806C435.655 157.658 436.171 157.511 436.762 157.363C437.5 157.363 438.09 157.437 438.532 157.584C439.123 157.732 439.787 157.879 440.525 158.027C441.705 158.174 442.886 158.248 444.066 158.248C445.394 158.248 446.648 158.396 447.829 158.691C450.19 158.838 452.551 159.428 454.912 160.461C455.502 160.756 456.019 161.051 456.461 161.346C456.904 161.493 457.421 161.641 458.011 161.788C458.453 161.936 458.822 162.083 459.117 162.231C459.413 162.231 459.634 162.526 459.781 163.116C460.372 162.821 460.814 162.747 461.11 162.894C461.257 163.042 461.331 163.189 461.331 163.337C461.479 163.484 461.626 163.632 461.774 163.779C462.069 163.927 462.29 164.001 462.438 164.001C462.585 164.001 462.807 164.074 463.102 164.222C463.397 164.369 463.544 164.517 463.544 164.664C463.692 164.664 463.913 164.738 464.208 164.886C464.504 165.181 464.799 165.476 465.094 165.771C465.389 166.066 465.684 166.361 465.979 166.656C466.274 166.803 466.496 166.951 466.643 167.098C466.791 167.246 467.012 167.393 467.307 167.541C467.897 167.836 468.045 168.204 467.75 168.647C468.045 168.942 468.34 169.089 468.635 169.089C468.93 168.942 469.226 169.016 469.521 169.311C469.816 169.606 470.111 169.974 470.406 170.417C470.849 170.859 471.218 171.228 471.513 171.523C472.251 172.261 472.841 173.072 473.284 173.957C473.726 174.694 474.243 175.506 474.833 176.391C475.718 178.013 476.751 179.562 477.932 181.037C479.112 182.364 480.071 183.839 480.809 185.462C481.104 186.199 481.252 186.789 481.252 187.232C481.252 187.674 481.473 188.191 481.916 188.781C482.359 188.928 482.58 189.076 482.58 189.223L483.244 190.551C483.539 190.846 483.761 191.214 483.908 191.657C484.203 191.952 484.498 192.247 484.793 192.542C485.236 193.427 485.457 194.386 485.457 195.418C485.605 196.303 485.826 197.188 486.121 198.073C486.269 198.368 486.417 198.737 486.564 199.179C486.712 199.474 486.786 199.843 486.786 200.286C486.786 200.876 486.712 201.392 486.564 201.834C486.564 202.277 486.564 202.867 486.564 203.604C486.712 204.194 486.712 204.932 486.564 205.817C486.564 206.702 486.712 207.439 487.007 208.029C487.302 208.324 487.45 208.398 487.45 208.251C487.45 208.103 487.523 208.251 487.671 208.693V210.242C487.671 211.569 487.523 212.528 487.228 213.118C486.638 215.183 486.048 217.248 485.457 219.313C484.867 221.231 484.277 223.222 483.687 225.287C483.539 225.729 483.465 226.246 483.465 226.836C483.465 227.278 483.392 227.721 483.244 228.163C483.096 228.606 482.949 228.974 482.801 229.269C482.654 229.564 482.58 229.933 482.58 230.376C482.432 231.556 482.137 232.514 481.695 233.252C481.252 233.989 480.735 234.874 480.145 235.907C479.555 236.644 478.965 237.456 478.374 238.341C477.784 239.226 477.194 240.037 476.604 240.774C475.866 241.512 475.202 242.249 474.612 242.987C474.021 243.872 473.284 244.536 472.398 244.978C471.513 245.421 470.554 245.716 469.521 245.863C468.488 246.158 467.529 246.453 466.643 246.748C465.463 247.043 464.208 247.338 462.88 247.633C461.7 247.928 460.519 248.223 459.339 248.518C454.912 249.698 450.485 250.362 446.058 250.509C441.484 250.804 436.835 251.026 432.113 251.173C427.539 251.321 422.965 251.173 418.39 250.731C416.029 250.436 413.742 250.067 411.528 249.624C409.315 249.182 407.028 248.813 404.667 248.518C402.453 248.223 400.24 247.854 398.026 247.412C395.961 247.117 393.821 246.822 391.607 246.527C390.87 246.379 389.984 246.306 388.951 246.306C388.066 246.306 387.402 246.011 386.959 245.421C386.369 244.683 386.148 243.798 386.295 242.766C386.59 241.733 386.59 240.774 386.295 239.889C386 238.857 385.926 237.898 386.074 237.013C386.221 235.981 386.295 234.948 386.295 233.916C386.295 232.883 386.221 231.851 386.074 230.818C386.074 229.786 386.148 228.827 386.295 227.942C386.443 227.204 386.516 226.393 386.516 225.508C386.369 225.066 386.369 224.623 386.516 224.181C386.664 223.738 386.738 223.296 386.738 222.853C386.885 220.641 386.885 218.428 386.738 216.216C386.738 214.741 386.959 213.192 387.402 211.569C387.697 210.537 387.697 209.578 387.402 208.693C387.254 207.808 387.328 206.849 387.623 205.817C387.918 204.784 388.14 203.899 388.287 203.162C388.582 202.277 388.73 201.318 388.73 200.286C388.73 199.991 388.73 199.622 388.73 199.179C388.73 198.589 388.877 198.147 389.173 197.852C389.468 197.557 389.763 197.483 390.058 197.631C390.501 197.778 390.796 197.999 390.943 198.294C391.238 198.589 391.312 199.032 391.165 199.622C391.017 200.212 390.943 200.728 390.943 201.171C390.796 201.761 390.722 202.351 390.722 202.941C390.722 203.383 390.648 203.899 390.501 204.489C390.353 205.669 390.206 206.776 390.058 207.808C390.058 208.841 390.058 209.947 390.058 211.127C390.058 212.159 389.984 213.192 389.837 214.224C389.837 215.109 389.837 216.068 389.837 217.101C389.689 218.281 389.615 219.461 389.615 220.641C389.615 221.821 389.542 223.001 389.394 224.181C389.246 226.393 389.099 228.679 388.951 231.039C388.951 233.252 389.025 235.464 389.173 237.677C389.173 238.267 389.173 238.783 389.173 239.226C389.32 239.816 389.394 240.479 389.394 241.217C389.394 241.512 389.394 241.954 389.394 242.544C389.394 243.282 389.542 243.798 389.837 244.093C390.132 244.388 390.796 244.536 391.829 244.536C392.567 244.683 393.157 244.757 393.599 244.757C394.19 244.757 394.854 244.831 395.592 244.978C396.625 245.273 397.584 245.494 398.469 245.642C399.502 245.937 400.535 246.232 401.568 246.527C402.748 246.822 403.855 246.969 404.888 246.969C405.921 246.969 407.028 247.117 408.208 247.412C410.569 247.854 412.856 248.223 415.07 248.518C417.283 248.961 419.571 249.329 421.932 249.624C423.997 249.919 426.137 249.919 428.351 249.624C429.531 249.477 430.712 249.403 431.892 249.403C433.22 249.551 434.548 249.624 435.876 249.624C436.909 249.624 437.942 249.551 438.975 249.403C440.008 249.403 441.115 249.403 442.295 249.403C443.476 249.403 444.583 249.403 445.615 249.403C446.648 249.403 447.755 249.329 448.936 249.182C449.969 249.034 450.928 248.739 451.813 248.297C452.846 247.854 453.805 247.633 454.691 247.633C455.133 247.633 455.502 247.707 455.797 247.854C456.24 248.002 456.609 248.076 456.904 248.076C457.937 247.928 458.97 247.559 460.003 246.969C460.446 246.822 460.814 246.674 461.11 246.527C461.552 246.527 461.995 246.527 462.438 246.527C462.733 246.527 463.028 246.453 463.323 246.306C463.323 246.306 463.544 246.084 463.987 245.642C464.282 245.494 464.651 245.494 465.094 245.642C465.684 245.789 466.127 245.863 466.422 245.863C466.865 245.716 467.307 245.568 467.75 245.421C468.34 245.421 468.857 245.273 469.299 244.978C470.185 244.536 470.923 243.946 471.513 243.208C472.103 242.471 472.767 241.733 473.505 240.996C474.243 240.111 474.907 239.226 475.497 238.341C476.235 237.603 476.973 236.792 477.71 235.907C478.301 234.874 478.891 233.547 479.481 231.924C479.776 231.482 479.924 231.039 479.924 230.597C479.924 230.154 479.998 229.712 480.145 229.269C480.293 228.679 480.44 228.163 480.588 227.721C480.883 227.278 481.178 226.762 481.473 226.172C481.621 225.729 481.695 225.361 481.695 225.066C481.695 224.623 481.768 224.254 481.916 223.959C481.916 223.369 481.99 222.853 482.137 222.411C482.285 221.968 482.506 221.452 482.801 220.862C483.096 219.829 483.318 218.871 483.465 217.986C483.761 216.953 484.056 215.847 484.351 214.667C484.793 212.602 484.941 210.463 484.793 208.251C484.793 206.038 484.646 203.899 484.351 201.834C484.203 200.949 484.056 199.917 483.908 198.737C483.761 197.557 483.539 196.524 483.244 195.639C482.949 195.197 482.654 194.828 482.359 194.533C482.211 194.091 481.99 193.648 481.695 193.206C481.104 191.731 480.662 190.698 480.367 190.108C478.301 185.831 476.013 181.774 473.505 177.939C473.062 177.202 472.546 176.391 471.955 175.506C471.513 174.621 470.923 173.809 470.185 173.072C469.447 172.187 468.635 171.376 467.75 170.638C466.865 169.901 466.053 169.089 465.315 168.204C464.577 167.614 463.84 167.024 463.102 166.434C462.511 165.697 461.774 165.181 460.888 164.886C460.003 164.591 459.117 164.222 458.232 163.779C457.347 163.189 456.461 162.747 455.576 162.452C453.51 161.567 451.37 160.977 449.157 160.682C446.944 160.239 444.804 159.871 442.738 159.576C440.672 159.281 438.532 159.133 436.319 159.133C434.106 159.133 431.892 158.986 429.679 158.691C428.498 158.691 427.391 158.691 426.359 158.691C425.326 158.543 424.293 158.469 423.26 158.469C422.079 158.617 420.899 158.691 419.718 158.691C418.538 158.691 417.357 158.691 416.177 158.691C413.963 158.838 411.75 158.912 409.536 158.912C407.47 158.764 405.331 158.838 403.117 159.133C403.412 159.871 403.486 160.534 403.339 161.124C403.339 161.714 403.265 162.378 403.117 163.116C402.822 163.853 402.675 164.591 402.675 165.328C402.675 165.918 402.601 166.582 402.453 167.319C402.453 168.647 402.453 170.048 402.453 171.523C402.453 172.998 402.084 174.326 401.347 175.506C402.084 175.506 403.191 175.358 404.667 175.063C405.405 174.916 406.069 174.842 406.659 174.842C407.397 174.842 408.134 174.842 408.872 174.842C410.348 174.842 411.824 174.842 413.299 174.842C414.775 174.694 416.25 174.768 417.726 175.063C419.202 175.211 420.604 175.506 421.932 175.948C423.26 176.243 424.662 176.612 426.137 177.054C427.465 177.349 428.793 177.644 430.121 177.939C431.449 178.087 432.777 178.382 434.106 178.824C439.565 180.152 444.804 182.438 449.821 185.683C451.002 186.421 452.108 187.158 453.141 187.896C454.174 188.633 455.207 189.518 456.24 190.551C457.125 191.583 457.716 192.689 458.011 193.869C458.306 194.902 458.601 196.082 458.896 197.409C459.486 199.917 459.781 202.719 459.781 205.817C459.781 207.292 459.781 208.693 459.781 210.021C459.781 211.201 459.486 212.454 458.896 213.782C458.158 215.847 456.904 217.469 455.133 218.649C454.1 219.387 452.994 220.051 451.813 220.641C450.633 221.231 449.452 221.894 448.272 222.632C447.829 222.927 447.46 223.296 447.165 223.738C446.87 224.181 446.427 224.549 445.837 224.844C445.247 225.139 444.73 225.508 444.287 225.951C443.845 226.246 443.328 226.541 442.738 226.836C440.525 228.016 437.795 228.753 434.548 229.048C433.81 229.196 433.146 229.269 432.556 229.269C431.966 229.269 431.302 229.269 430.564 229.269C429.826 229.417 429.088 229.564 428.351 229.712C427.613 229.859 426.875 229.933 426.137 229.933C425.252 229.933 424.071 229.638 422.596 229.048C421.858 228.753 421.046 228.606 420.161 228.606C419.423 228.458 418.685 228.311 417.947 228.163C417.21 228.016 416.546 227.942 415.955 227.942C415.365 227.794 414.701 227.573 413.963 227.278C413.225 226.983 412.561 226.688 411.971 226.393C411.528 226.098 411.012 225.803 410.422 225.508C409.241 224.771 407.987 224.328 406.659 224.181C405.331 223.886 404.003 223.591 402.675 223.296C401.937 223.148 401.199 223.074 400.461 223.074C399.871 222.927 399.207 222.779 398.469 222.632C397.731 222.337 396.993 222.263 396.256 222.411C395.665 222.411 395.001 222.337 394.264 222.189C393.673 221.894 393.157 221.747 392.714 221.747C392.419 221.599 392.198 221.599 392.05 221.747C391.903 221.747 391.681 221.673 391.386 221.526C390.943 221.378 390.722 221.009 390.722 220.419C390.722 220.124 391.165 219.977 392.05 219.977C393.378 219.829 394.706 219.977 396.034 220.419C397.362 220.714 398.764 220.862 400.24 220.862C401.125 220.862 402.306 221.157 403.781 221.747C404.519 222.042 405.183 222.263 405.773 222.411C406.511 222.558 407.249 222.706 407.987 222.853C409.167 223.001 410.274 223.296 411.307 223.738C412.488 224.181 413.594 224.697 414.627 225.287C415.217 225.582 415.734 225.803 416.177 225.951C416.767 226.098 417.431 226.246 418.169 226.393L420.161 227.057C420.751 227.352 421.194 227.499 421.489 227.499C421.784 227.647 422.005 227.647 422.153 227.499C422.448 227.352 422.743 227.352 423.038 227.499C423.333 227.499 423.555 227.573 423.702 227.721C423.997 227.721 424.293 227.721 424.588 227.721C425.326 227.868 425.99 227.868 426.58 227.721C427.318 227.573 428.055 227.499 428.793 227.499C430.121 227.352 431.449 227.278 432.777 227.278C434.253 227.131 435.729 226.909 437.204 226.614C440.008 226.172 442.443 225.066 444.509 223.296C446.722 221.378 449.083 219.829 451.592 218.649C452.625 218.059 453.51 217.543 454.248 217.101C454.986 216.511 455.65 215.699 456.24 214.667C456.83 213.487 457.125 212.233 457.125 210.906C457.273 209.431 457.347 208.029 457.347 206.702V202.941C457.199 202.203 456.978 201.539 456.683 200.949C456.535 200.212 456.388 199.474 456.24 198.737C456.092 198.147 456.019 197.631 456.019 197.188C456.166 196.598 456.24 196.008 456.24 195.418C456.092 194.681 455.502 193.796 454.469 192.763C453.879 192.321 453.141 191.509 452.256 190.329C451.961 189.739 451.592 189.444 451.149 189.444C450.854 189.297 450.337 189.076 449.6 188.781C449.009 188.486 448.493 188.117 448.05 187.674C447.608 187.232 447.091 186.863 446.501 186.568L443.181 184.577C440.672 183.397 438.09 182.217 435.434 181.037C434.106 180.594 432.777 180.226 431.449 179.931C430.121 179.636 428.793 179.341 427.465 179.046C425.99 178.751 424.588 178.456 423.26 178.161C421.932 177.718 420.53 177.349 419.054 177.054C418.316 176.907 417.652 176.833 417.062 176.833C416.619 176.686 416.029 176.612 415.291 176.612C414.701 176.759 414.111 176.833 413.521 176.833C412.93 176.686 412.266 176.686 411.528 176.833C410.791 176.833 410.127 176.907 409.536 177.054C408.946 177.054 408.282 177.054 407.544 177.054C406.806 177.202 406.069 177.276 405.331 177.276C404.741 177.128 404.076 177.128 403.339 177.276C402.453 177.571 401.568 177.792 400.683 177.939C399.797 177.939 399.207 177.349 398.912 176.169C398.912 175.432 398.912 174.768 398.912 174.178C399.059 173.588 399.207 172.924 399.354 172.187C399.354 171.449 399.354 170.786 399.354 170.196C399.502 169.606 399.723 169.016 400.018 168.426ZM399.576 130.149C400.609 130.297 401.568 130.371 402.453 130.371C403.339 130.223 404.298 130.149 405.331 130.149C406.364 130.149 407.323 130.297 408.208 130.592C409.241 130.887 410.274 131.182 411.307 131.477C412.045 131.772 412.783 132.141 413.521 132.583C414.258 133.026 414.996 133.321 415.734 133.468C416.767 133.616 417.652 133.837 418.39 134.132C419.275 134.427 420.161 134.722 421.046 135.017C423.112 135.754 425.178 136.344 427.244 136.787C429.31 137.229 431.449 137.672 433.663 138.114C435.729 138.409 437.721 138.778 439.639 139.221C441.557 139.663 443.55 139.884 445.615 139.884C447.681 139.884 449.747 139.884 451.813 139.884C453.879 139.737 455.945 139.589 458.011 139.442C459.044 139.442 460.003 139.368 460.888 139.221C461.774 138.926 462.733 138.631 463.766 138.336C464.651 138.041 465.536 137.893 466.422 137.893C467.455 137.746 468.414 137.524 469.299 137.229C470.037 136.934 470.701 136.639 471.291 136.344C472.029 136.049 472.767 135.754 473.505 135.459C474.39 135.017 475.276 134.648 476.161 134.353C477.046 133.911 477.932 133.394 478.817 132.804C480.145 132.067 481.547 130.961 483.023 129.486C483.761 128.896 484.425 128.379 485.015 127.937C485.605 127.347 486.269 126.683 487.007 125.946C487.597 125.208 488.114 124.471 488.556 123.733C488.999 122.848 489.515 122.037 490.106 121.299C490.548 120.414 491.065 119.529 491.655 118.644C492.245 117.612 492.688 116.653 492.983 115.768C493.278 114.883 493.426 113.998 493.426 113.113C493.573 112.228 493.795 111.343 494.09 110.458C494.385 109.278 494.68 108.393 494.975 107.803C495.123 107.361 495.197 106.992 495.197 106.697C495.197 106.254 495.27 105.812 495.418 105.369C495.418 104.337 495.566 103.378 495.861 102.493C496.156 101.461 496.303 100.428 496.303 99.3956C496.599 97.1831 496.525 95.0444 496.082 92.9794C495.934 91.9469 495.787 90.9881 495.639 90.1031C495.492 89.0706 495.27 88.0381 494.975 87.0056C494.68 85.8256 494.385 84.7194 494.09 83.6869C493.942 82.6544 493.647 81.6219 493.205 80.5894C492.467 78.8194 491.36 77.3444 489.884 76.1644C488.556 74.9844 487.081 74.0256 485.457 73.2881C481.473 71.2231 477.563 69.7481 473.726 68.8631C471.66 68.4206 469.594 68.0519 467.529 67.7569C465.463 67.4619 463.397 67.1669 461.331 66.8719C460.298 66.5769 459.265 66.4294 458.232 66.4294C457.347 66.4294 456.314 66.4294 455.133 66.4294C454.1 66.2819 453.067 66.1344 452.034 65.9869C451.002 65.8394 449.969 65.6919 448.936 65.5444C444.214 65.1019 439.418 64.9544 434.548 65.1019C429.826 65.2494 425.104 65.4706 420.382 65.7656C417.874 65.7656 415.365 65.7656 412.856 65.7656C410.495 65.7656 408.061 65.9131 405.552 66.2081C404.372 66.2081 403.191 66.2081 402.011 66.2081C400.83 66.0606 399.65 65.9869 398.469 65.9869C397.289 66.1344 396.108 66.2081 394.928 66.2081C393.747 66.2081 392.567 66.2081 391.386 66.2081C391.386 67.8306 391.238 69.4531 390.943 71.0756C390.648 72.5506 390.574 74.0994 390.722 75.7219C390.87 77.3444 391.017 78.9669 391.165 80.5894C391.312 82.0644 391.534 83.6131 391.829 85.2356C391.976 85.8256 392.05 86.7106 392.05 87.8906C392.05 88.1856 392.05 88.4806 392.05 88.7756C392.05 89.0706 392.124 89.2919 392.271 89.4394C392.567 89.8819 393.157 90.0294 394.042 89.8819C394.928 89.5869 395.592 89.4394 396.034 89.4394C397.657 89.1444 399.354 88.9231 401.125 88.7756C402.896 88.6281 404.593 88.4069 406.216 88.1119C407.839 87.8169 409.463 87.4481 411.086 87.0056C412.709 86.5631 414.332 86.2681 415.955 86.1206C417.579 85.9731 419.202 85.8256 420.825 85.6781C422.448 85.5306 424.071 85.3831 425.694 85.2356H430.785C431.523 85.2356 432.335 85.1619 433.22 85.0144C434.106 84.8669 434.991 84.8669 435.876 85.0144C437.499 85.3094 439.123 85.4569 440.746 85.4569C442.369 85.4569 443.992 85.6044 445.615 85.8994C448.714 86.1944 451.813 86.8581 454.912 87.8906C456.388 88.4806 457.789 88.9969 459.117 89.4394C460.446 89.8819 461.774 90.4719 463.102 91.2094C464.135 91.9469 465.168 92.7581 466.201 93.6431C466.496 93.9381 466.865 94.3806 467.307 94.9706C467.897 95.4131 468.266 95.9294 468.414 96.5194C468.562 96.8144 468.562 97.1094 468.414 97.4044C468.266 97.5519 468.119 97.7731 467.971 98.0681C467.824 98.3631 467.75 98.6581 467.75 98.9531C467.75 99.1006 467.676 99.3219 467.529 99.6169C467.233 100.797 466.569 102.124 465.537 103.599C464.799 104.927 464.061 106.181 463.323 107.361C462.585 108.393 461.479 109.278 460.003 110.016C459.413 110.311 458.896 110.679 458.453 111.122C458.158 111.417 457.642 111.712 456.904 112.007C456.019 112.302 455.133 112.671 454.248 113.113C453.51 113.408 452.698 113.703 451.813 113.998L449.821 114.662C449.526 114.809 449.157 114.883 448.714 114.883C448.419 114.736 448.124 114.662 447.829 114.662C446.944 114.514 446.058 114.588 445.173 114.883C444.435 115.031 443.623 115.178 442.738 115.326C441.115 115.473 439.492 115.694 437.868 115.989C436.393 116.137 434.843 116.284 433.22 116.432C431.154 116.727 429.162 116.948 427.244 117.096C425.473 117.243 423.629 117.391 421.71 117.538C420.677 117.686 419.718 117.833 418.833 117.981C417.947 117.981 416.988 118.128 415.955 118.423C414.185 118.866 412.561 119.087 411.086 119.087C409.167 119.087 407.323 119.308 405.552 119.751C405.109 119.751 404.667 119.824 404.224 119.972C403.781 119.972 403.339 119.972 402.896 119.972C402.601 119.972 402.232 119.972 401.789 119.972C401.494 119.824 401.199 119.898 400.904 120.193C400.461 120.636 400.166 121.447 400.018 122.627C400.018 123.659 400.018 124.471 400.018 125.061C399.871 125.946 399.723 126.831 399.576 127.716C399.576 128.601 399.576 129.412 399.576 130.149ZM400.461 156.699C400.461 156.552 400.461 155.962 400.461 154.929C400.609 153.749 400.609 152.643 400.461 151.611C400.461 150.431 400.387 149.398 400.24 148.513C400.092 147.628 399.945 147.186 399.797 147.186C399.797 147.186 399.797 147.628 399.797 148.513C399.797 149.398 399.871 150.431 400.018 151.611C400.166 152.791 400.24 153.897 400.24 154.929C400.387 155.962 400.461 156.552 400.461 156.699Z" fill="white"/>
<path d="M429.033 616.678C429.033 615.498 428.835 614.121 428.442 612.548C428.245 609.795 428.05 607.041 427.852 604.288C427.655 601.535 427.459 598.781 427.262 596.028C426.869 592.685 426.574 589.538 426.377 586.588C426.377 583.441 426.279 580.295 426.081 577.148C425.884 575.575 425.689 573.903 425.491 572.133C425.491 570.363 425.294 568.691 424.901 567.118C424.704 565.545 424.508 563.971 424.311 562.398C424.113 560.825 423.818 559.251 423.425 557.678C423.228 556.695 423.032 555.613 422.835 554.433C422.835 553.253 422.638 552.171 422.245 551.188C421.852 549.025 421.457 546.96 421.064 544.993C420.867 542.83 420.572 540.666 420.179 538.503C419.981 538.11 419.884 537.815 419.884 537.618C420.081 537.421 420.179 537.126 420.179 536.733C420.179 536.143 420.081 535.553 419.884 534.963C419.884 534.373 419.884 533.685 419.884 532.898C419.884 532.701 419.786 532.603 419.589 532.603C419.589 532.406 419.589 532.21 419.589 532.013C419.589 530.44 419.491 529.063 419.293 527.883C419.293 526.506 419.293 525.031 419.293 523.458V510.478V506.348C419.293 504.775 419.196 503.3 418.998 501.923C418.998 500.35 418.901 498.776 418.703 497.203C418.703 495.04 418.015 492.68 416.637 490.123C416.244 492.09 415.85 493.958 415.457 495.728C415.064 497.301 414.964 498.973 415.162 500.743V501.333C414.769 502.513 414.374 503.693 413.981 504.873C413.784 506.053 413.489 507.331 413.096 508.708C412.898 509.691 412.703 510.576 412.506 511.363C412.308 512.15 412.113 513.035 411.915 514.018C411.718 515.395 411.522 516.771 411.325 518.148C411.128 519.525 410.833 520.901 410.44 522.278C410.44 523.261 410.44 524.245 410.44 525.228C410.44 526.211 410.342 527.195 410.145 528.178C409.752 529.555 409.457 530.931 409.259 532.308C409.259 533.488 409.062 534.766 408.669 536.143C408.276 537.716 407.981 539.388 407.784 541.158C407.784 542.928 407.586 544.6 407.193 546.173L406.308 549.713C405.915 551.876 405.423 553.941 404.832 555.908C404.439 557.875 404.045 559.841 403.652 561.808C403.454 563.381 403.259 564.856 403.062 566.233C403.062 567.413 402.964 568.79 402.766 570.363L401.881 575.673C401.488 577.246 401.291 578.721 401.291 580.098C401.291 581.475 401.093 582.851 400.701 584.228C400.503 585.211 400.208 586.096 399.815 586.883C399.618 587.67 399.422 588.555 399.225 589.538C398.635 591.505 398.044 593.373 397.454 595.143C397.061 596.913 396.667 598.683 396.274 600.453C395.683 602.616 394.601 605.075 393.027 607.828C392.437 608.811 392.142 609.5 392.142 609.893C392.142 610.09 392.437 610.68 393.027 611.663C392.437 612.056 391.454 612.155 390.076 611.958C388.896 611.565 388.305 611.073 388.305 610.483C388.108 610.09 388.207 609.401 388.6 608.418C388.993 607.631 389.191 607.041 389.191 606.648C389.781 605.271 390.273 603.993 390.666 602.813C391.257 601.436 391.749 600.06 392.142 598.683C392.535 597.503 392.93 596.323 393.322 595.143C393.913 593.766 394.405 592.39 394.798 591.013C395.191 589.636 395.486 588.26 395.683 586.883C395.881 585.506 396.176 584.031 396.569 582.458C396.766 581.868 396.864 581.278 396.864 580.688C396.864 579.901 396.962 579.213 397.159 578.623V577.738C397.552 576.755 397.847 575.87 398.044 575.083C398.242 574.1 398.537 573.116 398.93 572.133C398.93 571.346 399.127 570.363 399.52 569.183C399.52 568.593 399.422 568.003 399.225 567.413C399.225 566.823 399.323 566.331 399.52 565.938C399.913 564.168 400.11 562.398 400.11 560.628C400.11 558.858 400.208 557.088 400.405 555.318C400.405 554.531 400.603 553.745 400.996 552.958C401.389 552.171 401.684 551.385 401.881 550.598C402.274 549.418 402.471 548.533 402.471 547.943C402.669 546.96 402.864 546.075 403.062 545.288C403.259 544.501 403.454 543.616 403.652 542.633C403.849 541.65 403.947 540.666 403.947 539.683C403.947 538.7 404.045 537.716 404.242 536.733L405.127 532.308C405.325 531.915 405.423 531.128 405.423 529.948C405.62 529.358 405.62 528.768 405.423 528.178C405.225 527.391 405.52 526.801 406.308 526.408C406.308 526.408 406.308 526.015 406.308 525.228C405.915 523.655 405.815 522.18 406.013 520.803C406.406 519.426 406.898 518.05 407.488 516.673C407.686 516.083 407.784 515.591 407.784 515.198C407.981 514.608 408.176 514.018 408.374 513.428C408.571 511.855 408.767 510.281 408.964 508.708C409.161 507.135 409.357 505.561 409.554 503.988L410.44 499.563C410.833 498.186 411.128 496.908 411.325 495.728C411.718 494.351 412.113 493.073 412.506 491.893L413.391 488.353L414.276 483.043C414.474 481.863 415.259 481.273 416.637 481.273C418.801 481.666 420.179 482.846 420.769 484.813C421.162 486.78 421.557 488.648 421.95 490.418C422.54 492.188 422.933 494.056 423.13 496.023C423.523 498.776 423.918 501.628 424.311 504.578C424.704 507.331 424.704 510.183 424.311 513.133C424.113 514.313 424.113 515.493 424.311 516.673C424.508 517.853 424.606 519.033 424.606 520.213V527.293C424.803 529.456 424.901 531.521 424.901 533.488C425.098 535.258 425.294 537.225 425.491 539.388C425.689 541.158 425.884 542.928 426.081 544.698C426.279 546.468 426.574 548.238 426.967 550.008C427.164 551.581 427.36 553.056 427.557 554.433C427.95 555.613 428.345 556.99 428.738 558.563C429.13 561.12 429.426 563.578 429.623 565.938C429.82 568.298 430.115 570.756 430.508 573.313C430.706 574.493 430.803 575.673 430.803 576.853C431.001 578.033 431.296 579.115 431.689 580.098V581.868V590.128C431.689 591.111 431.689 592.193 431.689 593.373C431.886 594.553 431.984 595.635 431.984 596.618C431.984 598.191 432.181 599.765 432.574 601.338C432.967 602.911 432.967 604.485 432.574 606.058C432.377 607.041 432.377 608.123 432.574 609.303C432.967 610.483 433.262 611.565 433.46 612.548C433.657 613.138 433.755 613.925 433.755 614.908C433.755 617.071 434.837 618.153 437.001 618.153C437.789 617.956 438.969 617.858 440.543 617.858C442.116 618.055 443.789 618.153 445.56 618.153C447.33 618.153 449.003 618.251 450.577 618.448C451.364 618.448 452.052 618.546 452.643 618.743C453.43 618.743 454.216 618.743 455.004 618.743H457.07C457.07 617.563 457.07 616.481 457.07 615.498C457.267 614.318 457.365 613.236 457.365 612.253C457.758 610.68 457.955 609.205 457.955 607.828C458.152 606.451 458.348 604.976 458.545 603.403V601.928C458.743 601.338 458.84 600.846 458.84 600.453C458.84 599.863 458.938 599.273 459.135 598.683C459.333 598.29 459.431 598.093 459.431 598.093C459.233 596.323 459.333 594.553 459.726 592.783C460.316 591.013 460.709 589.341 460.906 587.768C461.299 585.605 461.694 583.441 462.087 581.278C462.677 579.115 463.17 576.951 463.562 574.788C463.76 573.608 463.955 572.526 464.153 571.543C464.546 570.363 464.841 569.183 465.038 568.003C465.431 566.43 465.628 564.856 465.628 563.283C465.826 561.71 466.121 560.136 466.514 558.563C466.711 556.793 466.907 555.023 467.104 553.253C467.301 551.483 467.596 549.615 467.989 547.648C468.382 545.681 468.58 543.813 468.58 542.043C468.777 540.076 469.072 538.11 469.465 536.143C469.858 533.98 470.153 531.816 470.35 529.653C470.743 527.49 471.138 525.326 471.531 523.163C471.924 521.196 472.219 519.328 472.416 517.558C472.809 515.591 473.204 513.625 473.597 511.658C473.99 510.085 474.285 508.511 474.482 506.938C474.679 505.365 475.072 503.791 475.663 502.218C476.253 500.055 476.745 497.891 477.138 495.728C477.531 493.565 478.416 491.5 479.794 489.533C479.992 489.336 480.089 489.14 480.089 488.943C480.287 488.746 480.482 488.55 480.68 488.353C481.073 486.976 481.86 486.288 483.041 486.288C484.811 486.288 486.09 486.878 486.877 488.058C487.86 490.025 488.845 492.483 489.829 495.433C490.222 496.416 490.517 497.4 490.714 498.383C491.107 499.366 491.206 500.35 491.009 501.333C490.812 502.513 490.911 503.595 491.304 504.578C491.894 505.561 492.287 506.643 492.485 507.823C492.485 509.986 492.583 512.15 492.78 514.313C492.977 516.476 493.272 518.64 493.665 520.803C493.665 521.786 493.665 522.868 493.665 524.048C493.863 525.228 494.058 526.31 494.256 527.293L495.141 540.568C495.338 543.125 495.436 545.681 495.436 548.238C495.633 550.598 495.928 553.056 496.321 555.613C496.714 558.366 497.109 560.825 497.502 562.988C497.502 563.185 497.404 563.381 497.207 563.578C497.207 563.578 497.207 563.775 497.207 564.168C497.009 565.741 496.912 567.315 496.912 568.888C496.912 570.461 496.814 572.035 496.617 573.608C496.617 574.788 496.519 575.968 496.321 577.148C496.321 578.131 496.224 579.115 496.026 580.098C496.026 581.081 496.026 581.573 496.026 581.573C496.026 583.146 496.026 584.72 496.026 586.293C496.224 587.866 496.419 589.44 496.617 591.013C496.814 592.586 496.814 594.356 496.617 596.323C496.224 597.306 496.026 598.388 496.026 599.568C496.224 600.551 496.224 601.535 496.026 602.518C495.436 603.108 494.944 603.501 494.551 603.698C494.158 604.091 493.665 604.288 493.075 604.288C492.485 604.091 492.19 603.6 492.19 602.813V595.733C491.992 594.356 491.895 592.98 491.895 591.603C491.895 590.226 491.895 588.85 491.895 587.473C491.895 585.113 491.895 582.851 491.895 580.688C492.092 578.328 492.19 575.968 492.19 573.608C492.19 571.051 492.19 568.593 492.19 566.233C492.19 563.676 492.092 561.12 491.895 558.563C491.502 554.433 491.107 550.303 490.714 546.173C490.321 541.846 489.926 537.618 489.533 533.488C489.336 531.915 489.238 530.341 489.238 528.768C489.436 526.998 489.436 525.326 489.238 523.753C489.041 522.18 488.845 520.705 488.648 519.328C488.451 517.755 488.156 516.181 487.763 514.608C487.763 513.231 487.665 511.953 487.468 510.773C487.468 509.593 487.37 508.413 487.172 507.233C486.78 505.07 486.385 503.005 485.992 501.038C485.795 498.875 485.5 496.711 485.107 494.548C484.909 493.761 484.419 492.778 483.631 491.598H483.041C482.843 492.188 482.648 492.778 482.45 493.368C482.253 493.958 482.058 494.548 481.86 495.138C481.663 495.728 481.467 496.416 481.27 497.203C481.27 497.793 481.172 498.383 480.975 498.973C480.582 500.546 480.187 502.021 479.794 503.398C479.597 504.578 479.302 505.955 478.909 507.528C478.516 508.905 478.121 510.183 477.728 511.363C477.531 512.543 477.336 513.723 477.138 514.903C476.941 515.886 476.843 516.771 476.843 517.558C476.843 518.345 476.745 519.131 476.548 519.918C476.155 521.491 475.76 523.163 475.367 524.933C474.975 526.506 474.58 528.08 474.187 529.653C474.777 530.636 474.975 531.62 474.777 532.603C474.777 533.39 474.58 534.275 474.187 535.258C473.99 535.651 473.892 536.143 473.892 536.733C473.892 537.126 473.794 537.52 473.597 537.913C473.597 538.306 473.499 538.601 473.302 538.798C473.302 538.798 473.302 538.995 473.302 539.388C472.909 541.748 472.614 544.108 472.416 546.468C472.219 548.631 471.924 550.893 471.531 553.253C471.333 554.63 471.138 555.908 470.941 557.088C470.941 558.268 470.843 559.448 470.645 560.628V561.513C469.858 562.693 469.465 563.971 469.465 565.348C469.465 566.528 469.268 567.806 468.875 569.183C468.087 571.74 467.596 574.001 467.399 575.968C467.202 576.361 467.104 576.755 467.104 577.148C467.301 577.541 467.301 577.935 467.104 578.328C467.104 579.311 466.907 580.59 466.514 582.163C466.316 583.736 465.826 585.605 465.038 587.768C464.25 589.931 463.76 591.898 463.562 593.668C463.365 594.651 463.169 595.635 462.972 596.618C462.972 597.601 463.17 598.585 463.562 599.568C463.76 600.551 463.76 601.436 463.562 602.223C463.365 602.813 463.169 603.501 462.972 604.288C462.579 605.861 462.185 607.533 461.792 609.303C461.399 610.876 461.104 612.45 460.906 614.023C460.709 614.613 460.709 615.301 460.906 616.088C461.104 616.678 461.299 617.465 461.497 618.448C462.48 618.448 463.465 618.546 464.448 618.743C465.431 618.743 466.514 618.645 467.694 618.448C468.677 618.448 469.17 617.956 469.17 616.973C469.563 615.793 469.858 614.711 470.055 613.728C470.253 612.548 470.055 611.27 469.465 609.893C468.875 607.533 468.972 605.173 469.76 602.813C470.153 600.846 470.548 598.978 470.941 597.208C471.531 595.438 471.924 593.57 472.121 591.603C472.318 590.226 472.514 588.948 472.711 587.768C473.104 586.391 473.499 584.916 473.892 583.343C474.285 582.556 474.482 581.868 474.482 581.278C474.285 579.705 474.384 578.328 474.777 577.148C475.17 575.771 475.565 574.296 475.958 572.723C476.155 571.74 476.253 570.855 476.253 570.068C476.253 569.085 476.253 568.101 476.253 567.118C476.45 566.528 476.548 566.036 476.548 565.643C476.745 565.053 477.236 564.66 478.024 564.463C478.024 563.283 478.121 562.496 478.319 562.103C478.712 560.923 479.007 559.94 479.204 559.153C479.597 557.776 480.187 557.088 480.975 557.088C481.958 557.285 482.746 557.383 483.336 557.383C484.123 557.383 484.811 557.776 485.402 558.563C486.385 559.94 486.877 561.316 486.877 562.693C487.075 563.873 487.27 565.25 487.468 566.823C487.665 568.593 487.763 570.363 487.763 572.133C487.96 573.903 488.156 575.771 488.353 577.738C488.353 579.115 488.353 580.491 488.353 581.868C488.55 583.245 488.55 584.72 488.353 586.293C487.96 587.67 487.86 588.948 488.058 590.128C488.451 591.308 488.451 592.586 488.058 593.963V596.028C488.255 598.388 488.353 600.748 488.353 603.108C488.55 605.271 488.746 607.533 488.943 609.893C488.943 611.27 488.353 612.056 487.172 612.253C485.795 612.253 485.009 611.663 484.811 610.483C484.419 608.91 484.024 607.238 483.631 605.468C483.238 603.698 483.238 601.928 483.631 600.158C484.024 599.175 484.024 598.191 483.631 597.208C483.434 596.028 483.238 594.848 483.041 593.668V592.783C483.041 590.62 483.041 588.456 483.041 586.293C483.041 584.13 483.238 581.966 483.631 579.803C484.024 577.836 483.926 575.968 483.336 574.198C482.943 572.231 482.746 570.265 482.746 568.298C482.746 567.708 482.746 567.118 482.746 566.528C482.746 565.741 482.648 564.955 482.45 564.168H482.155C481.762 565.741 481.368 567.315 480.975 568.888C480.582 570.461 480.187 572.035 479.794 573.608C479.204 575.771 478.909 577.935 478.909 580.098C478.909 582.065 478.712 584.13 478.319 586.293C478.319 586.686 478.221 586.883 478.024 586.883C476.843 588.85 476.155 590.915 475.958 593.078C475.76 595.241 475.465 597.405 475.072 599.568C474.679 600.945 474.482 602.42 474.482 603.993C474.679 605.37 474.777 606.746 474.777 608.123C474.384 610.876 473.99 613.04 473.597 614.613C473.597 615.006 473.499 615.498 473.302 616.088C473.302 616.678 473.302 617.17 473.302 617.563C473.302 618.35 473.499 618.743 473.892 618.743C474.285 618.743 474.679 618.743 475.072 618.743C476.646 618.743 478.121 618.743 479.499 618.743C481.073 618.743 482.648 618.841 484.221 619.038C486.582 619.038 489.141 619.333 491.895 619.923C492.878 620.12 493.96 620.218 495.141 620.218C496.321 620.218 497.502 620.415 498.682 620.808C500.256 621.201 500.551 622.185 499.568 623.758L495.141 630.838C494.158 632.608 493.075 634.378 491.895 636.148C490.911 637.721 489.926 639.393 488.943 641.163C488.55 641.753 488.255 642.343 488.058 642.933C488.058 643.523 487.861 644.211 487.468 644.998H488.943C489.336 645.391 489.631 645.785 489.829 646.178C489.238 646.768 488.943 647.063 488.943 647.063C487.172 647.653 486.287 648.735 486.287 650.308C486.287 651.881 486.189 653.455 485.992 655.028C485.795 656.405 485.697 657.88 485.697 659.453C485.499 661.42 485.304 663.288 485.107 665.058C485.107 666.828 485.009 668.696 484.811 670.663C484.614 673.416 484.516 676.071 484.516 678.628C484.516 680.988 484.419 683.545 484.221 686.298C484.221 688.265 484.221 690.231 484.221 692.198C484.419 694.165 484.419 696.131 484.221 698.098C484.221 700.261 484.123 702.326 483.926 704.293C483.729 706.063 483.434 708.03 483.041 710.193C482.843 711.766 482.648 713.34 482.45 714.913C482.253 716.486 481.958 718.158 481.565 719.928C484.319 720.321 486.385 720.715 487.763 721.108C488.156 721.305 488.451 721.501 488.648 721.698C489.041 721.895 489.436 722.091 489.829 722.288C489.436 722.485 489.041 722.681 488.648 722.878C488.451 723.271 488.156 723.468 487.763 723.468C486.582 723.468 485.204 723.271 483.631 722.878C482.648 722.485 482.058 722.386 481.86 722.583C481.663 722.78 481.565 723.37 481.565 724.353C481.565 725.336 481.565 726.32 481.565 727.303C481.565 728.286 481.663 729.27 481.86 730.253C481.86 731.433 481.467 732.023 480.68 732.023C478.712 732.416 477.728 732.023 477.728 730.843V723.173C477.728 721.993 477.336 721.206 476.548 720.813C473.204 719.83 470.35 718.551 467.989 716.978C465.628 715.995 464.35 714.225 464.153 711.668C464.153 711.471 463.955 710.783 463.562 709.603C462.579 707.243 461.889 704.391 461.497 701.048C460.906 698.098 460.809 694.755 461.201 691.018C461.399 689.838 461.399 688.658 461.201 687.478C461.004 686.298 460.906 685.118 460.906 683.938V681.873C460.906 680.89 460.906 680.005 460.906 679.218C460.906 678.235 461.004 677.251 461.201 676.268C461.201 675.285 461.104 674.4 460.906 673.613C460.709 672.826 460.611 672.04 460.611 671.253C460.414 670.27 460.513 668.795 460.906 666.828C461.104 665.845 461.104 665.058 460.906 664.468C460.709 663.681 460.709 662.796 460.906 661.813C461.299 659.846 461.497 657.88 461.497 655.913C461.694 653.946 462.284 651.98 463.267 650.013C463.858 649.03 463.465 648.538 462.087 648.538H455.004C454.021 648.538 452.938 648.538 451.757 648.538C450.774 648.341 449.789 648.145 448.806 647.948C447.823 647.948 446.74 647.948 445.56 647.948C444.577 647.948 443.592 647.85 442.608 647.653C441.428 647.456 440.247 647.358 439.067 647.358C437.886 647.161 436.706 647.063 435.525 647.063C433.557 646.67 431.689 646.473 429.918 646.473C428.147 646.276 426.377 645.981 424.606 645.588C421.852 645.195 419.096 644.801 416.342 644.408C413.588 643.818 410.833 643.326 408.079 642.933C405.718 642.54 403.357 642.048 400.996 641.458C398.832 640.868 396.667 640.376 394.503 639.983C393.715 639.786 392.93 639.786 392.142 639.983C391.552 639.983 390.764 639.983 389.781 639.983C386.239 639.983 384.666 638.213 385.059 634.673C385.256 633.69 385.354 632.608 385.354 631.428C385.354 630.248 385.354 629.068 385.354 627.888L386.239 619.923V615.203C386.239 613.63 386.927 612.843 388.305 612.843C389.288 612.646 390.174 612.646 390.961 612.843C391.749 612.843 392.634 612.745 393.618 612.548C396.569 612.155 399.52 612.155 402.471 612.548C405.423 612.745 408.374 613.04 411.325 613.433C413.096 613.63 414.769 613.826 416.342 614.023C418.113 614.22 419.786 614.613 421.359 615.203C422.54 615.793 423.72 616.088 424.901 616.088C426.279 615.891 427.557 616.186 428.738 616.973C428.935 616.973 429.033 616.875 429.033 616.678ZM495.141 622.578C493.568 622.381 491.992 622.185 490.419 621.988C489.041 621.791 487.565 621.595 485.992 621.398C485.009 621.201 483.926 621.103 482.746 621.103C481.762 620.906 480.777 620.808 479.794 620.808C478.221 620.808 476.745 620.906 475.367 621.103C473.99 621.103 472.514 621.201 470.941 621.398H469.76C467.989 620.808 466.219 620.611 464.448 620.808C462.874 621.005 461.201 621.005 459.431 620.808C458.053 620.611 456.677 620.611 455.299 620.808C454.118 620.808 452.84 620.808 451.462 620.808C449.299 620.808 447.133 620.808 444.969 620.808C442.806 620.611 440.64 620.415 438.477 620.218C436.903 620.021 435.428 619.923 434.05 619.923C432.672 619.923 431.296 619.726 429.918 619.333C427.754 618.94 425.688 618.546 423.72 618.153C421.95 617.76 419.982 617.366 417.818 616.973C415.654 616.58 413.391 616.285 411.03 616.088C408.866 615.891 406.701 615.695 404.537 615.498C402.176 615.105 399.815 614.908 397.454 614.908C395.291 614.908 393.027 615.105 390.666 615.498C389.879 615.695 389.486 616.186 389.486 616.973C389.486 617.76 389.388 618.546 389.191 619.333C389.191 619.923 389.191 620.611 389.191 621.398C388.993 622.578 388.798 623.758 388.6 624.938C388.403 625.921 388.305 626.905 388.305 627.888C388.108 629.068 388.01 630.346 388.01 631.723C388.207 632.903 388.403 634.083 388.6 635.263C388.6 636.64 389.288 637.328 390.666 637.328C392.437 637.328 393.715 637.426 394.503 637.623C396.076 638.016 397.454 638.41 398.635 638.803C400.013 639 401.389 639.295 402.766 639.688C404.34 640.081 405.815 640.376 407.193 640.573C408.571 640.77 409.947 641.065 411.325 641.458C412.506 641.655 413.686 641.95 414.867 642.343C416.047 642.54 417.325 642.736 418.703 642.933C420.867 643.326 423.13 643.621 425.491 643.818C427.852 644.015 430.115 644.211 432.279 644.408C433.657 644.605 435.033 644.801 436.411 644.998C437.789 644.998 439.165 645.096 440.543 645.293C442.511 645.49 444.379 645.686 446.15 645.883C447.921 645.883 449.789 645.883 451.757 645.883C453.528 646.08 455.299 646.178 457.07 646.178C458.84 646.178 460.513 646.178 462.087 646.178C463.465 646.571 464.153 646.08 464.153 644.703L465.038 638.508C465.038 637.131 465.628 636.443 466.809 636.443C467.792 636.443 468.58 636.443 469.17 636.443C469.957 636.246 470.843 636.148 471.826 636.148C473.204 636.148 474.482 636.246 475.663 636.443C476.843 636.443 478.121 636.443 479.499 636.443H485.697C487.27 636.443 488.156 635.853 488.353 634.673C488.55 634.28 488.746 633.985 488.943 633.788C489.141 633.395 489.336 633.001 489.533 632.608C490.124 631.821 490.714 631.035 491.304 630.248C491.894 629.461 492.485 628.576 493.075 627.593C493.468 626.806 493.763 626.02 493.96 625.233C494.353 624.446 494.748 623.561 495.141 622.578ZM478.024 718.453C478.221 717.666 478.319 716.978 478.319 716.388C478.319 715.601 478.416 714.913 478.614 714.323C479.007 712.75 479.204 711.275 479.204 709.898C479.401 708.325 479.597 706.751 479.794 705.178C479.992 703.015 480.187 700.95 480.385 698.983C480.582 696.82 480.482 694.656 480.089 692.493V692.198C480.287 689.248 480.482 686.298 480.68 683.348C480.877 680.398 481.073 677.448 481.27 674.498C481.467 671.745 481.565 668.991 481.565 666.238C481.565 663.288 481.762 660.436 482.155 657.683C482.353 656.896 482.058 656.208 481.27 655.618C480.68 655.421 480.385 654.831 480.385 653.848C480.777 651.881 481.172 650.406 481.565 649.423C482.155 648.243 481.86 647.653 480.68 647.653H479.204C477.433 647.653 475.663 647.751 473.892 647.948C472.318 647.948 470.743 647.948 469.17 647.948C467.399 648.145 466.416 648.931 466.219 650.308C465.826 652.078 465.531 653.848 465.333 655.618C465.136 657.388 464.94 659.158 464.743 660.928C464.546 662.501 464.448 663.976 464.448 665.353C464.448 666.73 464.448 668.205 464.448 669.778C464.448 671.155 464.448 672.531 464.448 673.908C464.645 675.088 464.743 676.268 464.743 677.448C464.743 680.791 464.743 684.036 464.743 687.183C464.743 690.33 464.841 693.575 465.038 696.918C465.235 698.885 465.431 700.851 465.628 702.818C465.826 704.588 466.121 706.456 466.514 708.423C467.301 711.176 468.677 713.536 470.645 715.503C472.809 717.273 475.27 718.256 478.024 718.453ZM483.926 638.803C483.729 638.606 483.533 638.508 483.336 638.508H470.35C469.957 638.508 469.465 638.803 468.875 639.393C468.482 640.376 468.187 641.458 467.989 642.638C467.989 643.621 467.792 644.703 467.399 645.883H469.465C471.629 645.686 473.694 645.588 475.663 645.588C477.826 645.588 479.992 645.49 482.155 645.293C482.943 645.293 483.533 644.9 483.926 644.113V638.803ZM401.881 594.848C402.078 593.865 402.078 592.98 401.881 592.193C401.684 591.406 401.783 590.521 402.176 589.538C402.569 588.751 402.964 588.063 403.357 587.473C403.75 586.686 403.75 585.801 403.357 584.818C403.159 584.031 403.259 583.245 403.652 582.458C404.045 581.671 404.439 580.786 404.832 579.803C405.225 578.623 405.62 577.541 406.013 576.558C406.603 575.378 407.096 574.198 407.488 573.018C407.686 572.625 407.686 572.231 407.488 571.838C407.488 571.445 407.488 571.051 407.488 570.658C406.898 569.085 407.291 567.708 408.669 566.528C407.686 565.545 407.391 564.758 407.784 564.168C408.374 563.381 408.866 562.693 409.259 562.103C409.652 560.726 409.849 559.448 409.849 558.268C410.047 557.088 410.242 555.81 410.44 554.433C410.44 553.646 410.342 552.958 410.145 552.368C409.947 551.778 409.849 551.09 409.849 550.303C409.652 549.91 409.554 549.32 409.554 548.533C410.145 548.533 410.637 548.533 411.03 548.533C411.62 548.336 412.21 548.238 412.801 548.238C413.784 548.435 414.276 548.926 414.276 549.713C414.474 550.303 414.669 550.893 414.867 551.483C415.064 554.236 415.162 556.891 415.162 559.448C415.162 562.005 415.259 564.561 415.457 567.118C415.457 574.788 415.752 582.261 416.342 589.538C416.342 591.111 416.54 592.685 416.932 594.258C417.325 595.635 417.62 597.11 417.818 598.683C418.015 599.863 418.113 601.043 418.113 602.223C418.113 603.403 418.211 604.583 418.408 605.763C418.408 606.353 418.506 606.943 418.703 607.533C418.901 607.926 418.998 608.418 418.998 609.008C418.998 610.188 418.901 610.876 418.703 611.073C417.325 611.466 416.342 611.565 415.752 611.368C415.555 611.171 415.457 610.876 415.457 610.483C415.457 610.09 415.359 609.696 415.162 609.303C414.374 607.73 413.883 606.451 413.686 605.468C413.489 604.485 413.293 603.501 413.096 602.518C412.898 601.338 412.801 600.256 412.801 599.273C412.603 597.7 412.506 596.323 412.506 595.143C412.506 593.766 412.308 592.291 411.915 590.718C410.932 587.571 410.537 584.72 410.735 582.163C411.128 580.786 411.325 579.508 411.325 578.328C411.325 576.951 411.325 575.575 411.325 574.198C411.325 574.001 411.227 573.805 411.03 573.608C411.03 573.411 411.03 573.215 411.03 573.018C410.637 572.821 410.44 572.723 410.44 572.723C410.44 573.116 410.342 573.411 410.145 573.608L406.603 588.653C406.013 590.816 405.423 592.881 404.832 594.848C404.242 596.815 403.75 598.88 403.357 601.043C402.374 603.993 402.374 606.943 403.357 609.893C403.554 610.286 403.554 610.581 403.357 610.778C403.159 610.975 403.062 611.171 403.062 611.368C401.684 611.368 400.996 611.171 400.996 610.778C400.603 609.795 400.208 608.91 399.815 608.123C399.422 607.14 399.422 605.96 399.815 604.583C400.208 603.6 400.308 602.518 400.11 601.338C400.11 599.961 400.208 598.683 400.405 597.503C400.603 596.913 401.093 596.028 401.881 594.848Z" fill="white"/>
</g>
<defs>
<clipPath id="clip0_173_341">
<rect width="886" height="886" fill="white"/>
</clipPath>
</defs>
</svg>
