<svg width="878" height="885" viewBox="0 0 878 885" fill="none" xmlns="http://www.w3.org/2000/svg">
<g clip-path="url(#clip0_140_139)">
<mask id="mask0_140_139" style="mask-type:luminance" maskUnits="userSpaceOnUse" x="0" y="0" width="878" height="885">
<path d="M878 0H0V885H878V0Z" fill="white"/>
</mask>
<g mask="url(#mask0_140_139)">
<path d="M878 0H-3.68945V313.438H878V0Z" fill="#E61EAA"/>
<path d="M878 313.438H-3.68945V885H878V313.438Z" fill="#640B49"/>
<path d="M412.586 177.369C411.848 176.336 411.627 175.009 411.922 173.386C412.217 171.764 412.512 170.436 412.807 169.404C412.807 169.109 412.881 168.888 413.029 168.74C413.176 168.445 413.102 168.224 412.807 168.076C412.66 167.929 412.291 167.855 411.7 167.855C411.11 167.56 410.741 167.265 410.594 166.97C410.151 166.233 409.93 165.348 409.93 164.315C410.077 163.135 410.151 162.176 410.151 161.439C410.151 160.701 410.077 160.111 409.93 159.669C409.782 159.079 409.635 158.489 409.487 157.899C409.339 157.309 409.266 156.793 409.266 156.35C409.266 155.76 409.192 155.096 409.044 154.359C409.044 153.916 408.971 153.474 408.823 153.031C408.675 152.589 408.528 152.146 408.38 151.704C408.233 151.114 408.159 150.598 408.159 150.155C408.307 149.565 408.38 148.975 408.38 148.385C408.528 147.058 408.528 145.804 408.38 144.624C408.38 143.444 408.528 142.19 408.823 140.863C409.118 139.535 409.266 138.281 409.266 137.101C409.413 135.774 409.561 134.446 409.708 133.119C409.708 132.381 409.708 131.718 409.708 131.128C409.708 130.538 409.782 129.874 409.93 129.136C409.93 128.399 410.299 127.809 411.036 127.366C411.627 127.219 412.217 127.145 412.807 127.145C413.397 127.145 413.914 127.145 414.357 127.145C415.094 126.998 415.758 126.924 416.349 126.924C417.087 126.924 417.824 126.85 418.562 126.703C421.071 126.408 423.506 126.186 425.867 126.039C428.375 125.891 430.884 125.596 433.392 125.154C435.901 124.711 438.409 124.343 440.918 124.048C443.574 123.753 446.156 123.458 448.665 123.163C449.846 123.015 451.1 122.868 452.428 122.72C453.756 122.573 455.01 122.425 456.191 122.278C457.371 122.13 458.552 122.056 459.732 122.056C461.06 122.056 462.241 121.835 463.274 121.393C464.307 120.95 465.34 120.508 466.373 120.065C467.406 119.623 468.438 119.106 469.471 118.516C471.537 117.189 473.087 115.566 474.12 113.649C474.857 112.616 475.448 111.658 475.89 110.773C476.333 109.74 476.776 108.634 477.218 107.454C477.809 106.421 477.883 105.61 477.44 105.02C477.145 104.578 476.702 104.135 476.112 103.693C475.669 103.25 475.226 102.881 474.784 102.586C473.898 101.849 472.939 101.259 471.906 100.816C470.873 100.226 469.767 99.7102 468.586 99.2677C467.406 98.8252 466.225 98.4565 465.045 98.1615C463.864 97.719 462.684 97.3502 461.503 97.0552C460.323 96.7602 459.142 96.539 457.962 96.3915C456.781 96.244 455.601 96.244 454.42 96.3915C453.239 96.539 452.059 96.539 450.878 96.3915C449.698 96.0965 448.517 95.949 447.337 95.949H439.59C438.262 96.0965 436.934 96.244 435.606 96.3915C434.278 96.539 433.023 96.6865 431.843 96.834C429.334 97.129 426.752 97.5715 424.096 98.1615C421.587 98.604 419.079 98.9727 416.57 99.2677C415.39 99.5627 414.135 99.784 412.807 99.9315C411.479 100.079 410.151 100.3 408.823 100.595C408.085 100.743 407.052 100.964 405.724 101.259C404.544 101.406 403.585 101.259 402.847 100.816C401.961 100.374 401.592 99.6365 401.74 98.604C401.888 97.424 401.888 96.4652 401.74 95.7277C401.592 95.1377 401.371 94.6952 401.076 94.4002C400.928 93.9577 400.781 93.5152 400.633 93.0727C400.338 91.5977 400.191 90.4915 400.191 89.754C399.6 86.9515 399.527 84.5177 399.969 82.4527C399.969 81.8627 400.043 81.3465 400.191 80.904C400.338 80.314 400.486 79.724 400.633 79.134C400.781 78.9865 400.855 78.839 400.855 78.6915C400.707 78.544 400.633 78.3965 400.633 78.249C400.633 77.954 400.633 77.7327 400.633 77.5852C400.781 77.4377 400.855 77.2165 400.855 76.9215C401.002 76.3315 401.002 75.8152 400.855 75.3727C400.707 74.9302 400.633 74.4877 400.633 74.0452C400.928 73.4552 401.297 73.234 401.74 73.3815C402.183 73.3815 402.625 73.3815 403.068 73.3815H410.594C411.774 73.234 412.955 73.234 414.135 73.3815C415.316 73.3815 416.496 73.3815 417.677 73.3815C418.267 73.234 418.784 73.234 419.226 73.3815C419.816 73.3815 420.48 73.3077 421.218 73.1602C421.809 73.1602 422.325 73.0865 422.768 72.939C423.358 72.7915 423.948 72.644 424.538 72.4965C425.867 72.349 427.195 72.349 428.523 72.4965C429.851 72.644 431.179 72.7177 432.507 72.7177C433.687 72.5702 434.942 72.4965 436.27 72.4965C437.598 72.349 438.926 72.2752 440.254 72.2752C442.763 72.2752 445.271 72.2015 447.78 72.054C450.436 71.9065 453.018 71.9065 455.527 72.054C456.707 72.054 457.888 72.2015 459.068 72.4965C460.249 72.644 461.429 72.7177 462.61 72.7177C464.085 72.7177 465.192 72.7915 465.93 72.939C466.668 73.0865 467.258 73.234 467.701 73.3815C468.291 73.529 468.955 73.6765 469.693 73.824C472.201 74.2665 474.71 74.5615 477.218 74.709C479.875 74.8565 482.457 75.1515 484.966 75.594C486.146 75.889 487.253 76.2577 488.286 76.7002C489.466 76.9952 490.647 77.364 491.827 77.8065C494.188 78.544 496.328 79.2815 498.246 80.019C498.689 80.314 499.132 80.5352 499.574 80.6827C500.017 80.8302 500.386 81.0515 500.681 81.3465C501.124 81.6415 501.493 82.0102 501.788 82.4527C502.23 82.7477 502.673 83.0427 503.116 83.3377C503.706 83.6327 504.223 83.9277 504.665 84.2227C505.108 84.3702 505.477 84.6652 505.772 85.1077C506.952 86.2877 507.69 87.2465 507.985 87.984C508.428 89.0165 508.723 90.1227 508.871 91.3027C509.166 92.3352 509.387 93.3677 509.535 94.4002C509.682 95.1377 509.83 95.8015 509.978 96.3915C510.125 96.9815 510.273 97.5715 510.42 98.1615C510.715 98.7515 510.937 99.2677 511.084 99.7102C511.379 100.153 511.601 100.669 511.748 101.259V104.356C511.601 105.684 511.601 106.938 511.748 108.118C511.748 108.855 511.674 109.519 511.527 110.109C511.527 110.551 511.453 111.068 511.306 111.658C511.158 112.395 511.01 113.133 510.863 113.87C510.863 114.608 510.789 115.345 510.642 116.083C510.346 117.263 510.051 118.443 509.756 119.623C509.461 120.803 509.166 121.983 508.871 123.163C508.723 123.753 508.576 124.343 508.428 124.933C508.428 125.523 508.28 126.113 507.985 126.703C507.69 127.293 507.321 127.883 506.879 128.473C506.436 128.915 506.067 129.431 505.772 130.021C504.444 132.086 503.116 134.078 501.788 135.995C500.607 137.765 498.984 139.314 496.918 140.641C495.885 141.379 494.926 142.116 494.041 142.854C493.155 143.444 492.122 144.034 490.942 144.624C489.761 144.919 488.95 145.288 488.507 145.73C487.917 146.025 487.474 146.246 487.179 146.394C486.884 146.541 486.441 146.763 485.851 147.058C483.342 147.795 480.834 148.385 478.325 148.828C475.964 149.27 473.529 149.713 471.021 150.155C468.512 150.598 465.93 150.893 463.274 151.04C460.765 151.188 458.257 151.04 455.748 150.598C453.239 150.303 450.731 149.934 448.222 149.491C445.714 148.901 443.205 148.311 440.697 147.721C438.188 147.131 435.679 146.541 433.171 145.951C430.81 145.361 428.375 144.624 425.867 143.739C423.358 142.559 421.071 141.748 419.005 141.305C417.529 141.01 416.349 140.863 415.463 140.863C415.168 140.863 414.652 140.863 413.914 140.863C413.324 140.715 412.881 140.789 412.586 141.084C412.291 141.379 412.217 141.821 412.365 142.411C412.512 143.001 412.66 143.444 412.807 143.739C412.955 144.329 413.029 144.919 413.029 145.509C413.176 146.099 413.324 146.689 413.471 147.279C413.766 147.869 413.988 148.459 414.135 149.049C414.283 149.491 414.43 150.081 414.578 150.819C414.726 151.409 414.799 151.999 414.799 152.589C414.799 153.031 414.947 153.548 415.242 154.138C415.537 155.318 415.832 156.571 416.127 157.899C416.423 159.079 416.57 160.333 416.57 161.66C416.57 162.988 416.496 164.02 416.349 164.758C416.349 165.938 416.718 166.528 417.455 166.528C418.636 166.675 419.89 166.749 421.218 166.749C422.546 166.601 423.801 166.454 424.981 166.306C426.162 166.306 427.268 166.306 428.301 166.306C429.482 166.306 430.662 166.233 431.843 166.085C432.433 166.085 432.95 166.159 433.392 166.306C433.983 166.306 434.573 166.306 435.163 166.306C435.901 166.306 436.491 166.233 436.934 166.085C437.376 165.938 437.967 165.938 438.705 166.085C441.066 166.528 443.574 166.749 446.23 166.749C446.82 166.896 447.337 166.896 447.78 166.749C448.222 166.601 448.739 166.454 449.329 166.306C450.067 166.306 450.657 166.38 451.1 166.528C451.69 166.675 452.354 166.823 453.092 166.97C454.272 167.118 455.453 167.191 456.633 167.191C457.962 167.191 459.216 167.339 460.396 167.634C462.757 167.781 465.118 168.371 467.479 169.404C468.07 169.699 468.586 169.994 469.029 170.289C469.471 170.436 469.988 170.584 470.578 170.731C471.021 170.879 471.39 171.026 471.685 171.174C471.98 171.174 472.201 171.469 472.349 172.059C472.939 171.764 473.382 171.69 473.677 171.838C473.825 171.985 473.898 172.133 473.898 172.28C474.046 172.428 474.193 172.575 474.341 172.723C474.636 172.87 474.857 172.944 475.005 172.944C475.153 172.944 475.374 173.018 475.669 173.165C475.964 173.313 476.112 173.46 476.112 173.608C476.259 173.608 476.481 173.681 476.776 173.829C477.071 174.124 477.366 174.419 477.661 174.714C477.956 175.009 478.251 175.304 478.547 175.599C478.842 175.746 479.063 175.894 479.211 176.041C479.358 176.189 479.58 176.336 479.875 176.484C480.465 176.779 480.612 177.148 480.317 177.59C480.612 177.885 480.908 178.033 481.203 178.033C481.498 177.885 481.793 177.959 482.088 178.254C482.383 178.549 482.678 178.918 482.973 179.36C483.416 179.803 483.785 180.171 484.08 180.466C484.818 181.204 485.408 182.015 485.851 182.9C486.294 183.638 486.81 184.449 487.4 185.334C488.286 186.956 489.319 188.505 490.499 189.98C491.68 191.308 492.639 192.783 493.377 194.405C493.672 195.143 493.819 195.733 493.819 196.175C493.819 196.618 494.041 197.134 494.483 197.724C494.926 197.871 495.147 198.019 495.147 198.166L495.811 199.494C496.107 199.789 496.328 200.158 496.475 200.6C496.771 200.895 497.066 201.19 497.361 201.485C497.804 202.37 498.025 203.329 498.025 204.361C498.172 205.246 498.394 206.131 498.689 207.016C498.836 207.311 498.984 207.68 499.132 208.123C499.279 208.418 499.353 208.786 499.353 209.229C499.353 209.819 499.279 210.335 499.132 210.778C499.132 211.22 499.132 211.81 499.132 212.548C499.279 213.138 499.279 213.875 499.132 214.76C499.132 215.645 499.279 216.383 499.574 216.973C499.869 217.268 500.017 217.341 500.017 217.194C500.017 217.046 500.091 217.194 500.238 217.636V219.185C500.238 220.513 500.091 221.471 499.796 222.061C499.205 224.126 498.615 226.191 498.025 228.256C497.435 230.174 496.844 232.165 496.254 234.23C496.107 234.673 496.033 235.189 496.033 235.779C496.033 236.221 495.959 236.664 495.811 237.106C495.664 237.549 495.516 237.918 495.369 238.213C495.221 238.508 495.147 238.876 495.147 239.319C495 240.499 494.705 241.458 494.262 242.195C493.819 242.933 493.303 243.818 492.713 244.85C492.122 245.588 491.532 246.399 490.942 247.284C490.352 248.169 489.761 248.98 489.171 249.718C488.433 250.455 487.769 251.193 487.179 251.93C486.589 252.815 485.851 253.479 484.966 253.921C484.08 254.364 483.121 254.659 482.088 254.806C481.055 255.101 480.096 255.396 479.211 255.691C478.03 255.986 476.776 256.281 475.448 256.576C474.267 256.871 473.087 257.166 471.906 257.461C467.479 258.641 463.052 259.305 458.626 259.453C454.051 259.748 449.403 259.969 444.681 260.116C440.106 260.264 435.532 260.116 430.957 259.674C428.596 259.379 426.309 259.01 424.096 258.568C421.882 258.125 419.595 257.756 417.234 257.461C415.021 257.166 412.807 256.798 410.594 256.355C408.528 256.06 406.388 255.765 404.175 255.47C403.437 255.323 402.552 255.249 401.519 255.249C400.633 255.249 399.969 254.954 399.527 254.364C398.936 253.626 398.715 252.741 398.863 251.709C399.158 250.676 399.158 249.718 398.863 248.833C398.567 247.8 398.494 246.841 398.641 245.956C398.789 244.924 398.863 243.891 398.863 242.859C398.863 241.826 398.789 240.794 398.641 239.761C398.641 238.729 398.715 237.77 398.863 236.885C399.01 236.148 399.084 235.336 399.084 234.451C398.936 234.009 398.936 233.566 399.084 233.124C399.231 232.681 399.305 232.239 399.305 231.796C399.453 229.584 399.453 227.371 399.305 225.159C399.305 223.684 399.527 222.135 399.969 220.513C400.264 219.48 400.264 218.521 399.969 217.636C399.822 216.751 399.895 215.793 400.191 214.76C400.486 213.728 400.707 212.843 400.855 212.105C401.15 211.22 401.297 210.261 401.297 209.229C401.297 208.934 401.297 208.565 401.297 208.123C401.297 207.533 401.445 207.09 401.74 206.795C402.035 206.5 402.33 206.426 402.625 206.574C403.068 206.721 403.363 206.943 403.511 207.238C403.806 207.533 403.88 207.975 403.732 208.565C403.585 209.155 403.511 209.671 403.511 210.114C403.363 210.704 403.289 211.294 403.289 211.884C403.289 212.326 403.216 212.843 403.068 213.433C402.921 214.613 402.773 215.719 402.625 216.751C402.625 217.784 402.625 218.89 402.625 220.07C402.625 221.103 402.552 222.135 402.404 223.168C402.404 224.053 402.404 225.011 402.404 226.044C402.256 227.224 402.183 228.404 402.183 229.584C402.183 230.764 402.109 231.944 401.961 233.124C401.814 235.336 401.666 237.623 401.519 239.983C401.519 242.195 401.592 244.408 401.74 246.62C401.74 247.21 401.74 247.726 401.74 248.169C401.888 248.759 401.961 249.423 401.961 250.16C401.961 250.455 401.961 250.898 401.961 251.488C401.961 252.225 402.109 252.741 402.404 253.036C402.699 253.331 403.363 253.479 404.396 253.479C405.134 253.626 405.724 253.7 406.167 253.7C406.757 253.7 407.421 253.774 408.159 253.921C409.192 254.216 410.151 254.438 411.036 254.585C412.069 254.88 413.102 255.175 414.135 255.47C415.316 255.765 416.423 255.913 417.455 255.913C418.488 255.913 419.595 256.06 420.776 256.355C423.137 256.798 425.424 257.166 427.637 257.461C429.851 257.904 432.138 258.273 434.499 258.568C436.565 258.863 438.705 258.863 440.918 258.568C442.098 258.42 443.279 258.346 444.46 258.346C445.788 258.494 447.116 258.568 448.444 258.568C449.477 258.568 450.51 258.494 451.543 258.346C452.575 258.346 453.682 258.346 454.863 258.346C456.043 258.346 457.15 258.346 458.183 258.346C459.216 258.346 460.323 258.273 461.503 258.125C462.536 257.978 463.495 257.683 464.38 257.24C465.413 256.798 466.373 256.576 467.258 256.576C467.701 256.576 468.07 256.65 468.365 256.798C468.807 256.945 469.176 257.019 469.471 257.019C470.504 256.871 471.537 256.503 472.57 255.913C473.013 255.765 473.382 255.618 473.677 255.47C474.12 255.47 474.562 255.47 475.005 255.47C475.3 255.47 475.595 255.396 475.89 255.249C475.89 255.249 476.112 255.028 476.554 254.585C476.85 254.438 477.218 254.438 477.661 254.585C478.251 254.733 478.694 254.806 478.989 254.806C479.432 254.659 479.875 254.511 480.317 254.364C480.908 254.364 481.424 254.216 481.867 253.921C482.752 253.479 483.49 252.889 484.08 252.151C484.67 251.414 485.334 250.676 486.072 249.939C486.81 249.054 487.474 248.169 488.064 247.284C488.802 246.546 489.54 245.735 490.278 244.85C490.868 243.818 491.458 242.49 492.049 240.868C492.344 240.425 492.491 239.983 492.491 239.54C492.491 239.098 492.565 238.655 492.713 238.213C492.86 237.623 493.008 237.106 493.155 236.664C493.45 236.221 493.746 235.705 494.041 235.115C494.188 234.673 494.262 234.304 494.262 234.009C494.262 233.566 494.336 233.198 494.483 232.903C494.483 232.313 494.557 231.796 494.705 231.354C494.852 230.911 495.074 230.395 495.369 229.805C495.664 228.773 495.885 227.814 496.033 226.929C496.328 225.896 496.623 224.79 496.918 223.61C497.361 221.545 497.508 219.406 497.361 217.194C497.361 214.981 497.213 212.843 496.918 210.778C496.771 209.893 496.623 208.86 496.475 207.68C496.328 206.5 496.107 205.468 495.811 204.583C495.516 204.14 495.221 203.771 494.926 203.476C494.779 203.034 494.557 202.591 494.262 202.149C493.672 200.674 493.229 199.641 492.934 199.051C490.868 194.774 488.581 190.718 486.072 186.883C485.63 186.145 485.113 185.334 484.523 184.449C484.08 183.564 483.49 182.753 482.752 182.015C482.014 181.13 481.203 180.319 480.317 179.581C479.432 178.844 478.62 178.033 477.882 177.148C477.145 176.558 476.407 175.968 475.669 175.378C475.079 174.64 474.341 174.124 473.456 173.829C472.57 173.534 471.685 173.165 470.8 172.723C469.914 172.133 469.029 171.69 468.143 171.395C466.077 170.51 463.938 169.92 461.724 169.625C459.511 169.183 457.371 168.814 455.305 168.519C453.239 168.224 451.1 168.076 448.886 168.076C446.673 168.076 444.459 167.929 442.246 167.634C441.066 167.634 439.959 167.634 438.926 167.634C437.893 167.486 436.86 167.413 435.827 167.413C434.647 167.56 433.466 167.634 432.286 167.634C431.105 167.634 429.925 167.634 428.744 167.634C426.531 167.781 424.317 167.855 422.104 167.855C420.038 167.708 417.898 167.781 415.685 168.076C415.98 168.814 416.054 169.478 415.906 170.068C415.906 170.658 415.832 171.321 415.685 172.059C415.39 172.796 415.242 173.534 415.242 174.271C415.242 174.861 415.168 175.525 415.021 176.263C415.021 177.59 415.021 178.991 415.021 180.466C415.021 181.941 414.652 183.269 413.914 184.449C414.652 184.449 415.758 184.301 417.234 184.006C417.972 183.859 418.636 183.785 419.226 183.785C419.964 183.785 420.702 183.785 421.44 183.785C422.915 183.785 424.391 183.785 425.867 183.785C427.342 183.638 428.818 183.711 430.293 184.006C431.769 184.154 433.171 184.449 434.499 184.891C435.827 185.186 437.229 185.555 438.705 185.998C440.033 186.293 441.361 186.588 442.689 186.883C444.017 187.03 445.345 187.325 446.673 187.768C452.133 189.095 457.371 191.381 462.388 194.626C463.569 195.364 464.676 196.101 465.709 196.839C466.742 197.576 467.774 198.461 468.807 199.494C469.693 200.526 470.283 201.633 470.578 202.813C470.873 203.845 471.168 205.025 471.464 206.353C472.054 208.86 472.349 211.663 472.349 214.76C472.349 216.235 472.349 217.636 472.349 218.964C472.349 220.144 472.054 221.398 471.464 222.725C470.726 224.79 469.471 226.413 467.701 227.593C466.668 228.33 465.561 228.994 464.38 229.584C463.2 230.174 462.019 230.838 460.839 231.575C460.396 231.87 460.027 232.239 459.732 232.681C459.437 233.124 458.994 233.493 458.404 233.788C457.814 234.083 457.297 234.451 456.855 234.894C456.412 235.189 455.896 235.484 455.305 235.779C453.092 236.959 450.362 237.696 447.116 237.991C446.378 238.139 445.714 238.213 445.124 238.213C444.533 238.213 443.869 238.213 443.131 238.213C442.394 238.36 441.656 238.508 440.918 238.655C440.18 238.803 439.442 238.876 438.705 238.876C437.819 238.876 436.639 238.581 435.163 237.991C434.425 237.696 433.614 237.549 432.728 237.549C431.99 237.401 431.253 237.254 430.515 237.106C429.777 236.959 429.113 236.885 428.523 236.885C427.932 236.738 427.268 236.516 426.531 236.221C425.793 235.926 425.129 235.631 424.538 235.336C424.096 235.041 423.579 234.746 422.989 234.451C421.809 233.714 420.554 233.271 419.226 233.124C417.898 232.829 416.57 232.534 415.242 232.239C414.504 232.091 413.766 232.018 413.029 232.018C412.438 231.87 411.774 231.723 411.036 231.575C410.299 231.28 409.561 231.206 408.823 231.354C408.233 231.354 407.569 231.28 406.831 231.133C406.241 230.838 405.724 230.69 405.282 230.69C404.986 230.543 404.765 230.543 404.617 230.69C404.47 230.69 404.249 230.616 403.953 230.469C403.511 230.321 403.289 229.953 403.289 229.363C403.289 229.068 403.732 228.92 404.617 228.92C405.946 228.773 407.274 228.92 408.602 229.363C409.93 229.658 411.332 229.805 412.807 229.805C413.693 229.805 414.873 230.1 416.349 230.69C417.087 230.985 417.751 231.206 418.341 231.354C419.079 231.501 419.816 231.649 420.554 231.796C421.735 231.944 422.842 232.239 423.874 232.681C425.055 233.124 426.162 233.64 427.195 234.23C427.785 234.525 428.301 234.746 428.744 234.894C429.334 235.041 429.998 235.189 430.736 235.336L432.728 236C433.318 236.295 433.761 236.443 434.056 236.443C434.351 236.59 434.573 236.59 434.72 236.443C435.015 236.295 435.311 236.295 435.606 236.443C435.901 236.443 436.122 236.516 436.27 236.664C436.565 236.664 436.86 236.664 437.155 236.664C437.893 236.811 438.557 236.811 439.147 236.664C439.885 236.516 440.623 236.443 441.361 236.443C442.689 236.295 444.017 236.221 445.345 236.221C446.821 236.074 448.296 235.853 449.772 235.558C452.575 235.115 455.01 234.009 457.076 232.239C459.29 230.321 461.651 228.773 464.159 227.593C465.192 227.003 466.077 226.486 466.815 226.044C467.553 225.454 468.217 224.643 468.807 223.61C469.398 222.43 469.693 221.176 469.693 219.849C469.84 218.374 469.914 216.973 469.914 215.645V211.884C469.767 211.146 469.545 210.483 469.25 209.893C469.103 209.155 468.955 208.418 468.807 207.68C468.66 207.09 468.586 206.574 468.586 206.131C468.734 205.541 468.807 204.951 468.807 204.361C468.66 203.624 468.07 202.739 467.037 201.706C466.446 201.264 465.709 200.453 464.823 199.273C464.528 198.683 464.159 198.388 463.716 198.388C463.421 198.24 462.905 198.019 462.167 197.724C461.577 197.429 461.06 197.06 460.618 196.618C460.175 196.175 459.658 195.806 459.068 195.511L455.748 193.52C453.239 192.34 450.657 191.16 448.001 189.98C446.673 189.538 445.345 189.169 444.017 188.874C442.689 188.579 441.361 188.284 440.033 187.989C438.557 187.694 437.155 187.399 435.827 187.104C434.499 186.661 433.097 186.293 431.622 185.998C430.884 185.85 430.22 185.776 429.629 185.776C429.187 185.629 428.596 185.555 427.859 185.555C427.268 185.703 426.678 185.776 426.088 185.776C425.498 185.629 424.834 185.629 424.096 185.776C423.358 185.776 422.694 185.85 422.104 185.998C421.513 185.998 420.849 185.998 420.112 185.998C419.374 186.145 418.636 186.219 417.898 186.219C417.308 186.071 416.644 186.071 415.906 186.219C415.021 186.514 414.135 186.735 413.25 186.883C412.365 186.883 411.774 186.293 411.479 185.113C411.479 184.375 411.479 183.711 411.479 183.121C411.627 182.531 411.774 181.868 411.922 181.13C411.922 180.393 411.922 179.729 411.922 179.139C412.069 178.549 412.291 177.959 412.586 177.369ZM412.143 139.093C413.176 139.24 414.135 139.314 415.021 139.314C415.906 139.166 416.865 139.093 417.898 139.093C418.931 139.093 419.89 139.24 420.776 139.535C421.809 139.83 422.842 140.125 423.874 140.42C424.612 140.715 425.35 141.084 426.088 141.526C426.826 141.969 427.564 142.264 428.301 142.411C429.334 142.559 430.22 142.78 430.957 143.075C431.843 143.37 432.728 143.665 433.614 143.96C435.679 144.698 437.745 145.288 439.811 145.73C441.877 146.173 444.017 146.615 446.23 147.058C448.296 147.353 450.288 147.721 452.207 148.164C454.125 148.606 456.117 148.828 458.183 148.828C460.249 148.828 462.315 148.828 464.38 148.828C466.446 148.68 468.512 148.533 470.578 148.385C471.611 148.385 472.57 148.311 473.456 148.164C474.341 147.869 475.3 147.574 476.333 147.279C477.218 146.984 478.104 146.836 478.989 146.836C480.022 146.689 480.981 146.468 481.867 146.173C482.605 145.878 483.269 145.583 483.859 145.288C484.597 144.993 485.334 144.698 486.072 144.403C486.958 143.96 487.843 143.591 488.728 143.296C489.614 142.854 490.499 142.338 491.385 141.748C492.713 141.01 494.114 139.904 495.59 138.429C496.328 137.839 496.992 137.323 497.582 136.88C498.172 136.29 498.836 135.626 499.574 134.889C500.165 134.151 500.681 133.414 501.124 132.676C501.566 131.791 502.083 130.98 502.673 130.243C503.116 129.358 503.632 128.473 504.222 127.588C504.813 126.555 505.255 125.596 505.551 124.711C505.846 123.826 505.993 122.941 505.993 122.056C506.141 121.171 506.362 120.286 506.657 119.401C506.952 118.221 507.248 117.336 507.543 116.746C507.69 116.304 507.764 115.935 507.764 115.64C507.764 115.198 507.838 114.755 507.985 114.313C507.985 113.28 508.133 112.321 508.428 111.436C508.723 110.404 508.871 109.371 508.871 108.339C509.166 106.126 509.092 103.988 508.649 101.923C508.502 100.89 508.354 99.9315 508.207 99.0465C508.059 98.014 507.838 96.9815 507.543 95.949C507.248 94.769 506.952 93.6627 506.657 92.6302C506.51 91.5977 506.215 90.5652 505.772 89.5327C505.034 87.7627 503.927 86.2877 502.452 85.1077C501.124 83.9277 499.648 82.969 498.025 82.2315C494.041 80.1665 490.13 78.6915 486.294 77.8065C484.228 77.364 482.162 76.9952 480.096 76.7002C478.03 76.4052 475.964 76.1102 473.898 75.8152C472.865 75.5202 471.832 75.3727 470.8 75.3727C469.914 75.3727 468.881 75.3727 467.701 75.3727C466.668 75.2252 465.635 75.0777 464.602 74.9302C463.569 74.7827 462.536 74.6352 461.503 74.4877C456.781 74.0452 451.985 73.8977 447.116 74.0452C442.394 74.1927 437.672 74.414 432.95 74.709C430.441 74.709 427.932 74.709 425.424 74.709C423.063 74.709 420.628 74.8565 418.119 75.1515C416.939 75.1515 415.758 75.1515 414.578 75.1515C413.397 75.004 412.217 74.9302 411.036 74.9302C409.856 75.0777 408.675 75.1515 407.495 75.1515C406.314 75.1515 405.134 75.1515 403.953 75.1515C403.953 76.774 403.806 78.3965 403.511 80.019C403.216 81.494 403.142 83.0427 403.289 84.6652C403.437 86.2877 403.585 87.9102 403.732 89.5327C403.88 91.0077 404.101 92.5565 404.396 94.179C404.544 94.769 404.617 95.654 404.617 96.834C404.617 97.129 404.617 97.424 404.617 97.719C404.617 98.014 404.691 98.2352 404.839 98.3827C405.134 98.8252 405.724 98.9727 406.61 98.8252C407.495 98.5302 408.159 98.3827 408.602 98.3827C410.225 98.0877 411.922 97.8665 413.693 97.719C415.463 97.5715 417.16 97.3502 418.784 97.0552C420.407 96.7602 422.03 96.3915 423.653 95.949C425.276 95.5065 426.9 95.2115 428.523 95.064C430.146 94.9165 431.769 94.769 433.392 94.6215C435.015 94.474 436.639 94.3265 438.262 94.179H443.353C444.091 94.179 444.902 94.1052 445.788 93.9577C446.673 93.8102 447.558 93.8102 448.444 93.9577C450.067 94.2527 451.69 94.4002 453.313 94.4002C454.936 94.4002 456.56 94.5477 458.183 94.8427C461.282 95.1377 464.381 95.8015 467.479 96.834C468.955 97.424 470.357 97.9402 471.685 98.3827C473.013 98.8252 474.341 99.4152 475.669 100.153C476.702 100.89 477.735 101.701 478.768 102.586C479.063 102.881 479.432 103.324 479.875 103.914C480.465 104.356 480.834 104.873 480.981 105.463C481.129 105.758 481.129 106.053 480.981 106.348C480.834 106.495 480.686 106.716 480.539 107.011C480.391 107.306 480.317 107.601 480.317 107.896C480.317 108.044 480.244 108.265 480.096 108.56C479.801 109.74 479.137 111.068 478.104 112.543C477.366 113.87 476.628 115.124 475.89 116.304C475.153 117.336 474.046 118.221 472.57 118.959C471.98 119.254 471.464 119.623 471.021 120.065C470.726 120.36 470.209 120.655 469.471 120.95C468.586 121.245 467.701 121.614 466.815 122.056C466.077 122.351 465.266 122.646 464.38 122.941L462.388 123.605C462.093 123.753 461.724 123.826 461.282 123.826C460.987 123.679 460.691 123.605 460.396 123.605C459.511 123.458 458.626 123.531 457.74 123.826C457.002 123.974 456.191 124.121 455.305 124.269C453.682 124.416 452.059 124.638 450.436 124.933C448.96 125.08 447.411 125.228 445.788 125.375C443.722 125.67 441.73 125.891 439.811 126.039C438.041 126.186 436.196 126.334 434.278 126.481C433.245 126.629 432.286 126.776 431.4 126.924C430.515 126.924 429.556 127.071 428.523 127.366C426.752 127.809 425.129 128.03 423.653 128.03C421.735 128.03 419.89 128.251 418.119 128.694C417.677 128.694 417.234 128.768 416.791 128.915C416.349 128.915 415.906 128.915 415.463 128.915C415.168 128.915 414.799 128.915 414.357 128.915C414.062 128.768 413.766 128.841 413.471 129.136C413.029 129.579 412.733 130.39 412.586 131.57C412.586 132.603 412.586 133.414 412.586 134.004C412.438 134.889 412.291 135.774 412.143 136.659C412.143 137.544 412.143 138.355 412.143 139.093ZM413.029 165.643C413.029 165.495 413.029 164.905 413.029 163.873C413.176 162.693 413.176 161.586 413.029 160.554C413.029 159.374 412.955 158.341 412.807 157.456C412.66 156.571 412.512 156.129 412.365 156.129C412.365 156.129 412.365 156.571 412.365 157.456C412.365 158.341 412.438 159.374 412.586 160.554C412.733 161.734 412.807 162.84 412.807 163.873C412.955 164.905 413.029 165.495 413.029 165.643Z" fill="white"/>
<path d="M430.441 625.621C430.441 624.441 430.243 623.064 429.851 621.491C429.653 618.739 429.458 615.984 429.26 613.231C429.063 610.479 428.867 607.724 428.67 604.971C428.277 601.629 427.982 598.481 427.785 595.531C427.785 592.384 427.687 589.239 427.49 586.091C427.292 584.519 427.097 582.846 426.899 581.076C426.899 579.306 426.702 577.634 426.309 576.061C426.112 574.489 425.916 572.914 425.719 571.341C425.521 569.769 425.226 568.194 424.833 566.621C424.636 565.639 424.441 564.556 424.243 563.376C424.243 562.196 424.046 561.114 423.653 560.131C423.26 557.969 422.865 555.904 422.472 553.936C422.275 551.774 421.98 549.609 421.587 547.446C421.39 547.054 421.292 546.759 421.292 546.561C421.489 546.364 421.587 546.069 421.587 545.676C421.587 545.086 421.489 544.496 421.292 543.906C421.292 543.316 421.292 542.629 421.292 541.841C421.292 541.644 421.194 541.546 420.997 541.546C420.997 541.349 420.997 541.154 420.997 540.956C420.997 539.384 420.899 538.006 420.702 536.826C420.702 535.449 420.702 533.974 420.702 532.401V519.421V515.291C420.702 513.719 420.604 512.244 420.407 510.866C420.407 509.294 420.309 507.719 420.111 506.146C420.111 503.984 419.423 501.624 418.046 499.066C417.653 501.034 417.258 502.901 416.865 504.671C416.472 506.244 416.373 507.916 416.57 509.686V510.276C416.177 511.456 415.782 512.636 415.389 513.816C415.192 514.996 414.897 516.274 414.504 517.651C414.307 518.634 414.111 519.519 413.914 520.306C413.716 521.094 413.521 521.979 413.324 522.961C413.126 524.339 412.931 525.714 412.733 527.091C412.536 528.469 412.241 529.844 411.848 531.221C411.848 532.204 411.848 533.189 411.848 534.171C411.848 535.154 411.75 536.139 411.553 537.121C411.16 538.499 410.865 539.874 410.667 541.251C410.667 542.431 410.47 543.709 410.077 545.086C409.684 546.659 409.389 548.331 409.192 550.101C409.192 551.871 408.994 553.544 408.602 555.116L407.716 558.656C407.323 560.819 406.831 562.884 406.241 564.851C405.848 566.819 405.453 568.784 405.06 570.751C404.863 572.324 404.667 573.799 404.47 575.176C404.47 576.356 404.372 577.734 404.175 579.306L403.289 584.616C402.896 586.189 402.699 587.664 402.699 589.041C402.699 590.419 402.502 591.794 402.109 593.171C401.911 594.154 401.616 595.039 401.223 595.826C401.026 596.614 400.83 597.499 400.633 598.481C400.043 600.449 399.453 602.316 398.862 604.086C398.469 605.856 398.075 607.626 397.682 609.396C397.092 611.559 396.009 614.019 394.435 616.771C393.845 617.754 393.55 618.444 393.55 618.836C393.55 619.034 393.845 619.624 394.435 620.606C393.845 620.999 392.862 621.099 391.484 620.901C390.304 620.509 389.713 620.016 389.713 619.426C389.516 619.034 389.616 618.344 390.009 617.361C390.401 616.574 390.599 615.984 390.599 615.591C391.189 614.214 391.682 612.936 392.074 611.756C392.665 610.379 393.157 609.004 393.55 607.626C393.943 606.446 394.338 605.266 394.731 604.086C395.321 602.709 395.813 601.334 396.206 599.956C396.599 598.579 396.894 597.204 397.092 595.826C397.289 594.449 397.584 592.974 397.977 591.401C398.174 590.811 398.272 590.221 398.272 589.631C398.272 588.844 398.37 588.156 398.567 587.566V586.681C398.96 585.699 399.255 584.814 399.453 584.026C399.65 583.044 399.945 582.059 400.338 581.076C400.338 580.289 400.535 579.306 400.928 578.126C400.928 577.536 400.83 576.946 400.633 576.356C400.633 575.766 400.731 575.274 400.928 574.881C401.321 573.111 401.518 571.341 401.518 569.571C401.518 567.801 401.616 566.031 401.814 564.261C401.814 563.474 402.011 562.689 402.404 561.901C402.797 561.114 403.092 560.329 403.289 559.541C403.682 558.361 403.88 557.476 403.88 556.886C404.077 555.904 404.272 555.019 404.47 554.231C404.667 553.444 404.863 552.559 405.06 551.576C405.257 550.594 405.355 549.609 405.355 548.626C405.355 547.644 405.453 546.659 405.65 545.676L406.536 541.251C406.733 540.859 406.831 540.071 406.831 538.891C407.028 538.301 407.028 537.711 406.831 537.121C406.633 536.334 406.929 535.744 407.716 535.351C407.716 535.351 407.716 534.959 407.716 534.171C407.323 532.599 407.224 531.124 407.421 529.746C407.814 528.369 408.306 526.994 408.897 525.616C409.094 525.026 409.192 524.534 409.192 524.141C409.389 523.551 409.585 522.961 409.782 522.371C409.979 520.799 410.175 519.224 410.372 517.651C410.57 516.079 410.765 514.504 410.963 512.931L411.848 508.506C412.241 507.129 412.536 505.851 412.733 504.671C413.126 503.294 413.521 502.016 413.914 500.836L414.799 497.296L415.685 491.986C415.882 490.806 416.668 490.216 418.046 490.216C420.209 490.609 421.587 491.789 422.177 493.756C422.57 495.724 422.965 497.591 423.358 499.361C423.948 501.131 424.341 502.999 424.538 504.966C424.931 507.719 425.326 510.571 425.719 513.521C426.112 516.274 426.112 519.126 425.719 522.076C425.521 523.256 425.521 524.436 425.719 525.616C425.916 526.796 426.014 527.976 426.014 529.156V536.236C426.211 538.399 426.309 540.464 426.309 542.431C426.506 544.201 426.702 546.169 426.899 548.331C427.097 550.101 427.292 551.871 427.49 553.641C427.687 555.411 427.982 557.181 428.375 558.951C428.572 560.524 428.768 561.999 428.965 563.376C429.358 564.556 429.753 565.934 430.146 567.506C430.539 570.064 430.834 572.521 431.031 574.881C431.228 577.241 431.524 579.699 431.916 582.256C432.114 583.436 432.212 584.616 432.212 585.796C432.409 586.976 432.704 588.059 433.097 589.041V590.811V599.071C433.097 600.054 433.097 601.136 433.097 602.316C433.294 603.496 433.392 604.579 433.392 605.561C433.392 607.134 433.589 608.709 433.982 610.281C434.375 611.854 434.375 613.429 433.982 615.001C433.785 615.984 433.785 617.066 433.982 618.246C434.375 619.426 434.67 620.509 434.868 621.491C435.065 622.081 435.163 622.869 435.163 623.851C435.163 626.014 436.246 627.096 438.409 627.096C439.197 626.899 440.377 626.801 441.951 626.801C443.524 626.999 445.197 627.096 446.968 627.096C448.739 627.096 450.412 627.194 451.985 627.391C452.773 627.391 453.461 627.489 454.051 627.686C454.839 627.686 455.624 627.686 456.412 627.686H458.478C458.478 626.506 458.478 625.424 458.478 624.441C458.675 623.261 458.773 622.179 458.773 621.196C459.166 619.624 459.363 618.149 459.363 616.771C459.561 615.394 459.756 613.919 459.953 612.346V610.871C460.151 610.281 460.249 609.789 460.249 609.396C460.249 608.806 460.346 608.216 460.544 607.626C460.741 607.234 460.839 607.036 460.839 607.036C460.641 605.266 460.741 603.496 461.134 601.726C461.724 599.956 462.117 598.284 462.314 596.711C462.707 594.549 463.102 592.384 463.495 590.221C464.085 588.059 464.578 585.894 464.971 583.731C465.168 582.551 465.363 581.469 465.561 580.486C465.954 579.306 466.249 578.126 466.446 576.946C466.839 575.374 467.036 573.799 467.036 572.226C467.234 570.654 467.529 569.079 467.922 567.506C468.119 565.736 468.315 563.966 468.512 562.196C468.709 560.426 469.005 558.559 469.397 556.591C469.79 554.624 469.988 552.756 469.988 550.986C470.185 549.019 470.48 547.054 470.873 545.086C471.266 542.924 471.561 540.759 471.758 538.596C472.151 536.434 472.546 534.269 472.939 532.106C473.332 530.139 473.627 528.271 473.824 526.501C474.217 524.534 474.612 522.569 475.005 520.601C475.398 519.029 475.693 517.454 475.89 515.881C476.088 514.309 476.481 512.734 477.071 511.161C477.661 508.999 478.154 506.834 478.546 504.671C478.939 502.509 479.825 500.444 481.203 498.476C481.4 498.279 481.498 498.084 481.498 497.886C481.695 497.689 481.891 497.494 482.088 497.296C482.481 495.919 483.268 495.231 484.449 495.231C486.22 495.231 487.498 495.821 488.286 497.001C489.269 498.969 490.254 501.426 491.237 504.376C491.63 505.359 491.925 506.344 492.122 507.326C492.515 508.309 492.615 509.294 492.417 510.276C492.22 511.456 492.32 512.539 492.712 513.521C493.303 514.504 493.696 515.586 493.893 516.766C493.893 518.929 493.991 521.094 494.188 523.256C494.385 525.419 494.681 527.584 495.073 529.746C495.073 530.729 495.073 531.811 495.073 532.991C495.271 534.171 495.466 535.254 495.664 536.236L496.549 549.511C496.746 552.069 496.844 554.624 496.844 557.181C497.042 559.541 497.337 561.999 497.73 564.556C498.122 567.309 498.517 569.769 498.91 571.931C498.91 572.129 498.812 572.324 498.615 572.521C498.615 572.521 498.615 572.719 498.615 573.111C498.418 574.684 498.32 576.259 498.32 577.831C498.32 579.404 498.222 580.979 498.025 582.551C498.025 583.731 497.927 584.911 497.73 586.091C497.73 587.074 497.632 588.059 497.434 589.041C497.434 590.024 497.434 590.516 497.434 590.516C497.434 592.089 497.434 593.664 497.434 595.236C497.632 596.809 497.827 598.384 498.025 599.956C498.222 601.529 498.222 603.299 498.025 605.266C497.632 606.249 497.434 607.331 497.434 608.511C497.632 609.494 497.632 610.479 497.434 611.461C496.844 612.051 496.352 612.444 495.959 612.641C495.566 613.034 495.073 613.231 494.483 613.231C493.893 613.034 493.598 612.544 493.598 611.756V604.676C493.4 603.299 493.303 601.924 493.303 600.546C493.303 599.169 493.303 597.794 493.303 596.416C493.303 594.056 493.303 591.794 493.303 589.631C493.5 587.271 493.598 584.911 493.598 582.551C493.598 579.994 493.598 577.536 493.598 575.176C493.598 572.619 493.5 570.064 493.303 567.506C492.91 563.376 492.515 559.246 492.122 555.116C491.729 550.789 491.335 546.561 490.942 542.431C490.744 540.859 490.647 539.284 490.647 537.711C490.844 535.941 490.844 534.269 490.647 532.696C490.449 531.124 490.254 529.649 490.056 528.271C489.859 526.699 489.564 525.124 489.171 523.551C489.171 522.174 489.073 520.896 488.876 519.716C488.876 518.536 488.778 517.356 488.581 516.176C488.188 514.014 487.793 511.949 487.4 509.981C487.203 507.819 486.908 505.654 486.515 503.491C486.317 502.704 485.827 501.721 485.039 500.541H484.449C484.252 501.131 484.056 501.721 483.859 502.311C483.661 502.901 483.466 503.491 483.268 504.081C483.071 504.671 482.876 505.359 482.678 506.146C482.678 506.736 482.58 507.326 482.383 507.916C481.99 509.489 481.595 510.964 481.203 512.341C481.005 513.521 480.71 514.899 480.317 516.471C479.924 517.849 479.53 519.126 479.137 520.306C478.939 521.486 478.744 522.666 478.546 523.846C478.349 524.829 478.251 525.714 478.251 526.501C478.251 527.289 478.154 528.074 477.956 528.861C477.563 530.434 477.169 532.106 476.776 533.876C476.383 535.449 475.988 537.024 475.595 538.596C476.185 539.579 476.383 540.564 476.185 541.546C476.185 542.334 475.988 543.219 475.595 544.201C475.398 544.594 475.3 545.086 475.3 545.676C475.3 546.069 475.202 546.464 475.005 546.856C475.005 547.249 474.907 547.544 474.71 547.741C474.71 547.741 474.71 547.939 474.71 548.331C474.317 550.691 474.022 553.051 473.824 555.411C473.627 557.574 473.332 559.836 472.939 562.196C472.742 563.574 472.546 564.851 472.349 566.031C472.349 567.211 472.251 568.391 472.054 569.571V570.456C471.266 571.636 470.873 572.914 470.873 574.291C470.873 575.471 470.676 576.749 470.283 578.126C469.495 580.684 469.005 582.944 468.807 584.911C468.61 585.304 468.512 585.699 468.512 586.091C468.709 586.484 468.709 586.879 468.512 587.271C468.512 588.254 468.315 589.534 467.922 591.106C467.724 592.679 467.234 594.549 466.446 596.711C465.659 598.874 465.168 600.841 464.971 602.611C464.773 603.594 464.578 604.579 464.38 605.561C464.38 606.544 464.578 607.529 464.971 608.511C465.168 609.494 465.168 610.379 464.971 611.166C464.773 611.756 464.578 612.444 464.38 613.231C463.987 614.804 463.593 616.476 463.2 618.246C462.807 619.819 462.512 621.394 462.314 622.966C462.117 623.556 462.117 624.244 462.314 625.031C462.512 625.621 462.707 626.409 462.905 627.391C463.888 627.391 464.873 627.489 465.856 627.686C466.839 627.686 467.922 627.589 469.102 627.391C470.086 627.391 470.578 626.899 470.578 625.916C470.971 624.736 471.266 623.654 471.463 622.671C471.661 621.491 471.463 620.214 470.873 618.836C470.283 616.476 470.381 614.116 471.168 611.756C471.561 609.789 471.956 607.921 472.349 606.151C472.939 604.381 473.332 602.514 473.529 600.546C473.727 599.169 473.922 597.891 474.12 596.711C474.512 595.334 474.907 593.859 475.3 592.286C475.693 591.499 475.89 590.811 475.89 590.221C475.693 588.649 475.793 587.271 476.185 586.091C476.578 584.714 476.973 583.239 477.366 581.666C477.563 580.684 477.661 579.799 477.661 579.011C477.661 578.029 477.661 577.044 477.661 576.061C477.858 575.471 477.956 574.979 477.956 574.586C478.154 573.996 478.644 573.604 479.432 573.406C479.432 572.226 479.53 571.439 479.727 571.046C480.12 569.866 480.415 568.884 480.612 568.096C481.005 566.719 481.595 566.031 482.383 566.031C483.366 566.229 484.154 566.326 484.744 566.326C485.532 566.326 486.22 566.719 486.81 567.506C487.793 568.884 488.286 570.259 488.286 571.636C488.483 572.816 488.678 574.194 488.876 575.766C489.073 577.536 489.171 579.306 489.171 581.076C489.368 582.846 489.564 584.714 489.761 586.681C489.761 588.059 489.761 589.434 489.761 590.811C489.959 592.189 489.959 593.664 489.761 595.236C489.368 596.614 489.269 597.891 489.466 599.071C489.859 600.251 489.859 601.529 489.466 602.906V604.971C489.663 607.331 489.761 609.691 489.761 612.051C489.959 614.214 490.154 616.476 490.351 618.836C490.351 620.214 489.761 620.999 488.581 621.196C487.203 621.196 486.417 620.606 486.22 619.426C485.827 617.854 485.432 616.181 485.039 614.411C484.646 612.641 484.646 610.871 485.039 609.101C485.432 608.119 485.432 607.134 485.039 606.151C484.842 604.971 484.646 603.791 484.449 602.611V601.726C484.449 599.564 484.449 597.399 484.449 595.236C484.449 593.074 484.646 590.909 485.039 588.746C485.432 586.779 485.334 584.911 484.744 583.141C484.351 581.174 484.154 579.209 484.154 577.241C484.154 576.651 484.154 576.061 484.154 575.471C484.154 574.684 484.056 573.899 483.859 573.111H483.564C483.171 574.684 482.776 576.259 482.383 577.831C481.99 579.404 481.595 580.979 481.203 582.551C480.612 584.714 480.317 586.879 480.317 589.041C480.317 591.009 480.12 593.074 479.727 595.236C479.727 595.629 479.629 595.826 479.432 595.826C478.251 597.794 477.563 599.859 477.366 602.021C477.169 604.184 476.873 606.349 476.481 608.511C476.088 609.889 475.89 611.364 475.89 612.936C476.088 614.314 476.185 615.689 476.185 617.066C475.793 619.819 475.398 621.984 475.005 623.556C475.005 623.949 474.907 624.441 474.71 625.031C474.71 625.621 474.71 626.114 474.71 626.506C474.71 627.294 474.907 627.686 475.3 627.686C475.693 627.686 476.088 627.686 476.481 627.686C478.054 627.686 479.53 627.686 480.907 627.686C482.481 627.686 484.056 627.784 485.629 627.981C487.99 627.981 490.549 628.276 493.303 628.866C494.286 629.064 495.369 629.161 496.549 629.161C497.73 629.161 498.91 629.359 500.091 629.751C501.664 630.144 501.959 631.129 500.976 632.701L496.549 639.781C495.566 641.551 494.483 643.321 493.303 645.091C492.32 646.664 491.335 648.336 490.351 650.106C489.959 650.696 489.663 651.286 489.466 651.876C489.466 652.466 489.269 653.154 488.876 653.941H490.351C490.744 654.334 491.039 654.729 491.237 655.121C490.647 655.711 490.351 656.006 490.351 656.006C488.581 656.596 487.695 657.679 487.695 659.251C487.695 660.824 487.598 662.399 487.4 663.971C487.203 665.349 487.105 666.824 487.105 668.396C486.908 670.364 486.712 672.231 486.515 674.001C486.515 675.771 486.417 677.639 486.22 679.606C486.022 682.359 485.925 685.014 485.925 687.571C485.925 689.931 485.827 692.489 485.629 695.241C485.629 697.209 485.629 699.174 485.629 701.141C485.827 703.109 485.827 705.074 485.629 707.041C485.629 709.204 485.532 711.269 485.334 713.236C485.137 715.006 484.842 716.974 484.449 719.136C484.252 720.709 484.056 722.284 483.859 723.856C483.661 725.429 483.366 727.101 482.973 728.871C485.727 729.264 487.793 729.659 489.171 730.051C489.564 730.249 489.859 730.444 490.056 730.641C490.449 730.839 490.844 731.034 491.237 731.231C490.844 731.429 490.449 731.624 490.056 731.821C489.859 732.214 489.564 732.411 489.171 732.411C487.99 732.411 486.613 732.214 485.039 731.821C484.056 731.429 483.466 731.329 483.268 731.526C483.071 731.724 482.973 732.314 482.973 733.296C482.973 734.279 482.973 735.264 482.973 736.246C482.973 737.229 483.071 738.214 483.268 739.196C483.268 740.376 482.876 740.966 482.088 740.966C480.12 741.359 479.137 740.966 479.137 739.786V732.116C479.137 730.936 478.744 730.149 477.956 729.756C474.612 728.774 471.758 727.494 469.397 725.921C467.036 724.939 465.758 723.169 465.561 720.611C465.561 720.414 465.363 719.726 464.971 718.546C463.987 716.186 463.298 713.334 462.905 709.991C462.314 707.041 462.217 703.699 462.61 699.961C462.807 698.781 462.807 697.601 462.61 696.421C462.412 695.241 462.314 694.061 462.314 692.881V690.816C462.314 689.834 462.314 688.949 462.314 688.161C462.314 687.179 462.412 686.194 462.61 685.211C462.61 684.229 462.512 683.344 462.314 682.556C462.117 681.769 462.019 680.984 462.019 680.196C461.822 679.214 461.922 677.739 462.314 675.771C462.512 674.789 462.512 674.001 462.314 673.411C462.117 672.624 462.117 671.739 462.314 670.756C462.707 668.789 462.905 666.824 462.905 664.856C463.102 662.889 463.692 660.924 464.675 658.956C465.266 657.974 464.873 657.481 463.495 657.481H456.412C455.429 657.481 454.346 657.481 453.166 657.481C452.182 657.284 451.197 657.089 450.214 656.891C449.231 656.891 448.148 656.891 446.968 656.891C445.985 656.891 445 656.794 444.017 656.596C442.836 656.399 441.656 656.301 440.475 656.301C439.295 656.104 438.114 656.006 436.934 656.006C434.966 655.614 433.097 655.416 431.326 655.416C429.555 655.219 427.785 654.924 426.014 654.531C423.26 654.139 420.504 653.744 417.75 653.351C414.997 652.761 412.241 652.269 409.487 651.876C407.126 651.484 404.765 650.991 402.404 650.401C400.24 649.811 398.075 649.319 395.911 648.926C395.123 648.729 394.338 648.729 393.55 648.926C392.96 648.926 392.172 648.926 391.189 648.926C387.648 648.926 386.074 647.156 386.467 643.616C386.664 642.634 386.762 641.551 386.762 640.371C386.762 639.191 386.762 638.011 386.762 636.831L387.648 628.866V624.146C387.648 622.574 388.336 621.786 389.713 621.786C390.697 621.589 391.582 621.589 392.37 621.786C393.157 621.786 394.043 621.689 395.026 621.491C397.977 621.099 400.928 621.099 403.88 621.491C406.831 621.689 409.782 621.984 412.733 622.376C414.504 622.574 416.177 622.769 417.75 622.966C419.521 623.164 421.194 623.556 422.768 624.146C423.948 624.736 425.129 625.031 426.309 625.031C427.687 624.834 428.965 625.129 430.146 625.916C430.343 625.916 430.441 625.819 430.441 625.621ZM496.549 631.521C494.976 631.324 493.4 631.129 491.827 630.931C490.449 630.734 488.974 630.539 487.4 630.341C486.417 630.144 485.334 630.046 484.154 630.046C483.171 629.849 482.186 629.751 481.203 629.751C479.629 629.751 478.154 629.849 476.776 630.046C475.398 630.046 473.922 630.144 472.349 630.341H471.168C469.397 629.751 467.627 629.554 465.856 629.751C464.283 629.949 462.61 629.949 460.839 629.751C459.461 629.554 458.085 629.554 456.707 629.751C455.527 629.751 454.248 629.751 452.87 629.751C450.707 629.751 448.541 629.751 446.378 629.751C444.214 629.554 442.049 629.359 439.885 629.161C438.311 628.964 436.836 628.866 435.458 628.866C434.08 628.866 432.704 628.669 431.326 628.276C429.163 627.884 427.097 627.489 425.129 627.096C423.358 626.704 421.39 626.309 419.226 625.916C417.062 625.524 414.799 625.229 412.438 625.031C410.275 624.834 408.109 624.639 405.945 624.441C403.584 624.049 401.223 623.851 398.862 623.851C396.699 623.851 394.435 624.049 392.074 624.441C391.287 624.639 390.894 625.129 390.894 625.916C390.894 626.704 390.796 627.489 390.599 628.276C390.599 628.866 390.599 629.554 390.599 630.341C390.401 631.521 390.206 632.701 390.009 633.881C389.811 634.864 389.713 635.849 389.713 636.831C389.516 638.011 389.418 639.289 389.418 640.666C389.616 641.846 389.811 643.026 390.009 644.206C390.009 645.584 390.697 646.271 392.074 646.271C393.845 646.271 395.123 646.369 395.911 646.566C397.484 646.959 398.862 647.354 400.043 647.746C401.421 647.944 402.797 648.239 404.175 648.631C405.748 649.024 407.224 649.319 408.602 649.516C409.979 649.714 411.355 650.009 412.733 650.401C413.914 650.599 415.094 650.894 416.275 651.286C417.455 651.484 418.734 651.679 420.111 651.876C422.275 652.269 424.538 652.564 426.899 652.761C429.26 652.959 431.524 653.154 433.687 653.351C435.065 653.549 436.441 653.744 437.819 653.941C439.197 653.941 440.573 654.039 441.951 654.236C443.919 654.434 445.787 654.629 447.558 654.826C449.329 654.826 451.197 654.826 453.166 654.826C454.936 655.024 456.707 655.121 458.478 655.121C460.249 655.121 461.922 655.121 463.495 655.121C464.873 655.514 465.561 655.024 465.561 653.646L466.446 647.451C466.446 646.074 467.036 645.386 468.217 645.386C469.2 645.386 469.988 645.386 470.578 645.386C471.366 645.189 472.251 645.091 473.234 645.091C474.612 645.091 475.89 645.189 477.071 645.386C478.251 645.386 479.53 645.386 480.907 645.386H487.105C488.678 645.386 489.564 644.796 489.761 643.616C489.959 643.224 490.154 642.929 490.351 642.731C490.549 642.339 490.744 641.944 490.942 641.551C491.532 640.764 492.122 639.979 492.712 639.191C493.303 638.404 493.893 637.519 494.483 636.536C494.876 635.749 495.171 634.964 495.369 634.176C495.761 633.389 496.156 632.504 496.549 631.521ZM479.432 727.396C479.629 726.609 479.727 725.921 479.727 725.331C479.727 724.544 479.825 723.856 480.022 723.266C480.415 721.694 480.612 720.219 480.612 718.841C480.81 717.269 481.005 715.694 481.203 714.121C481.4 711.959 481.595 709.894 481.793 707.926C481.99 705.764 481.891 703.599 481.498 701.436V701.141C481.695 698.191 481.891 695.241 482.088 692.291C482.285 689.341 482.481 686.391 482.678 683.441C482.876 680.689 482.973 677.934 482.973 675.181C482.973 672.231 483.171 669.379 483.564 666.626C483.761 665.839 483.466 665.151 482.678 664.561C482.088 664.364 481.793 663.774 481.793 662.791C482.186 660.824 482.58 659.349 482.973 658.366C483.564 657.186 483.268 656.596 482.088 656.596H480.612C478.842 656.596 477.071 656.694 475.3 656.891C473.727 656.891 472.151 656.891 470.578 656.891C468.807 657.089 467.824 657.874 467.627 659.251C467.234 661.021 466.939 662.791 466.741 664.561C466.544 666.331 466.348 668.101 466.151 669.871C465.954 671.444 465.856 672.919 465.856 674.296C465.856 675.674 465.856 677.149 465.856 678.721C465.856 680.099 465.856 681.474 465.856 682.851C466.053 684.031 466.151 685.211 466.151 686.391C466.151 689.734 466.151 692.979 466.151 696.126C466.151 699.274 466.249 702.519 466.446 705.861C466.644 707.829 466.839 709.794 467.036 711.761C467.234 713.531 467.529 715.399 467.922 717.366C468.709 720.119 470.085 722.479 472.054 724.446C474.217 726.216 476.678 727.199 479.432 727.396ZM485.334 647.746C485.137 647.549 484.941 647.451 484.744 647.451H471.758C471.366 647.451 470.873 647.746 470.283 648.336C469.89 649.319 469.595 650.401 469.397 651.581C469.397 652.564 469.2 653.646 468.807 654.826H470.873C473.037 654.629 475.103 654.531 477.071 654.531C479.234 654.531 481.4 654.434 483.564 654.236C484.351 654.236 484.941 653.844 485.334 653.056V647.746ZM403.289 603.791C403.487 602.809 403.487 601.924 403.289 601.136C403.092 600.349 403.192 599.464 403.584 598.481C403.977 597.694 404.372 597.006 404.765 596.416C405.158 595.629 405.158 594.744 404.765 593.761C404.568 592.974 404.667 592.189 405.06 591.401C405.453 590.614 405.848 589.729 406.241 588.746C406.633 587.566 407.028 586.484 407.421 585.501C408.011 584.321 408.504 583.141 408.897 581.961C409.094 581.569 409.094 581.174 408.897 580.781C408.897 580.389 408.897 579.994 408.897 579.601C408.306 578.029 408.699 576.651 410.077 575.471C409.094 574.489 408.799 573.701 409.192 573.111C409.782 572.324 410.275 571.636 410.667 571.046C411.06 569.669 411.258 568.391 411.258 567.211C411.455 566.031 411.651 564.754 411.848 563.376C411.848 562.589 411.75 561.901 411.553 561.311C411.355 560.721 411.258 560.034 411.258 559.246C411.06 558.854 410.963 558.264 410.963 557.476C411.553 557.476 412.045 557.476 412.438 557.476C413.028 557.279 413.619 557.181 414.209 557.181C415.192 557.379 415.685 557.869 415.685 558.656C415.882 559.246 416.077 559.836 416.275 560.426C416.472 563.179 416.57 565.834 416.57 568.391C416.57 570.949 416.668 573.504 416.865 576.061C416.865 583.731 417.16 591.204 417.75 598.481C417.75 600.054 417.948 601.629 418.341 603.201C418.734 604.579 419.029 606.054 419.226 607.626C419.423 608.806 419.521 609.986 419.521 611.166C419.521 612.346 419.619 613.526 419.816 614.706C419.816 615.296 419.914 615.886 420.111 616.476C420.309 616.869 420.407 617.361 420.407 617.951C420.407 619.131 420.309 619.819 420.111 620.016C418.734 620.409 417.75 620.509 417.16 620.311C416.963 620.114 416.865 619.819 416.865 619.426C416.865 619.034 416.767 618.639 416.57 618.246C415.782 616.674 415.292 615.394 415.094 614.411C414.897 613.429 414.701 612.444 414.504 611.461C414.307 610.281 414.209 609.199 414.209 608.216C414.012 606.644 413.914 605.266 413.914 604.086C413.914 602.709 413.716 601.234 413.324 599.661C412.34 596.514 411.946 593.664 412.143 591.106C412.536 589.729 412.733 588.451 412.733 587.271C412.733 585.894 412.733 584.519 412.733 583.141C412.733 582.944 412.636 582.749 412.438 582.551C412.438 582.354 412.438 582.159 412.438 581.961C412.045 581.764 411.848 581.666 411.848 581.666C411.848 582.059 411.75 582.354 411.553 582.551L408.011 597.596C407.421 599.759 406.831 601.824 406.241 603.791C405.65 605.759 405.158 607.824 404.765 609.986C403.782 612.936 403.782 615.886 404.765 618.836C404.962 619.229 404.962 619.524 404.765 619.721C404.568 619.919 404.47 620.114 404.47 620.311C403.092 620.311 402.404 620.114 402.404 619.721C402.011 618.739 401.616 617.854 401.223 617.066C400.83 616.084 400.83 614.904 401.223 613.526C401.616 612.544 401.716 611.461 401.518 610.281C401.518 608.904 401.616 607.626 401.814 606.446C402.011 605.856 402.502 604.971 403.289 603.791Z" fill="white"/>
</g>
</g>
<defs>
<clipPath id="clip0_140_139">
<rect width="878" height="885" fill="white"/>
</clipPath>
</defs>
</svg>
