<svg width="613" height="254" viewBox="0 0 613 254" fill="none" xmlns="http://www.w3.org/2000/svg">
<path fill-rule="evenodd" clip-rule="evenodd" d="M73.493 143.892C74.6881 144.212 76.031 144.664 77.5218 145.246C78.2504 145.258 79.0416 145.379 79.8952 145.608C80.9653 145.711 81.95 145.792 82.8494 145.85C83.3616 145.987 83.8113 146.016 84.1985 145.937L84.9012 145.895C86.5388 146.473 88.1939 146.986 89.8663 147.434C91.5938 147.897 93.3715 148.556 95.1995 149.412C96.0678 150.01 97.0777 150.464 98.2294 150.773C99.3354 151.252 100.418 151.817 101.479 152.467C102.347 153.065 103.119 153.638 103.795 154.185C104.234 154.852 104.791 155.459 105.468 156.006C108.712 159.254 110.841 163.209 111.854 167.873L112.759 171.409C113.014 172.758 113.293 174.022 113.594 175.201C113.658 176.499 113.411 177.805 112.853 179.119L111.823 182.96C111.074 184.223 110.369 185.316 109.711 186.237C109.007 187.329 107.869 188.122 106.296 188.616C105.867 188.684 105.629 188.803 105.583 188.974L104.87 189.332L103.307 190.56C102.786 190.969 102.169 191.352 101.455 191.71C100.075 192.255 98.8135 192.741 97.6708 193.166C96.2903 193.712 94.8368 194.145 93.3102 194.468C92.8348 194.707 92.4052 194.775 92.0213 194.672C91.5916 194.74 91.1391 194.893 90.6637 195.132C89.3291 195.506 88.0402 195.709 86.797 195.742C85.3161 195.895 83.8536 195.594 82.4095 194.841L81.8337 194.687C79.6308 194.463 77.3548 194.127 75.0057 193.681C72.6565 193.234 70.3532 192.617 68.0955 191.829L66.6559 191.443C65.367 191.647 64.1696 191.509 63.0637 191.03L59.3207 190.027C58.5529 189.821 57.4469 189.342 56.0029 188.589C54.8512 188.28 54.161 188.553 53.9322 189.407L53.5891 190.687C53.3147 191.711 53.1406 193.129 53.0671 194.939C52.8016 196.697 52.5589 198.371 52.3392 199.959C51.8817 201.666 51.5431 203.314 51.3233 204.902C51.2498 206.712 51.1031 208.411 50.8834 209.999C50.4716 211.535 50.229 213.209 50.1554 215.019C49.9725 215.702 49.8854 216.41 49.8944 217.144L49.2768 219.449C49.2401 220.354 49.249 221.089 49.3037 221.652C49.3127 222.387 49.2028 223.181 48.9741 224.034C48.9373 224.939 48.8274 225.733 48.6444 226.416L48.0269 228.721C48.1363 229.848 48.456 230.574 48.9861 230.899C49.3243 231.173 49.8041 231.302 50.4257 231.285C50.8554 231.217 51.02 230.987 50.9195 230.594C51.4227 228.716 51.6927 227.324 51.7295 226.419L52.3067 220.81C52.6269 219.615 53.436 219.283 54.7339 219.814C55.6936 220.071 56.5803 220.217 57.3938 220.252C58.1616 220.458 58.9796 220.86 59.8479 221.458L60.1358 221.536L63.5908 222.461C64.6968 222.941 65.8256 223.335 66.9773 223.643C67.937 223.9 68.7277 224.021 69.3492 224.004C70.3547 224.091 71.4562 224.203 72.6536 224.341C73.8053 224.649 74.8839 224.847 75.8894 224.933L85.8025 225.943L89.532 225.844C90.7294 225.982 91.9497 226.034 93.1929 226.002C94.0522 225.866 94.7926 225.79 95.4142 225.773C95.9901 225.928 96.6345 225.826 97.3476 225.468C97.5853 225.349 97.8961 225.34 98.28 225.443C98.7096 225.375 99.2352 225.333 99.8568 225.317C100.433 225.471 100.935 225.514 101.365 225.447L103.943 225.039L106.521 224.632L109.524 223.79C110.475 223.313 111.238 223.151 111.814 223.306C112.581 223.511 113.56 223.316 114.748 222.72L115.461 222.362C115.653 222.413 115.868 222.379 116.106 222.26C117.678 221.766 119.227 221.358 120.754 221.035C122.281 220.712 123.611 219.971 124.745 218.811L125.033 218.888C126.084 218.804 126.989 218.497 127.748 217.969C128.506 217.44 129.366 217.304 130.325 217.561C131.843 216.504 132.885 215.686 133.452 215.105C134.257 214.406 134.965 213.681 135.578 212.93C136.145 212.35 136.831 211.711 137.635 211.011C138.248 210.261 138.956 209.535 139.761 208.836C140.374 208.085 141.009 207.249 141.668 206.328L142.518 205.458C142.801 205.168 143.181 204.903 143.656 204.665C144.223 204.085 144.694 203.479 145.069 202.848C145.444 202.216 145.915 201.61 146.481 201.03C147.423 199.819 148.077 198.53 148.443 197.164C148.955 196.021 149.253 194.911 149.335 193.835L150.021 191.274C150.442 190.472 150.689 189.166 150.763 187.356C150.836 185.546 150.987 184.214 151.216 183.36C151.674 181.653 151.701 180.014 151.3 178.442C151.053 177.827 151.067 177.007 151.341 175.983L151.547 175.215C151.401 174.992 151.374 174.711 151.465 174.369C151.21 173.02 151.027 171.782 150.918 170.654C150.817 170.261 150.836 169.809 150.973 169.297C150.918 168.733 150.745 168.229 150.452 167.785C150.297 166.828 150.165 165.786 150.055 164.659C149.9 163.703 149.937 162.798 150.166 161.944C150.102 160.646 149.924 159.775 149.631 159.331C149.431 158.545 149.257 158.041 149.111 157.819C149.01 157.426 149.006 157.059 149.097 156.717C149.143 156.547 149.116 156.265 149.015 155.872C148.668 154.864 148.344 153.771 148.043 152.592C147.695 151.584 147.444 150.602 147.289 149.645L146.824 146.776C146.623 145.99 146.349 145.093 146.002 144.085C145.755 143.47 145.627 142.796 145.618 142.061C145.563 141.498 145.198 140.942 144.522 140.395L144.59 140.139C144.636 139.968 144.586 139.772 144.44 139.55C143.901 138.49 143.576 137.397 143.467 136.27C143.12 135.262 142.677 134.228 142.138 133.169L140.959 130.657L139.424 128.325C138.793 127.607 138.186 126.803 137.601 125.915C136.97 125.197 136.221 124.539 135.353 123.94C133.945 122.282 132.515 120.709 131.062 119.222C129.609 117.735 127.941 116.282 126.059 114.862C124.706 113.768 123.02 112.767 121 111.86C120.086 111.432 119.268 111.03 118.546 110.653C117.586 110.396 116.649 110.054 115.735 109.626C114.483 108.924 113.281 108.419 112.129 108.111C110.786 107.751 109.273 107.254 107.591 106.62C106.778 106.585 105.891 106.439 104.931 106.182C103.734 106.044 102.632 105.932 101.627 105.846C101.051 105.691 100.548 105.648 100.119 105.716L99.2406 105.739C97.6956 105.168 96.1308 104.67 94.5464 104.245C93.0099 103.833 91.4338 103.228 89.818 102.429C89.0559 101.859 88.1626 101.437 87.1383 101.162C86.1597 100.717 85.2039 100.186 84.2711 99.5704C83.5089 99.0002 82.8321 98.4529 82.2407 97.9285C81.8658 97.279 81.3826 96.6921 80.7912 96.1677C77.9714 93.0333 76.1714 89.1658 75.3914 84.5652L74.6782 81.0804C74.4863 79.7481 74.2715 78.5012 74.0338 77.3396C74.0125 76.053 74.2703 74.7497 74.807 73.4296L75.8362 69.5883C76.5437 68.314 77.2053 67.2104 77.8213 66.2775C78.4829 65.174 79.5257 64.3555 80.9495 63.822C81.3367 63.7428 81.5531 63.6178 81.5989 63.4471L82.2483 63.0722L83.6844 61.8101C84.1631 61.3894 84.7271 60.9916 85.3765 60.6167C86.6296 60.0375 87.7745 59.5209 88.8111 59.0667C90.0642 58.4875 91.3797 58.0166 92.7578 57.6539C93.1907 57.404 93.5779 57.3247 93.9194 57.4162C94.3066 57.337 94.7166 57.1724 95.1496 56.9224C96.3569 56.514 97.5185 56.2763 98.6344 56.2093C99.9667 56.0174 101.27 56.2751 102.544 56.9825L103.056 57.1198C105.026 57.2815 107.058 57.5515 109.152 57.9297C111.247 58.308 113.296 58.8569 115.299 59.5766L116.579 59.9197C117.741 59.682 118.811 59.7857 119.789 60.2309L123.118 61.123C123.801 61.3059 124.78 61.7511 126.054 62.4586C127.079 62.733 127.705 62.4435 127.934 61.5898L128.277 60.3094C128.551 59.285 128.747 57.8735 128.863 56.0747C129.149 54.3217 129.413 52.6541 129.654 51.0718C130.112 49.3646 130.461 47.7198 130.702 46.1375C130.818 44.3388 130.996 42.6482 131.237 41.066C131.649 39.5294 131.913 37.8618 132.029 36.0631C132.212 35.3801 132.31 34.6744 132.322 33.9457L132.939 31.6409C132.997 30.7416 133.01 30.0129 132.976 29.455C132.988 28.7263 133.109 27.9352 133.338 27.0816C133.396 26.1822 133.516 25.3911 133.699 24.7082L134.317 22.4034C134.25 21.2875 133.983 20.5756 133.517 20.2676C133.221 20.0054 132.794 19.8911 132.236 19.9245C131.849 20.0038 131.695 20.237 131.774 20.6242C131.271 22.5022 130.99 23.8909 130.932 24.7902L130.26 30.374C129.939 31.569 129.205 31.9211 128.055 31.4301C127.202 31.2014 126.411 31.0809 125.682 31.0687C124.999 30.8857 124.277 30.5091 123.514 29.9389L123.258 29.8703L120.185 29.0469C119.207 28.6017 118.205 28.2418 117.181 27.9674C116.327 27.7386 115.621 27.641 115.063 27.6745C114.164 27.6165 113.179 27.5356 112.109 27.4319C111.085 27.1574 110.123 26.9912 109.224 26.9332L100.361 26.2053L97.0135 26.4062C95.9434 26.3025 94.8504 26.2841 93.7345 26.351C92.9602 26.5095 92.294 26.6055 91.7361 26.639C91.2239 26.5017 90.6431 26.6206 89.9937 26.9955C89.7772 27.1205 89.4982 27.1373 89.1568 27.0458C88.7696 27.125 88.297 27.1814 87.7391 27.2148C87.2269 27.0776 86.7773 27.0486 86.3901 27.1278L84.0669 27.6032L81.7437 28.0786L79.0272 28.9976C78.1613 29.4975 77.4723 29.6789 76.9601 29.5416C76.2772 29.3586 75.3946 29.5796 74.3122 30.2045L73.6628 30.5794C73.4921 30.5337 73.2985 30.5733 73.082 30.6983C71.6582 31.2317 70.2572 31.6797 68.8792 32.0424C67.5011 32.4051 66.2876 33.1779 65.2388 34.3607L64.9827 34.2921C64.0376 34.4048 63.2174 34.734 62.5223 35.2797C61.8271 35.8253 61.0527 35.9838 60.1991 35.7551C58.8088 36.8464 57.8514 37.6878 57.327 38.2792C56.586 38.9956 55.9305 39.7348 55.3603 40.497C54.8359 41.0884 54.2032 41.7423 53.4623 42.4587C52.8921 43.2208 52.2366 43.9601 51.4957 44.6765C50.9255 45.4386 50.3324 46.2861 49.7165 47.219L48.9299 48.1061C48.6677 48.4018 48.3201 48.6746 47.8871 48.9246C47.3627 49.516 46.9236 50.1303 46.5699 50.7674C46.2162 51.4046 45.7771 52.0189 45.2527 52.6103C44.3746 53.8388 43.7525 55.136 43.3865 56.5018C42.8956 57.6512 42.5982 58.7609 42.4945 59.831L41.8083 62.3919C41.4088 63.1998 41.1511 64.5031 41.0351 66.3018C40.9191 68.1006 40.7467 69.4268 40.518 70.2804C40.0605 71.9876 39.9903 73.6157 40.3072 75.1645C40.5114 75.7681 40.4763 76.5821 40.2018 77.6065L39.996 78.3748C40.121 78.5912 40.1377 78.8702 40.0462 79.2116C40.2382 80.544 40.3676 81.768 40.4346 82.8839C40.5138 83.2711 40.4848 83.7208 40.3476 84.233C40.3811 84.7909 40.5228 85.2863 40.7728 85.7192C40.8855 86.6644 40.9753 87.6949 41.0423 88.8107C41.155 89.7558 41.097 90.6552 40.8683 91.5088C40.8895 92.7954 41.0251 93.6551 41.2751 94.0881C41.4336 94.8625 41.5753 95.3579 41.7003 95.5744C41.7795 95.9616 41.7734 96.3259 41.6819 96.6674C41.6361 96.8381 41.6529 97.117 41.7321 97.5042C42.0156 98.4951 42.2761 99.5713 42.5138 100.733C42.7973 101.724 42.9954 102.692 43.1081 103.637L43.4463 106.472C43.6047 107.247 43.8257 108.129 44.1091 109.12C44.3134 109.724 44.4093 110.39 44.3971 111.119C44.4306 111.677 44.743 112.218 45.3344 112.742L45.2658 112.998C45.2201 113.169 45.2597 113.363 45.3847 113.579C45.8388 114.616 46.0994 115.692 46.1664 116.808C46.4498 117.799 46.8186 118.812 47.2728 119.849L48.2604 122.309L49.5727 124.582C50.1184 125.277 50.6411 126.058 51.1411 126.924C51.6867 127.619 52.3406 128.252 53.1028 128.822C54.3191 130.429 55.5583 131.95 56.8203 133.386C58.0824 134.822 59.538 136.219 61.1873 137.576C62.3701 138.624 63.8548 139.571 65.6412 140.416C66.4491 140.815 67.1717 141.192 67.8088 141.546C68.6624 141.774 69.4932 142.088 70.3011 142.488C71.4047 143.15 72.4686 143.618 73.493 143.892ZM129.907 39.886L129.719 39.5613L129.975 39.6299L129.907 39.886ZM128.891 46.7502L128.566 46.9376L128.635 46.6815L128.891 46.7502ZM52.405 211.23L52.6243 211.563L52.3364 211.486L52.405 211.23ZM53.3253 204.34L53.6819 204.161L53.6133 204.417L53.3253 204.34Z" fill="white"/>
<path d="M368.378 101.187C369.376 104.684 369.875 108.056 369.875 111.303C370.125 114.3 370 117.547 369.501 121.044C369.251 123.791 368.253 126.289 366.507 128.537C364.76 130.785 363.013 132.908 361.266 134.906C357.523 138.903 352.658 141.9 346.669 143.898C343.674 144.897 340.68 145.772 337.686 146.521C334.691 147.021 331.697 147.395 328.703 147.645C325.459 147.895 322.215 148.145 318.971 148.394C315.977 148.394 312.982 148.644 309.988 149.144C308.491 149.393 306.993 149.643 305.496 149.893C304.249 149.893 302.876 149.893 301.379 149.893C300.131 149.893 298.509 149.768 296.513 149.518C294.766 149.269 293.269 149.393 292.022 149.893C290.774 150.393 290.15 151.267 290.15 152.516C290.4 153.764 290.524 155.013 290.524 156.262V167.127V188.483C290.774 191.98 291.023 195.352 291.273 198.599C291.523 201.846 291.772 205.218 292.022 208.715C292.271 210.214 292.271 211.837 292.022 213.586C292.022 215.084 292.146 216.708 292.396 218.456C292.645 219.455 292.895 220.954 293.144 222.952C293.644 224.701 293.644 225.95 293.144 226.699C292.645 227.698 291.523 228.197 289.776 228.197C288.279 227.948 287.156 227.823 286.407 227.823C284.411 227.823 282.539 227.948 280.793 228.197C279.046 228.197 277.299 228.322 275.553 228.572C272.059 229.072 268.566 229.446 265.072 229.696C261.579 230.196 258.085 230.695 254.592 231.195C252.346 231.445 249.352 231.944 245.609 232.693C241.866 233.443 238.996 232.818 237 230.82C239.994 229.571 242.864 228.822 245.609 228.572C244.611 226.824 244.112 224.201 244.112 220.704C244.112 217.207 244.112 215.084 244.112 214.335C243.613 211.587 243.238 208.965 242.989 206.467C242.989 203.969 242.739 201.347 242.24 198.599C241.741 196.351 241.492 194.103 241.492 191.855C241.492 189.607 241.367 187.359 241.117 185.111C240.618 182.863 240.493 180.74 240.743 178.742C240.992 176.744 241.242 174.496 241.492 171.998C241.492 169.5 241.367 167.127 241.117 164.879C241.117 162.382 241.117 159.884 241.117 157.386C241.117 154.639 241.242 151.891 241.492 149.144C241.741 146.146 241.991 143.274 242.24 140.526C242.24 139.278 242.24 138.154 242.24 137.154C242.24 135.906 242.365 134.657 242.614 133.408C242.864 132.409 243.114 131.535 243.363 130.785C243.862 130.036 244.236 129.162 244.486 128.163C244.735 127.663 244.735 127.163 244.486 126.664C244.486 126.164 244.486 125.665 244.486 125.165V124.416C243.238 123.667 243.238 123.042 244.486 122.543C244.735 121.294 244.86 120.295 244.86 119.545C245.11 118.796 245.235 117.797 245.235 116.548C245.484 114.05 245.609 111.677 245.609 109.429C245.858 107.181 245.983 104.933 245.983 102.685C245.734 99.9379 245.359 97.3153 244.86 94.8176C244.361 92.07 243.987 89.3225 243.737 86.575C243.737 85.3261 243.737 84.2021 243.737 83.203C243.737 81.9541 243.613 80.7053 243.363 79.4564C243.114 78.2075 242.739 77.0835 242.24 76.0844C241.991 75.0853 241.741 73.9613 241.492 72.7125C241.492 71.4636 241.616 70.4645 241.866 69.7152C242.365 68.7161 242.614 67.717 242.614 66.7178C242.614 65.2192 242.49 63.7205 242.24 62.2219C242.24 60.7232 242.24 59.2246 242.24 57.7259C242.24 54.9784 242.365 52.106 242.614 49.1087C243.114 46.1114 243.488 43.239 243.737 40.4914C243.987 38.4933 244.486 36.7448 245.235 35.2462C245.983 33.7475 247.605 32.8733 250.1 32.6235C252.596 32.3738 255.091 32.3738 257.586 32.6235C260.082 32.6235 262.702 32.4987 265.447 32.2489C267.193 31.9991 268.94 31.8742 270.687 31.8742C272.433 31.6244 274.18 31.3747 275.927 31.1249C277.174 31.1249 278.547 31.1249 280.044 31.1249C281.541 30.8751 282.914 31 284.161 31.4995C284.91 31.9991 285.409 32.9982 285.659 34.4969C285.908 35.7457 286.033 37.2444 286.033 38.9928C286.033 40.4915 285.908 42.115 285.659 43.8634C285.659 45.3621 285.659 46.4861 285.659 47.2354V48.3594C286.407 47.6101 287.655 46.8607 289.401 46.1114C291.148 45.3621 293.02 44.7376 295.016 44.2381C297.012 43.7385 298.884 43.239 300.63 42.7394C302.377 42.2399 303.5 41.9901 303.999 41.9901C306.993 41.4906 310.113 41.3657 313.356 41.6154C316.6 41.8652 319.595 42.6145 322.34 43.8634C328.328 46.1114 333.818 48.8589 338.809 52.106C344.049 55.3531 348.54 59.7241 352.283 65.2192C354.28 67.9667 355.901 70.8391 357.149 73.8364C358.646 76.8337 360.019 79.831 361.266 82.8283C362.764 85.8256 364.136 88.823 365.384 91.8203C366.631 94.8176 367.629 97.9397 368.378 101.187ZM286.781 102.311C286.781 104.309 286.906 106.432 287.156 108.68C287.405 110.678 287.78 112.676 288.279 114.675C288.528 116.423 289.152 117.547 290.15 118.047C291.148 118.296 292.271 118.296 293.519 118.047C295.016 117.797 296.388 117.547 297.636 117.297C298.884 116.798 300.131 116.673 301.379 116.923C304.872 117.422 308.366 118.047 311.859 118.796C315.602 119.545 319.22 119.795 322.714 119.545C324.71 119.296 326.706 118.921 328.703 118.421C330.699 117.672 332.695 117.048 334.691 116.548C336.438 116.048 338.185 115.674 339.932 115.424C341.678 114.924 342.801 113.676 343.3 111.677C344.049 109.679 344.174 107.681 343.674 105.683C343.425 103.435 343.3 101.312 343.3 99.3135C343.3 95.5669 342.926 91.8202 342.177 88.0736C342.427 88.0736 342.302 87.3243 341.803 85.8256C341.304 84.327 340.68 82.7035 339.932 80.955C339.432 78.9568 338.809 77.2084 338.06 75.7098C337.311 73.9613 336.688 72.9622 336.189 72.7125C334.941 71.9631 333.693 71.3387 332.446 70.8391C331.198 70.0898 329.95 69.4654 328.703 68.9658C326.956 68.2165 325.334 67.5921 323.837 67.0925C322.589 66.593 321.092 65.9685 319.345 65.2192C316.6 64.2201 313.481 63.5957 309.988 63.3459C306.494 63.0961 303.375 63.221 300.63 63.7205C298.135 63.9703 295.265 64.4699 292.022 65.2192C288.778 65.7187 286.906 67.4672 286.407 70.4645C286.158 73.9613 286.033 77.5831 286.033 81.3297C286.282 85.0763 286.532 88.6981 286.781 92.1949C287.031 94.1931 287.031 95.9415 286.781 97.4402C286.781 98.9388 286.781 100.562 286.781 102.311Z" fill="white"/>
<path d="M177.455 204.659C175.469 205.411 174.352 206.915 174.103 209.172C173.855 210.426 173.731 212.306 173.731 214.813C173.979 215.064 174.103 215.315 174.103 215.566C174.6 216.067 174.972 216.694 175.221 217.446C175.469 218.198 175.841 218.825 176.338 219.327C176.338 219.828 176.462 220.204 176.71 220.455C176.959 220.455 177.083 220.58 177.083 220.831C177.828 220.58 178.2 219.953 178.2 218.95V211.429C179.441 209.924 179.814 208.044 179.317 205.787C179.317 205.286 179.441 205.035 179.69 205.035C180.434 204.534 180.807 203.907 180.807 203.155C181.055 202.402 181.303 201.65 181.552 200.898C181.8 199.644 182.297 198.641 183.041 197.889C183.786 196.886 184.407 195.758 184.903 194.504C185.4 193.501 186.269 193 187.51 193C191.234 193 193.841 194.128 195.331 196.385L197.566 198.641C197.814 199.143 198.062 199.519 198.31 199.77C198.559 200.02 198.807 200.396 199.055 200.898C199.8 202.653 200.917 203.656 202.407 203.907C203.897 204.659 205.014 205.536 205.759 206.539C206.255 207.292 206.628 208.044 206.876 208.796C207.124 209.297 207 209.924 206.503 210.676C206.255 211.178 206.131 211.679 206.131 212.181C206.379 212.431 206.503 212.808 206.503 213.309C205.759 213.058 204.89 212.933 203.897 212.933V211.805C204.145 210.802 204.145 209.673 203.897 208.42C203.152 206.915 202.034 206.163 200.545 206.163C200.545 206.915 200.669 207.417 200.917 207.668C200.917 208.169 200.917 208.545 200.917 208.796C201.166 208.796 201.29 208.921 201.29 209.172C200.793 210.676 200.917 211.805 201.662 212.557C202.407 213.309 203.152 214.187 203.897 215.19V215.566C203.897 216.819 203.772 217.948 203.524 218.95C203.524 219.953 203.028 220.956 202.034 221.959C201.538 222.461 201.166 223.087 200.917 223.84C200.917 224.341 200.669 224.843 200.172 225.344C199.924 225.845 199.676 226.222 199.428 226.472C199.428 226.472 199.303 226.723 199.055 227.224C198.062 227.726 197.69 228.353 197.938 229.105C197.69 229.606 197.566 229.857 197.566 229.857C196.572 230.359 195.828 230.985 195.331 231.738C194.834 232.239 194.09 232.615 193.097 232.866C192.352 232.866 191.979 233.242 191.979 233.994C191.731 234.997 190.986 235.499 189.745 235.499C189 235.499 188.255 235.624 187.51 235.875C186.766 236.125 186.021 236 185.276 235.499C184.034 235.248 182.793 234.496 181.552 233.242C181.303 232.991 181.179 232.364 181.179 231.362C180.683 230.359 180.186 229.481 179.69 228.729C178.945 228.478 178.448 227.977 178.2 227.224C176.959 226.222 175.717 225.093 174.476 223.84C173.483 222.586 172.862 220.956 172.614 218.95C172.614 218.198 172.366 217.571 171.869 217.07C171.372 216.067 171.248 215.315 171.497 214.813C171.497 214.813 171.497 214.187 171.497 212.933C171 211.679 170.876 210.551 171.124 209.548C171.621 208.294 171.869 207.041 171.869 205.787C171.869 205.787 172.241 205.411 172.986 204.659C174.228 203.405 175.717 203.405 177.455 204.659ZM189.745 215.942C189.497 213.685 190.241 211.93 191.979 210.676C192.228 210.426 192.352 210.175 192.352 209.924C192.6 209.673 192.848 209.423 193.097 209.172C193.841 208.42 193.966 207.542 193.469 206.539C192.724 205.787 191.731 205.536 190.49 205.787C189.497 205.787 188.752 206.289 188.255 207.292C187.759 208.294 187.386 209.297 187.138 210.3C186.89 211.052 186.517 211.93 186.021 212.933C185.772 213.184 185.648 213.434 185.648 213.685C185.897 213.685 185.897 213.81 185.648 214.061C185.648 215.315 185.897 216.318 186.393 217.07C187.138 217.822 187.759 218.7 188.255 219.703C188.503 220.204 189.124 220.58 190.117 220.831C191.359 220.831 192.228 220.58 192.724 220.079V219.703C193.221 217.697 193.469 216.443 193.469 215.942C193.469 215.44 193.097 214.813 192.352 214.061C191.855 215.315 190.986 215.942 189.745 215.942ZM184.903 204.659C187.386 203.405 189.124 202.528 190.117 202.026C191.11 201.525 193.345 202.528 196.821 205.035C196.821 204.534 196.945 204.157 197.193 203.907C197.441 203.405 197.441 203.029 197.193 202.778C196.697 201.525 196.076 200.396 195.331 199.394C194.586 198.391 193.593 197.638 192.352 197.137C189.869 196.385 188.007 196.886 186.766 198.641C186.269 199.394 185.897 200.146 185.648 200.898C185.4 201.399 185.028 202.026 184.531 202.778C184.531 203.029 184.531 203.28 184.531 203.531C184.779 203.781 184.903 204.157 184.903 204.659ZM192.352 224.592C191.359 224.09 190.49 223.589 189.745 223.087C189 222.586 188.131 222.085 187.138 221.583C186.145 221.082 185.4 220.455 184.903 219.703C184.655 218.7 184.034 217.948 183.041 217.446C183.041 217.697 182.917 217.948 182.669 218.198C182.669 218.198 182.669 218.324 182.669 218.574C182.669 219.828 182.917 221.332 183.414 223.087C184.159 224.843 185.4 226.222 187.138 227.224C188.379 227.726 189.621 227.726 190.862 227.224C192.103 226.472 192.6 225.595 192.352 224.592ZM188.255 233.618L189.745 232.114C187.51 230.609 185.4 230.108 183.414 230.609C183.662 232.114 184.283 232.991 185.276 233.242C186.269 233.242 187.262 233.367 188.255 233.618Z" fill="white"/>
<path d="M390.634 206.659C388.593 207.411 387.445 208.915 387.19 211.172C386.934 212.426 386.807 214.306 386.807 216.813C387.062 217.064 387.19 217.315 387.19 217.566C387.7 218.067 388.083 218.694 388.338 219.446C388.593 220.198 388.976 220.825 389.486 221.327C389.486 221.828 389.614 222.204 389.869 222.455C390.124 222.455 390.252 222.58 390.252 222.831C391.017 222.58 391.4 221.953 391.4 220.95V213.429C392.676 211.924 393.059 210.044 392.548 207.787C392.548 207.286 392.676 207.035 392.931 207.035C393.697 206.534 394.079 205.907 394.079 205.155C394.334 204.402 394.59 203.65 394.845 202.898C395.1 201.644 395.61 200.641 396.376 199.889C397.141 198.886 397.779 197.758 398.29 196.504C398.8 195.501 399.693 195 400.969 195C404.797 195 407.476 196.128 409.007 198.385L411.303 200.641C411.559 201.143 411.814 201.519 412.069 201.77C412.324 202.02 412.579 202.396 412.834 202.898C413.6 204.653 414.748 205.656 416.279 205.907C417.81 206.659 418.959 207.536 419.724 208.539C420.234 209.292 420.617 210.044 420.872 210.796C421.128 211.297 421 211.924 420.49 212.676C420.234 213.178 420.107 213.679 420.107 214.181C420.362 214.431 420.49 214.808 420.49 215.309C419.724 215.058 418.831 214.933 417.81 214.933V213.805C418.066 212.802 418.066 211.673 417.81 210.42C417.045 208.915 415.897 208.163 414.366 208.163C414.366 208.915 414.493 209.417 414.748 209.668C414.748 210.169 414.748 210.545 414.748 210.796C415.003 210.796 415.131 210.921 415.131 211.172C414.621 212.676 414.748 213.805 415.514 214.557C416.279 215.309 417.045 216.187 417.81 217.19V217.566C417.81 218.819 417.683 219.948 417.428 220.95C417.428 221.953 416.917 222.956 415.897 223.959C415.386 224.461 415.003 225.087 414.748 225.84C414.748 226.341 414.493 226.843 413.983 227.344C413.728 227.845 413.472 228.222 413.217 228.472C413.217 228.472 413.09 228.723 412.834 229.224C411.814 229.726 411.431 230.353 411.686 231.105C411.431 231.606 411.303 231.857 411.303 231.857C410.283 232.359 409.517 232.985 409.007 233.738C408.497 234.239 407.731 234.615 406.71 234.866C405.945 234.866 405.562 235.242 405.562 235.994C405.307 236.997 404.541 237.499 403.266 237.499C402.5 237.499 401.734 237.624 400.969 237.875C400.203 238.125 399.438 238 398.672 237.499C397.397 237.248 396.121 236.496 394.845 235.242C394.59 234.991 394.462 234.364 394.462 233.362C393.952 232.359 393.441 231.481 392.931 230.729C392.166 230.478 391.655 229.977 391.4 229.224C390.124 228.222 388.848 227.093 387.572 225.84C386.552 224.586 385.914 222.956 385.659 220.95C385.659 220.198 385.403 219.571 384.893 219.07C384.383 218.067 384.255 217.315 384.51 216.813C384.51 216.813 384.51 216.187 384.51 214.933C384 213.679 383.872 212.551 384.128 211.548C384.638 210.294 384.893 209.041 384.893 207.787C384.893 207.787 385.276 207.411 386.041 206.659C387.317 205.405 388.848 205.405 390.634 206.659ZM403.266 217.942C403.01 215.685 403.776 213.93 405.562 212.676C405.817 212.426 405.945 212.175 405.945 211.924C406.2 211.673 406.455 211.423 406.71 211.172C407.476 210.42 407.603 209.542 407.093 208.539C406.328 207.787 405.307 207.536 404.031 207.787C403.01 207.787 402.245 208.289 401.734 209.292C401.224 210.294 400.841 211.297 400.586 212.3C400.331 213.052 399.948 213.93 399.438 214.933C399.183 215.184 399.055 215.434 399.055 215.685C399.31 215.685 399.31 215.81 399.055 216.061C399.055 217.315 399.31 218.318 399.821 219.07C400.586 219.822 401.224 220.7 401.734 221.703C401.99 222.204 402.628 222.58 403.648 222.831C404.924 222.831 405.817 222.58 406.328 222.079V221.703C406.838 219.697 407.093 218.443 407.093 217.942C407.093 217.44 406.71 216.813 405.945 216.061C405.434 217.315 404.541 217.942 403.266 217.942ZM398.29 206.659C400.841 205.405 402.628 204.528 403.648 204.026C404.669 203.525 406.966 204.528 410.538 207.035C410.538 206.534 410.666 206.157 410.921 205.907C411.176 205.405 411.176 205.029 410.921 204.778C410.41 203.525 409.772 202.396 409.007 201.394C408.241 200.391 407.221 199.638 405.945 199.137C403.393 198.385 401.479 198.886 400.203 200.641C399.693 201.394 399.31 202.146 399.055 202.898C398.8 203.399 398.417 204.026 397.907 204.778C397.907 205.029 397.907 205.28 397.907 205.531C398.162 205.781 398.29 206.157 398.29 206.659ZM405.945 226.592C404.924 226.09 404.031 225.589 403.266 225.087C402.5 224.586 401.607 224.085 400.586 223.583C399.566 223.082 398.8 222.455 398.29 221.703C398.034 220.7 397.397 219.948 396.376 219.446C396.376 219.697 396.248 219.948 395.993 220.198C395.993 220.198 395.993 220.324 395.993 220.574C395.993 221.828 396.248 223.332 396.759 225.087C397.524 226.843 398.8 228.222 400.586 229.224C401.862 229.726 403.138 229.726 404.414 229.224C405.69 228.472 406.2 227.595 405.945 226.592ZM401.734 235.618L403.266 234.114C400.969 232.609 398.8 232.108 396.759 232.609C397.014 234.114 397.652 234.991 398.672 235.242C399.693 235.242 400.714 235.367 401.734 235.618Z" fill="white"/>
<path d="M444.96 39.8675C444.96 40.8856 444.306 41.7764 443 42.5399L443.784 46.7396C444.306 47.2486 444.96 48.0122 445.744 49.0303C446.527 50.0484 447.181 50.6847 447.703 50.9392C447.964 50.4301 448.095 50.0484 448.095 49.7938C448.095 49.5393 448.226 49.2848 448.487 49.0303C449.793 51.0665 450.577 53.3572 450.839 55.9024C451.361 58.1931 452.014 60.4838 452.798 62.7745L454.366 69.6466C454.889 71.6827 455.28 73.8462 455.542 76.1369C456.326 81.2273 457.24 86.1905 458.285 91.0265C459.33 95.6078 460.114 100.317 460.637 105.152C461.421 109.479 461.551 114.57 461.029 120.424V126.151C461.29 127.932 461.29 129.841 461.029 131.877C461.029 133.913 460.898 136.077 460.637 138.368C460.376 140.658 460.114 142.822 459.853 144.858C459.592 147.403 459.592 149.821 459.853 152.112C460.114 154.402 460.245 156.82 460.245 159.366L461.029 172.346C461.29 176.673 461.29 181 461.029 185.327C461.029 187.363 461.159 189.527 461.421 191.817L462.205 197.926C462.205 199.962 462.074 202.125 461.813 204.416C461.813 206.452 461.943 208.488 462.205 210.525C462.466 212.561 462.727 214.724 462.988 217.015C463.25 219.306 463.642 221.469 464.164 223.505C464.426 225.032 464.556 226.687 464.556 228.468C464.817 229.996 465.863 230.886 467.692 231.141C471.611 231.905 475.4 232.159 479.058 231.905L490.816 230.377C492.906 230.123 494.996 229.996 497.086 229.996H503.749C504.533 229.741 505.317 229.614 506.101 229.614C507.146 229.359 507.93 228.978 508.452 228.468C508.975 227.959 508.975 227.069 508.452 225.796C508.191 224.523 508.061 223.505 508.061 222.742C508.322 218.669 508.714 214.724 509.236 210.906L510.804 198.689C511.065 196.653 511.065 194.744 510.804 192.963V187.236V181.509C511.065 179.727 511.065 177.819 510.804 175.782C510.543 174.51 510.543 173.364 510.804 172.346C511.065 171.328 511.065 170.31 510.804 169.292C510.543 168.528 510.281 167.892 510.02 167.383C510.02 166.62 509.89 165.856 509.628 165.092L508.844 159.747C508.844 157.966 508.714 156.057 508.452 154.021C508.191 151.985 507.93 149.821 507.669 147.53L506.885 140.658C506.623 138.877 506.493 137.095 506.493 135.313C506.493 133.532 506.231 131.623 505.709 129.587C505.186 126.023 504.533 122.587 503.749 119.278C502.965 115.97 502.182 112.534 501.398 108.97C500.614 104.898 499.961 100.953 499.438 97.135C498.915 93.0626 498.262 89.1175 497.478 85.2997C496.956 80.9728 496.303 76.9005 495.519 73.0826C494.996 69.0103 494.604 64.8106 494.343 60.4838L493.559 54.3752C493.559 52.3391 493.428 50.3029 493.167 48.2667V45.5942C493.428 44.8306 493.559 43.9398 493.559 42.9217C493.559 41.9036 493.298 41.0128 492.775 40.2493C492.514 39.2312 492.383 38.2131 492.383 37.195C492.122 35.9224 491.991 34.777 491.991 33.7589C492.253 32.7408 492.253 31.5955 491.991 30.3229L491.207 28.0322C490.946 27.2686 490.816 26.505 490.816 25.7415C490.554 24.4689 490.293 23.4508 490.032 22.6872C489.77 21.9236 488.725 21.7964 486.896 22.3054C484.806 23.069 482.846 23.9598 481.017 24.9779C479.188 25.996 477.229 27.0141 475.138 28.0322C473.571 28.7958 471.872 29.5593 470.043 30.3229C468.476 31.0864 466.908 31.9773 465.34 32.9954C463.772 33.7589 461.943 34.5225 459.853 35.2861C458.024 35.7951 456.195 36.4314 454.366 37.195C452.798 37.9585 451.231 38.8494 449.663 39.8675C448.095 40.631 446.527 40.631 444.96 39.8675Z" fill="white"/>
<path d="M597.327 133.689C596.914 134.756 596.089 135.822 595.677 137.244C595.677 137.6 595.264 138.311 594.852 139.022C592.377 141.511 591.965 144.711 591.965 147.911C591.965 150.756 591.552 153.6 590.727 156.089C590.727 156.8 589.49 157.867 588.665 157.867C584.953 159.289 583.303 161.778 582.066 165.333C580.828 165.333 579.591 165.689 578.354 165.333C575.054 164.622 572.167 163.556 569.692 161.067C568.867 159.644 567.217 158.578 565.567 157.511C563.093 155.733 562.268 153.6 561.855 151.111C561.855 150.044 561.443 148.978 561.03 148.267C560.618 146.133 559.38 144.711 559.793 142.222C559.793 140.8 558.556 139.378 558.143 137.956C557.318 136.178 556.493 134.4 556.081 132.622C555.256 130.133 554.843 127.644 554.431 125.156C554.019 123.733 554.019 121.956 554.019 120.178C554.019 119.111 554.019 117.689 554.019 116.267C554.019 115.2 553.606 114.133 553.606 113.067C553.606 109.511 553.606 106.311 553.194 102.756C552.781 99.9111 552.369 97.0667 551.956 94.2222C551.956 93.8667 551.956 93.1556 551.544 92.8C550.719 91.7333 550.306 90.6667 550.719 89.6C551.131 88.5333 550.719 87.8222 550.719 87.1111C550.719 85.6889 550.719 84.6222 550.719 83.2C550.719 82.8444 551.131 82.1333 550.719 81.7778C549.069 79.6444 550.719 77.1556 551.131 75.0222C551.131 72.5333 551.544 70.0445 551.131 67.5556C551.131 64 552.781 60.4444 552.781 56.8889C552.781 54.0444 552.781 51.2 551.131 48.3556C553.194 46.5778 553.606 44.0889 553.606 41.9556C553.606 39.4667 554.019 36.9778 554.019 34.4889C554.431 32.3556 554.019 30.5778 555.256 28.8C556.081 27.7333 556.081 26.3111 556.493 24.8889C556.906 23.1111 557.318 21.3333 558.556 19.9111C559.793 17.4222 561.03 15.6445 560.205 12.8C559.793 11.3778 561.03 10.3111 563.093 9.6C566.805 8.53333 570.517 7.1111 574.641 6.04445C576.291 5.33333 577.941 5.33333 579.591 5.33333C581.241 4.97778 582.478 4.97778 584.128 4.62223C584.128 3.55555 584.128 2.13333 584.128 0.711123C585.778 0.711123 587.428 0 589.077 0C591.552 0.355551 594.027 0.355551 595.264 3.2C596.089 5.6889 597.739 8.17778 598.564 11.0222C598.976 12.4445 599.389 13.5111 600.626 14.2222C604.338 16.3556 607.226 19.2 607.226 23.4667C610.113 29.1556 609.7 35.5556 611.35 41.2444C612.175 45.5111 611.763 50.1333 612.588 54.4C612.588 54.4 613 54.4 613 54.7556C611.35 59.3778 613.412 64 612.588 68.6222C612.175 72.8889 612.588 77.1556 611.35 81.7778C610.113 86.7556 609.7 92.0889 607.638 97.0667C606.401 100.978 607.226 104.889 606.401 108.8C605.988 112.356 606.401 115.911 605.576 119.467C605.163 121.6 604.338 124.089 604.338 126.222C604.751 128 604.751 129.778 605.163 131.2C605.576 132.978 604.751 134.044 602.689 134.044C601.039 134.044 599.389 133.689 597.327 133.689ZM568.042 12.8C567.63 14.5778 566.805 15.6445 566.392 17.0667C565.155 18.8445 563.505 20.2667 563.093 22.4C562.68 24.1778 561.855 25.9556 561.443 28.0889C561.443 29.8667 561.443 31.6444 560.205 33.0667C559.793 33.4222 559.793 34.1333 559.793 34.4889C560.618 35.9111 561.443 37.3333 561.855 39.1111C564.742 38.4 565.155 36.6222 565.567 34.4889C565.155 34.4889 564.33 34.1333 563.918 34.1333C564.33 32.3556 564.742 30.9333 565.155 29.5111C565.155 28.8 564.742 28.4444 564.33 27.7333C563.918 26.6667 564.742 26.3111 565.567 25.9556C565.567 25.9556 565.567 25.6 565.98 25.2445C565.567 24.8889 565.155 24.5333 564.33 23.8222C565.98 21.3333 566.805 17.7778 571.342 17.7778C572.167 16 572.579 14.2222 573.404 12.4445C571.342 11.0222 569.692 12.8 568.042 12.8ZM575.466 158.222C577.529 156.089 577.529 153.956 576.291 152.178C574.641 150.044 570.104 148.978 567.217 149.689C569.692 152.533 571.754 155.733 575.466 158.222ZM592.79 19.5556C594.027 18.8445 595.677 18.4889 594.852 17.0667C594.027 15.6445 591.965 13.8667 590.727 12.4445C590.315 12.0889 589.49 12.4445 589.077 12.4445C589.49 15.2889 589.49 18.1333 592.79 19.5556ZM558.968 47.6444C558.968 48 558.556 48 558.556 48.3556C558.968 48.7111 559.38 49.0667 559.793 49.0667C559.793 49.4222 560.205 49.0667 560.205 49.0667C559.793 48.7111 559.38 48 558.968 47.6444ZM580.828 9.95555C581.241 9.95555 581.241 9.95555 581.241 9.95555V9.6L580.828 9.95555ZM582.891 9.24445H582.478C582.478 9.24445 582.478 9.24445 582.891 9.24445ZM570.104 147.556H570.517L570.104 147.2C570.104 147.556 570.104 147.556 570.104 147.556ZM565.98 186.667C566.805 183.111 566.805 183.111 570.929 182.044C570.929 181.689 570.929 180.978 570.929 180.267C572.579 179.911 574.641 179.2 576.704 178.844C576.291 176.356 576.704 175.644 580.003 175.289C584.128 175.289 588.665 175.289 591.552 178.844C592.79 180.267 594.852 180.978 596.089 182.4C597.327 183.467 598.152 184.533 598.976 185.6C600.214 188.444 601.451 191.289 602.689 193.778C603.101 194.844 603.513 195.911 603.101 196.978C603.101 197.333 603.101 198.044 603.101 198.756C605.163 202.667 604.338 206.578 603.926 210.133C603.513 212.978 603.926 215.822 602.689 218.667C601.864 219.733 599.801 225.067 598.976 226.133C598.564 226.844 598.564 227.556 598.564 228.267C598.564 230.756 597.739 232.533 594.439 233.6C593.202 233.956 591.965 235.022 590.315 235.733C589.49 236.089 588.253 236.089 587.428 235.733C585.365 235.733 583.303 235.022 581.241 235.378C579.591 235.733 577.941 234.311 576.291 233.6C573.816 232.178 571.342 230.756 568.867 229.333C568.455 228.978 568.042 228.622 568.042 228.267C568.042 227.2 567.63 226.844 566.392 226.489C564.33 225.422 563.505 224 563.093 221.867C563.918 221.511 564.742 221.156 565.567 220.444C565.155 220.444 565.155 220.089 564.742 219.733C564.33 219.378 563.093 219.022 563.505 218.667C563.918 215.822 561.443 214.4 559.793 212.978C558.143 211.2 558.143 210.133 558.968 208C560.205 208 561.443 207.644 562.68 207.644C562.268 207.289 562.68 206.933 562.268 206.578C559.38 204.089 560.205 200.889 560.618 197.689C561.03 195.911 561.443 193.778 561.443 192C561.443 189.156 562.268 187.022 565.98 186.667ZM593.202 184.889C593.614 184.889 593.614 184.889 594.027 184.889C593.614 184.889 593.614 184.889 593.202 184.889C591.14 180.267 586.19 178.133 582.891 180.978C584.54 182.044 586.19 182.4 587.428 183.467C589.077 185.244 590.727 185.6 593.202 184.889ZM572.992 221.867C574.229 224 575.054 225.422 575.879 227.2C576.704 228.622 577.941 228.978 579.591 228.978C581.241 228.622 582.478 228.267 583.715 226.844C584.953 225.067 586.603 224 589.49 224C589.077 222.933 588.665 221.511 588.253 220.444C587.428 220.444 586.603 220.444 585.778 220.444C584.953 220.444 584.128 220.444 583.715 220.444C580.828 223.289 579.591 223.289 576.291 221.867C575.879 221.867 575.466 221.156 575.466 221.511C574.641 221.511 573.816 221.511 572.992 221.867ZM599.801 197.333C598.152 198.4 596.502 198.4 596.089 199.822C597.327 200.533 598.564 200.533 599.801 199.467C600.214 199.467 599.801 198.4 599.801 197.333ZM585.778 193.422C585.778 194.844 586.19 195.556 587.428 195.556C587.84 194.133 587.428 193.422 585.778 193.422ZM587.84 209.778C587.84 210.133 588.253 210.133 588.253 210.489C588.665 210.133 589.49 209.778 589.902 209.422C589.902 209.422 589.902 209.067 589.49 209.067C589.077 209.067 588.665 209.422 587.84 209.778ZM567.63 217.956C567.63 217.6 567.63 217.244 567.63 217.244C567.217 217.244 566.392 217.244 565.567 217.244V217.6C566.392 217.6 566.805 217.956 567.63 217.956ZM572.579 182.4C572.167 182.4 572.167 182.756 572.167 182.756C572.579 182.756 572.579 182.4 572.579 182.4Z" fill="white"/>
</svg>
